<?xml version="1.0" encoding="utf-8" standalone="no"?>
<!DOCTYPE svg PUBLIC "-//W3C//DTD SVG 1.1//EN"
  "http://www.w3.org/Graphics/SVG/1.1/DTD/svg11.dtd">
<!-- Created with matplotlib (https://matplotlib.org/) -->
<svg height="1296pt" version="1.1" viewBox="0 0 1296 1296" width="1296pt" xmlns="http://www.w3.org/2000/svg" xmlns:xlink="http://www.w3.org/1999/xlink">
 <metadata>
  <rdf:RDF xmlns:cc="http://creativecommons.org/ns#" xmlns:dc="http://purl.org/dc/elements/1.1/" xmlns:rdf="http://www.w3.org/1999/02/22-rdf-syntax-ns#">
   <cc:Work>
    <dc:type rdf:resource="http://purl.org/dc/dcmitype/StillImage"/>
    <dc:date>2022-06-29T14:00:17.180978</dc:date>
    <dc:format>image/svg+xml</dc:format>
    <dc:creator>
     <cc:Agent>
      <dc:title>Matplotlib v3.3.3, https://matplotlib.org/</dc:title>
     </cc:Agent>
    </dc:creator>
   </cc:Work>
  </rdf:RDF>
 </metadata>
 <defs>
  <style type="text/css">*{stroke-linecap:butt;stroke-linejoin:round;}</style>
 </defs>
 <g id="figure_1">
  <g id="patch_1">
   <path d="M 0 1296 
L 1296 1296 
L 1296 0 
L 0 0 
z
" style="fill:#ffffff;"/>
  </g>
  <g id="axes_1">
   <g id="patch_2">
    <path d="M 202.35 1179.94 
L 1208.424545 1179.94 
L 1208.424545 96.24 
L 202.35 96.24 
z
" style="fill:#ffffff;"/>
   </g>
   <g id="matplotlib.axis_1">
    <g id="xtick_1">
     <g id="text_1">
      <!-- Healthy -->
      <g style="fill:#262626;" transform="translate(270.920498 1231.229063)scale(0.5 -0.5)">
       <defs>
        <path d="M 8.015625 0 
L 8.015625 71.578125 
L 17.484375 71.578125 
L 17.484375 42.1875 
L 54.6875 42.1875 
L 54.6875 71.578125 
L 64.15625 71.578125 
L 64.15625 0 
L 54.6875 0 
L 54.6875 33.734375 
L 17.484375 33.734375 
L 17.484375 0 
z
" id="ArialMT-72"/>
        <path d="M 42.09375 16.703125 
L 51.171875 15.578125 
Q 49.03125 7.625 43.21875 3.21875 
Q 37.40625 -1.171875 28.375 -1.171875 
Q 17 -1.171875 10.328125 5.828125 
Q 3.65625 12.84375 3.65625 25.484375 
Q 3.65625 38.578125 10.390625 45.796875 
Q 17.140625 53.03125 27.875 53.03125 
Q 38.28125 53.03125 44.875 45.953125 
Q 51.46875 38.875 51.46875 26.03125 
Q 51.46875 25.25 51.421875 23.6875 
L 12.75 23.6875 
Q 13.234375 15.140625 17.578125 10.59375 
Q 21.921875 6.0625 28.421875 6.0625 
Q 33.25 6.0625 36.671875 8.59375 
Q 40.09375 11.140625 42.09375 16.703125 
z
M 13.234375 30.90625 
L 42.1875 30.90625 
Q 41.609375 37.453125 38.875 40.71875 
Q 34.671875 45.796875 27.984375 45.796875 
Q 21.921875 45.796875 17.796875 41.75 
Q 13.671875 37.703125 13.234375 30.90625 
z
" id="ArialMT-101"/>
        <path d="M 40.4375 6.390625 
Q 35.546875 2.25 31.03125 0.53125 
Q 26.515625 -1.171875 21.34375 -1.171875 
Q 12.796875 -1.171875 8.203125 3 
Q 3.609375 7.171875 3.609375 13.671875 
Q 3.609375 17.484375 5.34375 20.625 
Q 7.078125 23.78125 9.890625 25.6875 
Q 12.703125 27.59375 16.21875 28.5625 
Q 18.796875 29.25 24.03125 29.890625 
Q 34.671875 31.15625 39.703125 32.90625 
Q 39.75 34.71875 39.75 35.203125 
Q 39.75 40.578125 37.25 42.78125 
Q 33.890625 45.75 27.25 45.75 
Q 21.046875 45.75 18.09375 43.578125 
Q 15.140625 41.40625 13.71875 35.890625 
L 5.125 37.0625 
Q 6.296875 42.578125 8.984375 45.96875 
Q 11.671875 49.359375 16.75 51.1875 
Q 21.828125 53.03125 28.515625 53.03125 
Q 35.15625 53.03125 39.296875 51.46875 
Q 43.453125 49.90625 45.40625 47.53125 
Q 47.359375 45.171875 48.140625 41.546875 
Q 48.578125 39.3125 48.578125 33.453125 
L 48.578125 21.734375 
Q 48.578125 9.46875 49.140625 6.21875 
Q 49.703125 2.984375 51.375 0 
L 42.1875 0 
Q 40.828125 2.734375 40.4375 6.390625 
z
M 39.703125 26.03125 
Q 34.90625 24.078125 25.34375 22.703125 
Q 19.921875 21.921875 17.671875 20.9375 
Q 15.4375 19.96875 14.203125 18.09375 
Q 12.984375 16.21875 12.984375 13.921875 
Q 12.984375 10.40625 15.640625 8.0625 
Q 18.3125 5.71875 23.4375 5.71875 
Q 28.515625 5.71875 32.46875 7.9375 
Q 36.421875 10.15625 38.28125 14.015625 
Q 39.703125 17 39.703125 22.796875 
z
" id="ArialMT-97"/>
        <path d="M 6.390625 0 
L 6.390625 71.578125 
L 15.1875 71.578125 
L 15.1875 0 
z
" id="ArialMT-108"/>
        <path d="M 25.78125 7.859375 
L 27.046875 0.09375 
Q 23.34375 -0.6875 20.40625 -0.6875 
Q 15.625 -0.6875 12.984375 0.828125 
Q 10.359375 2.34375 9.28125 4.8125 
Q 8.203125 7.28125 8.203125 15.1875 
L 8.203125 45.015625 
L 1.765625 45.015625 
L 1.765625 51.859375 
L 8.203125 51.859375 
L 8.203125 64.703125 
L 16.9375 69.96875 
L 16.9375 51.859375 
L 25.78125 51.859375 
L 25.78125 45.015625 
L 16.9375 45.015625 
L 16.9375 14.703125 
Q 16.9375 10.9375 17.40625 9.859375 
Q 17.875 8.796875 18.921875 8.15625 
Q 19.96875 7.515625 21.921875 7.515625 
Q 23.390625 7.515625 25.78125 7.859375 
z
" id="ArialMT-116"/>
        <path d="M 6.59375 0 
L 6.59375 71.578125 
L 15.375 71.578125 
L 15.375 45.90625 
Q 21.53125 53.03125 30.90625 53.03125 
Q 36.671875 53.03125 40.921875 50.75 
Q 45.171875 48.484375 47 44.484375 
Q 48.828125 40.484375 48.828125 32.859375 
L 48.828125 0 
L 40.046875 0 
L 40.046875 32.859375 
Q 40.046875 39.453125 37.1875 42.453125 
Q 34.328125 45.453125 29.109375 45.453125 
Q 25.203125 45.453125 21.75 43.421875 
Q 18.3125 41.40625 16.84375 37.9375 
Q 15.375 34.46875 15.375 28.375 
L 15.375 0 
z
" id="ArialMT-104"/>
        <path d="M 6.203125 -19.96875 
L 5.21875 -11.71875 
Q 8.109375 -12.5 10.25 -12.5 
Q 13.1875 -12.5 14.9375 -11.515625 
Q 16.703125 -10.546875 17.828125 -8.796875 
Q 18.65625 -7.46875 20.515625 -2.25 
Q 20.75 -1.515625 21.296875 -0.09375 
L 1.609375 51.859375 
L 11.078125 51.859375 
L 21.875 21.828125 
Q 23.96875 16.109375 25.640625 9.8125 
Q 27.15625 15.875 29.25 21.625 
L 40.328125 51.859375 
L 49.125 51.859375 
L 29.390625 -0.875 
Q 26.21875 -9.421875 24.46875 -12.640625 
Q 22.125 -17 19.09375 -19.015625 
Q 16.0625 -21.046875 11.859375 -21.046875 
Q 9.328125 -21.046875 6.203125 -19.96875 
z
" id="ArialMT-121"/>
       </defs>
       <use xlink:href="#ArialMT-72"/>
       <use x="72.216797" xlink:href="#ArialMT-101"/>
       <use x="127.832031" xlink:href="#ArialMT-97"/>
       <use x="183.447266" xlink:href="#ArialMT-108"/>
       <use x="205.664062" xlink:href="#ArialMT-116"/>
       <use x="233.447266" xlink:href="#ArialMT-104"/>
       <use x="289.0625" xlink:href="#ArialMT-121"/>
      </g>
     </g>
    </g>
    <g id="xtick_2">
     <g id="text_2">
      <!-- Slight -->
      <g style="fill:#262626;" transform="translate(562.15095 1231.838438)scale(0.5 -0.5)">
       <defs>
        <path d="M 4.5 23 
L 13.421875 23.78125 
Q 14.0625 18.40625 16.375 14.96875 
Q 18.703125 11.53125 23.578125 9.40625 
Q 28.46875 7.28125 34.578125 7.28125 
Q 39.984375 7.28125 44.140625 8.890625 
Q 48.296875 10.5 50.3125 13.296875 
Q 52.34375 16.109375 52.34375 19.4375 
Q 52.34375 22.796875 50.390625 25.3125 
Q 48.4375 27.828125 43.953125 29.546875 
Q 41.0625 30.671875 31.203125 33.03125 
Q 21.34375 35.40625 17.390625 37.5 
Q 12.25 40.1875 9.734375 44.15625 
Q 7.234375 48.140625 7.234375 53.078125 
Q 7.234375 58.5 10.296875 63.203125 
Q 13.375 67.921875 19.28125 70.359375 
Q 25.203125 72.796875 32.421875 72.796875 
Q 40.375 72.796875 46.453125 70.234375 
Q 52.546875 67.671875 55.8125 62.6875 
Q 59.078125 57.71875 59.328125 51.421875 
L 50.25 50.734375 
Q 49.515625 57.515625 45.28125 60.984375 
Q 41.0625 64.453125 32.8125 64.453125 
Q 24.21875 64.453125 20.28125 61.296875 
Q 16.359375 58.15625 16.359375 53.71875 
Q 16.359375 49.859375 19.140625 47.359375 
Q 21.875 44.875 33.421875 42.265625 
Q 44.96875 39.65625 49.265625 37.703125 
Q 55.515625 34.8125 58.484375 30.390625 
Q 61.46875 25.984375 61.46875 20.21875 
Q 61.46875 14.5 58.203125 9.4375 
Q 54.9375 4.390625 48.796875 1.578125 
Q 42.671875 -1.21875 35.015625 -1.21875 
Q 25.296875 -1.21875 18.71875 1.609375 
Q 12.15625 4.4375 8.421875 10.125 
Q 4.6875 15.828125 4.5 23 
z
" id="ArialMT-83"/>
        <path d="M 6.640625 61.46875 
L 6.640625 71.578125 
L 15.4375 71.578125 
L 15.4375 61.46875 
z
M 6.640625 0 
L 6.640625 51.859375 
L 15.4375 51.859375 
L 15.4375 0 
z
" id="ArialMT-105"/>
        <path d="M 4.984375 -4.296875 
L 13.53125 -5.5625 
Q 14.0625 -9.515625 16.5 -11.328125 
Q 19.78125 -13.765625 25.4375 -13.765625 
Q 31.546875 -13.765625 34.859375 -11.328125 
Q 38.1875 -8.890625 39.359375 -4.5 
Q 40.046875 -1.8125 39.984375 6.78125 
Q 34.234375 0 25.640625 0 
Q 14.9375 0 9.078125 7.71875 
Q 3.21875 15.4375 3.21875 26.21875 
Q 3.21875 33.640625 5.90625 39.90625 
Q 8.59375 46.1875 13.6875 49.609375 
Q 18.796875 53.03125 25.6875 53.03125 
Q 34.859375 53.03125 40.828125 45.609375 
L 40.828125 51.859375 
L 48.921875 51.859375 
L 48.921875 7.03125 
Q 48.921875 -5.078125 46.453125 -10.125 
Q 44 -15.1875 38.640625 -18.109375 
Q 33.296875 -21.046875 25.484375 -21.046875 
Q 16.21875 -21.046875 10.5 -16.875 
Q 4.78125 -12.703125 4.984375 -4.296875 
z
M 12.25 26.859375 
Q 12.25 16.65625 16.296875 11.96875 
Q 20.359375 7.28125 26.46875 7.28125 
Q 32.515625 7.28125 36.609375 11.9375 
Q 40.71875 16.609375 40.71875 26.5625 
Q 40.71875 36.078125 36.5 40.90625 
Q 32.28125 45.75 26.3125 45.75 
Q 20.453125 45.75 16.34375 40.984375 
Q 12.25 36.234375 12.25 26.859375 
z
" id="ArialMT-103"/>
       </defs>
       <use xlink:href="#ArialMT-83"/>
       <use x="66.699219" xlink:href="#ArialMT-108"/>
       <use x="88.916016" xlink:href="#ArialMT-105"/>
       <use x="111.132812" xlink:href="#ArialMT-103"/>
       <use x="166.748047" xlink:href="#ArialMT-104"/>
       <use x="222.363281" xlink:href="#ArialMT-116"/>
      </g>
     </g>
    </g>
    <g id="xtick_3">
     <g id="text_3">
      <!-- Moderate -->
      <g style="fill:#262626;" transform="translate(788.084526 1231.229063)scale(0.5 -0.5)">
       <defs>
        <path d="M 7.421875 0 
L 7.421875 71.578125 
L 21.6875 71.578125 
L 38.625 20.90625 
Q 40.96875 13.8125 42.046875 10.296875 
Q 43.265625 14.203125 45.84375 21.78125 
L 62.984375 71.578125 
L 75.734375 71.578125 
L 75.734375 0 
L 66.609375 0 
L 66.609375 59.90625 
L 45.796875 0 
L 37.25 0 
L 16.546875 60.9375 
L 16.546875 0 
z
" id="ArialMT-77"/>
        <path d="M 3.328125 25.921875 
Q 3.328125 40.328125 11.328125 47.265625 
Q 18.015625 53.03125 27.640625 53.03125 
Q 38.328125 53.03125 45.109375 46.015625 
Q 51.90625 39.015625 51.90625 26.65625 
Q 51.90625 16.65625 48.90625 10.90625 
Q 45.90625 5.171875 40.15625 2 
Q 34.421875 -1.171875 27.640625 -1.171875 
Q 16.75 -1.171875 10.03125 5.8125 
Q 3.328125 12.796875 3.328125 25.921875 
z
M 12.359375 25.921875 
Q 12.359375 15.96875 16.703125 11.015625 
Q 21.046875 6.0625 27.640625 6.0625 
Q 34.1875 6.0625 38.53125 11.03125 
Q 42.875 16.015625 42.875 26.21875 
Q 42.875 35.84375 38.5 40.796875 
Q 34.125 45.75 27.640625 45.75 
Q 21.046875 45.75 16.703125 40.8125 
Q 12.359375 35.890625 12.359375 25.921875 
z
" id="ArialMT-111"/>
        <path d="M 40.234375 0 
L 40.234375 6.546875 
Q 35.296875 -1.171875 25.734375 -1.171875 
Q 19.53125 -1.171875 14.328125 2.25 
Q 9.125 5.671875 6.265625 11.796875 
Q 3.421875 17.921875 3.421875 25.875 
Q 3.421875 33.640625 6 39.96875 
Q 8.59375 46.296875 13.765625 49.65625 
Q 18.953125 53.03125 25.34375 53.03125 
Q 30.03125 53.03125 33.6875 51.046875 
Q 37.359375 49.078125 39.65625 45.90625 
L 39.65625 71.578125 
L 48.390625 71.578125 
L 48.390625 0 
z
M 12.453125 25.875 
Q 12.453125 15.921875 16.640625 10.984375 
Q 20.84375 6.0625 26.5625 6.0625 
Q 32.328125 6.0625 36.34375 10.765625 
Q 40.375 15.484375 40.375 25.140625 
Q 40.375 35.796875 36.265625 40.765625 
Q 32.171875 45.75 26.171875 45.75 
Q 20.3125 45.75 16.375 40.96875 
Q 12.453125 36.1875 12.453125 25.875 
z
" id="ArialMT-100"/>
        <path d="M 6.5 0 
L 6.5 51.859375 
L 14.40625 51.859375 
L 14.40625 44 
Q 17.4375 49.515625 20 51.265625 
Q 22.5625 53.03125 25.640625 53.03125 
Q 30.078125 53.03125 34.671875 50.203125 
L 31.640625 42.046875 
Q 28.421875 43.953125 25.203125 43.953125 
Q 22.3125 43.953125 20.015625 42.21875 
Q 17.71875 40.484375 16.75 37.40625 
Q 15.28125 32.71875 15.28125 27.15625 
L 15.28125 0 
z
" id="ArialMT-114"/>
       </defs>
       <use xlink:href="#ArialMT-77"/>
       <use x="83.300781" xlink:href="#ArialMT-111"/>
       <use x="138.916016" xlink:href="#ArialMT-100"/>
       <use x="194.53125" xlink:href="#ArialMT-101"/>
       <use x="250.146484" xlink:href="#ArialMT-114"/>
       <use x="283.447266" xlink:href="#ArialMT-97"/>
       <use x="339.0625" xlink:href="#ArialMT-116"/>
       <use x="366.845703" xlink:href="#ArialMT-101"/>
      </g>
     </g>
    </g>
    <g id="xtick_4">
     <g id="text_4">
      <!-- Severe -->
      <g style="fill:#262626;" transform="translate(1083.486853 1231.229063)scale(0.5 -0.5)">
       <defs>
        <path d="M 21 0 
L 1.265625 51.859375 
L 10.546875 51.859375 
L 21.6875 20.796875 
Q 23.484375 15.765625 25 10.359375 
Q 26.171875 14.453125 28.265625 20.21875 
L 39.796875 51.859375 
L 48.828125 51.859375 
L 29.203125 0 
z
" id="ArialMT-118"/>
       </defs>
       <use xlink:href="#ArialMT-83"/>
       <use x="66.699219" xlink:href="#ArialMT-101"/>
       <use x="122.314453" xlink:href="#ArialMT-118"/>
       <use x="172.314453" xlink:href="#ArialMT-101"/>
       <use x="227.929688" xlink:href="#ArialMT-114"/>
       <use x="261.230469" xlink:href="#ArialMT-101"/>
      </g>
     </g>
    </g>
   </g>
   <g id="matplotlib.axis_2">
    <g id="ytick_1">
     <g id="line2d_1">
      <path clip-path="url(#p3d8e56cfa3)" d="M 202.35 1091.202849 
L 1208.424545 1091.202849 
" style="fill:none;stroke:#cccccc;stroke-linecap:round;stroke-width:2;"/>
     </g>
     <g id="text_5">
      <!-- 0 -->
      <g style="fill:#262626;" transform="translate(159.045313 1109.09738)scale(0.5 -0.5)">
       <defs>
        <path d="M 4.15625 35.296875 
Q 4.15625 48 6.765625 55.734375 
Q 9.375 63.484375 14.515625 67.671875 
Q 19.671875 71.875 27.484375 71.875 
Q 33.25 71.875 37.59375 69.546875 
Q 41.9375 67.234375 44.765625 62.859375 
Q 47.609375 58.5 49.21875 52.21875 
Q 50.828125 45.953125 50.828125 35.296875 
Q 50.828125 22.703125 48.234375 14.96875 
Q 45.65625 7.234375 40.5 3 
Q 35.359375 -1.21875 27.484375 -1.21875 
Q 17.140625 -1.21875 11.234375 6.203125 
Q 4.15625 15.140625 4.15625 35.296875 
z
M 13.1875 35.296875 
Q 13.1875 17.671875 17.3125 11.828125 
Q 21.4375 6 27.484375 6 
Q 33.546875 6 37.671875 11.859375 
Q 41.796875 17.71875 41.796875 35.296875 
Q 41.796875 52.984375 37.671875 58.78125 
Q 33.546875 64.59375 27.390625 64.59375 
Q 21.34375 64.59375 17.71875 59.46875 
Q 13.1875 52.9375 13.1875 35.296875 
z
" id="ArialMT-48"/>
       </defs>
       <use xlink:href="#ArialMT-48"/>
      </g>
     </g>
    </g>
    <g id="ytick_2">
     <g id="line2d_2">
      <path clip-path="url(#p3d8e56cfa3)" d="M 202.35 950.379376 
L 1208.424545 950.379376 
" style="fill:none;stroke:#cccccc;stroke-linecap:round;stroke-width:2;"/>
     </g>
     <g id="text_6">
      <!-- 20 -->
      <g style="fill:#262626;" transform="translate(131.240625 968.273908)scale(0.5 -0.5)">
       <defs>
        <path d="M 50.34375 8.453125 
L 50.34375 0 
L 3.03125 0 
Q 2.9375 3.171875 4.046875 6.109375 
Q 5.859375 10.9375 9.828125 15.625 
Q 13.8125 20.3125 21.34375 26.46875 
Q 33.015625 36.03125 37.109375 41.625 
Q 41.21875 47.21875 41.21875 52.203125 
Q 41.21875 57.421875 37.46875 61 
Q 33.734375 64.59375 27.734375 64.59375 
Q 21.390625 64.59375 17.578125 60.78125 
Q 13.765625 56.984375 13.71875 50.25 
L 4.6875 51.171875 
Q 5.609375 61.28125 11.65625 66.578125 
Q 17.71875 71.875 27.9375 71.875 
Q 38.234375 71.875 44.234375 66.15625 
Q 50.25 60.453125 50.25 52 
Q 50.25 47.703125 48.484375 43.546875 
Q 46.734375 39.40625 42.65625 34.8125 
Q 38.578125 30.21875 29.109375 22.21875 
Q 21.1875 15.578125 18.9375 13.203125 
Q 16.703125 10.84375 15.234375 8.453125 
z
" id="ArialMT-50"/>
       </defs>
       <use xlink:href="#ArialMT-50"/>
       <use x="55.615234" xlink:href="#ArialMT-48"/>
      </g>
     </g>
    </g>
    <g id="ytick_3">
     <g id="line2d_3">
      <path clip-path="url(#p3d8e56cfa3)" d="M 202.35 809.555904 
L 1208.424545 809.555904 
" style="fill:none;stroke:#cccccc;stroke-linecap:round;stroke-width:2;"/>
     </g>
     <g id="text_7">
      <!-- 40 -->
      <g style="fill:#262626;" transform="translate(131.240625 827.450435)scale(0.5 -0.5)">
       <defs>
        <path d="M 32.328125 0 
L 32.328125 17.140625 
L 1.265625 17.140625 
L 1.265625 25.203125 
L 33.9375 71.578125 
L 41.109375 71.578125 
L 41.109375 25.203125 
L 50.78125 25.203125 
L 50.78125 17.140625 
L 41.109375 17.140625 
L 41.109375 0 
z
M 32.328125 25.203125 
L 32.328125 57.46875 
L 9.90625 25.203125 
z
" id="ArialMT-52"/>
       </defs>
       <use xlink:href="#ArialMT-52"/>
       <use x="55.615234" xlink:href="#ArialMT-48"/>
      </g>
     </g>
    </g>
    <g id="ytick_4">
     <g id="line2d_4">
      <path clip-path="url(#p3d8e56cfa3)" d="M 202.35 668.732432 
L 1208.424545 668.732432 
" style="fill:none;stroke:#cccccc;stroke-linecap:round;stroke-width:2;"/>
     </g>
     <g id="text_8">
      <!-- 60 -->
      <g style="fill:#262626;" transform="translate(131.240625 686.626963)scale(0.5 -0.5)">
       <defs>
        <path d="M 49.75 54.046875 
L 41.015625 53.375 
Q 39.84375 58.546875 37.703125 60.890625 
Q 34.125 64.65625 28.90625 64.65625 
Q 24.703125 64.65625 21.53125 62.3125 
Q 17.390625 59.28125 14.984375 53.46875 
Q 12.59375 47.65625 12.5 36.921875 
Q 15.671875 41.75 20.265625 44.09375 
Q 24.859375 46.4375 29.890625 46.4375 
Q 38.671875 46.4375 44.84375 39.96875 
Q 51.03125 33.5 51.03125 23.25 
Q 51.03125 16.5 48.125 10.71875 
Q 45.21875 4.9375 40.140625 1.859375 
Q 35.0625 -1.21875 28.609375 -1.21875 
Q 17.625 -1.21875 10.6875 6.859375 
Q 3.765625 14.9375 3.765625 33.5 
Q 3.765625 54.25 11.421875 63.671875 
Q 18.109375 71.875 29.4375 71.875 
Q 37.890625 71.875 43.28125 67.140625 
Q 48.6875 62.40625 49.75 54.046875 
z
M 13.875 23.1875 
Q 13.875 18.65625 15.796875 14.5 
Q 17.71875 10.359375 21.1875 8.171875 
Q 24.65625 6 28.46875 6 
Q 34.03125 6 38.03125 10.484375 
Q 42.046875 14.984375 42.046875 22.703125 
Q 42.046875 30.125 38.078125 34.390625 
Q 34.125 38.671875 28.125 38.671875 
Q 22.171875 38.671875 18.015625 34.390625 
Q 13.875 30.125 13.875 23.1875 
z
" id="ArialMT-54"/>
       </defs>
       <use xlink:href="#ArialMT-54"/>
       <use x="55.615234" xlink:href="#ArialMT-48"/>
      </g>
     </g>
    </g>
    <g id="ytick_5">
     <g id="line2d_5">
      <path clip-path="url(#p3d8e56cfa3)" d="M 202.35 527.908959 
L 1208.424545 527.908959 
" style="fill:none;stroke:#cccccc;stroke-linecap:round;stroke-width:2;"/>
     </g>
     <g id="text_9">
      <!-- 80 -->
      <g style="fill:#262626;" transform="translate(131.240625 545.803491)scale(0.5 -0.5)">
       <defs>
        <path d="M 17.671875 38.8125 
Q 12.203125 40.828125 9.5625 44.53125 
Q 6.9375 48.25 6.9375 53.421875 
Q 6.9375 61.234375 12.546875 66.546875 
Q 18.171875 71.875 27.484375 71.875 
Q 36.859375 71.875 42.578125 66.421875 
Q 48.296875 60.984375 48.296875 53.171875 
Q 48.296875 48.1875 45.671875 44.5 
Q 43.0625 40.828125 37.75 38.8125 
Q 44.34375 36.671875 47.78125 31.875 
Q 51.21875 27.09375 51.21875 20.453125 
Q 51.21875 11.28125 44.71875 5.03125 
Q 38.234375 -1.21875 27.640625 -1.21875 
Q 17.046875 -1.21875 10.546875 5.046875 
Q 4.046875 11.328125 4.046875 20.703125 
Q 4.046875 27.6875 7.59375 32.390625 
Q 11.140625 37.109375 17.671875 38.8125 
z
M 15.921875 53.71875 
Q 15.921875 48.640625 19.1875 45.40625 
Q 22.46875 42.1875 27.6875 42.1875 
Q 32.765625 42.1875 36.015625 45.375 
Q 39.265625 48.578125 39.265625 53.21875 
Q 39.265625 58.0625 35.90625 61.359375 
Q 32.5625 64.65625 27.59375 64.65625 
Q 22.5625 64.65625 19.234375 61.421875 
Q 15.921875 58.203125 15.921875 53.71875 
z
M 13.09375 20.65625 
Q 13.09375 16.890625 14.875 13.375 
Q 16.65625 9.859375 20.171875 7.921875 
Q 23.6875 6 27.734375 6 
Q 34.03125 6 38.125 10.046875 
Q 42.234375 14.109375 42.234375 20.359375 
Q 42.234375 26.703125 38.015625 30.859375 
Q 33.796875 35.015625 27.4375 35.015625 
Q 21.234375 35.015625 17.15625 30.90625 
Q 13.09375 26.8125 13.09375 20.65625 
z
" id="ArialMT-56"/>
       </defs>
       <use xlink:href="#ArialMT-56"/>
       <use x="55.615234" xlink:href="#ArialMT-48"/>
      </g>
     </g>
    </g>
    <g id="ytick_6">
     <g id="line2d_6">
      <path clip-path="url(#p3d8e56cfa3)" d="M 202.35 387.085487 
L 1208.424545 387.085487 
" style="fill:none;stroke:#cccccc;stroke-linecap:round;stroke-width:2;"/>
     </g>
     <g id="text_10">
      <!-- 100 -->
      <g style="fill:#262626;" transform="translate(103.435938 404.980018)scale(0.5 -0.5)">
       <defs>
        <path d="M 37.25 0 
L 28.46875 0 
L 28.46875 56 
Q 25.296875 52.984375 20.140625 49.953125 
Q 14.984375 46.921875 10.890625 45.40625 
L 10.890625 53.90625 
Q 18.265625 57.375 23.78125 62.296875 
Q 29.296875 67.234375 31.59375 71.875 
L 37.25 71.875 
z
" id="ArialMT-49"/>
       </defs>
       <use xlink:href="#ArialMT-49"/>
       <use x="55.615234" xlink:href="#ArialMT-48"/>
       <use x="111.230469" xlink:href="#ArialMT-48"/>
      </g>
     </g>
    </g>
    <g id="ytick_7">
     <g id="line2d_7">
      <path clip-path="url(#p3d8e56cfa3)" d="M 202.35 246.262015 
L 1208.424545 246.262015 
" style="fill:none;stroke:#cccccc;stroke-linecap:round;stroke-width:2;"/>
     </g>
     <g id="text_11">
      <!-- 120 -->
      <g style="fill:#262626;" transform="translate(103.435938 264.156546)scale(0.5 -0.5)">
       <use xlink:href="#ArialMT-49"/>
       <use x="55.615234" xlink:href="#ArialMT-50"/>
       <use x="111.230469" xlink:href="#ArialMT-48"/>
      </g>
     </g>
    </g>
    <g id="ytick_8">
     <g id="line2d_8">
      <path clip-path="url(#p3d8e56cfa3)" d="M 202.35 105.438542 
L 1208.424545 105.438542 
" style="fill:none;stroke:#cccccc;stroke-linecap:round;stroke-width:2;"/>
     </g>
     <g id="text_12">
      <!-- 140 -->
      <g style="fill:#262626;" transform="translate(103.435938 123.333073)scale(0.5 -0.5)">
       <use xlink:href="#ArialMT-49"/>
       <use x="55.615234" xlink:href="#ArialMT-52"/>
       <use x="111.230469" xlink:href="#ArialMT-48"/>
      </g>
     </g>
    </g>
    <g id="text_13">
     <!-- Abundance -->
     <g style="fill:#262626;" transform="translate(89.498438 764.582187)rotate(-90)scale(0.5 -0.5)">
      <defs>
       <path d="M -0.140625 0 
L 27.34375 71.578125 
L 37.546875 71.578125 
L 66.84375 0 
L 56.0625 0 
L 47.703125 21.6875 
L 17.78125 21.6875 
L 9.90625 0 
z
M 20.515625 29.390625 
L 44.78125 29.390625 
L 37.3125 49.21875 
Q 33.890625 58.25 32.234375 64.0625 
Q 30.859375 57.171875 28.375 50.390625 
z
" id="ArialMT-65"/>
       <path d="M 14.703125 0 
L 6.546875 0 
L 6.546875 71.578125 
L 15.328125 71.578125 
L 15.328125 46.046875 
Q 20.90625 53.03125 29.546875 53.03125 
Q 34.328125 53.03125 38.59375 51.09375 
Q 42.875 49.171875 45.625 45.671875 
Q 48.390625 42.1875 49.953125 37.25 
Q 51.515625 32.328125 51.515625 26.703125 
Q 51.515625 13.375 44.921875 6.09375 
Q 38.328125 -1.171875 29.109375 -1.171875 
Q 19.921875 -1.171875 14.703125 6.5 
z
M 14.59375 26.3125 
Q 14.59375 17 17.140625 12.84375 
Q 21.296875 6.0625 28.375 6.0625 
Q 34.125 6.0625 38.328125 11.0625 
Q 42.53125 16.0625 42.53125 25.984375 
Q 42.53125 36.140625 38.5 40.96875 
Q 34.46875 45.796875 28.765625 45.796875 
Q 23 45.796875 18.796875 40.796875 
Q 14.59375 35.796875 14.59375 26.3125 
z
" id="ArialMT-98"/>
       <path d="M 40.578125 0 
L 40.578125 7.625 
Q 34.515625 -1.171875 24.125 -1.171875 
Q 19.53125 -1.171875 15.546875 0.578125 
Q 11.578125 2.34375 9.640625 5 
Q 7.71875 7.671875 6.9375 11.53125 
Q 6.390625 14.109375 6.390625 19.734375 
L 6.390625 51.859375 
L 15.1875 51.859375 
L 15.1875 23.09375 
Q 15.1875 16.21875 15.71875 13.8125 
Q 16.546875 10.359375 19.234375 8.375 
Q 21.921875 6.390625 25.875 6.390625 
Q 29.828125 6.390625 33.296875 8.421875 
Q 36.765625 10.453125 38.203125 13.9375 
Q 39.65625 17.4375 39.65625 24.078125 
L 39.65625 51.859375 
L 48.4375 51.859375 
L 48.4375 0 
z
" id="ArialMT-117"/>
       <path d="M 6.59375 0 
L 6.59375 51.859375 
L 14.5 51.859375 
L 14.5 44.484375 
Q 20.21875 53.03125 31 53.03125 
Q 35.6875 53.03125 39.625 51.34375 
Q 43.5625 49.65625 45.515625 46.921875 
Q 47.46875 44.1875 48.25 40.4375 
Q 48.734375 37.984375 48.734375 31.890625 
L 48.734375 0 
L 39.9375 0 
L 39.9375 31.546875 
Q 39.9375 36.921875 38.90625 39.578125 
Q 37.890625 42.234375 35.28125 43.8125 
Q 32.671875 45.40625 29.15625 45.40625 
Q 23.53125 45.40625 19.453125 41.84375 
Q 15.375 38.28125 15.375 28.328125 
L 15.375 0 
z
" id="ArialMT-110"/>
       <path d="M 40.4375 19 
L 49.078125 17.875 
Q 47.65625 8.9375 41.8125 3.875 
Q 35.984375 -1.171875 27.484375 -1.171875 
Q 16.84375 -1.171875 10.375 5.78125 
Q 3.90625 12.75 3.90625 25.734375 
Q 3.90625 34.125 6.6875 40.421875 
Q 9.46875 46.734375 15.15625 49.875 
Q 20.84375 53.03125 27.546875 53.03125 
Q 35.984375 53.03125 41.359375 48.75 
Q 46.734375 44.484375 48.25 36.625 
L 39.703125 35.296875 
Q 38.484375 40.53125 35.375 43.15625 
Q 32.28125 45.796875 27.875 45.796875 
Q 21.234375 45.796875 17.078125 41.03125 
Q 12.9375 36.28125 12.9375 25.984375 
Q 12.9375 15.53125 16.9375 10.796875 
Q 20.953125 6.0625 27.390625 6.0625 
Q 32.5625 6.0625 36.03125 9.234375 
Q 39.5 12.40625 40.4375 19 
z
" id="ArialMT-99"/>
      </defs>
      <use xlink:href="#ArialMT-65"/>
      <use x="66.699219" xlink:href="#ArialMT-98"/>
      <use x="122.314453" xlink:href="#ArialMT-117"/>
      <use x="177.929688" xlink:href="#ArialMT-110"/>
      <use x="233.544922" xlink:href="#ArialMT-100"/>
      <use x="289.160156" xlink:href="#ArialMT-97"/>
      <use x="344.775391" xlink:href="#ArialMT-110"/>
      <use x="400.390625" xlink:href="#ArialMT-99"/>
      <use x="450.390625" xlink:href="#ArialMT-101"/>
     </g>
    </g>
   </g>
   <g id="PolyCollection_1">
    <defs>
     <path d="M 421.030103 -192.079961 
L 290.33433 -192.079961 
L 276.800053 -194.755054 
L 264.583969 -197.430148 
L 255.029413 -200.105242 
L 249.285611 -202.780336 
L 248.080661 -205.455429 
L 251.569471 -208.130523 
L 259.300363 -210.805617 
L 270.310166 -213.480711 
L 283.320048 -216.155805 
L 296.977087 -218.830898 
L 310.078896 -221.505992 
L 321.731525 -224.181086 
L 331.417034 -226.85618 
L 338.975558 -229.531274 
L 344.527396 -232.206367 
L 348.368666 -234.881461 
L 350.870388 -237.556555 
L 352.400088 -240.231649 
L 353.272927 -242.906742 
L 353.730107 -245.581836 
L 353.937489 -248.25693 
L 353.996427 -250.932024 
L 353.960253 -253.607118 
L 353.851868 -256.282211 
L 353.679677 -258.957305 
L 353.450172 -261.632399 
L 353.176157 -264.307493 
L 352.880143 -266.982586 
L 352.593101 -269.65768 
L 352.349573 -272.332774 
L 352.18085 -275.007868 
L 352.108335 -277.682962 
L 352.139098 -280.358055 
L 352.264927 -283.033149 
L 352.465079 -285.708243 
L 352.711865 -288.383337 
L 352.977314 -291.058431 
L 353.239019 -293.733524 
L 353.483612 -296.408618 
L 353.70722 -299.083712 
L 353.913244 -301.758806 
L 354.108565 -304.433899 
L 354.299583 -307.108993 
L 354.489305 -309.784087 
L 354.676118 -312.459181 
L 354.854214 -315.134275 
L 355.015143 -317.809368 
L 355.149744 -320.484462 
L 355.249845 -323.159556 
L 355.309417 -325.83465 
L 355.325196 -328.509743 
L 355.297012 -331.184837 
L 355.228023 -333.859931 
L 355.124955 -336.535025 
L 354.998177 -339.210119 
L 354.86135 -341.885212 
L 354.730361 -344.560306 
L 354.621497 -347.2354 
L 354.549083 -349.910494 
L 354.523091 -352.585588 
L 354.547378 -355.260681 
L 354.619062 -357.935775 
L 354.729255 -360.610869 
L 354.864971 -363.285963 
L 355.011685 -365.961056 
L 355.155869 -368.63615 
L 355.286932 -371.311244 
L 355.398208 -373.986338 
L 355.486991 -376.661432 
L 355.553826 -379.336525 
L 355.601431 -382.011619 
L 355.633572 -384.686713 
L 355.654162 -387.361807 
L 355.666655 -390.0369 
L 355.673765 -392.711994 
L 355.677383 -395.387088 
L 355.678631 -398.062182 
L 355.677931 -400.737276 
L 355.675045 -403.412369 
L 355.669049 -406.087463 
L 355.658269 -408.762557 
L 355.640218 -411.437651 
L 355.611627 -414.112745 
L 355.568663 -416.787838 
L 355.507442 -419.462932 
L 355.424853 -422.138026 
L 355.319639 -424.81312 
L 355.19352 -427.488213 
L 355.052044 -430.163307 
L 354.904782 -432.838401 
L 354.764621 -435.513495 
L 354.646068 -438.188589 
L 354.56284 -440.863682 
L 354.52527 -443.538776 
L 354.538196 -446.21387 
L 354.599942 -448.888964 
L 354.702672 -451.564057 
L 354.834024 -454.239151 
L 354.979552 -456.914245 
L 356.384881 -456.914245 
L 356.384881 -456.914245 
L 356.530409 -454.239151 
L 356.661762 -451.564057 
L 356.764491 -448.888964 
L 356.826237 -446.21387 
L 356.839163 -443.538776 
L 356.801593 -440.863682 
L 356.718366 -438.188589 
L 356.599813 -435.513495 
L 356.459652 -432.838401 
L 356.31239 -430.163307 
L 356.170913 -427.488213 
L 356.044795 -424.81312 
L 355.939581 -422.138026 
L 355.856992 -419.462932 
L 355.79577 -416.787838 
L 355.752807 -414.112745 
L 355.724216 -411.437651 
L 355.706165 -408.762557 
L 355.695385 -406.087463 
L 355.689389 -403.412369 
L 355.686502 -400.737276 
L 355.685803 -398.062182 
L 355.687051 -395.387088 
L 355.690669 -392.711994 
L 355.697778 -390.0369 
L 355.710272 -387.361807 
L 355.730861 -384.686713 
L 355.763003 -382.011619 
L 355.810607 -379.336525 
L 355.877443 -376.661432 
L 355.966226 -373.986338 
L 356.077502 -371.311244 
L 356.208564 -368.63615 
L 356.352749 -365.961056 
L 356.499462 -363.285963 
L 356.635179 -360.610869 
L 356.745371 -357.935775 
L 356.817055 -355.260681 
L 356.841343 -352.585588 
L 356.815351 -349.910494 
L 356.742936 -347.2354 
L 356.634073 -344.560306 
L 356.503084 -341.885212 
L 356.366256 -339.210119 
L 356.239479 -336.535025 
L 356.136411 -333.859931 
L 356.067422 -331.184837 
L 356.039237 -328.509743 
L 356.055017 -325.83465 
L 356.114588 -323.159556 
L 356.21469 -320.484462 
L 356.349291 -317.809368 
L 356.51022 -315.134275 
L 356.688316 -312.459181 
L 356.875129 -309.784087 
L 357.064851 -307.108993 
L 357.255869 -304.433899 
L 357.451189 -301.758806 
L 357.657214 -299.083712 
L 357.880821 -296.408618 
L 358.125414 -293.733524 
L 358.38712 -291.058431 
L 358.652569 -288.383337 
L 358.899354 -285.708243 
L 359.099507 -283.033149 
L 359.225335 -280.358055 
L 359.256099 -277.682962 
L 359.183584 -275.007868 
L 359.01486 -272.332774 
L 358.771333 -269.65768 
L 358.484291 -266.982586 
L 358.188276 -264.307493 
L 357.914262 -261.632399 
L 357.684756 -258.957305 
L 357.512565 -256.282211 
L 357.40418 -253.607118 
L 357.368006 -250.932024 
L 357.426945 -248.25693 
L 357.634327 -245.581836 
L 358.091507 -242.906742 
L 358.964345 -240.231649 
L 360.494045 -237.556555 
L 362.995767 -234.881461 
L 366.837037 -232.206367 
L 372.388875 -229.531274 
L 379.9474 -226.85618 
L 389.632908 -224.181086 
L 401.285538 -221.505992 
L 414.387347 -218.830898 
L 428.044386 -216.155805 
L 441.054268 -213.480711 
L 452.06407 -210.805617 
L 459.794962 -208.130523 
L 463.283772 -205.455429 
L 462.078823 -202.780336 
L 456.33502 -200.105242 
L 446.780465 -197.430148 
L 434.564381 -194.755054 
L 421.030103 -192.079961 
z
" id="md618cfd8e6" style="stroke:#3d3d3d;stroke-width:5;"/>
    </defs>
    <g clip-path="url(#p3d8e56cfa3)">
     <use style="fill:#3a923a;stroke:#3d3d3d;stroke-width:5;" x="0" xlink:href="#md618cfd8e6" y="1296"/>
    </g>
   </g>
   <g id="PolyCollection_2">
    <defs>
     <path d="M 635.558054 -144.930481 
L 613.814158 -144.930481 
L 612.743152 -150.762902 
L 611.68859 -156.595322 
L 610.672096 -162.427743 
L 609.715874 -168.260163 
L 608.841871 -174.092584 
L 608.070909 -179.925004 
L 607.421815 -185.757424 
L 606.910597 -191.589845 
L 606.549729 -197.422265 
L 606.347577 -203.254686 
L 606.308009 -209.087106 
L 606.430213 -214.919527 
L 606.708733 -220.751947 
L 607.133724 -226.584368 
L 607.691412 -232.416788 
L 608.364718 -238.249209 
L 609.134029 -244.081629 
L 609.97804 -249.914049 
L 610.874652 -255.74647 
L 611.801846 -261.57889 
L 612.738499 -267.411311 
L 613.665115 -273.243731 
L 614.564409 -279.076152 
L 615.421762 -284.908572 
L 616.225499 -290.740993 
L 616.96702 -296.573413 
L 617.640779 -302.405834 
L 618.244125 -308.238254 
L 618.777039 -314.070675 
L 619.241782 -319.903095 
L 619.642489 -325.735515 
L 619.984731 -331.567936 
L 620.27507 -337.400356 
L 620.520631 -343.232777 
L 620.728715 -349.065197 
L 620.906451 -354.897618 
L 621.06051 -360.730038 
L 621.196886 -366.562459 
L 621.320736 -372.394879 
L 621.43629 -378.2273 
L 621.546809 -384.05972 
L 621.654609 -389.89214 
L 621.761121 -395.724561 
L 621.866983 -401.556981 
L 621.972169 -407.389402 
L 622.076121 -413.221822 
L 622.177899 -419.054243 
L 622.276325 -424.886663 
L 622.370118 -430.719084 
L 622.458018 -436.551504 
L 622.538892 -442.383925 
L 622.611811 -448.216345 
L 622.676112 -454.048765 
L 622.731432 -459.881186 
L 622.777715 -465.713606 
L 622.815205 -471.546027 
L 622.844417 -477.378447 
L 622.866087 -483.210868 
L 622.881121 -489.043288 
L 622.890536 -494.875709 
L 622.895391 -500.708129 
L 622.896731 -506.54055 
L 622.895532 -512.37297 
L 622.892659 -518.20539 
L 622.888831 -524.037811 
L 622.884609 -529.870231 
L 622.88039 -535.702652 
L 622.876416 -541.535072 
L 622.872802 -547.367493 
L 622.869568 -553.199913 
L 622.866678 -559.032334 
L 622.864084 -564.864754 
L 622.861771 -570.697175 
L 622.859794 -576.529595 
L 622.858313 -582.362016 
L 622.857614 -588.194436 
L 622.858116 -594.026856 
L 622.860375 -599.859277 
L 622.86506 -605.691697 
L 622.872933 -611.524118 
L 622.884805 -617.356538 
L 622.901494 -623.188959 
L 622.923775 -629.021379 
L 622.952332 -634.8538 
L 622.987708 -640.68622 
L 623.030267 -646.518641 
L 623.080164 -652.351061 
L 623.137324 -658.183481 
L 623.201435 -664.015902 
L 623.271953 -669.848322 
L 623.348126 -675.680743 
L 623.429016 -681.513163 
L 623.513544 -687.345584 
L 623.600528 -693.178004 
L 623.688738 -699.010425 
L 623.776941 -704.842845 
L 623.863947 -710.675266 
L 623.948648 -716.507686 
L 624.030061 -722.340106 
L 625.342151 -722.340106 
L 625.342151 -722.340106 
L 625.423564 -716.507686 
L 625.508265 -710.675266 
L 625.595271 -704.842845 
L 625.683474 -699.010425 
L 625.771684 -693.178004 
L 625.858668 -687.345584 
L 625.943196 -681.513163 
L 626.024086 -675.680743 
L 626.100259 -669.848322 
L 626.170777 -664.015902 
L 626.234888 -658.183481 
L 626.292048 -652.351061 
L 626.341945 -646.518641 
L 626.384504 -640.68622 
L 626.41988 -634.8538 
L 626.448437 -629.021379 
L 626.470718 -623.188959 
L 626.487407 -617.356538 
L 626.499279 -611.524118 
L 626.507152 -605.691697 
L 626.511837 -599.859277 
L 626.514096 -594.026856 
L 626.514598 -588.194436 
L 626.513899 -582.362016 
L 626.512418 -576.529595 
L 626.510441 -570.697175 
L 626.508128 -564.864754 
L 626.505534 -559.032334 
L 626.502644 -553.199913 
L 626.49941 -547.367493 
L 626.495796 -541.535072 
L 626.491822 -535.702652 
L 626.487603 -529.870231 
L 626.483381 -524.037811 
L 626.479553 -518.20539 
L 626.47668 -512.37297 
L 626.475481 -506.54055 
L 626.476821 -500.708129 
L 626.481676 -494.875709 
L 626.491091 -489.043288 
L 626.506125 -483.210868 
L 626.527795 -477.378447 
L 626.557007 -471.546027 
L 626.594497 -465.713606 
L 626.64078 -459.881186 
L 626.6961 -454.048765 
L 626.760401 -448.216345 
L 626.83332 -442.383925 
L 626.914194 -436.551504 
L 627.002094 -430.719084 
L 627.095887 -424.886663 
L 627.194313 -419.054243 
L 627.296091 -413.221822 
L 627.400043 -407.389402 
L 627.505229 -401.556981 
L 627.611091 -395.724561 
L 627.717603 -389.89214 
L 627.825403 -384.05972 
L 627.935922 -378.2273 
L 628.051476 -372.394879 
L 628.175326 -366.562459 
L 628.311702 -360.730038 
L 628.465761 -354.897618 
L 628.643496 -349.065197 
L 628.851581 -343.232777 
L 629.097142 -337.400356 
L 629.38748 -331.567936 
L 629.729723 -325.735515 
L 630.13043 -319.903095 
L 630.595173 -314.070675 
L 631.128087 -308.238254 
L 631.731433 -302.405834 
L 632.405192 -296.573413 
L 633.146713 -290.740993 
L 633.95045 -284.908572 
L 634.807803 -279.076152 
L 635.707097 -273.243731 
L 636.633713 -267.411311 
L 637.570366 -261.57889 
L 638.49756 -255.74647 
L 639.394172 -249.914049 
L 640.238183 -244.081629 
L 641.007494 -238.249209 
L 641.6808 -232.416788 
L 642.238488 -226.584368 
L 642.663479 -220.751947 
L 642.941999 -214.919527 
L 643.064203 -209.087106 
L 643.024635 -203.254686 
L 642.822483 -197.422265 
L 642.461615 -191.589845 
L 641.950397 -185.757424 
L 641.301303 -179.925004 
L 640.530341 -174.092584 
L 639.656338 -168.260163 
L 638.700116 -162.427743 
L 637.683622 -156.595322 
L 636.62906 -150.762902 
L 635.558054 -144.930481 
z
" id="m6025879f31" style="stroke:#3d3d3d;stroke-width:5;"/>
    </defs>
    <g clip-path="url(#p3d8e56cfa3)">
     <use style="fill:#2eabb8;stroke:#3d3d3d;stroke-width:5;" x="0" xlink:href="#m6025879f31" y="1296"/>
    </g>
   </g>
   <g id="line2d_9">
    <path clip-path="url(#p3d8e56cfa3)" d="M 355.682217 1091.202849 
L 355.682217 1091.202849 
" style="fill:none;stroke:#3d3d3d;stroke-linecap:round;stroke-width:5;"/>
   </g>
   <g id="line2d_10">
    <path clip-path="url(#p3d8e56cfa3)" d="M 355.682217 1091.202849 
L 355.682217 1091.202849 
" style="fill:none;stroke:#3d3d3d;stroke-linecap:round;stroke-width:15;"/>
   </g>
   <g id="line2d_11">
    <path clip-path="url(#p3d8e56cfa3)" d="M 624.686106 1091.202849 
L 624.686106 929.255855 
" style="fill:none;stroke:#3d3d3d;stroke-linecap:round;stroke-width:5;"/>
   </g>
   <g id="line2d_12">
    <path clip-path="url(#p3d8e56cfa3)" d="M 624.686106 1091.202849 
L 624.686106 1024.311699 
" style="fill:none;stroke:#3d3d3d;stroke-linecap:round;stroke-width:15;"/>
   </g>
   <g id="line2d_13">
    <path clip-path="url(#p3d8e56cfa3)" d="M 355.682217 595.417528 
L 355.682217 582.714517 
L 624.686106 582.714517 
L 624.686106 595.417528 
" style="fill:none;stroke:#333333;stroke-linecap:round;stroke-width:1.5;"/>
   </g>
   <g id="line2d_14">
    <path clip-path="url(#p3d8e56cfa3)" d="M 624.686106 521.450031 
L 624.686106 508.74702 
L 893.689995 508.74702 
L 893.689995 521.450031 
" style="fill:none;stroke:#333333;stroke-linecap:round;stroke-width:1.5;"/>
   </g>
   <g id="line2d_15">
    <path clip-path="url(#p3d8e56cfa3)" d="M 893.689995 444.165338 
L 893.689995 431.462326 
L 1162.693884 431.462326 
L 1162.693884 444.165338 
" style="fill:none;stroke:#333333;stroke-linecap:round;stroke-width:1.5;"/>
   </g>
   <g id="line2d_16">
    <path clip-path="url(#p3d8e56cfa3)" d="M 355.682217 362.931219 
L 355.682217 350.228208 
L 893.689995 350.228208 
L 893.689995 362.931219 
" style="fill:none;stroke:#333333;stroke-linecap:round;stroke-width:1.5;"/>
   </g>
   <g id="line2d_17">
    <path clip-path="url(#p3d8e56cfa3)" d="M 624.686106 277.545851 
L 624.686106 264.842839 
L 1162.693884 264.842839 
L 1162.693884 277.545851 
" style="fill:none;stroke:#333333;stroke-linecap:round;stroke-width:1.5;"/>
   </g>
   <g id="line2d_18">
    <path clip-path="url(#p3d8e56cfa3)" d="M 355.682217 187.797095 
L 355.682217 175.094083 
L 1162.693884 175.094083 
L 1162.693884 187.797095 
" style="fill:none;stroke:#333333;stroke-linecap:round;stroke-width:1.5;"/>
   </g>
   <g id="patch_3">
    <path d="M 202.35 1179.94 
L 202.35 96.24 
" style="fill:none;stroke:#cccccc;stroke-linecap:square;stroke-linejoin:miter;stroke-width:2.5;"/>
   </g>
   <g id="patch_4">
    <path d="M 1208.424545 1179.94 
L 1208.424545 96.24 
" style="fill:none;stroke:#cccccc;stroke-linecap:square;stroke-linejoin:miter;stroke-width:2.5;"/>
   </g>
   <g id="patch_5">
    <path d="M 202.35 1179.94 
L 1208.424545 1179.94 
" style="fill:none;stroke:#cccccc;stroke-linecap:square;stroke-linejoin:miter;stroke-width:2.5;"/>
   </g>
   <g id="patch_6">
    <path d="M 202.35 96.24 
L 1208.424545 96.24 
" style="fill:none;stroke:#cccccc;stroke-linecap:square;stroke-linejoin:miter;stroke-width:2.5;"/>
   </g>
   <g id="PathCollection_1">
    <defs>
     <path d="M 0 5 
C 1.326016 5 2.597899 4.473168 3.535534 3.535534 
C 4.473168 2.597899 5 1.326016 5 0 
C 5 -1.326016 4.473168 -2.597899 3.535534 -3.535534 
C 2.597899 -4.473168 1.326016 -5 0 -5 
C -1.326016 -5 -2.597899 -4.473168 -3.535534 -3.535534 
C -4.473168 -2.597899 -5 -1.326016 -5 0 
C -5 1.326016 -4.473168 2.597899 -3.535534 3.535534 
C -2.597899 4.473168 -1.326016 5 0 5 
z
" id="m77ef43376c" style="stroke:#3d3d3d;stroke-width:2;"/>
    </defs>
    <g clip-path="url(#p3d8e56cfa3)">
     <use style="fill:#ffffff;stroke:#3d3d3d;stroke-width:2;" x="355.682217" xlink:href="#m77ef43376c" y="1091.202849"/>
    </g>
   </g>
   <g id="PathCollection_2">
    <g clip-path="url(#p3d8e56cfa3)">
     <use style="fill:#ffffff;stroke:#3d3d3d;stroke-width:2;" x="624.686106" xlink:href="#m77ef43376c" y="1091.202849"/>
    </g>
   </g>
   <g id="text_14">
    <!-- *** -->
    <g transform="translate(460.992755 571.777017)scale(0.5 -0.5)">
     <defs>
      <path d="M 3.125 58.453125 
L 5.375 65.375 
Q 13.140625 62.640625 16.65625 60.640625 
Q 15.71875 69.484375 15.671875 72.796875 
L 22.75 72.796875 
Q 22.609375 67.96875 21.625 60.6875 
Q 26.65625 63.234375 33.15625 65.375 
L 35.40625 58.453125 
Q 29.203125 56.390625 23.25 55.71875 
Q 26.21875 53.125 31.640625 46.484375 
L 25.78125 42.328125 
Q 22.953125 46.1875 19.09375 52.828125 
Q 15.484375 45.953125 12.75 42.328125 
L 6.984375 46.484375 
Q 12.640625 53.46875 15.09375 55.71875 
Q 8.796875 56.9375 3.125 58.453125 
z
" id="ArialMT-42"/>
     </defs>
     <use xlink:href="#ArialMT-42"/>
     <use x="38.916016" xlink:href="#ArialMT-42"/>
     <use x="77.832031" xlink:href="#ArialMT-42"/>
    </g>
   </g>
   <g id="text_15">
    <!-- **** -->
    <g transform="translate(720.266176 497.80952)scale(0.5 -0.5)">
     <use xlink:href="#ArialMT-42"/>
     <use x="38.916016" xlink:href="#ArialMT-42"/>
     <use x="77.832031" xlink:href="#ArialMT-42"/>
     <use x="116.748047" xlink:href="#ArialMT-42"/>
    </g>
   </g>
   <g id="text_16">
    <!-- **** -->
    <g transform="translate(989.270065 420.524826)scale(0.5 -0.5)">
     <use xlink:href="#ArialMT-42"/>
     <use x="38.916016" xlink:href="#ArialMT-42"/>
     <use x="77.832031" xlink:href="#ArialMT-42"/>
     <use x="116.748047" xlink:href="#ArialMT-42"/>
    </g>
   </g>
   <g id="text_17">
    <!-- **** -->
    <g transform="translate(585.764231 339.290708)scale(0.5 -0.5)">
     <use xlink:href="#ArialMT-42"/>
     <use x="38.916016" xlink:href="#ArialMT-42"/>
     <use x="77.832031" xlink:href="#ArialMT-42"/>
     <use x="116.748047" xlink:href="#ArialMT-42"/>
    </g>
   </g>
   <g id="text_18">
    <!-- **** -->
    <g transform="translate(854.76812 253.905339)scale(0.5 -0.5)">
     <use xlink:href="#ArialMT-42"/>
     <use x="38.916016" xlink:href="#ArialMT-42"/>
     <use x="77.832031" xlink:href="#ArialMT-42"/>
     <use x="116.748047" xlink:href="#ArialMT-42"/>
    </g>
   </g>
   <g id="text_19">
    <!-- **** -->
    <g transform="translate(720.266176 164.156583)scale(0.5 -0.5)">
     <use xlink:href="#ArialMT-42"/>
     <use x="38.916016" xlink:href="#ArialMT-42"/>
     <use x="77.832031" xlink:href="#ArialMT-42"/>
     <use x="116.748047" xlink:href="#ArialMT-42"/>
    </g>
   </g>
   <g id="text_20">
    <!-- Lachnospiraceae [G-8] bacterium HMT 500 (K.W. p=nan) -->
    <g transform="translate(72.926335 90.24)scale(0.5 -0.5)">
     <defs>
      <path d="M 7.328125 0 
L 7.328125 71.578125 
L 16.796875 71.578125 
L 16.796875 8.453125 
L 52.046875 8.453125 
L 52.046875 0 
z
" id="ArialMT-76"/>
      <path d="M 3.078125 15.484375 
L 11.765625 16.84375 
Q 12.5 11.625 15.84375 8.84375 
Q 19.1875 6.0625 25.203125 6.0625 
Q 31.25 6.0625 34.171875 8.515625 
Q 37.109375 10.984375 37.109375 14.3125 
Q 37.109375 17.28125 34.515625 19 
Q 32.71875 20.171875 25.53125 21.96875 
Q 15.875 24.421875 12.140625 26.203125 
Q 8.40625 27.984375 6.46875 31.125 
Q 4.546875 34.28125 4.546875 38.09375 
Q 4.546875 41.546875 6.125 44.5 
Q 7.71875 47.46875 10.453125 49.421875 
Q 12.5 50.921875 16.03125 51.96875 
Q 19.578125 53.03125 23.640625 53.03125 
Q 29.734375 53.03125 34.34375 51.265625 
Q 38.96875 49.515625 41.15625 46.5 
Q 43.359375 43.5 44.1875 38.484375 
L 35.59375 37.3125 
Q 35.015625 41.3125 32.203125 43.546875 
Q 29.390625 45.796875 24.265625 45.796875 
Q 18.21875 45.796875 15.625 43.796875 
Q 13.03125 41.796875 13.03125 39.109375 
Q 13.03125 37.40625 14.109375 36.03125 
Q 15.1875 34.625 17.484375 33.6875 
Q 18.796875 33.203125 25.25 31.453125 
Q 34.578125 28.953125 38.25 27.359375 
Q 41.9375 25.78125 44.03125 22.75 
Q 46.140625 19.734375 46.140625 15.234375 
Q 46.140625 10.84375 43.578125 6.953125 
Q 41.015625 3.078125 36.171875 0.953125 
Q 31.34375 -1.171875 25.25 -1.171875 
Q 15.140625 -1.171875 9.84375 3.03125 
Q 4.546875 7.234375 3.078125 15.484375 
z
" id="ArialMT-115"/>
      <path d="M 6.59375 -19.875 
L 6.59375 51.859375 
L 14.59375 51.859375 
L 14.59375 45.125 
Q 17.4375 49.078125 21 51.046875 
Q 24.5625 53.03125 29.640625 53.03125 
Q 36.28125 53.03125 41.359375 49.609375 
Q 46.4375 46.1875 49.015625 39.953125 
Q 51.609375 33.734375 51.609375 26.3125 
Q 51.609375 18.359375 48.75 11.984375 
Q 45.90625 5.609375 40.453125 2.21875 
Q 35.015625 -1.171875 29 -1.171875 
Q 24.609375 -1.171875 21.109375 0.6875 
Q 17.625 2.546875 15.375 5.375 
L 15.375 -19.875 
z
M 14.546875 25.640625 
Q 14.546875 15.625 18.59375 10.84375 
Q 22.65625 6.0625 28.421875 6.0625 
Q 34.28125 6.0625 38.453125 11.015625 
Q 42.625 15.96875 42.625 26.375 
Q 42.625 36.28125 38.546875 41.203125 
Q 34.46875 46.140625 28.8125 46.140625 
Q 23.1875 46.140625 18.859375 40.890625 
Q 14.546875 35.640625 14.546875 25.640625 
z
" id="ArialMT-112"/>
      <path id="ArialMT-32"/>
      <path d="M 6.78125 -19.875 
L 6.78125 71.578125 
L 26.171875 71.578125 
L 26.171875 64.3125 
L 15.578125 64.3125 
L 15.578125 -12.59375 
L 26.171875 -12.59375 
L 26.171875 -19.875 
z
" id="ArialMT-91"/>
      <path d="M 41.21875 28.078125 
L 41.21875 36.46875 
L 71.53125 36.53125 
L 71.53125 9.96875 
Q 64.546875 4.390625 57.125 1.578125 
Q 49.703125 -1.21875 41.890625 -1.21875 
Q 31.34375 -1.21875 22.71875 3.296875 
Q 14.109375 7.8125 9.71875 16.359375 
Q 5.328125 24.90625 5.328125 35.453125 
Q 5.328125 45.90625 9.6875 54.953125 
Q 14.0625 64.015625 22.265625 68.40625 
Q 30.46875 72.796875 41.15625 72.796875 
Q 48.921875 72.796875 55.1875 70.28125 
Q 61.46875 67.78125 65.03125 63.28125 
Q 68.609375 58.796875 70.453125 51.5625 
L 61.921875 49.21875 
Q 60.296875 54.6875 57.90625 57.8125 
Q 55.515625 60.9375 51.0625 62.8125 
Q 46.625 64.703125 41.21875 64.703125 
Q 34.71875 64.703125 29.984375 62.71875 
Q 25.25 60.75 22.34375 57.515625 
Q 19.4375 54.296875 17.828125 50.4375 
Q 15.09375 43.796875 15.09375 36.03125 
Q 15.09375 26.46875 18.390625 20.015625 
Q 21.6875 13.578125 27.984375 10.453125 
Q 34.28125 7.328125 41.359375 7.328125 
Q 47.515625 7.328125 53.375 9.6875 
Q 59.234375 12.0625 62.25 14.75 
L 62.25 28.078125 
z
" id="ArialMT-71"/>
      <path d="M 3.171875 21.484375 
L 3.171875 30.328125 
L 30.171875 30.328125 
L 30.171875 21.484375 
z
" id="ArialMT-45"/>
      <path d="M 21.296875 -19.875 
L 1.90625 -19.875 
L 1.90625 -12.59375 
L 12.5 -12.59375 
L 12.5 64.3125 
L 1.90625 64.3125 
L 1.90625 71.578125 
L 21.296875 71.578125 
z
" id="ArialMT-93"/>
      <path d="M 6.59375 0 
L 6.59375 51.859375 
L 14.453125 51.859375 
L 14.453125 44.578125 
Q 16.890625 48.390625 20.9375 50.703125 
Q 25 53.03125 30.171875 53.03125 
Q 35.9375 53.03125 39.625 50.640625 
Q 43.3125 48.25 44.828125 43.953125 
Q 50.984375 53.03125 60.84375 53.03125 
Q 68.5625 53.03125 72.703125 48.75 
Q 76.859375 44.484375 76.859375 35.59375 
L 76.859375 0 
L 68.109375 0 
L 68.109375 32.671875 
Q 68.109375 37.9375 67.25 40.25 
Q 66.40625 42.578125 64.15625 43.984375 
Q 61.921875 45.40625 58.890625 45.40625 
Q 53.421875 45.40625 49.796875 41.765625 
Q 46.1875 38.140625 46.1875 30.125 
L 46.1875 0 
L 37.40625 0 
L 37.40625 33.6875 
Q 37.40625 39.546875 35.25 42.46875 
Q 33.109375 45.40625 28.21875 45.40625 
Q 24.515625 45.40625 21.359375 43.453125 
Q 18.21875 41.5 16.796875 37.734375 
Q 15.375 33.984375 15.375 26.90625 
L 15.375 0 
z
" id="ArialMT-109"/>
      <path d="M 25.921875 0 
L 25.921875 63.140625 
L 2.34375 63.140625 
L 2.34375 71.578125 
L 59.078125 71.578125 
L 59.078125 63.140625 
L 35.40625 63.140625 
L 35.40625 0 
z
" id="ArialMT-84"/>
      <path d="M 4.15625 18.75 
L 13.375 19.53125 
Q 14.40625 12.796875 18.140625 9.390625 
Q 21.875 6 27.15625 6 
Q 33.5 6 37.890625 10.78125 
Q 42.28125 15.578125 42.28125 23.484375 
Q 42.28125 31 38.0625 35.34375 
Q 33.84375 39.703125 27 39.703125 
Q 22.75 39.703125 19.328125 37.765625 
Q 15.921875 35.84375 13.96875 32.765625 
L 5.71875 33.84375 
L 12.640625 70.609375 
L 48.25 70.609375 
L 48.25 62.203125 
L 19.671875 62.203125 
L 15.828125 42.96875 
Q 22.265625 47.46875 29.34375 47.46875 
Q 38.71875 47.46875 45.15625 40.96875 
Q 51.609375 34.46875 51.609375 24.265625 
Q 51.609375 14.546875 45.953125 7.46875 
Q 39.0625 -1.21875 27.15625 -1.21875 
Q 17.390625 -1.21875 11.203125 4.25 
Q 5.03125 9.71875 4.15625 18.75 
z
" id="ArialMT-53"/>
      <path d="M 23.390625 -21.046875 
Q 16.109375 -11.859375 11.078125 0.4375 
Q 6.0625 12.75 6.0625 25.921875 
Q 6.0625 37.546875 9.8125 48.1875 
Q 14.203125 60.546875 23.390625 72.796875 
L 29.6875 72.796875 
Q 23.78125 62.640625 21.875 58.296875 
Q 18.890625 51.5625 17.1875 44.234375 
Q 15.09375 35.109375 15.09375 25.875 
Q 15.09375 2.390625 29.6875 -21.046875 
z
" id="ArialMT-40"/>
      <path d="M 7.328125 0 
L 7.328125 71.578125 
L 16.796875 71.578125 
L 16.796875 36.078125 
L 52.34375 71.578125 
L 65.1875 71.578125 
L 35.15625 42.578125 
L 66.5 0 
L 54 0 
L 28.515625 36.234375 
L 16.796875 24.8125 
L 16.796875 0 
z
" id="ArialMT-75"/>
      <path d="M 9.078125 0 
L 9.078125 10.015625 
L 19.09375 10.015625 
L 19.09375 0 
z
" id="ArialMT-46"/>
      <path d="M 20.21875 0 
L 1.21875 71.578125 
L 10.9375 71.578125 
L 21.828125 24.65625 
Q 23.578125 17.28125 24.859375 10.015625 
Q 27.59375 21.484375 28.078125 23.25 
L 41.703125 71.578125 
L 53.125 71.578125 
L 63.375 35.359375 
Q 67.234375 21.875 68.953125 10.015625 
Q 70.3125 16.796875 72.515625 25.59375 
L 83.734375 71.578125 
L 93.265625 71.578125 
L 73.640625 0 
L 64.5 0 
L 49.421875 54.546875 
Q 47.515625 61.375 47.171875 62.9375 
Q 46.046875 58.015625 45.0625 54.546875 
L 29.890625 0 
z
" id="ArialMT-87"/>
      <path d="M 52.828125 42.09375 
L 5.5625 42.09375 
L 5.5625 50.296875 
L 52.828125 50.296875 
z
M 52.828125 20.359375 
L 5.5625 20.359375 
L 5.5625 28.5625 
L 52.828125 28.5625 
z
" id="ArialMT-61"/>
      <path d="M 12.359375 -21.046875 
L 6.0625 -21.046875 
Q 20.65625 2.390625 20.65625 25.875 
Q 20.65625 35.0625 18.5625 44.09375 
Q 16.890625 51.421875 13.921875 58.15625 
Q 12.015625 62.546875 6.0625 72.796875 
L 12.359375 72.796875 
Q 21.53125 60.546875 25.921875 48.1875 
Q 29.6875 37.546875 29.6875 25.921875 
Q 29.6875 12.75 24.625 0.4375 
Q 19.578125 -11.859375 12.359375 -21.046875 
z
" id="ArialMT-41"/>
     </defs>
     <use xlink:href="#ArialMT-76"/>
     <use x="55.615234" xlink:href="#ArialMT-97"/>
     <use x="111.230469" xlink:href="#ArialMT-99"/>
     <use x="161.230469" xlink:href="#ArialMT-104"/>
     <use x="216.845703" xlink:href="#ArialMT-110"/>
     <use x="272.460938" xlink:href="#ArialMT-111"/>
     <use x="328.076172" xlink:href="#ArialMT-115"/>
     <use x="378.076172" xlink:href="#ArialMT-112"/>
     <use x="433.691406" xlink:href="#ArialMT-105"/>
     <use x="455.908203" xlink:href="#ArialMT-114"/>
     <use x="489.208984" xlink:href="#ArialMT-97"/>
     <use x="544.824219" xlink:href="#ArialMT-99"/>
     <use x="594.824219" xlink:href="#ArialMT-101"/>
     <use x="650.439453" xlink:href="#ArialMT-97"/>
     <use x="706.054688" xlink:href="#ArialMT-101"/>
     <use x="761.669922" xlink:href="#ArialMT-32"/>
     <use x="789.453125" xlink:href="#ArialMT-91"/>
     <use x="817.236328" xlink:href="#ArialMT-71"/>
     <use x="895.019531" xlink:href="#ArialMT-45"/>
     <use x="928.320312" xlink:href="#ArialMT-56"/>
     <use x="983.935547" xlink:href="#ArialMT-93"/>
     <use x="1011.71875" xlink:href="#ArialMT-32"/>
     <use x="1039.501953" xlink:href="#ArialMT-98"/>
     <use x="1095.117188" xlink:href="#ArialMT-97"/>
     <use x="1150.732422" xlink:href="#ArialMT-99"/>
     <use x="1200.732422" xlink:href="#ArialMT-116"/>
     <use x="1228.515625" xlink:href="#ArialMT-101"/>
     <use x="1284.130859" xlink:href="#ArialMT-114"/>
     <use x="1317.431641" xlink:href="#ArialMT-105"/>
     <use x="1339.648438" xlink:href="#ArialMT-117"/>
     <use x="1395.263672" xlink:href="#ArialMT-109"/>
     <use x="1478.564453" xlink:href="#ArialMT-32"/>
     <use x="1506.347656" xlink:href="#ArialMT-72"/>
     <use x="1578.564453" xlink:href="#ArialMT-77"/>
     <use x="1661.865234" xlink:href="#ArialMT-84"/>
     <use x="1721.199219" xlink:href="#ArialMT-32"/>
     <use x="1748.982422" xlink:href="#ArialMT-53"/>
     <use x="1804.597656" xlink:href="#ArialMT-48"/>
     <use x="1860.212891" xlink:href="#ArialMT-48"/>
     <use x="1915.828125" xlink:href="#ArialMT-32"/>
     <use x="1943.611328" xlink:href="#ArialMT-40"/>
     <use x="1976.912109" xlink:href="#ArialMT-75"/>
     <use x="2043.611328" xlink:href="#ArialMT-46"/>
     <use x="2071.394531" xlink:href="#ArialMT-87"/>
     <use x="2160.279297" xlink:href="#ArialMT-46"/>
     <use x="2188.0625" xlink:href="#ArialMT-32"/>
     <use x="2215.845703" xlink:href="#ArialMT-112"/>
     <use x="2271.460938" xlink:href="#ArialMT-61"/>
     <use x="2329.859375" xlink:href="#ArialMT-110"/>
     <use x="2385.474609" xlink:href="#ArialMT-97"/>
     <use x="2441.089844" xlink:href="#ArialMT-110"/>
     <use x="2496.705078" xlink:href="#ArialMT-41"/>
    </g>
   </g>
  </g>
 </g>
 <defs>
  <clipPath id="p3d8e56cfa3">
   <rect height="1083.7" width="1006.074545" x="202.35" y="96.24"/>
  </clipPath>
 </defs>
</svg>
