<?xml version="1.0" encoding="utf-8" standalone="no"?>
<!DOCTYPE svg PUBLIC "-//W3C//DTD SVG 1.1//EN"
  "http://www.w3.org/Graphics/SVG/1.1/DTD/svg11.dtd">
<!-- Created with matplotlib (https://matplotlib.org/) -->
<svg height="1296pt" version="1.1" viewBox="0 0 1296 1296" width="1296pt" xmlns="http://www.w3.org/2000/svg" xmlns:xlink="http://www.w3.org/1999/xlink">
 <metadata>
  <rdf:RDF xmlns:cc="http://creativecommons.org/ns#" xmlns:dc="http://purl.org/dc/elements/1.1/" xmlns:rdf="http://www.w3.org/1999/02/22-rdf-syntax-ns#">
   <cc:Work>
    <dc:type rdf:resource="http://purl.org/dc/dcmitype/StillImage"/>
    <dc:date>2022-06-29T14:10:12.648242</dc:date>
    <dc:format>image/svg+xml</dc:format>
    <dc:creator>
     <cc:Agent>
      <dc:title>Matplotlib v3.3.3, https://matplotlib.org/</dc:title>
     </cc:Agent>
    </dc:creator>
   </cc:Work>
  </rdf:RDF>
 </metadata>
 <defs>
  <style type="text/css">*{stroke-linecap:butt;stroke-linejoin:round;}</style>
 </defs>
 <g id="figure_1">
  <g id="patch_1">
   <path d="M 0 1296 
L 1296 1296 
L 1296 0 
L 0 0 
z
" style="fill:#ffffff;"/>
  </g>
  <g id="axes_1">
   <g id="patch_2">
    <path d="M 230.13 1179.94 
L 1242 1179.94 
L 1242 96.12 
L 230.13 96.12 
z
" style="fill:#ffffff;"/>
   </g>
   <g id="matplotlib.axis_1">
    <g id="xtick_1">
     <g id="text_1">
      <!-- Healthy -->
      <g style="fill:#262626;" transform="translate(274.419895 1231.229063)scale(0.5 -0.5)">
       <defs>
        <path d="M 8.015625 0 
L 8.015625 71.578125 
L 17.484375 71.578125 
L 17.484375 42.1875 
L 54.6875 42.1875 
L 54.6875 71.578125 
L 64.15625 71.578125 
L 64.15625 0 
L 54.6875 0 
L 54.6875 33.734375 
L 17.484375 33.734375 
L 17.484375 0 
z
" id="ArialMT-72"/>
        <path d="M 42.09375 16.703125 
L 51.171875 15.578125 
Q 49.03125 7.625 43.21875 3.21875 
Q 37.40625 -1.171875 28.375 -1.171875 
Q 17 -1.171875 10.328125 5.828125 
Q 3.65625 12.84375 3.65625 25.484375 
Q 3.65625 38.578125 10.390625 45.796875 
Q 17.140625 53.03125 27.875 53.03125 
Q 38.28125 53.03125 44.875 45.953125 
Q 51.46875 38.875 51.46875 26.03125 
Q 51.46875 25.25 51.421875 23.6875 
L 12.75 23.6875 
Q 13.234375 15.140625 17.578125 10.59375 
Q 21.921875 6.0625 28.421875 6.0625 
Q 33.25 6.0625 36.671875 8.59375 
Q 40.09375 11.140625 42.09375 16.703125 
z
M 13.234375 30.90625 
L 42.1875 30.90625 
Q 41.609375 37.453125 38.875 40.71875 
Q 34.671875 45.796875 27.984375 45.796875 
Q 21.921875 45.796875 17.796875 41.75 
Q 13.671875 37.703125 13.234375 30.90625 
z
" id="ArialMT-101"/>
        <path d="M 40.4375 6.390625 
Q 35.546875 2.25 31.03125 0.53125 
Q 26.515625 -1.171875 21.34375 -1.171875 
Q 12.796875 -1.171875 8.203125 3 
Q 3.609375 7.171875 3.609375 13.671875 
Q 3.609375 17.484375 5.34375 20.625 
Q 7.078125 23.78125 9.890625 25.6875 
Q 12.703125 27.59375 16.21875 28.5625 
Q 18.796875 29.25 24.03125 29.890625 
Q 34.671875 31.15625 39.703125 32.90625 
Q 39.75 34.71875 39.75 35.203125 
Q 39.75 40.578125 37.25 42.78125 
Q 33.890625 45.75 27.25 45.75 
Q 21.046875 45.75 18.09375 43.578125 
Q 15.140625 41.40625 13.71875 35.890625 
L 5.125 37.0625 
Q 6.296875 42.578125 8.984375 45.96875 
Q 11.671875 49.359375 16.75 51.1875 
Q 21.828125 53.03125 28.515625 53.03125 
Q 35.15625 53.03125 39.296875 51.46875 
Q 43.453125 49.90625 45.40625 47.53125 
Q 47.359375 45.171875 48.140625 41.546875 
Q 48.578125 39.3125 48.578125 33.453125 
L 48.578125 21.734375 
Q 48.578125 9.46875 49.140625 6.21875 
Q 49.703125 2.984375 51.375 0 
L 42.1875 0 
Q 40.828125 2.734375 40.4375 6.390625 
z
M 39.703125 26.03125 
Q 34.90625 24.078125 25.34375 22.703125 
Q 19.921875 21.921875 17.671875 20.9375 
Q 15.4375 19.96875 14.203125 18.09375 
Q 12.984375 16.21875 12.984375 13.921875 
Q 12.984375 10.40625 15.640625 8.0625 
Q 18.3125 5.71875 23.4375 5.71875 
Q 28.515625 5.71875 32.46875 7.9375 
Q 36.421875 10.15625 38.28125 14.015625 
Q 39.703125 17 39.703125 22.796875 
z
" id="ArialMT-97"/>
        <path d="M 6.390625 0 
L 6.390625 71.578125 
L 15.1875 71.578125 
L 15.1875 0 
z
" id="ArialMT-108"/>
        <path d="M 25.78125 7.859375 
L 27.046875 0.09375 
Q 23.34375 -0.6875 20.40625 -0.6875 
Q 15.625 -0.6875 12.984375 0.828125 
Q 10.359375 2.34375 9.28125 4.8125 
Q 8.203125 7.28125 8.203125 15.1875 
L 8.203125 45.015625 
L 1.765625 45.015625 
L 1.765625 51.859375 
L 8.203125 51.859375 
L 8.203125 64.703125 
L 16.9375 69.96875 
L 16.9375 51.859375 
L 25.78125 51.859375 
L 25.78125 45.015625 
L 16.9375 45.015625 
L 16.9375 14.703125 
Q 16.9375 10.9375 17.40625 9.859375 
Q 17.875 8.796875 18.921875 8.15625 
Q 19.96875 7.515625 21.921875 7.515625 
Q 23.390625 7.515625 25.78125 7.859375 
z
" id="ArialMT-116"/>
        <path d="M 6.59375 0 
L 6.59375 71.578125 
L 15.375 71.578125 
L 15.375 45.90625 
Q 21.53125 53.03125 30.90625 53.03125 
Q 36.671875 53.03125 40.921875 50.75 
Q 45.171875 48.484375 47 44.484375 
Q 48.828125 40.484375 48.828125 32.859375 
L 48.828125 0 
L 40.046875 0 
L 40.046875 32.859375 
Q 40.046875 39.453125 37.1875 42.453125 
Q 34.328125 45.453125 29.109375 45.453125 
Q 25.203125 45.453125 21.75 43.421875 
Q 18.3125 41.40625 16.84375 37.9375 
Q 15.375 34.46875 15.375 28.375 
L 15.375 0 
z
" id="ArialMT-104"/>
        <path d="M 6.203125 -19.96875 
L 5.21875 -11.71875 
Q 8.109375 -12.5 10.25 -12.5 
Q 13.1875 -12.5 14.9375 -11.515625 
Q 16.703125 -10.546875 17.828125 -8.796875 
Q 18.65625 -7.46875 20.515625 -2.25 
Q 20.75 -1.515625 21.296875 -0.09375 
L 1.609375 51.859375 
L 11.078125 51.859375 
L 21.875 21.828125 
Q 23.96875 16.109375 25.640625 9.8125 
Q 27.15625 15.875 29.25 21.625 
L 40.328125 51.859375 
L 49.125 51.859375 
L 29.390625 -0.875 
Q 26.21875 -9.421875 24.46875 -12.640625 
Q 22.125 -17 19.09375 -19.015625 
Q 16.0625 -21.046875 11.859375 -21.046875 
Q 9.328125 -21.046875 6.203125 -19.96875 
z
" id="ArialMT-121"/>
       </defs>
       <use xlink:href="#ArialMT-72"/>
       <use x="72.216797" xlink:href="#ArialMT-101"/>
       <use x="127.832031" xlink:href="#ArialMT-97"/>
       <use x="183.447266" xlink:href="#ArialMT-108"/>
       <use x="205.664062" xlink:href="#ArialMT-116"/>
       <use x="233.447266" xlink:href="#ArialMT-104"/>
       <use x="289.0625" xlink:href="#ArialMT-121"/>
      </g>
     </g>
    </g>
    <g id="xtick_2">
     <g id="text_2">
      <!-- Slight+Moderate+Severe -->
      <g style="fill:#262626;" transform="translate(680.362472 1231.838438)scale(0.5 -0.5)">
       <defs>
        <path d="M 4.5 23 
L 13.421875 23.78125 
Q 14.0625 18.40625 16.375 14.96875 
Q 18.703125 11.53125 23.578125 9.40625 
Q 28.46875 7.28125 34.578125 7.28125 
Q 39.984375 7.28125 44.140625 8.890625 
Q 48.296875 10.5 50.3125 13.296875 
Q 52.34375 16.109375 52.34375 19.4375 
Q 52.34375 22.796875 50.390625 25.3125 
Q 48.4375 27.828125 43.953125 29.546875 
Q 41.0625 30.671875 31.203125 33.03125 
Q 21.34375 35.40625 17.390625 37.5 
Q 12.25 40.1875 9.734375 44.15625 
Q 7.234375 48.140625 7.234375 53.078125 
Q 7.234375 58.5 10.296875 63.203125 
Q 13.375 67.921875 19.28125 70.359375 
Q 25.203125 72.796875 32.421875 72.796875 
Q 40.375 72.796875 46.453125 70.234375 
Q 52.546875 67.671875 55.8125 62.6875 
Q 59.078125 57.71875 59.328125 51.421875 
L 50.25 50.734375 
Q 49.515625 57.515625 45.28125 60.984375 
Q 41.0625 64.453125 32.8125 64.453125 
Q 24.21875 64.453125 20.28125 61.296875 
Q 16.359375 58.15625 16.359375 53.71875 
Q 16.359375 49.859375 19.140625 47.359375 
Q 21.875 44.875 33.421875 42.265625 
Q 44.96875 39.65625 49.265625 37.703125 
Q 55.515625 34.8125 58.484375 30.390625 
Q 61.46875 25.984375 61.46875 20.21875 
Q 61.46875 14.5 58.203125 9.4375 
Q 54.9375 4.390625 48.796875 1.578125 
Q 42.671875 -1.21875 35.015625 -1.21875 
Q 25.296875 -1.21875 18.71875 1.609375 
Q 12.15625 4.4375 8.421875 10.125 
Q 4.6875 15.828125 4.5 23 
z
" id="ArialMT-83"/>
        <path d="M 6.640625 61.46875 
L 6.640625 71.578125 
L 15.4375 71.578125 
L 15.4375 61.46875 
z
M 6.640625 0 
L 6.640625 51.859375 
L 15.4375 51.859375 
L 15.4375 0 
z
" id="ArialMT-105"/>
        <path d="M 4.984375 -4.296875 
L 13.53125 -5.5625 
Q 14.0625 -9.515625 16.5 -11.328125 
Q 19.78125 -13.765625 25.4375 -13.765625 
Q 31.546875 -13.765625 34.859375 -11.328125 
Q 38.1875 -8.890625 39.359375 -4.5 
Q 40.046875 -1.8125 39.984375 6.78125 
Q 34.234375 0 25.640625 0 
Q 14.9375 0 9.078125 7.71875 
Q 3.21875 15.4375 3.21875 26.21875 
Q 3.21875 33.640625 5.90625 39.90625 
Q 8.59375 46.1875 13.6875 49.609375 
Q 18.796875 53.03125 25.6875 53.03125 
Q 34.859375 53.03125 40.828125 45.609375 
L 40.828125 51.859375 
L 48.921875 51.859375 
L 48.921875 7.03125 
Q 48.921875 -5.078125 46.453125 -10.125 
Q 44 -15.1875 38.640625 -18.109375 
Q 33.296875 -21.046875 25.484375 -21.046875 
Q 16.21875 -21.046875 10.5 -16.875 
Q 4.78125 -12.703125 4.984375 -4.296875 
z
M 12.25 26.859375 
Q 12.25 16.65625 16.296875 11.96875 
Q 20.359375 7.28125 26.46875 7.28125 
Q 32.515625 7.28125 36.609375 11.9375 
Q 40.71875 16.609375 40.71875 26.5625 
Q 40.71875 36.078125 36.5 40.90625 
Q 32.28125 45.75 26.3125 45.75 
Q 20.453125 45.75 16.34375 40.984375 
Q 12.25 36.234375 12.25 26.859375 
z
" id="ArialMT-103"/>
        <path d="M 25.046875 11.578125 
L 25.046875 31.203125 
L 5.5625 31.203125 
L 5.5625 39.40625 
L 25.046875 39.40625 
L 25.046875 58.890625 
L 33.34375 58.890625 
L 33.34375 39.40625 
L 52.828125 39.40625 
L 52.828125 31.203125 
L 33.34375 31.203125 
L 33.34375 11.578125 
z
" id="ArialMT-43"/>
        <path d="M 7.421875 0 
L 7.421875 71.578125 
L 21.6875 71.578125 
L 38.625 20.90625 
Q 40.96875 13.8125 42.046875 10.296875 
Q 43.265625 14.203125 45.84375 21.78125 
L 62.984375 71.578125 
L 75.734375 71.578125 
L 75.734375 0 
L 66.609375 0 
L 66.609375 59.90625 
L 45.796875 0 
L 37.25 0 
L 16.546875 60.9375 
L 16.546875 0 
z
" id="ArialMT-77"/>
        <path d="M 3.328125 25.921875 
Q 3.328125 40.328125 11.328125 47.265625 
Q 18.015625 53.03125 27.640625 53.03125 
Q 38.328125 53.03125 45.109375 46.015625 
Q 51.90625 39.015625 51.90625 26.65625 
Q 51.90625 16.65625 48.90625 10.90625 
Q 45.90625 5.171875 40.15625 2 
Q 34.421875 -1.171875 27.640625 -1.171875 
Q 16.75 -1.171875 10.03125 5.8125 
Q 3.328125 12.796875 3.328125 25.921875 
z
M 12.359375 25.921875 
Q 12.359375 15.96875 16.703125 11.015625 
Q 21.046875 6.0625 27.640625 6.0625 
Q 34.1875 6.0625 38.53125 11.03125 
Q 42.875 16.015625 42.875 26.21875 
Q 42.875 35.84375 38.5 40.796875 
Q 34.125 45.75 27.640625 45.75 
Q 21.046875 45.75 16.703125 40.8125 
Q 12.359375 35.890625 12.359375 25.921875 
z
" id="ArialMT-111"/>
        <path d="M 40.234375 0 
L 40.234375 6.546875 
Q 35.296875 -1.171875 25.734375 -1.171875 
Q 19.53125 -1.171875 14.328125 2.25 
Q 9.125 5.671875 6.265625 11.796875 
Q 3.421875 17.921875 3.421875 25.875 
Q 3.421875 33.640625 6 39.96875 
Q 8.59375 46.296875 13.765625 49.65625 
Q 18.953125 53.03125 25.34375 53.03125 
Q 30.03125 53.03125 33.6875 51.046875 
Q 37.359375 49.078125 39.65625 45.90625 
L 39.65625 71.578125 
L 48.390625 71.578125 
L 48.390625 0 
z
M 12.453125 25.875 
Q 12.453125 15.921875 16.640625 10.984375 
Q 20.84375 6.0625 26.5625 6.0625 
Q 32.328125 6.0625 36.34375 10.765625 
Q 40.375 15.484375 40.375 25.140625 
Q 40.375 35.796875 36.265625 40.765625 
Q 32.171875 45.75 26.171875 45.75 
Q 20.3125 45.75 16.375 40.96875 
Q 12.453125 36.1875 12.453125 25.875 
z
" id="ArialMT-100"/>
        <path d="M 6.5 0 
L 6.5 51.859375 
L 14.40625 51.859375 
L 14.40625 44 
Q 17.4375 49.515625 20 51.265625 
Q 22.5625 53.03125 25.640625 53.03125 
Q 30.078125 53.03125 34.671875 50.203125 
L 31.640625 42.046875 
Q 28.421875 43.953125 25.203125 43.953125 
Q 22.3125 43.953125 20.015625 42.21875 
Q 17.71875 40.484375 16.75 37.40625 
Q 15.28125 32.71875 15.28125 27.15625 
L 15.28125 0 
z
" id="ArialMT-114"/>
        <path d="M 21 0 
L 1.265625 51.859375 
L 10.546875 51.859375 
L 21.6875 20.796875 
Q 23.484375 15.765625 25 10.359375 
Q 26.171875 14.453125 28.265625 20.21875 
L 39.796875 51.859375 
L 48.828125 51.859375 
L 29.203125 0 
z
" id="ArialMT-118"/>
       </defs>
       <use xlink:href="#ArialMT-83"/>
       <use x="66.699219" xlink:href="#ArialMT-108"/>
       <use x="88.916016" xlink:href="#ArialMT-105"/>
       <use x="111.132812" xlink:href="#ArialMT-103"/>
       <use x="166.748047" xlink:href="#ArialMT-104"/>
       <use x="222.363281" xlink:href="#ArialMT-116"/>
       <use x="250.146484" xlink:href="#ArialMT-43"/>
       <use x="308.544922" xlink:href="#ArialMT-77"/>
       <use x="391.845703" xlink:href="#ArialMT-111"/>
       <use x="447.460938" xlink:href="#ArialMT-100"/>
       <use x="503.076172" xlink:href="#ArialMT-101"/>
       <use x="558.691406" xlink:href="#ArialMT-114"/>
       <use x="591.992188" xlink:href="#ArialMT-97"/>
       <use x="647.607422" xlink:href="#ArialMT-116"/>
       <use x="675.390625" xlink:href="#ArialMT-101"/>
       <use x="731.005859" xlink:href="#ArialMT-43"/>
       <use x="789.404297" xlink:href="#ArialMT-83"/>
       <use x="856.103516" xlink:href="#ArialMT-101"/>
       <use x="911.71875" xlink:href="#ArialMT-118"/>
       <use x="961.71875" xlink:href="#ArialMT-101"/>
       <use x="1017.333984" xlink:href="#ArialMT-114"/>
       <use x="1050.634766" xlink:href="#ArialMT-101"/>
      </g>
     </g>
    </g>
   </g>
   <g id="matplotlib.axis_2">
    <g id="ytick_1">
     <g id="line2d_1">
      <path clip-path="url(#p7b3ac232a3)" d="M 230.13 1064.302776 
L 1242 1064.302776 
" style="fill:none;stroke:#cccccc;stroke-linecap:round;stroke-width:2;"/>
     </g>
     <g id="text_3">
      <!-- 0 -->
      <g style="fill:#262626;" transform="translate(186.825312 1082.197307)scale(0.5 -0.5)">
       <defs>
        <path d="M 4.15625 35.296875 
Q 4.15625 48 6.765625 55.734375 
Q 9.375 63.484375 14.515625 67.671875 
Q 19.671875 71.875 27.484375 71.875 
Q 33.25 71.875 37.59375 69.546875 
Q 41.9375 67.234375 44.765625 62.859375 
Q 47.609375 58.5 49.21875 52.21875 
Q 50.828125 45.953125 50.828125 35.296875 
Q 50.828125 22.703125 48.234375 14.96875 
Q 45.65625 7.234375 40.5 3 
Q 35.359375 -1.21875 27.484375 -1.21875 
Q 17.140625 -1.21875 11.234375 6.203125 
Q 4.15625 15.140625 4.15625 35.296875 
z
M 13.1875 35.296875 
Q 13.1875 17.671875 17.3125 11.828125 
Q 21.4375 6 27.484375 6 
Q 33.546875 6 37.671875 11.859375 
Q 41.796875 17.71875 41.796875 35.296875 
Q 41.796875 52.984375 37.671875 58.78125 
Q 33.546875 64.59375 27.390625 64.59375 
Q 21.34375 64.59375 17.71875 59.46875 
Q 13.1875 52.9375 13.1875 35.296875 
z
" id="ArialMT-48"/>
       </defs>
       <use xlink:href="#ArialMT-48"/>
      </g>
     </g>
    </g>
    <g id="ytick_2">
     <g id="line2d_2">
      <path clip-path="url(#p7b3ac232a3)" d="M 230.13 873.100567 
L 1242 873.100567 
" style="fill:none;stroke:#cccccc;stroke-linecap:round;stroke-width:2;"/>
     </g>
     <g id="text_4">
      <!-- 200 -->
      <g style="fill:#262626;" transform="translate(131.215937 890.995098)scale(0.5 -0.5)">
       <defs>
        <path d="M 50.34375 8.453125 
L 50.34375 0 
L 3.03125 0 
Q 2.9375 3.171875 4.046875 6.109375 
Q 5.859375 10.9375 9.828125 15.625 
Q 13.8125 20.3125 21.34375 26.46875 
Q 33.015625 36.03125 37.109375 41.625 
Q 41.21875 47.21875 41.21875 52.203125 
Q 41.21875 57.421875 37.46875 61 
Q 33.734375 64.59375 27.734375 64.59375 
Q 21.390625 64.59375 17.578125 60.78125 
Q 13.765625 56.984375 13.71875 50.25 
L 4.6875 51.171875 
Q 5.609375 61.28125 11.65625 66.578125 
Q 17.71875 71.875 27.9375 71.875 
Q 38.234375 71.875 44.234375 66.15625 
Q 50.25 60.453125 50.25 52 
Q 50.25 47.703125 48.484375 43.546875 
Q 46.734375 39.40625 42.65625 34.8125 
Q 38.578125 30.21875 29.109375 22.21875 
Q 21.1875 15.578125 18.9375 13.203125 
Q 16.703125 10.84375 15.234375 8.453125 
z
" id="ArialMT-50"/>
       </defs>
       <use xlink:href="#ArialMT-50"/>
       <use x="55.615234" xlink:href="#ArialMT-48"/>
       <use x="111.230469" xlink:href="#ArialMT-48"/>
      </g>
     </g>
    </g>
    <g id="ytick_3">
     <g id="line2d_3">
      <path clip-path="url(#p7b3ac232a3)" d="M 230.13 681.898358 
L 1242 681.898358 
" style="fill:none;stroke:#cccccc;stroke-linecap:round;stroke-width:2;"/>
     </g>
     <g id="text_5">
      <!-- 400 -->
      <g style="fill:#262626;" transform="translate(131.215937 699.792889)scale(0.5 -0.5)">
       <defs>
        <path d="M 32.328125 0 
L 32.328125 17.140625 
L 1.265625 17.140625 
L 1.265625 25.203125 
L 33.9375 71.578125 
L 41.109375 71.578125 
L 41.109375 25.203125 
L 50.78125 25.203125 
L 50.78125 17.140625 
L 41.109375 17.140625 
L 41.109375 0 
z
M 32.328125 25.203125 
L 32.328125 57.46875 
L 9.90625 25.203125 
z
" id="ArialMT-52"/>
       </defs>
       <use xlink:href="#ArialMT-52"/>
       <use x="55.615234" xlink:href="#ArialMT-48"/>
       <use x="111.230469" xlink:href="#ArialMT-48"/>
      </g>
     </g>
    </g>
    <g id="ytick_4">
     <g id="line2d_4">
      <path clip-path="url(#p7b3ac232a3)" d="M 230.13 490.696149 
L 1242 490.696149 
" style="fill:none;stroke:#cccccc;stroke-linecap:round;stroke-width:2;"/>
     </g>
     <g id="text_6">
      <!-- 600 -->
      <g style="fill:#262626;" transform="translate(131.215937 508.59068)scale(0.5 -0.5)">
       <defs>
        <path d="M 49.75 54.046875 
L 41.015625 53.375 
Q 39.84375 58.546875 37.703125 60.890625 
Q 34.125 64.65625 28.90625 64.65625 
Q 24.703125 64.65625 21.53125 62.3125 
Q 17.390625 59.28125 14.984375 53.46875 
Q 12.59375 47.65625 12.5 36.921875 
Q 15.671875 41.75 20.265625 44.09375 
Q 24.859375 46.4375 29.890625 46.4375 
Q 38.671875 46.4375 44.84375 39.96875 
Q 51.03125 33.5 51.03125 23.25 
Q 51.03125 16.5 48.125 10.71875 
Q 45.21875 4.9375 40.140625 1.859375 
Q 35.0625 -1.21875 28.609375 -1.21875 
Q 17.625 -1.21875 10.6875 6.859375 
Q 3.765625 14.9375 3.765625 33.5 
Q 3.765625 54.25 11.421875 63.671875 
Q 18.109375 71.875 29.4375 71.875 
Q 37.890625 71.875 43.28125 67.140625 
Q 48.6875 62.40625 49.75 54.046875 
z
M 13.875 23.1875 
Q 13.875 18.65625 15.796875 14.5 
Q 17.71875 10.359375 21.1875 8.171875 
Q 24.65625 6 28.46875 6 
Q 34.03125 6 38.03125 10.484375 
Q 42.046875 14.984375 42.046875 22.703125 
Q 42.046875 30.125 38.078125 34.390625 
Q 34.125 38.671875 28.125 38.671875 
Q 22.171875 38.671875 18.015625 34.390625 
Q 13.875 30.125 13.875 23.1875 
z
" id="ArialMT-54"/>
       </defs>
       <use xlink:href="#ArialMT-54"/>
       <use x="55.615234" xlink:href="#ArialMT-48"/>
       <use x="111.230469" xlink:href="#ArialMT-48"/>
      </g>
     </g>
    </g>
    <g id="ytick_5">
     <g id="line2d_5">
      <path clip-path="url(#p7b3ac232a3)" d="M 230.13 299.49394 
L 1242 299.49394 
" style="fill:none;stroke:#cccccc;stroke-linecap:round;stroke-width:2;"/>
     </g>
     <g id="text_7">
      <!-- 800 -->
      <g style="fill:#262626;" transform="translate(131.215937 317.388471)scale(0.5 -0.5)">
       <defs>
        <path d="M 17.671875 38.8125 
Q 12.203125 40.828125 9.5625 44.53125 
Q 6.9375 48.25 6.9375 53.421875 
Q 6.9375 61.234375 12.546875 66.546875 
Q 18.171875 71.875 27.484375 71.875 
Q 36.859375 71.875 42.578125 66.421875 
Q 48.296875 60.984375 48.296875 53.171875 
Q 48.296875 48.1875 45.671875 44.5 
Q 43.0625 40.828125 37.75 38.8125 
Q 44.34375 36.671875 47.78125 31.875 
Q 51.21875 27.09375 51.21875 20.453125 
Q 51.21875 11.28125 44.71875 5.03125 
Q 38.234375 -1.21875 27.640625 -1.21875 
Q 17.046875 -1.21875 10.546875 5.046875 
Q 4.046875 11.328125 4.046875 20.703125 
Q 4.046875 27.6875 7.59375 32.390625 
Q 11.140625 37.109375 17.671875 38.8125 
z
M 15.921875 53.71875 
Q 15.921875 48.640625 19.1875 45.40625 
Q 22.46875 42.1875 27.6875 42.1875 
Q 32.765625 42.1875 36.015625 45.375 
Q 39.265625 48.578125 39.265625 53.21875 
Q 39.265625 58.0625 35.90625 61.359375 
Q 32.5625 64.65625 27.59375 64.65625 
Q 22.5625 64.65625 19.234375 61.421875 
Q 15.921875 58.203125 15.921875 53.71875 
z
M 13.09375 20.65625 
Q 13.09375 16.890625 14.875 13.375 
Q 16.65625 9.859375 20.171875 7.921875 
Q 23.6875 6 27.734375 6 
Q 34.03125 6 38.125 10.046875 
Q 42.234375 14.109375 42.234375 20.359375 
Q 42.234375 26.703125 38.015625 30.859375 
Q 33.796875 35.015625 27.4375 35.015625 
Q 21.234375 35.015625 17.15625 30.90625 
Q 13.09375 26.8125 13.09375 20.65625 
z
" id="ArialMT-56"/>
       </defs>
       <use xlink:href="#ArialMT-56"/>
       <use x="55.615234" xlink:href="#ArialMT-48"/>
       <use x="111.230469" xlink:href="#ArialMT-48"/>
      </g>
     </g>
    </g>
    <g id="ytick_6">
     <g id="line2d_6">
      <path clip-path="url(#p7b3ac232a3)" d="M 230.13 108.291731 
L 1242 108.291731 
" style="fill:none;stroke:#cccccc;stroke-linecap:round;stroke-width:2;"/>
     </g>
     <g id="text_8">
      <!-- 1000 -->
      <g style="fill:#262626;" transform="translate(103.41125 126.186262)scale(0.5 -0.5)">
       <defs>
        <path d="M 37.25 0 
L 28.46875 0 
L 28.46875 56 
Q 25.296875 52.984375 20.140625 49.953125 
Q 14.984375 46.921875 10.890625 45.40625 
L 10.890625 53.90625 
Q 18.265625 57.375 23.78125 62.296875 
Q 29.296875 67.234375 31.59375 71.875 
L 37.25 71.875 
z
" id="ArialMT-49"/>
       </defs>
       <use xlink:href="#ArialMT-49"/>
       <use x="55.615234" xlink:href="#ArialMT-48"/>
       <use x="111.230469" xlink:href="#ArialMT-48"/>
       <use x="166.845703" xlink:href="#ArialMT-48"/>
      </g>
     </g>
    </g>
    <g id="text_9">
     <!-- Abundance -->
     <g style="fill:#262626;" transform="translate(89.47375 764.522187)rotate(-90)scale(0.5 -0.5)">
      <defs>
       <path d="M -0.140625 0 
L 27.34375 71.578125 
L 37.546875 71.578125 
L 66.84375 0 
L 56.0625 0 
L 47.703125 21.6875 
L 17.78125 21.6875 
L 9.90625 0 
z
M 20.515625 29.390625 
L 44.78125 29.390625 
L 37.3125 49.21875 
Q 33.890625 58.25 32.234375 64.0625 
Q 30.859375 57.171875 28.375 50.390625 
z
" id="ArialMT-65"/>
       <path d="M 14.703125 0 
L 6.546875 0 
L 6.546875 71.578125 
L 15.328125 71.578125 
L 15.328125 46.046875 
Q 20.90625 53.03125 29.546875 53.03125 
Q 34.328125 53.03125 38.59375 51.09375 
Q 42.875 49.171875 45.625 45.671875 
Q 48.390625 42.1875 49.953125 37.25 
Q 51.515625 32.328125 51.515625 26.703125 
Q 51.515625 13.375 44.921875 6.09375 
Q 38.328125 -1.171875 29.109375 -1.171875 
Q 19.921875 -1.171875 14.703125 6.5 
z
M 14.59375 26.3125 
Q 14.59375 17 17.140625 12.84375 
Q 21.296875 6.0625 28.375 6.0625 
Q 34.125 6.0625 38.328125 11.0625 
Q 42.53125 16.0625 42.53125 25.984375 
Q 42.53125 36.140625 38.5 40.96875 
Q 34.46875 45.796875 28.765625 45.796875 
Q 23 45.796875 18.796875 40.796875 
Q 14.59375 35.796875 14.59375 26.3125 
z
" id="ArialMT-98"/>
       <path d="M 40.578125 0 
L 40.578125 7.625 
Q 34.515625 -1.171875 24.125 -1.171875 
Q 19.53125 -1.171875 15.546875 0.578125 
Q 11.578125 2.34375 9.640625 5 
Q 7.71875 7.671875 6.9375 11.53125 
Q 6.390625 14.109375 6.390625 19.734375 
L 6.390625 51.859375 
L 15.1875 51.859375 
L 15.1875 23.09375 
Q 15.1875 16.21875 15.71875 13.8125 
Q 16.546875 10.359375 19.234375 8.375 
Q 21.921875 6.390625 25.875 6.390625 
Q 29.828125 6.390625 33.296875 8.421875 
Q 36.765625 10.453125 38.203125 13.9375 
Q 39.65625 17.4375 39.65625 24.078125 
L 39.65625 51.859375 
L 48.4375 51.859375 
L 48.4375 0 
z
" id="ArialMT-117"/>
       <path d="M 6.59375 0 
L 6.59375 51.859375 
L 14.5 51.859375 
L 14.5 44.484375 
Q 20.21875 53.03125 31 53.03125 
Q 35.6875 53.03125 39.625 51.34375 
Q 43.5625 49.65625 45.515625 46.921875 
Q 47.46875 44.1875 48.25 40.4375 
Q 48.734375 37.984375 48.734375 31.890625 
L 48.734375 0 
L 39.9375 0 
L 39.9375 31.546875 
Q 39.9375 36.921875 38.90625 39.578125 
Q 37.890625 42.234375 35.28125 43.8125 
Q 32.671875 45.40625 29.15625 45.40625 
Q 23.53125 45.40625 19.453125 41.84375 
Q 15.375 38.28125 15.375 28.328125 
L 15.375 0 
z
" id="ArialMT-110"/>
       <path d="M 40.4375 19 
L 49.078125 17.875 
Q 47.65625 8.9375 41.8125 3.875 
Q 35.984375 -1.171875 27.484375 -1.171875 
Q 16.84375 -1.171875 10.375 5.78125 
Q 3.90625 12.75 3.90625 25.734375 
Q 3.90625 34.125 6.6875 40.421875 
Q 9.46875 46.734375 15.15625 49.875 
Q 20.84375 53.03125 27.546875 53.03125 
Q 35.984375 53.03125 41.359375 48.75 
Q 46.734375 44.484375 48.25 36.625 
L 39.703125 35.296875 
Q 38.484375 40.53125 35.375 43.15625 
Q 32.28125 45.796875 27.875 45.796875 
Q 21.234375 45.796875 17.078125 41.03125 
Q 12.9375 36.28125 12.9375 25.984375 
Q 12.9375 15.53125 16.9375 10.796875 
Q 20.953125 6.0625 27.390625 6.0625 
Q 32.5625 6.0625 36.03125 9.234375 
Q 39.5 12.40625 40.4375 19 
z
" id="ArialMT-99"/>
      </defs>
      <use xlink:href="#ArialMT-65"/>
      <use x="66.699219" xlink:href="#ArialMT-98"/>
      <use x="122.314453" xlink:href="#ArialMT-117"/>
      <use x="177.929688" xlink:href="#ArialMT-110"/>
      <use x="233.544922" xlink:href="#ArialMT-100"/>
      <use x="289.160156" xlink:href="#ArialMT-97"/>
      <use x="344.775391" xlink:href="#ArialMT-110"/>
      <use x="400.390625" xlink:href="#ArialMT-99"/>
      <use x="450.390625" xlink:href="#ArialMT-101"/>
     </g>
    </g>
   </g>
   <g id="PolyCollection_1">
    <defs>
     <path d="M 365.47339 -163.29199 
L 352.889837 -163.29199 
L 351.374019 -172.833806 
L 349.60018 -182.375622 
L 347.548452 -191.917439 
L 345.202397 -201.459255 
L 342.550352 -211.001071 
L 339.586975 -220.542887 
L 336.31492 -230.084703 
L 332.746556 -239.626519 
L 328.905576 -249.168336 
L 324.828271 -258.710152 
L 320.564232 -268.251968 
L 316.176224 -277.793784 
L 311.738986 -287.3356 
L 307.33683 -296.877416 
L 303.05999 -306.419233 
L 298.999871 -315.961049 
L 295.243493 -325.502865 
L 291.867619 -335.044681 
L 288.933148 -344.586497 
L 286.480439 -354.128314 
L 284.526159 -363.67013 
L 283.06213 -373.211946 
L 282.056415 -382.753762 
L 281.456591 -392.295578 
L 281.194857 -401.837394 
L 281.194377 -411.379211 
L 281.376052 -420.921027 
L 281.664886 -430.462843 
L 281.995166 -440.004659 
L 282.31389 -449.546475 
L 282.582177 -459.088291 
L 282.774687 -468.630108 
L 282.877454 -478.171924 
L 282.884697 -487.71374 
L 282.795372 -497.255556 
L 282.610167 -506.797372 
L 282.329534 -516.339189 
L 281.953134 -525.881005 
L 281.480747 -535.422821 
L 280.914469 -544.964637 
L 280.261725 -554.506453 
L 279.538495 -564.048269 
L 278.772098 -573.590086 
L 278.002904 -583.131902 
L 277.284532 -592.673718 
L 276.68227 -602.215534 
L 276.269747 -611.75735 
L 276.124091 -621.299166 
L 276.320072 -630.840983 
L 276.923844 -640.382799 
L 277.986979 -649.924615 
L 279.54148 -659.466431 
L 281.596342 -669.008247 
L 284.136053 -678.550063 
L 287.121233 -688.09188 
L 290.491352 -697.633696 
L 294.169216 -707.175512 
L 298.066779 -716.717328 
L 302.091622 -726.259144 
L 306.153451 -735.800961 
L 310.169927 -745.342777 
L 314.071294 -754.884593 
L 317.803379 -764.426409 
L 321.328797 -773.968225 
L 324.62637 -783.510041 
L 327.689028 -793.051858 
L 330.520585 -802.593674 
L 333.131926 -812.13549 
L 335.537157 -821.677306 
L 337.750222 -831.219122 
L 339.782392 -840.760938 
L 341.640862 -850.302755 
L 343.32852 -859.844571 
L 344.844765 -869.386387 
L 346.18712 -878.928203 
L 347.35329 -888.470019 
L 348.343282 -898.011835 
L 349.161215 -907.553652 
L 349.81656 -917.095468 
L 350.324624 -926.637284 
L 350.706224 -936.1791 
L 350.986642 -945.720916 
L 351.194012 -955.262733 
L 351.357372 -964.804549 
L 351.504645 -974.346365 
L 351.660774 -983.888181 
L 351.846216 -993.429997 
L 352.07592 -1002.971813 
L 352.358851 -1012.51363 
L 352.698043 -1022.055446 
L 353.091124 -1031.597262 
L 353.531187 -1041.139078 
L 354.007911 -1050.680894 
L 354.508768 -1060.22271 
L 355.020233 -1069.764527 
L 355.528881 -1079.306343 
L 356.022304 -1088.848159 
L 356.489815 -1098.389975 
L 356.922915 -1107.931791 
L 361.440312 -1107.931791 
L 361.440312 -1107.931791 
L 361.873412 -1098.389975 
L 362.340923 -1088.848159 
L 362.834346 -1079.306343 
L 363.342994 -1069.764527 
L 363.85446 -1060.22271 
L 364.355316 -1050.680894 
L 364.83204 -1041.139078 
L 365.272103 -1031.597262 
L 365.665184 -1022.055446 
L 366.004377 -1012.51363 
L 366.287307 -1002.971813 
L 366.517011 -993.429997 
L 366.702453 -983.888181 
L 366.858582 -974.346365 
L 367.005855 -964.804549 
L 367.169215 -955.262733 
L 367.376585 -945.720916 
L 367.657003 -936.1791 
L 368.038603 -926.637284 
L 368.546667 -917.095468 
L 369.202013 -907.553652 
L 370.019945 -898.011835 
L 371.009937 -888.470019 
L 372.176108 -878.928203 
L 373.518463 -869.386387 
L 375.034707 -859.844571 
L 376.722365 -850.302755 
L 378.580835 -840.760938 
L 380.613005 -831.219122 
L 382.82607 -821.677306 
L 385.231301 -812.13549 
L 387.842643 -802.593674 
L 390.674199 -793.051858 
L 393.736857 -783.510041 
L 397.03443 -773.968225 
L 400.559848 -764.426409 
L 404.291933 -754.884593 
L 408.1933 -745.342777 
L 412.209776 -735.800961 
L 416.271605 -726.259144 
L 420.296448 -716.717328 
L 424.194011 -707.175512 
L 427.871876 -697.633696 
L 431.241994 -688.09188 
L 434.227175 -678.550063 
L 436.766885 -669.008247 
L 438.821747 -659.466431 
L 440.376249 -649.924615 
L 441.439383 -640.382799 
L 442.043155 -630.840983 
L 442.239136 -621.299166 
L 442.09348 -611.75735 
L 441.680957 -602.215534 
L 441.078696 -592.673718 
L 440.360323 -583.131902 
L 439.591129 -573.590086 
L 438.824732 -564.048269 
L 438.101503 -554.506453 
L 437.448758 -544.964637 
L 436.882481 -535.422821 
L 436.410093 -525.881005 
L 436.033693 -516.339189 
L 435.75306 -506.797372 
L 435.567855 -497.255556 
L 435.47853 -487.71374 
L 435.485773 -478.171924 
L 435.58854 -468.630108 
L 435.781051 -459.088291 
L 436.049337 -449.546475 
L 436.368061 -440.004659 
L 436.698341 -430.462843 
L 436.987175 -420.921027 
L 437.16885 -411.379211 
L 437.16837 -401.837394 
L 436.906636 -392.295578 
L 436.306812 -382.753762 
L 435.301097 -373.211946 
L 433.837068 -363.67013 
L 431.882788 -354.128314 
L 429.430079 -344.586497 
L 426.495609 -335.044681 
L 423.119734 -325.502865 
L 419.363356 -315.961049 
L 415.303237 -306.419233 
L 411.026397 -296.877416 
L 406.624241 -287.3356 
L 402.187003 -277.793784 
L 397.798995 -268.251968 
L 393.534956 -258.710152 
L 389.457651 -249.168336 
L 385.616671 -239.626519 
L 382.048308 -230.084703 
L 378.776252 -220.542887 
L 375.812875 -211.001071 
L 373.16083 -201.459255 
L 370.814775 -191.917439 
L 368.763048 -182.375622 
L 366.989208 -172.833806 
L 365.47339 -163.29199 
z
" id="m4e41ad3b2c" style="stroke:#4c4c4c;stroke-width:5;"/>
    </defs>
    <g clip-path="url(#p7b3ac232a3)">
     <use style="fill:#5875a4;stroke:#4c4c4c;stroke-width:5;" x="0" xlink:href="#m4e41ad3b2c" y="1296"/>
    </g>
   </g>
   <g id="PolyCollection_2">
    <defs>
     <path d="M 1076.497738 -192.95053 
L 837.328768 -192.95053 
L 817.810709 -198.696824 
L 798.279686 -204.443117 
L 779.48259 -210.189411 
L 762.178667 -215.935705 
L 747.074917 -221.681998 
L 734.763538 -227.428292 
L 725.669917 -233.174585 
L 720.018417 -238.920879 
L 717.820597 -244.667173 
L 718.887047 -250.413466 
L 722.860317 -256.15976 
L 729.263292 -261.906053 
L 737.555278 -267.652347 
L 747.18751 -273.39864 
L 757.650682 -279.144934 
L 768.509181 -284.891228 
L 779.419497 -290.637521 
L 790.133158 -296.383815 
L 800.486946 -302.130108 
L 810.384734 -307.876402 
L 819.775857 -313.622696 
L 828.634523 -319.368989 
L 836.943671 -325.115283 
L 844.685148 -330.861576 
L 851.836503 -336.60787 
L 858.373371 -342.354164 
L 864.275504 -348.100457 
L 869.534165 -353.846751 
L 874.158688 -359.593044 
L 878.180578 -365.339338 
L 881.654217 -371.085631 
L 884.654086 -376.831925 
L 887.269082 -382.578219 
L 889.594976 -388.324512 
L 891.726301 -394.070806 
L 893.748828 -399.817099 
L 895.733585 -405.563393 
L 897.732934 -411.309687 
L 899.778852 -417.05598 
L 901.883227 -422.802274 
L 904.039781 -428.548567 
L 906.227163 -434.294861 
L 908.412794 -440.041155 
L 910.557141 -445.787448 
L 912.618198 -451.533742 
L 914.555977 -457.280035 
L 916.336815 -463.026329 
L 917.937223 -468.772622 
L 919.346938 -474.518916 
L 920.5708 -480.26521 
L 921.629111 -486.011503 
L 922.55626 -491.757797 
L 923.397651 -497.50409 
L 924.205173 -503.250384 
L 925.031778 -508.996678 
L 925.925837 -514.742971 
L 926.926086 -520.489265 
L 928.05782 -526.235558 
L 929.330874 -531.981852 
L 930.73955 -537.728145 
L 932.264412 -543.474439 
L 933.875502 -549.220733 
L 935.536381 -554.967026 
L 937.208312 -560.71332 
L 938.853944 -566.459613 
L 940.440052 -572.205907 
L 941.939124 -577.952201 
L 943.329828 -583.698494 
L 944.596615 -589.444788 
L 945.728831 -595.191081 
L 946.719748 -600.937375 
L 947.565819 -606.683669 
L 948.266366 -612.429962 
L 948.823697 -618.176256 
L 949.243526 -623.922549 
L 949.535467 -629.668843 
L 949.713333 -635.415136 
L 949.795041 -641.16143 
L 949.801999 -646.907724 
L 949.758001 -652.654017 
L 949.687737 -658.400311 
L 949.615156 -664.146604 
L 949.561901 -669.892898 
L 949.546039 -675.639192 
L 949.581242 -681.385485 
L 949.676458 -687.131779 
L 949.836048 -692.878072 
L 950.060278 -698.624366 
L 950.346013 -704.37066 
L 950.687473 -710.116953 
L 951.076936 -715.863247 
L 951.505325 -721.60954 
L 951.962668 -727.355834 
L 952.438467 -733.102127 
L 952.922026 -738.848421 
L 953.402779 -744.594715 
L 953.87066 -750.341008 
L 954.316501 -756.087302 
L 954.732431 -761.833595 
L 959.094075 -761.833595 
L 959.094075 -761.833595 
L 959.510005 -756.087302 
L 959.955846 -750.341008 
L 960.423727 -744.594715 
L 960.90448 -738.848421 
L 961.388039 -733.102127 
L 961.863839 -727.355834 
L 962.321182 -721.60954 
L 962.74957 -715.863247 
L 963.139033 -710.116953 
L 963.480493 -704.37066 
L 963.766228 -698.624366 
L 963.990458 -692.878072 
L 964.150048 -687.131779 
L 964.245264 -681.385485 
L 964.280467 -675.639192 
L 964.264606 -669.892898 
L 964.21135 -664.146604 
L 964.13877 -658.400311 
L 964.068506 -652.654017 
L 964.024507 -646.907724 
L 964.031466 -641.16143 
L 964.113173 -635.415136 
L 964.291039 -629.668843 
L 964.58298 -623.922549 
L 965.00281 -618.176256 
L 965.56014 -612.429962 
L 966.260688 -606.683669 
L 967.106758 -600.937375 
L 968.097675 -595.191081 
L 969.229891 -589.444788 
L 970.496678 -583.698494 
L 971.887382 -577.952201 
L 973.386455 -572.205907 
L 974.972563 -566.459613 
L 976.618194 -560.71332 
L 978.290126 -554.967026 
L 979.951005 -549.220733 
L 981.562094 -543.474439 
L 983.086956 -537.728145 
L 984.495633 -531.981852 
L 985.768686 -526.235558 
L 986.900421 -520.489265 
L 987.900669 -514.742971 
L 988.794729 -508.996678 
L 989.621333 -503.250384 
L 990.428856 -497.50409 
L 991.270246 -491.757797 
L 992.197396 -486.011503 
L 993.255706 -480.26521 
L 994.479569 -474.518916 
L 995.889283 -468.772622 
L 997.489691 -463.026329 
L 999.270529 -457.280035 
L 1001.208309 -451.533742 
L 1003.269366 -445.787448 
L 1005.413713 -440.041155 
L 1007.599343 -434.294861 
L 1009.786725 -428.548567 
L 1011.94328 -422.802274 
L 1014.047654 -417.05598 
L 1016.093572 -411.309687 
L 1018.092921 -405.563393 
L 1020.077679 -399.817099 
L 1022.100206 -394.070806 
L 1024.23153 -388.324512 
L 1026.557425 -382.578219 
L 1029.17242 -376.831925 
L 1032.17229 -371.085631 
L 1035.645929 -365.339338 
L 1039.667818 -359.593044 
L 1044.292342 -353.846751 
L 1049.551002 -348.100457 
L 1055.453136 -342.354164 
L 1061.990003 -336.60787 
L 1069.141358 -330.861576 
L 1076.882835 -325.115283 
L 1085.191983 -319.368989 
L 1094.050649 -313.622696 
L 1103.441772 -307.876402 
L 1113.339561 -302.130108 
L 1123.693349 -296.383815 
L 1134.40701 -290.637521 
L 1145.317326 -284.891228 
L 1156.175824 -279.144934 
L 1166.638996 -273.39864 
L 1176.271228 -267.652347 
L 1184.563214 -261.906053 
L 1190.96619 -256.15976 
L 1194.93946 -250.413466 
L 1196.005909 -244.667173 
L 1193.808089 -238.920879 
L 1188.156589 -233.174585 
L 1179.062968 -227.428292 
L 1166.751589 -221.681998 
L 1151.647839 -215.935705 
L 1134.343916 -210.189411 
L 1115.54682 -204.443117 
L 1096.015797 -198.696824 
L 1076.497738 -192.95053 
z
" id="ma8d96c5f78" style="stroke:#4c4c4c;stroke-width:5;"/>
    </defs>
    <g clip-path="url(#p7b3ac232a3)">
     <use style="fill:#cc8963;stroke:#4c4c4c;stroke-width:5;" x="0" xlink:href="#ma8d96c5f78" y="1296"/>
    </g>
   </g>
   <g id="line2d_7">
    <path clip-path="url(#p7b3ac232a3)" d="M 359.181614 1064.302776 
L 359.181614 256.473443 
" style="fill:none;stroke:#4c4c4c;stroke-linecap:round;stroke-width:5;"/>
   </g>
   <g id="line2d_8">
    <path clip-path="url(#p7b3ac232a3)" d="M 359.181614 902.019901 
L 359.181614 641.745894 
" style="fill:none;stroke:#4c4c4c;stroke-linecap:round;stroke-width:15;"/>
   </g>
   <g id="line2d_9">
    <path clip-path="url(#p7b3ac232a3)" d="M 956.913253 1064.302776 
L 956.913253 754.555197 
" style="fill:none;stroke:#4c4c4c;stroke-linecap:round;stroke-width:5;"/>
   </g>
   <g id="line2d_10">
    <path clip-path="url(#p7b3ac232a3)" d="M 956.913253 1064.302776 
L 956.913253 938.587323 
" style="fill:none;stroke:#4c4c4c;stroke-linecap:round;stroke-width:15;"/>
   </g>
   <g id="line2d_11">
    <path clip-path="url(#p7b3ac232a3)" d="M 359.181614 194.127216 
L 359.181614 173.345141 
L 956.913253 173.345141 
L 956.913253 194.127216 
" style="fill:none;stroke:#333333;stroke-linecap:round;stroke-width:1.5;"/>
   </g>
   <g id="patch_3">
    <path d="M 230.13 1179.94 
L 230.13 96.12 
" style="fill:none;stroke:#cccccc;stroke-linecap:square;stroke-linejoin:miter;stroke-width:2.5;"/>
   </g>
   <g id="patch_4">
    <path d="M 1242 1179.94 
L 1242 96.12 
" style="fill:none;stroke:#cccccc;stroke-linecap:square;stroke-linejoin:miter;stroke-width:2.5;"/>
   </g>
   <g id="patch_5">
    <path d="M 230.13 1179.94 
L 1242 1179.94 
" style="fill:none;stroke:#cccccc;stroke-linecap:square;stroke-linejoin:miter;stroke-width:2.5;"/>
   </g>
   <g id="patch_6">
    <path d="M 230.13 96.12 
L 1242 96.12 
" style="fill:none;stroke:#cccccc;stroke-linecap:square;stroke-linejoin:miter;stroke-width:2.5;"/>
   </g>
   <g id="PathCollection_1">
    <defs>
     <path d="M 0 5 
C 1.326016 5 2.597899 4.473168 3.535534 3.535534 
C 4.473168 2.597899 5 1.326016 5 0 
C 5 -1.326016 4.473168 -2.597899 3.535534 -3.535534 
C 2.597899 -4.473168 1.326016 -5 0 -5 
C -1.326016 -5 -2.597899 -4.473168 -3.535534 -3.535534 
C -4.473168 -2.597899 -5 -1.326016 -5 0 
C -5 1.326016 -4.473168 2.597899 -3.535534 3.535534 
C -2.597899 4.473168 -1.326016 5 0 5 
z
" id="m34c63502c1" style="stroke:#4c4c4c;stroke-width:2;"/>
    </defs>
    <g clip-path="url(#p7b3ac232a3)">
     <use style="fill:#ffffff;stroke:#4c4c4c;stroke-width:2;" x="359.181614" xlink:href="#m34c63502c1" y="765.071319"/>
    </g>
   </g>
   <g id="PathCollection_2">
    <g clip-path="url(#p7b3ac232a3)">
     <use style="fill:#ffffff;stroke:#4c4c4c;stroke-width:2;" x="956.913253" xlink:href="#m34c63502c1" y="1023.672306"/>
    </g>
   </g>
   <g id="text_10">
    <!-- **** -->
    <g transform="translate(619.125558 162.407641)scale(0.5 -0.5)">
     <defs>
      <path d="M 3.125 58.453125 
L 5.375 65.375 
Q 13.140625 62.640625 16.65625 60.640625 
Q 15.71875 69.484375 15.671875 72.796875 
L 22.75 72.796875 
Q 22.609375 67.96875 21.625 60.6875 
Q 26.65625 63.234375 33.15625 65.375 
L 35.40625 58.453125 
Q 29.203125 56.390625 23.25 55.71875 
Q 26.21875 53.125 31.640625 46.484375 
L 25.78125 42.328125 
Q 22.953125 46.1875 19.09375 52.828125 
Q 15.484375 45.953125 12.75 42.328125 
L 6.984375 46.484375 
Q 12.640625 53.46875 15.09375 55.71875 
Q 8.796875 56.9375 3.125 58.453125 
z
" id="ArialMT-42"/>
     </defs>
     <use xlink:href="#ArialMT-42"/>
     <use x="38.916016" xlink:href="#ArialMT-42"/>
     <use x="77.832031" xlink:href="#ArialMT-42"/>
     <use x="116.748047" xlink:href="#ArialMT-42"/>
    </g>
   </g>
   <g id="text_11">
    <!-- Actinomyces spp. (K.W. p=7.62e-25) -->
    <g transform="translate(329.647031 90.12)scale(0.5 -0.5)">
     <defs>
      <path d="M 6.59375 0 
L 6.59375 51.859375 
L 14.453125 51.859375 
L 14.453125 44.578125 
Q 16.890625 48.390625 20.9375 50.703125 
Q 25 53.03125 30.171875 53.03125 
Q 35.9375 53.03125 39.625 50.640625 
Q 43.3125 48.25 44.828125 43.953125 
Q 50.984375 53.03125 60.84375 53.03125 
Q 68.5625 53.03125 72.703125 48.75 
Q 76.859375 44.484375 76.859375 35.59375 
L 76.859375 0 
L 68.109375 0 
L 68.109375 32.671875 
Q 68.109375 37.9375 67.25 40.25 
Q 66.40625 42.578125 64.15625 43.984375 
Q 61.921875 45.40625 58.890625 45.40625 
Q 53.421875 45.40625 49.796875 41.765625 
Q 46.1875 38.140625 46.1875 30.125 
L 46.1875 0 
L 37.40625 0 
L 37.40625 33.6875 
Q 37.40625 39.546875 35.25 42.46875 
Q 33.109375 45.40625 28.21875 45.40625 
Q 24.515625 45.40625 21.359375 43.453125 
Q 18.21875 41.5 16.796875 37.734375 
Q 15.375 33.984375 15.375 26.90625 
L 15.375 0 
z
" id="ArialMT-109"/>
      <path d="M 3.078125 15.484375 
L 11.765625 16.84375 
Q 12.5 11.625 15.84375 8.84375 
Q 19.1875 6.0625 25.203125 6.0625 
Q 31.25 6.0625 34.171875 8.515625 
Q 37.109375 10.984375 37.109375 14.3125 
Q 37.109375 17.28125 34.515625 19 
Q 32.71875 20.171875 25.53125 21.96875 
Q 15.875 24.421875 12.140625 26.203125 
Q 8.40625 27.984375 6.46875 31.125 
Q 4.546875 34.28125 4.546875 38.09375 
Q 4.546875 41.546875 6.125 44.5 
Q 7.71875 47.46875 10.453125 49.421875 
Q 12.5 50.921875 16.03125 51.96875 
Q 19.578125 53.03125 23.640625 53.03125 
Q 29.734375 53.03125 34.34375 51.265625 
Q 38.96875 49.515625 41.15625 46.5 
Q 43.359375 43.5 44.1875 38.484375 
L 35.59375 37.3125 
Q 35.015625 41.3125 32.203125 43.546875 
Q 29.390625 45.796875 24.265625 45.796875 
Q 18.21875 45.796875 15.625 43.796875 
Q 13.03125 41.796875 13.03125 39.109375 
Q 13.03125 37.40625 14.109375 36.03125 
Q 15.1875 34.625 17.484375 33.6875 
Q 18.796875 33.203125 25.25 31.453125 
Q 34.578125 28.953125 38.25 27.359375 
Q 41.9375 25.78125 44.03125 22.75 
Q 46.140625 19.734375 46.140625 15.234375 
Q 46.140625 10.84375 43.578125 6.953125 
Q 41.015625 3.078125 36.171875 0.953125 
Q 31.34375 -1.171875 25.25 -1.171875 
Q 15.140625 -1.171875 9.84375 3.03125 
Q 4.546875 7.234375 3.078125 15.484375 
z
" id="ArialMT-115"/>
      <path id="ArialMT-32"/>
      <path d="M 6.59375 -19.875 
L 6.59375 51.859375 
L 14.59375 51.859375 
L 14.59375 45.125 
Q 17.4375 49.078125 21 51.046875 
Q 24.5625 53.03125 29.640625 53.03125 
Q 36.28125 53.03125 41.359375 49.609375 
Q 46.4375 46.1875 49.015625 39.953125 
Q 51.609375 33.734375 51.609375 26.3125 
Q 51.609375 18.359375 48.75 11.984375 
Q 45.90625 5.609375 40.453125 2.21875 
Q 35.015625 -1.171875 29 -1.171875 
Q 24.609375 -1.171875 21.109375 0.6875 
Q 17.625 2.546875 15.375 5.375 
L 15.375 -19.875 
z
M 14.546875 25.640625 
Q 14.546875 15.625 18.59375 10.84375 
Q 22.65625 6.0625 28.421875 6.0625 
Q 34.28125 6.0625 38.453125 11.015625 
Q 42.625 15.96875 42.625 26.375 
Q 42.625 36.28125 38.546875 41.203125 
Q 34.46875 46.140625 28.8125 46.140625 
Q 23.1875 46.140625 18.859375 40.890625 
Q 14.546875 35.640625 14.546875 25.640625 
z
" id="ArialMT-112"/>
      <path d="M 9.078125 0 
L 9.078125 10.015625 
L 19.09375 10.015625 
L 19.09375 0 
z
" id="ArialMT-46"/>
      <path d="M 23.390625 -21.046875 
Q 16.109375 -11.859375 11.078125 0.4375 
Q 6.0625 12.75 6.0625 25.921875 
Q 6.0625 37.546875 9.8125 48.1875 
Q 14.203125 60.546875 23.390625 72.796875 
L 29.6875 72.796875 
Q 23.78125 62.640625 21.875 58.296875 
Q 18.890625 51.5625 17.1875 44.234375 
Q 15.09375 35.109375 15.09375 25.875 
Q 15.09375 2.390625 29.6875 -21.046875 
z
" id="ArialMT-40"/>
      <path d="M 7.328125 0 
L 7.328125 71.578125 
L 16.796875 71.578125 
L 16.796875 36.078125 
L 52.34375 71.578125 
L 65.1875 71.578125 
L 35.15625 42.578125 
L 66.5 0 
L 54 0 
L 28.515625 36.234375 
L 16.796875 24.8125 
L 16.796875 0 
z
" id="ArialMT-75"/>
      <path d="M 20.21875 0 
L 1.21875 71.578125 
L 10.9375 71.578125 
L 21.828125 24.65625 
Q 23.578125 17.28125 24.859375 10.015625 
Q 27.59375 21.484375 28.078125 23.25 
L 41.703125 71.578125 
L 53.125 71.578125 
L 63.375 35.359375 
Q 67.234375 21.875 68.953125 10.015625 
Q 70.3125 16.796875 72.515625 25.59375 
L 83.734375 71.578125 
L 93.265625 71.578125 
L 73.640625 0 
L 64.5 0 
L 49.421875 54.546875 
Q 47.515625 61.375 47.171875 62.9375 
Q 46.046875 58.015625 45.0625 54.546875 
L 29.890625 0 
z
" id="ArialMT-87"/>
      <path d="M 52.828125 42.09375 
L 5.5625 42.09375 
L 5.5625 50.296875 
L 52.828125 50.296875 
z
M 52.828125 20.359375 
L 5.5625 20.359375 
L 5.5625 28.5625 
L 52.828125 28.5625 
z
" id="ArialMT-61"/>
      <path d="M 4.734375 62.203125 
L 4.734375 70.65625 
L 51.078125 70.65625 
L 51.078125 63.8125 
Q 44.234375 56.546875 37.515625 44.484375 
Q 30.8125 32.421875 27.15625 19.671875 
Q 24.515625 10.6875 23.78125 0 
L 14.75 0 
Q 14.890625 8.453125 18.0625 20.40625 
Q 21.234375 32.375 27.171875 43.484375 
Q 33.109375 54.59375 39.796875 62.203125 
z
" id="ArialMT-55"/>
      <path d="M 3.171875 21.484375 
L 3.171875 30.328125 
L 30.171875 30.328125 
L 30.171875 21.484375 
z
" id="ArialMT-45"/>
      <path d="M 4.15625 18.75 
L 13.375 19.53125 
Q 14.40625 12.796875 18.140625 9.390625 
Q 21.875 6 27.15625 6 
Q 33.5 6 37.890625 10.78125 
Q 42.28125 15.578125 42.28125 23.484375 
Q 42.28125 31 38.0625 35.34375 
Q 33.84375 39.703125 27 39.703125 
Q 22.75 39.703125 19.328125 37.765625 
Q 15.921875 35.84375 13.96875 32.765625 
L 5.71875 33.84375 
L 12.640625 70.609375 
L 48.25 70.609375 
L 48.25 62.203125 
L 19.671875 62.203125 
L 15.828125 42.96875 
Q 22.265625 47.46875 29.34375 47.46875 
Q 38.71875 47.46875 45.15625 40.96875 
Q 51.609375 34.46875 51.609375 24.265625 
Q 51.609375 14.546875 45.953125 7.46875 
Q 39.0625 -1.21875 27.15625 -1.21875 
Q 17.390625 -1.21875 11.203125 4.25 
Q 5.03125 9.71875 4.15625 18.75 
z
" id="ArialMT-53"/>
      <path d="M 12.359375 -21.046875 
L 6.0625 -21.046875 
Q 20.65625 2.390625 20.65625 25.875 
Q 20.65625 35.0625 18.5625 44.09375 
Q 16.890625 51.421875 13.921875 58.15625 
Q 12.015625 62.546875 6.0625 72.796875 
L 12.359375 72.796875 
Q 21.53125 60.546875 25.921875 48.1875 
Q 29.6875 37.546875 29.6875 25.921875 
Q 29.6875 12.75 24.625 0.4375 
Q 19.578125 -11.859375 12.359375 -21.046875 
z
" id="ArialMT-41"/>
     </defs>
     <use xlink:href="#ArialMT-65"/>
     <use x="66.699219" xlink:href="#ArialMT-99"/>
     <use x="116.699219" xlink:href="#ArialMT-116"/>
     <use x="144.482422" xlink:href="#ArialMT-105"/>
     <use x="166.699219" xlink:href="#ArialMT-110"/>
     <use x="222.314453" xlink:href="#ArialMT-111"/>
     <use x="277.929688" xlink:href="#ArialMT-109"/>
     <use x="361.230469" xlink:href="#ArialMT-121"/>
     <use x="411.230469" xlink:href="#ArialMT-99"/>
     <use x="461.230469" xlink:href="#ArialMT-101"/>
     <use x="516.845703" xlink:href="#ArialMT-115"/>
     <use x="566.845703" xlink:href="#ArialMT-32"/>
     <use x="594.628906" xlink:href="#ArialMT-115"/>
     <use x="644.628906" xlink:href="#ArialMT-112"/>
     <use x="700.244141" xlink:href="#ArialMT-112"/>
     <use x="755.859375" xlink:href="#ArialMT-46"/>
     <use x="783.642578" xlink:href="#ArialMT-32"/>
     <use x="811.425781" xlink:href="#ArialMT-40"/>
     <use x="844.726562" xlink:href="#ArialMT-75"/>
     <use x="911.425781" xlink:href="#ArialMT-46"/>
     <use x="939.208984" xlink:href="#ArialMT-87"/>
     <use x="1028.09375" xlink:href="#ArialMT-46"/>
     <use x="1055.876953" xlink:href="#ArialMT-32"/>
     <use x="1083.660156" xlink:href="#ArialMT-112"/>
     <use x="1139.275391" xlink:href="#ArialMT-61"/>
     <use x="1197.673828" xlink:href="#ArialMT-55"/>
     <use x="1253.289062" xlink:href="#ArialMT-46"/>
     <use x="1281.072266" xlink:href="#ArialMT-54"/>
     <use x="1336.6875" xlink:href="#ArialMT-50"/>
     <use x="1392.302734" xlink:href="#ArialMT-101"/>
     <use x="1447.917969" xlink:href="#ArialMT-45"/>
     <use x="1481.21875" xlink:href="#ArialMT-50"/>
     <use x="1536.833984" xlink:href="#ArialMT-53"/>
     <use x="1592.449219" xlink:href="#ArialMT-41"/>
    </g>
   </g>
  </g>
 </g>
 <defs>
  <clipPath id="p7b3ac232a3">
   <rect height="1083.82" width="1011.87" x="230.13" y="96.12"/>
  </clipPath>
 </defs>
</svg>
