<?xml version="1.0" encoding="utf-8" standalone="no"?>
<!DOCTYPE svg PUBLIC "-//W3C//DTD SVG 1.1//EN"
  "http://www.w3.org/Graphics/SVG/1.1/DTD/svg11.dtd">
<!-- Created with matplotlib (https://matplotlib.org/) -->
<svg height="1296pt" version="1.1" viewBox="0 0 1296 1296" width="1296pt" xmlns="http://www.w3.org/2000/svg" xmlns:xlink="http://www.w3.org/1999/xlink">
 <metadata>
  <rdf:RDF xmlns:cc="http://creativecommons.org/ns#" xmlns:dc="http://purl.org/dc/elements/1.1/" xmlns:rdf="http://www.w3.org/1999/02/22-rdf-syntax-ns#">
   <cc:Work>
    <dc:type rdf:resource="http://purl.org/dc/dcmitype/StillImage"/>
    <dc:date>2022-06-29T14:10:24.191624</dc:date>
    <dc:format>image/svg+xml</dc:format>
    <dc:creator>
     <cc:Agent>
      <dc:title>Matplotlib v3.3.3, https://matplotlib.org/</dc:title>
     </cc:Agent>
    </dc:creator>
   </cc:Work>
  </rdf:RDF>
 </metadata>
 <defs>
  <style type="text/css">*{stroke-linecap:butt;stroke-linejoin:round;}</style>
 </defs>
 <g id="figure_1">
  <g id="patch_1">
   <path d="M 0 1296 
L 1296 1296 
L 1296 0 
L 0 0 
z
" style="fill:#ffffff;"/>
  </g>
  <g id="axes_1">
   <g id="patch_2">
    <path d="M 230.13 1179.94 
L 1097.002341 1179.94 
L 1097.002341 96.12 
L 230.13 96.12 
z
" style="fill:#ffffff;"/>
   </g>
   <g id="matplotlib.axis_1">
    <g id="xtick_1">
     <g id="text_1">
      <!-- Healthy -->
      <g style="fill:#262626;" transform="translate(388.731711 1231.229063)scale(0.5 -0.5)">
       <defs>
        <path d="M 8.015625 0 
L 8.015625 71.578125 
L 17.484375 71.578125 
L 17.484375 42.1875 
L 54.6875 42.1875 
L 54.6875 71.578125 
L 64.15625 71.578125 
L 64.15625 0 
L 54.6875 0 
L 54.6875 33.734375 
L 17.484375 33.734375 
L 17.484375 0 
z
" id="ArialMT-72"/>
        <path d="M 42.09375 16.703125 
L 51.171875 15.578125 
Q 49.03125 7.625 43.21875 3.21875 
Q 37.40625 -1.171875 28.375 -1.171875 
Q 17 -1.171875 10.328125 5.828125 
Q 3.65625 12.84375 3.65625 25.484375 
Q 3.65625 38.578125 10.390625 45.796875 
Q 17.140625 53.03125 27.875 53.03125 
Q 38.28125 53.03125 44.875 45.953125 
Q 51.46875 38.875 51.46875 26.03125 
Q 51.46875 25.25 51.421875 23.6875 
L 12.75 23.6875 
Q 13.234375 15.140625 17.578125 10.59375 
Q 21.921875 6.0625 28.421875 6.0625 
Q 33.25 6.0625 36.671875 8.59375 
Q 40.09375 11.140625 42.09375 16.703125 
z
M 13.234375 30.90625 
L 42.1875 30.90625 
Q 41.609375 37.453125 38.875 40.71875 
Q 34.671875 45.796875 27.984375 45.796875 
Q 21.921875 45.796875 17.796875 41.75 
Q 13.671875 37.703125 13.234375 30.90625 
z
" id="ArialMT-101"/>
        <path d="M 40.4375 6.390625 
Q 35.546875 2.25 31.03125 0.53125 
Q 26.515625 -1.171875 21.34375 -1.171875 
Q 12.796875 -1.171875 8.203125 3 
Q 3.609375 7.171875 3.609375 13.671875 
Q 3.609375 17.484375 5.34375 20.625 
Q 7.078125 23.78125 9.890625 25.6875 
Q 12.703125 27.59375 16.21875 28.5625 
Q 18.796875 29.25 24.03125 29.890625 
Q 34.671875 31.15625 39.703125 32.90625 
Q 39.75 34.71875 39.75 35.203125 
Q 39.75 40.578125 37.25 42.78125 
Q 33.890625 45.75 27.25 45.75 
Q 21.046875 45.75 18.09375 43.578125 
Q 15.140625 41.40625 13.71875 35.890625 
L 5.125 37.0625 
Q 6.296875 42.578125 8.984375 45.96875 
Q 11.671875 49.359375 16.75 51.1875 
Q 21.828125 53.03125 28.515625 53.03125 
Q 35.15625 53.03125 39.296875 51.46875 
Q 43.453125 49.90625 45.40625 47.53125 
Q 47.359375 45.171875 48.140625 41.546875 
Q 48.578125 39.3125 48.578125 33.453125 
L 48.578125 21.734375 
Q 48.578125 9.46875 49.140625 6.21875 
Q 49.703125 2.984375 51.375 0 
L 42.1875 0 
Q 40.828125 2.734375 40.4375 6.390625 
z
M 39.703125 26.03125 
Q 34.90625 24.078125 25.34375 22.703125 
Q 19.921875 21.921875 17.671875 20.9375 
Q 15.4375 19.96875 14.203125 18.09375 
Q 12.984375 16.21875 12.984375 13.921875 
Q 12.984375 10.40625 15.640625 8.0625 
Q 18.3125 5.71875 23.4375 5.71875 
Q 28.515625 5.71875 32.46875 7.9375 
Q 36.421875 10.15625 38.28125 14.015625 
Q 39.703125 17 39.703125 22.796875 
z
" id="ArialMT-97"/>
        <path d="M 6.390625 0 
L 6.390625 71.578125 
L 15.1875 71.578125 
L 15.1875 0 
z
" id="ArialMT-108"/>
        <path d="M 25.78125 7.859375 
L 27.046875 0.09375 
Q 23.34375 -0.6875 20.40625 -0.6875 
Q 15.625 -0.6875 12.984375 0.828125 
Q 10.359375 2.34375 9.28125 4.8125 
Q 8.203125 7.28125 8.203125 15.1875 
L 8.203125 45.015625 
L 1.765625 45.015625 
L 1.765625 51.859375 
L 8.203125 51.859375 
L 8.203125 64.703125 
L 16.9375 69.96875 
L 16.9375 51.859375 
L 25.78125 51.859375 
L 25.78125 45.015625 
L 16.9375 45.015625 
L 16.9375 14.703125 
Q 16.9375 10.9375 17.40625 9.859375 
Q 17.875 8.796875 18.921875 8.15625 
Q 19.96875 7.515625 21.921875 7.515625 
Q 23.390625 7.515625 25.78125 7.859375 
z
" id="ArialMT-116"/>
        <path d="M 6.59375 0 
L 6.59375 71.578125 
L 15.375 71.578125 
L 15.375 45.90625 
Q 21.53125 53.03125 30.90625 53.03125 
Q 36.671875 53.03125 40.921875 50.75 
Q 45.171875 48.484375 47 44.484375 
Q 48.828125 40.484375 48.828125 32.859375 
L 48.828125 0 
L 40.046875 0 
L 40.046875 32.859375 
Q 40.046875 39.453125 37.1875 42.453125 
Q 34.328125 45.453125 29.109375 45.453125 
Q 25.203125 45.453125 21.75 43.421875 
Q 18.3125 41.40625 16.84375 37.9375 
Q 15.375 34.46875 15.375 28.375 
L 15.375 0 
z
" id="ArialMT-104"/>
        <path d="M 6.203125 -19.96875 
L 5.21875 -11.71875 
Q 8.109375 -12.5 10.25 -12.5 
Q 13.1875 -12.5 14.9375 -11.515625 
Q 16.703125 -10.546875 17.828125 -8.796875 
Q 18.65625 -7.46875 20.515625 -2.25 
Q 20.75 -1.515625 21.296875 -0.09375 
L 1.609375 51.859375 
L 11.078125 51.859375 
L 21.875 21.828125 
Q 23.96875 16.109375 25.640625 9.8125 
Q 27.15625 15.875 29.25 21.625 
L 40.328125 51.859375 
L 49.125 51.859375 
L 29.390625 -0.875 
Q 26.21875 -9.421875 24.46875 -12.640625 
Q 22.125 -17 19.09375 -19.015625 
Q 16.0625 -21.046875 11.859375 -21.046875 
Q 9.328125 -21.046875 6.203125 -19.96875 
z
" id="ArialMT-121"/>
       </defs>
       <use xlink:href="#ArialMT-72"/>
       <use x="72.216797" xlink:href="#ArialMT-101"/>
       <use x="127.832031" xlink:href="#ArialMT-97"/>
       <use x="183.447266" xlink:href="#ArialMT-108"/>
       <use x="205.664062" xlink:href="#ArialMT-116"/>
       <use x="233.447266" xlink:href="#ArialMT-104"/>
       <use x="289.0625" xlink:href="#ArialMT-121"/>
      </g>
     </g>
    </g>
    <g id="xtick_2">
     <g id="text_2">
      <!-- Slight+Moderate+Severe -->
      <g style="fill:#262626;" transform="translate(706.843002 1231.838438)scale(0.5 -0.5)">
       <defs>
        <path d="M 4.5 23 
L 13.421875 23.78125 
Q 14.0625 18.40625 16.375 14.96875 
Q 18.703125 11.53125 23.578125 9.40625 
Q 28.46875 7.28125 34.578125 7.28125 
Q 39.984375 7.28125 44.140625 8.890625 
Q 48.296875 10.5 50.3125 13.296875 
Q 52.34375 16.109375 52.34375 19.4375 
Q 52.34375 22.796875 50.390625 25.3125 
Q 48.4375 27.828125 43.953125 29.546875 
Q 41.0625 30.671875 31.203125 33.03125 
Q 21.34375 35.40625 17.390625 37.5 
Q 12.25 40.1875 9.734375 44.15625 
Q 7.234375 48.140625 7.234375 53.078125 
Q 7.234375 58.5 10.296875 63.203125 
Q 13.375 67.921875 19.28125 70.359375 
Q 25.203125 72.796875 32.421875 72.796875 
Q 40.375 72.796875 46.453125 70.234375 
Q 52.546875 67.671875 55.8125 62.6875 
Q 59.078125 57.71875 59.328125 51.421875 
L 50.25 50.734375 
Q 49.515625 57.515625 45.28125 60.984375 
Q 41.0625 64.453125 32.8125 64.453125 
Q 24.21875 64.453125 20.28125 61.296875 
Q 16.359375 58.15625 16.359375 53.71875 
Q 16.359375 49.859375 19.140625 47.359375 
Q 21.875 44.875 33.421875 42.265625 
Q 44.96875 39.65625 49.265625 37.703125 
Q 55.515625 34.8125 58.484375 30.390625 
Q 61.46875 25.984375 61.46875 20.21875 
Q 61.46875 14.5 58.203125 9.4375 
Q 54.9375 4.390625 48.796875 1.578125 
Q 42.671875 -1.21875 35.015625 -1.21875 
Q 25.296875 -1.21875 18.71875 1.609375 
Q 12.15625 4.4375 8.421875 10.125 
Q 4.6875 15.828125 4.5 23 
z
" id="ArialMT-83"/>
        <path d="M 6.640625 61.46875 
L 6.640625 71.578125 
L 15.4375 71.578125 
L 15.4375 61.46875 
z
M 6.640625 0 
L 6.640625 51.859375 
L 15.4375 51.859375 
L 15.4375 0 
z
" id="ArialMT-105"/>
        <path d="M 4.984375 -4.296875 
L 13.53125 -5.5625 
Q 14.0625 -9.515625 16.5 -11.328125 
Q 19.78125 -13.765625 25.4375 -13.765625 
Q 31.546875 -13.765625 34.859375 -11.328125 
Q 38.1875 -8.890625 39.359375 -4.5 
Q 40.046875 -1.8125 39.984375 6.78125 
Q 34.234375 0 25.640625 0 
Q 14.9375 0 9.078125 7.71875 
Q 3.21875 15.4375 3.21875 26.21875 
Q 3.21875 33.640625 5.90625 39.90625 
Q 8.59375 46.1875 13.6875 49.609375 
Q 18.796875 53.03125 25.6875 53.03125 
Q 34.859375 53.03125 40.828125 45.609375 
L 40.828125 51.859375 
L 48.921875 51.859375 
L 48.921875 7.03125 
Q 48.921875 -5.078125 46.453125 -10.125 
Q 44 -15.1875 38.640625 -18.109375 
Q 33.296875 -21.046875 25.484375 -21.046875 
Q 16.21875 -21.046875 10.5 -16.875 
Q 4.78125 -12.703125 4.984375 -4.296875 
z
M 12.25 26.859375 
Q 12.25 16.65625 16.296875 11.96875 
Q 20.359375 7.28125 26.46875 7.28125 
Q 32.515625 7.28125 36.609375 11.9375 
Q 40.71875 16.609375 40.71875 26.5625 
Q 40.71875 36.078125 36.5 40.90625 
Q 32.28125 45.75 26.3125 45.75 
Q 20.453125 45.75 16.34375 40.984375 
Q 12.25 36.234375 12.25 26.859375 
z
" id="ArialMT-103"/>
        <path d="M 25.046875 11.578125 
L 25.046875 31.203125 
L 5.5625 31.203125 
L 5.5625 39.40625 
L 25.046875 39.40625 
L 25.046875 58.890625 
L 33.34375 58.890625 
L 33.34375 39.40625 
L 52.828125 39.40625 
L 52.828125 31.203125 
L 33.34375 31.203125 
L 33.34375 11.578125 
z
" id="ArialMT-43"/>
        <path d="M 7.421875 0 
L 7.421875 71.578125 
L 21.6875 71.578125 
L 38.625 20.90625 
Q 40.96875 13.8125 42.046875 10.296875 
Q 43.265625 14.203125 45.84375 21.78125 
L 62.984375 71.578125 
L 75.734375 71.578125 
L 75.734375 0 
L 66.609375 0 
L 66.609375 59.90625 
L 45.796875 0 
L 37.25 0 
L 16.546875 60.9375 
L 16.546875 0 
z
" id="ArialMT-77"/>
        <path d="M 3.328125 25.921875 
Q 3.328125 40.328125 11.328125 47.265625 
Q 18.015625 53.03125 27.640625 53.03125 
Q 38.328125 53.03125 45.109375 46.015625 
Q 51.90625 39.015625 51.90625 26.65625 
Q 51.90625 16.65625 48.90625 10.90625 
Q 45.90625 5.171875 40.15625 2 
Q 34.421875 -1.171875 27.640625 -1.171875 
Q 16.75 -1.171875 10.03125 5.8125 
Q 3.328125 12.796875 3.328125 25.921875 
z
M 12.359375 25.921875 
Q 12.359375 15.96875 16.703125 11.015625 
Q 21.046875 6.0625 27.640625 6.0625 
Q 34.1875 6.0625 38.53125 11.03125 
Q 42.875 16.015625 42.875 26.21875 
Q 42.875 35.84375 38.5 40.796875 
Q 34.125 45.75 27.640625 45.75 
Q 21.046875 45.75 16.703125 40.8125 
Q 12.359375 35.890625 12.359375 25.921875 
z
" id="ArialMT-111"/>
        <path d="M 40.234375 0 
L 40.234375 6.546875 
Q 35.296875 -1.171875 25.734375 -1.171875 
Q 19.53125 -1.171875 14.328125 2.25 
Q 9.125 5.671875 6.265625 11.796875 
Q 3.421875 17.921875 3.421875 25.875 
Q 3.421875 33.640625 6 39.96875 
Q 8.59375 46.296875 13.765625 49.65625 
Q 18.953125 53.03125 25.34375 53.03125 
Q 30.03125 53.03125 33.6875 51.046875 
Q 37.359375 49.078125 39.65625 45.90625 
L 39.65625 71.578125 
L 48.390625 71.578125 
L 48.390625 0 
z
M 12.453125 25.875 
Q 12.453125 15.921875 16.640625 10.984375 
Q 20.84375 6.0625 26.5625 6.0625 
Q 32.328125 6.0625 36.34375 10.765625 
Q 40.375 15.484375 40.375 25.140625 
Q 40.375 35.796875 36.265625 40.765625 
Q 32.171875 45.75 26.171875 45.75 
Q 20.3125 45.75 16.375 40.96875 
Q 12.453125 36.1875 12.453125 25.875 
z
" id="ArialMT-100"/>
        <path d="M 6.5 0 
L 6.5 51.859375 
L 14.40625 51.859375 
L 14.40625 44 
Q 17.4375 49.515625 20 51.265625 
Q 22.5625 53.03125 25.640625 53.03125 
Q 30.078125 53.03125 34.671875 50.203125 
L 31.640625 42.046875 
Q 28.421875 43.953125 25.203125 43.953125 
Q 22.3125 43.953125 20.015625 42.21875 
Q 17.71875 40.484375 16.75 37.40625 
Q 15.28125 32.71875 15.28125 27.15625 
L 15.28125 0 
z
" id="ArialMT-114"/>
        <path d="M 21 0 
L 1.265625 51.859375 
L 10.546875 51.859375 
L 21.6875 20.796875 
Q 23.484375 15.765625 25 10.359375 
Q 26.171875 14.453125 28.265625 20.21875 
L 39.796875 51.859375 
L 48.828125 51.859375 
L 29.203125 0 
z
" id="ArialMT-118"/>
       </defs>
       <use xlink:href="#ArialMT-83"/>
       <use x="66.699219" xlink:href="#ArialMT-108"/>
       <use x="88.916016" xlink:href="#ArialMT-105"/>
       <use x="111.132812" xlink:href="#ArialMT-103"/>
       <use x="166.748047" xlink:href="#ArialMT-104"/>
       <use x="222.363281" xlink:href="#ArialMT-116"/>
       <use x="250.146484" xlink:href="#ArialMT-43"/>
       <use x="308.544922" xlink:href="#ArialMT-77"/>
       <use x="391.845703" xlink:href="#ArialMT-111"/>
       <use x="447.460938" xlink:href="#ArialMT-100"/>
       <use x="503.076172" xlink:href="#ArialMT-101"/>
       <use x="558.691406" xlink:href="#ArialMT-114"/>
       <use x="591.992188" xlink:href="#ArialMT-97"/>
       <use x="647.607422" xlink:href="#ArialMT-116"/>
       <use x="675.390625" xlink:href="#ArialMT-101"/>
       <use x="731.005859" xlink:href="#ArialMT-43"/>
       <use x="789.404297" xlink:href="#ArialMT-83"/>
       <use x="856.103516" xlink:href="#ArialMT-101"/>
       <use x="911.71875" xlink:href="#ArialMT-118"/>
       <use x="961.71875" xlink:href="#ArialMT-101"/>
       <use x="1017.333984" xlink:href="#ArialMT-114"/>
       <use x="1050.634766" xlink:href="#ArialMT-101"/>
      </g>
     </g>
    </g>
   </g>
   <g id="matplotlib.axis_2">
    <g id="ytick_1">
     <g id="line2d_1">
      <path clip-path="url(#p3148dffb90)" d="M 230.13 1085.852677 
L 1097.002341 1085.852677 
" style="fill:none;stroke:#cccccc;stroke-linecap:round;stroke-width:2;"/>
     </g>
     <g id="text_3">
      <!-- 0 -->
      <g style="fill:#262626;" transform="translate(186.825312 1103.747208)scale(0.5 -0.5)">
       <defs>
        <path d="M 4.15625 35.296875 
Q 4.15625 48 6.765625 55.734375 
Q 9.375 63.484375 14.515625 67.671875 
Q 19.671875 71.875 27.484375 71.875 
Q 33.25 71.875 37.59375 69.546875 
Q 41.9375 67.234375 44.765625 62.859375 
Q 47.609375 58.5 49.21875 52.21875 
Q 50.828125 45.953125 50.828125 35.296875 
Q 50.828125 22.703125 48.234375 14.96875 
Q 45.65625 7.234375 40.5 3 
Q 35.359375 -1.21875 27.484375 -1.21875 
Q 17.140625 -1.21875 11.234375 6.203125 
Q 4.15625 15.140625 4.15625 35.296875 
z
M 13.1875 35.296875 
Q 13.1875 17.671875 17.3125 11.828125 
Q 21.4375 6 27.484375 6 
Q 33.546875 6 37.671875 11.859375 
Q 41.796875 17.71875 41.796875 35.296875 
Q 41.796875 52.984375 37.671875 58.78125 
Q 33.546875 64.59375 27.390625 64.59375 
Q 21.34375 64.59375 17.71875 59.46875 
Q 13.1875 52.9375 13.1875 35.296875 
z
" id="ArialMT-48"/>
       </defs>
       <use xlink:href="#ArialMT-48"/>
      </g>
     </g>
    </g>
    <g id="ytick_2">
     <g id="line2d_2">
      <path clip-path="url(#p3148dffb90)" d="M 230.13 871.284057 
L 1097.002341 871.284057 
" style="fill:none;stroke:#cccccc;stroke-linecap:round;stroke-width:2;"/>
     </g>
     <g id="text_4">
      <!-- 500 -->
      <g style="fill:#262626;" transform="translate(131.215937 889.178589)scale(0.5 -0.5)">
       <defs>
        <path d="M 4.15625 18.75 
L 13.375 19.53125 
Q 14.40625 12.796875 18.140625 9.390625 
Q 21.875 6 27.15625 6 
Q 33.5 6 37.890625 10.78125 
Q 42.28125 15.578125 42.28125 23.484375 
Q 42.28125 31 38.0625 35.34375 
Q 33.84375 39.703125 27 39.703125 
Q 22.75 39.703125 19.328125 37.765625 
Q 15.921875 35.84375 13.96875 32.765625 
L 5.71875 33.84375 
L 12.640625 70.609375 
L 48.25 70.609375 
L 48.25 62.203125 
L 19.671875 62.203125 
L 15.828125 42.96875 
Q 22.265625 47.46875 29.34375 47.46875 
Q 38.71875 47.46875 45.15625 40.96875 
Q 51.609375 34.46875 51.609375 24.265625 
Q 51.609375 14.546875 45.953125 7.46875 
Q 39.0625 -1.21875 27.15625 -1.21875 
Q 17.390625 -1.21875 11.203125 4.25 
Q 5.03125 9.71875 4.15625 18.75 
z
" id="ArialMT-53"/>
       </defs>
       <use xlink:href="#ArialMT-53"/>
       <use x="55.615234" xlink:href="#ArialMT-48"/>
       <use x="111.230469" xlink:href="#ArialMT-48"/>
      </g>
     </g>
    </g>
    <g id="ytick_3">
     <g id="line2d_3">
      <path clip-path="url(#p3148dffb90)" d="M 230.13 656.715437 
L 1097.002341 656.715437 
" style="fill:none;stroke:#cccccc;stroke-linecap:round;stroke-width:2;"/>
     </g>
     <g id="text_5">
      <!-- 1000 -->
      <g style="fill:#262626;" transform="translate(103.41125 674.609969)scale(0.5 -0.5)">
       <defs>
        <path d="M 37.25 0 
L 28.46875 0 
L 28.46875 56 
Q 25.296875 52.984375 20.140625 49.953125 
Q 14.984375 46.921875 10.890625 45.40625 
L 10.890625 53.90625 
Q 18.265625 57.375 23.78125 62.296875 
Q 29.296875 67.234375 31.59375 71.875 
L 37.25 71.875 
z
" id="ArialMT-49"/>
       </defs>
       <use xlink:href="#ArialMT-49"/>
       <use x="55.615234" xlink:href="#ArialMT-48"/>
       <use x="111.230469" xlink:href="#ArialMT-48"/>
       <use x="166.845703" xlink:href="#ArialMT-48"/>
      </g>
     </g>
    </g>
    <g id="ytick_4">
     <g id="line2d_4">
      <path clip-path="url(#p3148dffb90)" d="M 230.13 442.146818 
L 1097.002341 442.146818 
" style="fill:none;stroke:#cccccc;stroke-linecap:round;stroke-width:2;"/>
     </g>
     <g id="text_6">
      <!-- 1500 -->
      <g style="fill:#262626;" transform="translate(103.41125 460.041349)scale(0.5 -0.5)">
       <use xlink:href="#ArialMT-49"/>
       <use x="55.615234" xlink:href="#ArialMT-53"/>
       <use x="111.230469" xlink:href="#ArialMT-48"/>
       <use x="166.845703" xlink:href="#ArialMT-48"/>
      </g>
     </g>
    </g>
    <g id="ytick_5">
     <g id="line2d_5">
      <path clip-path="url(#p3148dffb90)" d="M 230.13 227.578198 
L 1097.002341 227.578198 
" style="fill:none;stroke:#cccccc;stroke-linecap:round;stroke-width:2;"/>
     </g>
     <g id="text_7">
      <!-- 2000 -->
      <g style="fill:#262626;" transform="translate(103.41125 245.472729)scale(0.5 -0.5)">
       <defs>
        <path d="M 50.34375 8.453125 
L 50.34375 0 
L 3.03125 0 
Q 2.9375 3.171875 4.046875 6.109375 
Q 5.859375 10.9375 9.828125 15.625 
Q 13.8125 20.3125 21.34375 26.46875 
Q 33.015625 36.03125 37.109375 41.625 
Q 41.21875 47.21875 41.21875 52.203125 
Q 41.21875 57.421875 37.46875 61 
Q 33.734375 64.59375 27.734375 64.59375 
Q 21.390625 64.59375 17.578125 60.78125 
Q 13.765625 56.984375 13.71875 50.25 
L 4.6875 51.171875 
Q 5.609375 61.28125 11.65625 66.578125 
Q 17.71875 71.875 27.9375 71.875 
Q 38.234375 71.875 44.234375 66.15625 
Q 50.25 60.453125 50.25 52 
Q 50.25 47.703125 48.484375 43.546875 
Q 46.734375 39.40625 42.65625 34.8125 
Q 38.578125 30.21875 29.109375 22.21875 
Q 21.1875 15.578125 18.9375 13.203125 
Q 16.703125 10.84375 15.234375 8.453125 
z
" id="ArialMT-50"/>
       </defs>
       <use xlink:href="#ArialMT-50"/>
       <use x="55.615234" xlink:href="#ArialMT-48"/>
       <use x="111.230469" xlink:href="#ArialMT-48"/>
       <use x="166.845703" xlink:href="#ArialMT-48"/>
      </g>
     </g>
    </g>
    <g id="text_8">
     <!-- Abundance -->
     <g style="fill:#262626;" transform="translate(89.47375 764.522187)rotate(-90)scale(0.5 -0.5)">
      <defs>
       <path d="M -0.140625 0 
L 27.34375 71.578125 
L 37.546875 71.578125 
L 66.84375 0 
L 56.0625 0 
L 47.703125 21.6875 
L 17.78125 21.6875 
L 9.90625 0 
z
M 20.515625 29.390625 
L 44.78125 29.390625 
L 37.3125 49.21875 
Q 33.890625 58.25 32.234375 64.0625 
Q 30.859375 57.171875 28.375 50.390625 
z
" id="ArialMT-65"/>
       <path d="M 14.703125 0 
L 6.546875 0 
L 6.546875 71.578125 
L 15.328125 71.578125 
L 15.328125 46.046875 
Q 20.90625 53.03125 29.546875 53.03125 
Q 34.328125 53.03125 38.59375 51.09375 
Q 42.875 49.171875 45.625 45.671875 
Q 48.390625 42.1875 49.953125 37.25 
Q 51.515625 32.328125 51.515625 26.703125 
Q 51.515625 13.375 44.921875 6.09375 
Q 38.328125 -1.171875 29.109375 -1.171875 
Q 19.921875 -1.171875 14.703125 6.5 
z
M 14.59375 26.3125 
Q 14.59375 17 17.140625 12.84375 
Q 21.296875 6.0625 28.375 6.0625 
Q 34.125 6.0625 38.328125 11.0625 
Q 42.53125 16.0625 42.53125 25.984375 
Q 42.53125 36.140625 38.5 40.96875 
Q 34.46875 45.796875 28.765625 45.796875 
Q 23 45.796875 18.796875 40.796875 
Q 14.59375 35.796875 14.59375 26.3125 
z
" id="ArialMT-98"/>
       <path d="M 40.578125 0 
L 40.578125 7.625 
Q 34.515625 -1.171875 24.125 -1.171875 
Q 19.53125 -1.171875 15.546875 0.578125 
Q 11.578125 2.34375 9.640625 5 
Q 7.71875 7.671875 6.9375 11.53125 
Q 6.390625 14.109375 6.390625 19.734375 
L 6.390625 51.859375 
L 15.1875 51.859375 
L 15.1875 23.09375 
Q 15.1875 16.21875 15.71875 13.8125 
Q 16.546875 10.359375 19.234375 8.375 
Q 21.921875 6.390625 25.875 6.390625 
Q 29.828125 6.390625 33.296875 8.421875 
Q 36.765625 10.453125 38.203125 13.9375 
Q 39.65625 17.4375 39.65625 24.078125 
L 39.65625 51.859375 
L 48.4375 51.859375 
L 48.4375 0 
z
" id="ArialMT-117"/>
       <path d="M 6.59375 0 
L 6.59375 51.859375 
L 14.5 51.859375 
L 14.5 44.484375 
Q 20.21875 53.03125 31 53.03125 
Q 35.6875 53.03125 39.625 51.34375 
Q 43.5625 49.65625 45.515625 46.921875 
Q 47.46875 44.1875 48.25 40.4375 
Q 48.734375 37.984375 48.734375 31.890625 
L 48.734375 0 
L 39.9375 0 
L 39.9375 31.546875 
Q 39.9375 36.921875 38.90625 39.578125 
Q 37.890625 42.234375 35.28125 43.8125 
Q 32.671875 45.40625 29.15625 45.40625 
Q 23.53125 45.40625 19.453125 41.84375 
Q 15.375 38.28125 15.375 28.328125 
L 15.375 0 
z
" id="ArialMT-110"/>
       <path d="M 40.4375 19 
L 49.078125 17.875 
Q 47.65625 8.9375 41.8125 3.875 
Q 35.984375 -1.171875 27.484375 -1.171875 
Q 16.84375 -1.171875 10.375 5.78125 
Q 3.90625 12.75 3.90625 25.734375 
Q 3.90625 34.125 6.6875 40.421875 
Q 9.46875 46.734375 15.15625 49.875 
Q 20.84375 53.03125 27.546875 53.03125 
Q 35.984375 53.03125 41.359375 48.75 
Q 46.734375 44.484375 48.25 36.625 
L 39.703125 35.296875 
Q 38.484375 40.53125 35.375 43.15625 
Q 32.28125 45.796875 27.875 45.796875 
Q 21.234375 45.796875 17.078125 41.03125 
Q 12.9375 36.28125 12.9375 25.984375 
Q 12.9375 15.53125 16.9375 10.796875 
Q 20.953125 6.0625 27.390625 6.0625 
Q 32.5625 6.0625 36.03125 9.234375 
Q 39.5 12.40625 40.4375 19 
z
" id="ArialMT-99"/>
      </defs>
      <use xlink:href="#ArialMT-65"/>
      <use x="66.699219" xlink:href="#ArialMT-98"/>
      <use x="122.314453" xlink:href="#ArialMT-117"/>
      <use x="177.929688" xlink:href="#ArialMT-110"/>
      <use x="233.544922" xlink:href="#ArialMT-100"/>
      <use x="289.160156" xlink:href="#ArialMT-97"/>
      <use x="344.775391" xlink:href="#ArialMT-110"/>
      <use x="400.390625" xlink:href="#ArialMT-99"/>
      <use x="450.390625" xlink:href="#ArialMT-101"/>
     </g>
    </g>
   </g>
   <g id="PolyCollection_1">
    <defs>
     <path d="M 587.098108 -190.27299 
L 359.888751 -190.27299 
L 339.808644 -193.622101 
L 320.368768 -196.971212 
L 302.72421 -200.320323 
L 288.000073 -203.669434 
L 277.161497 -207.018545 
L 270.896657 -210.367656 
L 269.533288 -213.716767 
L 273.003638 -217.065878 
L 280.863652 -220.414989 
L 292.361778 -223.7641 
L 306.54361 -227.113211 
L 322.372887 -230.462322 
L 338.848182 -233.811433 
L 355.097894 -237.160544 
L 370.44257 -240.509655 
L 384.421243 -243.858766 
L 396.785357 -247.207877 
L 407.468679 -250.556988 
L 416.543537 -253.906099 
L 424.173269 -257.25521 
L 430.568449 -260.604321 
L 435.951469 -263.953432 
L 440.531207 -267.302543 
L 444.487399 -270.651654 
L 447.963139 -274.000765 
L 451.063556 -277.349876 
L 453.858814 -280.698987 
L 456.389916 -284.048098 
L 458.676093 -287.397209 
L 460.722746 -290.74632 
L 462.529022 -294.095431 
L 464.094183 -297.444542 
L 465.422132 -300.793653 
L 466.523696 -304.142764 
L 467.416679 -307.491875 
L 468.124062 -310.840986 
L 468.671063 -314.190097 
L 469.081923 -317.539208 
L 469.377267 -320.888319 
L 469.572666 -324.23743 
L 469.678706 -327.586541 
L 469.702453 -330.935652 
L 469.649898 -334.284763 
L 469.528732 -337.633874 
L 469.350732 -340.982985 
L 469.133169 -344.332096 
L 468.898854 -347.681207 
L 468.674763 -351.030318 
L 468.489467 -354.379429 
L 468.369866 -357.72854 
L 468.337818 -361.077651 
L 468.407305 -364.426762 
L 468.582604 -367.775873 
L 468.857761 -371.124984 
L 469.217372 -374.474095 
L 469.638475 -377.823206 
L 470.093137 -381.172317 
L 470.55129 -384.521428 
L 470.983363 -387.870539 
L 471.362407 -391.21965 
L 471.665566 -394.568761 
L 471.874936 -397.917872 
L 471.977982 -401.266983 
L 471.967761 -404.616094 
L 471.843146 -407.965205 
L 471.609173 -411.314316 
L 471.277448 -414.663427 
L 470.866421 -418.012538 
L 470.401244 -421.361649 
L 469.912893 -424.71076 
L 469.43637 -428.059871 
L 469.007958 -431.408982 
L 468.661764 -434.758093 
L 468.425984 -438.107204 
L 468.319495 -441.456315 
L 468.349368 -444.805426 
L 468.509783 -448.154537 
L 468.782602 -451.503648 
L 469.13954 -454.852759 
L 469.54561 -458.20187 
L 469.963305 -461.550981 
L 470.356899 -464.900092 
L 470.696285 -468.249203 
L 470.959888 -471.598314 
L 471.136387 -474.947425 
L 471.225153 -478.296536 
L 471.235479 -481.645647 
L 471.184779 -484.994758 
L 471.096039 -488.343869 
L 470.994822 -491.69298 
L 470.906183 -495.042091 
L 470.85184 -498.391202 
L 470.847922 -501.740313 
L 470.903546 -505.089424 
L 471.020376 -508.438535 
L 471.193151 -511.787646 
L 471.411058 -515.136757 
L 471.659655 -518.485868 
L 471.923037 -521.834979 
L 475.063822 -521.834979 
L 475.063822 -521.834979 
L 475.327204 -518.485868 
L 475.575801 -515.136757 
L 475.793708 -511.787646 
L 475.966483 -508.438535 
L 476.083313 -505.089424 
L 476.138937 -501.740313 
L 476.135019 -498.391202 
L 476.080676 -495.042091 
L 475.992037 -491.69298 
L 475.89082 -488.343869 
L 475.80208 -484.994758 
L 475.751381 -481.645647 
L 475.761706 -478.296536 
L 475.850472 -474.947425 
L 476.026971 -471.598314 
L 476.290574 -468.249203 
L 476.62996 -464.900092 
L 477.023555 -461.550981 
L 477.44125 -458.20187 
L 477.847319 -454.852759 
L 478.204257 -451.503648 
L 478.477076 -448.154537 
L 478.637491 -444.805426 
L 478.667364 -441.456315 
L 478.560876 -438.107204 
L 478.325096 -434.758093 
L 477.978901 -431.408982 
L 477.550489 -428.059871 
L 477.073966 -424.71076 
L 476.585615 -421.361649 
L 476.120438 -418.012538 
L 475.709411 -414.663427 
L 475.377686 -411.314316 
L 475.143714 -407.965205 
L 475.019099 -404.616094 
L 475.008877 -401.266983 
L 475.111923 -397.917872 
L 475.321293 -394.568761 
L 475.624452 -391.21965 
L 476.003497 -387.870539 
L 476.435569 -384.521428 
L 476.893722 -381.172317 
L 477.348384 -377.823206 
L 477.769487 -374.474095 
L 478.129098 -371.124984 
L 478.404255 -367.775873 
L 478.579554 -364.426762 
L 478.649041 -361.077651 
L 478.616993 -357.72854 
L 478.497392 -354.379429 
L 478.312096 -351.030318 
L 478.088005 -347.681207 
L 477.85369 -344.332096 
L 477.636127 -340.982985 
L 477.458127 -337.633874 
L 477.336961 -334.284763 
L 477.284407 -330.935652 
L 477.308153 -327.586541 
L 477.414193 -324.23743 
L 477.609593 -320.888319 
L 477.904936 -317.539208 
L 478.315796 -314.190097 
L 478.862797 -310.840986 
L 479.57018 -307.491875 
L 480.463163 -304.142764 
L 481.564727 -300.793653 
L 482.892676 -297.444542 
L 484.457837 -294.095431 
L 486.264113 -290.74632 
L 488.310767 -287.397209 
L 490.596944 -284.048098 
L 493.128045 -280.698987 
L 495.923303 -277.349876 
L 499.02372 -274.000765 
L 502.49946 -270.651654 
L 506.455652 -267.302543 
L 511.035391 -263.953432 
L 516.418411 -260.604321 
L 522.81359 -257.25521 
L 530.443322 -253.906099 
L 539.51818 -250.556988 
L 550.201502 -247.207877 
L 562.565617 -243.858766 
L 576.544289 -240.509655 
L 591.888965 -237.160544 
L 608.138677 -233.811433 
L 624.613972 -230.462322 
L 640.443249 -227.113211 
L 654.625081 -223.7641 
L 666.123207 -220.414989 
L 673.983222 -217.065878 
L 677.453571 -213.716767 
L 676.090202 -210.367656 
L 669.825363 -207.018545 
L 658.986787 -203.669434 
L 644.26265 -200.320323 
L 626.618091 -196.971212 
L 607.178215 -193.622101 
L 587.098108 -190.27299 
z
" id="mf5be332f30" style="stroke:#4c4c4c;stroke-width:5;"/>
    </defs>
    <g clip-path="url(#p3148dffb90)">
     <use style="fill:#5875a4;stroke:#4c4c4c;stroke-width:5;" x="0" xlink:href="#mf5be332f30" y="1296"/>
    </g>
   </g>
   <g id="PolyCollection_2">
    <defs>
     <path d="M 1005.315108 -162.357964 
L 961.472458 -162.357964 
L 955.301795 -171.711088 
L 948.460858 -181.064212 
L 941.209126 -190.417336 
L 933.885591 -199.77046 
L 926.881811 -209.123584 
L 920.604975 -218.476708 
L 915.436006 -227.829832 
L 911.688736 -237.182956 
L 909.576132 -246.53608 
L 909.188513 -255.889204 
L 910.4868 -265.242328 
L 913.31152 -274.595452 
L 917.405858 -283.948576 
L 922.448806 -293.3017 
L 928.093015 -302.654824 
L 934.001444 -312.007948 
L 939.877552 -321.361072 
L 945.485487 -330.714196 
L 950.658954 -340.06732 
L 955.299745 -349.420444 
L 959.368607 -358.773568 
L 962.871914 -368.126692 
L 965.847461 -377.479816 
L 968.351769 -386.83294 
L 970.450119 -396.186064 
L 972.209426 -405.539188 
L 973.693388 -414.892312 
L 974.959142 -424.245436 
L 976.054884 -433.59856 
L 977.018263 -442.951684 
L 977.875662 -452.304808 
L 978.642639 -461.657932 
L 979.32563 -471.011056 
L 979.92475 -480.36418 
L 980.437237 -489.717304 
L 980.860856 -499.070428 
L 981.196629 -508.423552 
L 981.45039 -517.776676 
L 981.633008 -527.1298 
L 981.759403 -536.482924 
L 981.846761 -545.836048 
L 981.91239 -555.189172 
L 981.971709 -564.542296 
L 982.036668 -573.89542 
L 982.114804 -583.248544 
L 982.208941 -592.601668 
L 982.317487 -601.954792 
L 982.435182 -611.307916 
L 982.554155 -620.66104 
L 982.665135 -630.014164 
L 982.758679 -639.367288 
L 982.826304 -648.720412 
L 982.861454 -658.073536 
L 982.860242 -667.42666 
L 982.821958 -676.779784 
L 982.749299 -686.132908 
L 982.648313 -695.486032 
L 982.527992 -704.839156 
L 982.399515 -714.19228 
L 982.275136 -723.545404 
L 982.166803 -732.898528 
L 982.084679 -742.251652 
L 982.035778 -751.604776 
L 982.022971 -760.9579 
L 982.04459 -770.311024 
L 982.094748 -779.664148 
L 982.164388 -789.017272 
L 982.242888 -798.370396 
L 982.319951 -807.72352 
L 982.387411 -817.076644 
L 982.440569 -826.429768 
L 982.478791 -835.782892 
L 982.505236 -845.136016 
L 982.525777 -854.48914 
L 982.547385 -863.842264 
L 982.576323 -873.195388 
L 982.616582 -882.548512 
L 982.668849 -891.901636 
L 982.730185 -901.25476 
L 982.794425 -910.607884 
L 982.853124 -919.961008 
L 982.89685 -929.314132 
L 982.916596 -938.667256 
L 982.905127 -948.020381 
L 982.85816 -957.373505 
L 982.775271 -966.726629 
L 982.660448 -976.079753 
L 982.522156 -985.432877 
L 982.372802 -994.786001 
L 982.227517 -1004.139125 
L 982.102334 -1013.492249 
L 982.011974 -1022.845373 
L 981.967644 -1032.198497 
L 981.975293 -1041.551621 
L 982.034727 -1050.904745 
L 982.139808 -1060.257869 
L 982.279679 -1069.610993 
L 982.440726 -1078.964117 
L 982.608813 -1088.317241 
L 984.178753 -1088.317241 
L 984.178753 -1088.317241 
L 984.34684 -1078.964117 
L 984.507887 -1069.610993 
L 984.647758 -1060.257869 
L 984.752839 -1050.904745 
L 984.812273 -1041.551621 
L 984.819922 -1032.198497 
L 984.775592 -1022.845373 
L 984.685232 -1013.492249 
L 984.560049 -1004.139125 
L 984.414764 -994.786001 
L 984.26541 -985.432877 
L 984.127118 -976.079753 
L 984.012295 -966.726629 
L 983.929406 -957.373505 
L 983.882439 -948.020381 
L 983.87097 -938.667256 
L 983.890716 -929.314132 
L 983.934442 -919.961008 
L 983.993141 -910.607884 
L 984.057381 -901.25476 
L 984.118717 -891.901636 
L 984.170984 -882.548512 
L 984.211243 -873.195388 
L 984.240182 -863.842264 
L 984.261789 -854.48914 
L 984.28233 -845.136016 
L 984.308775 -835.782892 
L 984.346997 -826.429768 
L 984.400155 -817.076644 
L 984.467615 -807.72352 
L 984.544679 -798.370396 
L 984.623178 -789.017272 
L 984.692818 -779.664148 
L 984.742977 -770.311024 
L 984.764595 -760.9579 
L 984.751788 -751.604776 
L 984.702887 -742.251652 
L 984.620763 -732.898528 
L 984.51243 -723.545404 
L 984.388051 -714.19228 
L 984.259574 -704.839156 
L 984.139253 -695.486032 
L 984.038267 -686.132908 
L 983.965609 -676.779784 
L 983.927324 -667.42666 
L 983.926113 -658.073536 
L 983.961262 -648.720412 
L 984.028887 -639.367288 
L 984.122431 -630.014164 
L 984.233411 -620.66104 
L 984.352384 -611.307916 
L 984.470079 -601.954792 
L 984.578625 -592.601668 
L 984.672763 -583.248544 
L 984.750898 -573.89542 
L 984.815857 -564.542296 
L 984.875176 -555.189172 
L 984.940805 -545.836048 
L 985.028163 -536.482924 
L 985.154558 -527.1298 
L 985.337176 -517.776676 
L 985.590937 -508.423552 
L 985.92671 -499.070428 
L 986.350329 -489.717304 
L 986.862816 -480.36418 
L 987.461936 -471.011056 
L 988.144927 -461.657932 
L 988.911905 -452.304808 
L 989.769303 -442.951684 
L 990.732682 -433.59856 
L 991.828424 -424.245436 
L 993.094178 -414.892312 
L 994.57814 -405.539188 
L 996.337448 -396.186064 
L 998.435797 -386.83294 
L 1000.940105 -377.479816 
L 1003.915652 -368.126692 
L 1007.418959 -358.773568 
L 1011.487821 -349.420444 
L 1016.128612 -340.06732 
L 1021.302079 -330.714196 
L 1026.910014 -321.361072 
L 1032.786122 -312.007948 
L 1038.694551 -302.654824 
L 1044.33876 -293.3017 
L 1049.381708 -283.948576 
L 1053.476046 -274.595452 
L 1056.300767 -265.242328 
L 1057.599053 -255.889204 
L 1057.211435 -246.53608 
L 1055.098831 -237.182956 
L 1051.35156 -227.829832 
L 1046.182591 -218.476708 
L 1039.905755 -209.123584 
L 1032.901975 -199.77046 
L 1025.57844 -190.417336 
L 1018.326708 -181.064212 
L 1011.485771 -171.711088 
L 1005.315108 -162.357964 
z
" id="mbb2bd9b5b2" style="stroke:#4c4c4c;stroke-width:5;"/>
    </defs>
    <g clip-path="url(#p3148dffb90)">
     <use style="fill:#cc8963;stroke:#4c4c4c;stroke-width:5;" x="0" xlink:href="#mbb2bd9b5b2" y="1296"/>
    </g>
   </g>
   <g id="line2d_6">
    <path clip-path="url(#p3148dffb90)" d="M 473.49343 1085.852677 
L 473.49343 1036.501895 
" style="fill:none;stroke:#4c4c4c;stroke-linecap:round;stroke-width:5;"/>
   </g>
   <g id="line2d_7">
    <path clip-path="url(#p3148dffb90)" d="M 473.49343 1085.852677 
L 473.49343 1066.112364 
" style="fill:none;stroke:#4c4c4c;stroke-linecap:round;stroke-width:15;"/>
   </g>
   <g id="line2d_8">
    <path clip-path="url(#p3148dffb90)" d="M 983.393783 1085.852677 
L 983.393783 901.752801 
" style="fill:none;stroke:#4c4c4c;stroke-linecap:round;stroke-width:5;"/>
   </g>
   <g id="line2d_9">
    <path clip-path="url(#p3148dffb90)" d="M 983.393783 1061.928276 
L 983.393783 996.592131 
" style="fill:none;stroke:#4c4c4c;stroke-linecap:round;stroke-width:15;"/>
   </g>
   <g id="line2d_10">
    <path clip-path="url(#p3148dffb90)" d="M 473.49343 194.358806 
L 473.49343 173.987702 
L 983.393783 173.987702 
L 983.393783 194.358806 
" style="fill:none;stroke:#333333;stroke-linecap:round;stroke-width:1.5;"/>
   </g>
   <g id="patch_3">
    <path d="M 230.13 1179.94 
L 230.13 96.12 
" style="fill:none;stroke:#cccccc;stroke-linecap:square;stroke-linejoin:miter;stroke-width:2.5;"/>
   </g>
   <g id="patch_4">
    <path d="M 1097.002341 1179.94 
L 1097.002341 96.12 
" style="fill:none;stroke:#cccccc;stroke-linecap:square;stroke-linejoin:miter;stroke-width:2.5;"/>
   </g>
   <g id="patch_5">
    <path d="M 230.13 1179.94 
L 1097.002341 1179.94 
" style="fill:none;stroke:#cccccc;stroke-linecap:square;stroke-linejoin:miter;stroke-width:2.5;"/>
   </g>
   <g id="patch_6">
    <path d="M 230.13 96.12 
L 1097.002341 96.12 
" style="fill:none;stroke:#cccccc;stroke-linecap:square;stroke-linejoin:miter;stroke-width:2.5;"/>
   </g>
   <g id="PathCollection_1">
    <defs>
     <path d="M 0 5 
C 1.326016 5 2.597899 4.473168 3.535534 3.535534 
C 4.473168 2.597899 5 1.326016 5 0 
C 5 -1.326016 4.473168 -2.597899 3.535534 -3.535534 
C 2.597899 -4.473168 1.326016 -5 0 -5 
C -1.326016 -5 -2.597899 -4.473168 -3.535534 -3.535534 
C -4.473168 -2.597899 -5 -1.326016 -5 0 
C -5 1.326016 -4.473168 2.597899 -3.535534 3.535534 
C -2.597899 4.473168 -1.326016 5 0 5 
z
" id="md21f60a6af" style="stroke:#4c4c4c;stroke-width:2;"/>
    </defs>
    <g clip-path="url(#p3148dffb90)">
     <use style="fill:#ffffff;stroke:#4c4c4c;stroke-width:2;" x="473.49343" xlink:href="#md21f60a6af" y="1085.852677"/>
    </g>
   </g>
   <g id="PathCollection_2">
    <g clip-path="url(#p3148dffb90)">
     <use style="fill:#ffffff;stroke:#4c4c4c;stroke-width:2;" x="983.393783" xlink:href="#md21f60a6af" y="1033.068797"/>
    </g>
   </g>
   <g id="text_9">
    <!-- **** -->
    <g transform="translate(689.521731 163.050202)scale(0.5 -0.5)">
     <defs>
      <path d="M 3.125 58.453125 
L 5.375 65.375 
Q 13.140625 62.640625 16.65625 60.640625 
Q 15.71875 69.484375 15.671875 72.796875 
L 22.75 72.796875 
Q 22.609375 67.96875 21.625 60.6875 
Q 26.65625 63.234375 33.15625 65.375 
L 35.40625 58.453125 
Q 29.203125 56.390625 23.25 55.71875 
Q 26.21875 53.125 31.640625 46.484375 
L 25.78125 42.328125 
Q 22.953125 46.1875 19.09375 52.828125 
Q 15.484375 45.953125 12.75 42.328125 
L 6.984375 46.484375 
Q 12.640625 53.46875 15.09375 55.71875 
Q 8.796875 56.9375 3.125 58.453125 
z
" id="ArialMT-42"/>
     </defs>
     <use xlink:href="#ArialMT-42"/>
     <use x="38.916016" xlink:href="#ArialMT-42"/>
     <use x="77.832031" xlink:href="#ArialMT-42"/>
     <use x="116.748047" xlink:href="#ArialMT-42"/>
    </g>
   </g>
   <g id="text_10">
    <!-- Prevotella intermedia (K.W. p=9.53e-17) -->
    <g transform="translate(218.226327 90.12)scale(0.5 -0.5)">
     <defs>
      <path d="M 7.71875 0 
L 7.71875 71.578125 
L 34.71875 71.578125 
Q 41.84375 71.578125 45.609375 70.90625 
Q 50.875 70.015625 54.4375 67.546875 
Q 58.015625 65.09375 60.1875 60.640625 
Q 62.359375 56.203125 62.359375 50.875 
Q 62.359375 41.75 56.546875 35.421875 
Q 50.734375 29.109375 35.546875 29.109375 
L 17.1875 29.109375 
L 17.1875 0 
z
M 17.1875 37.546875 
L 35.6875 37.546875 
Q 44.875 37.546875 48.734375 40.96875 
Q 52.59375 44.390625 52.59375 50.59375 
Q 52.59375 55.078125 50.3125 58.265625 
Q 48.046875 61.46875 44.34375 62.5 
Q 41.9375 63.140625 35.5 63.140625 
L 17.1875 63.140625 
z
" id="ArialMT-80"/>
      <path id="ArialMT-32"/>
      <path d="M 6.59375 0 
L 6.59375 51.859375 
L 14.453125 51.859375 
L 14.453125 44.578125 
Q 16.890625 48.390625 20.9375 50.703125 
Q 25 53.03125 30.171875 53.03125 
Q 35.9375 53.03125 39.625 50.640625 
Q 43.3125 48.25 44.828125 43.953125 
Q 50.984375 53.03125 60.84375 53.03125 
Q 68.5625 53.03125 72.703125 48.75 
Q 76.859375 44.484375 76.859375 35.59375 
L 76.859375 0 
L 68.109375 0 
L 68.109375 32.671875 
Q 68.109375 37.9375 67.25 40.25 
Q 66.40625 42.578125 64.15625 43.984375 
Q 61.921875 45.40625 58.890625 45.40625 
Q 53.421875 45.40625 49.796875 41.765625 
Q 46.1875 38.140625 46.1875 30.125 
L 46.1875 0 
L 37.40625 0 
L 37.40625 33.6875 
Q 37.40625 39.546875 35.25 42.46875 
Q 33.109375 45.40625 28.21875 45.40625 
Q 24.515625 45.40625 21.359375 43.453125 
Q 18.21875 41.5 16.796875 37.734375 
Q 15.375 33.984375 15.375 26.90625 
L 15.375 0 
z
" id="ArialMT-109"/>
      <path d="M 23.390625 -21.046875 
Q 16.109375 -11.859375 11.078125 0.4375 
Q 6.0625 12.75 6.0625 25.921875 
Q 6.0625 37.546875 9.8125 48.1875 
Q 14.203125 60.546875 23.390625 72.796875 
L 29.6875 72.796875 
Q 23.78125 62.640625 21.875 58.296875 
Q 18.890625 51.5625 17.1875 44.234375 
Q 15.09375 35.109375 15.09375 25.875 
Q 15.09375 2.390625 29.6875 -21.046875 
z
" id="ArialMT-40"/>
      <path d="M 7.328125 0 
L 7.328125 71.578125 
L 16.796875 71.578125 
L 16.796875 36.078125 
L 52.34375 71.578125 
L 65.1875 71.578125 
L 35.15625 42.578125 
L 66.5 0 
L 54 0 
L 28.515625 36.234375 
L 16.796875 24.8125 
L 16.796875 0 
z
" id="ArialMT-75"/>
      <path d="M 9.078125 0 
L 9.078125 10.015625 
L 19.09375 10.015625 
L 19.09375 0 
z
" id="ArialMT-46"/>
      <path d="M 20.21875 0 
L 1.21875 71.578125 
L 10.9375 71.578125 
L 21.828125 24.65625 
Q 23.578125 17.28125 24.859375 10.015625 
Q 27.59375 21.484375 28.078125 23.25 
L 41.703125 71.578125 
L 53.125 71.578125 
L 63.375 35.359375 
Q 67.234375 21.875 68.953125 10.015625 
Q 70.3125 16.796875 72.515625 25.59375 
L 83.734375 71.578125 
L 93.265625 71.578125 
L 73.640625 0 
L 64.5 0 
L 49.421875 54.546875 
Q 47.515625 61.375 47.171875 62.9375 
Q 46.046875 58.015625 45.0625 54.546875 
L 29.890625 0 
z
" id="ArialMT-87"/>
      <path d="M 6.59375 -19.875 
L 6.59375 51.859375 
L 14.59375 51.859375 
L 14.59375 45.125 
Q 17.4375 49.078125 21 51.046875 
Q 24.5625 53.03125 29.640625 53.03125 
Q 36.28125 53.03125 41.359375 49.609375 
Q 46.4375 46.1875 49.015625 39.953125 
Q 51.609375 33.734375 51.609375 26.3125 
Q 51.609375 18.359375 48.75 11.984375 
Q 45.90625 5.609375 40.453125 2.21875 
Q 35.015625 -1.171875 29 -1.171875 
Q 24.609375 -1.171875 21.109375 0.6875 
Q 17.625 2.546875 15.375 5.375 
L 15.375 -19.875 
z
M 14.546875 25.640625 
Q 14.546875 15.625 18.59375 10.84375 
Q 22.65625 6.0625 28.421875 6.0625 
Q 34.28125 6.0625 38.453125 11.015625 
Q 42.625 15.96875 42.625 26.375 
Q 42.625 36.28125 38.546875 41.203125 
Q 34.46875 46.140625 28.8125 46.140625 
Q 23.1875 46.140625 18.859375 40.890625 
Q 14.546875 35.640625 14.546875 25.640625 
z
" id="ArialMT-112"/>
      <path d="M 52.828125 42.09375 
L 5.5625 42.09375 
L 5.5625 50.296875 
L 52.828125 50.296875 
z
M 52.828125 20.359375 
L 5.5625 20.359375 
L 5.5625 28.5625 
L 52.828125 28.5625 
z
" id="ArialMT-61"/>
      <path d="M 5.46875 16.546875 
L 13.921875 17.328125 
Q 14.984375 11.375 18.015625 8.6875 
Q 21.046875 6 25.78125 6 
Q 29.828125 6 32.875 7.859375 
Q 35.9375 9.71875 37.890625 12.8125 
Q 39.84375 15.921875 41.15625 21.1875 
Q 42.484375 26.46875 42.484375 31.9375 
Q 42.484375 32.515625 42.4375 33.6875 
Q 39.796875 29.5 35.234375 26.875 
Q 30.671875 24.265625 25.34375 24.265625 
Q 16.453125 24.265625 10.296875 30.703125 
Q 4.15625 37.15625 4.15625 47.703125 
Q 4.15625 58.59375 10.578125 65.234375 
Q 17 71.875 26.65625 71.875 
Q 33.640625 71.875 39.421875 68.109375 
Q 45.21875 64.359375 48.21875 57.390625 
Q 51.21875 50.4375 51.21875 37.25 
Q 51.21875 23.53125 48.234375 15.40625 
Q 45.265625 7.28125 39.375 3.03125 
Q 33.5 -1.21875 25.59375 -1.21875 
Q 17.1875 -1.21875 11.859375 3.4375 
Q 6.546875 8.109375 5.46875 16.546875 
z
M 41.453125 48.140625 
Q 41.453125 55.71875 37.421875 60.15625 
Q 33.40625 64.59375 27.734375 64.59375 
Q 21.875 64.59375 17.53125 59.8125 
Q 13.1875 55.03125 13.1875 47.40625 
Q 13.1875 40.578125 17.3125 36.296875 
Q 21.4375 32.03125 27.484375 32.03125 
Q 33.59375 32.03125 37.515625 36.296875 
Q 41.453125 40.578125 41.453125 48.140625 
z
" id="ArialMT-57"/>
      <path d="M 4.203125 18.890625 
L 12.984375 20.0625 
Q 14.5 12.59375 18.140625 9.296875 
Q 21.78125 6 27 6 
Q 33.203125 6 37.46875 10.296875 
Q 41.75 14.59375 41.75 20.953125 
Q 41.75 27 37.796875 30.921875 
Q 33.84375 34.859375 27.734375 34.859375 
Q 25.25 34.859375 21.53125 33.890625 
L 22.515625 41.609375 
Q 23.390625 41.5 23.921875 41.5 
Q 29.546875 41.5 34.03125 44.421875 
Q 38.53125 47.359375 38.53125 53.46875 
Q 38.53125 58.296875 35.25 61.46875 
Q 31.984375 64.65625 26.8125 64.65625 
Q 21.6875 64.65625 18.265625 61.421875 
Q 14.84375 58.203125 13.875 51.765625 
L 5.078125 53.328125 
Q 6.6875 62.15625 12.390625 67.015625 
Q 18.109375 71.875 26.609375 71.875 
Q 32.46875 71.875 37.390625 69.359375 
Q 42.328125 66.84375 44.9375 62.5 
Q 47.5625 58.15625 47.5625 53.265625 
Q 47.5625 48.640625 45.0625 44.828125 
Q 42.578125 41.015625 37.703125 38.765625 
Q 44.046875 37.3125 47.5625 32.6875 
Q 51.078125 28.078125 51.078125 21.140625 
Q 51.078125 11.765625 44.234375 5.25 
Q 37.40625 -1.265625 26.953125 -1.265625 
Q 17.53125 -1.265625 11.296875 4.34375 
Q 5.078125 9.96875 4.203125 18.890625 
z
" id="ArialMT-51"/>
      <path d="M 3.171875 21.484375 
L 3.171875 30.328125 
L 30.171875 30.328125 
L 30.171875 21.484375 
z
" id="ArialMT-45"/>
      <path d="M 4.734375 62.203125 
L 4.734375 70.65625 
L 51.078125 70.65625 
L 51.078125 63.8125 
Q 44.234375 56.546875 37.515625 44.484375 
Q 30.8125 32.421875 27.15625 19.671875 
Q 24.515625 10.6875 23.78125 0 
L 14.75 0 
Q 14.890625 8.453125 18.0625 20.40625 
Q 21.234375 32.375 27.171875 43.484375 
Q 33.109375 54.59375 39.796875 62.203125 
z
" id="ArialMT-55"/>
      <path d="M 12.359375 -21.046875 
L 6.0625 -21.046875 
Q 20.65625 2.390625 20.65625 25.875 
Q 20.65625 35.0625 18.5625 44.09375 
Q 16.890625 51.421875 13.921875 58.15625 
Q 12.015625 62.546875 6.0625 72.796875 
L 12.359375 72.796875 
Q 21.53125 60.546875 25.921875 48.1875 
Q 29.6875 37.546875 29.6875 25.921875 
Q 29.6875 12.75 24.625 0.4375 
Q 19.578125 -11.859375 12.359375 -21.046875 
z
" id="ArialMT-41"/>
     </defs>
     <use xlink:href="#ArialMT-80"/>
     <use x="66.699219" xlink:href="#ArialMT-114"/>
     <use x="100" xlink:href="#ArialMT-101"/>
     <use x="155.615234" xlink:href="#ArialMT-118"/>
     <use x="205.615234" xlink:href="#ArialMT-111"/>
     <use x="261.230469" xlink:href="#ArialMT-116"/>
     <use x="289.013672" xlink:href="#ArialMT-101"/>
     <use x="344.628906" xlink:href="#ArialMT-108"/>
     <use x="366.845703" xlink:href="#ArialMT-108"/>
     <use x="389.0625" xlink:href="#ArialMT-97"/>
     <use x="444.677734" xlink:href="#ArialMT-32"/>
     <use x="472.460938" xlink:href="#ArialMT-105"/>
     <use x="494.677734" xlink:href="#ArialMT-110"/>
     <use x="550.292969" xlink:href="#ArialMT-116"/>
     <use x="578.076172" xlink:href="#ArialMT-101"/>
     <use x="633.691406" xlink:href="#ArialMT-114"/>
     <use x="666.992188" xlink:href="#ArialMT-109"/>
     <use x="750.292969" xlink:href="#ArialMT-101"/>
     <use x="805.908203" xlink:href="#ArialMT-100"/>
     <use x="861.523438" xlink:href="#ArialMT-105"/>
     <use x="883.740234" xlink:href="#ArialMT-97"/>
     <use x="939.355469" xlink:href="#ArialMT-32"/>
     <use x="967.138672" xlink:href="#ArialMT-40"/>
     <use x="1000.439453" xlink:href="#ArialMT-75"/>
     <use x="1067.138672" xlink:href="#ArialMT-46"/>
     <use x="1094.921875" xlink:href="#ArialMT-87"/>
     <use x="1183.806641" xlink:href="#ArialMT-46"/>
     <use x="1211.589844" xlink:href="#ArialMT-32"/>
     <use x="1239.373047" xlink:href="#ArialMT-112"/>
     <use x="1294.988281" xlink:href="#ArialMT-61"/>
     <use x="1353.386719" xlink:href="#ArialMT-57"/>
     <use x="1409.001953" xlink:href="#ArialMT-46"/>
     <use x="1436.785156" xlink:href="#ArialMT-53"/>
     <use x="1492.400391" xlink:href="#ArialMT-51"/>
     <use x="1548.015625" xlink:href="#ArialMT-101"/>
     <use x="1603.630859" xlink:href="#ArialMT-45"/>
     <use x="1636.931641" xlink:href="#ArialMT-49"/>
     <use x="1692.546875" xlink:href="#ArialMT-55"/>
     <use x="1748.162109" xlink:href="#ArialMT-41"/>
    </g>
   </g>
  </g>
 </g>
 <defs>
  <clipPath id="p3148dffb90">
   <rect height="1083.82" width="866.872341" x="230.13" y="96.12"/>
  </clipPath>
 </defs>
</svg>
