<?xml version="1.0" encoding="utf-8" standalone="no"?>
<!DOCTYPE svg PUBLIC "-//W3C//DTD SVG 1.1//EN"
  "http://www.w3.org/Graphics/SVG/1.1/DTD/svg11.dtd">
<!-- Created with matplotlib (https://matplotlib.org/) -->
<svg height="1296pt" version="1.1" viewBox="0 0 1296 1296" width="1296pt" xmlns="http://www.w3.org/2000/svg" xmlns:xlink="http://www.w3.org/1999/xlink">
 <metadata>
  <rdf:RDF xmlns:cc="http://creativecommons.org/ns#" xmlns:dc="http://purl.org/dc/elements/1.1/" xmlns:rdf="http://www.w3.org/1999/02/22-rdf-syntax-ns#">
   <cc:Work>
    <dc:type rdf:resource="http://purl.org/dc/dcmitype/StillImage"/>
    <dc:date>2022-06-29T14:10:33.514429</dc:date>
    <dc:format>image/svg+xml</dc:format>
    <dc:creator>
     <cc:Agent>
      <dc:title>Matplotlib v3.3.3, https://matplotlib.org/</dc:title>
     </cc:Agent>
    </dc:creator>
   </cc:Work>
  </rdf:RDF>
 </metadata>
 <defs>
  <style type="text/css">*{stroke-linecap:butt;stroke-linejoin:round;}</style>
 </defs>
 <g id="figure_1">
  <g id="patch_1">
   <path d="M 0 1296 
L 1296 1296 
L 1296 0 
L 0 0 
z
" style="fill:#ffffff;"/>
  </g>
  <g id="axes_1">
   <g id="patch_2">
    <path d="M 202.32 1179.94 
L 1167.762269 1179.94 
L 1167.762269 96.24 
L 202.32 96.24 
z
" style="fill:#ffffff;"/>
   </g>
   <g id="matplotlib.axis_1">
    <g id="xtick_1">
     <g id="text_1">
      <!-- Healthy -->
      <g style="fill:#262626;" transform="translate(369.16101 1231.229063)scale(0.5 -0.5)">
       <defs>
        <path d="M 8.015625 0 
L 8.015625 71.578125 
L 17.484375 71.578125 
L 17.484375 42.1875 
L 54.6875 42.1875 
L 54.6875 71.578125 
L 64.15625 71.578125 
L 64.15625 0 
L 54.6875 0 
L 54.6875 33.734375 
L 17.484375 33.734375 
L 17.484375 0 
z
" id="ArialMT-72"/>
        <path d="M 42.09375 16.703125 
L 51.171875 15.578125 
Q 49.03125 7.625 43.21875 3.21875 
Q 37.40625 -1.171875 28.375 -1.171875 
Q 17 -1.171875 10.328125 5.828125 
Q 3.65625 12.84375 3.65625 25.484375 
Q 3.65625 38.578125 10.390625 45.796875 
Q 17.140625 53.03125 27.875 53.03125 
Q 38.28125 53.03125 44.875 45.953125 
Q 51.46875 38.875 51.46875 26.03125 
Q 51.46875 25.25 51.421875 23.6875 
L 12.75 23.6875 
Q 13.234375 15.140625 17.578125 10.59375 
Q 21.921875 6.0625 28.421875 6.0625 
Q 33.25 6.0625 36.671875 8.59375 
Q 40.09375 11.140625 42.09375 16.703125 
z
M 13.234375 30.90625 
L 42.1875 30.90625 
Q 41.609375 37.453125 38.875 40.71875 
Q 34.671875 45.796875 27.984375 45.796875 
Q 21.921875 45.796875 17.796875 41.75 
Q 13.671875 37.703125 13.234375 30.90625 
z
" id="ArialMT-101"/>
        <path d="M 40.4375 6.390625 
Q 35.546875 2.25 31.03125 0.53125 
Q 26.515625 -1.171875 21.34375 -1.171875 
Q 12.796875 -1.171875 8.203125 3 
Q 3.609375 7.171875 3.609375 13.671875 
Q 3.609375 17.484375 5.34375 20.625 
Q 7.078125 23.78125 9.890625 25.6875 
Q 12.703125 27.59375 16.21875 28.5625 
Q 18.796875 29.25 24.03125 29.890625 
Q 34.671875 31.15625 39.703125 32.90625 
Q 39.75 34.71875 39.75 35.203125 
Q 39.75 40.578125 37.25 42.78125 
Q 33.890625 45.75 27.25 45.75 
Q 21.046875 45.75 18.09375 43.578125 
Q 15.140625 41.40625 13.71875 35.890625 
L 5.125 37.0625 
Q 6.296875 42.578125 8.984375 45.96875 
Q 11.671875 49.359375 16.75 51.1875 
Q 21.828125 53.03125 28.515625 53.03125 
Q 35.15625 53.03125 39.296875 51.46875 
Q 43.453125 49.90625 45.40625 47.53125 
Q 47.359375 45.171875 48.140625 41.546875 
Q 48.578125 39.3125 48.578125 33.453125 
L 48.578125 21.734375 
Q 48.578125 9.46875 49.140625 6.21875 
Q 49.703125 2.984375 51.375 0 
L 42.1875 0 
Q 40.828125 2.734375 40.4375 6.390625 
z
M 39.703125 26.03125 
Q 34.90625 24.078125 25.34375 22.703125 
Q 19.921875 21.921875 17.671875 20.9375 
Q 15.4375 19.96875 14.203125 18.09375 
Q 12.984375 16.21875 12.984375 13.921875 
Q 12.984375 10.40625 15.640625 8.0625 
Q 18.3125 5.71875 23.4375 5.71875 
Q 28.515625 5.71875 32.46875 7.9375 
Q 36.421875 10.15625 38.28125 14.015625 
Q 39.703125 17 39.703125 22.796875 
z
" id="ArialMT-97"/>
        <path d="M 6.390625 0 
L 6.390625 71.578125 
L 15.1875 71.578125 
L 15.1875 0 
z
" id="ArialMT-108"/>
        <path d="M 25.78125 7.859375 
L 27.046875 0.09375 
Q 23.34375 -0.6875 20.40625 -0.6875 
Q 15.625 -0.6875 12.984375 0.828125 
Q 10.359375 2.34375 9.28125 4.8125 
Q 8.203125 7.28125 8.203125 15.1875 
L 8.203125 45.015625 
L 1.765625 45.015625 
L 1.765625 51.859375 
L 8.203125 51.859375 
L 8.203125 64.703125 
L 16.9375 69.96875 
L 16.9375 51.859375 
L 25.78125 51.859375 
L 25.78125 45.015625 
L 16.9375 45.015625 
L 16.9375 14.703125 
Q 16.9375 10.9375 17.40625 9.859375 
Q 17.875 8.796875 18.921875 8.15625 
Q 19.96875 7.515625 21.921875 7.515625 
Q 23.390625 7.515625 25.78125 7.859375 
z
" id="ArialMT-116"/>
        <path d="M 6.59375 0 
L 6.59375 71.578125 
L 15.375 71.578125 
L 15.375 45.90625 
Q 21.53125 53.03125 30.90625 53.03125 
Q 36.671875 53.03125 40.921875 50.75 
Q 45.171875 48.484375 47 44.484375 
Q 48.828125 40.484375 48.828125 32.859375 
L 48.828125 0 
L 40.046875 0 
L 40.046875 32.859375 
Q 40.046875 39.453125 37.1875 42.453125 
Q 34.328125 45.453125 29.109375 45.453125 
Q 25.203125 45.453125 21.75 43.421875 
Q 18.3125 41.40625 16.84375 37.9375 
Q 15.375 34.46875 15.375 28.375 
L 15.375 0 
z
" id="ArialMT-104"/>
        <path d="M 6.203125 -19.96875 
L 5.21875 -11.71875 
Q 8.109375 -12.5 10.25 -12.5 
Q 13.1875 -12.5 14.9375 -11.515625 
Q 16.703125 -10.546875 17.828125 -8.796875 
Q 18.65625 -7.46875 20.515625 -2.25 
Q 20.75 -1.515625 21.296875 -0.09375 
L 1.609375 51.859375 
L 11.078125 51.859375 
L 21.875 21.828125 
Q 23.96875 16.109375 25.640625 9.8125 
Q 27.15625 15.875 29.25 21.625 
L 40.328125 51.859375 
L 49.125 51.859375 
L 29.390625 -0.875 
Q 26.21875 -9.421875 24.46875 -12.640625 
Q 22.125 -17 19.09375 -19.015625 
Q 16.0625 -21.046875 11.859375 -21.046875 
Q 9.328125 -21.046875 6.203125 -19.96875 
z
" id="ArialMT-121"/>
       </defs>
       <use xlink:href="#ArialMT-72"/>
       <use x="72.216797" xlink:href="#ArialMT-101"/>
       <use x="127.832031" xlink:href="#ArialMT-97"/>
       <use x="183.447266" xlink:href="#ArialMT-108"/>
       <use x="205.664062" xlink:href="#ArialMT-116"/>
       <use x="233.447266" xlink:href="#ArialMT-104"/>
       <use x="289.0625" xlink:href="#ArialMT-121"/>
      </g>
     </g>
    </g>
    <g id="xtick_2">
     <g id="text_2">
      <!-- Slight+Moderate+Severe -->
      <g style="fill:#262626;" transform="translate(696.669421 1231.838438)scale(0.5 -0.5)">
       <defs>
        <path d="M 4.5 23 
L 13.421875 23.78125 
Q 14.0625 18.40625 16.375 14.96875 
Q 18.703125 11.53125 23.578125 9.40625 
Q 28.46875 7.28125 34.578125 7.28125 
Q 39.984375 7.28125 44.140625 8.890625 
Q 48.296875 10.5 50.3125 13.296875 
Q 52.34375 16.109375 52.34375 19.4375 
Q 52.34375 22.796875 50.390625 25.3125 
Q 48.4375 27.828125 43.953125 29.546875 
Q 41.0625 30.671875 31.203125 33.03125 
Q 21.34375 35.40625 17.390625 37.5 
Q 12.25 40.1875 9.734375 44.15625 
Q 7.234375 48.140625 7.234375 53.078125 
Q 7.234375 58.5 10.296875 63.203125 
Q 13.375 67.921875 19.28125 70.359375 
Q 25.203125 72.796875 32.421875 72.796875 
Q 40.375 72.796875 46.453125 70.234375 
Q 52.546875 67.671875 55.8125 62.6875 
Q 59.078125 57.71875 59.328125 51.421875 
L 50.25 50.734375 
Q 49.515625 57.515625 45.28125 60.984375 
Q 41.0625 64.453125 32.8125 64.453125 
Q 24.21875 64.453125 20.28125 61.296875 
Q 16.359375 58.15625 16.359375 53.71875 
Q 16.359375 49.859375 19.140625 47.359375 
Q 21.875 44.875 33.421875 42.265625 
Q 44.96875 39.65625 49.265625 37.703125 
Q 55.515625 34.8125 58.484375 30.390625 
Q 61.46875 25.984375 61.46875 20.21875 
Q 61.46875 14.5 58.203125 9.4375 
Q 54.9375 4.390625 48.796875 1.578125 
Q 42.671875 -1.21875 35.015625 -1.21875 
Q 25.296875 -1.21875 18.71875 1.609375 
Q 12.15625 4.4375 8.421875 10.125 
Q 4.6875 15.828125 4.5 23 
z
" id="ArialMT-83"/>
        <path d="M 6.640625 61.46875 
L 6.640625 71.578125 
L 15.4375 71.578125 
L 15.4375 61.46875 
z
M 6.640625 0 
L 6.640625 51.859375 
L 15.4375 51.859375 
L 15.4375 0 
z
" id="ArialMT-105"/>
        <path d="M 4.984375 -4.296875 
L 13.53125 -5.5625 
Q 14.0625 -9.515625 16.5 -11.328125 
Q 19.78125 -13.765625 25.4375 -13.765625 
Q 31.546875 -13.765625 34.859375 -11.328125 
Q 38.1875 -8.890625 39.359375 -4.5 
Q 40.046875 -1.8125 39.984375 6.78125 
Q 34.234375 0 25.640625 0 
Q 14.9375 0 9.078125 7.71875 
Q 3.21875 15.4375 3.21875 26.21875 
Q 3.21875 33.640625 5.90625 39.90625 
Q 8.59375 46.1875 13.6875 49.609375 
Q 18.796875 53.03125 25.6875 53.03125 
Q 34.859375 53.03125 40.828125 45.609375 
L 40.828125 51.859375 
L 48.921875 51.859375 
L 48.921875 7.03125 
Q 48.921875 -5.078125 46.453125 -10.125 
Q 44 -15.1875 38.640625 -18.109375 
Q 33.296875 -21.046875 25.484375 -21.046875 
Q 16.21875 -21.046875 10.5 -16.875 
Q 4.78125 -12.703125 4.984375 -4.296875 
z
M 12.25 26.859375 
Q 12.25 16.65625 16.296875 11.96875 
Q 20.359375 7.28125 26.46875 7.28125 
Q 32.515625 7.28125 36.609375 11.9375 
Q 40.71875 16.609375 40.71875 26.5625 
Q 40.71875 36.078125 36.5 40.90625 
Q 32.28125 45.75 26.3125 45.75 
Q 20.453125 45.75 16.34375 40.984375 
Q 12.25 36.234375 12.25 26.859375 
z
" id="ArialMT-103"/>
        <path d="M 25.046875 11.578125 
L 25.046875 31.203125 
L 5.5625 31.203125 
L 5.5625 39.40625 
L 25.046875 39.40625 
L 25.046875 58.890625 
L 33.34375 58.890625 
L 33.34375 39.40625 
L 52.828125 39.40625 
L 52.828125 31.203125 
L 33.34375 31.203125 
L 33.34375 11.578125 
z
" id="ArialMT-43"/>
        <path d="M 7.421875 0 
L 7.421875 71.578125 
L 21.6875 71.578125 
L 38.625 20.90625 
Q 40.96875 13.8125 42.046875 10.296875 
Q 43.265625 14.203125 45.84375 21.78125 
L 62.984375 71.578125 
L 75.734375 71.578125 
L 75.734375 0 
L 66.609375 0 
L 66.609375 59.90625 
L 45.796875 0 
L 37.25 0 
L 16.546875 60.9375 
L 16.546875 0 
z
" id="ArialMT-77"/>
        <path d="M 3.328125 25.921875 
Q 3.328125 40.328125 11.328125 47.265625 
Q 18.015625 53.03125 27.640625 53.03125 
Q 38.328125 53.03125 45.109375 46.015625 
Q 51.90625 39.015625 51.90625 26.65625 
Q 51.90625 16.65625 48.90625 10.90625 
Q 45.90625 5.171875 40.15625 2 
Q 34.421875 -1.171875 27.640625 -1.171875 
Q 16.75 -1.171875 10.03125 5.8125 
Q 3.328125 12.796875 3.328125 25.921875 
z
M 12.359375 25.921875 
Q 12.359375 15.96875 16.703125 11.015625 
Q 21.046875 6.0625 27.640625 6.0625 
Q 34.1875 6.0625 38.53125 11.03125 
Q 42.875 16.015625 42.875 26.21875 
Q 42.875 35.84375 38.5 40.796875 
Q 34.125 45.75 27.640625 45.75 
Q 21.046875 45.75 16.703125 40.8125 
Q 12.359375 35.890625 12.359375 25.921875 
z
" id="ArialMT-111"/>
        <path d="M 40.234375 0 
L 40.234375 6.546875 
Q 35.296875 -1.171875 25.734375 -1.171875 
Q 19.53125 -1.171875 14.328125 2.25 
Q 9.125 5.671875 6.265625 11.796875 
Q 3.421875 17.921875 3.421875 25.875 
Q 3.421875 33.640625 6 39.96875 
Q 8.59375 46.296875 13.765625 49.65625 
Q 18.953125 53.03125 25.34375 53.03125 
Q 30.03125 53.03125 33.6875 51.046875 
Q 37.359375 49.078125 39.65625 45.90625 
L 39.65625 71.578125 
L 48.390625 71.578125 
L 48.390625 0 
z
M 12.453125 25.875 
Q 12.453125 15.921875 16.640625 10.984375 
Q 20.84375 6.0625 26.5625 6.0625 
Q 32.328125 6.0625 36.34375 10.765625 
Q 40.375 15.484375 40.375 25.140625 
Q 40.375 35.796875 36.265625 40.765625 
Q 32.171875 45.75 26.171875 45.75 
Q 20.3125 45.75 16.375 40.96875 
Q 12.453125 36.1875 12.453125 25.875 
z
" id="ArialMT-100"/>
        <path d="M 6.5 0 
L 6.5 51.859375 
L 14.40625 51.859375 
L 14.40625 44 
Q 17.4375 49.515625 20 51.265625 
Q 22.5625 53.03125 25.640625 53.03125 
Q 30.078125 53.03125 34.671875 50.203125 
L 31.640625 42.046875 
Q 28.421875 43.953125 25.203125 43.953125 
Q 22.3125 43.953125 20.015625 42.21875 
Q 17.71875 40.484375 16.75 37.40625 
Q 15.28125 32.71875 15.28125 27.15625 
L 15.28125 0 
z
" id="ArialMT-114"/>
        <path d="M 21 0 
L 1.265625 51.859375 
L 10.546875 51.859375 
L 21.6875 20.796875 
Q 23.484375 15.765625 25 10.359375 
Q 26.171875 14.453125 28.265625 20.21875 
L 39.796875 51.859375 
L 48.828125 51.859375 
L 29.203125 0 
z
" id="ArialMT-118"/>
       </defs>
       <use xlink:href="#ArialMT-83"/>
       <use x="66.699219" xlink:href="#ArialMT-108"/>
       <use x="88.916016" xlink:href="#ArialMT-105"/>
       <use x="111.132812" xlink:href="#ArialMT-103"/>
       <use x="166.748047" xlink:href="#ArialMT-104"/>
       <use x="222.363281" xlink:href="#ArialMT-116"/>
       <use x="250.146484" xlink:href="#ArialMT-43"/>
       <use x="308.544922" xlink:href="#ArialMT-77"/>
       <use x="391.845703" xlink:href="#ArialMT-111"/>
       <use x="447.460938" xlink:href="#ArialMT-100"/>
       <use x="503.076172" xlink:href="#ArialMT-101"/>
       <use x="558.691406" xlink:href="#ArialMT-114"/>
       <use x="591.992188" xlink:href="#ArialMT-97"/>
       <use x="647.607422" xlink:href="#ArialMT-116"/>
       <use x="675.390625" xlink:href="#ArialMT-101"/>
       <use x="731.005859" xlink:href="#ArialMT-43"/>
       <use x="789.404297" xlink:href="#ArialMT-83"/>
       <use x="856.103516" xlink:href="#ArialMT-101"/>
       <use x="911.71875" xlink:href="#ArialMT-118"/>
       <use x="961.71875" xlink:href="#ArialMT-101"/>
       <use x="1017.333984" xlink:href="#ArialMT-114"/>
       <use x="1050.634766" xlink:href="#ArialMT-101"/>
      </g>
     </g>
    </g>
   </g>
   <g id="matplotlib.axis_2">
    <g id="ytick_1">
     <g id="line2d_1">
      <path clip-path="url(#pff959575c6)" d="M 202.32 1094.69415 
L 1167.762269 1094.69415 
" style="fill:none;stroke:#cccccc;stroke-linecap:round;stroke-width:2;"/>
     </g>
     <g id="text_3">
      <!-- 0 -->
      <g style="fill:#262626;" transform="translate(159.015313 1112.588681)scale(0.5 -0.5)">
       <defs>
        <path d="M 4.15625 35.296875 
Q 4.15625 48 6.765625 55.734375 
Q 9.375 63.484375 14.515625 67.671875 
Q 19.671875 71.875 27.484375 71.875 
Q 33.25 71.875 37.59375 69.546875 
Q 41.9375 67.234375 44.765625 62.859375 
Q 47.609375 58.5 49.21875 52.21875 
Q 50.828125 45.953125 50.828125 35.296875 
Q 50.828125 22.703125 48.234375 14.96875 
Q 45.65625 7.234375 40.5 3 
Q 35.359375 -1.21875 27.484375 -1.21875 
Q 17.140625 -1.21875 11.234375 6.203125 
Q 4.15625 15.140625 4.15625 35.296875 
z
M 13.1875 35.296875 
Q 13.1875 17.671875 17.3125 11.828125 
Q 21.4375 6 27.484375 6 
Q 33.546875 6 37.671875 11.859375 
Q 41.796875 17.71875 41.796875 35.296875 
Q 41.796875 52.984375 37.671875 58.78125 
Q 33.546875 64.59375 27.390625 64.59375 
Q 21.34375 64.59375 17.71875 59.46875 
Q 13.1875 52.9375 13.1875 35.296875 
z
" id="ArialMT-48"/>
       </defs>
       <use xlink:href="#ArialMT-48"/>
      </g>
     </g>
    </g>
    <g id="ytick_2">
     <g id="line2d_2">
      <path clip-path="url(#pff959575c6)" d="M 202.32 970.134801 
L 1167.762269 970.134801 
" style="fill:none;stroke:#cccccc;stroke-linecap:round;stroke-width:2;"/>
     </g>
     <g id="text_4">
      <!-- 100 -->
      <g style="fill:#262626;" transform="translate(103.405938 988.029332)scale(0.5 -0.5)">
       <defs>
        <path d="M 37.25 0 
L 28.46875 0 
L 28.46875 56 
Q 25.296875 52.984375 20.140625 49.953125 
Q 14.984375 46.921875 10.890625 45.40625 
L 10.890625 53.90625 
Q 18.265625 57.375 23.78125 62.296875 
Q 29.296875 67.234375 31.59375 71.875 
L 37.25 71.875 
z
" id="ArialMT-49"/>
       </defs>
       <use xlink:href="#ArialMT-49"/>
       <use x="55.615234" xlink:href="#ArialMT-48"/>
       <use x="111.230469" xlink:href="#ArialMT-48"/>
      </g>
     </g>
    </g>
    <g id="ytick_3">
     <g id="line2d_3">
      <path clip-path="url(#pff959575c6)" d="M 202.32 845.575452 
L 1167.762269 845.575452 
" style="fill:none;stroke:#cccccc;stroke-linecap:round;stroke-width:2;"/>
     </g>
     <g id="text_5">
      <!-- 200 -->
      <g style="fill:#262626;" transform="translate(103.405938 863.469983)scale(0.5 -0.5)">
       <defs>
        <path d="M 50.34375 8.453125 
L 50.34375 0 
L 3.03125 0 
Q 2.9375 3.171875 4.046875 6.109375 
Q 5.859375 10.9375 9.828125 15.625 
Q 13.8125 20.3125 21.34375 26.46875 
Q 33.015625 36.03125 37.109375 41.625 
Q 41.21875 47.21875 41.21875 52.203125 
Q 41.21875 57.421875 37.46875 61 
Q 33.734375 64.59375 27.734375 64.59375 
Q 21.390625 64.59375 17.578125 60.78125 
Q 13.765625 56.984375 13.71875 50.25 
L 4.6875 51.171875 
Q 5.609375 61.28125 11.65625 66.578125 
Q 17.71875 71.875 27.9375 71.875 
Q 38.234375 71.875 44.234375 66.15625 
Q 50.25 60.453125 50.25 52 
Q 50.25 47.703125 48.484375 43.546875 
Q 46.734375 39.40625 42.65625 34.8125 
Q 38.578125 30.21875 29.109375 22.21875 
Q 21.1875 15.578125 18.9375 13.203125 
Q 16.703125 10.84375 15.234375 8.453125 
z
" id="ArialMT-50"/>
       </defs>
       <use xlink:href="#ArialMT-50"/>
       <use x="55.615234" xlink:href="#ArialMT-48"/>
       <use x="111.230469" xlink:href="#ArialMT-48"/>
      </g>
     </g>
    </g>
    <g id="ytick_4">
     <g id="line2d_4">
      <path clip-path="url(#pff959575c6)" d="M 202.32 721.016102 
L 1167.762269 721.016102 
" style="fill:none;stroke:#cccccc;stroke-linecap:round;stroke-width:2;"/>
     </g>
     <g id="text_6">
      <!-- 300 -->
      <g style="fill:#262626;" transform="translate(103.405938 738.910634)scale(0.5 -0.5)">
       <defs>
        <path d="M 4.203125 18.890625 
L 12.984375 20.0625 
Q 14.5 12.59375 18.140625 9.296875 
Q 21.78125 6 27 6 
Q 33.203125 6 37.46875 10.296875 
Q 41.75 14.59375 41.75 20.953125 
Q 41.75 27 37.796875 30.921875 
Q 33.84375 34.859375 27.734375 34.859375 
Q 25.25 34.859375 21.53125 33.890625 
L 22.515625 41.609375 
Q 23.390625 41.5 23.921875 41.5 
Q 29.546875 41.5 34.03125 44.421875 
Q 38.53125 47.359375 38.53125 53.46875 
Q 38.53125 58.296875 35.25 61.46875 
Q 31.984375 64.65625 26.8125 64.65625 
Q 21.6875 64.65625 18.265625 61.421875 
Q 14.84375 58.203125 13.875 51.765625 
L 5.078125 53.328125 
Q 6.6875 62.15625 12.390625 67.015625 
Q 18.109375 71.875 26.609375 71.875 
Q 32.46875 71.875 37.390625 69.359375 
Q 42.328125 66.84375 44.9375 62.5 
Q 47.5625 58.15625 47.5625 53.265625 
Q 47.5625 48.640625 45.0625 44.828125 
Q 42.578125 41.015625 37.703125 38.765625 
Q 44.046875 37.3125 47.5625 32.6875 
Q 51.078125 28.078125 51.078125 21.140625 
Q 51.078125 11.765625 44.234375 5.25 
Q 37.40625 -1.265625 26.953125 -1.265625 
Q 17.53125 -1.265625 11.296875 4.34375 
Q 5.078125 9.96875 4.203125 18.890625 
z
" id="ArialMT-51"/>
       </defs>
       <use xlink:href="#ArialMT-51"/>
       <use x="55.615234" xlink:href="#ArialMT-48"/>
       <use x="111.230469" xlink:href="#ArialMT-48"/>
      </g>
     </g>
    </g>
    <g id="ytick_5">
     <g id="line2d_5">
      <path clip-path="url(#pff959575c6)" d="M 202.32 596.456753 
L 1167.762269 596.456753 
" style="fill:none;stroke:#cccccc;stroke-linecap:round;stroke-width:2;"/>
     </g>
     <g id="text_7">
      <!-- 400 -->
      <g style="fill:#262626;" transform="translate(103.405938 614.351285)scale(0.5 -0.5)">
       <defs>
        <path d="M 32.328125 0 
L 32.328125 17.140625 
L 1.265625 17.140625 
L 1.265625 25.203125 
L 33.9375 71.578125 
L 41.109375 71.578125 
L 41.109375 25.203125 
L 50.78125 25.203125 
L 50.78125 17.140625 
L 41.109375 17.140625 
L 41.109375 0 
z
M 32.328125 25.203125 
L 32.328125 57.46875 
L 9.90625 25.203125 
z
" id="ArialMT-52"/>
       </defs>
       <use xlink:href="#ArialMT-52"/>
       <use x="55.615234" xlink:href="#ArialMT-48"/>
       <use x="111.230469" xlink:href="#ArialMT-48"/>
      </g>
     </g>
    </g>
    <g id="ytick_6">
     <g id="line2d_6">
      <path clip-path="url(#pff959575c6)" d="M 202.32 471.897404 
L 1167.762269 471.897404 
" style="fill:none;stroke:#cccccc;stroke-linecap:round;stroke-width:2;"/>
     </g>
     <g id="text_8">
      <!-- 500 -->
      <g style="fill:#262626;" transform="translate(103.405938 489.791935)scale(0.5 -0.5)">
       <defs>
        <path d="M 4.15625 18.75 
L 13.375 19.53125 
Q 14.40625 12.796875 18.140625 9.390625 
Q 21.875 6 27.15625 6 
Q 33.5 6 37.890625 10.78125 
Q 42.28125 15.578125 42.28125 23.484375 
Q 42.28125 31 38.0625 35.34375 
Q 33.84375 39.703125 27 39.703125 
Q 22.75 39.703125 19.328125 37.765625 
Q 15.921875 35.84375 13.96875 32.765625 
L 5.71875 33.84375 
L 12.640625 70.609375 
L 48.25 70.609375 
L 48.25 62.203125 
L 19.671875 62.203125 
L 15.828125 42.96875 
Q 22.265625 47.46875 29.34375 47.46875 
Q 38.71875 47.46875 45.15625 40.96875 
Q 51.609375 34.46875 51.609375 24.265625 
Q 51.609375 14.546875 45.953125 7.46875 
Q 39.0625 -1.21875 27.15625 -1.21875 
Q 17.390625 -1.21875 11.203125 4.25 
Q 5.03125 9.71875 4.15625 18.75 
z
" id="ArialMT-53"/>
       </defs>
       <use xlink:href="#ArialMT-53"/>
       <use x="55.615234" xlink:href="#ArialMT-48"/>
       <use x="111.230469" xlink:href="#ArialMT-48"/>
      </g>
     </g>
    </g>
    <g id="ytick_7">
     <g id="line2d_7">
      <path clip-path="url(#pff959575c6)" d="M 202.32 347.338055 
L 1167.762269 347.338055 
" style="fill:none;stroke:#cccccc;stroke-linecap:round;stroke-width:2;"/>
     </g>
     <g id="text_9">
      <!-- 600 -->
      <g style="fill:#262626;" transform="translate(103.405938 365.232586)scale(0.5 -0.5)">
       <defs>
        <path d="M 49.75 54.046875 
L 41.015625 53.375 
Q 39.84375 58.546875 37.703125 60.890625 
Q 34.125 64.65625 28.90625 64.65625 
Q 24.703125 64.65625 21.53125 62.3125 
Q 17.390625 59.28125 14.984375 53.46875 
Q 12.59375 47.65625 12.5 36.921875 
Q 15.671875 41.75 20.265625 44.09375 
Q 24.859375 46.4375 29.890625 46.4375 
Q 38.671875 46.4375 44.84375 39.96875 
Q 51.03125 33.5 51.03125 23.25 
Q 51.03125 16.5 48.125 10.71875 
Q 45.21875 4.9375 40.140625 1.859375 
Q 35.0625 -1.21875 28.609375 -1.21875 
Q 17.625 -1.21875 10.6875 6.859375 
Q 3.765625 14.9375 3.765625 33.5 
Q 3.765625 54.25 11.421875 63.671875 
Q 18.109375 71.875 29.4375 71.875 
Q 37.890625 71.875 43.28125 67.140625 
Q 48.6875 62.40625 49.75 54.046875 
z
M 13.875 23.1875 
Q 13.875 18.65625 15.796875 14.5 
Q 17.71875 10.359375 21.1875 8.171875 
Q 24.65625 6 28.46875 6 
Q 34.03125 6 38.03125 10.484375 
Q 42.046875 14.984375 42.046875 22.703125 
Q 42.046875 30.125 38.078125 34.390625 
Q 34.125 38.671875 28.125 38.671875 
Q 22.171875 38.671875 18.015625 34.390625 
Q 13.875 30.125 13.875 23.1875 
z
" id="ArialMT-54"/>
       </defs>
       <use xlink:href="#ArialMT-54"/>
       <use x="55.615234" xlink:href="#ArialMT-48"/>
       <use x="111.230469" xlink:href="#ArialMT-48"/>
      </g>
     </g>
    </g>
    <g id="ytick_8">
     <g id="line2d_8">
      <path clip-path="url(#pff959575c6)" d="M 202.32 222.778706 
L 1167.762269 222.778706 
" style="fill:none;stroke:#cccccc;stroke-linecap:round;stroke-width:2;"/>
     </g>
     <g id="text_10">
      <!-- 700 -->
      <g style="fill:#262626;" transform="translate(103.405938 240.673237)scale(0.5 -0.5)">
       <defs>
        <path d="M 4.734375 62.203125 
L 4.734375 70.65625 
L 51.078125 70.65625 
L 51.078125 63.8125 
Q 44.234375 56.546875 37.515625 44.484375 
Q 30.8125 32.421875 27.15625 19.671875 
Q 24.515625 10.6875 23.78125 0 
L 14.75 0 
Q 14.890625 8.453125 18.0625 20.40625 
Q 21.234375 32.375 27.171875 43.484375 
Q 33.109375 54.59375 39.796875 62.203125 
z
" id="ArialMT-55"/>
       </defs>
       <use xlink:href="#ArialMT-55"/>
       <use x="55.615234" xlink:href="#ArialMT-48"/>
       <use x="111.230469" xlink:href="#ArialMT-48"/>
      </g>
     </g>
    </g>
    <g id="ytick_9">
     <g id="line2d_9">
      <path clip-path="url(#pff959575c6)" d="M 202.32 98.219357 
L 1167.762269 98.219357 
" style="fill:none;stroke:#cccccc;stroke-linecap:round;stroke-width:2;"/>
     </g>
     <g id="text_11">
      <!-- 800 -->
      <g style="fill:#262626;" transform="translate(103.405938 116.113888)scale(0.5 -0.5)">
       <defs>
        <path d="M 17.671875 38.8125 
Q 12.203125 40.828125 9.5625 44.53125 
Q 6.9375 48.25 6.9375 53.421875 
Q 6.9375 61.234375 12.546875 66.546875 
Q 18.171875 71.875 27.484375 71.875 
Q 36.859375 71.875 42.578125 66.421875 
Q 48.296875 60.984375 48.296875 53.171875 
Q 48.296875 48.1875 45.671875 44.5 
Q 43.0625 40.828125 37.75 38.8125 
Q 44.34375 36.671875 47.78125 31.875 
Q 51.21875 27.09375 51.21875 20.453125 
Q 51.21875 11.28125 44.71875 5.03125 
Q 38.234375 -1.21875 27.640625 -1.21875 
Q 17.046875 -1.21875 10.546875 5.046875 
Q 4.046875 11.328125 4.046875 20.703125 
Q 4.046875 27.6875 7.59375 32.390625 
Q 11.140625 37.109375 17.671875 38.8125 
z
M 15.921875 53.71875 
Q 15.921875 48.640625 19.1875 45.40625 
Q 22.46875 42.1875 27.6875 42.1875 
Q 32.765625 42.1875 36.015625 45.375 
Q 39.265625 48.578125 39.265625 53.21875 
Q 39.265625 58.0625 35.90625 61.359375 
Q 32.5625 64.65625 27.59375 64.65625 
Q 22.5625 64.65625 19.234375 61.421875 
Q 15.921875 58.203125 15.921875 53.71875 
z
M 13.09375 20.65625 
Q 13.09375 16.890625 14.875 13.375 
Q 16.65625 9.859375 20.171875 7.921875 
Q 23.6875 6 27.734375 6 
Q 34.03125 6 38.125 10.046875 
Q 42.234375 14.109375 42.234375 20.359375 
Q 42.234375 26.703125 38.015625 30.859375 
Q 33.796875 35.015625 27.4375 35.015625 
Q 21.234375 35.015625 17.15625 30.90625 
Q 13.09375 26.8125 13.09375 20.65625 
z
" id="ArialMT-56"/>
       </defs>
       <use xlink:href="#ArialMT-56"/>
       <use x="55.615234" xlink:href="#ArialMT-48"/>
       <use x="111.230469" xlink:href="#ArialMT-48"/>
      </g>
     </g>
    </g>
    <g id="text_12">
     <!-- Abundance -->
     <g style="fill:#262626;" transform="translate(89.468438 764.582187)rotate(-90)scale(0.5 -0.5)">
      <defs>
       <path d="M -0.140625 0 
L 27.34375 71.578125 
L 37.546875 71.578125 
L 66.84375 0 
L 56.0625 0 
L 47.703125 21.6875 
L 17.78125 21.6875 
L 9.90625 0 
z
M 20.515625 29.390625 
L 44.78125 29.390625 
L 37.3125 49.21875 
Q 33.890625 58.25 32.234375 64.0625 
Q 30.859375 57.171875 28.375 50.390625 
z
" id="ArialMT-65"/>
       <path d="M 14.703125 0 
L 6.546875 0 
L 6.546875 71.578125 
L 15.328125 71.578125 
L 15.328125 46.046875 
Q 20.90625 53.03125 29.546875 53.03125 
Q 34.328125 53.03125 38.59375 51.09375 
Q 42.875 49.171875 45.625 45.671875 
Q 48.390625 42.1875 49.953125 37.25 
Q 51.515625 32.328125 51.515625 26.703125 
Q 51.515625 13.375 44.921875 6.09375 
Q 38.328125 -1.171875 29.109375 -1.171875 
Q 19.921875 -1.171875 14.703125 6.5 
z
M 14.59375 26.3125 
Q 14.59375 17 17.140625 12.84375 
Q 21.296875 6.0625 28.375 6.0625 
Q 34.125 6.0625 38.328125 11.0625 
Q 42.53125 16.0625 42.53125 25.984375 
Q 42.53125 36.140625 38.5 40.96875 
Q 34.46875 45.796875 28.765625 45.796875 
Q 23 45.796875 18.796875 40.796875 
Q 14.59375 35.796875 14.59375 26.3125 
z
" id="ArialMT-98"/>
       <path d="M 40.578125 0 
L 40.578125 7.625 
Q 34.515625 -1.171875 24.125 -1.171875 
Q 19.53125 -1.171875 15.546875 0.578125 
Q 11.578125 2.34375 9.640625 5 
Q 7.71875 7.671875 6.9375 11.53125 
Q 6.390625 14.109375 6.390625 19.734375 
L 6.390625 51.859375 
L 15.1875 51.859375 
L 15.1875 23.09375 
Q 15.1875 16.21875 15.71875 13.8125 
Q 16.546875 10.359375 19.234375 8.375 
Q 21.921875 6.390625 25.875 6.390625 
Q 29.828125 6.390625 33.296875 8.421875 
Q 36.765625 10.453125 38.203125 13.9375 
Q 39.65625 17.4375 39.65625 24.078125 
L 39.65625 51.859375 
L 48.4375 51.859375 
L 48.4375 0 
z
" id="ArialMT-117"/>
       <path d="M 6.59375 0 
L 6.59375 51.859375 
L 14.5 51.859375 
L 14.5 44.484375 
Q 20.21875 53.03125 31 53.03125 
Q 35.6875 53.03125 39.625 51.34375 
Q 43.5625 49.65625 45.515625 46.921875 
Q 47.46875 44.1875 48.25 40.4375 
Q 48.734375 37.984375 48.734375 31.890625 
L 48.734375 0 
L 39.9375 0 
L 39.9375 31.546875 
Q 39.9375 36.921875 38.90625 39.578125 
Q 37.890625 42.234375 35.28125 43.8125 
Q 32.671875 45.40625 29.15625 45.40625 
Q 23.53125 45.40625 19.453125 41.84375 
Q 15.375 38.28125 15.375 28.328125 
L 15.375 0 
z
" id="ArialMT-110"/>
       <path d="M 40.4375 19 
L 49.078125 17.875 
Q 47.65625 8.9375 41.8125 3.875 
Q 35.984375 -1.171875 27.484375 -1.171875 
Q 16.84375 -1.171875 10.375 5.78125 
Q 3.90625 12.75 3.90625 25.734375 
Q 3.90625 34.125 6.6875 40.421875 
Q 9.46875 46.734375 15.15625 49.875 
Q 20.84375 53.03125 27.546875 53.03125 
Q 35.984375 53.03125 41.359375 48.75 
Q 46.734375 44.484375 48.25 36.625 
L 39.703125 35.296875 
Q 38.484375 40.53125 35.375 43.15625 
Q 32.28125 45.796875 27.875 45.796875 
Q 21.234375 45.796875 17.078125 41.03125 
Q 12.9375 36.28125 12.9375 25.984375 
Q 12.9375 15.53125 16.9375 10.796875 
Q 20.953125 6.0625 27.390625 6.0625 
Q 32.5625 6.0625 36.03125 9.234375 
Q 39.5 12.40625 40.4375 19 
z
" id="ArialMT-99"/>
      </defs>
      <use xlink:href="#ArialMT-65"/>
      <use x="66.699219" xlink:href="#ArialMT-98"/>
      <use x="122.314453" xlink:href="#ArialMT-117"/>
      <use x="177.929688" xlink:href="#ArialMT-110"/>
      <use x="233.544922" xlink:href="#ArialMT-100"/>
      <use x="289.160156" xlink:href="#ArialMT-97"/>
      <use x="344.775391" xlink:href="#ArialMT-110"/>
      <use x="400.390625" xlink:href="#ArialMT-99"/>
      <use x="450.390625" xlink:href="#ArialMT-101"/>
     </g>
    </g>
   </g>
   <g id="PolyCollection_1">
    <defs>
     <path d="M 557.387371 -161.970078 
L 350.458087 -161.970078 
L 323.139664 -171.244841 
L 296.653627 -180.519604 
L 273.721082 -189.794368 
L 256.775088 -199.069131 
L 247.439161 -208.343894 
L 246.20374 -217.618657 
L 252.403919 -226.89342 
L 264.489659 -236.168184 
L 280.474701 -245.442947 
L 298.400479 -254.71771 
L 316.673553 -263.992473 
L 334.209586 -273.267236 
L 350.40167 -282.542 
L 364.987083 -291.816763 
L 377.897489 -301.091526 
L 389.151191 -310.366289 
L 398.805055 -319.641052 
L 406.950442 -328.915816 
L 413.723763 -338.190579 
L 419.307551 -347.465342 
L 423.913186 -356.740105 
L 427.751121 -366.014869 
L 431.001668 -375.289632 
L 433.797773 -384.564395 
L 436.224107 -393.839158 
L 438.329216 -403.113921 
L 440.143228 -412.388685 
L 441.69368 -421.663448 
L 443.015064 -430.938211 
L 444.151253 -440.212974 
L 445.152385 -449.487737 
L 446.068625 -458.762501 
L 446.943003 -468.037264 
L 447.805123 -477.312027 
L 448.667206 -486.58679 
L 449.523547 -495.861553 
L 450.353809 -505.136317 
L 451.129495 -514.41108 
L 451.821867 -523.685843 
L 452.409109 -532.960606 
L 452.880804 -542.235369 
L 453.238896 -551.510133 
L 453.495526 -560.784896 
L 453.669032 -570.059659 
L 453.779661 -579.334422 
L 453.846177 -588.609186 
L 453.88389 -597.883949 
L 453.904053 -607.158712 
L 453.914222 -616.433475 
L 453.919059 -625.708238 
L 453.92123 -634.983002 
L 453.922149 -644.257765 
L 453.922517 -653.532528 
L 453.922656 -662.807291 
L 453.922705 -672.082054 
L 453.922722 -681.356818 
L 453.922727 -690.631581 
L 453.922728 -699.906344 
L 453.922729 -709.181107 
L 453.922729 -718.45587 
L 453.922729 -727.730634 
L 453.922729 -737.005397 
L 453.922729 -746.28016 
L 453.922729 -755.554923 
L 453.922729 -764.829687 
L 453.922729 -774.10445 
L 453.922729 -783.379213 
L 453.922729 -792.653976 
L 453.922729 -801.928739 
L 453.922729 -811.203503 
L 453.922729 -820.478266 
L 453.922727 -829.753029 
L 453.922723 -839.027792 
L 453.92271 -848.302555 
L 453.922671 -857.577319 
L 453.922561 -866.852082 
L 453.922266 -876.126845 
L 453.92152 -885.401608 
L 453.919743 -894.676371 
L 453.915754 -903.951135 
L 453.907319 -913.225898 
L 453.890524 -922.500661 
L 453.859063 -931.775424 
L 453.803675 -941.050188 
L 453.71214 -950.324951 
L 453.57037 -959.599714 
L 453.365044 -968.874477 
L 453.087803 -978.14924 
L 452.740332 -987.424004 
L 452.338805 -996.698767 
L 451.915666 -1005.97353 
L 451.517018 -1015.248293 
L 451.195124 -1024.523056 
L 450.997396 -1033.79782 
L 450.954996 -1043.072583 
L 451.074795 -1052.347346 
L 451.337549 -1061.622109 
L 451.702962 -1070.896872 
L 452.119796 -1080.171636 
L 455.725662 -1080.171636 
L 455.725662 -1080.171636 
L 456.142496 -1070.896872 
L 456.507909 -1061.622109 
L 456.770663 -1052.347346 
L 456.890462 -1043.072583 
L 456.848062 -1033.79782 
L 456.650334 -1024.523056 
L 456.32844 -1015.248293 
L 455.929792 -1005.97353 
L 455.506653 -996.698767 
L 455.105126 -987.424004 
L 454.757655 -978.14924 
L 454.480414 -968.874477 
L 454.275088 -959.599714 
L 454.133318 -950.324951 
L 454.041783 -941.050188 
L 453.986395 -931.775424 
L 453.954934 -922.500661 
L 453.938139 -913.225898 
L 453.929704 -903.951135 
L 453.925715 -894.676371 
L 453.923938 -885.401608 
L 453.923192 -876.126845 
L 453.922897 -866.852082 
L 453.922787 -857.577319 
L 453.922748 -848.302555 
L 453.922735 -839.027792 
L 453.922731 -829.753029 
L 453.922729 -820.478266 
L 453.922729 -811.203503 
L 453.922729 -801.928739 
L 453.922729 -792.653976 
L 453.922729 -783.379213 
L 453.922729 -774.10445 
L 453.922729 -764.829687 
L 453.922729 -755.554923 
L 453.922729 -746.28016 
L 453.922729 -737.005397 
L 453.922729 -727.730634 
L 453.922729 -718.45587 
L 453.922729 -709.181107 
L 453.92273 -699.906344 
L 453.922731 -690.631581 
L 453.922736 -681.356818 
L 453.922753 -672.082054 
L 453.922802 -662.807291 
L 453.922941 -653.532528 
L 453.923309 -644.257765 
L 453.924228 -634.983002 
L 453.926399 -625.708238 
L 453.931236 -616.433475 
L 453.941405 -607.158712 
L 453.961568 -597.883949 
L 453.99928 -588.609186 
L 454.065797 -579.334422 
L 454.176426 -570.059659 
L 454.349932 -560.784896 
L 454.606562 -551.510133 
L 454.964654 -542.235369 
L 455.436349 -532.960606 
L 456.02359 -523.685843 
L 456.715963 -514.41108 
L 457.491649 -505.136317 
L 458.321911 -495.861553 
L 459.178252 -486.58679 
L 460.040335 -477.312027 
L 460.902455 -468.037264 
L 461.776833 -458.762501 
L 462.693073 -449.487737 
L 463.694205 -440.212974 
L 464.830394 -430.938211 
L 466.151778 -421.663448 
L 467.70223 -412.388685 
L 469.516242 -403.113921 
L 471.621351 -393.839158 
L 474.047685 -384.564395 
L 476.84379 -375.289632 
L 480.094337 -366.014869 
L 483.932272 -356.740105 
L 488.537907 -347.465342 
L 494.121695 -338.190579 
L 500.895016 -328.915816 
L 509.040403 -319.641052 
L 518.694267 -310.366289 
L 529.947968 -301.091526 
L 542.858375 -291.816763 
L 557.443788 -282.542 
L 573.635872 -273.267236 
L 591.171905 -263.992473 
L 609.444979 -254.71771 
L 627.370757 -245.442947 
L 643.355799 -236.168184 
L 655.441539 -226.89342 
L 661.641718 -217.618657 
L 660.406297 -208.343894 
L 651.07037 -199.069131 
L 634.124375 -189.794368 
L 611.191831 -180.519604 
L 584.705794 -171.244841 
L 557.387371 -161.970078 
z
" id="m05ab5b0490" style="stroke:#4c4c4c;stroke-width:5;"/>
    </defs>
    <g clip-path="url(#pff959575c6)">
     <use style="fill:#5875a4;stroke:#4c4c4c;stroke-width:5;" x="0" xlink:href="#m05ab5b0490" y="1296"/>
    </g>
   </g>
   <g id="PolyCollection_2">
    <defs>
     <path d="M 1028.396499 -170.524052 
L 918.043906 -170.524052 
L 907.205858 -175.675337 
L 896.044975 -180.826622 
L 884.971056 -185.977908 
L 874.396403 -191.129193 
L 864.68932 -196.280479 
L 856.132145 -201.431764 
L 848.891324 -206.583049 
L 843.004938 -211.734335 
L 838.389771 -216.88562 
L 834.866212 -222.036906 
L 832.196026 -227.188191 
L 830.125976 -232.339476 
L 828.42976 -237.490762 
L 826.941788 -242.642047 
L 825.578365 -247.793333 
L 824.344354 -252.944618 
L 823.325783 -258.095903 
L 822.670713 -263.247189 
L 822.561876 -268.398474 
L 823.185227 -273.54976 
L 824.69864 -278.701045 
L 827.204771 -283.85233 
L 830.731585 -289.003616 
L 835.223144 -294.154901 
L 840.542062 -299.306186 
L 846.483471 -304.457472 
L 852.79867 -309.608757 
L 859.225044 -314.760043 
L 865.517699 -319.911328 
L 871.477832 -325.062613 
L 876.973322 -330.213899 
L 881.948362 -335.365184 
L 886.420891 -340.51647 
L 890.468822 -345.667755 
L 894.20806 -350.81904 
L 897.76668 -355.970326 
L 901.260148 -361.121611 
L 904.771943 -366.272897 
L 908.342601 -371.424182 
L 911.968359 -376.575467 
L 915.608583 -381.726753 
L 919.199527 -386.878038 
L 922.670998 -392.029324 
L 925.962252 -397.180609 
L 929.034069 -402.331894 
L 931.875068 -407.48318 
L 934.501717 -412.634465 
L 936.952837 -417.785751 
L 939.280355 -422.937036 
L 941.538528 -428.088321 
L 943.773826 -433.239607 
L 946.017147 -438.390892 
L 948.279366 -443.542177 
L 950.550436 -448.693463 
L 952.801638 -453.844748 
L 954.990175 -458.996034 
L 957.065142 -464.147319 
L 958.973901 -469.298604 
L 960.668103 -474.44989 
L 962.108763 -479.601175 
L 963.270058 -484.752461 
L 964.14168 -489.903746 
L 964.729736 -495.055031 
L 965.056291 -500.206317 
L 965.157719 -505.357602 
L 965.082046 -510.508888 
L 964.885524 -515.660173 
L 964.628617 -520.811458 
L 964.371675 -525.962744 
L 964.170541 -531.114029 
L 964.072408 -536.265315 
L 964.112308 -541.4166 
L 964.31057 -546.567885 
L 964.671598 -551.719171 
L 965.184147 -556.870456 
L 965.823137 -562.021742 
L 966.552781 -567.173027 
L 967.330669 -572.324312 
L 968.112245 -577.475598 
L 968.855157 -582.626883 
L 969.522977 -587.778168 
L 970.087945 -592.929454 
L 970.532602 -598.080739 
L 970.850303 -603.232025 
L 971.044763 -608.38331 
L 971.128815 -613.534595 
L 971.1226 -618.685881 
L 971.051347 -623.837166 
L 970.942927 -628.988452 
L 970.825314 -634.139737 
L 970.724143 -639.291022 
L 970.660562 -644.442308 
L 970.649587 -649.593593 
L 970.699151 -654.744879 
L 970.809966 -659.896164 
L 970.976208 -665.047449 
L 971.186897 -670.198735 
L 971.42776 -675.35002 
L 971.68326 -680.501306 
L 974.757146 -680.501306 
L 974.757146 -680.501306 
L 975.012646 -675.35002 
L 975.253508 -670.198735 
L 975.464197 -665.047449 
L 975.630439 -659.896164 
L 975.741254 -654.744879 
L 975.790818 -649.593593 
L 975.779843 -644.442308 
L 975.716263 -639.291022 
L 975.615092 -634.139737 
L 975.497478 -628.988452 
L 975.389058 -623.837166 
L 975.317805 -618.685881 
L 975.31159 -613.534595 
L 975.395643 -608.38331 
L 975.590102 -603.232025 
L 975.907803 -598.080739 
L 976.35246 -592.929454 
L 976.917428 -587.778168 
L 977.585248 -582.626883 
L 978.328161 -577.475598 
L 979.109736 -572.324312 
L 979.887624 -567.173027 
L 980.617269 -562.021742 
L 981.256258 -556.870456 
L 981.768807 -551.719171 
L 982.129835 -546.567885 
L 982.328097 -541.4166 
L 982.367997 -536.265315 
L 982.269865 -531.114029 
L 982.06873 -525.962744 
L 981.811789 -520.811458 
L 981.554882 -515.660173 
L 981.358359 -510.508888 
L 981.282687 -505.357602 
L 981.384114 -500.206317 
L 981.710669 -495.055031 
L 982.298725 -489.903746 
L 983.170347 -484.752461 
L 984.331642 -479.601175 
L 985.772302 -474.44989 
L 987.466504 -469.298604 
L 989.375263 -464.147319 
L 991.45023 -458.996034 
L 993.638768 -453.844748 
L 995.889969 -448.693463 
L 998.161039 -443.542177 
L 1000.423258 -438.390892 
L 1002.666579 -433.239607 
L 1004.901877 -428.088321 
L 1007.160051 -422.937036 
L 1009.487568 -417.785751 
L 1011.938688 -412.634465 
L 1014.565337 -407.48318 
L 1017.406336 -402.331894 
L 1020.478153 -397.180609 
L 1023.769407 -392.029324 
L 1027.240878 -386.878038 
L 1030.831823 -381.726753 
L 1034.472046 -376.575467 
L 1038.097804 -371.424182 
L 1041.668462 -366.272897 
L 1045.180257 -361.121611 
L 1048.673726 -355.970326 
L 1052.232345 -350.81904 
L 1055.971583 -345.667755 
L 1060.019514 -340.51647 
L 1064.492043 -335.365184 
L 1069.467083 -330.213899 
L 1074.962574 -325.062613 
L 1080.922706 -319.911328 
L 1087.215362 -314.760043 
L 1093.641735 -309.608757 
L 1099.956934 -304.457472 
L 1105.898343 -299.306186 
L 1111.217261 -294.154901 
L 1115.70882 -289.003616 
L 1119.235634 -283.85233 
L 1121.741765 -278.701045 
L 1123.255178 -273.54976 
L 1123.87853 -268.398474 
L 1123.769693 -263.247189 
L 1123.114622 -258.095903 
L 1122.096052 -252.944618 
L 1120.862041 -247.793333 
L 1119.498618 -242.642047 
L 1118.010646 -237.490762 
L 1116.314429 -232.339476 
L 1114.244379 -227.188191 
L 1111.574194 -222.036906 
L 1108.050634 -216.88562 
L 1103.435467 -211.734335 
L 1097.549082 -206.583049 
L 1090.30826 -201.431764 
L 1081.751085 -196.280479 
L 1072.044003 -191.129193 
L 1061.469349 -185.977908 
L 1050.39543 -180.826622 
L 1039.234547 -175.675337 
L 1028.396499 -170.524052 
z
" id="m013998110f" style="stroke:#4c4c4c;stroke-width:5;"/>
    </defs>
    <g clip-path="url(#pff959575c6)">
     <use style="fill:#cc8963;stroke:#4c4c4c;stroke-width:5;" x="0" xlink:href="#m013998110f" y="1296"/>
    </g>
   </g>
   <g id="line2d_10">
    <path clip-path="url(#pff959575c6)" d="M 453.922729 1094.69415 
L 453.922729 931.521402 
" style="fill:none;stroke:#4c4c4c;stroke-linecap:round;stroke-width:5;"/>
   </g>
   <g id="line2d_11">
    <path clip-path="url(#pff959575c6)" d="M 453.922729 1094.69415 
L 453.922729 1028.054898 
" style="fill:none;stroke:#4c4c4c;stroke-linecap:round;stroke-width:15;"/>
   </g>
   <g id="line2d_12">
    <path clip-path="url(#pff959575c6)" d="M 973.220203 1094.69415 
L 973.220203 835.610704 
" style="fill:none;stroke:#4c4c4c;stroke-linecap:round;stroke-width:5;"/>
   </g>
   <g id="line2d_13">
    <path clip-path="url(#pff959575c6)" d="M 973.220203 1064.177109 
L 973.220203 956.121874 
" style="fill:none;stroke:#4c4c4c;stroke-linecap:round;stroke-width:15;"/>
   </g>
   <g id="line2d_14">
    <path clip-path="url(#pff959575c6)" d="M 453.922729 194.562834 
L 453.922729 174.3624 
L 973.220203 174.3624 
L 973.220203 194.562834 
" style="fill:none;stroke:#333333;stroke-linecap:round;stroke-width:1.5;"/>
   </g>
   <g id="patch_3">
    <path d="M 202.32 1179.94 
L 202.32 96.24 
" style="fill:none;stroke:#cccccc;stroke-linecap:square;stroke-linejoin:miter;stroke-width:2.5;"/>
   </g>
   <g id="patch_4">
    <path d="M 1167.762269 1179.94 
L 1167.762269 96.24 
" style="fill:none;stroke:#cccccc;stroke-linecap:square;stroke-linejoin:miter;stroke-width:2.5;"/>
   </g>
   <g id="patch_5">
    <path d="M 202.32 1179.94 
L 1167.762269 1179.94 
" style="fill:none;stroke:#cccccc;stroke-linecap:square;stroke-linejoin:miter;stroke-width:2.5;"/>
   </g>
   <g id="patch_6">
    <path d="M 202.32 96.24 
L 1167.762269 96.24 
" style="fill:none;stroke:#cccccc;stroke-linecap:square;stroke-linejoin:miter;stroke-width:2.5;"/>
   </g>
   <g id="PathCollection_1">
    <defs>
     <path d="M 0 5 
C 1.326016 5 2.597899 4.473168 3.535534 3.535534 
C 4.473168 2.597899 5 1.326016 5 0 
C 5 -1.326016 4.473168 -2.597899 3.535534 -3.535534 
C 2.597899 -4.473168 1.326016 -5 0 -5 
C -1.326016 -5 -2.597899 -4.473168 -3.535534 -3.535534 
C -4.473168 -2.597899 -5 -1.326016 -5 0 
C -5 1.326016 -4.473168 2.597899 -3.535534 3.535534 
C -2.597899 4.473168 -1.326016 5 0 5 
z
" id="m7265227f4e" style="stroke:#4c4c4c;stroke-width:2;"/>
    </defs>
    <g clip-path="url(#pff959575c6)">
     <use style="fill:#ffffff;stroke:#4c4c4c;stroke-width:2;" x="453.922729" xlink:href="#m7265227f4e" y="1087.220589"/>
    </g>
   </g>
   <g id="PathCollection_2">
    <g clip-path="url(#pff959575c6)">
     <use style="fill:#ffffff;stroke:#4c4c4c;stroke-width:2;" x="973.220203" xlink:href="#m7265227f4e" y="1016.844557"/>
    </g>
   </g>
   <g id="text_13">
    <!-- **** -->
    <g transform="translate(674.649591 163.4249)scale(0.5 -0.5)">
     <defs>
      <path d="M 3.125 58.453125 
L 5.375 65.375 
Q 13.140625 62.640625 16.65625 60.640625 
Q 15.71875 69.484375 15.671875 72.796875 
L 22.75 72.796875 
Q 22.609375 67.96875 21.625 60.6875 
Q 26.65625 63.234375 33.15625 65.375 
L 35.40625 58.453125 
Q 29.203125 56.390625 23.25 55.71875 
Q 26.21875 53.125 31.640625 46.484375 
L 25.78125 42.328125 
Q 22.953125 46.1875 19.09375 52.828125 
Q 15.484375 45.953125 12.75 42.328125 
L 6.984375 46.484375 
Q 12.640625 53.46875 15.09375 55.71875 
Q 8.796875 56.9375 3.125 58.453125 
z
" id="ArialMT-42"/>
     </defs>
     <use xlink:href="#ArialMT-42"/>
     <use x="38.916016" xlink:href="#ArialMT-42"/>
     <use x="77.832031" xlink:href="#ArialMT-42"/>
     <use x="116.748047" xlink:href="#ArialMT-42"/>
    </g>
   </g>
   <g id="text_14">
    <!-- Campylobacter showae (K.W. p=4.14e-08) -->
    <g transform="translate(213.298947 90.24)scale(0.5 -0.5)">
     <defs>
      <path d="M 58.796875 25.09375 
L 68.265625 22.703125 
Q 65.28125 11.03125 57.546875 4.90625 
Q 49.8125 -1.21875 38.625 -1.21875 
Q 27.046875 -1.21875 19.796875 3.484375 
Q 12.546875 8.203125 8.765625 17.140625 
Q 4.984375 26.078125 4.984375 36.328125 
Q 4.984375 47.515625 9.25 55.828125 
Q 13.53125 64.15625 21.40625 68.46875 
Q 29.296875 72.796875 38.765625 72.796875 
Q 49.515625 72.796875 56.828125 67.328125 
Q 64.15625 61.859375 67.046875 51.953125 
L 57.71875 49.75 
Q 55.21875 57.5625 50.484375 61.125 
Q 45.75 64.703125 38.578125 64.703125 
Q 30.328125 64.703125 24.78125 60.734375 
Q 19.234375 56.78125 16.984375 50.109375 
Q 14.75 43.453125 14.75 36.375 
Q 14.75 27.25 17.40625 20.4375 
Q 20.0625 13.625 25.671875 10.25 
Q 31.296875 6.890625 37.84375 6.890625 
Q 45.796875 6.890625 51.3125 11.46875 
Q 56.84375 16.0625 58.796875 25.09375 
z
" id="ArialMT-67"/>
      <path d="M 6.59375 0 
L 6.59375 51.859375 
L 14.453125 51.859375 
L 14.453125 44.578125 
Q 16.890625 48.390625 20.9375 50.703125 
Q 25 53.03125 30.171875 53.03125 
Q 35.9375 53.03125 39.625 50.640625 
Q 43.3125 48.25 44.828125 43.953125 
Q 50.984375 53.03125 60.84375 53.03125 
Q 68.5625 53.03125 72.703125 48.75 
Q 76.859375 44.484375 76.859375 35.59375 
L 76.859375 0 
L 68.109375 0 
L 68.109375 32.671875 
Q 68.109375 37.9375 67.25 40.25 
Q 66.40625 42.578125 64.15625 43.984375 
Q 61.921875 45.40625 58.890625 45.40625 
Q 53.421875 45.40625 49.796875 41.765625 
Q 46.1875 38.140625 46.1875 30.125 
L 46.1875 0 
L 37.40625 0 
L 37.40625 33.6875 
Q 37.40625 39.546875 35.25 42.46875 
Q 33.109375 45.40625 28.21875 45.40625 
Q 24.515625 45.40625 21.359375 43.453125 
Q 18.21875 41.5 16.796875 37.734375 
Q 15.375 33.984375 15.375 26.90625 
L 15.375 0 
z
" id="ArialMT-109"/>
      <path d="M 6.59375 -19.875 
L 6.59375 51.859375 
L 14.59375 51.859375 
L 14.59375 45.125 
Q 17.4375 49.078125 21 51.046875 
Q 24.5625 53.03125 29.640625 53.03125 
Q 36.28125 53.03125 41.359375 49.609375 
Q 46.4375 46.1875 49.015625 39.953125 
Q 51.609375 33.734375 51.609375 26.3125 
Q 51.609375 18.359375 48.75 11.984375 
Q 45.90625 5.609375 40.453125 2.21875 
Q 35.015625 -1.171875 29 -1.171875 
Q 24.609375 -1.171875 21.109375 0.6875 
Q 17.625 2.546875 15.375 5.375 
L 15.375 -19.875 
z
M 14.546875 25.640625 
Q 14.546875 15.625 18.59375 10.84375 
Q 22.65625 6.0625 28.421875 6.0625 
Q 34.28125 6.0625 38.453125 11.015625 
Q 42.625 15.96875 42.625 26.375 
Q 42.625 36.28125 38.546875 41.203125 
Q 34.46875 46.140625 28.8125 46.140625 
Q 23.1875 46.140625 18.859375 40.890625 
Q 14.546875 35.640625 14.546875 25.640625 
z
" id="ArialMT-112"/>
      <path id="ArialMT-32"/>
      <path d="M 3.078125 15.484375 
L 11.765625 16.84375 
Q 12.5 11.625 15.84375 8.84375 
Q 19.1875 6.0625 25.203125 6.0625 
Q 31.25 6.0625 34.171875 8.515625 
Q 37.109375 10.984375 37.109375 14.3125 
Q 37.109375 17.28125 34.515625 19 
Q 32.71875 20.171875 25.53125 21.96875 
Q 15.875 24.421875 12.140625 26.203125 
Q 8.40625 27.984375 6.46875 31.125 
Q 4.546875 34.28125 4.546875 38.09375 
Q 4.546875 41.546875 6.125 44.5 
Q 7.71875 47.46875 10.453125 49.421875 
Q 12.5 50.921875 16.03125 51.96875 
Q 19.578125 53.03125 23.640625 53.03125 
Q 29.734375 53.03125 34.34375 51.265625 
Q 38.96875 49.515625 41.15625 46.5 
Q 43.359375 43.5 44.1875 38.484375 
L 35.59375 37.3125 
Q 35.015625 41.3125 32.203125 43.546875 
Q 29.390625 45.796875 24.265625 45.796875 
Q 18.21875 45.796875 15.625 43.796875 
Q 13.03125 41.796875 13.03125 39.109375 
Q 13.03125 37.40625 14.109375 36.03125 
Q 15.1875 34.625 17.484375 33.6875 
Q 18.796875 33.203125 25.25 31.453125 
Q 34.578125 28.953125 38.25 27.359375 
Q 41.9375 25.78125 44.03125 22.75 
Q 46.140625 19.734375 46.140625 15.234375 
Q 46.140625 10.84375 43.578125 6.953125 
Q 41.015625 3.078125 36.171875 0.953125 
Q 31.34375 -1.171875 25.25 -1.171875 
Q 15.140625 -1.171875 9.84375 3.03125 
Q 4.546875 7.234375 3.078125 15.484375 
z
" id="ArialMT-115"/>
      <path d="M 16.15625 0 
L 0.296875 51.859375 
L 9.375 51.859375 
L 17.625 21.921875 
L 20.703125 10.796875 
Q 20.90625 11.625 23.390625 21.484375 
L 31.640625 51.859375 
L 40.671875 51.859375 
L 48.4375 21.78125 
L 51.03125 11.859375 
L 54 21.875 
L 62.890625 51.859375 
L 71.4375 51.859375 
L 55.21875 0 
L 46.09375 0 
L 37.84375 31.0625 
L 35.84375 39.890625 
L 25.34375 0 
z
" id="ArialMT-119"/>
      <path d="M 23.390625 -21.046875 
Q 16.109375 -11.859375 11.078125 0.4375 
Q 6.0625 12.75 6.0625 25.921875 
Q 6.0625 37.546875 9.8125 48.1875 
Q 14.203125 60.546875 23.390625 72.796875 
L 29.6875 72.796875 
Q 23.78125 62.640625 21.875 58.296875 
Q 18.890625 51.5625 17.1875 44.234375 
Q 15.09375 35.109375 15.09375 25.875 
Q 15.09375 2.390625 29.6875 -21.046875 
z
" id="ArialMT-40"/>
      <path d="M 7.328125 0 
L 7.328125 71.578125 
L 16.796875 71.578125 
L 16.796875 36.078125 
L 52.34375 71.578125 
L 65.1875 71.578125 
L 35.15625 42.578125 
L 66.5 0 
L 54 0 
L 28.515625 36.234375 
L 16.796875 24.8125 
L 16.796875 0 
z
" id="ArialMT-75"/>
      <path d="M 9.078125 0 
L 9.078125 10.015625 
L 19.09375 10.015625 
L 19.09375 0 
z
" id="ArialMT-46"/>
      <path d="M 20.21875 0 
L 1.21875 71.578125 
L 10.9375 71.578125 
L 21.828125 24.65625 
Q 23.578125 17.28125 24.859375 10.015625 
Q 27.59375 21.484375 28.078125 23.25 
L 41.703125 71.578125 
L 53.125 71.578125 
L 63.375 35.359375 
Q 67.234375 21.875 68.953125 10.015625 
Q 70.3125 16.796875 72.515625 25.59375 
L 83.734375 71.578125 
L 93.265625 71.578125 
L 73.640625 0 
L 64.5 0 
L 49.421875 54.546875 
Q 47.515625 61.375 47.171875 62.9375 
Q 46.046875 58.015625 45.0625 54.546875 
L 29.890625 0 
z
" id="ArialMT-87"/>
      <path d="M 52.828125 42.09375 
L 5.5625 42.09375 
L 5.5625 50.296875 
L 52.828125 50.296875 
z
M 52.828125 20.359375 
L 5.5625 20.359375 
L 5.5625 28.5625 
L 52.828125 28.5625 
z
" id="ArialMT-61"/>
      <path d="M 3.171875 21.484375 
L 3.171875 30.328125 
L 30.171875 30.328125 
L 30.171875 21.484375 
z
" id="ArialMT-45"/>
      <path d="M 12.359375 -21.046875 
L 6.0625 -21.046875 
Q 20.65625 2.390625 20.65625 25.875 
Q 20.65625 35.0625 18.5625 44.09375 
Q 16.890625 51.421875 13.921875 58.15625 
Q 12.015625 62.546875 6.0625 72.796875 
L 12.359375 72.796875 
Q 21.53125 60.546875 25.921875 48.1875 
Q 29.6875 37.546875 29.6875 25.921875 
Q 29.6875 12.75 24.625 0.4375 
Q 19.578125 -11.859375 12.359375 -21.046875 
z
" id="ArialMT-41"/>
     </defs>
     <use xlink:href="#ArialMT-67"/>
     <use x="72.216797" xlink:href="#ArialMT-97"/>
     <use x="127.832031" xlink:href="#ArialMT-109"/>
     <use x="211.132812" xlink:href="#ArialMT-112"/>
     <use x="266.748047" xlink:href="#ArialMT-121"/>
     <use x="316.748047" xlink:href="#ArialMT-108"/>
     <use x="338.964844" xlink:href="#ArialMT-111"/>
     <use x="394.580078" xlink:href="#ArialMT-98"/>
     <use x="450.195312" xlink:href="#ArialMT-97"/>
     <use x="505.810547" xlink:href="#ArialMT-99"/>
     <use x="555.810547" xlink:href="#ArialMT-116"/>
     <use x="583.59375" xlink:href="#ArialMT-101"/>
     <use x="639.208984" xlink:href="#ArialMT-114"/>
     <use x="672.509766" xlink:href="#ArialMT-32"/>
     <use x="700.292969" xlink:href="#ArialMT-115"/>
     <use x="750.292969" xlink:href="#ArialMT-104"/>
     <use x="805.908203" xlink:href="#ArialMT-111"/>
     <use x="861.523438" xlink:href="#ArialMT-119"/>
     <use x="933.740234" xlink:href="#ArialMT-97"/>
     <use x="989.355469" xlink:href="#ArialMT-101"/>
     <use x="1044.970703" xlink:href="#ArialMT-32"/>
     <use x="1072.753906" xlink:href="#ArialMT-40"/>
     <use x="1106.054688" xlink:href="#ArialMT-75"/>
     <use x="1172.753906" xlink:href="#ArialMT-46"/>
     <use x="1200.537109" xlink:href="#ArialMT-87"/>
     <use x="1289.421875" xlink:href="#ArialMT-46"/>
     <use x="1317.205078" xlink:href="#ArialMT-32"/>
     <use x="1344.988281" xlink:href="#ArialMT-112"/>
     <use x="1400.603516" xlink:href="#ArialMT-61"/>
     <use x="1459.001953" xlink:href="#ArialMT-52"/>
     <use x="1514.617188" xlink:href="#ArialMT-46"/>
     <use x="1542.400391" xlink:href="#ArialMT-49"/>
     <use x="1598.015625" xlink:href="#ArialMT-52"/>
     <use x="1653.630859" xlink:href="#ArialMT-101"/>
     <use x="1709.246094" xlink:href="#ArialMT-45"/>
     <use x="1742.546875" xlink:href="#ArialMT-48"/>
     <use x="1798.162109" xlink:href="#ArialMT-56"/>
     <use x="1853.777344" xlink:href="#ArialMT-41"/>
    </g>
   </g>
  </g>
 </g>
 <defs>
  <clipPath id="pff959575c6">
   <rect height="1083.7" width="965.442269" x="202.32" y="96.24"/>
  </clipPath>
 </defs>
</svg>
