<?xml version="1.0" encoding="utf-8" standalone="no"?>
<!DOCTYPE svg PUBLIC "-//W3C//DTD SVG 1.1//EN"
  "http://www.w3.org/Graphics/SVG/1.1/DTD/svg11.dtd">
<!-- Created with matplotlib (https://matplotlib.org/) -->
<svg height="1296pt" version="1.1" viewBox="0 0 1296 1296" width="1296pt" xmlns="http://www.w3.org/2000/svg" xmlns:xlink="http://www.w3.org/1999/xlink">
 <metadata>
  <rdf:RDF xmlns:cc="http://creativecommons.org/ns#" xmlns:dc="http://purl.org/dc/elements/1.1/" xmlns:rdf="http://www.w3.org/1999/02/22-rdf-syntax-ns#">
   <cc:Work>
    <dc:type rdf:resource="http://purl.org/dc/dcmitype/StillImage"/>
    <dc:date>2022-06-29T14:10:36.471045</dc:date>
    <dc:format>image/svg+xml</dc:format>
    <dc:creator>
     <cc:Agent>
      <dc:title>Matplotlib v3.3.3, https://matplotlib.org/</dc:title>
     </cc:Agent>
    </dc:creator>
   </cc:Work>
  </rdf:RDF>
 </metadata>
 <defs>
  <style type="text/css">*{stroke-linecap:butt;stroke-linejoin:round;}</style>
 </defs>
 <g id="figure_1">
  <g id="patch_1">
   <path d="M 0 1296 
L 1296 1296 
L 1296 0 
L 0 0 
z
" style="fill:#ffffff;"/>
  </g>
  <g id="axes_1">
   <g id="patch_2">
    <path d="M 202.32 1179.94 
L 1070.645102 1179.94 
L 1070.645102 96.12 
L 202.32 96.12 
z
" style="fill:#ffffff;"/>
   </g>
   <g id="matplotlib.axis_1">
    <g id="xtick_1">
     <g id="text_1">
      <!-- Healthy -->
      <g style="fill:#262626;" transform="translate(367.839953 1231.229063)scale(0.5 -0.5)">
       <defs>
        <path d="M 8.015625 0 
L 8.015625 71.578125 
L 17.484375 71.578125 
L 17.484375 42.1875 
L 54.6875 42.1875 
L 54.6875 71.578125 
L 64.15625 71.578125 
L 64.15625 0 
L 54.6875 0 
L 54.6875 33.734375 
L 17.484375 33.734375 
L 17.484375 0 
z
" id="ArialMT-72"/>
        <path d="M 42.09375 16.703125 
L 51.171875 15.578125 
Q 49.03125 7.625 43.21875 3.21875 
Q 37.40625 -1.171875 28.375 -1.171875 
Q 17 -1.171875 10.328125 5.828125 
Q 3.65625 12.84375 3.65625 25.484375 
Q 3.65625 38.578125 10.390625 45.796875 
Q 17.140625 53.03125 27.875 53.03125 
Q 38.28125 53.03125 44.875 45.953125 
Q 51.46875 38.875 51.46875 26.03125 
Q 51.46875 25.25 51.421875 23.6875 
L 12.75 23.6875 
Q 13.234375 15.140625 17.578125 10.59375 
Q 21.921875 6.0625 28.421875 6.0625 
Q 33.25 6.0625 36.671875 8.59375 
Q 40.09375 11.140625 42.09375 16.703125 
z
M 13.234375 30.90625 
L 42.1875 30.90625 
Q 41.609375 37.453125 38.875 40.71875 
Q 34.671875 45.796875 27.984375 45.796875 
Q 21.921875 45.796875 17.796875 41.75 
Q 13.671875 37.703125 13.234375 30.90625 
z
" id="ArialMT-101"/>
        <path d="M 40.4375 6.390625 
Q 35.546875 2.25 31.03125 0.53125 
Q 26.515625 -1.171875 21.34375 -1.171875 
Q 12.796875 -1.171875 8.203125 3 
Q 3.609375 7.171875 3.609375 13.671875 
Q 3.609375 17.484375 5.34375 20.625 
Q 7.078125 23.78125 9.890625 25.6875 
Q 12.703125 27.59375 16.21875 28.5625 
Q 18.796875 29.25 24.03125 29.890625 
Q 34.671875 31.15625 39.703125 32.90625 
Q 39.75 34.71875 39.75 35.203125 
Q 39.75 40.578125 37.25 42.78125 
Q 33.890625 45.75 27.25 45.75 
Q 21.046875 45.75 18.09375 43.578125 
Q 15.140625 41.40625 13.71875 35.890625 
L 5.125 37.0625 
Q 6.296875 42.578125 8.984375 45.96875 
Q 11.671875 49.359375 16.75 51.1875 
Q 21.828125 53.03125 28.515625 53.03125 
Q 35.15625 53.03125 39.296875 51.46875 
Q 43.453125 49.90625 45.40625 47.53125 
Q 47.359375 45.171875 48.140625 41.546875 
Q 48.578125 39.3125 48.578125 33.453125 
L 48.578125 21.734375 
Q 48.578125 9.46875 49.140625 6.21875 
Q 49.703125 2.984375 51.375 0 
L 42.1875 0 
Q 40.828125 2.734375 40.4375 6.390625 
z
M 39.703125 26.03125 
Q 34.90625 24.078125 25.34375 22.703125 
Q 19.921875 21.921875 17.671875 20.9375 
Q 15.4375 19.96875 14.203125 18.09375 
Q 12.984375 16.21875 12.984375 13.921875 
Q 12.984375 10.40625 15.640625 8.0625 
Q 18.3125 5.71875 23.4375 5.71875 
Q 28.515625 5.71875 32.46875 7.9375 
Q 36.421875 10.15625 38.28125 14.015625 
Q 39.703125 17 39.703125 22.796875 
z
" id="ArialMT-97"/>
        <path d="M 6.390625 0 
L 6.390625 71.578125 
L 15.1875 71.578125 
L 15.1875 0 
z
" id="ArialMT-108"/>
        <path d="M 25.78125 7.859375 
L 27.046875 0.09375 
Q 23.34375 -0.6875 20.40625 -0.6875 
Q 15.625 -0.6875 12.984375 0.828125 
Q 10.359375 2.34375 9.28125 4.8125 
Q 8.203125 7.28125 8.203125 15.1875 
L 8.203125 45.015625 
L 1.765625 45.015625 
L 1.765625 51.859375 
L 8.203125 51.859375 
L 8.203125 64.703125 
L 16.9375 69.96875 
L 16.9375 51.859375 
L 25.78125 51.859375 
L 25.78125 45.015625 
L 16.9375 45.015625 
L 16.9375 14.703125 
Q 16.9375 10.9375 17.40625 9.859375 
Q 17.875 8.796875 18.921875 8.15625 
Q 19.96875 7.515625 21.921875 7.515625 
Q 23.390625 7.515625 25.78125 7.859375 
z
" id="ArialMT-116"/>
        <path d="M 6.59375 0 
L 6.59375 71.578125 
L 15.375 71.578125 
L 15.375 45.90625 
Q 21.53125 53.03125 30.90625 53.03125 
Q 36.671875 53.03125 40.921875 50.75 
Q 45.171875 48.484375 47 44.484375 
Q 48.828125 40.484375 48.828125 32.859375 
L 48.828125 0 
L 40.046875 0 
L 40.046875 32.859375 
Q 40.046875 39.453125 37.1875 42.453125 
Q 34.328125 45.453125 29.109375 45.453125 
Q 25.203125 45.453125 21.75 43.421875 
Q 18.3125 41.40625 16.84375 37.9375 
Q 15.375 34.46875 15.375 28.375 
L 15.375 0 
z
" id="ArialMT-104"/>
        <path d="M 6.203125 -19.96875 
L 5.21875 -11.71875 
Q 8.109375 -12.5 10.25 -12.5 
Q 13.1875 -12.5 14.9375 -11.515625 
Q 16.703125 -10.546875 17.828125 -8.796875 
Q 18.65625 -7.46875 20.515625 -2.25 
Q 20.75 -1.515625 21.296875 -0.09375 
L 1.609375 51.859375 
L 11.078125 51.859375 
L 21.875 21.828125 
Q 23.96875 16.109375 25.640625 9.8125 
Q 27.15625 15.875 29.25 21.625 
L 40.328125 51.859375 
L 49.125 51.859375 
L 29.390625 -0.875 
Q 26.21875 -9.421875 24.46875 -12.640625 
Q 22.125 -17 19.09375 -19.015625 
Q 16.0625 -21.046875 11.859375 -21.046875 
Q 9.328125 -21.046875 6.203125 -19.96875 
z
" id="ArialMT-121"/>
       </defs>
       <use xlink:href="#ArialMT-72"/>
       <use x="72.216797" xlink:href="#ArialMT-101"/>
       <use x="127.832031" xlink:href="#ArialMT-97"/>
       <use x="183.447266" xlink:href="#ArialMT-108"/>
       <use x="205.664062" xlink:href="#ArialMT-116"/>
       <use x="233.447266" xlink:href="#ArialMT-104"/>
       <use x="289.0625" xlink:href="#ArialMT-121"/>
      </g>
     </g>
    </g>
    <g id="xtick_2">
     <g id="text_2">
      <!-- Slight+Moderate+Severe -->
      <g style="fill:#262626;" transform="translate(703.081762 1231.838438)scale(0.5 -0.5)">
       <defs>
        <path d="M 4.5 23 
L 13.421875 23.78125 
Q 14.0625 18.40625 16.375 14.96875 
Q 18.703125 11.53125 23.578125 9.40625 
Q 28.46875 7.28125 34.578125 7.28125 
Q 39.984375 7.28125 44.140625 8.890625 
Q 48.296875 10.5 50.3125 13.296875 
Q 52.34375 16.109375 52.34375 19.4375 
Q 52.34375 22.796875 50.390625 25.3125 
Q 48.4375 27.828125 43.953125 29.546875 
Q 41.0625 30.671875 31.203125 33.03125 
Q 21.34375 35.40625 17.390625 37.5 
Q 12.25 40.1875 9.734375 44.15625 
Q 7.234375 48.140625 7.234375 53.078125 
Q 7.234375 58.5 10.296875 63.203125 
Q 13.375 67.921875 19.28125 70.359375 
Q 25.203125 72.796875 32.421875 72.796875 
Q 40.375 72.796875 46.453125 70.234375 
Q 52.546875 67.671875 55.8125 62.6875 
Q 59.078125 57.71875 59.328125 51.421875 
L 50.25 50.734375 
Q 49.515625 57.515625 45.28125 60.984375 
Q 41.0625 64.453125 32.8125 64.453125 
Q 24.21875 64.453125 20.28125 61.296875 
Q 16.359375 58.15625 16.359375 53.71875 
Q 16.359375 49.859375 19.140625 47.359375 
Q 21.875 44.875 33.421875 42.265625 
Q 44.96875 39.65625 49.265625 37.703125 
Q 55.515625 34.8125 58.484375 30.390625 
Q 61.46875 25.984375 61.46875 20.21875 
Q 61.46875 14.5 58.203125 9.4375 
Q 54.9375 4.390625 48.796875 1.578125 
Q 42.671875 -1.21875 35.015625 -1.21875 
Q 25.296875 -1.21875 18.71875 1.609375 
Q 12.15625 4.4375 8.421875 10.125 
Q 4.6875 15.828125 4.5 23 
z
" id="ArialMT-83"/>
        <path d="M 6.640625 61.46875 
L 6.640625 71.578125 
L 15.4375 71.578125 
L 15.4375 61.46875 
z
M 6.640625 0 
L 6.640625 51.859375 
L 15.4375 51.859375 
L 15.4375 0 
z
" id="ArialMT-105"/>
        <path d="M 4.984375 -4.296875 
L 13.53125 -5.5625 
Q 14.0625 -9.515625 16.5 -11.328125 
Q 19.78125 -13.765625 25.4375 -13.765625 
Q 31.546875 -13.765625 34.859375 -11.328125 
Q 38.1875 -8.890625 39.359375 -4.5 
Q 40.046875 -1.8125 39.984375 6.78125 
Q 34.234375 0 25.640625 0 
Q 14.9375 0 9.078125 7.71875 
Q 3.21875 15.4375 3.21875 26.21875 
Q 3.21875 33.640625 5.90625 39.90625 
Q 8.59375 46.1875 13.6875 49.609375 
Q 18.796875 53.03125 25.6875 53.03125 
Q 34.859375 53.03125 40.828125 45.609375 
L 40.828125 51.859375 
L 48.921875 51.859375 
L 48.921875 7.03125 
Q 48.921875 -5.078125 46.453125 -10.125 
Q 44 -15.1875 38.640625 -18.109375 
Q 33.296875 -21.046875 25.484375 -21.046875 
Q 16.21875 -21.046875 10.5 -16.875 
Q 4.78125 -12.703125 4.984375 -4.296875 
z
M 12.25 26.859375 
Q 12.25 16.65625 16.296875 11.96875 
Q 20.359375 7.28125 26.46875 7.28125 
Q 32.515625 7.28125 36.609375 11.9375 
Q 40.71875 16.609375 40.71875 26.5625 
Q 40.71875 36.078125 36.5 40.90625 
Q 32.28125 45.75 26.3125 45.75 
Q 20.453125 45.75 16.34375 40.984375 
Q 12.25 36.234375 12.25 26.859375 
z
" id="ArialMT-103"/>
        <path d="M 25.046875 11.578125 
L 25.046875 31.203125 
L 5.5625 31.203125 
L 5.5625 39.40625 
L 25.046875 39.40625 
L 25.046875 58.890625 
L 33.34375 58.890625 
L 33.34375 39.40625 
L 52.828125 39.40625 
L 52.828125 31.203125 
L 33.34375 31.203125 
L 33.34375 11.578125 
z
" id="ArialMT-43"/>
        <path d="M 7.421875 0 
L 7.421875 71.578125 
L 21.6875 71.578125 
L 38.625 20.90625 
Q 40.96875 13.8125 42.046875 10.296875 
Q 43.265625 14.203125 45.84375 21.78125 
L 62.984375 71.578125 
L 75.734375 71.578125 
L 75.734375 0 
L 66.609375 0 
L 66.609375 59.90625 
L 45.796875 0 
L 37.25 0 
L 16.546875 60.9375 
L 16.546875 0 
z
" id="ArialMT-77"/>
        <path d="M 3.328125 25.921875 
Q 3.328125 40.328125 11.328125 47.265625 
Q 18.015625 53.03125 27.640625 53.03125 
Q 38.328125 53.03125 45.109375 46.015625 
Q 51.90625 39.015625 51.90625 26.65625 
Q 51.90625 16.65625 48.90625 10.90625 
Q 45.90625 5.171875 40.15625 2 
Q 34.421875 -1.171875 27.640625 -1.171875 
Q 16.75 -1.171875 10.03125 5.8125 
Q 3.328125 12.796875 3.328125 25.921875 
z
M 12.359375 25.921875 
Q 12.359375 15.96875 16.703125 11.015625 
Q 21.046875 6.0625 27.640625 6.0625 
Q 34.1875 6.0625 38.53125 11.03125 
Q 42.875 16.015625 42.875 26.21875 
Q 42.875 35.84375 38.5 40.796875 
Q 34.125 45.75 27.640625 45.75 
Q 21.046875 45.75 16.703125 40.8125 
Q 12.359375 35.890625 12.359375 25.921875 
z
" id="ArialMT-111"/>
        <path d="M 40.234375 0 
L 40.234375 6.546875 
Q 35.296875 -1.171875 25.734375 -1.171875 
Q 19.53125 -1.171875 14.328125 2.25 
Q 9.125 5.671875 6.265625 11.796875 
Q 3.421875 17.921875 3.421875 25.875 
Q 3.421875 33.640625 6 39.96875 
Q 8.59375 46.296875 13.765625 49.65625 
Q 18.953125 53.03125 25.34375 53.03125 
Q 30.03125 53.03125 33.6875 51.046875 
Q 37.359375 49.078125 39.65625 45.90625 
L 39.65625 71.578125 
L 48.390625 71.578125 
L 48.390625 0 
z
M 12.453125 25.875 
Q 12.453125 15.921875 16.640625 10.984375 
Q 20.84375 6.0625 26.5625 6.0625 
Q 32.328125 6.0625 36.34375 10.765625 
Q 40.375 15.484375 40.375 25.140625 
Q 40.375 35.796875 36.265625 40.765625 
Q 32.171875 45.75 26.171875 45.75 
Q 20.3125 45.75 16.375 40.96875 
Q 12.453125 36.1875 12.453125 25.875 
z
" id="ArialMT-100"/>
        <path d="M 6.5 0 
L 6.5 51.859375 
L 14.40625 51.859375 
L 14.40625 44 
Q 17.4375 49.515625 20 51.265625 
Q 22.5625 53.03125 25.640625 53.03125 
Q 30.078125 53.03125 34.671875 50.203125 
L 31.640625 42.046875 
Q 28.421875 43.953125 25.203125 43.953125 
Q 22.3125 43.953125 20.015625 42.21875 
Q 17.71875 40.484375 16.75 37.40625 
Q 15.28125 32.71875 15.28125 27.15625 
L 15.28125 0 
z
" id="ArialMT-114"/>
        <path d="M 21 0 
L 1.265625 51.859375 
L 10.546875 51.859375 
L 21.6875 20.796875 
Q 23.484375 15.765625 25 10.359375 
Q 26.171875 14.453125 28.265625 20.21875 
L 39.796875 51.859375 
L 48.828125 51.859375 
L 29.203125 0 
z
" id="ArialMT-118"/>
       </defs>
       <use xlink:href="#ArialMT-83"/>
       <use x="66.699219" xlink:href="#ArialMT-108"/>
       <use x="88.916016" xlink:href="#ArialMT-105"/>
       <use x="111.132812" xlink:href="#ArialMT-103"/>
       <use x="166.748047" xlink:href="#ArialMT-104"/>
       <use x="222.363281" xlink:href="#ArialMT-116"/>
       <use x="250.146484" xlink:href="#ArialMT-43"/>
       <use x="308.544922" xlink:href="#ArialMT-77"/>
       <use x="391.845703" xlink:href="#ArialMT-111"/>
       <use x="447.460938" xlink:href="#ArialMT-100"/>
       <use x="503.076172" xlink:href="#ArialMT-101"/>
       <use x="558.691406" xlink:href="#ArialMT-114"/>
       <use x="591.992188" xlink:href="#ArialMT-97"/>
       <use x="647.607422" xlink:href="#ArialMT-116"/>
       <use x="675.390625" xlink:href="#ArialMT-101"/>
       <use x="731.005859" xlink:href="#ArialMT-43"/>
       <use x="789.404297" xlink:href="#ArialMT-83"/>
       <use x="856.103516" xlink:href="#ArialMT-101"/>
       <use x="911.71875" xlink:href="#ArialMT-118"/>
       <use x="961.71875" xlink:href="#ArialMT-101"/>
       <use x="1017.333984" xlink:href="#ArialMT-114"/>
       <use x="1050.634766" xlink:href="#ArialMT-101"/>
      </g>
     </g>
    </g>
   </g>
   <g id="matplotlib.axis_2">
    <g id="ytick_1">
     <g id="line2d_1">
      <path clip-path="url(#p0e0e3645b3)" d="M 202.32 1069.016873 
L 1070.645102 1069.016873 
" style="fill:none;stroke:#cccccc;stroke-linecap:round;stroke-width:2;"/>
     </g>
     <g id="text_3">
      <!-- 0 -->
      <g style="fill:#262626;" transform="translate(159.015313 1086.911405)scale(0.5 -0.5)">
       <defs>
        <path d="M 4.15625 35.296875 
Q 4.15625 48 6.765625 55.734375 
Q 9.375 63.484375 14.515625 67.671875 
Q 19.671875 71.875 27.484375 71.875 
Q 33.25 71.875 37.59375 69.546875 
Q 41.9375 67.234375 44.765625 62.859375 
Q 47.609375 58.5 49.21875 52.21875 
Q 50.828125 45.953125 50.828125 35.296875 
Q 50.828125 22.703125 48.234375 14.96875 
Q 45.65625 7.234375 40.5 3 
Q 35.359375 -1.21875 27.484375 -1.21875 
Q 17.140625 -1.21875 11.234375 6.203125 
Q 4.15625 15.140625 4.15625 35.296875 
z
M 13.1875 35.296875 
Q 13.1875 17.671875 17.3125 11.828125 
Q 21.4375 6 27.484375 6 
Q 33.546875 6 37.671875 11.859375 
Q 41.796875 17.71875 41.796875 35.296875 
Q 41.796875 52.984375 37.671875 58.78125 
Q 33.546875 64.59375 27.390625 64.59375 
Q 21.34375 64.59375 17.71875 59.46875 
Q 13.1875 52.9375 13.1875 35.296875 
z
" id="ArialMT-48"/>
       </defs>
       <use xlink:href="#ArialMT-48"/>
      </g>
     </g>
    </g>
    <g id="ytick_2">
     <g id="line2d_2">
      <path clip-path="url(#p0e0e3645b3)" d="M 202.32 855.69339 
L 1070.645102 855.69339 
" style="fill:none;stroke:#cccccc;stroke-linecap:round;stroke-width:2;"/>
     </g>
     <g id="text_4">
      <!-- 100 -->
      <g style="fill:#262626;" transform="translate(103.405938 873.587921)scale(0.5 -0.5)">
       <defs>
        <path d="M 37.25 0 
L 28.46875 0 
L 28.46875 56 
Q 25.296875 52.984375 20.140625 49.953125 
Q 14.984375 46.921875 10.890625 45.40625 
L 10.890625 53.90625 
Q 18.265625 57.375 23.78125 62.296875 
Q 29.296875 67.234375 31.59375 71.875 
L 37.25 71.875 
z
" id="ArialMT-49"/>
       </defs>
       <use xlink:href="#ArialMT-49"/>
       <use x="55.615234" xlink:href="#ArialMT-48"/>
       <use x="111.230469" xlink:href="#ArialMT-48"/>
      </g>
     </g>
    </g>
    <g id="ytick_3">
     <g id="line2d_3">
      <path clip-path="url(#p0e0e3645b3)" d="M 202.32 642.369906 
L 1070.645102 642.369906 
" style="fill:none;stroke:#cccccc;stroke-linecap:round;stroke-width:2;"/>
     </g>
     <g id="text_5">
      <!-- 200 -->
      <g style="fill:#262626;" transform="translate(103.405938 660.264437)scale(0.5 -0.5)">
       <defs>
        <path d="M 50.34375 8.453125 
L 50.34375 0 
L 3.03125 0 
Q 2.9375 3.171875 4.046875 6.109375 
Q 5.859375 10.9375 9.828125 15.625 
Q 13.8125 20.3125 21.34375 26.46875 
Q 33.015625 36.03125 37.109375 41.625 
Q 41.21875 47.21875 41.21875 52.203125 
Q 41.21875 57.421875 37.46875 61 
Q 33.734375 64.59375 27.734375 64.59375 
Q 21.390625 64.59375 17.578125 60.78125 
Q 13.765625 56.984375 13.71875 50.25 
L 4.6875 51.171875 
Q 5.609375 61.28125 11.65625 66.578125 
Q 17.71875 71.875 27.9375 71.875 
Q 38.234375 71.875 44.234375 66.15625 
Q 50.25 60.453125 50.25 52 
Q 50.25 47.703125 48.484375 43.546875 
Q 46.734375 39.40625 42.65625 34.8125 
Q 38.578125 30.21875 29.109375 22.21875 
Q 21.1875 15.578125 18.9375 13.203125 
Q 16.703125 10.84375 15.234375 8.453125 
z
" id="ArialMT-50"/>
       </defs>
       <use xlink:href="#ArialMT-50"/>
       <use x="55.615234" xlink:href="#ArialMT-48"/>
       <use x="111.230469" xlink:href="#ArialMT-48"/>
      </g>
     </g>
    </g>
    <g id="ytick_4">
     <g id="line2d_4">
      <path clip-path="url(#p0e0e3645b3)" d="M 202.32 429.046422 
L 1070.645102 429.046422 
" style="fill:none;stroke:#cccccc;stroke-linecap:round;stroke-width:2;"/>
     </g>
     <g id="text_6">
      <!-- 300 -->
      <g style="fill:#262626;" transform="translate(103.405938 446.940954)scale(0.5 -0.5)">
       <defs>
        <path d="M 4.203125 18.890625 
L 12.984375 20.0625 
Q 14.5 12.59375 18.140625 9.296875 
Q 21.78125 6 27 6 
Q 33.203125 6 37.46875 10.296875 
Q 41.75 14.59375 41.75 20.953125 
Q 41.75 27 37.796875 30.921875 
Q 33.84375 34.859375 27.734375 34.859375 
Q 25.25 34.859375 21.53125 33.890625 
L 22.515625 41.609375 
Q 23.390625 41.5 23.921875 41.5 
Q 29.546875 41.5 34.03125 44.421875 
Q 38.53125 47.359375 38.53125 53.46875 
Q 38.53125 58.296875 35.25 61.46875 
Q 31.984375 64.65625 26.8125 64.65625 
Q 21.6875 64.65625 18.265625 61.421875 
Q 14.84375 58.203125 13.875 51.765625 
L 5.078125 53.328125 
Q 6.6875 62.15625 12.390625 67.015625 
Q 18.109375 71.875 26.609375 71.875 
Q 32.46875 71.875 37.390625 69.359375 
Q 42.328125 66.84375 44.9375 62.5 
Q 47.5625 58.15625 47.5625 53.265625 
Q 47.5625 48.640625 45.0625 44.828125 
Q 42.578125 41.015625 37.703125 38.765625 
Q 44.046875 37.3125 47.5625 32.6875 
Q 51.078125 28.078125 51.078125 21.140625 
Q 51.078125 11.765625 44.234375 5.25 
Q 37.40625 -1.265625 26.953125 -1.265625 
Q 17.53125 -1.265625 11.296875 4.34375 
Q 5.078125 9.96875 4.203125 18.890625 
z
" id="ArialMT-51"/>
       </defs>
       <use xlink:href="#ArialMT-51"/>
       <use x="55.615234" xlink:href="#ArialMT-48"/>
       <use x="111.230469" xlink:href="#ArialMT-48"/>
      </g>
     </g>
    </g>
    <g id="ytick_5">
     <g id="line2d_5">
      <path clip-path="url(#p0e0e3645b3)" d="M 202.32 215.722939 
L 1070.645102 215.722939 
" style="fill:none;stroke:#cccccc;stroke-linecap:round;stroke-width:2;"/>
     </g>
     <g id="text_7">
      <!-- 400 -->
      <g style="fill:#262626;" transform="translate(103.405938 233.61747)scale(0.5 -0.5)">
       <defs>
        <path d="M 32.328125 0 
L 32.328125 17.140625 
L 1.265625 17.140625 
L 1.265625 25.203125 
L 33.9375 71.578125 
L 41.109375 71.578125 
L 41.109375 25.203125 
L 50.78125 25.203125 
L 50.78125 17.140625 
L 41.109375 17.140625 
L 41.109375 0 
z
M 32.328125 25.203125 
L 32.328125 57.46875 
L 9.90625 25.203125 
z
" id="ArialMT-52"/>
       </defs>
       <use xlink:href="#ArialMT-52"/>
       <use x="55.615234" xlink:href="#ArialMT-48"/>
       <use x="111.230469" xlink:href="#ArialMT-48"/>
      </g>
     </g>
    </g>
    <g id="text_8">
     <!-- Abundance -->
     <g style="fill:#262626;" transform="translate(89.468438 764.522187)rotate(-90)scale(0.5 -0.5)">
      <defs>
       <path d="M -0.140625 0 
L 27.34375 71.578125 
L 37.546875 71.578125 
L 66.84375 0 
L 56.0625 0 
L 47.703125 21.6875 
L 17.78125 21.6875 
L 9.90625 0 
z
M 20.515625 29.390625 
L 44.78125 29.390625 
L 37.3125 49.21875 
Q 33.890625 58.25 32.234375 64.0625 
Q 30.859375 57.171875 28.375 50.390625 
z
" id="ArialMT-65"/>
       <path d="M 14.703125 0 
L 6.546875 0 
L 6.546875 71.578125 
L 15.328125 71.578125 
L 15.328125 46.046875 
Q 20.90625 53.03125 29.546875 53.03125 
Q 34.328125 53.03125 38.59375 51.09375 
Q 42.875 49.171875 45.625 45.671875 
Q 48.390625 42.1875 49.953125 37.25 
Q 51.515625 32.328125 51.515625 26.703125 
Q 51.515625 13.375 44.921875 6.09375 
Q 38.328125 -1.171875 29.109375 -1.171875 
Q 19.921875 -1.171875 14.703125 6.5 
z
M 14.59375 26.3125 
Q 14.59375 17 17.140625 12.84375 
Q 21.296875 6.0625 28.375 6.0625 
Q 34.125 6.0625 38.328125 11.0625 
Q 42.53125 16.0625 42.53125 25.984375 
Q 42.53125 36.140625 38.5 40.96875 
Q 34.46875 45.796875 28.765625 45.796875 
Q 23 45.796875 18.796875 40.796875 
Q 14.59375 35.796875 14.59375 26.3125 
z
" id="ArialMT-98"/>
       <path d="M 40.578125 0 
L 40.578125 7.625 
Q 34.515625 -1.171875 24.125 -1.171875 
Q 19.53125 -1.171875 15.546875 0.578125 
Q 11.578125 2.34375 9.640625 5 
Q 7.71875 7.671875 6.9375 11.53125 
Q 6.390625 14.109375 6.390625 19.734375 
L 6.390625 51.859375 
L 15.1875 51.859375 
L 15.1875 23.09375 
Q 15.1875 16.21875 15.71875 13.8125 
Q 16.546875 10.359375 19.234375 8.375 
Q 21.921875 6.390625 25.875 6.390625 
Q 29.828125 6.390625 33.296875 8.421875 
Q 36.765625 10.453125 38.203125 13.9375 
Q 39.65625 17.4375 39.65625 24.078125 
L 39.65625 51.859375 
L 48.4375 51.859375 
L 48.4375 0 
z
" id="ArialMT-117"/>
       <path d="M 6.59375 0 
L 6.59375 51.859375 
L 14.5 51.859375 
L 14.5 44.484375 
Q 20.21875 53.03125 31 53.03125 
Q 35.6875 53.03125 39.625 51.34375 
Q 43.5625 49.65625 45.515625 46.921875 
Q 47.46875 44.1875 48.25 40.4375 
Q 48.734375 37.984375 48.734375 31.890625 
L 48.734375 0 
L 39.9375 0 
L 39.9375 31.546875 
Q 39.9375 36.921875 38.90625 39.578125 
Q 37.890625 42.234375 35.28125 43.8125 
Q 32.671875 45.40625 29.15625 45.40625 
Q 23.53125 45.40625 19.453125 41.84375 
Q 15.375 38.28125 15.375 28.328125 
L 15.375 0 
z
" id="ArialMT-110"/>
       <path d="M 40.4375 19 
L 49.078125 17.875 
Q 47.65625 8.9375 41.8125 3.875 
Q 35.984375 -1.171875 27.484375 -1.171875 
Q 16.84375 -1.171875 10.375 5.78125 
Q 3.90625 12.75 3.90625 25.734375 
Q 3.90625 34.125 6.6875 40.421875 
Q 9.46875 46.734375 15.15625 49.875 
Q 20.84375 53.03125 27.546875 53.03125 
Q 35.984375 53.03125 41.359375 48.75 
Q 46.734375 44.484375 48.25 36.625 
L 39.703125 35.296875 
Q 38.484375 40.53125 35.375 43.15625 
Q 32.28125 45.796875 27.875 45.796875 
Q 21.234375 45.796875 17.078125 41.03125 
Q 12.9375 36.28125 12.9375 25.984375 
Q 12.9375 15.53125 16.9375 10.796875 
Q 20.953125 6.0625 27.390625 6.0625 
Q 32.5625 6.0625 36.03125 9.234375 
Q 39.5 12.40625 40.4375 19 
z
" id="ArialMT-99"/>
      </defs>
      <use xlink:href="#ArialMT-65"/>
      <use x="66.699219" xlink:href="#ArialMT-98"/>
      <use x="122.314453" xlink:href="#ArialMT-117"/>
      <use x="177.929688" xlink:href="#ArialMT-110"/>
      <use x="233.544922" xlink:href="#ArialMT-100"/>
      <use x="289.160156" xlink:href="#ArialMT-97"/>
      <use x="344.775391" xlink:href="#ArialMT-110"/>
      <use x="400.390625" xlink:href="#ArialMT-99"/>
      <use x="450.390625" xlink:href="#ArialMT-101"/>
     </g>
    </g>
   </g>
   <g id="PolyCollection_1">
    <defs>
     <path d="M 577.174039 -206.812933 
L 328.029304 -206.812933 
L 303.525387 -210.754255 
L 280.761325 -214.695577 
L 261.759904 -218.6369 
L 248.335536 -222.578222 
L 241.789323 -226.519544 
L 242.67869 -230.460866 
L 250.719071 -234.402189 
L 264.843213 -238.343511 
L 283.40329 -242.284833 
L 304.465259 -246.226155 
L 326.12493 -250.167478 
L 346.776389 -254.1088 
L 365.28342 -258.050122 
L 381.035044 -261.991444 
L 393.896814 -265.932766 
L 404.091167 -269.874089 
L 412.048717 -273.815411 
L 418.268433 -277.756733 
L 423.212362 -281.698055 
L 427.245414 -285.639378 
L 430.617427 -289.5807 
L 433.476221 -293.522022 
L 435.89714 -297.463344 
L 437.915985 -301.404666 
L 439.556233 -305.345989 
L 440.846293 -309.287311 
L 441.826669 -313.228633 
L 442.54947 -317.169955 
L 443.073661 -321.111278 
L 443.459029 -325.0526 
L 443.760832 -328.993922 
L 444.025959 -332.935244 
L 444.290721 -336.876567 
L 444.580039 -340.817889 
L 444.90778 -344.759211 
L 445.278068 -348.700533 
L 445.68732 -352.641855 
L 446.126667 -356.583178 
L 446.584229 -360.5245 
L 447.046777 -364.465822 
L 447.500507 -368.407144 
L 447.931064 -372.348467 
L 448.323282 -376.289789 
L 448.661314 -380.231111 
L 448.929644 -384.172433 
L 449.115091 -388.113755 
L 449.209425 -392.055078 
L 449.211859 -395.9964 
L 449.130602 -399.937722 
L 448.9829 -403.879044 
L 448.793449 -407.820367 
L 448.591538 -411.761689 
L 448.407555 -415.703011 
L 448.269599 -419.644333 
L 448.200706 -423.585656 
L 448.216955 -427.526978 
L 448.326452 -431.4683 
L 448.529064 -435.409622 
L 448.816797 -439.350944 
L 449.174762 -443.292267 
L 449.582766 -447.233589 
L 450.017448 -451.174911 
L 450.454812 -455.116233 
L 450.872802 -459.057556 
L 451.253517 -462.998878 
L 451.584679 -466.9402 
L 451.86014 -470.881522 
L 452.079443 -474.822844 
L 452.246654 -478.764167 
L 452.368804 -482.705489 
L 452.454309 -486.646811 
L 452.511625 -490.588133 
L 452.548305 -494.529456 
L 452.570459 -498.470778 
L 452.582553 -502.4121 
L 452.587398 -506.353422 
L 452.586234 -510.294745 
L 452.578795 -514.236067 
L 452.563314 -518.177389 
L 452.53651 -522.118711 
L 452.493603 -526.060033 
L 452.428509 -530.001356 
L 452.334339 -533.942678 
L 452.204318 -537.884 
L 452.033146 -541.825322 
L 451.818698 -545.766645 
L 451.563751 -549.707967 
L 451.277332 -553.649289 
L 450.975178 -557.590611 
L 450.678922 -561.531933 
L 450.413856 -565.473256 
L 450.205508 -569.414578 
L 450.075635 -573.3559 
L 450.038484 -577.297222 
L 450.098223 -581.238545 
L 450.248169 -585.179867 
L 450.472022 -589.121189 
L 450.746777 -593.062511 
L 451.046609 -597.003834 
L 454.156734 -597.003834 
L 454.156734 -597.003834 
L 454.456566 -593.062511 
L 454.731321 -589.121189 
L 454.955174 -585.179867 
L 455.105121 -581.238545 
L 455.164859 -577.297222 
L 455.127708 -573.3559 
L 454.997835 -569.414578 
L 454.789488 -565.473256 
L 454.524421 -561.531933 
L 454.228165 -557.590611 
L 453.926011 -553.649289 
L 453.639593 -549.707967 
L 453.384645 -545.766645 
L 453.170197 -541.825322 
L 452.999025 -537.884 
L 452.869004 -533.942678 
L 452.774834 -530.001356 
L 452.709741 -526.060033 
L 452.666833 -522.118711 
L 452.640029 -518.177389 
L 452.624548 -514.236067 
L 452.617109 -510.294745 
L 452.615946 -506.353422 
L 452.62079 -502.4121 
L 452.632884 -498.470778 
L 452.655039 -494.529456 
L 452.691718 -490.588133 
L 452.749034 -486.646811 
L 452.834539 -482.705489 
L 452.95669 -478.764167 
L 453.1239 -474.822844 
L 453.343203 -470.881522 
L 453.618664 -466.9402 
L 453.949826 -462.998878 
L 454.330541 -459.057556 
L 454.748531 -455.116233 
L 455.185895 -451.174911 
L 455.620577 -447.233589 
L 456.028581 -443.292267 
L 456.386546 -439.350944 
L 456.674279 -435.409622 
L 456.876892 -431.4683 
L 456.986389 -427.526978 
L 457.002638 -423.585656 
L 456.933744 -419.644333 
L 456.795789 -415.703011 
L 456.611806 -411.761689 
L 456.409894 -407.820367 
L 456.220443 -403.879044 
L 456.072741 -399.937722 
L 455.991484 -395.9964 
L 455.993919 -392.055078 
L 456.088252 -388.113755 
L 456.273699 -384.172433 
L 456.542029 -380.231111 
L 456.880062 -376.289789 
L 457.27228 -372.348467 
L 457.702836 -368.407144 
L 458.156567 -364.465822 
L 458.619114 -360.5245 
L 459.076676 -356.583178 
L 459.516023 -352.641855 
L 459.925276 -348.700533 
L 460.295563 -344.759211 
L 460.623305 -340.817889 
L 460.912622 -336.876567 
L 461.177385 -332.935244 
L 461.442511 -328.993922 
L 461.744314 -325.0526 
L 462.129683 -321.111278 
L 462.653873 -317.169955 
L 463.376674 -313.228633 
L 464.35705 -309.287311 
L 465.647111 -305.345989 
L 467.287358 -301.404666 
L 469.306203 -297.463344 
L 471.727122 -293.522022 
L 474.585916 -289.5807 
L 477.957929 -285.639378 
L 481.990981 -281.698055 
L 486.934911 -277.756733 
L 493.154626 -273.815411 
L 501.112176 -269.874089 
L 511.306529 -265.932766 
L 524.168299 -261.991444 
L 539.919923 -258.050122 
L 558.426954 -254.1088 
L 579.078413 -250.167478 
L 600.738084 -246.226155 
L 621.800053 -242.284833 
L 640.360131 -238.343511 
L 654.484272 -234.402189 
L 662.524654 -230.460866 
L 663.41402 -226.519544 
L 656.867807 -222.578222 
L 643.443439 -218.6369 
L 624.442018 -214.695577 
L 601.677956 -210.754255 
L 577.174039 -206.812933 
z
" id="mc447e52ffc" style="stroke:#4c4c4c;stroke-width:5;"/>
    </defs>
    <g clip-path="url(#p0e0e3645b3)">
     <use style="fill:#5875a4;stroke:#4c4c4c;stroke-width:5;" x="0" xlink:href="#mc447e52ffc" y="1296"/>
    </g>
   </g>
   <g id="PolyCollection_2">
    <defs>
     <path d="M 1006.434665 -163.087669 
L 952.830423 -163.087669 
L 948.447387 -172.588209 
L 944.087186 -182.088748 
L 939.932968 -191.589287 
L 936.172318 -201.089826 
L 932.981146 -210.590366 
L 930.507656 -220.090905 
L 928.858538 -229.591444 
L 928.089308 -239.091983 
L 928.200137 -248.592523 
L 929.137721 -258.093062 
L 930.802768 -267.593601 
L 933.061897 -277.094141 
L 935.762121 -286.59468 
L 938.745821 -296.095219 
L 941.864272 -305.595758 
L 944.988181 -315.096298 
L 948.014369 -324.596837 
L 950.868396 -334.097376 
L 953.503588 -343.597915 
L 955.897357 -353.098455 
L 958.045905 -362.598994 
L 959.958448 -372.099533 
L 961.651837 -381.600072 
L 963.146226 -391.100612 
L 964.462055 -400.601151 
L 965.618353 -410.10169 
L 966.632147 -419.60223 
L 967.518613 -429.102769 
L 968.291625 -438.603308 
L 968.964348 -448.103847 
L 969.549663 -457.604387 
L 970.060275 -467.104926 
L 970.508515 -476.605465 
L 970.905889 -486.106004 
L 971.262518 -495.606544 
L 971.586603 -505.107083 
L 971.884068 -514.607622 
L 972.158471 -524.108161 
L 972.411228 -533.608701 
L 972.642126 -543.10924 
L 972.850064 -552.609779 
L 973.03388 -562.110319 
L 973.193151 -571.610858 
L 973.328821 -581.111397 
L 973.443538 -590.611936 
L 973.541667 -600.112476 
L 973.628954 -609.613015 
L 973.711907 -619.113554 
L 973.796993 -628.614093 
L 973.889804 -638.114633 
L 973.994312 -647.615172 
L 974.112368 -657.115711 
L 974.243506 -666.61625 
L 974.385102 -676.11679 
L 974.532845 -685.617329 
L 974.681447 -695.117868 
L 974.825461 -704.618408 
L 974.960088 -714.118947 
L 975.081846 -723.619486 
L 975.189011 -733.120025 
L 975.281803 -742.620565 
L 975.3623 -752.121104 
L 975.434147 -761.621643 
L 975.50212 -771.122182 
L 975.57162 -780.622722 
L 975.648166 -790.123261 
L 975.736939 -799.6238 
L 975.842395 -809.124339 
L 975.967967 -818.624879 
L 976.115829 -828.125418 
L 976.286748 -837.625957 
L 976.479986 -847.126497 
L 976.693299 -856.627036 
L 976.923005 -866.127575 
L 977.164162 -875.628114 
L 977.410846 -885.128654 
L 977.656521 -894.629193 
L 977.894483 -904.129732 
L 978.118337 -913.630271 
L 978.322458 -923.130811 
L 978.502396 -932.63135 
L 978.655185 -942.131889 
L 978.779515 -951.632428 
L 978.875763 -961.132968 
L 978.94589 -970.633507 
L 978.993201 -980.134046 
L 979.02201 -989.634585 
L 979.037244 -999.135125 
L 979.044016 -1008.635664 
L 979.047213 -1018.136203 
L 979.051134 -1027.636743 
L 979.05921 -1037.137282 
L 979.073821 -1046.637821 
L 979.096233 -1056.13836 
L 979.126638 -1065.6389 
L 979.164296 -1075.139439 
L 979.207753 -1084.639978 
L 979.255089 -1094.140517 
L 979.30419 -1103.641057 
L 979.960897 -1103.641057 
L 979.960897 -1103.641057 
L 980.009998 -1094.140517 
L 980.057334 -1084.639978 
L 980.100791 -1075.139439 
L 980.13845 -1065.6389 
L 980.168854 -1056.13836 
L 980.191266 -1046.637821 
L 980.205877 -1037.137282 
L 980.213953 -1027.636743 
L 980.217874 -1018.136203 
L 980.221071 -1008.635664 
L 980.227843 -999.135125 
L 980.243077 -989.634585 
L 980.271886 -980.134046 
L 980.319197 -970.633507 
L 980.389324 -961.132968 
L 980.485573 -951.632428 
L 980.609902 -942.131889 
L 980.762691 -932.63135 
L 980.942629 -923.130811 
L 981.14675 -913.630271 
L 981.370604 -904.129732 
L 981.608566 -894.629193 
L 981.854241 -885.128654 
L 982.100925 -875.628114 
L 982.342082 -866.127575 
L 982.571788 -856.627036 
L 982.785101 -847.126497 
L 982.978339 -837.625957 
L 983.149258 -828.125418 
L 983.297121 -818.624879 
L 983.422692 -809.124339 
L 983.528149 -799.6238 
L 983.616921 -790.123261 
L 983.693467 -780.622722 
L 983.762967 -771.122182 
L 983.83094 -761.621643 
L 983.902787 -752.121104 
L 983.983284 -742.620565 
L 984.076076 -733.120025 
L 984.183242 -723.619486 
L 984.304999 -714.118947 
L 984.439626 -704.618408 
L 984.58364 -695.117868 
L 984.732242 -685.617329 
L 984.879986 -676.11679 
L 985.021582 -666.61625 
L 985.15272 -657.115711 
L 985.270775 -647.615172 
L 985.375284 -638.114633 
L 985.468094 -628.614093 
L 985.55318 -619.113554 
L 985.636133 -609.613015 
L 985.72342 -600.112476 
L 985.82155 -590.611936 
L 985.936266 -581.111397 
L 986.071936 -571.610858 
L 986.231208 -562.110319 
L 986.415023 -552.609779 
L 986.622961 -543.10924 
L 986.853859 -533.608701 
L 987.106616 -524.108161 
L 987.381019 -514.607622 
L 987.678484 -505.107083 
L 988.002569 -495.606544 
L 988.359198 -486.106004 
L 988.756573 -476.605465 
L 989.204812 -467.104926 
L 989.715424 -457.604387 
L 990.300739 -448.103847 
L 990.973463 -438.603308 
L 991.746474 -429.102769 
L 992.63294 -419.60223 
L 993.646734 -410.10169 
L 994.803032 -400.601151 
L 996.118861 -391.100612 
L 997.61325 -381.600072 
L 999.306639 -372.099533 
L 1001.219182 -362.598994 
L 1003.36773 -353.098455 
L 1005.761499 -343.597915 
L 1008.396692 -334.097376 
L 1011.250718 -324.596837 
L 1014.276906 -315.096298 
L 1017.400815 -305.595758 
L 1020.519266 -296.095219 
L 1023.502966 -286.59468 
L 1026.20319 -277.094141 
L 1028.46232 -267.593601 
L 1030.127366 -258.093062 
L 1031.06495 -248.592523 
L 1031.17578 -239.091983 
L 1030.406549 -229.591444 
L 1028.757431 -220.090905 
L 1026.283942 -210.590366 
L 1023.092769 -201.089826 
L 1019.332119 -191.589287 
L 1015.177901 -182.088748 
L 1010.8177 -172.588209 
L 1006.434665 -163.087669 
z
" id="m47f35f5dda" style="stroke:#4c4c4c;stroke-width:5;"/>
    </defs>
    <g clip-path="url(#p0e0e3645b3)">
     <use style="fill:#cc8963;stroke:#4c4c4c;stroke-width:5;" x="0" xlink:href="#m47f35f5dda" y="1296"/>
    </g>
   </g>
   <g id="line2d_6">
    <path clip-path="url(#p0e0e3645b3)" d="M 452.601672 1069.016873 
L 452.601672 1069.016873 
" style="fill:none;stroke:#4c4c4c;stroke-linecap:round;stroke-width:5;"/>
   </g>
   <g id="line2d_7">
    <path clip-path="url(#p0e0e3645b3)" d="M 452.601672 1069.016873 
L 452.601672 1069.016873 
" style="fill:none;stroke:#4c4c4c;stroke-linecap:round;stroke-width:15;"/>
   </g>
   <g id="line2d_8">
    <path clip-path="url(#p0e0e3645b3)" d="M 979.632544 1069.016873 
L 979.632544 704.233716 
" style="fill:none;stroke:#4c4c4c;stroke-linecap:round;stroke-width:5;"/>
   </g>
   <g id="line2d_9">
    <path clip-path="url(#p0e0e3645b3)" d="M 979.632544 1069.016873 
L 979.632544 914.890656 
" style="fill:none;stroke:#4c4c4c;stroke-linecap:round;stroke-width:15;"/>
   </g>
   <g id="line2d_10">
    <path clip-path="url(#p0e0e3645b3)" d="M 452.601672 194.177877 
L 452.601672 173.485703 
L 979.632544 173.485703 
L 979.632544 194.177877 
" style="fill:none;stroke:#333333;stroke-linecap:round;stroke-width:1.5;"/>
   </g>
   <g id="patch_3">
    <path d="M 202.32 1179.94 
L 202.32 96.12 
" style="fill:none;stroke:#cccccc;stroke-linecap:square;stroke-linejoin:miter;stroke-width:2.5;"/>
   </g>
   <g id="patch_4">
    <path d="M 1070.645102 1179.94 
L 1070.645102 96.12 
" style="fill:none;stroke:#cccccc;stroke-linecap:square;stroke-linejoin:miter;stroke-width:2.5;"/>
   </g>
   <g id="patch_5">
    <path d="M 202.32 1179.94 
L 1070.645102 1179.94 
" style="fill:none;stroke:#cccccc;stroke-linecap:square;stroke-linejoin:miter;stroke-width:2.5;"/>
   </g>
   <g id="patch_6">
    <path d="M 202.32 96.12 
L 1070.645102 96.12 
" style="fill:none;stroke:#cccccc;stroke-linecap:square;stroke-linejoin:miter;stroke-width:2.5;"/>
   </g>
   <g id="PathCollection_1">
    <defs>
     <path d="M 0 5 
C 1.326016 5 2.597899 4.473168 3.535534 3.535534 
C 4.473168 2.597899 5 1.326016 5 0 
C 5 -1.326016 4.473168 -2.597899 3.535534 -3.535534 
C 2.597899 -4.473168 1.326016 -5 0 -5 
C -1.326016 -5 -2.597899 -4.473168 -3.535534 -3.535534 
C -4.473168 -2.597899 -5 -1.326016 -5 0 
C -5 1.326016 -4.473168 2.597899 -3.535534 3.535534 
C -2.597899 4.473168 -1.326016 5 0 5 
z
" id="mc1b250f2d1" style="stroke:#4c4c4c;stroke-width:2;"/>
    </defs>
    <g clip-path="url(#p0e0e3645b3)">
     <use style="fill:#ffffff;stroke:#4c4c4c;stroke-width:2;" x="452.601672" xlink:href="#mc1b250f2d1" y="1069.016873"/>
    </g>
   </g>
   <g id="PathCollection_2">
    <g clip-path="url(#p0e0e3645b3)">
     <use style="fill:#ffffff;stroke:#4c4c4c;stroke-width:2;" x="979.632544" xlink:href="#mc1b250f2d1" y="1050.884377"/>
    </g>
   </g>
   <g id="text_9">
    <!-- **** -->
    <g transform="translate(677.195233 162.548203)scale(0.5 -0.5)">
     <defs>
      <path d="M 3.125 58.453125 
L 5.375 65.375 
Q 13.140625 62.640625 16.65625 60.640625 
Q 15.71875 69.484375 15.671875 72.796875 
L 22.75 72.796875 
Q 22.609375 67.96875 21.625 60.6875 
Q 26.65625 63.234375 33.15625 65.375 
L 35.40625 58.453125 
Q 29.203125 56.390625 23.25 55.71875 
Q 26.21875 53.125 31.640625 46.484375 
L 25.78125 42.328125 
Q 22.953125 46.1875 19.09375 52.828125 
Q 15.484375 45.953125 12.75 42.328125 
L 6.984375 46.484375 
Q 12.640625 53.46875 15.09375 55.71875 
Q 8.796875 56.9375 3.125 58.453125 
z
" id="ArialMT-42"/>
     </defs>
     <use xlink:href="#ArialMT-42"/>
     <use x="38.916016" xlink:href="#ArialMT-42"/>
     <use x="77.832031" xlink:href="#ArialMT-42"/>
     <use x="116.748047" xlink:href="#ArialMT-42"/>
    </g>
   </g>
   <g id="text_10">
    <!-- Treponema spp. (K.W. p=3.35e-09) -->
    <g transform="translate(244.877082 90.12)scale(0.5 -0.5)">
     <defs>
      <path d="M 25.921875 0 
L 25.921875 63.140625 
L 2.34375 63.140625 
L 2.34375 71.578125 
L 59.078125 71.578125 
L 59.078125 63.140625 
L 35.40625 63.140625 
L 35.40625 0 
z
" id="ArialMT-84"/>
      <path d="M 6.59375 -19.875 
L 6.59375 51.859375 
L 14.59375 51.859375 
L 14.59375 45.125 
Q 17.4375 49.078125 21 51.046875 
Q 24.5625 53.03125 29.640625 53.03125 
Q 36.28125 53.03125 41.359375 49.609375 
Q 46.4375 46.1875 49.015625 39.953125 
Q 51.609375 33.734375 51.609375 26.3125 
Q 51.609375 18.359375 48.75 11.984375 
Q 45.90625 5.609375 40.453125 2.21875 
Q 35.015625 -1.171875 29 -1.171875 
Q 24.609375 -1.171875 21.109375 0.6875 
Q 17.625 2.546875 15.375 5.375 
L 15.375 -19.875 
z
M 14.546875 25.640625 
Q 14.546875 15.625 18.59375 10.84375 
Q 22.65625 6.0625 28.421875 6.0625 
Q 34.28125 6.0625 38.453125 11.015625 
Q 42.625 15.96875 42.625 26.375 
Q 42.625 36.28125 38.546875 41.203125 
Q 34.46875 46.140625 28.8125 46.140625 
Q 23.1875 46.140625 18.859375 40.890625 
Q 14.546875 35.640625 14.546875 25.640625 
z
" id="ArialMT-112"/>
      <path d="M 6.59375 0 
L 6.59375 51.859375 
L 14.453125 51.859375 
L 14.453125 44.578125 
Q 16.890625 48.390625 20.9375 50.703125 
Q 25 53.03125 30.171875 53.03125 
Q 35.9375 53.03125 39.625 50.640625 
Q 43.3125 48.25 44.828125 43.953125 
Q 50.984375 53.03125 60.84375 53.03125 
Q 68.5625 53.03125 72.703125 48.75 
Q 76.859375 44.484375 76.859375 35.59375 
L 76.859375 0 
L 68.109375 0 
L 68.109375 32.671875 
Q 68.109375 37.9375 67.25 40.25 
Q 66.40625 42.578125 64.15625 43.984375 
Q 61.921875 45.40625 58.890625 45.40625 
Q 53.421875 45.40625 49.796875 41.765625 
Q 46.1875 38.140625 46.1875 30.125 
L 46.1875 0 
L 37.40625 0 
L 37.40625 33.6875 
Q 37.40625 39.546875 35.25 42.46875 
Q 33.109375 45.40625 28.21875 45.40625 
Q 24.515625 45.40625 21.359375 43.453125 
Q 18.21875 41.5 16.796875 37.734375 
Q 15.375 33.984375 15.375 26.90625 
L 15.375 0 
z
" id="ArialMT-109"/>
      <path id="ArialMT-32"/>
      <path d="M 3.078125 15.484375 
L 11.765625 16.84375 
Q 12.5 11.625 15.84375 8.84375 
Q 19.1875 6.0625 25.203125 6.0625 
Q 31.25 6.0625 34.171875 8.515625 
Q 37.109375 10.984375 37.109375 14.3125 
Q 37.109375 17.28125 34.515625 19 
Q 32.71875 20.171875 25.53125 21.96875 
Q 15.875 24.421875 12.140625 26.203125 
Q 8.40625 27.984375 6.46875 31.125 
Q 4.546875 34.28125 4.546875 38.09375 
Q 4.546875 41.546875 6.125 44.5 
Q 7.71875 47.46875 10.453125 49.421875 
Q 12.5 50.921875 16.03125 51.96875 
Q 19.578125 53.03125 23.640625 53.03125 
Q 29.734375 53.03125 34.34375 51.265625 
Q 38.96875 49.515625 41.15625 46.5 
Q 43.359375 43.5 44.1875 38.484375 
L 35.59375 37.3125 
Q 35.015625 41.3125 32.203125 43.546875 
Q 29.390625 45.796875 24.265625 45.796875 
Q 18.21875 45.796875 15.625 43.796875 
Q 13.03125 41.796875 13.03125 39.109375 
Q 13.03125 37.40625 14.109375 36.03125 
Q 15.1875 34.625 17.484375 33.6875 
Q 18.796875 33.203125 25.25 31.453125 
Q 34.578125 28.953125 38.25 27.359375 
Q 41.9375 25.78125 44.03125 22.75 
Q 46.140625 19.734375 46.140625 15.234375 
Q 46.140625 10.84375 43.578125 6.953125 
Q 41.015625 3.078125 36.171875 0.953125 
Q 31.34375 -1.171875 25.25 -1.171875 
Q 15.140625 -1.171875 9.84375 3.03125 
Q 4.546875 7.234375 3.078125 15.484375 
z
" id="ArialMT-115"/>
      <path d="M 9.078125 0 
L 9.078125 10.015625 
L 19.09375 10.015625 
L 19.09375 0 
z
" id="ArialMT-46"/>
      <path d="M 23.390625 -21.046875 
Q 16.109375 -11.859375 11.078125 0.4375 
Q 6.0625 12.75 6.0625 25.921875 
Q 6.0625 37.546875 9.8125 48.1875 
Q 14.203125 60.546875 23.390625 72.796875 
L 29.6875 72.796875 
Q 23.78125 62.640625 21.875 58.296875 
Q 18.890625 51.5625 17.1875 44.234375 
Q 15.09375 35.109375 15.09375 25.875 
Q 15.09375 2.390625 29.6875 -21.046875 
z
" id="ArialMT-40"/>
      <path d="M 7.328125 0 
L 7.328125 71.578125 
L 16.796875 71.578125 
L 16.796875 36.078125 
L 52.34375 71.578125 
L 65.1875 71.578125 
L 35.15625 42.578125 
L 66.5 0 
L 54 0 
L 28.515625 36.234375 
L 16.796875 24.8125 
L 16.796875 0 
z
" id="ArialMT-75"/>
      <path d="M 20.21875 0 
L 1.21875 71.578125 
L 10.9375 71.578125 
L 21.828125 24.65625 
Q 23.578125 17.28125 24.859375 10.015625 
Q 27.59375 21.484375 28.078125 23.25 
L 41.703125 71.578125 
L 53.125 71.578125 
L 63.375 35.359375 
Q 67.234375 21.875 68.953125 10.015625 
Q 70.3125 16.796875 72.515625 25.59375 
L 83.734375 71.578125 
L 93.265625 71.578125 
L 73.640625 0 
L 64.5 0 
L 49.421875 54.546875 
Q 47.515625 61.375 47.171875 62.9375 
Q 46.046875 58.015625 45.0625 54.546875 
L 29.890625 0 
z
" id="ArialMT-87"/>
      <path d="M 52.828125 42.09375 
L 5.5625 42.09375 
L 5.5625 50.296875 
L 52.828125 50.296875 
z
M 52.828125 20.359375 
L 5.5625 20.359375 
L 5.5625 28.5625 
L 52.828125 28.5625 
z
" id="ArialMT-61"/>
      <path d="M 4.15625 18.75 
L 13.375 19.53125 
Q 14.40625 12.796875 18.140625 9.390625 
Q 21.875 6 27.15625 6 
Q 33.5 6 37.890625 10.78125 
Q 42.28125 15.578125 42.28125 23.484375 
Q 42.28125 31 38.0625 35.34375 
Q 33.84375 39.703125 27 39.703125 
Q 22.75 39.703125 19.328125 37.765625 
Q 15.921875 35.84375 13.96875 32.765625 
L 5.71875 33.84375 
L 12.640625 70.609375 
L 48.25 70.609375 
L 48.25 62.203125 
L 19.671875 62.203125 
L 15.828125 42.96875 
Q 22.265625 47.46875 29.34375 47.46875 
Q 38.71875 47.46875 45.15625 40.96875 
Q 51.609375 34.46875 51.609375 24.265625 
Q 51.609375 14.546875 45.953125 7.46875 
Q 39.0625 -1.21875 27.15625 -1.21875 
Q 17.390625 -1.21875 11.203125 4.25 
Q 5.03125 9.71875 4.15625 18.75 
z
" id="ArialMT-53"/>
      <path d="M 3.171875 21.484375 
L 3.171875 30.328125 
L 30.171875 30.328125 
L 30.171875 21.484375 
z
" id="ArialMT-45"/>
      <path d="M 5.46875 16.546875 
L 13.921875 17.328125 
Q 14.984375 11.375 18.015625 8.6875 
Q 21.046875 6 25.78125 6 
Q 29.828125 6 32.875 7.859375 
Q 35.9375 9.71875 37.890625 12.8125 
Q 39.84375 15.921875 41.15625 21.1875 
Q 42.484375 26.46875 42.484375 31.9375 
Q 42.484375 32.515625 42.4375 33.6875 
Q 39.796875 29.5 35.234375 26.875 
Q 30.671875 24.265625 25.34375 24.265625 
Q 16.453125 24.265625 10.296875 30.703125 
Q 4.15625 37.15625 4.15625 47.703125 
Q 4.15625 58.59375 10.578125 65.234375 
Q 17 71.875 26.65625 71.875 
Q 33.640625 71.875 39.421875 68.109375 
Q 45.21875 64.359375 48.21875 57.390625 
Q 51.21875 50.4375 51.21875 37.25 
Q 51.21875 23.53125 48.234375 15.40625 
Q 45.265625 7.28125 39.375 3.03125 
Q 33.5 -1.21875 25.59375 -1.21875 
Q 17.1875 -1.21875 11.859375 3.4375 
Q 6.546875 8.109375 5.46875 16.546875 
z
M 41.453125 48.140625 
Q 41.453125 55.71875 37.421875 60.15625 
Q 33.40625 64.59375 27.734375 64.59375 
Q 21.875 64.59375 17.53125 59.8125 
Q 13.1875 55.03125 13.1875 47.40625 
Q 13.1875 40.578125 17.3125 36.296875 
Q 21.4375 32.03125 27.484375 32.03125 
Q 33.59375 32.03125 37.515625 36.296875 
Q 41.453125 40.578125 41.453125 48.140625 
z
" id="ArialMT-57"/>
      <path d="M 12.359375 -21.046875 
L 6.0625 -21.046875 
Q 20.65625 2.390625 20.65625 25.875 
Q 20.65625 35.0625 18.5625 44.09375 
Q 16.890625 51.421875 13.921875 58.15625 
Q 12.015625 62.546875 6.0625 72.796875 
L 12.359375 72.796875 
Q 21.53125 60.546875 25.921875 48.1875 
Q 29.6875 37.546875 29.6875 25.921875 
Q 29.6875 12.75 24.625 0.4375 
Q 19.578125 -11.859375 12.359375 -21.046875 
z
" id="ArialMT-41"/>
     </defs>
     <use xlink:href="#ArialMT-84"/>
     <use x="57.333984" xlink:href="#ArialMT-114"/>
     <use x="90.634766" xlink:href="#ArialMT-101"/>
     <use x="146.25" xlink:href="#ArialMT-112"/>
     <use x="201.865234" xlink:href="#ArialMT-111"/>
     <use x="257.480469" xlink:href="#ArialMT-110"/>
     <use x="313.095703" xlink:href="#ArialMT-101"/>
     <use x="368.710938" xlink:href="#ArialMT-109"/>
     <use x="452.011719" xlink:href="#ArialMT-97"/>
     <use x="507.626953" xlink:href="#ArialMT-32"/>
     <use x="535.410156" xlink:href="#ArialMT-115"/>
     <use x="585.410156" xlink:href="#ArialMT-112"/>
     <use x="641.025391" xlink:href="#ArialMT-112"/>
     <use x="696.640625" xlink:href="#ArialMT-46"/>
     <use x="724.423828" xlink:href="#ArialMT-32"/>
     <use x="752.207031" xlink:href="#ArialMT-40"/>
     <use x="785.507812" xlink:href="#ArialMT-75"/>
     <use x="852.207031" xlink:href="#ArialMT-46"/>
     <use x="879.990234" xlink:href="#ArialMT-87"/>
     <use x="968.875" xlink:href="#ArialMT-46"/>
     <use x="996.658203" xlink:href="#ArialMT-32"/>
     <use x="1024.441406" xlink:href="#ArialMT-112"/>
     <use x="1080.056641" xlink:href="#ArialMT-61"/>
     <use x="1138.455078" xlink:href="#ArialMT-51"/>
     <use x="1194.070312" xlink:href="#ArialMT-46"/>
     <use x="1221.853516" xlink:href="#ArialMT-51"/>
     <use x="1277.46875" xlink:href="#ArialMT-53"/>
     <use x="1333.083984" xlink:href="#ArialMT-101"/>
     <use x="1388.699219" xlink:href="#ArialMT-45"/>
     <use x="1422" xlink:href="#ArialMT-48"/>
     <use x="1477.615234" xlink:href="#ArialMT-57"/>
     <use x="1533.230469" xlink:href="#ArialMT-41"/>
    </g>
   </g>
  </g>
 </g>
 <defs>
  <clipPath id="p0e0e3645b3">
   <rect height="1083.82" width="868.325102" x="202.32" y="96.12"/>
  </clipPath>
 </defs>
</svg>
