<?xml version="1.0" encoding="utf-8" standalone="no"?>
<!DOCTYPE svg PUBLIC "-//W3C//DTD SVG 1.1//EN"
  "http://www.w3.org/Graphics/SVG/1.1/DTD/svg11.dtd">
<!-- Created with matplotlib (https://matplotlib.org/) -->
<svg height="1296pt" version="1.1" viewBox="0 0 1296 1296" width="1296pt" xmlns="http://www.w3.org/2000/svg" xmlns:xlink="http://www.w3.org/1999/xlink">
 <metadata>
  <rdf:RDF xmlns:cc="http://creativecommons.org/ns#" xmlns:dc="http://purl.org/dc/elements/1.1/" xmlns:rdf="http://www.w3.org/1999/02/22-rdf-syntax-ns#">
   <cc:Work>
    <dc:type rdf:resource="http://purl.org/dc/dcmitype/StillImage"/>
    <dc:date>2022-06-29T14:10:18.355496</dc:date>
    <dc:format>image/svg+xml</dc:format>
    <dc:creator>
     <cc:Agent>
      <dc:title>Matplotlib v3.3.3, https://matplotlib.org/</dc:title>
     </cc:Agent>
    </dc:creator>
   </cc:Work>
  </rdf:RDF>
 </metadata>
 <defs>
  <style type="text/css">*{stroke-linecap:butt;stroke-linejoin:round;}</style>
 </defs>
 <g id="figure_1">
  <g id="patch_1">
   <path d="M 0 1296 
L 1296 1296 
L 1296 0 
L 0 0 
z
" style="fill:#ffffff;"/>
  </g>
  <g id="axes_1">
   <g id="patch_2">
    <path d="M 202.32 1179.94 
L 1242 1179.94 
L 1242 96.24 
L 202.32 96.24 
z
" style="fill:#ffffff;"/>
   </g>
   <g id="matplotlib.axis_1">
    <g id="xtick_1">
     <g id="text_1">
      <!-- Healthy -->
      <g style="fill:#262626;" transform="translate(246.955972 1231.229063)scale(0.5 -0.5)">
       <defs>
        <path d="M 8.015625 0 
L 8.015625 71.578125 
L 17.484375 71.578125 
L 17.484375 42.1875 
L 54.6875 42.1875 
L 54.6875 71.578125 
L 64.15625 71.578125 
L 64.15625 0 
L 54.6875 0 
L 54.6875 33.734375 
L 17.484375 33.734375 
L 17.484375 0 
z
" id="ArialMT-72"/>
        <path d="M 42.09375 16.703125 
L 51.171875 15.578125 
Q 49.03125 7.625 43.21875 3.21875 
Q 37.40625 -1.171875 28.375 -1.171875 
Q 17 -1.171875 10.328125 5.828125 
Q 3.65625 12.84375 3.65625 25.484375 
Q 3.65625 38.578125 10.390625 45.796875 
Q 17.140625 53.03125 27.875 53.03125 
Q 38.28125 53.03125 44.875 45.953125 
Q 51.46875 38.875 51.46875 26.03125 
Q 51.46875 25.25 51.421875 23.6875 
L 12.75 23.6875 
Q 13.234375 15.140625 17.578125 10.59375 
Q 21.921875 6.0625 28.421875 6.0625 
Q 33.25 6.0625 36.671875 8.59375 
Q 40.09375 11.140625 42.09375 16.703125 
z
M 13.234375 30.90625 
L 42.1875 30.90625 
Q 41.609375 37.453125 38.875 40.71875 
Q 34.671875 45.796875 27.984375 45.796875 
Q 21.921875 45.796875 17.796875 41.75 
Q 13.671875 37.703125 13.234375 30.90625 
z
" id="ArialMT-101"/>
        <path d="M 40.4375 6.390625 
Q 35.546875 2.25 31.03125 0.53125 
Q 26.515625 -1.171875 21.34375 -1.171875 
Q 12.796875 -1.171875 8.203125 3 
Q 3.609375 7.171875 3.609375 13.671875 
Q 3.609375 17.484375 5.34375 20.625 
Q 7.078125 23.78125 9.890625 25.6875 
Q 12.703125 27.59375 16.21875 28.5625 
Q 18.796875 29.25 24.03125 29.890625 
Q 34.671875 31.15625 39.703125 32.90625 
Q 39.75 34.71875 39.75 35.203125 
Q 39.75 40.578125 37.25 42.78125 
Q 33.890625 45.75 27.25 45.75 
Q 21.046875 45.75 18.09375 43.578125 
Q 15.140625 41.40625 13.71875 35.890625 
L 5.125 37.0625 
Q 6.296875 42.578125 8.984375 45.96875 
Q 11.671875 49.359375 16.75 51.1875 
Q 21.828125 53.03125 28.515625 53.03125 
Q 35.15625 53.03125 39.296875 51.46875 
Q 43.453125 49.90625 45.40625 47.53125 
Q 47.359375 45.171875 48.140625 41.546875 
Q 48.578125 39.3125 48.578125 33.453125 
L 48.578125 21.734375 
Q 48.578125 9.46875 49.140625 6.21875 
Q 49.703125 2.984375 51.375 0 
L 42.1875 0 
Q 40.828125 2.734375 40.4375 6.390625 
z
M 39.703125 26.03125 
Q 34.90625 24.078125 25.34375 22.703125 
Q 19.921875 21.921875 17.671875 20.9375 
Q 15.4375 19.96875 14.203125 18.09375 
Q 12.984375 16.21875 12.984375 13.921875 
Q 12.984375 10.40625 15.640625 8.0625 
Q 18.3125 5.71875 23.4375 5.71875 
Q 28.515625 5.71875 32.46875 7.9375 
Q 36.421875 10.15625 38.28125 14.015625 
Q 39.703125 17 39.703125 22.796875 
z
" id="ArialMT-97"/>
        <path d="M 6.390625 0 
L 6.390625 71.578125 
L 15.1875 71.578125 
L 15.1875 0 
z
" id="ArialMT-108"/>
        <path d="M 25.78125 7.859375 
L 27.046875 0.09375 
Q 23.34375 -0.6875 20.40625 -0.6875 
Q 15.625 -0.6875 12.984375 0.828125 
Q 10.359375 2.34375 9.28125 4.8125 
Q 8.203125 7.28125 8.203125 15.1875 
L 8.203125 45.015625 
L 1.765625 45.015625 
L 1.765625 51.859375 
L 8.203125 51.859375 
L 8.203125 64.703125 
L 16.9375 69.96875 
L 16.9375 51.859375 
L 25.78125 51.859375 
L 25.78125 45.015625 
L 16.9375 45.015625 
L 16.9375 14.703125 
Q 16.9375 10.9375 17.40625 9.859375 
Q 17.875 8.796875 18.921875 8.15625 
Q 19.96875 7.515625 21.921875 7.515625 
Q 23.390625 7.515625 25.78125 7.859375 
z
" id="ArialMT-116"/>
        <path d="M 6.59375 0 
L 6.59375 71.578125 
L 15.375 71.578125 
L 15.375 45.90625 
Q 21.53125 53.03125 30.90625 53.03125 
Q 36.671875 53.03125 40.921875 50.75 
Q 45.171875 48.484375 47 44.484375 
Q 48.828125 40.484375 48.828125 32.859375 
L 48.828125 0 
L 40.046875 0 
L 40.046875 32.859375 
Q 40.046875 39.453125 37.1875 42.453125 
Q 34.328125 45.453125 29.109375 45.453125 
Q 25.203125 45.453125 21.75 43.421875 
Q 18.3125 41.40625 16.84375 37.9375 
Q 15.375 34.46875 15.375 28.375 
L 15.375 0 
z
" id="ArialMT-104"/>
        <path d="M 6.203125 -19.96875 
L 5.21875 -11.71875 
Q 8.109375 -12.5 10.25 -12.5 
Q 13.1875 -12.5 14.9375 -11.515625 
Q 16.703125 -10.546875 17.828125 -8.796875 
Q 18.65625 -7.46875 20.515625 -2.25 
Q 20.75 -1.515625 21.296875 -0.09375 
L 1.609375 51.859375 
L 11.078125 51.859375 
L 21.875 21.828125 
Q 23.96875 16.109375 25.640625 9.8125 
Q 27.15625 15.875 29.25 21.625 
L 40.328125 51.859375 
L 49.125 51.859375 
L 29.390625 -0.875 
Q 26.21875 -9.421875 24.46875 -12.640625 
Q 22.125 -17 19.09375 -19.015625 
Q 16.0625 -21.046875 11.859375 -21.046875 
Q 9.328125 -21.046875 6.203125 -19.96875 
z
" id="ArialMT-121"/>
       </defs>
       <use xlink:href="#ArialMT-72"/>
       <use x="72.216797" xlink:href="#ArialMT-101"/>
       <use x="127.832031" xlink:href="#ArialMT-97"/>
       <use x="183.447266" xlink:href="#ArialMT-108"/>
       <use x="205.664062" xlink:href="#ArialMT-116"/>
       <use x="233.447266" xlink:href="#ArialMT-104"/>
       <use x="289.0625" xlink:href="#ArialMT-121"/>
      </g>
     </g>
    </g>
    <g id="xtick_2">
     <g id="text_2">
      <!-- Slight+Moderate+Severe -->
      <g style="fill:#262626;" transform="translate(671.612715 1231.838438)scale(0.5 -0.5)">
       <defs>
        <path d="M 4.5 23 
L 13.421875 23.78125 
Q 14.0625 18.40625 16.375 14.96875 
Q 18.703125 11.53125 23.578125 9.40625 
Q 28.46875 7.28125 34.578125 7.28125 
Q 39.984375 7.28125 44.140625 8.890625 
Q 48.296875 10.5 50.3125 13.296875 
Q 52.34375 16.109375 52.34375 19.4375 
Q 52.34375 22.796875 50.390625 25.3125 
Q 48.4375 27.828125 43.953125 29.546875 
Q 41.0625 30.671875 31.203125 33.03125 
Q 21.34375 35.40625 17.390625 37.5 
Q 12.25 40.1875 9.734375 44.15625 
Q 7.234375 48.140625 7.234375 53.078125 
Q 7.234375 58.5 10.296875 63.203125 
Q 13.375 67.921875 19.28125 70.359375 
Q 25.203125 72.796875 32.421875 72.796875 
Q 40.375 72.796875 46.453125 70.234375 
Q 52.546875 67.671875 55.8125 62.6875 
Q 59.078125 57.71875 59.328125 51.421875 
L 50.25 50.734375 
Q 49.515625 57.515625 45.28125 60.984375 
Q 41.0625 64.453125 32.8125 64.453125 
Q 24.21875 64.453125 20.28125 61.296875 
Q 16.359375 58.15625 16.359375 53.71875 
Q 16.359375 49.859375 19.140625 47.359375 
Q 21.875 44.875 33.421875 42.265625 
Q 44.96875 39.65625 49.265625 37.703125 
Q 55.515625 34.8125 58.484375 30.390625 
Q 61.46875 25.984375 61.46875 20.21875 
Q 61.46875 14.5 58.203125 9.4375 
Q 54.9375 4.390625 48.796875 1.578125 
Q 42.671875 -1.21875 35.015625 -1.21875 
Q 25.296875 -1.21875 18.71875 1.609375 
Q 12.15625 4.4375 8.421875 10.125 
Q 4.6875 15.828125 4.5 23 
z
" id="ArialMT-83"/>
        <path d="M 6.640625 61.46875 
L 6.640625 71.578125 
L 15.4375 71.578125 
L 15.4375 61.46875 
z
M 6.640625 0 
L 6.640625 51.859375 
L 15.4375 51.859375 
L 15.4375 0 
z
" id="ArialMT-105"/>
        <path d="M 4.984375 -4.296875 
L 13.53125 -5.5625 
Q 14.0625 -9.515625 16.5 -11.328125 
Q 19.78125 -13.765625 25.4375 -13.765625 
Q 31.546875 -13.765625 34.859375 -11.328125 
Q 38.1875 -8.890625 39.359375 -4.5 
Q 40.046875 -1.8125 39.984375 6.78125 
Q 34.234375 0 25.640625 0 
Q 14.9375 0 9.078125 7.71875 
Q 3.21875 15.4375 3.21875 26.21875 
Q 3.21875 33.640625 5.90625 39.90625 
Q 8.59375 46.1875 13.6875 49.609375 
Q 18.796875 53.03125 25.6875 53.03125 
Q 34.859375 53.03125 40.828125 45.609375 
L 40.828125 51.859375 
L 48.921875 51.859375 
L 48.921875 7.03125 
Q 48.921875 -5.078125 46.453125 -10.125 
Q 44 -15.1875 38.640625 -18.109375 
Q 33.296875 -21.046875 25.484375 -21.046875 
Q 16.21875 -21.046875 10.5 -16.875 
Q 4.78125 -12.703125 4.984375 -4.296875 
z
M 12.25 26.859375 
Q 12.25 16.65625 16.296875 11.96875 
Q 20.359375 7.28125 26.46875 7.28125 
Q 32.515625 7.28125 36.609375 11.9375 
Q 40.71875 16.609375 40.71875 26.5625 
Q 40.71875 36.078125 36.5 40.90625 
Q 32.28125 45.75 26.3125 45.75 
Q 20.453125 45.75 16.34375 40.984375 
Q 12.25 36.234375 12.25 26.859375 
z
" id="ArialMT-103"/>
        <path d="M 25.046875 11.578125 
L 25.046875 31.203125 
L 5.5625 31.203125 
L 5.5625 39.40625 
L 25.046875 39.40625 
L 25.046875 58.890625 
L 33.34375 58.890625 
L 33.34375 39.40625 
L 52.828125 39.40625 
L 52.828125 31.203125 
L 33.34375 31.203125 
L 33.34375 11.578125 
z
" id="ArialMT-43"/>
        <path d="M 7.421875 0 
L 7.421875 71.578125 
L 21.6875 71.578125 
L 38.625 20.90625 
Q 40.96875 13.8125 42.046875 10.296875 
Q 43.265625 14.203125 45.84375 21.78125 
L 62.984375 71.578125 
L 75.734375 71.578125 
L 75.734375 0 
L 66.609375 0 
L 66.609375 59.90625 
L 45.796875 0 
L 37.25 0 
L 16.546875 60.9375 
L 16.546875 0 
z
" id="ArialMT-77"/>
        <path d="M 3.328125 25.921875 
Q 3.328125 40.328125 11.328125 47.265625 
Q 18.015625 53.03125 27.640625 53.03125 
Q 38.328125 53.03125 45.109375 46.015625 
Q 51.90625 39.015625 51.90625 26.65625 
Q 51.90625 16.65625 48.90625 10.90625 
Q 45.90625 5.171875 40.15625 2 
Q 34.421875 -1.171875 27.640625 -1.171875 
Q 16.75 -1.171875 10.03125 5.8125 
Q 3.328125 12.796875 3.328125 25.921875 
z
M 12.359375 25.921875 
Q 12.359375 15.96875 16.703125 11.015625 
Q 21.046875 6.0625 27.640625 6.0625 
Q 34.1875 6.0625 38.53125 11.03125 
Q 42.875 16.015625 42.875 26.21875 
Q 42.875 35.84375 38.5 40.796875 
Q 34.125 45.75 27.640625 45.75 
Q 21.046875 45.75 16.703125 40.8125 
Q 12.359375 35.890625 12.359375 25.921875 
z
" id="ArialMT-111"/>
        <path d="M 40.234375 0 
L 40.234375 6.546875 
Q 35.296875 -1.171875 25.734375 -1.171875 
Q 19.53125 -1.171875 14.328125 2.25 
Q 9.125 5.671875 6.265625 11.796875 
Q 3.421875 17.921875 3.421875 25.875 
Q 3.421875 33.640625 6 39.96875 
Q 8.59375 46.296875 13.765625 49.65625 
Q 18.953125 53.03125 25.34375 53.03125 
Q 30.03125 53.03125 33.6875 51.046875 
Q 37.359375 49.078125 39.65625 45.90625 
L 39.65625 71.578125 
L 48.390625 71.578125 
L 48.390625 0 
z
M 12.453125 25.875 
Q 12.453125 15.921875 16.640625 10.984375 
Q 20.84375 6.0625 26.5625 6.0625 
Q 32.328125 6.0625 36.34375 10.765625 
Q 40.375 15.484375 40.375 25.140625 
Q 40.375 35.796875 36.265625 40.765625 
Q 32.171875 45.75 26.171875 45.75 
Q 20.3125 45.75 16.375 40.96875 
Q 12.453125 36.1875 12.453125 25.875 
z
" id="ArialMT-100"/>
        <path d="M 6.5 0 
L 6.5 51.859375 
L 14.40625 51.859375 
L 14.40625 44 
Q 17.4375 49.515625 20 51.265625 
Q 22.5625 53.03125 25.640625 53.03125 
Q 30.078125 53.03125 34.671875 50.203125 
L 31.640625 42.046875 
Q 28.421875 43.953125 25.203125 43.953125 
Q 22.3125 43.953125 20.015625 42.21875 
Q 17.71875 40.484375 16.75 37.40625 
Q 15.28125 32.71875 15.28125 27.15625 
L 15.28125 0 
z
" id="ArialMT-114"/>
        <path d="M 21 0 
L 1.265625 51.859375 
L 10.546875 51.859375 
L 21.6875 20.796875 
Q 23.484375 15.765625 25 10.359375 
Q 26.171875 14.453125 28.265625 20.21875 
L 39.796875 51.859375 
L 48.828125 51.859375 
L 29.203125 0 
z
" id="ArialMT-118"/>
       </defs>
       <use xlink:href="#ArialMT-83"/>
       <use x="66.699219" xlink:href="#ArialMT-108"/>
       <use x="88.916016" xlink:href="#ArialMT-105"/>
       <use x="111.132812" xlink:href="#ArialMT-103"/>
       <use x="166.748047" xlink:href="#ArialMT-104"/>
       <use x="222.363281" xlink:href="#ArialMT-116"/>
       <use x="250.146484" xlink:href="#ArialMT-43"/>
       <use x="308.544922" xlink:href="#ArialMT-77"/>
       <use x="391.845703" xlink:href="#ArialMT-111"/>
       <use x="447.460938" xlink:href="#ArialMT-100"/>
       <use x="503.076172" xlink:href="#ArialMT-101"/>
       <use x="558.691406" xlink:href="#ArialMT-114"/>
       <use x="591.992188" xlink:href="#ArialMT-97"/>
       <use x="647.607422" xlink:href="#ArialMT-116"/>
       <use x="675.390625" xlink:href="#ArialMT-101"/>
       <use x="731.005859" xlink:href="#ArialMT-43"/>
       <use x="789.404297" xlink:href="#ArialMT-83"/>
       <use x="856.103516" xlink:href="#ArialMT-101"/>
       <use x="911.71875" xlink:href="#ArialMT-118"/>
       <use x="961.71875" xlink:href="#ArialMT-101"/>
       <use x="1017.333984" xlink:href="#ArialMT-114"/>
       <use x="1050.634766" xlink:href="#ArialMT-101"/>
      </g>
     </g>
    </g>
   </g>
   <g id="matplotlib.axis_2">
    <g id="ytick_1">
     <g id="line2d_1">
      <path clip-path="url(#p8c0bdffd50)" d="M 202.32 1069.359916 
L 1242 1069.359916 
" style="fill:none;stroke:#cccccc;stroke-linecap:round;stroke-width:2;"/>
     </g>
     <g id="text_3">
      <!-- 0 -->
      <g style="fill:#262626;" transform="translate(159.015313 1087.254448)scale(0.5 -0.5)">
       <defs>
        <path d="M 4.15625 35.296875 
Q 4.15625 48 6.765625 55.734375 
Q 9.375 63.484375 14.515625 67.671875 
Q 19.671875 71.875 27.484375 71.875 
Q 33.25 71.875 37.59375 69.546875 
Q 41.9375 67.234375 44.765625 62.859375 
Q 47.609375 58.5 49.21875 52.21875 
Q 50.828125 45.953125 50.828125 35.296875 
Q 50.828125 22.703125 48.234375 14.96875 
Q 45.65625 7.234375 40.5 3 
Q 35.359375 -1.21875 27.484375 -1.21875 
Q 17.140625 -1.21875 11.234375 6.203125 
Q 4.15625 15.140625 4.15625 35.296875 
z
M 13.1875 35.296875 
Q 13.1875 17.671875 17.3125 11.828125 
Q 21.4375 6 27.484375 6 
Q 33.546875 6 37.671875 11.859375 
Q 41.796875 17.71875 41.796875 35.296875 
Q 41.796875 52.984375 37.671875 58.78125 
Q 33.546875 64.59375 27.390625 64.59375 
Q 21.34375 64.59375 17.71875 59.46875 
Q 13.1875 52.9375 13.1875 35.296875 
z
" id="ArialMT-48"/>
       </defs>
       <use xlink:href="#ArialMT-48"/>
      </g>
     </g>
    </g>
    <g id="ytick_2">
     <g id="line2d_2">
      <path clip-path="url(#p8c0bdffd50)" d="M 202.32 864.569333 
L 1242 864.569333 
" style="fill:none;stroke:#cccccc;stroke-linecap:round;stroke-width:2;"/>
     </g>
     <g id="text_4">
      <!-- 100 -->
      <g style="fill:#262626;" transform="translate(103.405938 882.463865)scale(0.5 -0.5)">
       <defs>
        <path d="M 37.25 0 
L 28.46875 0 
L 28.46875 56 
Q 25.296875 52.984375 20.140625 49.953125 
Q 14.984375 46.921875 10.890625 45.40625 
L 10.890625 53.90625 
Q 18.265625 57.375 23.78125 62.296875 
Q 29.296875 67.234375 31.59375 71.875 
L 37.25 71.875 
z
" id="ArialMT-49"/>
       </defs>
       <use xlink:href="#ArialMT-49"/>
       <use x="55.615234" xlink:href="#ArialMT-48"/>
       <use x="111.230469" xlink:href="#ArialMT-48"/>
      </g>
     </g>
    </g>
    <g id="ytick_3">
     <g id="line2d_3">
      <path clip-path="url(#p8c0bdffd50)" d="M 202.32 659.77875 
L 1242 659.77875 
" style="fill:none;stroke:#cccccc;stroke-linecap:round;stroke-width:2;"/>
     </g>
     <g id="text_5">
      <!-- 200 -->
      <g style="fill:#262626;" transform="translate(103.405938 677.673282)scale(0.5 -0.5)">
       <defs>
        <path d="M 50.34375 8.453125 
L 50.34375 0 
L 3.03125 0 
Q 2.9375 3.171875 4.046875 6.109375 
Q 5.859375 10.9375 9.828125 15.625 
Q 13.8125 20.3125 21.34375 26.46875 
Q 33.015625 36.03125 37.109375 41.625 
Q 41.21875 47.21875 41.21875 52.203125 
Q 41.21875 57.421875 37.46875 61 
Q 33.734375 64.59375 27.734375 64.59375 
Q 21.390625 64.59375 17.578125 60.78125 
Q 13.765625 56.984375 13.71875 50.25 
L 4.6875 51.171875 
Q 5.609375 61.28125 11.65625 66.578125 
Q 17.71875 71.875 27.9375 71.875 
Q 38.234375 71.875 44.234375 66.15625 
Q 50.25 60.453125 50.25 52 
Q 50.25 47.703125 48.484375 43.546875 
Q 46.734375 39.40625 42.65625 34.8125 
Q 38.578125 30.21875 29.109375 22.21875 
Q 21.1875 15.578125 18.9375 13.203125 
Q 16.703125 10.84375 15.234375 8.453125 
z
" id="ArialMT-50"/>
       </defs>
       <use xlink:href="#ArialMT-50"/>
       <use x="55.615234" xlink:href="#ArialMT-48"/>
       <use x="111.230469" xlink:href="#ArialMT-48"/>
      </g>
     </g>
    </g>
    <g id="ytick_4">
     <g id="line2d_4">
      <path clip-path="url(#p8c0bdffd50)" d="M 202.32 454.988167 
L 1242 454.988167 
" style="fill:none;stroke:#cccccc;stroke-linecap:round;stroke-width:2;"/>
     </g>
     <g id="text_6">
      <!-- 300 -->
      <g style="fill:#262626;" transform="translate(103.405938 472.882699)scale(0.5 -0.5)">
       <defs>
        <path d="M 4.203125 18.890625 
L 12.984375 20.0625 
Q 14.5 12.59375 18.140625 9.296875 
Q 21.78125 6 27 6 
Q 33.203125 6 37.46875 10.296875 
Q 41.75 14.59375 41.75 20.953125 
Q 41.75 27 37.796875 30.921875 
Q 33.84375 34.859375 27.734375 34.859375 
Q 25.25 34.859375 21.53125 33.890625 
L 22.515625 41.609375 
Q 23.390625 41.5 23.921875 41.5 
Q 29.546875 41.5 34.03125 44.421875 
Q 38.53125 47.359375 38.53125 53.46875 
Q 38.53125 58.296875 35.25 61.46875 
Q 31.984375 64.65625 26.8125 64.65625 
Q 21.6875 64.65625 18.265625 61.421875 
Q 14.84375 58.203125 13.875 51.765625 
L 5.078125 53.328125 
Q 6.6875 62.15625 12.390625 67.015625 
Q 18.109375 71.875 26.609375 71.875 
Q 32.46875 71.875 37.390625 69.359375 
Q 42.328125 66.84375 44.9375 62.5 
Q 47.5625 58.15625 47.5625 53.265625 
Q 47.5625 48.640625 45.0625 44.828125 
Q 42.578125 41.015625 37.703125 38.765625 
Q 44.046875 37.3125 47.5625 32.6875 
Q 51.078125 28.078125 51.078125 21.140625 
Q 51.078125 11.765625 44.234375 5.25 
Q 37.40625 -1.265625 26.953125 -1.265625 
Q 17.53125 -1.265625 11.296875 4.34375 
Q 5.078125 9.96875 4.203125 18.890625 
z
" id="ArialMT-51"/>
       </defs>
       <use xlink:href="#ArialMT-51"/>
       <use x="55.615234" xlink:href="#ArialMT-48"/>
       <use x="111.230469" xlink:href="#ArialMT-48"/>
      </g>
     </g>
    </g>
    <g id="ytick_5">
     <g id="line2d_5">
      <path clip-path="url(#p8c0bdffd50)" d="M 202.32 250.197584 
L 1242 250.197584 
" style="fill:none;stroke:#cccccc;stroke-linecap:round;stroke-width:2;"/>
     </g>
     <g id="text_7">
      <!-- 400 -->
      <g style="fill:#262626;" transform="translate(103.405938 268.092115)scale(0.5 -0.5)">
       <defs>
        <path d="M 32.328125 0 
L 32.328125 17.140625 
L 1.265625 17.140625 
L 1.265625 25.203125 
L 33.9375 71.578125 
L 41.109375 71.578125 
L 41.109375 25.203125 
L 50.78125 25.203125 
L 50.78125 17.140625 
L 41.109375 17.140625 
L 41.109375 0 
z
M 32.328125 25.203125 
L 32.328125 57.46875 
L 9.90625 25.203125 
z
" id="ArialMT-52"/>
       </defs>
       <use xlink:href="#ArialMT-52"/>
       <use x="55.615234" xlink:href="#ArialMT-48"/>
       <use x="111.230469" xlink:href="#ArialMT-48"/>
      </g>
     </g>
    </g>
    <g id="text_8">
     <!-- Abundance -->
     <g style="fill:#262626;" transform="translate(89.468438 764.582187)rotate(-90)scale(0.5 -0.5)">
      <defs>
       <path d="M -0.140625 0 
L 27.34375 71.578125 
L 37.546875 71.578125 
L 66.84375 0 
L 56.0625 0 
L 47.703125 21.6875 
L 17.78125 21.6875 
L 9.90625 0 
z
M 20.515625 29.390625 
L 44.78125 29.390625 
L 37.3125 49.21875 
Q 33.890625 58.25 32.234375 64.0625 
Q 30.859375 57.171875 28.375 50.390625 
z
" id="ArialMT-65"/>
       <path d="M 14.703125 0 
L 6.546875 0 
L 6.546875 71.578125 
L 15.328125 71.578125 
L 15.328125 46.046875 
Q 20.90625 53.03125 29.546875 53.03125 
Q 34.328125 53.03125 38.59375 51.09375 
Q 42.875 49.171875 45.625 45.671875 
Q 48.390625 42.1875 49.953125 37.25 
Q 51.515625 32.328125 51.515625 26.703125 
Q 51.515625 13.375 44.921875 6.09375 
Q 38.328125 -1.171875 29.109375 -1.171875 
Q 19.921875 -1.171875 14.703125 6.5 
z
M 14.59375 26.3125 
Q 14.59375 17 17.140625 12.84375 
Q 21.296875 6.0625 28.375 6.0625 
Q 34.125 6.0625 38.328125 11.0625 
Q 42.53125 16.0625 42.53125 25.984375 
Q 42.53125 36.140625 38.5 40.96875 
Q 34.46875 45.796875 28.765625 45.796875 
Q 23 45.796875 18.796875 40.796875 
Q 14.59375 35.796875 14.59375 26.3125 
z
" id="ArialMT-98"/>
       <path d="M 40.578125 0 
L 40.578125 7.625 
Q 34.515625 -1.171875 24.125 -1.171875 
Q 19.53125 -1.171875 15.546875 0.578125 
Q 11.578125 2.34375 9.640625 5 
Q 7.71875 7.671875 6.9375 11.53125 
Q 6.390625 14.109375 6.390625 19.734375 
L 6.390625 51.859375 
L 15.1875 51.859375 
L 15.1875 23.09375 
Q 15.1875 16.21875 15.71875 13.8125 
Q 16.546875 10.359375 19.234375 8.375 
Q 21.921875 6.390625 25.875 6.390625 
Q 29.828125 6.390625 33.296875 8.421875 
Q 36.765625 10.453125 38.203125 13.9375 
Q 39.65625 17.4375 39.65625 24.078125 
L 39.65625 51.859375 
L 48.4375 51.859375 
L 48.4375 0 
z
" id="ArialMT-117"/>
       <path d="M 6.59375 0 
L 6.59375 51.859375 
L 14.5 51.859375 
L 14.5 44.484375 
Q 20.21875 53.03125 31 53.03125 
Q 35.6875 53.03125 39.625 51.34375 
Q 43.5625 49.65625 45.515625 46.921875 
Q 47.46875 44.1875 48.25 40.4375 
Q 48.734375 37.984375 48.734375 31.890625 
L 48.734375 0 
L 39.9375 0 
L 39.9375 31.546875 
Q 39.9375 36.921875 38.90625 39.578125 
Q 37.890625 42.234375 35.28125 43.8125 
Q 32.671875 45.40625 29.15625 45.40625 
Q 23.53125 45.40625 19.453125 41.84375 
Q 15.375 38.28125 15.375 28.328125 
L 15.375 0 
z
" id="ArialMT-110"/>
       <path d="M 40.4375 19 
L 49.078125 17.875 
Q 47.65625 8.9375 41.8125 3.875 
Q 35.984375 -1.171875 27.484375 -1.171875 
Q 16.84375 -1.171875 10.375 5.78125 
Q 3.90625 12.75 3.90625 25.734375 
Q 3.90625 34.125 6.6875 40.421875 
Q 9.46875 46.734375 15.15625 49.875 
Q 20.84375 53.03125 27.546875 53.03125 
Q 35.984375 53.03125 41.359375 48.75 
Q 46.734375 44.484375 48.25 36.625 
L 39.703125 35.296875 
Q 38.484375 40.53125 35.375 43.15625 
Q 32.28125 45.796875 27.875 45.796875 
Q 21.234375 45.796875 17.078125 41.03125 
Q 12.9375 36.28125 12.9375 25.984375 
Q 12.9375 15.53125 16.9375 10.796875 
Q 20.953125 6.0625 27.390625 6.0625 
Q 32.5625 6.0625 36.03125 9.234375 
Q 39.5 12.40625 40.4375 19 
z
" id="ArialMT-99"/>
      </defs>
      <use xlink:href="#ArialMT-65"/>
      <use x="66.699219" xlink:href="#ArialMT-98"/>
      <use x="122.314453" xlink:href="#ArialMT-117"/>
      <use x="177.929688" xlink:href="#ArialMT-110"/>
      <use x="233.544922" xlink:href="#ArialMT-100"/>
      <use x="289.160156" xlink:href="#ArialMT-97"/>
      <use x="344.775391" xlink:href="#ArialMT-110"/>
      <use x="400.390625" xlink:href="#ArialMT-99"/>
      <use x="450.390625" xlink:href="#ArialMT-101"/>
     </g>
    </g>
   </g>
   <g id="PolyCollection_1">
    <defs>
     <path d="M 372.841135 -163.068126 
L 290.594247 -163.068126 
L 283.788816 -172.564718 
L 276.974267 -182.061309 
L 270.41918 -191.5579 
L 264.398715 -201.054491 
L 259.171099 -210.551082 
L 254.954422 -220.047674 
L 251.906846 -229.544265 
L 250.112964 -239.040856 
L 249.578182 -248.537447 
L 250.231777 -258.034038 
L 251.937979 -267.53063 
L 254.513244 -277.027221 
L 257.747054 -286.523812 
L 261.423282 -296.020403 
L 265.339335 -305.516994 
L 269.320932 -315.013586 
L 273.231284 -324.510177 
L 276.974439 -334.006768 
L 280.493415 -343.503359 
L 283.764436 -352.99995 
L 286.788843 -362.496542 
L 289.584309 -371.993133 
L 292.17671 -381.489724 
L 294.593603 -390.986315 
L 296.859786 -400.482906 
L 298.994966 -409.979498 
L 301.013257 -419.476089 
L 302.923981 -428.97268 
L 304.73321 -438.469271 
L 306.445518 -447.965863 
L 308.065505 -457.462454 
L 309.598845 -466.959045 
L 311.05274 -476.455636 
L 312.435778 -485.952227 
L 313.757328 -495.448819 
L 315.026615 -504.94541 
L 316.251682 -514.442001 
L 317.438395 -523.938592 
L 318.589681 -533.435183 
L 319.705093 -542.931775 
L 320.780786 -552.428366 
L 321.809915 -561.924957 
L 322.783416 -571.421548 
L 323.691072 -580.918139 
L 324.522738 -590.414731 
L 325.269553 -599.911322 
L 325.925007 -609.407913 
L 326.485727 -618.904504 
L 326.9519 -628.401095 
L 327.327322 -637.897687 
L 327.619086 -647.394278 
L 327.836999 -656.890869 
L 327.992812 -666.38746 
L 328.099367 -675.884051 
L 328.169748 -685.380643 
L 328.216508 -694.877234 
L 328.251007 -704.373825 
L 328.282889 -713.870416 
L 328.319706 -723.367007 
L 328.366702 -732.863599 
L 328.426749 -742.36019 
L 328.500456 -751.856781 
L 328.586433 -761.353372 
L 328.681703 -770.849963 
L 328.782221 -780.346555 
L 328.883452 -789.843146 
L 328.980944 -799.339737 
L 329.070818 -808.836328 
L 329.150132 -818.332919 
L 329.217061 -827.829511 
L 329.270911 -837.326102 
L 329.311973 -846.822693 
L 329.341273 -856.319284 
L 329.360283 -865.815875 
L 329.370655 -875.312467 
L 329.374021 -884.809058 
L 329.371888 -894.305649 
L 329.365621 -903.80224 
L 329.356497 -913.298831 
L 329.345799 -922.795423 
L 329.334908 -932.292014 
L 329.325379 -941.788605 
L 329.318979 -951.285196 
L 329.31768 -960.781787 
L 329.323629 -970.278379 
L 329.339074 -979.77497 
L 329.366268 -989.271561 
L 329.407341 -998.768152 
L 329.464143 -1008.264743 
L 329.538068 -1017.761335 
L 329.629865 -1027.257926 
L 329.739461 -1036.754517 
L 329.865835 -1046.251108 
L 330.006961 -1055.747699 
L 330.159861 -1065.244291 
L 330.320756 -1074.740882 
L 330.485324 -1084.237473 
L 330.649025 -1093.734064 
L 330.807459 -1103.230655 
L 332.627923 -1103.230655 
L 332.627923 -1103.230655 
L 332.786356 -1093.734064 
L 332.950058 -1084.237473 
L 333.114625 -1074.740882 
L 333.27552 -1065.244291 
L 333.42842 -1055.747699 
L 333.569547 -1046.251108 
L 333.69592 -1036.754517 
L 333.805516 -1027.257926 
L 333.897313 -1017.761335 
L 333.971239 -1008.264743 
L 334.028041 -998.768152 
L 334.069113 -989.271561 
L 334.096307 -979.77497 
L 334.111753 -970.278379 
L 334.117702 -960.781787 
L 334.116403 -951.285196 
L 334.110002 -941.788605 
L 334.100474 -932.292014 
L 334.089583 -922.795423 
L 334.078885 -913.298831 
L 334.069761 -903.80224 
L 334.063493 -894.305649 
L 334.06136 -884.809058 
L 334.064727 -875.312467 
L 334.075099 -865.815875 
L 334.094108 -856.319284 
L 334.123408 -846.822693 
L 334.16447 -837.326102 
L 334.218321 -827.829511 
L 334.28525 -818.332919 
L 334.364563 -808.836328 
L 334.454438 -799.339737 
L 334.55193 -789.843146 
L 334.653161 -780.346555 
L 334.753679 -770.849963 
L 334.848949 -761.353372 
L 334.934926 -751.856781 
L 335.008633 -742.36019 
L 335.068679 -732.863599 
L 335.115675 -723.367007 
L 335.152493 -713.870416 
L 335.184375 -704.373825 
L 335.218874 -694.877234 
L 335.265633 -685.380643 
L 335.336014 -675.884051 
L 335.442569 -666.38746 
L 335.598383 -656.890869 
L 335.816296 -647.394278 
L 336.10806 -637.897687 
L 336.483481 -628.401095 
L 336.949655 -618.904504 
L 337.510375 -609.407913 
L 338.165829 -599.911322 
L 338.912643 -590.414731 
L 339.744309 -580.918139 
L 340.651966 -571.421548 
L 341.625466 -561.924957 
L 342.654595 -552.428366 
L 343.730288 -542.931775 
L 344.845701 -533.435183 
L 345.996987 -523.938592 
L 347.1837 -514.442001 
L 348.408766 -504.94541 
L 349.678054 -495.448819 
L 350.999604 -485.952227 
L 352.382642 -476.455636 
L 353.836536 -466.959045 
L 355.369877 -457.462454 
L 356.989863 -447.965863 
L 358.702171 -438.469271 
L 360.511401 -428.97268 
L 362.422124 -419.476089 
L 364.440415 -409.979498 
L 366.575596 -400.482906 
L 368.841778 -390.986315 
L 371.258672 -381.489724 
L 373.851073 -371.993133 
L 376.646538 -362.496542 
L 379.670945 -352.99995 
L 382.941967 -343.503359 
L 386.460943 -334.006768 
L 390.204097 -324.510177 
L 394.11445 -315.013586 
L 398.096047 -305.516994 
L 402.012099 -296.020403 
L 405.688327 -286.523812 
L 408.922137 -277.027221 
L 411.497402 -267.53063 
L 413.203605 -258.034038 
L 413.8572 -248.537447 
L 413.322418 -239.040856 
L 411.528536 -229.544265 
L 408.48096 -220.047674 
L 404.264282 -210.551082 
L 399.036666 -201.054491 
L 393.016201 -191.5579 
L 386.461115 -182.061309 
L 379.646566 -172.564718 
L 372.841135 -163.068126 
z
" id="m55f4076c74" style="stroke:#4c4c4c;stroke-width:5;"/>
    </defs>
    <g clip-path="url(#p8c0bdffd50)">
     <use style="fill:#5875a4;stroke:#4c4c4c;stroke-width:5;" x="0" xlink:href="#m55f4076c74" y="1296"/>
    </g>
   </g>
   <g id="PolyCollection_2">
    <defs>
     <path d="M 1096.706154 -198.29848 
L 799.620838 -198.29848 
L 772.171499 -203.566741 
L 746.671099 -208.835002 
L 725.21834 -214.103263 
L 709.721536 -219.371524 
L 701.606655 -224.639785 
L 701.585174 -229.908046 
L 709.533946 -235.176307 
L 724.515343 -240.444567 
L 744.933574 -245.712828 
L 768.791931 -250.981089 
L 793.994655 -256.24935 
L 818.63173 -261.517611 
L 841.195374 -266.785872 
L 860.698625 -272.054133 
L 876.691803 -277.322394 
L 889.194386 -282.590655 
L 898.573052 -287.858916 
L 905.399888 -293.127177 
L 910.319711 -298.395438 
L 913.94563 -303.663698 
L 916.791131 -308.931959 
L 919.237891 -314.20022 
L 921.532679 -319.468481 
L 923.804085 -324.736742 
L 926.089845 -330.005003 
L 928.367106 -335.273264 
L 930.580217 -340.541525 
L 932.662933 -345.809786 
L 934.553842 -351.078047 
L 936.205239 -356.346308 
L 937.586628 -361.614568 
L 938.684433 -366.882829 
L 939.499628 -372.15109 
L 940.04474 -377.419351 
L 940.341333 -382.687612 
L 940.418549 -387.955873 
L 940.312735 -393.224134 
L 940.067689 -398.492395 
L 939.734737 -403.760656 
L 939.371712 -409.028917 
L 939.040154 -414.297178 
L 938.800518 -419.565438 
L 938.705827 -424.833699 
L 938.794846 -430.10196 
L 939.086248 -435.370221 
L 939.575206 -440.638482 
L 940.233441 -445.906743 
L 941.012986 -451.175004 
L 941.853055 -456.443265 
L 942.688716 -461.711526 
L 943.459703 -466.979787 
L 944.117744 -472.248048 
L 944.631262 -477.516309 
L 944.986914 -482.784569 
L 945.188159 -488.05283 
L 945.251605 -493.321091 
L 945.20217 -498.589352 
L 945.068211 -503.857613 
L 944.877526 -509.125874 
L 944.654847 -514.394135 
L 944.420934 -519.662396 
L 944.193015 -524.930657 
L 943.985953 -530.198918 
L 943.813439 -535.467179 
L 943.688544 -540.735439 
L 943.623287 -546.0037 
L 943.627229 -551.271961 
L 943.70547 -556.540222 
L 943.856713 -561.808483 
L 944.072089 -567.076744 
L 944.335272 -572.345005 
L 944.624113 -577.613266 
L 944.913607 -582.881527 
L 945.179642 -588.149788 
L 945.402765 -593.418049 
L 945.571153 -598.68631 
L 945.682123 -603.95457 
L 945.741854 -609.222831 
L 945.763372 -614.491092 
L 945.76326 -619.759353 
L 945.757837 -625.027614 
L 945.759698 -630.295875 
L 945.775381 -635.564136 
L 945.804696 -640.832397 
L 945.841812 -646.100658 
L 945.877772 -651.368919 
L 945.903739 -656.63718 
L 945.914136 -661.90544 
L 945.908838 -667.173701 
L 945.893874 -672.441962 
L 945.880487 -677.710223 
L 945.882818 -682.978484 
L 945.914842 -688.246745 
L 945.987316 -693.515006 
L 946.105502 -698.783267 
L 946.268124 -704.051528 
L 946.467724 -709.319789 
L 946.692211 -714.58805 
L 946.927123 -719.85631 
L 949.399869 -719.85631 
L 949.399869 -719.85631 
L 949.634781 -714.58805 
L 949.859268 -709.319789 
L 950.058868 -704.051528 
L 950.22149 -698.783267 
L 950.339676 -693.515006 
L 950.41215 -688.246745 
L 950.444174 -682.978484 
L 950.446506 -677.710223 
L 950.433119 -672.441962 
L 950.418154 -667.173701 
L 950.412856 -661.90544 
L 950.423253 -656.63718 
L 950.449221 -651.368919 
L 950.48518 -646.100658 
L 950.522297 -640.832397 
L 950.551612 -635.564136 
L 950.567294 -630.295875 
L 950.569155 -625.027614 
L 950.563733 -619.759353 
L 950.56362 -614.491092 
L 950.585139 -609.222831 
L 950.64487 -603.95457 
L 950.755839 -598.68631 
L 950.924227 -593.418049 
L 951.14735 -588.149788 
L 951.413385 -582.881527 
L 951.702879 -577.613266 
L 951.991721 -572.345005 
L 952.254903 -567.076744 
L 952.470279 -561.808483 
L 952.621522 -556.540222 
L 952.699763 -551.271961 
L 952.703705 -546.0037 
L 952.638449 -540.735439 
L 952.513553 -535.467179 
L 952.341039 -530.198918 
L 952.133977 -524.930657 
L 951.906058 -519.662396 
L 951.672146 -514.394135 
L 951.449466 -509.125874 
L 951.258782 -503.857613 
L 951.124822 -498.589352 
L 951.075387 -493.321091 
L 951.138833 -488.05283 
L 951.340078 -482.784569 
L 951.69573 -477.516309 
L 952.209248 -472.248048 
L 952.86729 -466.979787 
L 953.638276 -461.711526 
L 954.473937 -456.443265 
L 955.314006 -451.175004 
L 956.093551 -445.906743 
L 956.751787 -440.638482 
L 957.240744 -435.370221 
L 957.532146 -430.10196 
L 957.621165 -424.833699 
L 957.526474 -419.565438 
L 957.286838 -414.297178 
L 956.955281 -409.028917 
L 956.592255 -403.760656 
L 956.259303 -398.492395 
L 956.014257 -393.224134 
L 955.908443 -387.955873 
L 955.98566 -382.687612 
L 956.282252 -377.419351 
L 956.827364 -372.15109 
L 957.642559 -366.882829 
L 958.740364 -361.614568 
L 960.121753 -356.346308 
L 961.77315 -351.078047 
L 963.664059 -345.809786 
L 965.746775 -340.541525 
L 967.959886 -335.273264 
L 970.237147 -330.005003 
L 972.522908 -324.736742 
L 974.794313 -319.468481 
L 977.089101 -314.20022 
L 979.535861 -308.931959 
L 982.381362 -303.663698 
L 986.007281 -298.395438 
L 990.927105 -293.127177 
L 997.753941 -287.858916 
L 1007.132606 -282.590655 
L 1019.635189 -277.322394 
L 1035.628368 -272.054133 
L 1055.131618 -266.785872 
L 1077.695262 -261.517611 
L 1102.332337 -256.24935 
L 1127.535061 -250.981089 
L 1151.393419 -245.712828 
L 1171.811649 -240.444567 
L 1186.793046 -235.176307 
L 1194.741818 -229.908046 
L 1194.720337 -224.639785 
L 1186.605457 -219.371524 
L 1171.108652 -214.103263 
L 1149.655894 -208.835002 
L 1124.155494 -203.566741 
L 1096.706154 -198.29848 
z
" id="m16f8d9fb71" style="stroke:#4c4c4c;stroke-width:5;"/>
    </defs>
    <g clip-path="url(#p8c0bdffd50)">
     <use style="fill:#cc8963;stroke:#4c4c4c;stroke-width:5;" x="0" xlink:href="#m16f8d9fb71" y="1296"/>
    </g>
   </g>
   <g id="line2d_6">
    <path clip-path="url(#p8c0bdffd50)" d="M 331.717691 1069.359916 
L 331.717691 737.599172 
" style="fill:none;stroke:#4c4c4c;stroke-linecap:round;stroke-width:5;"/>
   </g>
   <g id="line2d_7">
    <path clip-path="url(#p8c0bdffd50)" d="M 331.717691 1069.359916 
L 331.717691 918.326861 
" style="fill:none;stroke:#4c4c4c;stroke-linecap:round;stroke-width:15;"/>
   </g>
   <g id="line2d_8">
    <path clip-path="url(#p8c0bdffd50)" d="M 948.163496 1069.359916 
L 948.163496 1069.359916 
" style="fill:none;stroke:#4c4c4c;stroke-linecap:round;stroke-width:5;"/>
   </g>
   <g id="line2d_9">
    <path clip-path="url(#p8c0bdffd50)" d="M 948.163496 1069.359916 
L 948.163496 1069.359916 
" style="fill:none;stroke:#4c4c4c;stroke-linecap:round;stroke-width:15;"/>
   </g>
   <g id="line2d_10">
    <path clip-path="url(#p8c0bdffd50)" d="M 331.717691 194.290575 
L 331.717691 173.606999 
L 948.163496 173.606999 
L 948.163496 194.290575 
" style="fill:none;stroke:#333333;stroke-linecap:round;stroke-width:1.5;"/>
   </g>
   <g id="patch_3">
    <path d="M 202.32 1179.94 
L 202.32 96.24 
" style="fill:none;stroke:#cccccc;stroke-linecap:square;stroke-linejoin:miter;stroke-width:2.5;"/>
   </g>
   <g id="patch_4">
    <path d="M 1242 1179.94 
L 1242 96.24 
" style="fill:none;stroke:#cccccc;stroke-linecap:square;stroke-linejoin:miter;stroke-width:2.5;"/>
   </g>
   <g id="patch_5">
    <path d="M 202.32 1179.94 
L 1242 1179.94 
" style="fill:none;stroke:#cccccc;stroke-linecap:square;stroke-linejoin:miter;stroke-width:2.5;"/>
   </g>
   <g id="patch_6">
    <path d="M 202.32 96.24 
L 1242 96.24 
" style="fill:none;stroke:#cccccc;stroke-linecap:square;stroke-linejoin:miter;stroke-width:2.5;"/>
   </g>
   <g id="PathCollection_1">
    <defs>
     <path d="M 0 5 
C 1.326016 5 2.597899 4.473168 3.535534 3.535534 
C 4.473168 2.597899 5 1.326016 5 0 
C 5 -1.326016 4.473168 -2.597899 3.535534 -3.535534 
C 2.597899 -4.473168 1.326016 -5 0 -5 
C -1.326016 -5 -2.597899 -4.473168 -3.535534 -3.535534 
C -4.473168 -2.597899 -5 -1.326016 -5 0 
C -5 1.326016 -4.473168 2.597899 -3.535534 3.535534 
C -2.597899 4.473168 -1.326016 5 0 5 
z
" id="mc4bb8abaa5" style="stroke:#4c4c4c;stroke-width:2;"/>
    </defs>
    <g clip-path="url(#p8c0bdffd50)">
     <use style="fill:#ffffff;stroke:#4c4c4c;stroke-width:2;" x="331.717691" xlink:href="#mc4bb8abaa5" y="1022.258082"/>
    </g>
   </g>
   <g id="PathCollection_2">
    <g clip-path="url(#p8c0bdffd50)">
     <use style="fill:#ffffff;stroke:#4c4c4c;stroke-width:2;" x="948.163496" xlink:href="#mc4bb8abaa5" y="1069.359916"/>
    </g>
   </g>
   <g id="text_9">
    <!-- **** -->
    <g transform="translate(601.018718 162.669499)scale(0.5 -0.5)">
     <defs>
      <path d="M 3.125 58.453125 
L 5.375 65.375 
Q 13.140625 62.640625 16.65625 60.640625 
Q 15.71875 69.484375 15.671875 72.796875 
L 22.75 72.796875 
Q 22.609375 67.96875 21.625 60.6875 
Q 26.65625 63.234375 33.15625 65.375 
L 35.40625 58.453125 
Q 29.203125 56.390625 23.25 55.71875 
Q 26.21875 53.125 31.640625 46.484375 
L 25.78125 42.328125 
Q 22.953125 46.1875 19.09375 52.828125 
Q 15.484375 45.953125 12.75 42.328125 
L 6.984375 46.484375 
Q 12.640625 53.46875 15.09375 55.71875 
Q 8.796875 56.9375 3.125 58.453125 
z
" id="ArialMT-42"/>
     </defs>
     <use xlink:href="#ArialMT-42"/>
     <use x="38.916016" xlink:href="#ArialMT-42"/>
     <use x="77.832031" xlink:href="#ArialMT-42"/>
     <use x="116.748047" xlink:href="#ArialMT-42"/>
    </g>
   </g>
   <g id="text_10">
    <!-- Corynebacterium durum (K.W. p=1.79e-09) -->
    <g transform="translate(243.499844 90.24)scale(0.5 -0.5)">
     <defs>
      <path d="M 58.796875 25.09375 
L 68.265625 22.703125 
Q 65.28125 11.03125 57.546875 4.90625 
Q 49.8125 -1.21875 38.625 -1.21875 
Q 27.046875 -1.21875 19.796875 3.484375 
Q 12.546875 8.203125 8.765625 17.140625 
Q 4.984375 26.078125 4.984375 36.328125 
Q 4.984375 47.515625 9.25 55.828125 
Q 13.53125 64.15625 21.40625 68.46875 
Q 29.296875 72.796875 38.765625 72.796875 
Q 49.515625 72.796875 56.828125 67.328125 
Q 64.15625 61.859375 67.046875 51.953125 
L 57.71875 49.75 
Q 55.21875 57.5625 50.484375 61.125 
Q 45.75 64.703125 38.578125 64.703125 
Q 30.328125 64.703125 24.78125 60.734375 
Q 19.234375 56.78125 16.984375 50.109375 
Q 14.75 43.453125 14.75 36.375 
Q 14.75 27.25 17.40625 20.4375 
Q 20.0625 13.625 25.671875 10.25 
Q 31.296875 6.890625 37.84375 6.890625 
Q 45.796875 6.890625 51.3125 11.46875 
Q 56.84375 16.0625 58.796875 25.09375 
z
" id="ArialMT-67"/>
      <path d="M 6.59375 0 
L 6.59375 51.859375 
L 14.453125 51.859375 
L 14.453125 44.578125 
Q 16.890625 48.390625 20.9375 50.703125 
Q 25 53.03125 30.171875 53.03125 
Q 35.9375 53.03125 39.625 50.640625 
Q 43.3125 48.25 44.828125 43.953125 
Q 50.984375 53.03125 60.84375 53.03125 
Q 68.5625 53.03125 72.703125 48.75 
Q 76.859375 44.484375 76.859375 35.59375 
L 76.859375 0 
L 68.109375 0 
L 68.109375 32.671875 
Q 68.109375 37.9375 67.25 40.25 
Q 66.40625 42.578125 64.15625 43.984375 
Q 61.921875 45.40625 58.890625 45.40625 
Q 53.421875 45.40625 49.796875 41.765625 
Q 46.1875 38.140625 46.1875 30.125 
L 46.1875 0 
L 37.40625 0 
L 37.40625 33.6875 
Q 37.40625 39.546875 35.25 42.46875 
Q 33.109375 45.40625 28.21875 45.40625 
Q 24.515625 45.40625 21.359375 43.453125 
Q 18.21875 41.5 16.796875 37.734375 
Q 15.375 33.984375 15.375 26.90625 
L 15.375 0 
z
" id="ArialMT-109"/>
      <path id="ArialMT-32"/>
      <path d="M 23.390625 -21.046875 
Q 16.109375 -11.859375 11.078125 0.4375 
Q 6.0625 12.75 6.0625 25.921875 
Q 6.0625 37.546875 9.8125 48.1875 
Q 14.203125 60.546875 23.390625 72.796875 
L 29.6875 72.796875 
Q 23.78125 62.640625 21.875 58.296875 
Q 18.890625 51.5625 17.1875 44.234375 
Q 15.09375 35.109375 15.09375 25.875 
Q 15.09375 2.390625 29.6875 -21.046875 
z
" id="ArialMT-40"/>
      <path d="M 7.328125 0 
L 7.328125 71.578125 
L 16.796875 71.578125 
L 16.796875 36.078125 
L 52.34375 71.578125 
L 65.1875 71.578125 
L 35.15625 42.578125 
L 66.5 0 
L 54 0 
L 28.515625 36.234375 
L 16.796875 24.8125 
L 16.796875 0 
z
" id="ArialMT-75"/>
      <path d="M 9.078125 0 
L 9.078125 10.015625 
L 19.09375 10.015625 
L 19.09375 0 
z
" id="ArialMT-46"/>
      <path d="M 20.21875 0 
L 1.21875 71.578125 
L 10.9375 71.578125 
L 21.828125 24.65625 
Q 23.578125 17.28125 24.859375 10.015625 
Q 27.59375 21.484375 28.078125 23.25 
L 41.703125 71.578125 
L 53.125 71.578125 
L 63.375 35.359375 
Q 67.234375 21.875 68.953125 10.015625 
Q 70.3125 16.796875 72.515625 25.59375 
L 83.734375 71.578125 
L 93.265625 71.578125 
L 73.640625 0 
L 64.5 0 
L 49.421875 54.546875 
Q 47.515625 61.375 47.171875 62.9375 
Q 46.046875 58.015625 45.0625 54.546875 
L 29.890625 0 
z
" id="ArialMT-87"/>
      <path d="M 6.59375 -19.875 
L 6.59375 51.859375 
L 14.59375 51.859375 
L 14.59375 45.125 
Q 17.4375 49.078125 21 51.046875 
Q 24.5625 53.03125 29.640625 53.03125 
Q 36.28125 53.03125 41.359375 49.609375 
Q 46.4375 46.1875 49.015625 39.953125 
Q 51.609375 33.734375 51.609375 26.3125 
Q 51.609375 18.359375 48.75 11.984375 
Q 45.90625 5.609375 40.453125 2.21875 
Q 35.015625 -1.171875 29 -1.171875 
Q 24.609375 -1.171875 21.109375 0.6875 
Q 17.625 2.546875 15.375 5.375 
L 15.375 -19.875 
z
M 14.546875 25.640625 
Q 14.546875 15.625 18.59375 10.84375 
Q 22.65625 6.0625 28.421875 6.0625 
Q 34.28125 6.0625 38.453125 11.015625 
Q 42.625 15.96875 42.625 26.375 
Q 42.625 36.28125 38.546875 41.203125 
Q 34.46875 46.140625 28.8125 46.140625 
Q 23.1875 46.140625 18.859375 40.890625 
Q 14.546875 35.640625 14.546875 25.640625 
z
" id="ArialMT-112"/>
      <path d="M 52.828125 42.09375 
L 5.5625 42.09375 
L 5.5625 50.296875 
L 52.828125 50.296875 
z
M 52.828125 20.359375 
L 5.5625 20.359375 
L 5.5625 28.5625 
L 52.828125 28.5625 
z
" id="ArialMT-61"/>
      <path d="M 4.734375 62.203125 
L 4.734375 70.65625 
L 51.078125 70.65625 
L 51.078125 63.8125 
Q 44.234375 56.546875 37.515625 44.484375 
Q 30.8125 32.421875 27.15625 19.671875 
Q 24.515625 10.6875 23.78125 0 
L 14.75 0 
Q 14.890625 8.453125 18.0625 20.40625 
Q 21.234375 32.375 27.171875 43.484375 
Q 33.109375 54.59375 39.796875 62.203125 
z
" id="ArialMT-55"/>
      <path d="M 5.46875 16.546875 
L 13.921875 17.328125 
Q 14.984375 11.375 18.015625 8.6875 
Q 21.046875 6 25.78125 6 
Q 29.828125 6 32.875 7.859375 
Q 35.9375 9.71875 37.890625 12.8125 
Q 39.84375 15.921875 41.15625 21.1875 
Q 42.484375 26.46875 42.484375 31.9375 
Q 42.484375 32.515625 42.4375 33.6875 
Q 39.796875 29.5 35.234375 26.875 
Q 30.671875 24.265625 25.34375 24.265625 
Q 16.453125 24.265625 10.296875 30.703125 
Q 4.15625 37.15625 4.15625 47.703125 
Q 4.15625 58.59375 10.578125 65.234375 
Q 17 71.875 26.65625 71.875 
Q 33.640625 71.875 39.421875 68.109375 
Q 45.21875 64.359375 48.21875 57.390625 
Q 51.21875 50.4375 51.21875 37.25 
Q 51.21875 23.53125 48.234375 15.40625 
Q 45.265625 7.28125 39.375 3.03125 
Q 33.5 -1.21875 25.59375 -1.21875 
Q 17.1875 -1.21875 11.859375 3.4375 
Q 6.546875 8.109375 5.46875 16.546875 
z
M 41.453125 48.140625 
Q 41.453125 55.71875 37.421875 60.15625 
Q 33.40625 64.59375 27.734375 64.59375 
Q 21.875 64.59375 17.53125 59.8125 
Q 13.1875 55.03125 13.1875 47.40625 
Q 13.1875 40.578125 17.3125 36.296875 
Q 21.4375 32.03125 27.484375 32.03125 
Q 33.59375 32.03125 37.515625 36.296875 
Q 41.453125 40.578125 41.453125 48.140625 
z
" id="ArialMT-57"/>
      <path d="M 3.171875 21.484375 
L 3.171875 30.328125 
L 30.171875 30.328125 
L 30.171875 21.484375 
z
" id="ArialMT-45"/>
      <path d="M 12.359375 -21.046875 
L 6.0625 -21.046875 
Q 20.65625 2.390625 20.65625 25.875 
Q 20.65625 35.0625 18.5625 44.09375 
Q 16.890625 51.421875 13.921875 58.15625 
Q 12.015625 62.546875 6.0625 72.796875 
L 12.359375 72.796875 
Q 21.53125 60.546875 25.921875 48.1875 
Q 29.6875 37.546875 29.6875 25.921875 
Q 29.6875 12.75 24.625 0.4375 
Q 19.578125 -11.859375 12.359375 -21.046875 
z
" id="ArialMT-41"/>
     </defs>
     <use xlink:href="#ArialMT-67"/>
     <use x="72.216797" xlink:href="#ArialMT-111"/>
     <use x="127.832031" xlink:href="#ArialMT-114"/>
     <use x="161.132812" xlink:href="#ArialMT-121"/>
     <use x="211.132812" xlink:href="#ArialMT-110"/>
     <use x="266.748047" xlink:href="#ArialMT-101"/>
     <use x="322.363281" xlink:href="#ArialMT-98"/>
     <use x="377.978516" xlink:href="#ArialMT-97"/>
     <use x="433.59375" xlink:href="#ArialMT-99"/>
     <use x="483.59375" xlink:href="#ArialMT-116"/>
     <use x="511.376953" xlink:href="#ArialMT-101"/>
     <use x="566.992188" xlink:href="#ArialMT-114"/>
     <use x="600.292969" xlink:href="#ArialMT-105"/>
     <use x="622.509766" xlink:href="#ArialMT-117"/>
     <use x="678.125" xlink:href="#ArialMT-109"/>
     <use x="761.425781" xlink:href="#ArialMT-32"/>
     <use x="789.208984" xlink:href="#ArialMT-100"/>
     <use x="844.824219" xlink:href="#ArialMT-117"/>
     <use x="900.439453" xlink:href="#ArialMT-114"/>
     <use x="933.740234" xlink:href="#ArialMT-117"/>
     <use x="989.355469" xlink:href="#ArialMT-109"/>
     <use x="1072.65625" xlink:href="#ArialMT-32"/>
     <use x="1100.439453" xlink:href="#ArialMT-40"/>
     <use x="1133.740234" xlink:href="#ArialMT-75"/>
     <use x="1200.439453" xlink:href="#ArialMT-46"/>
     <use x="1228.222656" xlink:href="#ArialMT-87"/>
     <use x="1317.107422" xlink:href="#ArialMT-46"/>
     <use x="1344.890625" xlink:href="#ArialMT-32"/>
     <use x="1372.673828" xlink:href="#ArialMT-112"/>
     <use x="1428.289062" xlink:href="#ArialMT-61"/>
     <use x="1486.6875" xlink:href="#ArialMT-49"/>
     <use x="1542.302734" xlink:href="#ArialMT-46"/>
     <use x="1570.085938" xlink:href="#ArialMT-55"/>
     <use x="1625.701172" xlink:href="#ArialMT-57"/>
     <use x="1681.316406" xlink:href="#ArialMT-101"/>
     <use x="1736.931641" xlink:href="#ArialMT-45"/>
     <use x="1770.232422" xlink:href="#ArialMT-48"/>
     <use x="1825.847656" xlink:href="#ArialMT-57"/>
     <use x="1881.462891" xlink:href="#ArialMT-41"/>
    </g>
   </g>
  </g>
 </g>
 <defs>
  <clipPath id="p8c0bdffd50">
   <rect height="1083.7" width="1039.68" x="202.32" y="96.24"/>
  </clipPath>
 </defs>
</svg>
