<?xml version="1.0" encoding="utf-8" standalone="no"?>
<!DOCTYPE svg PUBLIC "-//W3C//DTD SVG 1.1//EN"
  "http://www.w3.org/Graphics/SVG/1.1/DTD/svg11.dtd">
<!-- Created with matplotlib (https://matplotlib.org/) -->
<svg height="1296pt" version="1.1" viewBox="0 0 1296 1296" width="1296pt" xmlns="http://www.w3.org/2000/svg" xmlns:xlink="http://www.w3.org/1999/xlink">
 <metadata>
  <rdf:RDF xmlns:cc="http://creativecommons.org/ns#" xmlns:dc="http://purl.org/dc/elements/1.1/" xmlns:rdf="http://www.w3.org/1999/02/22-rdf-syntax-ns#">
   <cc:Work>
    <dc:type rdf:resource="http://purl.org/dc/dcmitype/StillImage"/>
    <dc:date>2022-06-29T13:55:34.825151</dc:date>
    <dc:format>image/svg+xml</dc:format>
    <dc:creator>
     <cc:Agent>
      <dc:title>Matplotlib v3.3.3, https://matplotlib.org/</dc:title>
     </cc:Agent>
    </dc:creator>
   </cc:Work>
  </rdf:RDF>
 </metadata>
 <defs>
  <style type="text/css">*{stroke-linecap:butt;stroke-linejoin:round;}</style>
 </defs>
 <g id="figure_1">
  <g id="patch_1">
   <path d="M 0 1296 
L 1296 1296 
L 1296 0 
L 0 0 
z
" style="fill:#ffffff;"/>
  </g>
  <g id="axes_1">
   <g id="patch_2">
    <path d="M 202.32 1179.94 
L 1222.785735 1179.94 
L 1222.785735 96.12 
L 202.32 96.12 
z
" style="fill:#ffffff;"/>
   </g>
   <g id="matplotlib.axis_1">
    <g id="xtick_1">
     <g id="text_1">
      <!-- Healthy -->
      <g style="fill:#262626;" transform="translate(271.367231 1231.229063)scale(0.5 -0.5)">
       <defs>
        <path d="M 8.015625 0 
L 8.015625 71.578125 
L 17.484375 71.578125 
L 17.484375 42.1875 
L 54.6875 42.1875 
L 54.6875 71.578125 
L 64.15625 71.578125 
L 64.15625 0 
L 54.6875 0 
L 54.6875 33.734375 
L 17.484375 33.734375 
L 17.484375 0 
z
" id="ArialMT-72"/>
        <path d="M 42.09375 16.703125 
L 51.171875 15.578125 
Q 49.03125 7.625 43.21875 3.21875 
Q 37.40625 -1.171875 28.375 -1.171875 
Q 17 -1.171875 10.328125 5.828125 
Q 3.65625 12.84375 3.65625 25.484375 
Q 3.65625 38.578125 10.390625 45.796875 
Q 17.140625 53.03125 27.875 53.03125 
Q 38.28125 53.03125 44.875 45.953125 
Q 51.46875 38.875 51.46875 26.03125 
Q 51.46875 25.25 51.421875 23.6875 
L 12.75 23.6875 
Q 13.234375 15.140625 17.578125 10.59375 
Q 21.921875 6.0625 28.421875 6.0625 
Q 33.25 6.0625 36.671875 8.59375 
Q 40.09375 11.140625 42.09375 16.703125 
z
M 13.234375 30.90625 
L 42.1875 30.90625 
Q 41.609375 37.453125 38.875 40.71875 
Q 34.671875 45.796875 27.984375 45.796875 
Q 21.921875 45.796875 17.796875 41.75 
Q 13.671875 37.703125 13.234375 30.90625 
z
" id="ArialMT-101"/>
        <path d="M 40.4375 6.390625 
Q 35.546875 2.25 31.03125 0.53125 
Q 26.515625 -1.171875 21.34375 -1.171875 
Q 12.796875 -1.171875 8.203125 3 
Q 3.609375 7.171875 3.609375 13.671875 
Q 3.609375 17.484375 5.34375 20.625 
Q 7.078125 23.78125 9.890625 25.6875 
Q 12.703125 27.59375 16.21875 28.5625 
Q 18.796875 29.25 24.03125 29.890625 
Q 34.671875 31.15625 39.703125 32.90625 
Q 39.75 34.71875 39.75 35.203125 
Q 39.75 40.578125 37.25 42.78125 
Q 33.890625 45.75 27.25 45.75 
Q 21.046875 45.75 18.09375 43.578125 
Q 15.140625 41.40625 13.71875 35.890625 
L 5.125 37.0625 
Q 6.296875 42.578125 8.984375 45.96875 
Q 11.671875 49.359375 16.75 51.1875 
Q 21.828125 53.03125 28.515625 53.03125 
Q 35.15625 53.03125 39.296875 51.46875 
Q 43.453125 49.90625 45.40625 47.53125 
Q 47.359375 45.171875 48.140625 41.546875 
Q 48.578125 39.3125 48.578125 33.453125 
L 48.578125 21.734375 
Q 48.578125 9.46875 49.140625 6.21875 
Q 49.703125 2.984375 51.375 0 
L 42.1875 0 
Q 40.828125 2.734375 40.4375 6.390625 
z
M 39.703125 26.03125 
Q 34.90625 24.078125 25.34375 22.703125 
Q 19.921875 21.921875 17.671875 20.9375 
Q 15.4375 19.96875 14.203125 18.09375 
Q 12.984375 16.21875 12.984375 13.921875 
Q 12.984375 10.40625 15.640625 8.0625 
Q 18.3125 5.71875 23.4375 5.71875 
Q 28.515625 5.71875 32.46875 7.9375 
Q 36.421875 10.15625 38.28125 14.015625 
Q 39.703125 17 39.703125 22.796875 
z
" id="ArialMT-97"/>
        <path d="M 6.390625 0 
L 6.390625 71.578125 
L 15.1875 71.578125 
L 15.1875 0 
z
" id="ArialMT-108"/>
        <path d="M 25.78125 7.859375 
L 27.046875 0.09375 
Q 23.34375 -0.6875 20.40625 -0.6875 
Q 15.625 -0.6875 12.984375 0.828125 
Q 10.359375 2.34375 9.28125 4.8125 
Q 8.203125 7.28125 8.203125 15.1875 
L 8.203125 45.015625 
L 1.765625 45.015625 
L 1.765625 51.859375 
L 8.203125 51.859375 
L 8.203125 64.703125 
L 16.9375 69.96875 
L 16.9375 51.859375 
L 25.78125 51.859375 
L 25.78125 45.015625 
L 16.9375 45.015625 
L 16.9375 14.703125 
Q 16.9375 10.9375 17.40625 9.859375 
Q 17.875 8.796875 18.921875 8.15625 
Q 19.96875 7.515625 21.921875 7.515625 
Q 23.390625 7.515625 25.78125 7.859375 
z
" id="ArialMT-116"/>
        <path d="M 6.59375 0 
L 6.59375 71.578125 
L 15.375 71.578125 
L 15.375 45.90625 
Q 21.53125 53.03125 30.90625 53.03125 
Q 36.671875 53.03125 40.921875 50.75 
Q 45.171875 48.484375 47 44.484375 
Q 48.828125 40.484375 48.828125 32.859375 
L 48.828125 0 
L 40.046875 0 
L 40.046875 32.859375 
Q 40.046875 39.453125 37.1875 42.453125 
Q 34.328125 45.453125 29.109375 45.453125 
Q 25.203125 45.453125 21.75 43.421875 
Q 18.3125 41.40625 16.84375 37.9375 
Q 15.375 34.46875 15.375 28.375 
L 15.375 0 
z
" id="ArialMT-104"/>
        <path d="M 6.203125 -19.96875 
L 5.21875 -11.71875 
Q 8.109375 -12.5 10.25 -12.5 
Q 13.1875 -12.5 14.9375 -11.515625 
Q 16.703125 -10.546875 17.828125 -8.796875 
Q 18.65625 -7.46875 20.515625 -2.25 
Q 20.75 -1.515625 21.296875 -0.09375 
L 1.609375 51.859375 
L 11.078125 51.859375 
L 21.875 21.828125 
Q 23.96875 16.109375 25.640625 9.8125 
Q 27.15625 15.875 29.25 21.625 
L 40.328125 51.859375 
L 49.125 51.859375 
L 29.390625 -0.875 
Q 26.21875 -9.421875 24.46875 -12.640625 
Q 22.125 -17 19.09375 -19.015625 
Q 16.0625 -21.046875 11.859375 -21.046875 
Q 9.328125 -21.046875 6.203125 -19.96875 
z
" id="ArialMT-121"/>
       </defs>
       <use xlink:href="#ArialMT-72"/>
       <use x="72.216797" xlink:href="#ArialMT-101"/>
       <use x="127.832031" xlink:href="#ArialMT-97"/>
       <use x="183.447266" xlink:href="#ArialMT-108"/>
       <use x="205.664062" xlink:href="#ArialMT-116"/>
       <use x="233.447266" xlink:href="#ArialMT-104"/>
       <use x="289.0625" xlink:href="#ArialMT-121"/>
      </g>
     </g>
    </g>
    <g id="xtick_2">
     <g id="text_2">
      <!-- Slight -->
      <g style="fill:#262626;" transform="translate(562.154153 1231.838438)scale(0.5 -0.5)">
       <defs>
        <path d="M 4.5 23 
L 13.421875 23.78125 
Q 14.0625 18.40625 16.375 14.96875 
Q 18.703125 11.53125 23.578125 9.40625 
Q 28.46875 7.28125 34.578125 7.28125 
Q 39.984375 7.28125 44.140625 8.890625 
Q 48.296875 10.5 50.3125 13.296875 
Q 52.34375 16.109375 52.34375 19.4375 
Q 52.34375 22.796875 50.390625 25.3125 
Q 48.4375 27.828125 43.953125 29.546875 
Q 41.0625 30.671875 31.203125 33.03125 
Q 21.34375 35.40625 17.390625 37.5 
Q 12.25 40.1875 9.734375 44.15625 
Q 7.234375 48.140625 7.234375 53.078125 
Q 7.234375 58.5 10.296875 63.203125 
Q 13.375 67.921875 19.28125 70.359375 
Q 25.203125 72.796875 32.421875 72.796875 
Q 40.375 72.796875 46.453125 70.234375 
Q 52.546875 67.671875 55.8125 62.6875 
Q 59.078125 57.71875 59.328125 51.421875 
L 50.25 50.734375 
Q 49.515625 57.515625 45.28125 60.984375 
Q 41.0625 64.453125 32.8125 64.453125 
Q 24.21875 64.453125 20.28125 61.296875 
Q 16.359375 58.15625 16.359375 53.71875 
Q 16.359375 49.859375 19.140625 47.359375 
Q 21.875 44.875 33.421875 42.265625 
Q 44.96875 39.65625 49.265625 37.703125 
Q 55.515625 34.8125 58.484375 30.390625 
Q 61.46875 25.984375 61.46875 20.21875 
Q 61.46875 14.5 58.203125 9.4375 
Q 54.9375 4.390625 48.796875 1.578125 
Q 42.671875 -1.21875 35.015625 -1.21875 
Q 25.296875 -1.21875 18.71875 1.609375 
Q 12.15625 4.4375 8.421875 10.125 
Q 4.6875 15.828125 4.5 23 
z
" id="ArialMT-83"/>
        <path d="M 6.640625 61.46875 
L 6.640625 71.578125 
L 15.4375 71.578125 
L 15.4375 61.46875 
z
M 6.640625 0 
L 6.640625 51.859375 
L 15.4375 51.859375 
L 15.4375 0 
z
" id="ArialMT-105"/>
        <path d="M 4.984375 -4.296875 
L 13.53125 -5.5625 
Q 14.0625 -9.515625 16.5 -11.328125 
Q 19.78125 -13.765625 25.4375 -13.765625 
Q 31.546875 -13.765625 34.859375 -11.328125 
Q 38.1875 -8.890625 39.359375 -4.5 
Q 40.046875 -1.8125 39.984375 6.78125 
Q 34.234375 0 25.640625 0 
Q 14.9375 0 9.078125 7.71875 
Q 3.21875 15.4375 3.21875 26.21875 
Q 3.21875 33.640625 5.90625 39.90625 
Q 8.59375 46.1875 13.6875 49.609375 
Q 18.796875 53.03125 25.6875 53.03125 
Q 34.859375 53.03125 40.828125 45.609375 
L 40.828125 51.859375 
L 48.921875 51.859375 
L 48.921875 7.03125 
Q 48.921875 -5.078125 46.453125 -10.125 
Q 44 -15.1875 38.640625 -18.109375 
Q 33.296875 -21.046875 25.484375 -21.046875 
Q 16.21875 -21.046875 10.5 -16.875 
Q 4.78125 -12.703125 4.984375 -4.296875 
z
M 12.25 26.859375 
Q 12.25 16.65625 16.296875 11.96875 
Q 20.359375 7.28125 26.46875 7.28125 
Q 32.515625 7.28125 36.609375 11.9375 
Q 40.71875 16.609375 40.71875 26.5625 
Q 40.71875 36.078125 36.5 40.90625 
Q 32.28125 45.75 26.3125 45.75 
Q 20.453125 45.75 16.34375 40.984375 
Q 12.25 36.234375 12.25 26.859375 
z
" id="ArialMT-103"/>
       </defs>
       <use xlink:href="#ArialMT-83"/>
       <use x="66.699219" xlink:href="#ArialMT-108"/>
       <use x="88.916016" xlink:href="#ArialMT-105"/>
       <use x="111.132812" xlink:href="#ArialMT-103"/>
       <use x="166.748047" xlink:href="#ArialMT-104"/>
       <use x="222.363281" xlink:href="#ArialMT-116"/>
      </g>
     </g>
    </g>
    <g id="xtick_3">
     <g id="text_3">
      <!-- Moderate -->
      <g style="fill:#262626;" transform="translate(787.644199 1231.229063)scale(0.5 -0.5)">
       <defs>
        <path d="M 7.421875 0 
L 7.421875 71.578125 
L 21.6875 71.578125 
L 38.625 20.90625 
Q 40.96875 13.8125 42.046875 10.296875 
Q 43.265625 14.203125 45.84375 21.78125 
L 62.984375 71.578125 
L 75.734375 71.578125 
L 75.734375 0 
L 66.609375 0 
L 66.609375 59.90625 
L 45.796875 0 
L 37.25 0 
L 16.546875 60.9375 
L 16.546875 0 
z
" id="ArialMT-77"/>
        <path d="M 3.328125 25.921875 
Q 3.328125 40.328125 11.328125 47.265625 
Q 18.015625 53.03125 27.640625 53.03125 
Q 38.328125 53.03125 45.109375 46.015625 
Q 51.90625 39.015625 51.90625 26.65625 
Q 51.90625 16.65625 48.90625 10.90625 
Q 45.90625 5.171875 40.15625 2 
Q 34.421875 -1.171875 27.640625 -1.171875 
Q 16.75 -1.171875 10.03125 5.8125 
Q 3.328125 12.796875 3.328125 25.921875 
z
M 12.359375 25.921875 
Q 12.359375 15.96875 16.703125 11.015625 
Q 21.046875 6.0625 27.640625 6.0625 
Q 34.1875 6.0625 38.53125 11.03125 
Q 42.875 16.015625 42.875 26.21875 
Q 42.875 35.84375 38.5 40.796875 
Q 34.125 45.75 27.640625 45.75 
Q 21.046875 45.75 16.703125 40.8125 
Q 12.359375 35.890625 12.359375 25.921875 
z
" id="ArialMT-111"/>
        <path d="M 40.234375 0 
L 40.234375 6.546875 
Q 35.296875 -1.171875 25.734375 -1.171875 
Q 19.53125 -1.171875 14.328125 2.25 
Q 9.125 5.671875 6.265625 11.796875 
Q 3.421875 17.921875 3.421875 25.875 
Q 3.421875 33.640625 6 39.96875 
Q 8.59375 46.296875 13.765625 49.65625 
Q 18.953125 53.03125 25.34375 53.03125 
Q 30.03125 53.03125 33.6875 51.046875 
Q 37.359375 49.078125 39.65625 45.90625 
L 39.65625 71.578125 
L 48.390625 71.578125 
L 48.390625 0 
z
M 12.453125 25.875 
Q 12.453125 15.921875 16.640625 10.984375 
Q 20.84375 6.0625 26.5625 6.0625 
Q 32.328125 6.0625 36.34375 10.765625 
Q 40.375 15.484375 40.375 25.140625 
Q 40.375 35.796875 36.265625 40.765625 
Q 32.171875 45.75 26.171875 45.75 
Q 20.3125 45.75 16.375 40.96875 
Q 12.453125 36.1875 12.453125 25.875 
z
" id="ArialMT-100"/>
        <path d="M 6.5 0 
L 6.5 51.859375 
L 14.40625 51.859375 
L 14.40625 44 
Q 17.4375 49.515625 20 51.265625 
Q 22.5625 53.03125 25.640625 53.03125 
Q 30.078125 53.03125 34.671875 50.203125 
L 31.640625 42.046875 
Q 28.421875 43.953125 25.203125 43.953125 
Q 22.3125 43.953125 20.015625 42.21875 
Q 17.71875 40.484375 16.75 37.40625 
Q 15.28125 32.71875 15.28125 27.15625 
L 15.28125 0 
z
" id="ArialMT-114"/>
       </defs>
       <use xlink:href="#ArialMT-77"/>
       <use x="83.300781" xlink:href="#ArialMT-111"/>
       <use x="138.916016" xlink:href="#ArialMT-100"/>
       <use x="194.53125" xlink:href="#ArialMT-101"/>
       <use x="250.146484" xlink:href="#ArialMT-114"/>
       <use x="283.447266" xlink:href="#ArialMT-97"/>
       <use x="339.0625" xlink:href="#ArialMT-116"/>
       <use x="366.845703" xlink:href="#ArialMT-101"/>
      </g>
     </g>
    </g>
    <g id="xtick_4">
     <g id="text_4">
      <!-- Severe -->
      <g style="fill:#262626;" transform="translate(1082.602996 1231.229063)scale(0.5 -0.5)">
       <defs>
        <path d="M 21 0 
L 1.265625 51.859375 
L 10.546875 51.859375 
L 21.6875 20.796875 
Q 23.484375 15.765625 25 10.359375 
Q 26.171875 14.453125 28.265625 20.21875 
L 39.796875 51.859375 
L 48.828125 51.859375 
L 29.203125 0 
z
" id="ArialMT-118"/>
       </defs>
       <use xlink:href="#ArialMT-83"/>
       <use x="66.699219" xlink:href="#ArialMT-101"/>
       <use x="122.314453" xlink:href="#ArialMT-118"/>
       <use x="172.314453" xlink:href="#ArialMT-101"/>
       <use x="227.929688" xlink:href="#ArialMT-114"/>
       <use x="261.230469" xlink:href="#ArialMT-101"/>
      </g>
     </g>
    </g>
   </g>
   <g id="matplotlib.axis_2">
    <g id="ytick_1">
     <g id="line2d_1">
      <path clip-path="url(#pf30c84aaec)" d="M 202.32 1061.185661 
L 1222.785735 1061.185661 
" style="fill:none;stroke:#cccccc;stroke-linecap:round;stroke-width:2;"/>
     </g>
     <g id="text_5">
      <!-- 0 -->
      <g style="fill:#262626;" transform="translate(159.015313 1079.080192)scale(0.5 -0.5)">
       <defs>
        <path d="M 4.15625 35.296875 
Q 4.15625 48 6.765625 55.734375 
Q 9.375 63.484375 14.515625 67.671875 
Q 19.671875 71.875 27.484375 71.875 
Q 33.25 71.875 37.59375 69.546875 
Q 41.9375 67.234375 44.765625 62.859375 
Q 47.609375 58.5 49.21875 52.21875 
Q 50.828125 45.953125 50.828125 35.296875 
Q 50.828125 22.703125 48.234375 14.96875 
Q 45.65625 7.234375 40.5 3 
Q 35.359375 -1.21875 27.484375 -1.21875 
Q 17.140625 -1.21875 11.234375 6.203125 
Q 4.15625 15.140625 4.15625 35.296875 
z
M 13.1875 35.296875 
Q 13.1875 17.671875 17.3125 11.828125 
Q 21.4375 6 27.484375 6 
Q 33.546875 6 37.671875 11.859375 
Q 41.796875 17.71875 41.796875 35.296875 
Q 41.796875 52.984375 37.671875 58.78125 
Q 33.546875 64.59375 27.390625 64.59375 
Q 21.34375 64.59375 17.71875 59.46875 
Q 13.1875 52.9375 13.1875 35.296875 
z
" id="ArialMT-48"/>
       </defs>
       <use xlink:href="#ArialMT-48"/>
      </g>
     </g>
    </g>
    <g id="ytick_2">
     <g id="line2d_2">
      <path clip-path="url(#pf30c84aaec)" d="M 202.32 860.34291 
L 1222.785735 860.34291 
" style="fill:none;stroke:#cccccc;stroke-linecap:round;stroke-width:2;"/>
     </g>
     <g id="text_6">
      <!-- 50 -->
      <g style="fill:#262626;" transform="translate(131.210625 878.237441)scale(0.5 -0.5)">
       <defs>
        <path d="M 4.15625 18.75 
L 13.375 19.53125 
Q 14.40625 12.796875 18.140625 9.390625 
Q 21.875 6 27.15625 6 
Q 33.5 6 37.890625 10.78125 
Q 42.28125 15.578125 42.28125 23.484375 
Q 42.28125 31 38.0625 35.34375 
Q 33.84375 39.703125 27 39.703125 
Q 22.75 39.703125 19.328125 37.765625 
Q 15.921875 35.84375 13.96875 32.765625 
L 5.71875 33.84375 
L 12.640625 70.609375 
L 48.25 70.609375 
L 48.25 62.203125 
L 19.671875 62.203125 
L 15.828125 42.96875 
Q 22.265625 47.46875 29.34375 47.46875 
Q 38.71875 47.46875 45.15625 40.96875 
Q 51.609375 34.46875 51.609375 24.265625 
Q 51.609375 14.546875 45.953125 7.46875 
Q 39.0625 -1.21875 27.15625 -1.21875 
Q 17.390625 -1.21875 11.203125 4.25 
Q 5.03125 9.71875 4.15625 18.75 
z
" id="ArialMT-53"/>
       </defs>
       <use xlink:href="#ArialMT-53"/>
       <use x="55.615234" xlink:href="#ArialMT-48"/>
      </g>
     </g>
    </g>
    <g id="ytick_3">
     <g id="line2d_3">
      <path clip-path="url(#pf30c84aaec)" d="M 202.32 659.500158 
L 1222.785735 659.500158 
" style="fill:none;stroke:#cccccc;stroke-linecap:round;stroke-width:2;"/>
     </g>
     <g id="text_7">
      <!-- 100 -->
      <g style="fill:#262626;" transform="translate(103.405938 677.394689)scale(0.5 -0.5)">
       <defs>
        <path d="M 37.25 0 
L 28.46875 0 
L 28.46875 56 
Q 25.296875 52.984375 20.140625 49.953125 
Q 14.984375 46.921875 10.890625 45.40625 
L 10.890625 53.90625 
Q 18.265625 57.375 23.78125 62.296875 
Q 29.296875 67.234375 31.59375 71.875 
L 37.25 71.875 
z
" id="ArialMT-49"/>
       </defs>
       <use xlink:href="#ArialMT-49"/>
       <use x="55.615234" xlink:href="#ArialMT-48"/>
       <use x="111.230469" xlink:href="#ArialMT-48"/>
      </g>
     </g>
    </g>
    <g id="ytick_4">
     <g id="line2d_4">
      <path clip-path="url(#pf30c84aaec)" d="M 202.32 458.657407 
L 1222.785735 458.657407 
" style="fill:none;stroke:#cccccc;stroke-linecap:round;stroke-width:2;"/>
     </g>
     <g id="text_8">
      <!-- 150 -->
      <g style="fill:#262626;" transform="translate(103.405938 476.551938)scale(0.5 -0.5)">
       <use xlink:href="#ArialMT-49"/>
       <use x="55.615234" xlink:href="#ArialMT-53"/>
       <use x="111.230469" xlink:href="#ArialMT-48"/>
      </g>
     </g>
    </g>
    <g id="ytick_5">
     <g id="line2d_5">
      <path clip-path="url(#pf30c84aaec)" d="M 202.32 257.814655 
L 1222.785735 257.814655 
" style="fill:none;stroke:#cccccc;stroke-linecap:round;stroke-width:2;"/>
     </g>
     <g id="text_9">
      <!-- 200 -->
      <g style="fill:#262626;" transform="translate(103.405938 275.709187)scale(0.5 -0.5)">
       <defs>
        <path d="M 50.34375 8.453125 
L 50.34375 0 
L 3.03125 0 
Q 2.9375 3.171875 4.046875 6.109375 
Q 5.859375 10.9375 9.828125 15.625 
Q 13.8125 20.3125 21.34375 26.46875 
Q 33.015625 36.03125 37.109375 41.625 
Q 41.21875 47.21875 41.21875 52.203125 
Q 41.21875 57.421875 37.46875 61 
Q 33.734375 64.59375 27.734375 64.59375 
Q 21.390625 64.59375 17.578125 60.78125 
Q 13.765625 56.984375 13.71875 50.25 
L 4.6875 51.171875 
Q 5.609375 61.28125 11.65625 66.578125 
Q 17.71875 71.875 27.9375 71.875 
Q 38.234375 71.875 44.234375 66.15625 
Q 50.25 60.453125 50.25 52 
Q 50.25 47.703125 48.484375 43.546875 
Q 46.734375 39.40625 42.65625 34.8125 
Q 38.578125 30.21875 29.109375 22.21875 
Q 21.1875 15.578125 18.9375 13.203125 
Q 16.703125 10.84375 15.234375 8.453125 
z
" id="ArialMT-50"/>
       </defs>
       <use xlink:href="#ArialMT-50"/>
       <use x="55.615234" xlink:href="#ArialMT-48"/>
       <use x="111.230469" xlink:href="#ArialMT-48"/>
      </g>
     </g>
    </g>
    <g id="text_10">
     <!-- Abundance -->
     <g style="fill:#262626;" transform="translate(89.468438 764.522187)rotate(-90)scale(0.5 -0.5)">
      <defs>
       <path d="M -0.140625 0 
L 27.34375 71.578125 
L 37.546875 71.578125 
L 66.84375 0 
L 56.0625 0 
L 47.703125 21.6875 
L 17.78125 21.6875 
L 9.90625 0 
z
M 20.515625 29.390625 
L 44.78125 29.390625 
L 37.3125 49.21875 
Q 33.890625 58.25 32.234375 64.0625 
Q 30.859375 57.171875 28.375 50.390625 
z
" id="ArialMT-65"/>
       <path d="M 14.703125 0 
L 6.546875 0 
L 6.546875 71.578125 
L 15.328125 71.578125 
L 15.328125 46.046875 
Q 20.90625 53.03125 29.546875 53.03125 
Q 34.328125 53.03125 38.59375 51.09375 
Q 42.875 49.171875 45.625 45.671875 
Q 48.390625 42.1875 49.953125 37.25 
Q 51.515625 32.328125 51.515625 26.703125 
Q 51.515625 13.375 44.921875 6.09375 
Q 38.328125 -1.171875 29.109375 -1.171875 
Q 19.921875 -1.171875 14.703125 6.5 
z
M 14.59375 26.3125 
Q 14.59375 17 17.140625 12.84375 
Q 21.296875 6.0625 28.375 6.0625 
Q 34.125 6.0625 38.328125 11.0625 
Q 42.53125 16.0625 42.53125 25.984375 
Q 42.53125 36.140625 38.5 40.96875 
Q 34.46875 45.796875 28.765625 45.796875 
Q 23 45.796875 18.796875 40.796875 
Q 14.59375 35.796875 14.59375 26.3125 
z
" id="ArialMT-98"/>
       <path d="M 40.578125 0 
L 40.578125 7.625 
Q 34.515625 -1.171875 24.125 -1.171875 
Q 19.53125 -1.171875 15.546875 0.578125 
Q 11.578125 2.34375 9.640625 5 
Q 7.71875 7.671875 6.9375 11.53125 
Q 6.390625 14.109375 6.390625 19.734375 
L 6.390625 51.859375 
L 15.1875 51.859375 
L 15.1875 23.09375 
Q 15.1875 16.21875 15.71875 13.8125 
Q 16.546875 10.359375 19.234375 8.375 
Q 21.921875 6.390625 25.875 6.390625 
Q 29.828125 6.390625 33.296875 8.421875 
Q 36.765625 10.453125 38.203125 13.9375 
Q 39.65625 17.4375 39.65625 24.078125 
L 39.65625 51.859375 
L 48.4375 51.859375 
L 48.4375 0 
z
" id="ArialMT-117"/>
       <path d="M 6.59375 0 
L 6.59375 51.859375 
L 14.5 51.859375 
L 14.5 44.484375 
Q 20.21875 53.03125 31 53.03125 
Q 35.6875 53.03125 39.625 51.34375 
Q 43.5625 49.65625 45.515625 46.921875 
Q 47.46875 44.1875 48.25 40.4375 
Q 48.734375 37.984375 48.734375 31.890625 
L 48.734375 0 
L 39.9375 0 
L 39.9375 31.546875 
Q 39.9375 36.921875 38.90625 39.578125 
Q 37.890625 42.234375 35.28125 43.8125 
Q 32.671875 45.40625 29.15625 45.40625 
Q 23.53125 45.40625 19.453125 41.84375 
Q 15.375 38.28125 15.375 28.328125 
L 15.375 0 
z
" id="ArialMT-110"/>
       <path d="M 40.4375 19 
L 49.078125 17.875 
Q 47.65625 8.9375 41.8125 3.875 
Q 35.984375 -1.171875 27.484375 -1.171875 
Q 16.84375 -1.171875 10.375 5.78125 
Q 3.90625 12.75 3.90625 25.734375 
Q 3.90625 34.125 6.6875 40.421875 
Q 9.46875 46.734375 15.15625 49.875 
Q 20.84375 53.03125 27.546875 53.03125 
Q 35.984375 53.03125 41.359375 48.75 
Q 46.734375 44.484375 48.25 36.625 
L 39.703125 35.296875 
Q 38.484375 40.53125 35.375 43.15625 
Q 32.28125 45.796875 27.875 45.796875 
Q 21.234375 45.796875 17.078125 41.03125 
Q 12.9375 36.28125 12.9375 25.984375 
Q 12.9375 15.53125 16.9375 10.796875 
Q 20.953125 6.0625 27.390625 6.0625 
Q 32.5625 6.0625 36.03125 9.234375 
Q 39.5 12.40625 40.4375 19 
z
" id="ArialMT-99"/>
      </defs>
      <use xlink:href="#ArialMT-65"/>
      <use x="66.699219" xlink:href="#ArialMT-98"/>
      <use x="122.314453" xlink:href="#ArialMT-117"/>
      <use x="177.929688" xlink:href="#ArialMT-110"/>
      <use x="233.544922" xlink:href="#ArialMT-100"/>
      <use x="289.160156" xlink:href="#ArialMT-97"/>
      <use x="344.775391" xlink:href="#ArialMT-110"/>
      <use x="400.390625" xlink:href="#ArialMT-99"/>
      <use x="450.390625" xlink:href="#ArialMT-101"/>
     </g>
    </g>
   </g>
   <g id="PolyCollection_1">
    <defs>
     <path d="M 419.519806 -220.670558 
L 292.738093 -220.670558 
L 279.74438 -223.553045 
L 267.763233 -226.435533 
L 257.963133 -229.318021 
L 251.374965 -232.200508 
L 248.704806 -235.082996 
L 250.199628 -237.965484 
L 255.601781 -240.847972 
L 264.204432 -243.730459 
L 274.9922 -246.612947 
L 286.828922 -249.495435 
L 298.645172 -252.377923 
L 309.583984 -255.26041 
L 319.080378 -258.142898 
L 326.871582 -261.025386 
L 332.952555 -263.907873 
L 337.500817 -266.790361 
L 340.794853 -269.672849 
L 343.143947 -272.555337 
L 344.838316 -275.437824 
L 346.12044 -278.320312 
L 347.173594 -281.2028 
L 348.121929 -284.085287 
L 349.037148 -286.967775 
L 349.948382 -289.850263 
L 350.853335 -292.732751 
L 351.72958 -295.615238 
L 352.545172 -298.497726 
L 353.267764 -301.380214 
L 353.871536 -304.262702 
L 354.341525 -307.145189 
L 354.675351 -310.027677 
L 354.882741 -312.910165 
L 354.983436 -315.792652 
L 355.004117 -318.67514 
L 354.974868 -321.557628 
L 354.925582 -324.440116 
L 354.882641 -327.322603 
L 354.866234 -330.205091 
L 354.888619 -333.087579 
L 354.953615 -335.970066 
L 355.057376 -338.852554 
L 355.190287 -341.735042 
L 355.339535 -344.61753 
L 355.491797 -347.500017 
L 355.635506 -350.382505 
L 355.762307 -353.264993 
L 355.867592 -356.147481 
L 355.950217 -359.029968 
L 356.011692 -361.912456 
L 356.055152 -364.794944 
L 356.084393 -367.677431 
L 356.103141 -370.559919 
L 356.114605 -373.442407 
L 356.121292 -376.324895 
L 356.125003 -379.207382 
L 356.126939 -382.08987 
L 356.127824 -384.972358 
L 356.128032 -387.854845 
L 356.127657 -390.737333 
L 356.12653 -393.619821 
L 356.124193 -396.502309 
L 356.119799 -399.384796 
L 356.111995 -402.267284 
L 356.098792 -405.149772 
L 356.077481 -408.032259 
L 356.044682 -410.914747 
L 355.996592 -413.797235 
L 355.929516 -416.679723 
L 355.840672 -419.56221 
L 355.7292 -422.444698 
L 355.597172 -425.327186 
L 355.450305 -428.209674 
L 355.298081 -431.092161 
L 355.153026 -433.974649 
L 355.029123 -436.857137 
L 354.939569 -439.739624 
L 354.894334 -442.622112 
L 354.898089 -445.5046 
L 354.949032 -448.387088 
L 355.038898 -451.269575 
L 355.154165 -454.152063 
L 355.278121 -457.034551 
L 355.393348 -459.917038 
L 355.484108 -462.799526 
L 355.538306 -465.682014 
L 355.548846 -468.564502 
L 355.514359 -471.446989 
L 355.439337 -474.329477 
L 355.333687 -477.211965 
L 355.211664 -480.094453 
L 355.090186 -482.97694 
L 354.986604 -485.859428 
L 354.916216 -488.741916 
L 354.889937 -491.624403 
L 354.912645 -494.506891 
L 354.982595 -497.389379 
L 355.092063 -500.271867 
L 355.229053 -503.154354 
L 355.379643 -506.036842 
L 356.878257 -506.036842 
L 356.878257 -506.036842 
L 357.028847 -503.154354 
L 357.165837 -500.271867 
L 357.275304 -497.389379 
L 357.345255 -494.506891 
L 357.367963 -491.624403 
L 357.341684 -488.741916 
L 357.271295 -485.859428 
L 357.167714 -482.97694 
L 357.046236 -480.094453 
L 356.924213 -477.211965 
L 356.818563 -474.329477 
L 356.743541 -471.446989 
L 356.709054 -468.564502 
L 356.719593 -465.682014 
L 356.773791 -462.799526 
L 356.864551 -459.917038 
L 356.979778 -457.034551 
L 357.103735 -454.152063 
L 357.219001 -451.269575 
L 357.308868 -448.387088 
L 357.35981 -445.5046 
L 357.363566 -442.622112 
L 357.318331 -439.739624 
L 357.228777 -436.857137 
L 357.104874 -433.974649 
L 356.959819 -431.092161 
L 356.807594 -428.209674 
L 356.660728 -425.327186 
L 356.528699 -422.444698 
L 356.417228 -419.56221 
L 356.328384 -416.679723 
L 356.261308 -413.797235 
L 356.213218 -410.914747 
L 356.180418 -408.032259 
L 356.159107 -405.149772 
L 356.145904 -402.267284 
L 356.138101 -399.384796 
L 356.133707 -396.502309 
L 356.131369 -393.619821 
L 356.130243 -390.737333 
L 356.129867 -387.854845 
L 356.130075 -384.972358 
L 356.130961 -382.08987 
L 356.132896 -379.207382 
L 356.136608 -376.324895 
L 356.143295 -373.442407 
L 356.154759 -370.559919 
L 356.173507 -367.677431 
L 356.202748 -364.794944 
L 356.246208 -361.912456 
L 356.307683 -359.029968 
L 356.390308 -356.147481 
L 356.495593 -353.264993 
L 356.622394 -350.382505 
L 356.766102 -347.500017 
L 356.918365 -344.61753 
L 357.067612 -341.735042 
L 357.200524 -338.852554 
L 357.304285 -335.970066 
L 357.36928 -333.087579 
L 357.391666 -330.205091 
L 357.375258 -327.322603 
L 357.332318 -324.440116 
L 357.283031 -321.557628 
L 357.253783 -318.67514 
L 357.274464 -315.792652 
L 357.375158 -312.910165 
L 357.582548 -310.027677 
L 357.916375 -307.145189 
L 358.386363 -304.262702 
L 358.990136 -301.380214 
L 359.712727 -298.497726 
L 360.528319 -295.615238 
L 361.404565 -292.732751 
L 362.309518 -289.850263 
L 363.220752 -286.967775 
L 364.13597 -284.085287 
L 365.084305 -281.2028 
L 366.137459 -278.320312 
L 367.419584 -275.437824 
L 369.113952 -272.555337 
L 371.463047 -269.672849 
L 374.757083 -266.790361 
L 379.305345 -263.907873 
L 385.386318 -261.025386 
L 393.177522 -258.142898 
L 402.673915 -255.26041 
L 413.612727 -252.377923 
L 425.428978 -249.495435 
L 437.265699 -246.612947 
L 448.053467 -243.730459 
L 456.656118 -240.847972 
L 462.058271 -237.965484 
L 463.553093 -235.082996 
L 460.882935 -232.200508 
L 454.294766 -229.318021 
L 444.494666 -226.435533 
L 432.51352 -223.553045 
L 419.519806 -220.670558 
z
" id="m09382a79a9" style="stroke:#3d3d3d;stroke-width:5;"/>
    </defs>
    <g clip-path="url(#pf30c84aaec)">
     <use style="fill:#3a923a;stroke:#3d3d3d;stroke-width:5;" x="0" xlink:href="#m09382a79a9" y="1296"/>
    </g>
   </g>
   <g id="PolyCollection_2">
    <defs>
     <path d="M 651.93979 -202.649326 
L 597.438827 -202.649326 
L 594.118988 -206.545068 
L 590.887981 -210.44081 
L 587.851852 -214.336551 
L 585.117604 -218.232293 
L 582.786812 -222.128035 
L 580.94915 -226.023777 
L 579.676401 -229.919518 
L 579.01752 -233.81526 
L 578.995221 -237.711002 
L 579.604427 -241.606743 
L 580.81274 -245.502485 
L 582.562872 -249.398227 
L 584.776802 -253.293968 
L 587.361231 -257.18971 
L 590.213821 -261.085452 
L 593.229641 -264.981193 
L 596.307266 -268.876935 
L 599.354054 -272.772677 
L 602.29025 -276.668418 
L 605.051722 -280.56416 
L 607.591276 -284.459902 
L 609.878651 -288.355644 
L 611.899395 -292.251385 
L 613.65289 -296.147127 
L 615.149834 -300.042869 
L 616.409475 -303.93861 
L 617.456848 -307.834352 
L 618.320223 -311.730094 
L 619.028897 -315.625835 
L 619.611415 -319.521577 
L 620.094227 -323.417319 
L 620.500774 -327.31306 
L 620.850962 -331.208802 
L 621.160936 -335.104544 
L 621.443122 -339.000286 
L 621.706449 -342.896027 
L 621.956697 -346.791769 
L 622.196937 -350.687511 
L 622.428001 -354.583252 
L 622.64897 -358.478994 
L 622.857639 -362.374736 
L 623.050951 -366.270477 
L 623.22538 -370.166219 
L 623.377268 -374.061961 
L 623.503094 -377.957702 
L 623.599704 -381.853444 
L 623.664486 -385.749186 
L 623.695516 -389.644927 
L 623.69167 -393.540669 
L 623.652722 -397.436411 
L 623.579421 -401.332153 
L 623.473555 -405.227894 
L 623.337988 -409.123636 
L 623.176673 -413.019378 
L 622.994616 -416.915119 
L 622.797793 -420.810861 
L 622.592997 -424.706603 
L 622.387624 -428.602344 
L 622.189397 -432.498086 
L 622.00603 -436.393828 
L 621.844859 -440.289569 
L 621.712467 -444.185311 
L 621.614317 -448.081053 
L 621.554443 -451.976795 
L 621.535207 -455.872536 
L 621.557158 -459.768278 
L 621.618998 -463.66402 
L 621.717667 -467.559761 
L 621.848533 -471.455503 
L 622.005678 -475.351245 
L 622.182252 -479.246986 
L 622.370877 -483.142728 
L 622.564054 -487.03847 
L 622.754572 -490.934211 
L 622.93586 -494.829953 
L 623.102292 -498.725695 
L 623.249418 -502.621437 
L 623.37411 -506.517178 
L 623.474632 -510.41292 
L 623.550628 -514.308662 
L 623.603041 -518.204403 
L 623.63397 -522.100145 
L 623.646477 -525.995887 
L 623.64435 -529.891628 
L 623.631851 -533.78737 
L 623.613448 -537.683112 
L 623.593547 -541.578853 
L 623.576251 -545.474595 
L 623.56514 -549.370337 
L 623.563104 -553.266078 
L 623.572215 -557.16182 
L 623.593673 -561.057562 
L 623.627799 -564.953304 
L 623.674095 -568.849045 
L 623.731344 -572.744787 
L 623.797761 -576.640529 
L 623.871158 -580.53627 
L 623.949127 -584.432012 
L 624.029217 -588.327754 
L 625.3494 -588.327754 
L 625.3494 -588.327754 
L 625.42949 -584.432012 
L 625.50746 -580.53627 
L 625.580857 -576.640529 
L 625.647273 -572.744787 
L 625.704523 -568.849045 
L 625.750818 -564.953304 
L 625.784945 -561.057562 
L 625.806403 -557.16182 
L 625.815514 -553.266078 
L 625.813477 -549.370337 
L 625.802367 -545.474595 
L 625.785071 -541.578853 
L 625.76517 -537.683112 
L 625.746766 -533.78737 
L 625.734268 -529.891628 
L 625.732141 -525.995887 
L 625.744647 -522.100145 
L 625.775577 -518.204403 
L 625.82799 -514.308662 
L 625.903986 -510.41292 
L 626.004507 -506.517178 
L 626.1292 -502.621437 
L 626.276326 -498.725695 
L 626.442758 -494.829953 
L 626.624046 -490.934211 
L 626.814563 -487.03847 
L 627.007741 -483.142728 
L 627.196365 -479.246986 
L 627.37294 -475.351245 
L 627.530085 -471.455503 
L 627.660951 -467.559761 
L 627.75962 -463.66402 
L 627.82146 -459.768278 
L 627.843411 -455.872536 
L 627.824175 -451.976795 
L 627.7643 -448.081053 
L 627.666151 -444.185311 
L 627.533758 -440.289569 
L 627.372588 -436.393828 
L 627.18922 -432.498086 
L 626.990994 -428.602344 
L 626.785621 -424.706603 
L 626.580824 -420.810861 
L 626.384001 -416.915119 
L 626.201945 -413.019378 
L 626.04063 -409.123636 
L 625.905063 -405.227894 
L 625.799197 -401.332153 
L 625.725896 -397.436411 
L 625.686948 -393.540669 
L 625.683102 -389.644927 
L 625.714132 -385.749186 
L 625.778914 -381.853444 
L 625.875524 -377.957702 
L 626.00135 -374.061961 
L 626.153237 -370.166219 
L 626.327667 -366.270477 
L 626.520979 -362.374736 
L 626.729648 -358.478994 
L 626.950617 -354.583252 
L 627.181681 -350.687511 
L 627.421921 -346.791769 
L 627.672169 -342.896027 
L 627.935495 -339.000286 
L 628.217682 -335.104544 
L 628.527656 -331.208802 
L 628.877844 -327.31306 
L 629.284391 -323.417319 
L 629.767202 -319.521577 
L 630.34972 -315.625835 
L 631.058395 -311.730094 
L 631.92177 -307.834352 
L 632.969143 -303.93861 
L 634.228784 -300.042869 
L 635.725728 -296.147127 
L 637.479223 -292.251385 
L 639.499967 -288.355644 
L 641.787342 -284.459902 
L 644.326896 -280.56416 
L 647.088367 -276.668418 
L 650.024564 -272.772677 
L 653.071352 -268.876935 
L 656.148977 -264.981193 
L 659.164797 -261.085452 
L 662.017386 -257.18971 
L 664.601815 -253.293968 
L 666.815746 -249.398227 
L 668.565878 -245.502485 
L 669.774191 -241.606743 
L 670.383397 -237.711002 
L 670.361098 -233.81526 
L 669.702217 -229.919518 
L 668.429468 -226.023777 
L 666.591805 -222.128035 
L 664.261014 -218.232293 
L 661.526766 -214.336551 
L 658.490637 -210.44081 
L 655.25963 -206.545068 
L 651.93979 -202.649326 
z
" id="ma0621b5850" style="stroke:#3d3d3d;stroke-width:5;"/>
    </defs>
    <g clip-path="url(#pf30c84aaec)">
     <use style="fill:#2eabb8;stroke:#3d3d3d;stroke-width:5;" x="0" xlink:href="#ma0621b5850" y="1296"/>
    </g>
   </g>
   <g id="PolyCollection_3">
    <defs>
     <path d="M 905.259788 -197.743837 
L 881.239548 -197.743837 
L 879.929532 -201.535808 
L 878.619794 -205.327779 
L 877.335259 -209.11975 
L 876.101642 -212.911721 
L 874.944378 -216.703692 
L 873.887472 -220.495663 
L 872.952382 -224.287634 
L 872.156965 -228.079605 
L 871.5146 -231.871576 
L 871.033512 -235.663547 
L 870.716376 -239.455518 
L 870.560216 -243.247489 
L 870.556608 -247.03946 
L 870.692179 -250.831431 
L 870.94936 -254.623402 
L 871.307351 -258.415373 
L 871.743224 -262.207344 
L 872.233088 -265.999315 
L 872.753261 -269.791286 
L 873.281351 -273.583257 
L 873.797211 -277.375228 
L 874.28371 -281.167199 
L 874.727288 -284.95917 
L 875.118289 -288.751141 
L 875.451066 -292.543112 
L 875.723872 -296.335083 
L 875.938583 -300.127054 
L 876.100253 -303.919025 
L 876.216575 -307.710996 
L 876.297263 -311.502967 
L 876.353405 -315.294938 
L 876.396817 -319.086909 
L 876.439429 -322.878881 
L 876.492725 -326.670852 
L 876.567256 -330.462823 
L 876.67224 -334.254794 
L 876.815256 -338.046765 
L 877.002029 -341.838736 
L 877.236321 -345.630707 
L 877.519909 -349.422678 
L 877.85265 -353.214649 
L 878.232625 -357.00662 
L 878.656352 -360.798591 
L 879.119048 -364.590562 
L 879.614934 -368.382533 
L 880.137556 -372.174504 
L 880.680117 -375.966475 
L 881.235786 -379.758446 
L 881.79799 -383.550417 
L 882.360652 -387.342388 
L 882.918378 -391.134359 
L 883.466587 -394.92633 
L 884.00157 -398.718301 
L 884.52049 -402.510272 
L 885.021326 -406.302243 
L 885.50277 -410.094214 
L 885.964094 -413.886185 
L 886.404995 -417.678156 
L 886.825439 -421.470127 
L 887.225517 -425.262098 
L 887.605318 -429.054069 
L 887.964839 -432.84604 
L 888.303929 -436.638011 
L 888.622268 -440.429982 
L 888.919382 -444.221953 
L 889.194687 -448.013924 
L 889.44756 -451.805895 
L 889.677412 -455.597866 
L 889.883778 -459.389838 
L 890.066402 -463.181809 
L 890.225304 -466.97378 
L 890.360845 -470.765751 
L 890.473761 -474.557722 
L 890.565191 -478.349693 
L 890.636678 -482.141664 
L 890.690147 -485.933635 
L 890.727879 -489.725606 
L 890.752456 -493.517577 
L 890.766706 -497.309548 
L 890.773625 -501.101519 
L 890.776294 -504.89349 
L 890.7778 -508.685461 
L 890.781133 -512.477432 
L 890.789102 -516.269403 
L 890.804238 -520.061374 
L 890.828715 -523.853345 
L 890.864275 -527.645316 
L 890.91217 -531.437287 
L 890.973123 -535.229258 
L 891.047313 -539.021229 
L 891.134376 -542.8132 
L 891.233442 -546.605171 
L 891.343184 -550.397142 
L 891.46189 -554.189113 
L 891.587559 -557.981084 
L 891.71799 -561.773055 
L 891.850897 -565.565026 
L 891.984002 -569.356997 
L 892.115136 -573.148968 
L 894.384199 -573.148968 
L 894.384199 -573.148968 
L 894.515334 -569.356997 
L 894.648439 -565.565026 
L 894.781346 -561.773055 
L 894.911777 -557.981084 
L 895.037445 -554.189113 
L 895.156152 -550.397142 
L 895.265893 -546.605171 
L 895.36496 -542.8132 
L 895.452023 -539.021229 
L 895.526213 -535.229258 
L 895.587166 -531.437287 
L 895.635061 -527.645316 
L 895.670621 -523.853345 
L 895.695098 -520.061374 
L 895.710234 -516.269403 
L 895.718202 -512.477432 
L 895.721536 -508.685461 
L 895.723041 -504.89349 
L 895.725711 -501.101519 
L 895.732629 -497.309548 
L 895.746879 -493.517577 
L 895.771457 -489.725606 
L 895.809189 -485.933635 
L 895.862658 -482.141664 
L 895.934144 -478.349693 
L 896.025575 -474.557722 
L 896.138491 -470.765751 
L 896.274031 -466.97378 
L 896.432934 -463.181809 
L 896.615558 -459.389838 
L 896.821924 -455.597866 
L 897.051776 -451.805895 
L 897.304648 -448.013924 
L 897.579954 -444.221953 
L 897.877068 -440.429982 
L 898.195407 -436.638011 
L 898.534497 -432.84604 
L 898.894018 -429.054069 
L 899.273819 -425.262098 
L 899.673897 -421.470127 
L 900.094341 -417.678156 
L 900.535242 -413.886185 
L 900.996566 -410.094214 
L 901.47801 -406.302243 
L 901.978846 -402.510272 
L 902.497766 -398.718301 
L 903.032748 -394.92633 
L 903.580958 -391.134359 
L 904.138684 -387.342388 
L 904.701345 -383.550417 
L 905.26355 -379.758446 
L 905.819219 -375.966475 
L 906.36178 -372.174504 
L 906.884402 -368.382533 
L 907.380288 -364.590562 
L 907.842984 -360.798591 
L 908.266711 -357.00662 
L 908.646686 -353.214649 
L 908.979426 -349.422678 
L 909.263015 -345.630707 
L 909.497307 -341.838736 
L 909.68408 -338.046765 
L 909.827096 -334.254794 
L 909.93208 -330.462823 
L 910.006611 -326.670852 
L 910.059907 -322.878881 
L 910.102519 -319.086909 
L 910.145931 -315.294938 
L 910.202073 -311.502967 
L 910.282761 -307.710996 
L 910.399083 -303.919025 
L 910.560753 -300.127054 
L 910.775463 -296.335083 
L 911.04827 -292.543112 
L 911.381047 -288.751141 
L 911.772048 -284.95917 
L 912.215626 -281.167199 
L 912.702125 -277.375228 
L 913.217985 -273.583257 
L 913.746074 -269.791286 
L 914.266247 -265.999315 
L 914.756112 -262.207344 
L 915.191985 -258.415373 
L 915.549976 -254.623402 
L 915.807157 -250.831431 
L 915.942728 -247.03946 
L 915.93912 -243.247489 
L 915.78296 -239.455518 
L 915.465824 -235.663547 
L 914.984736 -231.871576 
L 914.34237 -228.079605 
L 913.546954 -224.287634 
L 912.611864 -220.495663 
L 911.554958 -216.703692 
L 910.397693 -212.911721 
L 909.164077 -209.11975 
L 907.879542 -205.327779 
L 906.569804 -201.535808 
L 905.259788 -197.743837 
z
" id="m5feccdb4a2" style="stroke:#3d3d3d;stroke-width:5;"/>
    </defs>
    <g clip-path="url(#pf30c84aaec)">
     <use style="fill:#a9aa35;stroke:#3d3d3d;stroke-width:5;" x="0" xlink:href="#m5feccdb4a2" y="1296"/>
    </g>
   </g>
   <g id="PolyCollection_4">
    <defs>
     <path d="M 1168.986975 -158.808105 
L 1154.633079 -158.808105 
L 1153.714729 -167.444086 
L 1152.784886 -176.080066 
L 1151.863821 -184.716047 
L 1150.973172 -193.352028 
L 1150.135001 -201.988009 
L 1149.370756 -210.62399 
L 1148.700229 -219.25997 
L 1148.140566 -227.895951 
L 1147.705418 -236.531932 
L 1147.404285 -245.167913 
L 1147.242106 -253.803894 
L 1147.219125 -262.439874 
L 1147.331018 -271.075855 
L 1147.569286 -279.711836 
L 1147.921851 -288.347817 
L 1148.37382 -296.983798 
L 1148.908336 -305.619778 
L 1149.507463 -314.255759 
L 1150.153038 -322.89174 
L 1150.827436 -331.527721 
L 1151.514208 -340.163701 
L 1152.198577 -348.799682 
L 1152.867765 -357.435663 
L 1153.511169 -366.071644 
L 1154.1204 -374.707625 
L 1154.689192 -383.343605 
L 1155.213243 -391.979586 
L 1155.689976 -400.615567 
L 1156.118286 -409.251548 
L 1156.49827 -417.887529 
L 1156.830982 -426.523509 
L 1157.118212 -435.15949 
L 1157.362302 -443.795471 
L 1157.566007 -452.431452 
L 1157.732394 -461.067432 
L 1157.864773 -469.703413 
L 1157.966657 -478.339394 
L 1158.041736 -486.975375 
L 1158.093862 -495.611356 
L 1158.127025 -504.247336 
L 1158.145327 -512.883317 
L 1158.152937 -521.519298 
L 1158.154033 -530.155279 
L 1158.152726 -538.79126 
L 1158.152967 -547.42724 
L 1158.158445 -556.063221 
L 1158.172487 -564.699202 
L 1158.197952 -573.335183 
L 1158.237142 -581.971164 
L 1158.291728 -590.607144 
L 1158.362699 -599.243125 
L 1158.450341 -607.879106 
L 1158.554245 -616.515087 
L 1158.673349 -625.151067 
L 1158.80601 -633.787048 
L 1158.950102 -642.423029 
L 1159.103136 -651.05901 
L 1159.262395 -659.694991 
L 1159.425074 -668.330971 
L 1159.588411 -676.966952 
L 1159.749821 -685.602933 
L 1159.906991 -694.238914 
L 1160.057964 -702.874895 
L 1160.201186 -711.510875 
L 1160.335527 -720.146856 
L 1160.460263 -728.782837 
L 1160.575043 -737.418818 
L 1160.679827 -746.054798 
L 1160.774816 -754.690779 
L 1160.860376 -763.32676 
L 1160.936962 -771.962741 
L 1161.005062 -780.598722 
L 1161.065141 -789.234702 
L 1161.117621 -797.870683 
L 1161.162868 -806.506664 
L 1161.201205 -815.142645 
L 1161.232935 -823.778626 
L 1161.258379 -832.414606 
L 1161.27791 -841.050587 
L 1161.291995 -849.686568 
L 1161.301215 -858.322549 
L 1161.306287 -866.95853 
L 1161.308059 -875.59451 
L 1161.307493 -884.230491 
L 1161.305633 -892.866472 
L 1161.303561 -901.502453 
L 1161.30234 -910.138433 
L 1161.302956 -918.774414 
L 1161.306267 -927.410395 
L 1161.312954 -936.046376 
L 1161.32348 -944.682357 
L 1161.338078 -953.318337 
L 1161.356737 -961.954318 
L 1161.379221 -970.590299 
L 1161.405092 -979.22628 
L 1161.433748 -987.862261 
L 1161.464474 -996.498241 
L 1161.49649 -1005.134222 
L 1161.528998 -1013.770203 
L 1162.091056 -1013.770203 
L 1162.091056 -1013.770203 
L 1162.123564 -1005.134222 
L 1162.15558 -996.498241 
L 1162.186306 -987.862261 
L 1162.214962 -979.22628 
L 1162.240833 -970.590299 
L 1162.263317 -961.954318 
L 1162.281976 -953.318337 
L 1162.296574 -944.682357 
L 1162.3071 -936.046376 
L 1162.313787 -927.410395 
L 1162.317098 -918.774414 
L 1162.317714 -910.138433 
L 1162.316493 -901.502453 
L 1162.314421 -892.866472 
L 1162.312561 -884.230491 
L 1162.311995 -875.59451 
L 1162.313767 -866.95853 
L 1162.318839 -858.322549 
L 1162.328059 -849.686568 
L 1162.342144 -841.050587 
L 1162.361675 -832.414606 
L 1162.387119 -823.778626 
L 1162.418849 -815.142645 
L 1162.457186 -806.506664 
L 1162.502433 -797.870683 
L 1162.554913 -789.234702 
L 1162.614992 -780.598722 
L 1162.683092 -771.962741 
L 1162.759678 -763.32676 
L 1162.845238 -754.690779 
L 1162.940227 -746.054798 
L 1163.045011 -737.418818 
L 1163.159791 -728.782837 
L 1163.284527 -720.146856 
L 1163.418868 -711.510875 
L 1163.56209 -702.874895 
L 1163.713063 -694.238914 
L 1163.870233 -685.602933 
L 1164.031643 -676.966952 
L 1164.19498 -668.330971 
L 1164.357659 -659.694991 
L 1164.516918 -651.05901 
L 1164.669952 -642.423029 
L 1164.814044 -633.787048 
L 1164.946705 -625.151067 
L 1165.065809 -616.515087 
L 1165.169713 -607.879106 
L 1165.257355 -599.243125 
L 1165.328326 -590.607144 
L 1165.382912 -581.971164 
L 1165.422102 -573.335183 
L 1165.447567 -564.699202 
L 1165.461609 -556.063221 
L 1165.467087 -547.42724 
L 1165.467327 -538.79126 
L 1165.466021 -530.155279 
L 1165.467117 -521.519298 
L 1165.474727 -512.883317 
L 1165.493029 -504.247336 
L 1165.526192 -495.611356 
L 1165.578318 -486.975375 
L 1165.653397 -478.339394 
L 1165.755281 -469.703413 
L 1165.88766 -461.067432 
L 1166.054047 -452.431452 
L 1166.257752 -443.795471 
L 1166.501842 -435.15949 
L 1166.789072 -426.523509 
L 1167.121784 -417.887529 
L 1167.501768 -409.251548 
L 1167.930078 -400.615567 
L 1168.406811 -391.979586 
L 1168.930862 -383.343605 
L 1169.499654 -374.707625 
L 1170.108885 -366.071644 
L 1170.752289 -357.435663 
L 1171.421477 -348.799682 
L 1172.105846 -340.163701 
L 1172.792618 -331.527721 
L 1173.467016 -322.89174 
L 1174.112591 -314.255759 
L 1174.711718 -305.619778 
L 1175.246234 -296.983798 
L 1175.698203 -288.347817 
L 1176.050768 -279.711836 
L 1176.289036 -271.075855 
L 1176.400929 -262.439874 
L 1176.377948 -253.803894 
L 1176.215769 -245.167913 
L 1175.914636 -236.531932 
L 1175.479488 -227.895951 
L 1174.919825 -219.25997 
L 1174.249298 -210.62399 
L 1173.485053 -201.988009 
L 1172.646881 -193.352028 
L 1171.756233 -184.716047 
L 1170.835168 -176.080066 
L 1169.905325 -167.444086 
L 1168.986975 -158.808105 
z
" id="m22933b58d8" style="stroke:#3d3d3d;stroke-width:5;"/>
    </defs>
    <g clip-path="url(#pf30c84aaec)">
     <use style="fill:#c03d3e;stroke:#3d3d3d;stroke-width:5;" x="0" xlink:href="#m22933b58d8" y="1296"/>
    </g>
   </g>
   <g id="line2d_6">
    <path clip-path="url(#pf30c84aaec)" d="M 356.12895 1061.185661 
L 356.12895 1061.185661 
" style="fill:none;stroke:#3d3d3d;stroke-linecap:round;stroke-width:5;"/>
   </g>
   <g id="line2d_7">
    <path clip-path="url(#pf30c84aaec)" d="M 356.12895 1061.185661 
L 356.12895 1061.185661 
" style="fill:none;stroke:#3d3d3d;stroke-linecap:round;stroke-width:15;"/>
   </g>
   <g id="line2d_8">
    <path clip-path="url(#pf30c84aaec)" d="M 624.689309 1061.185661 
L 624.689309 1061.185661 
" style="fill:none;stroke:#3d3d3d;stroke-linecap:round;stroke-width:5;"/>
   </g>
   <g id="line2d_9">
    <path clip-path="url(#pf30c84aaec)" d="M 624.689309 1061.185661 
L 624.689309 1061.185661 
" style="fill:none;stroke:#3d3d3d;stroke-linecap:round;stroke-width:15;"/>
   </g>
   <g id="line2d_10">
    <path clip-path="url(#pf30c84aaec)" d="M 893.249668 1061.185661 
L 893.249668 759.921534 
" style="fill:none;stroke:#3d3d3d;stroke-linecap:round;stroke-width:5;"/>
   </g>
   <g id="line2d_11">
    <path clip-path="url(#pf30c84aaec)" d="M 893.249668 1061.185661 
L 893.249668 940.68001 
" style="fill:none;stroke:#3d3d3d;stroke-linecap:round;stroke-width:15;"/>
   </g>
   <g id="line2d_12">
    <path clip-path="url(#pf30c84aaec)" d="M 1161.810027 1061.185661 
L 1161.810027 639.415883 
" style="fill:none;stroke:#3d3d3d;stroke-linecap:round;stroke-width:5;"/>
   </g>
   <g id="line2d_13">
    <path clip-path="url(#pf30c84aaec)" d="M 1161.810027 1061.185661 
L 1161.810027 872.393475 
" style="fill:none;stroke:#3d3d3d;stroke-linecap:round;stroke-width:15;"/>
   </g>
   <g id="line2d_14">
    <path clip-path="url(#pf30c84aaec)" d="M 624.689309 683.40976 
L 624.689309 664.600594 
L 893.249668 664.600594 
L 893.249668 683.40976 
" style="fill:none;stroke:#333333;stroke-linecap:round;stroke-width:1.5;"/>
   </g>
   <g id="line2d_15">
    <path clip-path="url(#pf30c84aaec)" d="M 356.12895 573.887155 
L 356.12895 555.077989 
L 893.249668 555.077989 
L 893.249668 573.887155 
" style="fill:none;stroke:#333333;stroke-linecap:round;stroke-width:1.5;"/>
   </g>
   <g id="line2d_16">
    <path clip-path="url(#pf30c84aaec)" d="M 624.689309 301.808533 
L 624.689309 282.999366 
L 1161.810027 282.999366 
L 1161.810027 301.808533 
" style="fill:none;stroke:#333333;stroke-linecap:round;stroke-width:1.5;"/>
   </g>
   <g id="line2d_17">
    <path clip-path="url(#pf30c84aaec)" d="M 356.12895 192.285928 
L 356.12895 173.476761 
L 1161.810027 173.476761 
L 1161.810027 192.285928 
" style="fill:none;stroke:#333333;stroke-linecap:round;stroke-width:1.5;"/>
   </g>
   <g id="patch_3">
    <path d="M 202.32 1179.94 
L 202.32 96.12 
" style="fill:none;stroke:#cccccc;stroke-linecap:square;stroke-linejoin:miter;stroke-width:2.5;"/>
   </g>
   <g id="patch_4">
    <path d="M 1222.785735 1179.94 
L 1222.785735 96.12 
" style="fill:none;stroke:#cccccc;stroke-linecap:square;stroke-linejoin:miter;stroke-width:2.5;"/>
   </g>
   <g id="patch_5">
    <path d="M 202.32 1179.94 
L 1222.785735 1179.94 
" style="fill:none;stroke:#cccccc;stroke-linecap:square;stroke-linejoin:miter;stroke-width:2.5;"/>
   </g>
   <g id="patch_6">
    <path d="M 202.32 96.12 
L 1222.785735 96.12 
" style="fill:none;stroke:#cccccc;stroke-linecap:square;stroke-linejoin:miter;stroke-width:2.5;"/>
   </g>
   <g id="PathCollection_1">
    <defs>
     <path d="M 0 5 
C 1.326016 5 2.597899 4.473168 3.535534 3.535534 
C 4.473168 2.597899 5 1.326016 5 0 
C 5 -1.326016 4.473168 -2.597899 3.535534 -3.535534 
C 2.597899 -4.473168 1.326016 -5 0 -5 
C -1.326016 -5 -2.597899 -4.473168 -3.535534 -3.535534 
C -4.473168 -2.597899 -5 -1.326016 -5 0 
C -5 1.326016 -4.473168 2.597899 -3.535534 3.535534 
C -2.597899 4.473168 -1.326016 5 0 5 
z
" id="m5cbe635c92" style="stroke:#3d3d3d;stroke-width:2;"/>
    </defs>
    <g clip-path="url(#pf30c84aaec)">
     <use style="fill:#ffffff;stroke:#3d3d3d;stroke-width:2;" x="356.12895" xlink:href="#m5cbe635c92" y="1061.185661"/>
    </g>
   </g>
   <g id="PathCollection_2">
    <g clip-path="url(#pf30c84aaec)">
     <use style="fill:#ffffff;stroke:#3d3d3d;stroke-width:2;" x="624.689309" xlink:href="#m5cbe635c92" y="1061.185661"/>
    </g>
   </g>
   <g id="PathCollection_3">
    <g clip-path="url(#pf30c84aaec)">
     <use style="fill:#ffffff;stroke:#3d3d3d;stroke-width:2;" x="893.249668" xlink:href="#m5cbe635c92" y="1002.941263"/>
    </g>
   </g>
   <g id="PathCollection_4">
    <g clip-path="url(#pf30c84aaec)">
     <use style="fill:#ffffff;stroke:#3d3d3d;stroke-width:2;" x="1161.810027" xlink:href="#m5cbe635c92" y="1014.991828"/>
    </g>
   </g>
   <g id="text_11">
    <!-- **** -->
    <g transform="translate(720.047613 653.663094)scale(0.5 -0.5)">
     <defs>
      <path d="M 3.125 58.453125 
L 5.375 65.375 
Q 13.140625 62.640625 16.65625 60.640625 
Q 15.71875 69.484375 15.671875 72.796875 
L 22.75 72.796875 
Q 22.609375 67.96875 21.625 60.6875 
Q 26.65625 63.234375 33.15625 65.375 
L 35.40625 58.453125 
Q 29.203125 56.390625 23.25 55.71875 
Q 26.21875 53.125 31.640625 46.484375 
L 25.78125 42.328125 
Q 22.953125 46.1875 19.09375 52.828125 
Q 15.484375 45.953125 12.75 42.328125 
L 6.984375 46.484375 
Q 12.640625 53.46875 15.09375 55.71875 
Q 8.796875 56.9375 3.125 58.453125 
z
" id="ArialMT-42"/>
     </defs>
     <use xlink:href="#ArialMT-42"/>
     <use x="38.916016" xlink:href="#ArialMT-42"/>
     <use x="77.832031" xlink:href="#ArialMT-42"/>
     <use x="116.748047" xlink:href="#ArialMT-42"/>
    </g>
   </g>
   <g id="text_12">
    <!-- **** -->
    <g transform="translate(585.767434 544.140489)scale(0.5 -0.5)">
     <use xlink:href="#ArialMT-42"/>
     <use x="38.916016" xlink:href="#ArialMT-42"/>
     <use x="77.832031" xlink:href="#ArialMT-42"/>
     <use x="116.748047" xlink:href="#ArialMT-42"/>
    </g>
   </g>
   <g id="text_13">
    <!-- **** -->
    <g transform="translate(854.327793 272.061866)scale(0.5 -0.5)">
     <use xlink:href="#ArialMT-42"/>
     <use x="38.916016" xlink:href="#ArialMT-42"/>
     <use x="77.832031" xlink:href="#ArialMT-42"/>
     <use x="116.748047" xlink:href="#ArialMT-42"/>
    </g>
   </g>
   <g id="text_14">
    <!-- **** -->
    <g transform="translate(720.047613 162.539261)scale(0.5 -0.5)">
     <use xlink:href="#ArialMT-42"/>
     <use x="38.916016" xlink:href="#ArialMT-42"/>
     <use x="77.832031" xlink:href="#ArialMT-42"/>
     <use x="116.748047" xlink:href="#ArialMT-42"/>
    </g>
   </g>
   <g id="text_15">
    <!-- Treponema sp. HMT 260 (K.W. p=1.00e-11) -->
    <g transform="translate(227.384899 90.12)scale(0.5 -0.5)">
     <defs>
      <path d="M 25.921875 0 
L 25.921875 63.140625 
L 2.34375 63.140625 
L 2.34375 71.578125 
L 59.078125 71.578125 
L 59.078125 63.140625 
L 35.40625 63.140625 
L 35.40625 0 
z
" id="ArialMT-84"/>
      <path d="M 6.59375 -19.875 
L 6.59375 51.859375 
L 14.59375 51.859375 
L 14.59375 45.125 
Q 17.4375 49.078125 21 51.046875 
Q 24.5625 53.03125 29.640625 53.03125 
Q 36.28125 53.03125 41.359375 49.609375 
Q 46.4375 46.1875 49.015625 39.953125 
Q 51.609375 33.734375 51.609375 26.3125 
Q 51.609375 18.359375 48.75 11.984375 
Q 45.90625 5.609375 40.453125 2.21875 
Q 35.015625 -1.171875 29 -1.171875 
Q 24.609375 -1.171875 21.109375 0.6875 
Q 17.625 2.546875 15.375 5.375 
L 15.375 -19.875 
z
M 14.546875 25.640625 
Q 14.546875 15.625 18.59375 10.84375 
Q 22.65625 6.0625 28.421875 6.0625 
Q 34.28125 6.0625 38.453125 11.015625 
Q 42.625 15.96875 42.625 26.375 
Q 42.625 36.28125 38.546875 41.203125 
Q 34.46875 46.140625 28.8125 46.140625 
Q 23.1875 46.140625 18.859375 40.890625 
Q 14.546875 35.640625 14.546875 25.640625 
z
" id="ArialMT-112"/>
      <path d="M 6.59375 0 
L 6.59375 51.859375 
L 14.453125 51.859375 
L 14.453125 44.578125 
Q 16.890625 48.390625 20.9375 50.703125 
Q 25 53.03125 30.171875 53.03125 
Q 35.9375 53.03125 39.625 50.640625 
Q 43.3125 48.25 44.828125 43.953125 
Q 50.984375 53.03125 60.84375 53.03125 
Q 68.5625 53.03125 72.703125 48.75 
Q 76.859375 44.484375 76.859375 35.59375 
L 76.859375 0 
L 68.109375 0 
L 68.109375 32.671875 
Q 68.109375 37.9375 67.25 40.25 
Q 66.40625 42.578125 64.15625 43.984375 
Q 61.921875 45.40625 58.890625 45.40625 
Q 53.421875 45.40625 49.796875 41.765625 
Q 46.1875 38.140625 46.1875 30.125 
L 46.1875 0 
L 37.40625 0 
L 37.40625 33.6875 
Q 37.40625 39.546875 35.25 42.46875 
Q 33.109375 45.40625 28.21875 45.40625 
Q 24.515625 45.40625 21.359375 43.453125 
Q 18.21875 41.5 16.796875 37.734375 
Q 15.375 33.984375 15.375 26.90625 
L 15.375 0 
z
" id="ArialMT-109"/>
      <path id="ArialMT-32"/>
      <path d="M 3.078125 15.484375 
L 11.765625 16.84375 
Q 12.5 11.625 15.84375 8.84375 
Q 19.1875 6.0625 25.203125 6.0625 
Q 31.25 6.0625 34.171875 8.515625 
Q 37.109375 10.984375 37.109375 14.3125 
Q 37.109375 17.28125 34.515625 19 
Q 32.71875 20.171875 25.53125 21.96875 
Q 15.875 24.421875 12.140625 26.203125 
Q 8.40625 27.984375 6.46875 31.125 
Q 4.546875 34.28125 4.546875 38.09375 
Q 4.546875 41.546875 6.125 44.5 
Q 7.71875 47.46875 10.453125 49.421875 
Q 12.5 50.921875 16.03125 51.96875 
Q 19.578125 53.03125 23.640625 53.03125 
Q 29.734375 53.03125 34.34375 51.265625 
Q 38.96875 49.515625 41.15625 46.5 
Q 43.359375 43.5 44.1875 38.484375 
L 35.59375 37.3125 
Q 35.015625 41.3125 32.203125 43.546875 
Q 29.390625 45.796875 24.265625 45.796875 
Q 18.21875 45.796875 15.625 43.796875 
Q 13.03125 41.796875 13.03125 39.109375 
Q 13.03125 37.40625 14.109375 36.03125 
Q 15.1875 34.625 17.484375 33.6875 
Q 18.796875 33.203125 25.25 31.453125 
Q 34.578125 28.953125 38.25 27.359375 
Q 41.9375 25.78125 44.03125 22.75 
Q 46.140625 19.734375 46.140625 15.234375 
Q 46.140625 10.84375 43.578125 6.953125 
Q 41.015625 3.078125 36.171875 0.953125 
Q 31.34375 -1.171875 25.25 -1.171875 
Q 15.140625 -1.171875 9.84375 3.03125 
Q 4.546875 7.234375 3.078125 15.484375 
z
" id="ArialMT-115"/>
      <path d="M 9.078125 0 
L 9.078125 10.015625 
L 19.09375 10.015625 
L 19.09375 0 
z
" id="ArialMT-46"/>
      <path d="M 49.75 54.046875 
L 41.015625 53.375 
Q 39.84375 58.546875 37.703125 60.890625 
Q 34.125 64.65625 28.90625 64.65625 
Q 24.703125 64.65625 21.53125 62.3125 
Q 17.390625 59.28125 14.984375 53.46875 
Q 12.59375 47.65625 12.5 36.921875 
Q 15.671875 41.75 20.265625 44.09375 
Q 24.859375 46.4375 29.890625 46.4375 
Q 38.671875 46.4375 44.84375 39.96875 
Q 51.03125 33.5 51.03125 23.25 
Q 51.03125 16.5 48.125 10.71875 
Q 45.21875 4.9375 40.140625 1.859375 
Q 35.0625 -1.21875 28.609375 -1.21875 
Q 17.625 -1.21875 10.6875 6.859375 
Q 3.765625 14.9375 3.765625 33.5 
Q 3.765625 54.25 11.421875 63.671875 
Q 18.109375 71.875 29.4375 71.875 
Q 37.890625 71.875 43.28125 67.140625 
Q 48.6875 62.40625 49.75 54.046875 
z
M 13.875 23.1875 
Q 13.875 18.65625 15.796875 14.5 
Q 17.71875 10.359375 21.1875 8.171875 
Q 24.65625 6 28.46875 6 
Q 34.03125 6 38.03125 10.484375 
Q 42.046875 14.984375 42.046875 22.703125 
Q 42.046875 30.125 38.078125 34.390625 
Q 34.125 38.671875 28.125 38.671875 
Q 22.171875 38.671875 18.015625 34.390625 
Q 13.875 30.125 13.875 23.1875 
z
" id="ArialMT-54"/>
      <path d="M 23.390625 -21.046875 
Q 16.109375 -11.859375 11.078125 0.4375 
Q 6.0625 12.75 6.0625 25.921875 
Q 6.0625 37.546875 9.8125 48.1875 
Q 14.203125 60.546875 23.390625 72.796875 
L 29.6875 72.796875 
Q 23.78125 62.640625 21.875 58.296875 
Q 18.890625 51.5625 17.1875 44.234375 
Q 15.09375 35.109375 15.09375 25.875 
Q 15.09375 2.390625 29.6875 -21.046875 
z
" id="ArialMT-40"/>
      <path d="M 7.328125 0 
L 7.328125 71.578125 
L 16.796875 71.578125 
L 16.796875 36.078125 
L 52.34375 71.578125 
L 65.1875 71.578125 
L 35.15625 42.578125 
L 66.5 0 
L 54 0 
L 28.515625 36.234375 
L 16.796875 24.8125 
L 16.796875 0 
z
" id="ArialMT-75"/>
      <path d="M 20.21875 0 
L 1.21875 71.578125 
L 10.9375 71.578125 
L 21.828125 24.65625 
Q 23.578125 17.28125 24.859375 10.015625 
Q 27.59375 21.484375 28.078125 23.25 
L 41.703125 71.578125 
L 53.125 71.578125 
L 63.375 35.359375 
Q 67.234375 21.875 68.953125 10.015625 
Q 70.3125 16.796875 72.515625 25.59375 
L 83.734375 71.578125 
L 93.265625 71.578125 
L 73.640625 0 
L 64.5 0 
L 49.421875 54.546875 
Q 47.515625 61.375 47.171875 62.9375 
Q 46.046875 58.015625 45.0625 54.546875 
L 29.890625 0 
z
" id="ArialMT-87"/>
      <path d="M 52.828125 42.09375 
L 5.5625 42.09375 
L 5.5625 50.296875 
L 52.828125 50.296875 
z
M 52.828125 20.359375 
L 5.5625 20.359375 
L 5.5625 28.5625 
L 52.828125 28.5625 
z
" id="ArialMT-61"/>
      <path d="M 3.171875 21.484375 
L 3.171875 30.328125 
L 30.171875 30.328125 
L 30.171875 21.484375 
z
" id="ArialMT-45"/>
      <path d="M 12.359375 -21.046875 
L 6.0625 -21.046875 
Q 20.65625 2.390625 20.65625 25.875 
Q 20.65625 35.0625 18.5625 44.09375 
Q 16.890625 51.421875 13.921875 58.15625 
Q 12.015625 62.546875 6.0625 72.796875 
L 12.359375 72.796875 
Q 21.53125 60.546875 25.921875 48.1875 
Q 29.6875 37.546875 29.6875 25.921875 
Q 29.6875 12.75 24.625 0.4375 
Q 19.578125 -11.859375 12.359375 -21.046875 
z
" id="ArialMT-41"/>
     </defs>
     <use xlink:href="#ArialMT-84"/>
     <use x="57.333984" xlink:href="#ArialMT-114"/>
     <use x="90.634766" xlink:href="#ArialMT-101"/>
     <use x="146.25" xlink:href="#ArialMT-112"/>
     <use x="201.865234" xlink:href="#ArialMT-111"/>
     <use x="257.480469" xlink:href="#ArialMT-110"/>
     <use x="313.095703" xlink:href="#ArialMT-101"/>
     <use x="368.710938" xlink:href="#ArialMT-109"/>
     <use x="452.011719" xlink:href="#ArialMT-97"/>
     <use x="507.626953" xlink:href="#ArialMT-32"/>
     <use x="535.410156" xlink:href="#ArialMT-115"/>
     <use x="585.410156" xlink:href="#ArialMT-112"/>
     <use x="641.025391" xlink:href="#ArialMT-46"/>
     <use x="668.808594" xlink:href="#ArialMT-32"/>
     <use x="696.591797" xlink:href="#ArialMT-72"/>
     <use x="768.808594" xlink:href="#ArialMT-77"/>
     <use x="852.109375" xlink:href="#ArialMT-84"/>
     <use x="911.443359" xlink:href="#ArialMT-32"/>
     <use x="939.226562" xlink:href="#ArialMT-50"/>
     <use x="994.841797" xlink:href="#ArialMT-54"/>
     <use x="1050.457031" xlink:href="#ArialMT-48"/>
     <use x="1106.072266" xlink:href="#ArialMT-32"/>
     <use x="1133.855469" xlink:href="#ArialMT-40"/>
     <use x="1167.15625" xlink:href="#ArialMT-75"/>
     <use x="1233.855469" xlink:href="#ArialMT-46"/>
     <use x="1261.638672" xlink:href="#ArialMT-87"/>
     <use x="1350.523438" xlink:href="#ArialMT-46"/>
     <use x="1378.306641" xlink:href="#ArialMT-32"/>
     <use x="1406.089844" xlink:href="#ArialMT-112"/>
     <use x="1461.705078" xlink:href="#ArialMT-61"/>
     <use x="1520.103516" xlink:href="#ArialMT-49"/>
     <use x="1575.71875" xlink:href="#ArialMT-46"/>
     <use x="1603.501953" xlink:href="#ArialMT-48"/>
     <use x="1659.117188" xlink:href="#ArialMT-48"/>
     <use x="1714.732422" xlink:href="#ArialMT-101"/>
     <use x="1770.347656" xlink:href="#ArialMT-45"/>
     <use x="1803.648438" xlink:href="#ArialMT-49"/>
     <use x="1851.888672" xlink:href="#ArialMT-49"/>
     <use x="1907.503906" xlink:href="#ArialMT-41"/>
    </g>
   </g>
  </g>
 </g>
 <defs>
  <clipPath id="pf30c84aaec">
   <rect height="1083.82" width="1020.465735" x="202.32" y="96.12"/>
  </clipPath>
 </defs>
</svg>
