<?xml version="1.0" encoding="utf-8" standalone="no"?>
<!DOCTYPE svg PUBLIC "-//W3C//DTD SVG 1.1//EN"
  "http://www.w3.org/Graphics/SVG/1.1/DTD/svg11.dtd">
<!-- Created with matplotlib (https://matplotlib.org/) -->
<svg height="1296pt" version="1.1" viewBox="0 0 1296 1296" width="1296pt" xmlns="http://www.w3.org/2000/svg" xmlns:xlink="http://www.w3.org/1999/xlink">
 <metadata>
  <rdf:RDF xmlns:cc="http://creativecommons.org/ns#" xmlns:dc="http://purl.org/dc/elements/1.1/" xmlns:rdf="http://www.w3.org/1999/02/22-rdf-syntax-ns#">
   <cc:Work>
    <dc:type rdf:resource="http://purl.org/dc/dcmitype/StillImage"/>
    <dc:date>2022-06-29T13:55:06.072227</dc:date>
    <dc:format>image/svg+xml</dc:format>
    <dc:creator>
     <cc:Agent>
      <dc:title>Matplotlib v3.3.3, https://matplotlib.org/</dc:title>
     </cc:Agent>
    </dc:creator>
   </cc:Work>
  </rdf:RDF>
 </metadata>
 <defs>
  <style type="text/css">*{stroke-linecap:butt;stroke-linejoin:round;}</style>
 </defs>
 <g id="figure_1">
  <g id="patch_1">
   <path d="M 0 1296 
L 1296 1296 
L 1296 0 
L 0 0 
z
" style="fill:#ffffff;"/>
  </g>
  <g id="axes_1">
   <g id="patch_2">
    <path d="M 230.13 1179.94 
L 1216.224734 1179.94 
L 1216.224734 96.12 
L 230.13 96.12 
z
" style="fill:#ffffff;"/>
   </g>
   <g id="matplotlib.axis_1">
    <g id="xtick_1">
     <g id="text_1">
      <!-- Healthy -->
      <g style="fill:#262626;" transform="translate(294.754502 1231.229063)scale(0.5 -0.5)">
       <defs>
        <path d="M 8.015625 0 
L 8.015625 71.578125 
L 17.484375 71.578125 
L 17.484375 42.1875 
L 54.6875 42.1875 
L 54.6875 71.578125 
L 64.15625 71.578125 
L 64.15625 0 
L 54.6875 0 
L 54.6875 33.734375 
L 17.484375 33.734375 
L 17.484375 0 
z
" id="ArialMT-72"/>
        <path d="M 42.09375 16.703125 
L 51.171875 15.578125 
Q 49.03125 7.625 43.21875 3.21875 
Q 37.40625 -1.171875 28.375 -1.171875 
Q 17 -1.171875 10.328125 5.828125 
Q 3.65625 12.84375 3.65625 25.484375 
Q 3.65625 38.578125 10.390625 45.796875 
Q 17.140625 53.03125 27.875 53.03125 
Q 38.28125 53.03125 44.875 45.953125 
Q 51.46875 38.875 51.46875 26.03125 
Q 51.46875 25.25 51.421875 23.6875 
L 12.75 23.6875 
Q 13.234375 15.140625 17.578125 10.59375 
Q 21.921875 6.0625 28.421875 6.0625 
Q 33.25 6.0625 36.671875 8.59375 
Q 40.09375 11.140625 42.09375 16.703125 
z
M 13.234375 30.90625 
L 42.1875 30.90625 
Q 41.609375 37.453125 38.875 40.71875 
Q 34.671875 45.796875 27.984375 45.796875 
Q 21.921875 45.796875 17.796875 41.75 
Q 13.671875 37.703125 13.234375 30.90625 
z
" id="ArialMT-101"/>
        <path d="M 40.4375 6.390625 
Q 35.546875 2.25 31.03125 0.53125 
Q 26.515625 -1.171875 21.34375 -1.171875 
Q 12.796875 -1.171875 8.203125 3 
Q 3.609375 7.171875 3.609375 13.671875 
Q 3.609375 17.484375 5.34375 20.625 
Q 7.078125 23.78125 9.890625 25.6875 
Q 12.703125 27.59375 16.21875 28.5625 
Q 18.796875 29.25 24.03125 29.890625 
Q 34.671875 31.15625 39.703125 32.90625 
Q 39.75 34.71875 39.75 35.203125 
Q 39.75 40.578125 37.25 42.78125 
Q 33.890625 45.75 27.25 45.75 
Q 21.046875 45.75 18.09375 43.578125 
Q 15.140625 41.40625 13.71875 35.890625 
L 5.125 37.0625 
Q 6.296875 42.578125 8.984375 45.96875 
Q 11.671875 49.359375 16.75 51.1875 
Q 21.828125 53.03125 28.515625 53.03125 
Q 35.15625 53.03125 39.296875 51.46875 
Q 43.453125 49.90625 45.40625 47.53125 
Q 47.359375 45.171875 48.140625 41.546875 
Q 48.578125 39.3125 48.578125 33.453125 
L 48.578125 21.734375 
Q 48.578125 9.46875 49.140625 6.21875 
Q 49.703125 2.984375 51.375 0 
L 42.1875 0 
Q 40.828125 2.734375 40.4375 6.390625 
z
M 39.703125 26.03125 
Q 34.90625 24.078125 25.34375 22.703125 
Q 19.921875 21.921875 17.671875 20.9375 
Q 15.4375 19.96875 14.203125 18.09375 
Q 12.984375 16.21875 12.984375 13.921875 
Q 12.984375 10.40625 15.640625 8.0625 
Q 18.3125 5.71875 23.4375 5.71875 
Q 28.515625 5.71875 32.46875 7.9375 
Q 36.421875 10.15625 38.28125 14.015625 
Q 39.703125 17 39.703125 22.796875 
z
" id="ArialMT-97"/>
        <path d="M 6.390625 0 
L 6.390625 71.578125 
L 15.1875 71.578125 
L 15.1875 0 
z
" id="ArialMT-108"/>
        <path d="M 25.78125 7.859375 
L 27.046875 0.09375 
Q 23.34375 -0.6875 20.40625 -0.6875 
Q 15.625 -0.6875 12.984375 0.828125 
Q 10.359375 2.34375 9.28125 4.8125 
Q 8.203125 7.28125 8.203125 15.1875 
L 8.203125 45.015625 
L 1.765625 45.015625 
L 1.765625 51.859375 
L 8.203125 51.859375 
L 8.203125 64.703125 
L 16.9375 69.96875 
L 16.9375 51.859375 
L 25.78125 51.859375 
L 25.78125 45.015625 
L 16.9375 45.015625 
L 16.9375 14.703125 
Q 16.9375 10.9375 17.40625 9.859375 
Q 17.875 8.796875 18.921875 8.15625 
Q 19.96875 7.515625 21.921875 7.515625 
Q 23.390625 7.515625 25.78125 7.859375 
z
" id="ArialMT-116"/>
        <path d="M 6.59375 0 
L 6.59375 71.578125 
L 15.375 71.578125 
L 15.375 45.90625 
Q 21.53125 53.03125 30.90625 53.03125 
Q 36.671875 53.03125 40.921875 50.75 
Q 45.171875 48.484375 47 44.484375 
Q 48.828125 40.484375 48.828125 32.859375 
L 48.828125 0 
L 40.046875 0 
L 40.046875 32.859375 
Q 40.046875 39.453125 37.1875 42.453125 
Q 34.328125 45.453125 29.109375 45.453125 
Q 25.203125 45.453125 21.75 43.421875 
Q 18.3125 41.40625 16.84375 37.9375 
Q 15.375 34.46875 15.375 28.375 
L 15.375 0 
z
" id="ArialMT-104"/>
        <path d="M 6.203125 -19.96875 
L 5.21875 -11.71875 
Q 8.109375 -12.5 10.25 -12.5 
Q 13.1875 -12.5 14.9375 -11.515625 
Q 16.703125 -10.546875 17.828125 -8.796875 
Q 18.65625 -7.46875 20.515625 -2.25 
Q 20.75 -1.515625 21.296875 -0.09375 
L 1.609375 51.859375 
L 11.078125 51.859375 
L 21.875 21.828125 
Q 23.96875 16.109375 25.640625 9.8125 
Q 27.15625 15.875 29.25 21.625 
L 40.328125 51.859375 
L 49.125 51.859375 
L 29.390625 -0.875 
Q 26.21875 -9.421875 24.46875 -12.640625 
Q 22.125 -17 19.09375 -19.015625 
Q 16.0625 -21.046875 11.859375 -21.046875 
Q 9.328125 -21.046875 6.203125 -19.96875 
z
" id="ArialMT-121"/>
       </defs>
       <use xlink:href="#ArialMT-72"/>
       <use x="72.216797" xlink:href="#ArialMT-101"/>
       <use x="127.832031" xlink:href="#ArialMT-97"/>
       <use x="183.447266" xlink:href="#ArialMT-108"/>
       <use x="205.664062" xlink:href="#ArialMT-116"/>
       <use x="233.447266" xlink:href="#ArialMT-104"/>
       <use x="289.0625" xlink:href="#ArialMT-121"/>
      </g>
     </g>
    </g>
    <g id="xtick_2">
     <g id="text_2">
      <!-- Slight -->
      <g style="fill:#262626;" transform="translate(578.390396 1231.838438)scale(0.5 -0.5)">
       <defs>
        <path d="M 4.5 23 
L 13.421875 23.78125 
Q 14.0625 18.40625 16.375 14.96875 
Q 18.703125 11.53125 23.578125 9.40625 
Q 28.46875 7.28125 34.578125 7.28125 
Q 39.984375 7.28125 44.140625 8.890625 
Q 48.296875 10.5 50.3125 13.296875 
Q 52.34375 16.109375 52.34375 19.4375 
Q 52.34375 22.796875 50.390625 25.3125 
Q 48.4375 27.828125 43.953125 29.546875 
Q 41.0625 30.671875 31.203125 33.03125 
Q 21.34375 35.40625 17.390625 37.5 
Q 12.25 40.1875 9.734375 44.15625 
Q 7.234375 48.140625 7.234375 53.078125 
Q 7.234375 58.5 10.296875 63.203125 
Q 13.375 67.921875 19.28125 70.359375 
Q 25.203125 72.796875 32.421875 72.796875 
Q 40.375 72.796875 46.453125 70.234375 
Q 52.546875 67.671875 55.8125 62.6875 
Q 59.078125 57.71875 59.328125 51.421875 
L 50.25 50.734375 
Q 49.515625 57.515625 45.28125 60.984375 
Q 41.0625 64.453125 32.8125 64.453125 
Q 24.21875 64.453125 20.28125 61.296875 
Q 16.359375 58.15625 16.359375 53.71875 
Q 16.359375 49.859375 19.140625 47.359375 
Q 21.875 44.875 33.421875 42.265625 
Q 44.96875 39.65625 49.265625 37.703125 
Q 55.515625 34.8125 58.484375 30.390625 
Q 61.46875 25.984375 61.46875 20.21875 
Q 61.46875 14.5 58.203125 9.4375 
Q 54.9375 4.390625 48.796875 1.578125 
Q 42.671875 -1.21875 35.015625 -1.21875 
Q 25.296875 -1.21875 18.71875 1.609375 
Q 12.15625 4.4375 8.421875 10.125 
Q 4.6875 15.828125 4.5 23 
z
" id="ArialMT-83"/>
        <path d="M 6.640625 61.46875 
L 6.640625 71.578125 
L 15.4375 71.578125 
L 15.4375 61.46875 
z
M 6.640625 0 
L 6.640625 51.859375 
L 15.4375 51.859375 
L 15.4375 0 
z
" id="ArialMT-105"/>
        <path d="M 4.984375 -4.296875 
L 13.53125 -5.5625 
Q 14.0625 -9.515625 16.5 -11.328125 
Q 19.78125 -13.765625 25.4375 -13.765625 
Q 31.546875 -13.765625 34.859375 -11.328125 
Q 38.1875 -8.890625 39.359375 -4.5 
Q 40.046875 -1.8125 39.984375 6.78125 
Q 34.234375 0 25.640625 0 
Q 14.9375 0 9.078125 7.71875 
Q 3.21875 15.4375 3.21875 26.21875 
Q 3.21875 33.640625 5.90625 39.90625 
Q 8.59375 46.1875 13.6875 49.609375 
Q 18.796875 53.03125 25.6875 53.03125 
Q 34.859375 53.03125 40.828125 45.609375 
L 40.828125 51.859375 
L 48.921875 51.859375 
L 48.921875 7.03125 
Q 48.921875 -5.078125 46.453125 -10.125 
Q 44 -15.1875 38.640625 -18.109375 
Q 33.296875 -21.046875 25.484375 -21.046875 
Q 16.21875 -21.046875 10.5 -16.875 
Q 4.78125 -12.703125 4.984375 -4.296875 
z
M 12.25 26.859375 
Q 12.25 16.65625 16.296875 11.96875 
Q 20.359375 7.28125 26.46875 7.28125 
Q 32.515625 7.28125 36.609375 11.9375 
Q 40.71875 16.609375 40.71875 26.5625 
Q 40.71875 36.078125 36.5 40.90625 
Q 32.28125 45.75 26.3125 45.75 
Q 20.453125 45.75 16.34375 40.984375 
Q 12.25 36.234375 12.25 26.859375 
z
" id="ArialMT-103"/>
       </defs>
       <use xlink:href="#ArialMT-83"/>
       <use x="66.699219" xlink:href="#ArialMT-108"/>
       <use x="88.916016" xlink:href="#ArialMT-105"/>
       <use x="111.132812" xlink:href="#ArialMT-103"/>
       <use x="166.748047" xlink:href="#ArialMT-104"/>
       <use x="222.363281" xlink:href="#ArialMT-116"/>
      </g>
     </g>
    </g>
    <g id="xtick_3">
     <g id="text_3">
      <!-- Moderate -->
      <g style="fill:#262626;" transform="translate(796.729416 1231.229063)scale(0.5 -0.5)">
       <defs>
        <path d="M 7.421875 0 
L 7.421875 71.578125 
L 21.6875 71.578125 
L 38.625 20.90625 
Q 40.96875 13.8125 42.046875 10.296875 
Q 43.265625 14.203125 45.84375 21.78125 
L 62.984375 71.578125 
L 75.734375 71.578125 
L 75.734375 0 
L 66.609375 0 
L 66.609375 59.90625 
L 45.796875 0 
L 37.25 0 
L 16.546875 60.9375 
L 16.546875 0 
z
" id="ArialMT-77"/>
        <path d="M 3.328125 25.921875 
Q 3.328125 40.328125 11.328125 47.265625 
Q 18.015625 53.03125 27.640625 53.03125 
Q 38.328125 53.03125 45.109375 46.015625 
Q 51.90625 39.015625 51.90625 26.65625 
Q 51.90625 16.65625 48.90625 10.90625 
Q 45.90625 5.171875 40.15625 2 
Q 34.421875 -1.171875 27.640625 -1.171875 
Q 16.75 -1.171875 10.03125 5.8125 
Q 3.328125 12.796875 3.328125 25.921875 
z
M 12.359375 25.921875 
Q 12.359375 15.96875 16.703125 11.015625 
Q 21.046875 6.0625 27.640625 6.0625 
Q 34.1875 6.0625 38.53125 11.03125 
Q 42.875 16.015625 42.875 26.21875 
Q 42.875 35.84375 38.5 40.796875 
Q 34.125 45.75 27.640625 45.75 
Q 21.046875 45.75 16.703125 40.8125 
Q 12.359375 35.890625 12.359375 25.921875 
z
" id="ArialMT-111"/>
        <path d="M 40.234375 0 
L 40.234375 6.546875 
Q 35.296875 -1.171875 25.734375 -1.171875 
Q 19.53125 -1.171875 14.328125 2.25 
Q 9.125 5.671875 6.265625 11.796875 
Q 3.421875 17.921875 3.421875 25.875 
Q 3.421875 33.640625 6 39.96875 
Q 8.59375 46.296875 13.765625 49.65625 
Q 18.953125 53.03125 25.34375 53.03125 
Q 30.03125 53.03125 33.6875 51.046875 
Q 37.359375 49.078125 39.65625 45.90625 
L 39.65625 71.578125 
L 48.390625 71.578125 
L 48.390625 0 
z
M 12.453125 25.875 
Q 12.453125 15.921875 16.640625 10.984375 
Q 20.84375 6.0625 26.5625 6.0625 
Q 32.328125 6.0625 36.34375 10.765625 
Q 40.375 15.484375 40.375 25.140625 
Q 40.375 35.796875 36.265625 40.765625 
Q 32.171875 45.75 26.171875 45.75 
Q 20.3125 45.75 16.375 40.96875 
Q 12.453125 36.1875 12.453125 25.875 
z
" id="ArialMT-100"/>
        <path d="M 6.5 0 
L 6.5 51.859375 
L 14.40625 51.859375 
L 14.40625 44 
Q 17.4375 49.515625 20 51.265625 
Q 22.5625 53.03125 25.640625 53.03125 
Q 30.078125 53.03125 34.671875 50.203125 
L 31.640625 42.046875 
Q 28.421875 43.953125 25.203125 43.953125 
Q 22.3125 43.953125 20.015625 42.21875 
Q 17.71875 40.484375 16.75 37.40625 
Q 15.28125 32.71875 15.28125 27.15625 
L 15.28125 0 
z
" id="ArialMT-114"/>
       </defs>
       <use xlink:href="#ArialMT-77"/>
       <use x="83.300781" xlink:href="#ArialMT-111"/>
       <use x="138.916016" xlink:href="#ArialMT-100"/>
       <use x="194.53125" xlink:href="#ArialMT-101"/>
       <use x="250.146484" xlink:href="#ArialMT-114"/>
       <use x="283.447266" xlink:href="#ArialMT-97"/>
       <use x="339.0625" xlink:href="#ArialMT-116"/>
       <use x="366.845703" xlink:href="#ArialMT-101"/>
      </g>
     </g>
    </g>
    <g id="xtick_4">
     <g id="text_4">
      <!-- Severe -->
      <g style="fill:#262626;" transform="translate(1084.537185 1231.229063)scale(0.5 -0.5)">
       <defs>
        <path d="M 21 0 
L 1.265625 51.859375 
L 10.546875 51.859375 
L 21.6875 20.796875 
Q 23.484375 15.765625 25 10.359375 
Q 26.171875 14.453125 28.265625 20.21875 
L 39.796875 51.859375 
L 48.828125 51.859375 
L 29.203125 0 
z
" id="ArialMT-118"/>
       </defs>
       <use xlink:href="#ArialMT-83"/>
       <use x="66.699219" xlink:href="#ArialMT-101"/>
       <use x="122.314453" xlink:href="#ArialMT-118"/>
       <use x="172.314453" xlink:href="#ArialMT-101"/>
       <use x="227.929688" xlink:href="#ArialMT-114"/>
       <use x="261.230469" xlink:href="#ArialMT-101"/>
      </g>
     </g>
    </g>
   </g>
   <g id="matplotlib.axis_2">
    <g id="ytick_1">
     <g id="line2d_1">
      <path clip-path="url(#p1697a88879)" d="M 230.13 1108.559095 
L 1216.224734 1108.559095 
" style="fill:none;stroke:#cccccc;stroke-linecap:round;stroke-width:2;"/>
     </g>
     <g id="text_5">
      <!-- 0 -->
      <g style="fill:#262626;" transform="translate(186.825312 1126.453627)scale(0.5 -0.5)">
       <defs>
        <path d="M 4.15625 35.296875 
Q 4.15625 48 6.765625 55.734375 
Q 9.375 63.484375 14.515625 67.671875 
Q 19.671875 71.875 27.484375 71.875 
Q 33.25 71.875 37.59375 69.546875 
Q 41.9375 67.234375 44.765625 62.859375 
Q 47.609375 58.5 49.21875 52.21875 
Q 50.828125 45.953125 50.828125 35.296875 
Q 50.828125 22.703125 48.234375 14.96875 
Q 45.65625 7.234375 40.5 3 
Q 35.359375 -1.21875 27.484375 -1.21875 
Q 17.140625 -1.21875 11.234375 6.203125 
Q 4.15625 15.140625 4.15625 35.296875 
z
M 13.1875 35.296875 
Q 13.1875 17.671875 17.3125 11.828125 
Q 21.4375 6 27.484375 6 
Q 33.546875 6 37.671875 11.859375 
Q 41.796875 17.71875 41.796875 35.296875 
Q 41.796875 52.984375 37.671875 58.78125 
Q 33.546875 64.59375 27.390625 64.59375 
Q 21.34375 64.59375 17.71875 59.46875 
Q 13.1875 52.9375 13.1875 35.296875 
z
" id="ArialMT-48"/>
       </defs>
       <use xlink:href="#ArialMT-48"/>
      </g>
     </g>
    </g>
    <g id="ytick_2">
     <g id="line2d_2">
      <path clip-path="url(#p1697a88879)" d="M 230.13 974.109559 
L 1216.224734 974.109559 
" style="fill:none;stroke:#cccccc;stroke-linecap:round;stroke-width:2;"/>
     </g>
     <g id="text_6">
      <!-- 1000 -->
      <g style="fill:#262626;" transform="translate(103.41125 992.00409)scale(0.5 -0.5)">
       <defs>
        <path d="M 37.25 0 
L 28.46875 0 
L 28.46875 56 
Q 25.296875 52.984375 20.140625 49.953125 
Q 14.984375 46.921875 10.890625 45.40625 
L 10.890625 53.90625 
Q 18.265625 57.375 23.78125 62.296875 
Q 29.296875 67.234375 31.59375 71.875 
L 37.25 71.875 
z
" id="ArialMT-49"/>
       </defs>
       <use xlink:href="#ArialMT-49"/>
       <use x="55.615234" xlink:href="#ArialMT-48"/>
       <use x="111.230469" xlink:href="#ArialMT-48"/>
       <use x="166.845703" xlink:href="#ArialMT-48"/>
      </g>
     </g>
    </g>
    <g id="ytick_3">
     <g id="line2d_3">
      <path clip-path="url(#p1697a88879)" d="M 230.13 839.660022 
L 1216.224734 839.660022 
" style="fill:none;stroke:#cccccc;stroke-linecap:round;stroke-width:2;"/>
     </g>
     <g id="text_7">
      <!-- 2000 -->
      <g style="fill:#262626;" transform="translate(103.41125 857.554554)scale(0.5 -0.5)">
       <defs>
        <path d="M 50.34375 8.453125 
L 50.34375 0 
L 3.03125 0 
Q 2.9375 3.171875 4.046875 6.109375 
Q 5.859375 10.9375 9.828125 15.625 
Q 13.8125 20.3125 21.34375 26.46875 
Q 33.015625 36.03125 37.109375 41.625 
Q 41.21875 47.21875 41.21875 52.203125 
Q 41.21875 57.421875 37.46875 61 
Q 33.734375 64.59375 27.734375 64.59375 
Q 21.390625 64.59375 17.578125 60.78125 
Q 13.765625 56.984375 13.71875 50.25 
L 4.6875 51.171875 
Q 5.609375 61.28125 11.65625 66.578125 
Q 17.71875 71.875 27.9375 71.875 
Q 38.234375 71.875 44.234375 66.15625 
Q 50.25 60.453125 50.25 52 
Q 50.25 47.703125 48.484375 43.546875 
Q 46.734375 39.40625 42.65625 34.8125 
Q 38.578125 30.21875 29.109375 22.21875 
Q 21.1875 15.578125 18.9375 13.203125 
Q 16.703125 10.84375 15.234375 8.453125 
z
" id="ArialMT-50"/>
       </defs>
       <use xlink:href="#ArialMT-50"/>
       <use x="55.615234" xlink:href="#ArialMT-48"/>
       <use x="111.230469" xlink:href="#ArialMT-48"/>
       <use x="166.845703" xlink:href="#ArialMT-48"/>
      </g>
     </g>
    </g>
    <g id="ytick_4">
     <g id="line2d_4">
      <path clip-path="url(#p1697a88879)" d="M 230.13 705.210486 
L 1216.224734 705.210486 
" style="fill:none;stroke:#cccccc;stroke-linecap:round;stroke-width:2;"/>
     </g>
     <g id="text_8">
      <!-- 3000 -->
      <g style="fill:#262626;" transform="translate(103.41125 723.105017)scale(0.5 -0.5)">
       <defs>
        <path d="M 4.203125 18.890625 
L 12.984375 20.0625 
Q 14.5 12.59375 18.140625 9.296875 
Q 21.78125 6 27 6 
Q 33.203125 6 37.46875 10.296875 
Q 41.75 14.59375 41.75 20.953125 
Q 41.75 27 37.796875 30.921875 
Q 33.84375 34.859375 27.734375 34.859375 
Q 25.25 34.859375 21.53125 33.890625 
L 22.515625 41.609375 
Q 23.390625 41.5 23.921875 41.5 
Q 29.546875 41.5 34.03125 44.421875 
Q 38.53125 47.359375 38.53125 53.46875 
Q 38.53125 58.296875 35.25 61.46875 
Q 31.984375 64.65625 26.8125 64.65625 
Q 21.6875 64.65625 18.265625 61.421875 
Q 14.84375 58.203125 13.875 51.765625 
L 5.078125 53.328125 
Q 6.6875 62.15625 12.390625 67.015625 
Q 18.109375 71.875 26.609375 71.875 
Q 32.46875 71.875 37.390625 69.359375 
Q 42.328125 66.84375 44.9375 62.5 
Q 47.5625 58.15625 47.5625 53.265625 
Q 47.5625 48.640625 45.0625 44.828125 
Q 42.578125 41.015625 37.703125 38.765625 
Q 44.046875 37.3125 47.5625 32.6875 
Q 51.078125 28.078125 51.078125 21.140625 
Q 51.078125 11.765625 44.234375 5.25 
Q 37.40625 -1.265625 26.953125 -1.265625 
Q 17.53125 -1.265625 11.296875 4.34375 
Q 5.078125 9.96875 4.203125 18.890625 
z
" id="ArialMT-51"/>
       </defs>
       <use xlink:href="#ArialMT-51"/>
       <use x="55.615234" xlink:href="#ArialMT-48"/>
       <use x="111.230469" xlink:href="#ArialMT-48"/>
       <use x="166.845703" xlink:href="#ArialMT-48"/>
      </g>
     </g>
    </g>
    <g id="ytick_5">
     <g id="line2d_5">
      <path clip-path="url(#p1697a88879)" d="M 230.13 570.760949 
L 1216.224734 570.760949 
" style="fill:none;stroke:#cccccc;stroke-linecap:round;stroke-width:2;"/>
     </g>
     <g id="text_9">
      <!-- 4000 -->
      <g style="fill:#262626;" transform="translate(103.41125 588.65548)scale(0.5 -0.5)">
       <defs>
        <path d="M 32.328125 0 
L 32.328125 17.140625 
L 1.265625 17.140625 
L 1.265625 25.203125 
L 33.9375 71.578125 
L 41.109375 71.578125 
L 41.109375 25.203125 
L 50.78125 25.203125 
L 50.78125 17.140625 
L 41.109375 17.140625 
L 41.109375 0 
z
M 32.328125 25.203125 
L 32.328125 57.46875 
L 9.90625 25.203125 
z
" id="ArialMT-52"/>
       </defs>
       <use xlink:href="#ArialMT-52"/>
       <use x="55.615234" xlink:href="#ArialMT-48"/>
       <use x="111.230469" xlink:href="#ArialMT-48"/>
       <use x="166.845703" xlink:href="#ArialMT-48"/>
      </g>
     </g>
    </g>
    <g id="ytick_6">
     <g id="line2d_6">
      <path clip-path="url(#p1697a88879)" d="M 230.13 436.311413 
L 1216.224734 436.311413 
" style="fill:none;stroke:#cccccc;stroke-linecap:round;stroke-width:2;"/>
     </g>
     <g id="text_10">
      <!-- 5000 -->
      <g style="fill:#262626;" transform="translate(103.41125 454.205944)scale(0.5 -0.5)">
       <defs>
        <path d="M 4.15625 18.75 
L 13.375 19.53125 
Q 14.40625 12.796875 18.140625 9.390625 
Q 21.875 6 27.15625 6 
Q 33.5 6 37.890625 10.78125 
Q 42.28125 15.578125 42.28125 23.484375 
Q 42.28125 31 38.0625 35.34375 
Q 33.84375 39.703125 27 39.703125 
Q 22.75 39.703125 19.328125 37.765625 
Q 15.921875 35.84375 13.96875 32.765625 
L 5.71875 33.84375 
L 12.640625 70.609375 
L 48.25 70.609375 
L 48.25 62.203125 
L 19.671875 62.203125 
L 15.828125 42.96875 
Q 22.265625 47.46875 29.34375 47.46875 
Q 38.71875 47.46875 45.15625 40.96875 
Q 51.609375 34.46875 51.609375 24.265625 
Q 51.609375 14.546875 45.953125 7.46875 
Q 39.0625 -1.21875 27.15625 -1.21875 
Q 17.390625 -1.21875 11.203125 4.25 
Q 5.03125 9.71875 4.15625 18.75 
z
" id="ArialMT-53"/>
       </defs>
       <use xlink:href="#ArialMT-53"/>
       <use x="55.615234" xlink:href="#ArialMT-48"/>
       <use x="111.230469" xlink:href="#ArialMT-48"/>
       <use x="166.845703" xlink:href="#ArialMT-48"/>
      </g>
     </g>
    </g>
    <g id="ytick_7">
     <g id="line2d_7">
      <path clip-path="url(#p1697a88879)" d="M 230.13 301.861876 
L 1216.224734 301.861876 
" style="fill:none;stroke:#cccccc;stroke-linecap:round;stroke-width:2;"/>
     </g>
     <g id="text_11">
      <!-- 6000 -->
      <g style="fill:#262626;" transform="translate(103.41125 319.756407)scale(0.5 -0.5)">
       <defs>
        <path d="M 49.75 54.046875 
L 41.015625 53.375 
Q 39.84375 58.546875 37.703125 60.890625 
Q 34.125 64.65625 28.90625 64.65625 
Q 24.703125 64.65625 21.53125 62.3125 
Q 17.390625 59.28125 14.984375 53.46875 
Q 12.59375 47.65625 12.5 36.921875 
Q 15.671875 41.75 20.265625 44.09375 
Q 24.859375 46.4375 29.890625 46.4375 
Q 38.671875 46.4375 44.84375 39.96875 
Q 51.03125 33.5 51.03125 23.25 
Q 51.03125 16.5 48.125 10.71875 
Q 45.21875 4.9375 40.140625 1.859375 
Q 35.0625 -1.21875 28.609375 -1.21875 
Q 17.625 -1.21875 10.6875 6.859375 
Q 3.765625 14.9375 3.765625 33.5 
Q 3.765625 54.25 11.421875 63.671875 
Q 18.109375 71.875 29.4375 71.875 
Q 37.890625 71.875 43.28125 67.140625 
Q 48.6875 62.40625 49.75 54.046875 
z
M 13.875 23.1875 
Q 13.875 18.65625 15.796875 14.5 
Q 17.71875 10.359375 21.1875 8.171875 
Q 24.65625 6 28.46875 6 
Q 34.03125 6 38.03125 10.484375 
Q 42.046875 14.984375 42.046875 22.703125 
Q 42.046875 30.125 38.078125 34.390625 
Q 34.125 38.671875 28.125 38.671875 
Q 22.171875 38.671875 18.015625 34.390625 
Q 13.875 30.125 13.875 23.1875 
z
" id="ArialMT-54"/>
       </defs>
       <use xlink:href="#ArialMT-54"/>
       <use x="55.615234" xlink:href="#ArialMT-48"/>
       <use x="111.230469" xlink:href="#ArialMT-48"/>
       <use x="166.845703" xlink:href="#ArialMT-48"/>
      </g>
     </g>
    </g>
    <g id="ytick_8">
     <g id="line2d_8">
      <path clip-path="url(#p1697a88879)" d="M 230.13 167.412339 
L 1216.224734 167.412339 
" style="fill:none;stroke:#cccccc;stroke-linecap:round;stroke-width:2;"/>
     </g>
     <g id="text_12">
      <!-- 7000 -->
      <g style="fill:#262626;" transform="translate(103.41125 185.306871)scale(0.5 -0.5)">
       <defs>
        <path d="M 4.734375 62.203125 
L 4.734375 70.65625 
L 51.078125 70.65625 
L 51.078125 63.8125 
Q 44.234375 56.546875 37.515625 44.484375 
Q 30.8125 32.421875 27.15625 19.671875 
Q 24.515625 10.6875 23.78125 0 
L 14.75 0 
Q 14.890625 8.453125 18.0625 20.40625 
Q 21.234375 32.375 27.171875 43.484375 
Q 33.109375 54.59375 39.796875 62.203125 
z
" id="ArialMT-55"/>
       </defs>
       <use xlink:href="#ArialMT-55"/>
       <use x="55.615234" xlink:href="#ArialMT-48"/>
       <use x="111.230469" xlink:href="#ArialMT-48"/>
       <use x="166.845703" xlink:href="#ArialMT-48"/>
      </g>
     </g>
    </g>
    <g id="text_13">
     <!-- Abundance -->
     <g style="fill:#262626;" transform="translate(89.47375 764.522187)rotate(-90)scale(0.5 -0.5)">
      <defs>
       <path d="M -0.140625 0 
L 27.34375 71.578125 
L 37.546875 71.578125 
L 66.84375 0 
L 56.0625 0 
L 47.703125 21.6875 
L 17.78125 21.6875 
L 9.90625 0 
z
M 20.515625 29.390625 
L 44.78125 29.390625 
L 37.3125 49.21875 
Q 33.890625 58.25 32.234375 64.0625 
Q 30.859375 57.171875 28.375 50.390625 
z
" id="ArialMT-65"/>
       <path d="M 14.703125 0 
L 6.546875 0 
L 6.546875 71.578125 
L 15.328125 71.578125 
L 15.328125 46.046875 
Q 20.90625 53.03125 29.546875 53.03125 
Q 34.328125 53.03125 38.59375 51.09375 
Q 42.875 49.171875 45.625 45.671875 
Q 48.390625 42.1875 49.953125 37.25 
Q 51.515625 32.328125 51.515625 26.703125 
Q 51.515625 13.375 44.921875 6.09375 
Q 38.328125 -1.171875 29.109375 -1.171875 
Q 19.921875 -1.171875 14.703125 6.5 
z
M 14.59375 26.3125 
Q 14.59375 17 17.140625 12.84375 
Q 21.296875 6.0625 28.375 6.0625 
Q 34.125 6.0625 38.328125 11.0625 
Q 42.53125 16.0625 42.53125 25.984375 
Q 42.53125 36.140625 38.5 40.96875 
Q 34.46875 45.796875 28.765625 45.796875 
Q 23 45.796875 18.796875 40.796875 
Q 14.59375 35.796875 14.59375 26.3125 
z
" id="ArialMT-98"/>
       <path d="M 40.578125 0 
L 40.578125 7.625 
Q 34.515625 -1.171875 24.125 -1.171875 
Q 19.53125 -1.171875 15.546875 0.578125 
Q 11.578125 2.34375 9.640625 5 
Q 7.71875 7.671875 6.9375 11.53125 
Q 6.390625 14.109375 6.390625 19.734375 
L 6.390625 51.859375 
L 15.1875 51.859375 
L 15.1875 23.09375 
Q 15.1875 16.21875 15.71875 13.8125 
Q 16.546875 10.359375 19.234375 8.375 
Q 21.921875 6.390625 25.875 6.390625 
Q 29.828125 6.390625 33.296875 8.421875 
Q 36.765625 10.453125 38.203125 13.9375 
Q 39.65625 17.4375 39.65625 24.078125 
L 39.65625 51.859375 
L 48.4375 51.859375 
L 48.4375 0 
z
" id="ArialMT-117"/>
       <path d="M 6.59375 0 
L 6.59375 51.859375 
L 14.5 51.859375 
L 14.5 44.484375 
Q 20.21875 53.03125 31 53.03125 
Q 35.6875 53.03125 39.625 51.34375 
Q 43.5625 49.65625 45.515625 46.921875 
Q 47.46875 44.1875 48.25 40.4375 
Q 48.734375 37.984375 48.734375 31.890625 
L 48.734375 0 
L 39.9375 0 
L 39.9375 31.546875 
Q 39.9375 36.921875 38.90625 39.578125 
Q 37.890625 42.234375 35.28125 43.8125 
Q 32.671875 45.40625 29.15625 45.40625 
Q 23.53125 45.40625 19.453125 41.84375 
Q 15.375 38.28125 15.375 28.328125 
L 15.375 0 
z
" id="ArialMT-110"/>
       <path d="M 40.4375 19 
L 49.078125 17.875 
Q 47.65625 8.9375 41.8125 3.875 
Q 35.984375 -1.171875 27.484375 -1.171875 
Q 16.84375 -1.171875 10.375 5.78125 
Q 3.90625 12.75 3.90625 25.734375 
Q 3.90625 34.125 6.6875 40.421875 
Q 9.46875 46.734375 15.15625 49.875 
Q 20.84375 53.03125 27.546875 53.03125 
Q 35.984375 53.03125 41.359375 48.75 
Q 46.734375 44.484375 48.25 36.625 
L 39.703125 35.296875 
Q 38.484375 40.53125 35.375 43.15625 
Q 32.28125 45.796875 27.875 45.796875 
Q 21.234375 45.796875 17.078125 41.03125 
Q 12.9375 36.28125 12.9375 25.984375 
Q 12.9375 15.53125 16.9375 10.796875 
Q 20.953125 6.0625 27.390625 6.0625 
Q 32.5625 6.0625 36.03125 9.234375 
Q 39.5 12.40625 40.4375 19 
z
" id="ArialMT-99"/>
      </defs>
      <use xlink:href="#ArialMT-65"/>
      <use x="66.699219" xlink:href="#ArialMT-98"/>
      <use x="122.314453" xlink:href="#ArialMT-117"/>
      <use x="177.929688" xlink:href="#ArialMT-110"/>
      <use x="233.544922" xlink:href="#ArialMT-100"/>
      <use x="289.160156" xlink:href="#ArialMT-97"/>
      <use x="344.775391" xlink:href="#ArialMT-110"/>
      <use x="400.390625" xlink:href="#ArialMT-99"/>
      <use x="450.390625" xlink:href="#ArialMT-101"/>
     </g>
    </g>
   </g>
   <g id="PolyCollection_1">
    <defs>
     <path d="M 440.531429 -183.179926 
L 318.501012 -183.179926 
L 305.396499 -184.083569 
L 293.339596 -184.987211 
L 283.585366 -185.890853 
L 277.221265 -186.794495 
L 274.952488 -187.698137 
L 276.956351 -188.60178 
L 282.847628 -189.505422 
L 291.764625 -190.409064 
L 302.550159 -191.312706 
L 313.975847 -192.216348 
L 324.951062 -193.119991 
L 334.670166 -194.023633 
L 342.676137 -194.927275 
L 348.845014 -195.830917 
L 353.314384 -196.734559 
L 356.386356 -197.638202 
L 358.432177 -198.541844 
L 359.816267 -199.445486 
L 360.8471 -200.349128 
L 361.754173 -201.25277 
L 362.685683 -202.156412 
L 363.719698 -203.060055 
L 364.881825 -203.963697 
L 366.163588 -204.867339 
L 367.537602 -205.770981 
L 368.967757 -206.674623 
L 370.41464 -207.578266 
L 371.837847 -208.481908 
L 373.197259 -209.38555 
L 374.454824 -210.289192 
L 375.577326 -211.192834 
L 376.539527 -212.096477 
L 377.326584 -213.000119 
L 377.934794 -213.903761 
L 378.3704 -214.807403 
L 378.64696 -215.711045 
L 378.782266 -216.614688 
L 378.795832 -217.51833 
L 378.707584 -218.421972 
L 378.537834 -219.325614 
L 378.308072 -220.229256 
L 378.041838 -221.132899 
L 377.764936 -222.036541 
L 377.504539 -222.940183 
L 377.287139 -223.843825 
L 377.13572 -224.747467 
L 377.06681 -225.65111 
L 377.088164 -226.554752 
L 377.197678 -227.458394 
L 377.383879 -228.362036 
L 377.627909 -229.265678 
L 377.906613 -230.169321 
L 378.196082 -231.072963 
L 378.474927 -231.976605 
L 378.72669 -232.880247 
L 378.941062 -233.783889 
L 379.113864 -234.687531 
L 379.246056 -235.591174 
L 379.342185 -236.494816 
L 379.408709 -237.398458 
L 379.452555 -238.3021 
L 379.480093 -239.205742 
L 379.496582 -240.109385 
L 379.505997 -241.013027 
L 379.511125 -241.916669 
L 379.513789 -242.820311 
L 379.51511 -243.723953 
L 379.515735 -244.627596 
L 379.516017 -245.531238 
L 379.516137 -246.43488 
L 379.516183 -247.338522 
L 379.516191 -248.242164 
L 379.516167 -249.145807 
L 379.516092 -250.049449 
L 379.515909 -250.953091 
L 379.515496 -251.856733 
L 379.514609 -252.760375 
L 379.512792 -253.664018 
L 379.509247 -254.56766 
L 379.50266 -255.471302 
L 379.491014 -256.374944 
L 379.471425 -257.278586 
L 379.440114 -258.182229 
L 379.392605 -259.085871 
L 379.324268 -259.989513 
L 379.231263 -260.893155 
L 379.111799 -261.796797 
L 378.967494 -262.700439 
L 378.804442 -263.604082 
L 378.633544 -264.507724 
L 378.469754 -265.411366 
L 378.330132 -266.315008 
L 378.231005 -267.21865 
L 378.184839 -268.122293 
L 378.197671 -269.025935 
L 378.267809 -269.929577 
L 378.386199 -270.833219 
L 378.538347 -271.736861 
L 378.707224 -272.640504 
L 380.325217 -272.640504 
L 380.325217 -272.640504 
L 380.494095 -271.736861 
L 380.646242 -270.833219 
L 380.764632 -269.929577 
L 380.83477 -269.025935 
L 380.847602 -268.122293 
L 380.801437 -267.21865 
L 380.702309 -266.315008 
L 380.562688 -265.411366 
L 380.398897 -264.507724 
L 380.227999 -263.604082 
L 380.064947 -262.700439 
L 379.920642 -261.796797 
L 379.801178 -260.893155 
L 379.708173 -259.989513 
L 379.639836 -259.085871 
L 379.592327 -258.182229 
L 379.561017 -257.278586 
L 379.541428 -256.374944 
L 379.529781 -255.471302 
L 379.523195 -254.56766 
L 379.51965 -253.664018 
L 379.517833 -252.760375 
L 379.516945 -251.856733 
L 379.516532 -250.953091 
L 379.51635 -250.049449 
L 379.516275 -249.145807 
L 379.516251 -248.242164 
L 379.516258 -247.338522 
L 379.516304 -246.43488 
L 379.516424 -245.531238 
L 379.516706 -244.627596 
L 379.517331 -243.723953 
L 379.518652 -242.820311 
L 379.521316 -241.916669 
L 379.526444 -241.013027 
L 379.535859 -240.109385 
L 379.552348 -239.205742 
L 379.579886 -238.3021 
L 379.623732 -237.398458 
L 379.690256 -236.494816 
L 379.786385 -235.591174 
L 379.918577 -234.687531 
L 380.091379 -233.783889 
L 380.305752 -232.880247 
L 380.557515 -231.976605 
L 380.836359 -231.072963 
L 381.125828 -230.169321 
L 381.404532 -229.265678 
L 381.648562 -228.362036 
L 381.834763 -227.458394 
L 381.944278 -226.554752 
L 381.965631 -225.65111 
L 381.896722 -224.747467 
L 381.745302 -223.843825 
L 381.527902 -222.940183 
L 381.267505 -222.036541 
L 380.990603 -221.132899 
L 380.724369 -220.229256 
L 380.494608 -219.325614 
L 380.324857 -218.421972 
L 380.236609 -217.51833 
L 380.250175 -216.614688 
L 380.385481 -215.711045 
L 380.662041 -214.807403 
L 381.097647 -213.903761 
L 381.705857 -213.000119 
L 382.492915 -212.096477 
L 383.455116 -211.192834 
L 384.577617 -210.289192 
L 385.835182 -209.38555 
L 387.194594 -208.481908 
L 388.617801 -207.578266 
L 390.064684 -206.674623 
L 391.494839 -205.770981 
L 392.868854 -204.867339 
L 394.150617 -203.963697 
L 395.312744 -203.060055 
L 396.346759 -202.156412 
L 397.278269 -201.25277 
L 398.185342 -200.349128 
L 399.216174 -199.445486 
L 400.600265 -198.541844 
L 402.646085 -197.638202 
L 405.718057 -196.734559 
L 410.187427 -195.830917 
L 416.356305 -194.927275 
L 424.362276 -194.023633 
L 434.081379 -193.119991 
L 445.056594 -192.216348 
L 456.482282 -191.312706 
L 467.267816 -190.409064 
L 476.184814 -189.505422 
L 482.07609 -188.60178 
L 484.079953 -187.698137 
L 481.811177 -186.794495 
L 475.447076 -185.890853 
L 465.692845 -184.987211 
L 453.635942 -184.083569 
L 440.531429 -183.179926 
z
" id="m0078d614a2" style="stroke:#3d3d3d;stroke-width:5;"/>
    </defs>
    <g clip-path="url(#p1697a88879)">
     <use style="fill:#3a923a;stroke:#3d3d3d;stroke-width:5;" x="0" xlink:href="#m0078d614a2" y="1296"/>
    </g>
   </g>
   <g id="PolyCollection_2">
    <defs>
     <path d="M 648.057503 -155.48112 
L 633.793602 -155.48112 
L 632.411061 -160.861026 
L 631.023007 -166.240931 
L 629.702919 -171.620837 
L 628.527776 -177.000742 
L 627.570119 -182.380648 
L 626.890025 -187.760554 
L 626.528267 -193.140459 
L 626.501776 -198.520365 
L 626.802132 -203.90027 
L 627.397244 -209.280176 
L 628.235854 -214.660082 
L 629.253985 -220.039987 
L 630.382282 -225.419893 
L 631.553091 -230.799798 
L 632.706399 -236.179704 
L 633.794021 -241.559609 
L 634.781824 -246.939515 
L 635.65008 -252.319421 
L 636.392285 -257.699326 
L 637.012879 -263.079232 
L 637.52435 -268.459137 
L 637.944142 -273.839043 
L 638.29172 -279.218949 
L 638.586056 -284.598854 
L 638.84372 -289.97876 
L 639.077656 -295.358665 
L 639.296665 -300.738571 
L 639.505516 -306.118477 
L 639.705562 -311.498382 
L 639.895672 -316.878288 
L 640.073289 -322.258193 
L 640.235432 -327.638099 
L 640.379505 -333.018005 
L 640.503833 -338.39791 
L 640.607899 -343.777816 
L 640.692342 -349.157721 
L 640.758749 -354.537627 
L 640.809364 -359.917532 
L 640.846756 -365.297438 
L 640.873537 -370.677344 
L 640.892135 -376.057249 
L 640.904661 -381.437155 
L 640.912844 -386.81706 
L 640.918032 -392.196966 
L 640.921223 -397.576872 
L 640.923128 -402.956777 
L 640.924232 -408.336683 
L 640.924853 -413.716588 
L 640.925192 -419.096494 
L 640.925372 -424.4764 
L 640.925464 -429.856305 
L 640.925511 -435.236211 
L 640.925533 -440.616116 
L 640.925544 -445.996022 
L 640.925549 -451.375928 
L 640.925551 -456.755833 
L 640.925552 -462.135739 
L 640.925552 -467.515644 
L 640.925553 -472.89555 
L 640.925553 -478.275456 
L 640.925552 -483.655361 
L 640.925552 -489.035267 
L 640.925552 -494.415172 
L 640.92555 -499.795078 
L 640.925548 -505.174983 
L 640.925542 -510.554889 
L 640.925529 -515.934795 
L 640.925504 -521.3147 
L 640.925455 -526.694606 
L 640.925362 -532.074511 
L 640.925192 -537.454417 
L 640.924889 -542.834323 
L 640.924364 -548.214228 
L 640.923483 -553.594134 
L 640.922051 -558.974039 
L 640.919794 -564.353945 
L 640.916346 -569.733851 
L 640.911244 -575.113756 
L 640.903938 -580.493662 
L 640.893811 -585.873567 
L 640.880244 -591.253473 
L 640.862684 -596.633379 
L 640.840755 -602.013284 
L 640.814373 -607.39319 
L 640.783857 -612.773095 
L 640.750009 -618.153001 
L 640.714151 -623.532906 
L 640.678082 -628.912812 
L 640.643952 -634.292718 
L 640.614068 -639.672623 
L 640.590639 -645.052529 
L 640.575508 -650.432434 
L 640.569915 -655.81234 
L 640.574327 -661.192246 
L 640.588376 -666.572151 
L 640.610906 -671.952057 
L 640.640134 -677.331962 
L 640.67388 -682.711868 
L 640.709837 -688.091774 
L 641.141269 -688.091774 
L 641.141269 -688.091774 
L 641.177225 -682.711868 
L 641.210971 -677.331962 
L 641.240199 -671.952057 
L 641.262729 -666.572151 
L 641.276778 -661.192246 
L 641.28119 -655.81234 
L 641.275597 -650.432434 
L 641.260466 -645.052529 
L 641.237037 -639.672623 
L 641.207153 -634.292718 
L 641.173023 -628.912812 
L 641.136954 -623.532906 
L 641.101097 -618.153001 
L 641.067249 -612.773095 
L 641.036732 -607.39319 
L 641.01035 -602.013284 
L 640.988422 -596.633379 
L 640.970862 -591.253473 
L 640.957294 -585.873567 
L 640.947168 -580.493662 
L 640.939861 -575.113756 
L 640.934759 -569.733851 
L 640.931311 -564.353945 
L 640.929054 -558.974039 
L 640.927622 -553.594134 
L 640.926742 -548.214228 
L 640.926217 -542.834323 
L 640.925913 -537.454417 
L 640.925743 -532.074511 
L 640.92565 -526.694606 
L 640.925601 -521.3147 
L 640.925576 -515.934795 
L 640.925564 -510.554889 
L 640.925558 -505.174983 
L 640.925555 -499.795078 
L 640.925554 -494.415172 
L 640.925553 -489.035267 
L 640.925553 -483.655361 
L 640.925553 -478.275456 
L 640.925553 -472.89555 
L 640.925553 -467.515644 
L 640.925553 -462.135739 
L 640.925554 -456.755833 
L 640.925556 -451.375928 
L 640.925561 -445.996022 
L 640.925572 -440.616116 
L 640.925594 -435.236211 
L 640.925641 -429.856305 
L 640.925734 -424.4764 
L 640.925913 -419.096494 
L 640.926253 -413.716588 
L 640.926874 -408.336683 
L 640.927978 -402.956777 
L 640.929883 -397.576872 
L 640.933074 -392.196966 
L 640.938261 -386.81706 
L 640.946445 -381.437155 
L 640.958971 -376.057249 
L 640.977569 -370.677344 
L 641.004349 -365.297438 
L 641.041741 -359.917532 
L 641.092356 -354.537627 
L 641.158763 -349.157721 
L 641.243206 -343.777816 
L 641.347273 -338.39791 
L 641.4716 -333.018005 
L 641.615673 -327.638099 
L 641.777816 -322.258193 
L 641.955433 -316.878288 
L 642.145543 -311.498382 
L 642.345589 -306.118477 
L 642.554441 -300.738571 
L 642.773449 -295.358665 
L 643.007385 -289.97876 
L 643.265049 -284.598854 
L 643.559386 -279.218949 
L 643.906963 -273.839043 
L 644.326755 -268.459137 
L 644.838226 -263.079232 
L 645.45882 -257.699326 
L 646.201025 -252.319421 
L 647.069282 -246.939515 
L 648.057085 -241.559609 
L 649.144707 -236.179704 
L 650.298014 -230.799798 
L 651.468823 -225.419893 
L 652.59712 -220.039987 
L 653.615252 -214.660082 
L 654.453861 -209.280176 
L 655.048974 -203.90027 
L 655.349329 -198.520365 
L 655.322838 -193.140459 
L 654.96108 -187.760554 
L 654.280987 -182.380648 
L 653.32333 -177.000742 
L 652.148186 -171.620837 
L 650.828098 -166.240931 
L 649.440044 -160.861026 
L 648.057503 -155.48112 
z
" id="m51c9a3235d" style="stroke:#3d3d3d;stroke-width:5;"/>
    </defs>
    <g clip-path="url(#p1697a88879)">
     <use style="fill:#2eabb8;stroke:#3d3d3d;stroke-width:5;" x="0" xlink:href="#m51c9a3235d" y="1296"/>
    </g>
   </g>
   <g id="PolyCollection_3">
    <defs>
     <path d="M 904.927757 -145.562871 
L 899.742012 -145.562871 
L 899.282408 -150.312003 
L 898.781538 -155.061134 
L 898.244469 -159.810266 
L 897.67822 -164.559398 
L 897.09169 -169.308529 
L 896.495469 -174.057661 
L 895.901532 -178.806793 
L 895.32282 -183.555924 
L 894.77274 -188.305056 
L 894.264601 -193.054188 
L 893.811022 -197.803319 
L 893.423361 -202.552451 
L 893.11119 -207.301583 
L 892.881862 -212.050714 
L 892.740196 -216.799846 
L 892.688296 -221.548978 
L 892.725524 -226.298109 
L 892.848611 -231.047241 
L 893.051901 -235.796373 
L 893.327701 -240.545504 
L 893.666715 -245.294636 
L 894.05852 -250.043768 
L 894.49205 -254.792899 
L 894.956074 -259.542031 
L 895.439618 -264.291163 
L 895.93233 -269.040294 
L 896.424769 -273.789426 
L 896.908618 -278.538558 
L 897.376811 -283.287689 
L 897.823593 -288.036821 
L 898.244523 -292.785953 
L 898.636416 -297.535084 
L 898.997253 -302.284216 
L 899.326064 -307.033348 
L 899.622795 -311.782479 
L 899.888154 -316.531611 
L 900.123475 -321.280743 
L 900.330564 -326.029874 
L 900.511565 -330.779006 
L 900.668827 -335.528138 
L 900.804794 -340.277269 
L 900.921896 -345.026401 
L 901.022473 -349.775533 
L 901.108703 -354.524664 
L 901.182561 -359.273796 
L 901.245794 -364.022928 
L 901.299912 -368.772059 
L 901.346202 -373.521191 
L 901.385749 -378.270323 
L 901.419473 -383.019454 
L 901.448168 -387.768586 
L 901.472537 -392.517718 
L 901.493234 -397.266849 
L 901.510883 -402.015981 
L 901.526098 -406.765113 
L 901.539483 -411.514244 
L 901.551625 -416.263376 
L 901.563074 -421.012508 
L 901.574317 -425.761639 
L 901.585746 -430.510771 
L 901.597633 -435.259903 
L 901.610103 -440.009034 
L 901.623124 -444.758166 
L 901.636507 -449.507298 
L 901.649913 -454.256429 
L 901.662886 -459.005561 
L 901.674889 -463.754693 
L 901.685347 -468.503824 
L 901.693705 -473.252956 
L 901.699476 -478.002088 
L 901.70229 -482.751219 
L 901.701936 -487.500351 
L 901.698385 -492.249483 
L 901.69181 -496.998614 
L 901.682584 -501.747746 
L 901.671266 -506.496878 
L 901.658572 -511.246009 
L 901.645342 -515.995141 
L 901.632492 -520.744273 
L 901.620967 -525.493404 
L 901.611693 -530.242536 
L 901.605528 -534.991668 
L 901.603222 -539.740799 
L 901.605382 -544.489931 
L 901.612445 -549.239063 
L 901.624662 -553.988194 
L 901.642091 -558.737326 
L 901.664599 -563.486458 
L 901.691874 -568.235589 
L 901.723444 -572.984721 
L 901.758703 -577.733853 
L 901.79694 -582.482984 
L 901.837375 -587.232116 
L 901.879193 -591.981248 
L 901.921579 -596.730379 
L 901.963748 -601.479511 
L 902.004979 -606.228643 
L 902.044631 -610.977774 
L 902.082166 -615.726906 
L 902.587603 -615.726906 
L 902.587603 -615.726906 
L 902.625138 -610.977774 
L 902.66479 -606.228643 
L 902.706021 -601.479511 
L 902.748191 -596.730379 
L 902.790576 -591.981248 
L 902.832395 -587.232116 
L 902.87283 -582.482984 
L 902.911067 -577.733853 
L 902.946325 -572.984721 
L 902.977895 -568.235589 
L 903.00517 -563.486458 
L 903.027678 -558.737326 
L 903.045107 -553.988194 
L 903.057324 -549.239063 
L 903.064387 -544.489931 
L 903.066547 -539.740799 
L 903.064241 -534.991668 
L 903.058077 -530.242536 
L 903.048802 -525.493404 
L 903.037278 -520.744273 
L 903.024427 -515.995141 
L 903.011197 -511.246009 
L 902.998503 -506.496878 
L 902.987185 -501.747746 
L 902.977959 -496.998614 
L 902.971385 -492.249483 
L 902.967834 -487.500351 
L 902.967479 -482.751219 
L 902.970293 -478.002088 
L 902.976064 -473.252956 
L 902.984422 -468.503824 
L 902.99488 -463.754693 
L 903.006883 -459.005561 
L 903.019856 -454.256429 
L 903.033263 -449.507298 
L 903.046645 -444.758166 
L 903.059666 -440.009034 
L 903.072136 -435.259903 
L 903.084023 -430.510771 
L 903.095452 -425.761639 
L 903.106695 -421.012508 
L 903.118145 -416.263376 
L 903.130287 -411.514244 
L 903.143671 -406.765113 
L 903.158886 -402.015981 
L 903.176535 -397.266849 
L 903.197232 -392.517718 
L 903.221602 -387.768586 
L 903.250296 -383.019454 
L 903.28402 -378.270323 
L 903.323567 -373.521191 
L 903.369857 -368.772059 
L 903.423975 -364.022928 
L 903.487208 -359.273796 
L 903.561067 -354.524664 
L 903.647297 -349.775533 
L 903.747873 -345.026401 
L 903.864975 -340.277269 
L 904.000942 -335.528138 
L 904.158204 -330.779006 
L 904.339205 -326.029874 
L 904.546294 -321.280743 
L 904.781615 -316.531611 
L 905.046975 -311.782479 
L 905.343705 -307.033348 
L 905.672517 -302.284216 
L 906.033354 -297.535084 
L 906.425246 -292.785953 
L 906.846176 -288.036821 
L 907.292959 -283.287689 
L 907.761151 -278.538558 
L 908.245 -273.789426 
L 908.73744 -269.040294 
L 909.230151 -264.291163 
L 909.713695 -259.542031 
L 910.177719 -254.792899 
L 910.61125 -250.043768 
L 911.003054 -245.294636 
L 911.342069 -240.545504 
L 911.617869 -235.796373 
L 911.821158 -231.047241 
L 911.944245 -226.298109 
L 911.981473 -221.548978 
L 911.929574 -216.799846 
L 911.787907 -212.050714 
L 911.558579 -207.301583 
L 911.246408 -202.552451 
L 910.858748 -197.803319 
L 910.405169 -193.054188 
L 909.897029 -188.305056 
L 909.346949 -183.555924 
L 908.768237 -178.806793 
L 908.1743 -174.057661 
L 907.578079 -169.308529 
L 906.991549 -164.559398 
L 906.4253 -159.810266 
L 905.888231 -155.061134 
L 905.387361 -150.312003 
L 904.927757 -145.562871 
z
" id="m945a268b12" style="stroke:#3d3d3d;stroke-width:5;"/>
    </defs>
    <g clip-path="url(#p1697a88879)">
     <use style="fill:#a9aa35;stroke:#3d3d3d;stroke-width:5;" x="0" xlink:href="#m945a268b12" y="1296"/>
    </g>
   </g>
   <g id="PolyCollection_4">
    <defs>
     <path d="M 1165.841445 -147.749662 
L 1161.646988 -147.749662 
L 1161.27147 -153.687749 
L 1160.863365 -159.625837 
L 1160.427335 -165.563924 
L 1159.969613 -171.502011 
L 1159.497893 -177.440098 
L 1159.02111 -183.378185 
L 1158.549145 -189.316273 
L 1158.092442 -195.25436 
L 1157.66158 -201.192447 
L 1157.266816 -207.130534 
L 1156.917632 -213.068621 
L 1156.622318 -219.006709 
L 1156.387612 -224.944796 
L 1156.218428 -230.882883 
L 1156.117675 -236.82097 
L 1156.086187 -242.759057 
L 1156.122751 -248.697144 
L 1156.224237 -254.635232 
L 1156.385807 -260.573319 
L 1156.601195 -266.511406 
L 1156.863031 -272.449493 
L 1157.163194 -278.38758 
L 1157.493174 -284.325668 
L 1157.844417 -290.263755 
L 1158.208651 -296.201842 
L 1158.578168 -302.139929 
L 1158.946056 -308.078016 
L 1159.306372 -314.016104 
L 1159.654254 -319.954191 
L 1159.985967 -325.892278 
L 1160.298895 -331.830365 
L 1160.591468 -337.768452 
L 1160.863047 -343.70654 
L 1161.11378 -349.644627 
L 1161.344423 -355.582714 
L 1161.556158 -361.520801 
L 1161.750418 -367.458888 
L 1161.928724 -373.396976 
L 1162.092546 -379.335063 
L 1162.243199 -385.27315 
L 1162.38178 -391.211237 
L 1162.509126 -397.149324 
L 1162.625824 -403.087411 
L 1162.732231 -409.025499 
L 1162.828525 -414.963586 
L 1162.914764 -420.901673 
L 1162.990946 -426.83976 
L 1163.057065 -432.777847 
L 1163.113166 -438.715935 
L 1163.159375 -444.654022 
L 1163.195923 -450.592109 
L 1163.223153 -456.530196 
L 1163.241519 -462.468283 
L 1163.251572 -468.406371 
L 1163.253952 -474.344458 
L 1163.249369 -480.282545 
L 1163.238599 -486.220632 
L 1163.222479 -492.158719 
L 1163.201902 -498.096807 
L 1163.177829 -504.034894 
L 1163.151286 -509.972981 
L 1163.123367 -515.911068 
L 1163.095227 -521.849155 
L 1163.068062 -527.787242 
L 1163.04308 -533.72533 
L 1163.021455 -539.663417 
L 1163.004278 -545.601504 
L 1162.992497 -551.539591 
L 1162.986856 -557.477678 
L 1162.987843 -563.415766 
L 1162.995648 -569.353853 
L 1163.010143 -575.29194 
L 1163.030881 -581.230027 
L 1163.057119 -587.168114 
L 1163.087865 -593.106202 
L 1163.121943 -599.044289 
L 1163.158078 -604.982376 
L 1163.194976 -610.920463 
L 1163.231415 -616.85855 
L 1163.266323 -622.796638 
L 1163.298839 -628.734725 
L 1163.328359 -634.672812 
L 1163.354553 -640.610899 
L 1163.377366 -646.548986 
L 1163.396993 -652.487074 
L 1163.413834 -658.425161 
L 1163.428441 -664.363248 
L 1163.441454 -670.301335 
L 1163.453537 -676.239422 
L 1163.46532 -682.177509 
L 1163.477347 -688.115597 
L 1163.49004 -694.053684 
L 1163.503676 -699.991771 
L 1163.518381 -705.929858 
L 1163.534134 -711.867945 
L 1163.550788 -717.806033 
L 1163.568093 -723.74412 
L 1163.585732 -729.682207 
L 1163.603355 -735.620294 
L 1163.885079 -735.620294 
L 1163.885079 -735.620294 
L 1163.902701 -729.682207 
L 1163.920341 -723.74412 
L 1163.937645 -717.806033 
L 1163.954299 -711.867945 
L 1163.970052 -705.929858 
L 1163.984757 -699.991771 
L 1163.998394 -694.053684 
L 1164.011087 -688.115597 
L 1164.023113 -682.177509 
L 1164.034896 -676.239422 
L 1164.046979 -670.301335 
L 1164.059992 -664.363248 
L 1164.074599 -658.425161 
L 1164.09144 -652.487074 
L 1164.111067 -646.548986 
L 1164.13388 -640.610899 
L 1164.160075 -634.672812 
L 1164.189594 -628.734725 
L 1164.22211 -622.796638 
L 1164.257018 -616.85855 
L 1164.293457 -610.920463 
L 1164.330355 -604.982376 
L 1164.36649 -599.044289 
L 1164.400569 -593.106202 
L 1164.431314 -587.168114 
L 1164.457552 -581.230027 
L 1164.47829 -575.29194 
L 1164.492785 -569.353853 
L 1164.50059 -563.415766 
L 1164.501577 -557.477678 
L 1164.495936 -551.539591 
L 1164.484155 -545.601504 
L 1164.466978 -539.663417 
L 1164.445353 -533.72533 
L 1164.420371 -527.787242 
L 1164.393206 -521.849155 
L 1164.365066 -515.911068 
L 1164.337147 -509.972981 
L 1164.310604 -504.034894 
L 1164.286531 -498.096807 
L 1164.265955 -492.158719 
L 1164.249834 -486.220632 
L 1164.239064 -480.282545 
L 1164.234482 -474.344458 
L 1164.236861 -468.406371 
L 1164.246914 -462.468283 
L 1164.26528 -456.530196 
L 1164.29251 -450.592109 
L 1164.329058 -444.654022 
L 1164.375267 -438.715935 
L 1164.431368 -432.777847 
L 1164.497487 -426.83976 
L 1164.573669 -420.901673 
L 1164.659908 -414.963586 
L 1164.756202 -409.025499 
L 1164.862609 -403.087411 
L 1164.979307 -397.149324 
L 1165.106653 -391.211237 
L 1165.245234 -385.27315 
L 1165.395887 -379.335063 
L 1165.559709 -373.396976 
L 1165.738015 -367.458888 
L 1165.932275 -361.520801 
L 1166.14401 -355.582714 
L 1166.374653 -349.644627 
L 1166.625386 -343.70654 
L 1166.896965 -337.768452 
L 1167.189538 -331.830365 
L 1167.502466 -325.892278 
L 1167.834179 -319.954191 
L 1168.182061 -314.016104 
L 1168.542377 -308.078016 
L 1168.910265 -302.139929 
L 1169.279783 -296.201842 
L 1169.644017 -290.263755 
L 1169.995259 -284.325668 
L 1170.325239 -278.38758 
L 1170.625402 -272.449493 
L 1170.887238 -266.511406 
L 1171.102626 -260.573319 
L 1171.264196 -254.635232 
L 1171.365682 -248.697144 
L 1171.402246 -242.759057 
L 1171.370758 -236.82097 
L 1171.270005 -230.882883 
L 1171.100821 -224.944796 
L 1170.866115 -219.006709 
L 1170.570801 -213.068621 
L 1170.221617 -207.130534 
L 1169.826853 -201.192447 
L 1169.395991 -195.25436 
L 1168.939288 -189.316273 
L 1168.467323 -183.378185 
L 1167.99054 -177.440098 
L 1167.51882 -171.502011 
L 1167.061099 -165.563924 
L 1166.625069 -159.625837 
L 1166.216964 -153.687749 
L 1165.841445 -147.749662 
z
" id="m59eb683862" style="stroke:#3d3d3d;stroke-width:5;"/>
    </defs>
    <g clip-path="url(#p1697a88879)">
     <use style="fill:#c03d3e;stroke:#3d3d3d;stroke-width:5;" x="0" xlink:href="#m59eb683862" y="1296"/>
    </g>
   </g>
   <g id="line2d_9">
    <path clip-path="url(#p1697a88879)" d="M 379.516221 1108.559095 
L 379.516221 1103.718912 
" style="fill:none;stroke:#3d3d3d;stroke-linecap:round;stroke-width:5;"/>
   </g>
   <g id="line2d_10">
    <path clip-path="url(#p1697a88879)" d="M 379.516221 1108.559095 
L 379.516221 1106.206229 
" style="fill:none;stroke:#3d3d3d;stroke-linecap:round;stroke-width:15;"/>
   </g>
   <g id="line2d_11">
    <path clip-path="url(#p1697a88879)" d="M 640.925553 1108.559095 
L 640.925553 1045.771162 
" style="fill:none;stroke:#3d3d3d;stroke-linecap:round;stroke-width:5;"/>
   </g>
   <g id="line2d_12">
    <path clip-path="url(#p1697a88879)" d="M 640.925553 1108.559095 
L 640.925553 1081.9717 
" style="fill:none;stroke:#3d3d3d;stroke-linecap:round;stroke-width:15;"/>
   </g>
   <g id="line2d_13">
    <path clip-path="url(#p1697a88879)" d="M 902.334885 1108.290196 
L 902.334885 945.337358 
" style="fill:none;stroke:#3d3d3d;stroke-linecap:round;stroke-width:5;"/>
   </g>
   <g id="line2d_14">
    <path clip-path="url(#p1697a88879)" d="M 902.334885 1089.433649 
L 902.334885 1026.679328 
" style="fill:none;stroke:#3d3d3d;stroke-linecap:round;stroke-width:15;"/>
   </g>
   <g id="line2d_15">
    <path clip-path="url(#p1697a88879)" d="M 1163.744217 1098.340931 
L 1163.744217 925.304377 
" style="fill:none;stroke:#3d3d3d;stroke-linecap:round;stroke-width:5;"/>
   </g>
   <g id="line2d_16">
    <path clip-path="url(#p1697a88879)" d="M 1163.744217 1073.266092 
L 1163.744217 1004.024581 
" style="fill:none;stroke:#3d3d3d;stroke-linecap:round;stroke-width:15;"/>
   </g>
   <g id="line2d_17">
    <path clip-path="url(#p1697a88879)" d="M 379.516221 600.924221 
L 379.516221 587.942958 
L 640.925553 587.942958 
L 640.925553 600.924221 
" style="fill:none;stroke:#333333;stroke-linecap:round;stroke-width:1.5;"/>
   </g>
   <g id="line2d_18">
    <path clip-path="url(#p1697a88879)" d="M 640.925553 525.336512 
L 640.925553 512.355249 
L 902.334885 512.355249 
L 902.334885 525.336512 
" style="fill:none;stroke:#333333;stroke-linecap:round;stroke-width:1.5;"/>
   </g>
   <g id="line2d_19">
    <path clip-path="url(#p1697a88879)" d="M 902.334885 447.294644 
L 902.334885 434.31338 
L 1163.744217 434.31338 
L 1163.744217 447.294644 
" style="fill:none;stroke:#333333;stroke-linecap:round;stroke-width:1.5;"/>
   </g>
   <g id="line2d_20">
    <path clip-path="url(#p1697a88879)" d="M 379.516221 365.264657 
L 379.516221 352.283393 
L 902.334885 352.283393 
L 902.334885 365.264657 
" style="fill:none;stroke:#333333;stroke-linecap:round;stroke-width:1.5;"/>
   </g>
   <g id="line2d_21">
    <path clip-path="url(#p1697a88879)" d="M 640.925553 279.042749 
L 640.925553 266.061486 
L 1163.744217 266.061486 
L 1163.744217 279.042749 
" style="fill:none;stroke:#333333;stroke-linecap:round;stroke-width:1.5;"/>
   </g>
   <g id="line2d_22">
    <path clip-path="url(#p1697a88879)" d="M 379.516221 188.414705 
L 379.516221 175.433441 
L 1163.744217 175.433441 
L 1163.744217 188.414705 
" style="fill:none;stroke:#333333;stroke-linecap:round;stroke-width:1.5;"/>
   </g>
   <g id="patch_3">
    <path d="M 230.13 1179.94 
L 230.13 96.12 
" style="fill:none;stroke:#cccccc;stroke-linecap:square;stroke-linejoin:miter;stroke-width:2.5;"/>
   </g>
   <g id="patch_4">
    <path d="M 1216.224734 1179.94 
L 1216.224734 96.12 
" style="fill:none;stroke:#cccccc;stroke-linecap:square;stroke-linejoin:miter;stroke-width:2.5;"/>
   </g>
   <g id="patch_5">
    <path d="M 230.13 1179.94 
L 1216.224734 1179.94 
" style="fill:none;stroke:#cccccc;stroke-linecap:square;stroke-linejoin:miter;stroke-width:2.5;"/>
   </g>
   <g id="patch_6">
    <path d="M 230.13 96.12 
L 1216.224734 96.12 
" style="fill:none;stroke:#cccccc;stroke-linecap:square;stroke-linejoin:miter;stroke-width:2.5;"/>
   </g>
   <g id="PathCollection_1">
    <defs>
     <path d="M 0 5 
C 1.326016 5 2.597899 4.473168 3.535534 3.535534 
C 4.473168 2.597899 5 1.326016 5 0 
C 5 -1.326016 4.473168 -2.597899 3.535534 -3.535534 
C 2.597899 -4.473168 1.326016 -5 0 -5 
C -1.326016 -5 -2.597899 -4.473168 -3.535534 -3.535534 
C -4.473168 -2.597899 -5 -1.326016 -5 0 
C -5 1.326016 -4.473168 2.597899 -3.535534 3.535534 
C -2.597899 4.473168 -1.326016 5 0 5 
z
" id="maaf4691886" style="stroke:#3d3d3d;stroke-width:2;"/>
    </defs>
    <g clip-path="url(#p1697a88879)">
     <use style="fill:#ffffff;stroke:#3d3d3d;stroke-width:2;" x="379.516221" xlink:href="#maaf4691886" y="1108.559095"/>
    </g>
   </g>
   <g id="PathCollection_2">
    <g clip-path="url(#p1697a88879)">
     <use style="fill:#ffffff;stroke:#3d3d3d;stroke-width:2;" x="640.925553" xlink:href="#maaf4691886" y="1102.97944"/>
    </g>
   </g>
   <g id="PathCollection_3">
    <g clip-path="url(#p1697a88879)">
     <use style="fill:#ffffff;stroke:#3d3d3d;stroke-width:2;" x="902.334885" xlink:href="#maaf4691886" y="1074.005565"/>
    </g>
   </g>
   <g id="PathCollection_4">
    <g clip-path="url(#p1697a88879)">
     <use style="fill:#ffffff;stroke:#3d3d3d;stroke-width:2;" x="1163.744217" xlink:href="#maaf4691886" y="1040.057057"/>
    </g>
   </g>
   <g id="text_14">
    <!-- **** -->
    <g transform="translate(471.299012 577.005458)scale(0.5 -0.5)">
     <defs>
      <path d="M 3.125 58.453125 
L 5.375 65.375 
Q 13.140625 62.640625 16.65625 60.640625 
Q 15.71875 69.484375 15.671875 72.796875 
L 22.75 72.796875 
Q 22.609375 67.96875 21.625 60.6875 
Q 26.65625 63.234375 33.15625 65.375 
L 35.40625 58.453125 
Q 29.203125 56.390625 23.25 55.71875 
Q 26.21875 53.125 31.640625 46.484375 
L 25.78125 42.328125 
Q 22.953125 46.1875 19.09375 52.828125 
Q 15.484375 45.953125 12.75 42.328125 
L 6.984375 46.484375 
Q 12.640625 53.46875 15.09375 55.71875 
Q 8.796875 56.9375 3.125 58.453125 
z
" id="ArialMT-42"/>
     </defs>
     <use xlink:href="#ArialMT-42"/>
     <use x="38.916016" xlink:href="#ArialMT-42"/>
     <use x="77.832031" xlink:href="#ArialMT-42"/>
     <use x="116.748047" xlink:href="#ArialMT-42"/>
    </g>
   </g>
   <g id="text_15">
    <!-- **** -->
    <g transform="translate(732.708344 501.417749)scale(0.5 -0.5)">
     <use xlink:href="#ArialMT-42"/>
     <use x="38.916016" xlink:href="#ArialMT-42"/>
     <use x="77.832031" xlink:href="#ArialMT-42"/>
     <use x="116.748047" xlink:href="#ArialMT-42"/>
    </g>
   </g>
   <g id="text_16">
    <!-- * -->
    <g transform="translate(1023.309082 423.37588)scale(0.5 -0.5)">
     <use xlink:href="#ArialMT-42"/>
    </g>
   </g>
   <g id="text_17">
    <!-- **** -->
    <g transform="translate(602.003678 341.345893)scale(0.5 -0.5)">
     <use xlink:href="#ArialMT-42"/>
     <use x="38.916016" xlink:href="#ArialMT-42"/>
     <use x="77.832031" xlink:href="#ArialMT-42"/>
     <use x="116.748047" xlink:href="#ArialMT-42"/>
    </g>
   </g>
   <g id="text_18">
    <!-- **** -->
    <g transform="translate(863.41301 255.123986)scale(0.5 -0.5)">
     <use xlink:href="#ArialMT-42"/>
     <use x="38.916016" xlink:href="#ArialMT-42"/>
     <use x="77.832031" xlink:href="#ArialMT-42"/>
     <use x="116.748047" xlink:href="#ArialMT-42"/>
    </g>
   </g>
   <g id="text_19">
    <!-- **** -->
    <g transform="translate(732.708344 164.495941)scale(0.5 -0.5)">
     <use xlink:href="#ArialMT-42"/>
     <use x="38.916016" xlink:href="#ArialMT-42"/>
     <use x="77.832031" xlink:href="#ArialMT-42"/>
     <use x="116.748047" xlink:href="#ArialMT-42"/>
    </g>
   </g>
   <g id="text_20">
    <!-- Porphyromonas gingivalis (K.W. p=9.49e-32) -->
    <g transform="translate(226.423461 90.12)scale(0.5 -0.5)">
     <defs>
      <path d="M 7.71875 0 
L 7.71875 71.578125 
L 34.71875 71.578125 
Q 41.84375 71.578125 45.609375 70.90625 
Q 50.875 70.015625 54.4375 67.546875 
Q 58.015625 65.09375 60.1875 60.640625 
Q 62.359375 56.203125 62.359375 50.875 
Q 62.359375 41.75 56.546875 35.421875 
Q 50.734375 29.109375 35.546875 29.109375 
L 17.1875 29.109375 
L 17.1875 0 
z
M 17.1875 37.546875 
L 35.6875 37.546875 
Q 44.875 37.546875 48.734375 40.96875 
Q 52.59375 44.390625 52.59375 50.59375 
Q 52.59375 55.078125 50.3125 58.265625 
Q 48.046875 61.46875 44.34375 62.5 
Q 41.9375 63.140625 35.5 63.140625 
L 17.1875 63.140625 
z
" id="ArialMT-80"/>
      <path d="M 6.59375 -19.875 
L 6.59375 51.859375 
L 14.59375 51.859375 
L 14.59375 45.125 
Q 17.4375 49.078125 21 51.046875 
Q 24.5625 53.03125 29.640625 53.03125 
Q 36.28125 53.03125 41.359375 49.609375 
Q 46.4375 46.1875 49.015625 39.953125 
Q 51.609375 33.734375 51.609375 26.3125 
Q 51.609375 18.359375 48.75 11.984375 
Q 45.90625 5.609375 40.453125 2.21875 
Q 35.015625 -1.171875 29 -1.171875 
Q 24.609375 -1.171875 21.109375 0.6875 
Q 17.625 2.546875 15.375 5.375 
L 15.375 -19.875 
z
M 14.546875 25.640625 
Q 14.546875 15.625 18.59375 10.84375 
Q 22.65625 6.0625 28.421875 6.0625 
Q 34.28125 6.0625 38.453125 11.015625 
Q 42.625 15.96875 42.625 26.375 
Q 42.625 36.28125 38.546875 41.203125 
Q 34.46875 46.140625 28.8125 46.140625 
Q 23.1875 46.140625 18.859375 40.890625 
Q 14.546875 35.640625 14.546875 25.640625 
z
" id="ArialMT-112"/>
      <path d="M 6.59375 0 
L 6.59375 51.859375 
L 14.453125 51.859375 
L 14.453125 44.578125 
Q 16.890625 48.390625 20.9375 50.703125 
Q 25 53.03125 30.171875 53.03125 
Q 35.9375 53.03125 39.625 50.640625 
Q 43.3125 48.25 44.828125 43.953125 
Q 50.984375 53.03125 60.84375 53.03125 
Q 68.5625 53.03125 72.703125 48.75 
Q 76.859375 44.484375 76.859375 35.59375 
L 76.859375 0 
L 68.109375 0 
L 68.109375 32.671875 
Q 68.109375 37.9375 67.25 40.25 
Q 66.40625 42.578125 64.15625 43.984375 
Q 61.921875 45.40625 58.890625 45.40625 
Q 53.421875 45.40625 49.796875 41.765625 
Q 46.1875 38.140625 46.1875 30.125 
L 46.1875 0 
L 37.40625 0 
L 37.40625 33.6875 
Q 37.40625 39.546875 35.25 42.46875 
Q 33.109375 45.40625 28.21875 45.40625 
Q 24.515625 45.40625 21.359375 43.453125 
Q 18.21875 41.5 16.796875 37.734375 
Q 15.375 33.984375 15.375 26.90625 
L 15.375 0 
z
" id="ArialMT-109"/>
      <path d="M 3.078125 15.484375 
L 11.765625 16.84375 
Q 12.5 11.625 15.84375 8.84375 
Q 19.1875 6.0625 25.203125 6.0625 
Q 31.25 6.0625 34.171875 8.515625 
Q 37.109375 10.984375 37.109375 14.3125 
Q 37.109375 17.28125 34.515625 19 
Q 32.71875 20.171875 25.53125 21.96875 
Q 15.875 24.421875 12.140625 26.203125 
Q 8.40625 27.984375 6.46875 31.125 
Q 4.546875 34.28125 4.546875 38.09375 
Q 4.546875 41.546875 6.125 44.5 
Q 7.71875 47.46875 10.453125 49.421875 
Q 12.5 50.921875 16.03125 51.96875 
Q 19.578125 53.03125 23.640625 53.03125 
Q 29.734375 53.03125 34.34375 51.265625 
Q 38.96875 49.515625 41.15625 46.5 
Q 43.359375 43.5 44.1875 38.484375 
L 35.59375 37.3125 
Q 35.015625 41.3125 32.203125 43.546875 
Q 29.390625 45.796875 24.265625 45.796875 
Q 18.21875 45.796875 15.625 43.796875 
Q 13.03125 41.796875 13.03125 39.109375 
Q 13.03125 37.40625 14.109375 36.03125 
Q 15.1875 34.625 17.484375 33.6875 
Q 18.796875 33.203125 25.25 31.453125 
Q 34.578125 28.953125 38.25 27.359375 
Q 41.9375 25.78125 44.03125 22.75 
Q 46.140625 19.734375 46.140625 15.234375 
Q 46.140625 10.84375 43.578125 6.953125 
Q 41.015625 3.078125 36.171875 0.953125 
Q 31.34375 -1.171875 25.25 -1.171875 
Q 15.140625 -1.171875 9.84375 3.03125 
Q 4.546875 7.234375 3.078125 15.484375 
z
" id="ArialMT-115"/>
      <path id="ArialMT-32"/>
      <path d="M 23.390625 -21.046875 
Q 16.109375 -11.859375 11.078125 0.4375 
Q 6.0625 12.75 6.0625 25.921875 
Q 6.0625 37.546875 9.8125 48.1875 
Q 14.203125 60.546875 23.390625 72.796875 
L 29.6875 72.796875 
Q 23.78125 62.640625 21.875 58.296875 
Q 18.890625 51.5625 17.1875 44.234375 
Q 15.09375 35.109375 15.09375 25.875 
Q 15.09375 2.390625 29.6875 -21.046875 
z
" id="ArialMT-40"/>
      <path d="M 7.328125 0 
L 7.328125 71.578125 
L 16.796875 71.578125 
L 16.796875 36.078125 
L 52.34375 71.578125 
L 65.1875 71.578125 
L 35.15625 42.578125 
L 66.5 0 
L 54 0 
L 28.515625 36.234375 
L 16.796875 24.8125 
L 16.796875 0 
z
" id="ArialMT-75"/>
      <path d="M 9.078125 0 
L 9.078125 10.015625 
L 19.09375 10.015625 
L 19.09375 0 
z
" id="ArialMT-46"/>
      <path d="M 20.21875 0 
L 1.21875 71.578125 
L 10.9375 71.578125 
L 21.828125 24.65625 
Q 23.578125 17.28125 24.859375 10.015625 
Q 27.59375 21.484375 28.078125 23.25 
L 41.703125 71.578125 
L 53.125 71.578125 
L 63.375 35.359375 
Q 67.234375 21.875 68.953125 10.015625 
Q 70.3125 16.796875 72.515625 25.59375 
L 83.734375 71.578125 
L 93.265625 71.578125 
L 73.640625 0 
L 64.5 0 
L 49.421875 54.546875 
Q 47.515625 61.375 47.171875 62.9375 
Q 46.046875 58.015625 45.0625 54.546875 
L 29.890625 0 
z
" id="ArialMT-87"/>
      <path d="M 52.828125 42.09375 
L 5.5625 42.09375 
L 5.5625 50.296875 
L 52.828125 50.296875 
z
M 52.828125 20.359375 
L 5.5625 20.359375 
L 5.5625 28.5625 
L 52.828125 28.5625 
z
" id="ArialMT-61"/>
      <path d="M 5.46875 16.546875 
L 13.921875 17.328125 
Q 14.984375 11.375 18.015625 8.6875 
Q 21.046875 6 25.78125 6 
Q 29.828125 6 32.875 7.859375 
Q 35.9375 9.71875 37.890625 12.8125 
Q 39.84375 15.921875 41.15625 21.1875 
Q 42.484375 26.46875 42.484375 31.9375 
Q 42.484375 32.515625 42.4375 33.6875 
Q 39.796875 29.5 35.234375 26.875 
Q 30.671875 24.265625 25.34375 24.265625 
Q 16.453125 24.265625 10.296875 30.703125 
Q 4.15625 37.15625 4.15625 47.703125 
Q 4.15625 58.59375 10.578125 65.234375 
Q 17 71.875 26.65625 71.875 
Q 33.640625 71.875 39.421875 68.109375 
Q 45.21875 64.359375 48.21875 57.390625 
Q 51.21875 50.4375 51.21875 37.25 
Q 51.21875 23.53125 48.234375 15.40625 
Q 45.265625 7.28125 39.375 3.03125 
Q 33.5 -1.21875 25.59375 -1.21875 
Q 17.1875 -1.21875 11.859375 3.4375 
Q 6.546875 8.109375 5.46875 16.546875 
z
M 41.453125 48.140625 
Q 41.453125 55.71875 37.421875 60.15625 
Q 33.40625 64.59375 27.734375 64.59375 
Q 21.875 64.59375 17.53125 59.8125 
Q 13.1875 55.03125 13.1875 47.40625 
Q 13.1875 40.578125 17.3125 36.296875 
Q 21.4375 32.03125 27.484375 32.03125 
Q 33.59375 32.03125 37.515625 36.296875 
Q 41.453125 40.578125 41.453125 48.140625 
z
" id="ArialMT-57"/>
      <path d="M 3.171875 21.484375 
L 3.171875 30.328125 
L 30.171875 30.328125 
L 30.171875 21.484375 
z
" id="ArialMT-45"/>
      <path d="M 12.359375 -21.046875 
L 6.0625 -21.046875 
Q 20.65625 2.390625 20.65625 25.875 
Q 20.65625 35.0625 18.5625 44.09375 
Q 16.890625 51.421875 13.921875 58.15625 
Q 12.015625 62.546875 6.0625 72.796875 
L 12.359375 72.796875 
Q 21.53125 60.546875 25.921875 48.1875 
Q 29.6875 37.546875 29.6875 25.921875 
Q 29.6875 12.75 24.625 0.4375 
Q 19.578125 -11.859375 12.359375 -21.046875 
z
" id="ArialMT-41"/>
     </defs>
     <use xlink:href="#ArialMT-80"/>
     <use x="66.699219" xlink:href="#ArialMT-111"/>
     <use x="122.314453" xlink:href="#ArialMT-114"/>
     <use x="155.615234" xlink:href="#ArialMT-112"/>
     <use x="211.230469" xlink:href="#ArialMT-104"/>
     <use x="266.845703" xlink:href="#ArialMT-121"/>
     <use x="316.845703" xlink:href="#ArialMT-114"/>
     <use x="350.146484" xlink:href="#ArialMT-111"/>
     <use x="405.761719" xlink:href="#ArialMT-109"/>
     <use x="489.0625" xlink:href="#ArialMT-111"/>
     <use x="544.677734" xlink:href="#ArialMT-110"/>
     <use x="600.292969" xlink:href="#ArialMT-97"/>
     <use x="655.908203" xlink:href="#ArialMT-115"/>
     <use x="705.908203" xlink:href="#ArialMT-32"/>
     <use x="733.691406" xlink:href="#ArialMT-103"/>
     <use x="789.306641" xlink:href="#ArialMT-105"/>
     <use x="811.523438" xlink:href="#ArialMT-110"/>
     <use x="867.138672" xlink:href="#ArialMT-103"/>
     <use x="922.753906" xlink:href="#ArialMT-105"/>
     <use x="944.970703" xlink:href="#ArialMT-118"/>
     <use x="994.970703" xlink:href="#ArialMT-97"/>
     <use x="1050.585938" xlink:href="#ArialMT-108"/>
     <use x="1072.802734" xlink:href="#ArialMT-105"/>
     <use x="1095.019531" xlink:href="#ArialMT-115"/>
     <use x="1145.019531" xlink:href="#ArialMT-32"/>
     <use x="1172.802734" xlink:href="#ArialMT-40"/>
     <use x="1206.103516" xlink:href="#ArialMT-75"/>
     <use x="1272.802734" xlink:href="#ArialMT-46"/>
     <use x="1300.585938" xlink:href="#ArialMT-87"/>
     <use x="1389.470703" xlink:href="#ArialMT-46"/>
     <use x="1417.253906" xlink:href="#ArialMT-32"/>
     <use x="1445.037109" xlink:href="#ArialMT-112"/>
     <use x="1500.652344" xlink:href="#ArialMT-61"/>
     <use x="1559.050781" xlink:href="#ArialMT-57"/>
     <use x="1614.666016" xlink:href="#ArialMT-46"/>
     <use x="1642.449219" xlink:href="#ArialMT-52"/>
     <use x="1698.064453" xlink:href="#ArialMT-57"/>
     <use x="1753.679688" xlink:href="#ArialMT-101"/>
     <use x="1809.294922" xlink:href="#ArialMT-45"/>
     <use x="1842.595703" xlink:href="#ArialMT-51"/>
     <use x="1898.210938" xlink:href="#ArialMT-50"/>
     <use x="1953.826172" xlink:href="#ArialMT-41"/>
    </g>
   </g>
  </g>
 </g>
 <defs>
  <clipPath id="p1697a88879">
   <rect height="1083.82" width="986.094734" x="230.13" y="96.12"/>
  </clipPath>
 </defs>
</svg>
