<?xml version="1.0" encoding="utf-8" standalone="no"?>
<!DOCTYPE svg PUBLIC "-//W3C//DTD SVG 1.1//EN"
  "http://www.w3.org/Graphics/SVG/1.1/DTD/svg11.dtd">
<!-- Created with matplotlib (https://matplotlib.org/) -->
<svg height="1296pt" version="1.1" viewBox="0 0 1296 1296" width="1296pt" xmlns="http://www.w3.org/2000/svg" xmlns:xlink="http://www.w3.org/1999/xlink">
 <metadata>
  <rdf:RDF xmlns:cc="http://creativecommons.org/ns#" xmlns:dc="http://purl.org/dc/elements/1.1/" xmlns:rdf="http://www.w3.org/1999/02/22-rdf-syntax-ns#">
   <cc:Work>
    <dc:type rdf:resource="http://purl.org/dc/dcmitype/StillImage"/>
    <dc:date>2022-06-29T13:55:26.759634</dc:date>
    <dc:format>image/svg+xml</dc:format>
    <dc:creator>
     <cc:Agent>
      <dc:title>Matplotlib v3.3.3, https://matplotlib.org/</dc:title>
     </cc:Agent>
    </dc:creator>
   </cc:Work>
  </rdf:RDF>
 </metadata>
 <defs>
  <style type="text/css">*{stroke-linecap:butt;stroke-linejoin:round;}</style>
 </defs>
 <g id="figure_1">
  <g id="patch_1">
   <path d="M 0 1296 
L 1296 1296 
L 1296 0 
L 0 0 
z
" style="fill:#ffffff;"/>
  </g>
  <g id="axes_1">
   <g id="patch_2">
    <path d="M 230.13 1179.94 
L 1242 1179.94 
L 1242 96.12 
L 230.13 96.12 
z
" style="fill:#ffffff;"/>
   </g>
   <g id="matplotlib.axis_1">
    <g id="xtick_1">
     <g id="text_1">
      <!-- Healthy -->
      <g style="fill:#262626;" transform="translate(222.391641 1231.229063)scale(0.5 -0.5)">
       <defs>
        <path d="M 8.015625 0 
L 8.015625 71.578125 
L 17.484375 71.578125 
L 17.484375 42.1875 
L 54.6875 42.1875 
L 54.6875 71.578125 
L 64.15625 71.578125 
L 64.15625 0 
L 54.6875 0 
L 54.6875 33.734375 
L 17.484375 33.734375 
L 17.484375 0 
z
" id="ArialMT-72"/>
        <path d="M 42.09375 16.703125 
L 51.171875 15.578125 
Q 49.03125 7.625 43.21875 3.21875 
Q 37.40625 -1.171875 28.375 -1.171875 
Q 17 -1.171875 10.328125 5.828125 
Q 3.65625 12.84375 3.65625 25.484375 
Q 3.65625 38.578125 10.390625 45.796875 
Q 17.140625 53.03125 27.875 53.03125 
Q 38.28125 53.03125 44.875 45.953125 
Q 51.46875 38.875 51.46875 26.03125 
Q 51.46875 25.25 51.421875 23.6875 
L 12.75 23.6875 
Q 13.234375 15.140625 17.578125 10.59375 
Q 21.921875 6.0625 28.421875 6.0625 
Q 33.25 6.0625 36.671875 8.59375 
Q 40.09375 11.140625 42.09375 16.703125 
z
M 13.234375 30.90625 
L 42.1875 30.90625 
Q 41.609375 37.453125 38.875 40.71875 
Q 34.671875 45.796875 27.984375 45.796875 
Q 21.921875 45.796875 17.796875 41.75 
Q 13.671875 37.703125 13.234375 30.90625 
z
" id="ArialMT-101"/>
        <path d="M 40.4375 6.390625 
Q 35.546875 2.25 31.03125 0.53125 
Q 26.515625 -1.171875 21.34375 -1.171875 
Q 12.796875 -1.171875 8.203125 3 
Q 3.609375 7.171875 3.609375 13.671875 
Q 3.609375 17.484375 5.34375 20.625 
Q 7.078125 23.78125 9.890625 25.6875 
Q 12.703125 27.59375 16.21875 28.5625 
Q 18.796875 29.25 24.03125 29.890625 
Q 34.671875 31.15625 39.703125 32.90625 
Q 39.75 34.71875 39.75 35.203125 
Q 39.75 40.578125 37.25 42.78125 
Q 33.890625 45.75 27.25 45.75 
Q 21.046875 45.75 18.09375 43.578125 
Q 15.140625 41.40625 13.71875 35.890625 
L 5.125 37.0625 
Q 6.296875 42.578125 8.984375 45.96875 
Q 11.671875 49.359375 16.75 51.1875 
Q 21.828125 53.03125 28.515625 53.03125 
Q 35.15625 53.03125 39.296875 51.46875 
Q 43.453125 49.90625 45.40625 47.53125 
Q 47.359375 45.171875 48.140625 41.546875 
Q 48.578125 39.3125 48.578125 33.453125 
L 48.578125 21.734375 
Q 48.578125 9.46875 49.140625 6.21875 
Q 49.703125 2.984375 51.375 0 
L 42.1875 0 
Q 40.828125 2.734375 40.4375 6.390625 
z
M 39.703125 26.03125 
Q 34.90625 24.078125 25.34375 22.703125 
Q 19.921875 21.921875 17.671875 20.9375 
Q 15.4375 19.96875 14.203125 18.09375 
Q 12.984375 16.21875 12.984375 13.921875 
Q 12.984375 10.40625 15.640625 8.0625 
Q 18.3125 5.71875 23.4375 5.71875 
Q 28.515625 5.71875 32.46875 7.9375 
Q 36.421875 10.15625 38.28125 14.015625 
Q 39.703125 17 39.703125 22.796875 
z
" id="ArialMT-97"/>
        <path d="M 6.390625 0 
L 6.390625 71.578125 
L 15.1875 71.578125 
L 15.1875 0 
z
" id="ArialMT-108"/>
        <path d="M 25.78125 7.859375 
L 27.046875 0.09375 
Q 23.34375 -0.6875 20.40625 -0.6875 
Q 15.625 -0.6875 12.984375 0.828125 
Q 10.359375 2.34375 9.28125 4.8125 
Q 8.203125 7.28125 8.203125 15.1875 
L 8.203125 45.015625 
L 1.765625 45.015625 
L 1.765625 51.859375 
L 8.203125 51.859375 
L 8.203125 64.703125 
L 16.9375 69.96875 
L 16.9375 51.859375 
L 25.78125 51.859375 
L 25.78125 45.015625 
L 16.9375 45.015625 
L 16.9375 14.703125 
Q 16.9375 10.9375 17.40625 9.859375 
Q 17.875 8.796875 18.921875 8.15625 
Q 19.96875 7.515625 21.921875 7.515625 
Q 23.390625 7.515625 25.78125 7.859375 
z
" id="ArialMT-116"/>
        <path d="M 6.59375 0 
L 6.59375 71.578125 
L 15.375 71.578125 
L 15.375 45.90625 
Q 21.53125 53.03125 30.90625 53.03125 
Q 36.671875 53.03125 40.921875 50.75 
Q 45.171875 48.484375 47 44.484375 
Q 48.828125 40.484375 48.828125 32.859375 
L 48.828125 0 
L 40.046875 0 
L 40.046875 32.859375 
Q 40.046875 39.453125 37.1875 42.453125 
Q 34.328125 45.453125 29.109375 45.453125 
Q 25.203125 45.453125 21.75 43.421875 
Q 18.3125 41.40625 16.84375 37.9375 
Q 15.375 34.46875 15.375 28.375 
L 15.375 0 
z
" id="ArialMT-104"/>
        <path d="M 6.203125 -19.96875 
L 5.21875 -11.71875 
Q 8.109375 -12.5 10.25 -12.5 
Q 13.1875 -12.5 14.9375 -11.515625 
Q 16.703125 -10.546875 17.828125 -8.796875 
Q 18.65625 -7.46875 20.515625 -2.25 
Q 20.75 -1.515625 21.296875 -0.09375 
L 1.609375 51.859375 
L 11.078125 51.859375 
L 21.875 21.828125 
Q 23.96875 16.109375 25.640625 9.8125 
Q 27.15625 15.875 29.25 21.625 
L 40.328125 51.859375 
L 49.125 51.859375 
L 29.390625 -0.875 
Q 26.21875 -9.421875 24.46875 -12.640625 
Q 22.125 -17 19.09375 -19.015625 
Q 16.0625 -21.046875 11.859375 -21.046875 
Q 9.328125 -21.046875 6.203125 -19.96875 
z
" id="ArialMT-121"/>
       </defs>
       <use xlink:href="#ArialMT-72"/>
       <use x="72.216797" xlink:href="#ArialMT-101"/>
       <use x="127.832031" xlink:href="#ArialMT-97"/>
       <use x="183.447266" xlink:href="#ArialMT-108"/>
       <use x="205.664062" xlink:href="#ArialMT-116"/>
       <use x="233.447266" xlink:href="#ArialMT-104"/>
       <use x="289.0625" xlink:href="#ArialMT-121"/>
      </g>
     </g>
    </g>
    <g id="xtick_2">
     <g id="text_2">
      <!-- Slight -->
      <g style="fill:#262626;" transform="translate(506.045424 1231.838438)scale(0.5 -0.5)">
       <defs>
        <path d="M 4.5 23 
L 13.421875 23.78125 
Q 14.0625 18.40625 16.375 14.96875 
Q 18.703125 11.53125 23.578125 9.40625 
Q 28.46875 7.28125 34.578125 7.28125 
Q 39.984375 7.28125 44.140625 8.890625 
Q 48.296875 10.5 50.3125 13.296875 
Q 52.34375 16.109375 52.34375 19.4375 
Q 52.34375 22.796875 50.390625 25.3125 
Q 48.4375 27.828125 43.953125 29.546875 
Q 41.0625 30.671875 31.203125 33.03125 
Q 21.34375 35.40625 17.390625 37.5 
Q 12.25 40.1875 9.734375 44.15625 
Q 7.234375 48.140625 7.234375 53.078125 
Q 7.234375 58.5 10.296875 63.203125 
Q 13.375 67.921875 19.28125 70.359375 
Q 25.203125 72.796875 32.421875 72.796875 
Q 40.375 72.796875 46.453125 70.234375 
Q 52.546875 67.671875 55.8125 62.6875 
Q 59.078125 57.71875 59.328125 51.421875 
L 50.25 50.734375 
Q 49.515625 57.515625 45.28125 60.984375 
Q 41.0625 64.453125 32.8125 64.453125 
Q 24.21875 64.453125 20.28125 61.296875 
Q 16.359375 58.15625 16.359375 53.71875 
Q 16.359375 49.859375 19.140625 47.359375 
Q 21.875 44.875 33.421875 42.265625 
Q 44.96875 39.65625 49.265625 37.703125 
Q 55.515625 34.8125 58.484375 30.390625 
Q 61.46875 25.984375 61.46875 20.21875 
Q 61.46875 14.5 58.203125 9.4375 
Q 54.9375 4.390625 48.796875 1.578125 
Q 42.671875 -1.21875 35.015625 -1.21875 
Q 25.296875 -1.21875 18.71875 1.609375 
Q 12.15625 4.4375 8.421875 10.125 
Q 4.6875 15.828125 4.5 23 
z
" id="ArialMT-83"/>
        <path d="M 6.640625 61.46875 
L 6.640625 71.578125 
L 15.4375 71.578125 
L 15.4375 61.46875 
z
M 6.640625 0 
L 6.640625 51.859375 
L 15.4375 51.859375 
L 15.4375 0 
z
" id="ArialMT-105"/>
        <path d="M 4.984375 -4.296875 
L 13.53125 -5.5625 
Q 14.0625 -9.515625 16.5 -11.328125 
Q 19.78125 -13.765625 25.4375 -13.765625 
Q 31.546875 -13.765625 34.859375 -11.328125 
Q 38.1875 -8.890625 39.359375 -4.5 
Q 40.046875 -1.8125 39.984375 6.78125 
Q 34.234375 0 25.640625 0 
Q 14.9375 0 9.078125 7.71875 
Q 3.21875 15.4375 3.21875 26.21875 
Q 3.21875 33.640625 5.90625 39.90625 
Q 8.59375 46.1875 13.6875 49.609375 
Q 18.796875 53.03125 25.6875 53.03125 
Q 34.859375 53.03125 40.828125 45.609375 
L 40.828125 51.859375 
L 48.921875 51.859375 
L 48.921875 7.03125 
Q 48.921875 -5.078125 46.453125 -10.125 
Q 44 -15.1875 38.640625 -18.109375 
Q 33.296875 -21.046875 25.484375 -21.046875 
Q 16.21875 -21.046875 10.5 -16.875 
Q 4.78125 -12.703125 4.984375 -4.296875 
z
M 12.25 26.859375 
Q 12.25 16.65625 16.296875 11.96875 
Q 20.359375 7.28125 26.46875 7.28125 
Q 32.515625 7.28125 36.609375 11.9375 
Q 40.71875 16.609375 40.71875 26.5625 
Q 40.71875 36.078125 36.5 40.90625 
Q 32.28125 45.75 26.3125 45.75 
Q 20.453125 45.75 16.34375 40.984375 
Q 12.25 36.234375 12.25 26.859375 
z
" id="ArialMT-103"/>
       </defs>
       <use xlink:href="#ArialMT-83"/>
       <use x="66.699219" xlink:href="#ArialMT-108"/>
       <use x="88.916016" xlink:href="#ArialMT-105"/>
       <use x="111.132812" xlink:href="#ArialMT-103"/>
       <use x="166.748047" xlink:href="#ArialMT-104"/>
       <use x="222.363281" xlink:href="#ArialMT-116"/>
      </g>
     </g>
    </g>
    <g id="xtick_3">
     <g id="text_3">
      <!-- Moderate -->
      <g style="fill:#262626;" transform="translate(724.402332 1231.229063)scale(0.5 -0.5)">
       <defs>
        <path d="M 7.421875 0 
L 7.421875 71.578125 
L 21.6875 71.578125 
L 38.625 20.90625 
Q 40.96875 13.8125 42.046875 10.296875 
Q 43.265625 14.203125 45.84375 21.78125 
L 62.984375 71.578125 
L 75.734375 71.578125 
L 75.734375 0 
L 66.609375 0 
L 66.609375 59.90625 
L 45.796875 0 
L 37.25 0 
L 16.546875 60.9375 
L 16.546875 0 
z
" id="ArialMT-77"/>
        <path d="M 3.328125 25.921875 
Q 3.328125 40.328125 11.328125 47.265625 
Q 18.015625 53.03125 27.640625 53.03125 
Q 38.328125 53.03125 45.109375 46.015625 
Q 51.90625 39.015625 51.90625 26.65625 
Q 51.90625 16.65625 48.90625 10.90625 
Q 45.90625 5.171875 40.15625 2 
Q 34.421875 -1.171875 27.640625 -1.171875 
Q 16.75 -1.171875 10.03125 5.8125 
Q 3.328125 12.796875 3.328125 25.921875 
z
M 12.359375 25.921875 
Q 12.359375 15.96875 16.703125 11.015625 
Q 21.046875 6.0625 27.640625 6.0625 
Q 34.1875 6.0625 38.53125 11.03125 
Q 42.875 16.015625 42.875 26.21875 
Q 42.875 35.84375 38.5 40.796875 
Q 34.125 45.75 27.640625 45.75 
Q 21.046875 45.75 16.703125 40.8125 
Q 12.359375 35.890625 12.359375 25.921875 
z
" id="ArialMT-111"/>
        <path d="M 40.234375 0 
L 40.234375 6.546875 
Q 35.296875 -1.171875 25.734375 -1.171875 
Q 19.53125 -1.171875 14.328125 2.25 
Q 9.125 5.671875 6.265625 11.796875 
Q 3.421875 17.921875 3.421875 25.875 
Q 3.421875 33.640625 6 39.96875 
Q 8.59375 46.296875 13.765625 49.65625 
Q 18.953125 53.03125 25.34375 53.03125 
Q 30.03125 53.03125 33.6875 51.046875 
Q 37.359375 49.078125 39.65625 45.90625 
L 39.65625 71.578125 
L 48.390625 71.578125 
L 48.390625 0 
z
M 12.453125 25.875 
Q 12.453125 15.921875 16.640625 10.984375 
Q 20.84375 6.0625 26.5625 6.0625 
Q 32.328125 6.0625 36.34375 10.765625 
Q 40.375 15.484375 40.375 25.140625 
Q 40.375 35.796875 36.265625 40.765625 
Q 32.171875 45.75 26.171875 45.75 
Q 20.3125 45.75 16.375 40.96875 
Q 12.453125 36.1875 12.453125 25.875 
z
" id="ArialMT-100"/>
        <path d="M 6.5 0 
L 6.5 51.859375 
L 14.40625 51.859375 
L 14.40625 44 
Q 17.4375 49.515625 20 51.265625 
Q 22.5625 53.03125 25.640625 53.03125 
Q 30.078125 53.03125 34.671875 50.203125 
L 31.640625 42.046875 
Q 28.421875 43.953125 25.203125 43.953125 
Q 22.3125 43.953125 20.015625 42.21875 
Q 17.71875 40.484375 16.75 37.40625 
Q 15.28125 32.71875 15.28125 27.15625 
L 15.28125 0 
z
" id="ArialMT-114"/>
       </defs>
       <use xlink:href="#ArialMT-77"/>
       <use x="83.300781" xlink:href="#ArialMT-111"/>
       <use x="138.916016" xlink:href="#ArialMT-100"/>
       <use x="194.53125" xlink:href="#ArialMT-101"/>
       <use x="250.146484" xlink:href="#ArialMT-114"/>
       <use x="283.447266" xlink:href="#ArialMT-97"/>
       <use x="339.0625" xlink:href="#ArialMT-116"/>
       <use x="366.845703" xlink:href="#ArialMT-101"/>
      </g>
     </g>
    </g>
    <g id="xtick_4">
     <g id="text_4">
      <!-- Severe -->
      <g style="fill:#262626;" transform="translate(1012.22799 1231.229063)scale(0.5 -0.5)">
       <defs>
        <path d="M 21 0 
L 1.265625 51.859375 
L 10.546875 51.859375 
L 21.6875 20.796875 
Q 23.484375 15.765625 25 10.359375 
Q 26.171875 14.453125 28.265625 20.21875 
L 39.796875 51.859375 
L 48.828125 51.859375 
L 29.203125 0 
z
" id="ArialMT-118"/>
       </defs>
       <use xlink:href="#ArialMT-83"/>
       <use x="66.699219" xlink:href="#ArialMT-101"/>
       <use x="122.314453" xlink:href="#ArialMT-118"/>
       <use x="172.314453" xlink:href="#ArialMT-101"/>
       <use x="227.929688" xlink:href="#ArialMT-114"/>
       <use x="261.230469" xlink:href="#ArialMT-101"/>
      </g>
     </g>
    </g>
   </g>
   <g id="matplotlib.axis_2">
    <g id="ytick_1">
     <g id="line2d_1">
      <path clip-path="url(#pc95c7a4e60)" d="M 230.13 1101.745853 
L 1242 1101.745853 
" style="fill:none;stroke:#cccccc;stroke-linecap:round;stroke-width:2;"/>
     </g>
     <g id="text_5">
      <!-- 0 -->
      <g style="fill:#262626;" transform="translate(186.825312 1119.640384)scale(0.5 -0.5)">
       <defs>
        <path d="M 4.15625 35.296875 
Q 4.15625 48 6.765625 55.734375 
Q 9.375 63.484375 14.515625 67.671875 
Q 19.671875 71.875 27.484375 71.875 
Q 33.25 71.875 37.59375 69.546875 
Q 41.9375 67.234375 44.765625 62.859375 
Q 47.609375 58.5 49.21875 52.21875 
Q 50.828125 45.953125 50.828125 35.296875 
Q 50.828125 22.703125 48.234375 14.96875 
Q 45.65625 7.234375 40.5 3 
Q 35.359375 -1.21875 27.484375 -1.21875 
Q 17.140625 -1.21875 11.234375 6.203125 
Q 4.15625 15.140625 4.15625 35.296875 
z
M 13.1875 35.296875 
Q 13.1875 17.671875 17.3125 11.828125 
Q 21.4375 6 27.484375 6 
Q 33.546875 6 37.671875 11.859375 
Q 41.796875 17.71875 41.796875 35.296875 
Q 41.796875 52.984375 37.671875 58.78125 
Q 33.546875 64.59375 27.390625 64.59375 
Q 21.34375 64.59375 17.71875 59.46875 
Q 13.1875 52.9375 13.1875 35.296875 
z
" id="ArialMT-48"/>
       </defs>
       <use xlink:href="#ArialMT-48"/>
      </g>
     </g>
    </g>
    <g id="ytick_2">
     <g id="line2d_2">
      <path clip-path="url(#pc95c7a4e60)" d="M 230.13 914.187465 
L 1242 914.187465 
" style="fill:none;stroke:#cccccc;stroke-linecap:round;stroke-width:2;"/>
     </g>
     <g id="text_6">
      <!-- 200 -->
      <g style="fill:#262626;" transform="translate(131.215937 932.081996)scale(0.5 -0.5)">
       <defs>
        <path d="M 50.34375 8.453125 
L 50.34375 0 
L 3.03125 0 
Q 2.9375 3.171875 4.046875 6.109375 
Q 5.859375 10.9375 9.828125 15.625 
Q 13.8125 20.3125 21.34375 26.46875 
Q 33.015625 36.03125 37.109375 41.625 
Q 41.21875 47.21875 41.21875 52.203125 
Q 41.21875 57.421875 37.46875 61 
Q 33.734375 64.59375 27.734375 64.59375 
Q 21.390625 64.59375 17.578125 60.78125 
Q 13.765625 56.984375 13.71875 50.25 
L 4.6875 51.171875 
Q 5.609375 61.28125 11.65625 66.578125 
Q 17.71875 71.875 27.9375 71.875 
Q 38.234375 71.875 44.234375 66.15625 
Q 50.25 60.453125 50.25 52 
Q 50.25 47.703125 48.484375 43.546875 
Q 46.734375 39.40625 42.65625 34.8125 
Q 38.578125 30.21875 29.109375 22.21875 
Q 21.1875 15.578125 18.9375 13.203125 
Q 16.703125 10.84375 15.234375 8.453125 
z
" id="ArialMT-50"/>
       </defs>
       <use xlink:href="#ArialMT-50"/>
       <use x="55.615234" xlink:href="#ArialMT-48"/>
       <use x="111.230469" xlink:href="#ArialMT-48"/>
      </g>
     </g>
    </g>
    <g id="ytick_3">
     <g id="line2d_3">
      <path clip-path="url(#pc95c7a4e60)" d="M 230.13 726.629077 
L 1242 726.629077 
" style="fill:none;stroke:#cccccc;stroke-linecap:round;stroke-width:2;"/>
     </g>
     <g id="text_7">
      <!-- 400 -->
      <g style="fill:#262626;" transform="translate(131.215937 744.523608)scale(0.5 -0.5)">
       <defs>
        <path d="M 32.328125 0 
L 32.328125 17.140625 
L 1.265625 17.140625 
L 1.265625 25.203125 
L 33.9375 71.578125 
L 41.109375 71.578125 
L 41.109375 25.203125 
L 50.78125 25.203125 
L 50.78125 17.140625 
L 41.109375 17.140625 
L 41.109375 0 
z
M 32.328125 25.203125 
L 32.328125 57.46875 
L 9.90625 25.203125 
z
" id="ArialMT-52"/>
       </defs>
       <use xlink:href="#ArialMT-52"/>
       <use x="55.615234" xlink:href="#ArialMT-48"/>
       <use x="111.230469" xlink:href="#ArialMT-48"/>
      </g>
     </g>
    </g>
    <g id="ytick_4">
     <g id="line2d_4">
      <path clip-path="url(#pc95c7a4e60)" d="M 230.13 539.070689 
L 1242 539.070689 
" style="fill:none;stroke:#cccccc;stroke-linecap:round;stroke-width:2;"/>
     </g>
     <g id="text_8">
      <!-- 600 -->
      <g style="fill:#262626;" transform="translate(131.215937 556.96522)scale(0.5 -0.5)">
       <defs>
        <path d="M 49.75 54.046875 
L 41.015625 53.375 
Q 39.84375 58.546875 37.703125 60.890625 
Q 34.125 64.65625 28.90625 64.65625 
Q 24.703125 64.65625 21.53125 62.3125 
Q 17.390625 59.28125 14.984375 53.46875 
Q 12.59375 47.65625 12.5 36.921875 
Q 15.671875 41.75 20.265625 44.09375 
Q 24.859375 46.4375 29.890625 46.4375 
Q 38.671875 46.4375 44.84375 39.96875 
Q 51.03125 33.5 51.03125 23.25 
Q 51.03125 16.5 48.125 10.71875 
Q 45.21875 4.9375 40.140625 1.859375 
Q 35.0625 -1.21875 28.609375 -1.21875 
Q 17.625 -1.21875 10.6875 6.859375 
Q 3.765625 14.9375 3.765625 33.5 
Q 3.765625 54.25 11.421875 63.671875 
Q 18.109375 71.875 29.4375 71.875 
Q 37.890625 71.875 43.28125 67.140625 
Q 48.6875 62.40625 49.75 54.046875 
z
M 13.875 23.1875 
Q 13.875 18.65625 15.796875 14.5 
Q 17.71875 10.359375 21.1875 8.171875 
Q 24.65625 6 28.46875 6 
Q 34.03125 6 38.03125 10.484375 
Q 42.046875 14.984375 42.046875 22.703125 
Q 42.046875 30.125 38.078125 34.390625 
Q 34.125 38.671875 28.125 38.671875 
Q 22.171875 38.671875 18.015625 34.390625 
Q 13.875 30.125 13.875 23.1875 
z
" id="ArialMT-54"/>
       </defs>
       <use xlink:href="#ArialMT-54"/>
       <use x="55.615234" xlink:href="#ArialMT-48"/>
       <use x="111.230469" xlink:href="#ArialMT-48"/>
      </g>
     </g>
    </g>
    <g id="ytick_5">
     <g id="line2d_5">
      <path clip-path="url(#pc95c7a4e60)" d="M 230.13 351.512301 
L 1242 351.512301 
" style="fill:none;stroke:#cccccc;stroke-linecap:round;stroke-width:2;"/>
     </g>
     <g id="text_9">
      <!-- 800 -->
      <g style="fill:#262626;" transform="translate(131.215937 369.406832)scale(0.5 -0.5)">
       <defs>
        <path d="M 17.671875 38.8125 
Q 12.203125 40.828125 9.5625 44.53125 
Q 6.9375 48.25 6.9375 53.421875 
Q 6.9375 61.234375 12.546875 66.546875 
Q 18.171875 71.875 27.484375 71.875 
Q 36.859375 71.875 42.578125 66.421875 
Q 48.296875 60.984375 48.296875 53.171875 
Q 48.296875 48.1875 45.671875 44.5 
Q 43.0625 40.828125 37.75 38.8125 
Q 44.34375 36.671875 47.78125 31.875 
Q 51.21875 27.09375 51.21875 20.453125 
Q 51.21875 11.28125 44.71875 5.03125 
Q 38.234375 -1.21875 27.640625 -1.21875 
Q 17.046875 -1.21875 10.546875 5.046875 
Q 4.046875 11.328125 4.046875 20.703125 
Q 4.046875 27.6875 7.59375 32.390625 
Q 11.140625 37.109375 17.671875 38.8125 
z
M 15.921875 53.71875 
Q 15.921875 48.640625 19.1875 45.40625 
Q 22.46875 42.1875 27.6875 42.1875 
Q 32.765625 42.1875 36.015625 45.375 
Q 39.265625 48.578125 39.265625 53.21875 
Q 39.265625 58.0625 35.90625 61.359375 
Q 32.5625 64.65625 27.59375 64.65625 
Q 22.5625 64.65625 19.234375 61.421875 
Q 15.921875 58.203125 15.921875 53.71875 
z
M 13.09375 20.65625 
Q 13.09375 16.890625 14.875 13.375 
Q 16.65625 9.859375 20.171875 7.921875 
Q 23.6875 6 27.734375 6 
Q 34.03125 6 38.125 10.046875 
Q 42.234375 14.109375 42.234375 20.359375 
Q 42.234375 26.703125 38.015625 30.859375 
Q 33.796875 35.015625 27.4375 35.015625 
Q 21.234375 35.015625 17.15625 30.90625 
Q 13.09375 26.8125 13.09375 20.65625 
z
" id="ArialMT-56"/>
       </defs>
       <use xlink:href="#ArialMT-56"/>
       <use x="55.615234" xlink:href="#ArialMT-48"/>
       <use x="111.230469" xlink:href="#ArialMT-48"/>
      </g>
     </g>
    </g>
    <g id="ytick_6">
     <g id="line2d_6">
      <path clip-path="url(#pc95c7a4e60)" d="M 230.13 163.953913 
L 1242 163.953913 
" style="fill:none;stroke:#cccccc;stroke-linecap:round;stroke-width:2;"/>
     </g>
     <g id="text_10">
      <!-- 1000 -->
      <g style="fill:#262626;" transform="translate(103.41125 181.848444)scale(0.5 -0.5)">
       <defs>
        <path d="M 37.25 0 
L 28.46875 0 
L 28.46875 56 
Q 25.296875 52.984375 20.140625 49.953125 
Q 14.984375 46.921875 10.890625 45.40625 
L 10.890625 53.90625 
Q 18.265625 57.375 23.78125 62.296875 
Q 29.296875 67.234375 31.59375 71.875 
L 37.25 71.875 
z
" id="ArialMT-49"/>
       </defs>
       <use xlink:href="#ArialMT-49"/>
       <use x="55.615234" xlink:href="#ArialMT-48"/>
       <use x="111.230469" xlink:href="#ArialMT-48"/>
       <use x="166.845703" xlink:href="#ArialMT-48"/>
      </g>
     </g>
    </g>
    <g id="text_11">
     <!-- Abundance -->
     <g style="fill:#262626;" transform="translate(89.47375 764.522187)rotate(-90)scale(0.5 -0.5)">
      <defs>
       <path d="M -0.140625 0 
L 27.34375 71.578125 
L 37.546875 71.578125 
L 66.84375 0 
L 56.0625 0 
L 47.703125 21.6875 
L 17.78125 21.6875 
L 9.90625 0 
z
M 20.515625 29.390625 
L 44.78125 29.390625 
L 37.3125 49.21875 
Q 33.890625 58.25 32.234375 64.0625 
Q 30.859375 57.171875 28.375 50.390625 
z
" id="ArialMT-65"/>
       <path d="M 14.703125 0 
L 6.546875 0 
L 6.546875 71.578125 
L 15.328125 71.578125 
L 15.328125 46.046875 
Q 20.90625 53.03125 29.546875 53.03125 
Q 34.328125 53.03125 38.59375 51.09375 
Q 42.875 49.171875 45.625 45.671875 
Q 48.390625 42.1875 49.953125 37.25 
Q 51.515625 32.328125 51.515625 26.703125 
Q 51.515625 13.375 44.921875 6.09375 
Q 38.328125 -1.171875 29.109375 -1.171875 
Q 19.921875 -1.171875 14.703125 6.5 
z
M 14.59375 26.3125 
Q 14.59375 17 17.140625 12.84375 
Q 21.296875 6.0625 28.375 6.0625 
Q 34.125 6.0625 38.328125 11.0625 
Q 42.53125 16.0625 42.53125 25.984375 
Q 42.53125 36.140625 38.5 40.96875 
Q 34.46875 45.796875 28.765625 45.796875 
Q 23 45.796875 18.796875 40.796875 
Q 14.59375 35.796875 14.59375 26.3125 
z
" id="ArialMT-98"/>
       <path d="M 40.578125 0 
L 40.578125 7.625 
Q 34.515625 -1.171875 24.125 -1.171875 
Q 19.53125 -1.171875 15.546875 0.578125 
Q 11.578125 2.34375 9.640625 5 
Q 7.71875 7.671875 6.9375 11.53125 
Q 6.390625 14.109375 6.390625 19.734375 
L 6.390625 51.859375 
L 15.1875 51.859375 
L 15.1875 23.09375 
Q 15.1875 16.21875 15.71875 13.8125 
Q 16.546875 10.359375 19.234375 8.375 
Q 21.921875 6.390625 25.875 6.390625 
Q 29.828125 6.390625 33.296875 8.421875 
Q 36.765625 10.453125 38.203125 13.9375 
Q 39.65625 17.4375 39.65625 24.078125 
L 39.65625 51.859375 
L 48.4375 51.859375 
L 48.4375 0 
z
" id="ArialMT-117"/>
       <path d="M 6.59375 0 
L 6.59375 51.859375 
L 14.5 51.859375 
L 14.5 44.484375 
Q 20.21875 53.03125 31 53.03125 
Q 35.6875 53.03125 39.625 51.34375 
Q 43.5625 49.65625 45.515625 46.921875 
Q 47.46875 44.1875 48.25 40.4375 
Q 48.734375 37.984375 48.734375 31.890625 
L 48.734375 0 
L 39.9375 0 
L 39.9375 31.546875 
Q 39.9375 36.921875 38.90625 39.578125 
Q 37.890625 42.234375 35.28125 43.8125 
Q 32.671875 45.40625 29.15625 45.40625 
Q 23.53125 45.40625 19.453125 41.84375 
Q 15.375 38.28125 15.375 28.328125 
L 15.375 0 
z
" id="ArialMT-110"/>
       <path d="M 40.4375 19 
L 49.078125 17.875 
Q 47.65625 8.9375 41.8125 3.875 
Q 35.984375 -1.171875 27.484375 -1.171875 
Q 16.84375 -1.171875 10.375 5.78125 
Q 3.90625 12.75 3.90625 25.734375 
Q 3.90625 34.125 6.6875 40.421875 
Q 9.46875 46.734375 15.15625 49.875 
Q 20.84375 53.03125 27.546875 53.03125 
Q 35.984375 53.03125 41.359375 48.75 
Q 46.734375 44.484375 48.25 36.625 
L 39.703125 35.296875 
Q 38.484375 40.53125 35.375 43.15625 
Q 32.28125 45.796875 27.875 45.796875 
Q 21.234375 45.796875 17.078125 41.03125 
Q 12.9375 36.28125 12.9375 25.984375 
Q 12.9375 15.53125 16.9375 10.796875 
Q 20.953125 6.0625 27.390625 6.0625 
Q 32.5625 6.0625 36.03125 9.234375 
Q 39.5 12.40625 40.4375 19 
z
" id="ArialMT-99"/>
      </defs>
      <use xlink:href="#ArialMT-65"/>
      <use x="66.699219" xlink:href="#ArialMT-98"/>
      <use x="122.314453" xlink:href="#ArialMT-117"/>
      <use x="177.929688" xlink:href="#ArialMT-110"/>
      <use x="233.544922" xlink:href="#ArialMT-100"/>
      <use x="289.160156" xlink:href="#ArialMT-97"/>
      <use x="344.775391" xlink:href="#ArialMT-110"/>
      <use x="400.390625" xlink:href="#ArialMT-99"/>
      <use x="450.390625" xlink:href="#ArialMT-101"/>
     </g>
    </g>
   </g>
   <g id="PolyCollection_1">
    <defs>
     <path d="M 321.603804 -153.305782 
L 292.702915 -153.305782 
L 289.64084 -160.830182 
L 286.551923 -168.354582 
L 283.609495 -175.878983 
L 280.988619 -183.403383 
L 278.843795 -190.927783 
L 277.288779 -198.452184 
L 276.382535 -205.976584 
L 276.124091 -213.500984 
L 276.456995 -221.025385 
L 277.281937 -228.549785 
L 278.474381 -236.074185 
L 279.903293 -243.598586 
L 281.447373 -251.122986 
L 283.006314 -258.647386 
L 284.506194 -266.171787 
L 285.899564 -273.696187 
L 287.161778 -281.220587 
L 288.285514 -288.744988 
L 289.275167 -296.269388 
L 290.142273 -303.793788 
L 290.902385 -311.318189 
L 291.573294 -318.842589 
L 292.17412 -326.366989 
L 292.724734 -333.89139 
L 293.245084 -341.41579 
L 293.754239 -348.94019 
L 294.269183 -356.464591 
L 294.80358 -363.988991 
L 295.366805 -371.513391 
L 295.963486 -379.037792 
L 296.593681 -386.562192 
L 297.253633 -394.086592 
L 297.93691 -401.610993 
L 298.635636 -409.135393 
L 299.341526 -416.659793 
L 300.046544 -424.184194 
L 300.743146 -431.708594 
L 301.424209 -439.232994 
L 302.082841 -446.757395 
L 302.712275 -454.281795 
L 303.305949 -461.806195 
L 303.857805 -469.330596 
L 304.362696 -476.854996 
L 304.816768 -484.379396 
L 305.217678 -491.903797 
L 305.564607 -499.428197 
L 305.858075 -506.952597 
L 306.099669 -514.476998 
L 306.291789 -522.001398 
L 306.437508 -529.525798 
L 306.540582 -537.050199 
L 306.605572 -544.574599 
L 306.637992 -552.098999 
L 306.644377 -559.6234 
L 306.632169 -567.1478 
L 306.609382 -574.6722 
L 306.584038 -582.196601 
L 306.563483 -589.721001 
L 306.553671 -597.245401 
L 306.558592 -604.769802 
L 306.579946 -612.294202 
L 306.617141 -619.818602 
L 306.667626 -627.343003 
L 306.72747 -634.867403 
L 306.792087 -642.391803 
L 306.856951 -649.916204 
L 306.918182 -657.440604 
L 306.972928 -664.965004 
L 307.019504 -672.489405 
L 307.057326 -680.013805 
L 307.086696 -687.538205 
L 307.108513 -695.062606 
L 307.123976 -702.587006 
L 307.134323 -710.111406 
L 307.140638 -717.635807 
L 307.143723 -725.160207 
L 307.144014 -732.684607 
L 307.141556 -740.209008 
L 307.135993 -747.733408 
L 307.126598 -755.257808 
L 307.112341 -762.782209 
L 307.092003 -770.306609 
L 307.064357 -777.831009 
L 307.028421 -785.35541 
L 306.983746 -792.87981 
L 306.93072 -800.404211 
L 306.870811 -807.928611 
L 306.806682 -815.453011 
L 306.74212 -822.977412 
L 306.681731 -830.501812 
L 306.630431 -838.026212 
L 306.592803 -845.550613 
L 306.572417 -853.075013 
L 306.57128 -860.599413 
L 306.589504 -868.123814 
L 306.625293 -875.648214 
L 306.67523 -883.172614 
L 306.734818 -890.697015 
L 306.799144 -898.221415 
L 307.507576 -898.221415 
L 307.507576 -898.221415 
L 307.571902 -890.697015 
L 307.63149 -883.172614 
L 307.681427 -875.648214 
L 307.717216 -868.123814 
L 307.73544 -860.599413 
L 307.734303 -853.075013 
L 307.713917 -845.550613 
L 307.676288 -838.026212 
L 307.624989 -830.501812 
L 307.5646 -822.977412 
L 307.500038 -815.453011 
L 307.435909 -807.928611 
L 307.376 -800.404211 
L 307.322973 -792.87981 
L 307.278299 -785.35541 
L 307.242363 -777.831009 
L 307.214717 -770.306609 
L 307.194378 -762.782209 
L 307.180121 -755.257808 
L 307.170727 -747.733408 
L 307.165164 -740.209008 
L 307.162706 -732.684607 
L 307.162997 -725.160207 
L 307.166081 -717.635807 
L 307.172397 -710.111406 
L 307.182744 -702.587006 
L 307.198207 -695.062606 
L 307.220024 -687.538205 
L 307.249394 -680.013805 
L 307.287215 -672.489405 
L 307.333791 -664.965004 
L 307.388538 -657.440604 
L 307.449769 -649.916204 
L 307.514633 -642.391803 
L 307.57925 -634.867403 
L 307.639094 -627.343003 
L 307.689579 -619.818602 
L 307.726774 -612.294202 
L 307.748128 -604.769802 
L 307.753049 -597.245401 
L 307.743237 -589.721001 
L 307.722682 -582.196601 
L 307.697338 -574.6722 
L 307.67455 -567.1478 
L 307.662343 -559.6234 
L 307.668728 -552.098999 
L 307.701147 -544.574599 
L 307.766137 -537.050199 
L 307.869212 -529.525798 
L 308.014931 -522.001398 
L 308.207051 -514.476998 
L 308.448645 -506.952597 
L 308.742113 -499.428197 
L 309.089042 -491.903797 
L 309.489952 -484.379396 
L 309.944024 -476.854996 
L 310.448915 -469.330596 
L 311.000771 -461.806195 
L 311.594445 -454.281795 
L 312.223878 -446.757395 
L 312.882511 -439.232994 
L 313.563574 -431.708594 
L 314.260176 -424.184194 
L 314.965194 -416.659793 
L 315.671084 -409.135393 
L 316.36981 -401.610993 
L 317.053087 -394.086592 
L 317.713038 -386.562192 
L 318.343233 -379.037792 
L 318.939915 -371.513391 
L 319.50314 -363.988991 
L 320.037537 -356.464591 
L 320.552481 -348.94019 
L 321.061636 -341.41579 
L 321.581986 -333.89139 
L 322.132599 -326.366989 
L 322.733426 -318.842589 
L 323.404335 -311.318189 
L 324.164447 -303.793788 
L 325.031553 -296.269388 
L 326.021206 -288.744988 
L 327.144942 -281.220587 
L 328.407156 -273.696187 
L 329.800526 -266.171787 
L 331.300406 -258.647386 
L 332.859347 -251.122986 
L 334.403426 -243.598586 
L 335.832339 -236.074185 
L 337.024783 -228.549785 
L 337.849725 -221.025385 
L 338.182629 -213.500984 
L 337.924184 -205.976584 
L 337.017941 -198.452184 
L 335.462925 -190.927783 
L 333.318101 -183.403383 
L 330.697225 -175.878983 
L 327.754797 -168.354582 
L 324.66588 -160.830182 
L 321.603804 -153.305782 
z
" id="m0cefe5b46a" style="stroke:#3d3d3d;stroke-width:5;"/>
    </defs>
    <g clip-path="url(#pc95c7a4e60)">
     <use style="fill:#3a923a;stroke:#3d3d3d;stroke-width:5;" x="0" xlink:href="#m0cefe5b46a" y="1296"/>
    </g>
   </g>
   <g id="PolyCollection_2">
    <defs>
     <path d="M 587.476059 -158.472855 
L 549.685101 -158.472855 
L 547.70485 -161.84805 
L 545.704692 -165.223245 
L 543.715282 -168.59844 
L 541.769258 -171.973636 
L 539.900257 -175.348831 
L 538.14183 -178.724026 
L 536.526297 -182.099221 
L 535.083608 -185.474417 
L 533.840243 -188.849612 
L 532.818241 -192.224807 
L 532.034375 -195.600002 
L 531.499537 -198.975198 
L 531.218358 -202.350393 
L 531.189074 -205.725588 
L 531.403642 -209.100783 
L 531.848113 -212.475979 
L 532.503207 -215.851174 
L 533.345083 -219.226369 
L 534.346253 -222.601564 
L 535.476591 -225.97676 
L 536.704391 -229.351955 
L 537.997429 -232.72715 
L 539.323983 -236.102345 
L 540.653782 -239.47754 
L 541.958836 -242.852736 
L 543.214145 -246.227931 
L 544.398263 -249.603126 
L 545.493699 -252.978321 
L 546.487175 -256.353517 
L 547.369724 -259.728712 
L 548.136652 -263.103907 
L 548.787369 -266.479102 
L 549.325094 -269.854298 
L 549.756476 -273.229493 
L 550.09112 -276.604688 
L 550.341056 -279.979883 
L 550.520161 -283.355079 
L 550.643561 -286.730274 
L 550.727026 -290.105469 
L 550.786384 -293.480664 
L 550.836965 -296.85586 
L 550.8931 -300.231055 
L 550.967689 -303.60625 
L 551.071843 -306.981445 
L 551.21462 -310.35664 
L 551.40285 -313.731836 
L 551.641057 -317.107031 
L 551.931478 -320.482226 
L 552.274157 -323.857421 
L 552.667123 -327.232617 
L 553.106626 -330.607812 
L 553.58742 -333.983007 
L 554.103076 -337.358202 
L 554.646306 -340.733398 
L 555.209292 -344.108593 
L 555.783985 -347.483788 
L 556.362395 -350.858983 
L 556.936822 -354.234179 
L 557.50007 -357.609374 
L 558.045596 -360.984569 
L 558.567629 -364.359764 
L 559.06125 -367.73496 
L 559.522432 -371.110155 
L 559.94806 -374.48535 
L 560.335923 -377.860545 
L 560.6847 -381.235741 
L 560.993931 -384.610936 
L 561.26398 -387.986131 
L 561.496003 -391.361326 
L 561.691901 -394.736521 
L 561.854278 -398.111717 
L 561.986379 -401.486912 
L 562.09203 -404.862107 
L 562.175558 -408.237302 
L 562.241695 -411.612498 
L 562.295465 -414.987693 
L 562.342061 -418.362888 
L 562.386703 -421.738083 
L 562.434487 -425.113279 
L 562.490232 -428.488474 
L 562.558329 -431.863669 
L 562.642601 -435.238864 
L 562.746179 -438.61406 
L 562.871404 -441.989255 
L 563.019756 -445.36445 
L 563.191824 -448.739645 
L 563.387306 -452.114841 
L 563.605044 -455.490036 
L 563.843101 -458.865231 
L 564.098861 -462.240426 
L 564.369156 -465.615622 
L 564.650407 -468.990817 
L 564.93878 -472.366012 
L 565.230338 -475.741207 
L 565.521189 -479.116402 
L 565.807624 -482.491598 
L 566.086229 -485.866793 
L 566.353983 -489.241988 
L 566.608327 -492.617183 
L 570.552834 -492.617183 
L 570.552834 -492.617183 
L 570.807178 -489.241988 
L 571.074932 -485.866793 
L 571.353537 -482.491598 
L 571.639971 -479.116402 
L 571.930823 -475.741207 
L 572.222381 -472.366012 
L 572.510753 -468.990817 
L 572.792004 -465.615622 
L 573.062299 -462.240426 
L 573.318059 -458.865231 
L 573.556117 -455.490036 
L 573.773855 -452.114841 
L 573.969336 -448.739645 
L 574.141404 -445.36445 
L 574.289757 -441.989255 
L 574.414981 -438.61406 
L 574.518559 -435.238864 
L 574.602831 -431.863669 
L 574.670929 -428.488474 
L 574.726674 -425.113279 
L 574.774458 -421.738083 
L 574.8191 -418.362888 
L 574.865696 -414.987693 
L 574.919466 -411.612498 
L 574.985602 -408.237302 
L 575.06913 -404.862107 
L 575.174782 -401.486912 
L 575.306883 -398.111717 
L 575.469259 -394.736521 
L 575.665158 -391.361326 
L 575.897181 -387.986131 
L 576.16723 -384.610936 
L 576.47646 -381.235741 
L 576.825237 -377.860545 
L 577.213101 -374.48535 
L 577.638728 -371.110155 
L 578.099911 -367.73496 
L 578.593532 -364.359764 
L 579.115565 -360.984569 
L 579.66109 -357.609374 
L 580.224338 -354.234179 
L 580.798766 -350.858983 
L 581.377175 -347.483788 
L 581.951869 -344.108593 
L 582.514854 -340.733398 
L 583.058085 -337.358202 
L 583.57374 -333.983007 
L 584.054534 -330.607812 
L 584.494037 -327.232617 
L 584.887003 -323.857421 
L 585.229682 -320.482226 
L 585.520103 -317.107031 
L 585.758311 -313.731836 
L 585.94654 -310.35664 
L 586.089317 -306.981445 
L 586.193471 -303.60625 
L 586.26806 -300.231055 
L 586.324195 -296.85586 
L 586.374776 -293.480664 
L 586.434134 -290.105469 
L 586.5176 -286.730274 
L 586.641 -283.355079 
L 586.820105 -279.979883 
L 587.07004 -276.604688 
L 587.404684 -273.229493 
L 587.836067 -269.854298 
L 588.373792 -266.479102 
L 589.024508 -263.103907 
L 589.791437 -259.728712 
L 590.673986 -256.353517 
L 591.667461 -252.978321 
L 592.762897 -249.603126 
L 593.947015 -246.227931 
L 595.202325 -242.852736 
L 596.507379 -239.47754 
L 597.837177 -236.102345 
L 599.163732 -232.72715 
L 600.456769 -229.351955 
L 601.684569 -225.97676 
L 602.814907 -222.601564 
L 603.816078 -219.226369 
L 604.657954 -215.851174 
L 605.313047 -212.475979 
L 605.757518 -209.100783 
L 605.972087 -205.725588 
L 605.942802 -202.350393 
L 605.661623 -198.975198 
L 605.126786 -195.600002 
L 604.342919 -192.224807 
L 603.320917 -188.849612 
L 602.077553 -185.474417 
L 600.634863 -182.099221 
L 599.019331 -178.724026 
L 597.260903 -175.348831 
L 595.391902 -171.973636 
L 593.445879 -168.59844 
L 591.456469 -165.223245 
L 589.45631 -161.84805 
L 587.476059 -158.472855 
z
" id="m6f1dc16bb5" style="stroke:#3d3d3d;stroke-width:5;"/>
    </defs>
    <g clip-path="url(#pc95c7a4e60)">
     <use style="fill:#2eabb8;stroke:#3d3d3d;stroke-width:5;" x="0" xlink:href="#m6f1dc16bb5" y="1296"/>
    </g>
   </g>
   <g id="PolyCollection_3">
    <defs>
     <path d="M 882.840121 -177.785556 
L 777.175481 -177.785556 
L 771.223711 -179.567569 
L 765.3226 -181.349583 
L 759.607193 -183.131597 
L 754.215998 -184.91361 
L 749.284637 -186.695624 
L 744.93927 -188.477638 
L 741.290242 -190.259651 
L 738.426444 -192.041665 
L 736.410807 -193.823679 
L 735.277279 -195.605692 
L 735.02953 -197.387706 
L 735.641461 -199.169719 
L 737.059465 -200.951733 
L 739.206229 -202.733747 
L 741.985754 -204.51576 
L 745.289165 -206.297774 
L 749.000855 -208.079788 
L 753.004492 -209.861801 
L 757.188475 -211.643815 
L 761.450489 -213.425829 
L 765.700932 -215.207842 
L 769.865091 -216.989856 
L 773.884062 -218.771869 
L 777.714528 -220.553883 
L 781.327572 -222.335897 
L 784.706772 -224.11791 
L 787.84585 -225.899924 
L 790.746124 -227.681938 
L 793.414026 -229.463951 
L 795.858865 -231.245965 
L 798.090974 -233.027979 
L 800.120346 -234.809992 
L 801.955759 -236.592006 
L 803.604387 -238.37402 
L 805.071834 -240.156033 
L 806.362509 -241.938047 
L 807.48023 -243.72006 
L 808.428967 -245.502074 
L 809.21361 -247.284088 
L 809.840685 -249.066101 
L 810.318924 -250.848115 
L 810.659657 -252.630129 
L 810.876972 -254.412142 
L 810.987637 -256.194156 
L 811.010787 -257.97617 
L 810.967398 -259.758183 
L 810.879596 -261.540197 
L 810.76984 -263.32221 
L 810.660052 -265.104224 
L 810.570753 -266.886238 
L 810.520267 -268.668251 
L 810.524057 -270.450265 
L 810.594233 -272.232279 
L 810.739268 -274.014292 
L 810.96393 -275.796306 
L 811.269432 -277.57832 
L 811.653766 -279.360333 
L 812.112195 -281.142347 
L 812.637844 -282.92436 
L 813.22233 -284.706374 
L 813.856392 -286.488388 
L 814.530446 -288.270401 
L 815.235055 -290.052415 
L 815.961255 -291.834429 
L 816.700763 -293.616442 
L 817.446045 -295.398456 
L 818.190282 -297.18047 
L 818.927262 -298.962483 
L 819.651236 -300.744497 
L 820.356765 -302.52651 
L 821.038614 -304.308524 
L 821.691697 -306.090538 
L 822.3111 -307.872551 
L 822.892181 -309.654565 
L 823.430741 -311.436579 
L 823.923236 -313.218592 
L 824.367017 -315.000606 
L 824.760558 -316.78262 
L 825.103645 -318.564633 
L 825.397504 -320.346647 
L 825.64483 -322.12866 
L 825.849735 -323.910674 
L 826.017585 -325.692688 
L 826.154757 -327.474701 
L 826.268314 -329.256715 
L 826.365641 -331.038729 
L 826.454054 -332.820742 
L 826.540423 -334.602756 
L 826.630826 -336.38477 
L 826.730274 -338.166783 
L 826.842509 -339.948797 
L 826.96989 -341.730811 
L 827.113385 -343.512824 
L 827.272637 -345.294838 
L 827.446114 -347.076851 
L 827.631324 -348.858865 
L 827.825058 -350.640879 
L 828.023667 -352.422892 
L 828.223323 -354.204906 
L 831.792278 -354.204906 
L 831.792278 -354.204906 
L 831.991934 -352.422892 
L 832.190543 -350.640879 
L 832.384278 -348.858865 
L 832.569487 -347.076851 
L 832.742964 -345.294838 
L 832.902216 -343.512824 
L 833.045711 -341.730811 
L 833.173093 -339.948797 
L 833.285327 -338.166783 
L 833.384775 -336.38477 
L 833.475178 -334.602756 
L 833.561547 -332.820742 
L 833.64996 -331.038729 
L 833.747288 -329.256715 
L 833.860845 -327.474701 
L 833.998016 -325.692688 
L 834.165867 -323.910674 
L 834.370771 -322.12866 
L 834.618097 -320.346647 
L 834.911956 -318.564633 
L 835.255044 -316.78262 
L 835.648584 -315.000606 
L 836.092365 -313.218592 
L 836.58486 -311.436579 
L 837.12342 -309.654565 
L 837.704502 -307.872551 
L 838.323904 -306.090538 
L 838.976987 -304.308524 
L 839.658836 -302.52651 
L 840.364365 -300.744497 
L 841.088339 -298.962483 
L 841.82532 -297.18047 
L 842.569556 -295.398456 
L 843.314838 -293.616442 
L 844.054346 -291.834429 
L 844.780546 -290.052415 
L 845.485155 -288.270401 
L 846.15921 -286.488388 
L 846.793271 -284.706374 
L 847.377757 -282.92436 
L 847.903406 -281.142347 
L 848.361836 -279.360333 
L 848.74617 -277.57832 
L 849.051671 -275.796306 
L 849.276333 -274.014292 
L 849.421368 -272.232279 
L 849.491544 -270.450265 
L 849.495334 -268.668251 
L 849.444848 -266.886238 
L 849.355549 -265.104224 
L 849.245762 -263.32221 
L 849.136006 -261.540197 
L 849.048203 -259.758183 
L 849.004814 -257.97617 
L 849.027964 -256.194156 
L 849.138629 -254.412142 
L 849.355945 -252.630129 
L 849.696678 -250.848115 
L 850.174916 -249.066101 
L 850.801991 -247.284088 
L 851.586634 -245.502074 
L 852.535371 -243.72006 
L 853.653092 -241.938047 
L 854.943767 -240.156033 
L 856.411214 -238.37402 
L 858.059842 -236.592006 
L 859.895255 -234.809992 
L 861.924627 -233.027979 
L 864.156737 -231.245965 
L 866.601575 -229.463951 
L 869.269477 -227.681938 
L 872.169751 -225.899924 
L 875.308829 -224.11791 
L 878.688029 -222.335897 
L 882.301073 -220.553883 
L 886.131539 -218.771869 
L 890.15051 -216.989856 
L 894.314669 -215.207842 
L 898.565112 -213.425829 
L 902.827126 -211.643815 
L 907.011109 -209.861801 
L 911.014746 -208.079788 
L 914.726436 -206.297774 
L 918.029847 -204.51576 
L 920.809372 -202.733747 
L 922.956136 -200.951733 
L 924.37414 -199.169719 
L 924.986071 -197.387706 
L 924.738322 -195.605692 
L 923.604794 -193.823679 
L 921.589157 -192.041665 
L 918.725359 -190.259651 
L 915.076331 -188.477638 
L 910.730964 -186.695624 
L 905.799604 -184.91361 
L 900.408409 -183.131597 
L 894.693001 -181.349583 
L 888.79189 -179.567569 
L 882.840121 -177.785556 
z
" id="m7c9c862e14" style="stroke:#3d3d3d;stroke-width:5;"/>
    </defs>
    <g clip-path="url(#pc95c7a4e60)">
     <use style="fill:#a9aa35;stroke:#3d3d3d;stroke-width:5;" x="0" xlink:href="#m7c9c862e14" y="1296"/>
    </g>
   </g>
   <g id="PolyCollection_4">
    <defs>
     <path d="M 1150.301215 -175.275628 
L 1032.568827 -175.275628 
L 1023.694507 -178.027194 
L 1015.029042 -180.77876 
L 1006.950197 -183.530325 
L 999.835592 -186.281891 
L 994.031166 -189.033457 
L 989.820803 -191.785023 
L 987.401029 -194.536589 
L 986.864133 -197.288155 
L 988.191908 -200.039721 
L 991.260668 -202.791287 
L 995.856547 -205.542853 
L 1001.698655 -208.294419 
L 1008.466693 -211.045985 
L 1015.829291 -213.79755 
L 1023.469613 -216.549116 
L 1031.105632 -219.300682 
L 1038.503572 -222.052248 
L 1045.484279 -224.803814 
L 1051.923262 -227.55538 
L 1057.74594 -230.306946 
L 1062.919867 -233.058512 
L 1067.445713 -235.810078 
L 1071.348408 -238.561644 
L 1074.669383 -241.313209 
L 1077.460327 -244.064775 
L 1079.778486 -246.816341 
L 1081.683236 -249.567907 
L 1083.233567 -252.319473 
L 1084.486134 -255.071039 
L 1085.493631 -257.822605 
L 1086.303376 -260.574171 
L 1086.956135 -263.325737 
L 1087.485248 -266.077303 
L 1087.916191 -268.828868 
L 1088.266662 -271.580434 
L 1088.5472 -274.332 
L 1088.762339 -277.083566 
L 1088.912162 -279.835132 
L 1088.994139 -282.586698 
L 1089.005056 -285.338264 
L 1088.942861 -288.08983 
L 1088.808264 -290.841396 
L 1088.605933 -293.592962 
L 1088.345186 -296.344528 
L 1088.040094 -299.096093 
L 1087.708997 -301.847659 
L 1087.373451 -304.599225 
L 1087.056711 -307.350791 
L 1086.781909 -310.102357 
L 1086.570119 -312.853923 
L 1086.438529 -315.605489 
L 1086.398946 -318.357055 
L 1086.45682 -321.108621 
L 1086.610888 -323.860187 
L 1086.853499 -326.611752 
L 1087.171552 -329.363318 
L 1087.547918 -332.114884 
L 1087.963146 -334.86645 
L 1088.397253 -337.618016 
L 1088.831363 -340.369582 
L 1089.249046 -343.121148 
L 1089.637229 -345.872714 
L 1089.986647 -348.62428 
L 1090.291857 -351.375846 
L 1090.550881 -354.127411 
L 1090.764602 -356.878977 
L 1090.936008 -359.630543 
L 1091.069405 -362.382109 
L 1091.169691 -365.133675 
L 1091.241726 -367.885241 
L 1091.289851 -370.636807 
L 1091.317557 -373.388373 
L 1091.327284 -376.139939 
L 1091.320363 -378.891505 
L 1091.297047 -381.643071 
L 1091.256657 -384.394636 
L 1091.197806 -387.146202 
L 1091.118705 -389.897768 
L 1091.017544 -392.649334 
L 1090.892921 -395.4009 
L 1090.744302 -398.152466 
L 1090.572463 -400.904032 
L 1090.379861 -403.655598 
L 1090.170885 -406.407164 
L 1089.951913 -409.15873 
L 1089.731148 -411.910295 
L 1089.518213 -414.661861 
L 1089.323508 -417.413427 
L 1089.157402 -420.164993 
L 1089.029329 -422.916559 
L 1088.946907 -425.668125 
L 1088.915188 -428.419691 
L 1088.936147 -431.171257 
L 1089.008478 -433.922823 
L 1089.127728 -436.674389 
L 1089.286752 -439.425954 
L 1089.476422 -442.17752 
L 1089.686489 -444.929086 
L 1089.906496 -447.680652 
L 1092.963546 -447.680652 
L 1092.963546 -447.680652 
L 1093.183553 -444.929086 
L 1093.39362 -442.17752 
L 1093.58329 -439.425954 
L 1093.742314 -436.674389 
L 1093.861564 -433.922823 
L 1093.933895 -431.171257 
L 1093.954854 -428.419691 
L 1093.923135 -425.668125 
L 1093.840713 -422.916559 
L 1093.71264 -420.164993 
L 1093.546534 -417.413427 
L 1093.351829 -414.661861 
L 1093.138893 -411.910295 
L 1092.918129 -409.15873 
L 1092.699157 -406.407164 
L 1092.490181 -403.655598 
L 1092.297579 -400.904032 
L 1092.12574 -398.152466 
L 1091.977121 -395.4009 
L 1091.852498 -392.649334 
L 1091.751337 -389.897768 
L 1091.672236 -387.146202 
L 1091.613385 -384.394636 
L 1091.572995 -381.643071 
L 1091.549679 -378.891505 
L 1091.542758 -376.139939 
L 1091.552485 -373.388373 
L 1091.58019 -370.636807 
L 1091.628316 -367.885241 
L 1091.70035 -365.133675 
L 1091.800637 -362.382109 
L 1091.934034 -359.630543 
L 1092.105439 -356.878977 
L 1092.31916 -354.127411 
L 1092.578185 -351.375846 
L 1092.883395 -348.62428 
L 1093.232813 -345.872714 
L 1093.620996 -343.121148 
L 1094.038679 -340.369582 
L 1094.472789 -337.618016 
L 1094.906896 -334.86645 
L 1095.322124 -332.114884 
L 1095.698489 -329.363318 
L 1096.016543 -326.611752 
L 1096.259154 -323.860187 
L 1096.413222 -321.108621 
L 1096.471095 -318.357055 
L 1096.431513 -315.605489 
L 1096.299923 -312.853923 
L 1096.088133 -310.102357 
L 1095.813331 -307.350791 
L 1095.496591 -304.599225 
L 1095.161045 -301.847659 
L 1094.829948 -299.096093 
L 1094.524856 -296.344528 
L 1094.264109 -293.592962 
L 1094.061778 -290.841396 
L 1093.927181 -288.08983 
L 1093.864986 -285.338264 
L 1093.875902 -282.586698 
L 1093.95788 -279.835132 
L 1094.107703 -277.083566 
L 1094.322842 -274.332 
L 1094.60338 -271.580434 
L 1094.953851 -268.828868 
L 1095.384794 -266.077303 
L 1095.913906 -263.325737 
L 1096.566665 -260.574171 
L 1097.376411 -257.822605 
L 1098.383908 -255.071039 
L 1099.636475 -252.319473 
L 1101.186805 -249.567907 
L 1103.091555 -246.816341 
L 1105.409715 -244.064775 
L 1108.200659 -241.313209 
L 1111.521634 -238.561644 
L 1115.424329 -235.810078 
L 1119.950175 -233.058512 
L 1125.124102 -230.306946 
L 1130.94678 -227.55538 
L 1137.385763 -224.803814 
L 1144.366469 -222.052248 
L 1151.76441 -219.300682 
L 1159.400429 -216.549116 
L 1167.040751 -213.79755 
L 1174.403349 -211.045985 
L 1181.171387 -208.294419 
L 1187.013495 -205.542853 
L 1191.609374 -202.791287 
L 1194.678134 -200.039721 
L 1196.005909 -197.288155 
L 1195.469013 -194.536589 
L 1193.049239 -191.785023 
L 1188.838876 -189.033457 
L 1183.03445 -186.281891 
L 1175.919845 -183.530325 
L 1167.841 -180.77876 
L 1159.175535 -178.027194 
L 1150.301215 -175.275628 
z
" id="md7321e8ebd" style="stroke:#3d3d3d;stroke-width:5;"/>
    </defs>
    <g clip-path="url(#pc95c7a4e60)">
     <use style="fill:#c03d3e;stroke:#3d3d3d;stroke-width:5;" x="0" xlink:href="#md7321e8ebd" y="1296"/>
    </g>
   </g>
   <g id="line2d_7">
    <path clip-path="url(#pc95c7a4e60)" d="M 307.15336 1101.745853 
L 307.15336 806.341391 
" style="fill:none;stroke:#3d3d3d;stroke-linecap:round;stroke-width:5;"/>
   </g>
   <g id="line2d_8">
    <path clip-path="url(#pc95c7a4e60)" d="M 307.15336 1101.745853 
L 307.15336 969.751637 
" style="fill:none;stroke:#3d3d3d;stroke-linecap:round;stroke-width:15;"/>
   </g>
   <g id="line2d_9">
    <path clip-path="url(#pc95c7a4e60)" d="M 568.58058 1101.745853 
L 568.58058 839.164109 
" style="fill:none;stroke:#3d3d3d;stroke-linecap:round;stroke-width:5;"/>
   </g>
   <g id="line2d_10">
    <path clip-path="url(#pc95c7a4e60)" d="M 568.58058 1101.745853 
L 568.58058 983.818516 
" style="fill:none;stroke:#3d3d3d;stroke-linecap:round;stroke-width:15;"/>
   </g>
   <g id="line2d_11">
    <path clip-path="url(#pc95c7a4e60)" d="M 830.007801 1101.745853 
L 830.007801 1021.095746 
" style="fill:none;stroke:#3d3d3d;stroke-linecap:round;stroke-width:5;"/>
   </g>
   <g id="line2d_12">
    <path clip-path="url(#pc95c7a4e60)" d="M 830.007801 1101.745853 
L 830.007801 1068.219791 
" style="fill:none;stroke:#3d3d3d;stroke-linecap:round;stroke-width:15;"/>
   </g>
   <g id="line2d_13">
    <path clip-path="url(#pc95c7a4e60)" d="M 1091.435021 1101.745853 
L 1091.435021 1077.363262 
" style="fill:none;stroke:#3d3d3d;stroke-linecap:round;stroke-width:5;"/>
   </g>
   <g id="line2d_14">
    <path clip-path="url(#pc95c7a4e60)" d="M 1091.435021 1101.745853 
L 1091.435021 1091.899037 
" style="fill:none;stroke:#3d3d3d;stroke-linecap:round;stroke-width:15;"/>
   </g>
   <g id="line2d_15">
    <path clip-path="url(#pc95c7a4e60)" d="M 568.58058 789.999678 
L 568.58058 773.611534 
L 830.007801 773.611534 
L 830.007801 789.999678 
" style="fill:none;stroke:#333333;stroke-linecap:round;stroke-width:1.5;"/>
   </g>
   <g id="line2d_16">
    <path clip-path="url(#pc95c7a4e60)" d="M 830.007801 694.574277 
L 830.007801 678.186133 
L 1091.435021 678.186133 
L 1091.435021 694.574277 
" style="fill:none;stroke:#333333;stroke-linecap:round;stroke-width:1.5;"/>
   </g>
   <g id="line2d_17">
    <path clip-path="url(#pc95c7a4e60)" d="M 307.15336 389.562519 
L 307.15336 373.174375 
L 830.007801 373.174375 
L 830.007801 389.562519 
" style="fill:none;stroke:#333333;stroke-linecap:round;stroke-width:1.5;"/>
   </g>
   <g id="line2d_18">
    <path clip-path="url(#pc95c7a4e60)" d="M 568.58058 292.879787 
L 568.58058 276.491643 
L 1091.435021 276.491643 
L 1091.435021 292.879787 
" style="fill:none;stroke:#333333;stroke-linecap:round;stroke-width:1.5;"/>
   </g>
   <g id="line2d_19">
    <path clip-path="url(#pc95c7a4e60)" d="M 307.15336 191.256346 
L 307.15336 174.868202 
L 1091.435021 174.868202 
L 1091.435021 191.256346 
" style="fill:none;stroke:#333333;stroke-linecap:round;stroke-width:1.5;"/>
   </g>
   <g id="patch_3">
    <path d="M 230.13 1179.94 
L 230.13 96.12 
" style="fill:none;stroke:#cccccc;stroke-linecap:square;stroke-linejoin:miter;stroke-width:2.5;"/>
   </g>
   <g id="patch_4">
    <path d="M 1242 1179.94 
L 1242 96.12 
" style="fill:none;stroke:#cccccc;stroke-linecap:square;stroke-linejoin:miter;stroke-width:2.5;"/>
   </g>
   <g id="patch_5">
    <path d="M 230.13 1179.94 
L 1242 1179.94 
" style="fill:none;stroke:#cccccc;stroke-linecap:square;stroke-linejoin:miter;stroke-width:2.5;"/>
   </g>
   <g id="patch_6">
    <path d="M 230.13 96.12 
L 1242 96.12 
" style="fill:none;stroke:#cccccc;stroke-linecap:square;stroke-linejoin:miter;stroke-width:2.5;"/>
   </g>
   <g id="PathCollection_1">
    <defs>
     <path d="M 0 5 
C 1.326016 5 2.597899 4.473168 3.535534 3.535534 
C 4.473168 2.597899 5 1.326016 5 0 
C 5 -1.326016 4.473168 -2.597899 3.535534 -3.535534 
C 2.597899 -4.473168 1.326016 -5 0 -5 
C -1.326016 -5 -2.597899 -4.473168 -3.535534 -3.535534 
C -4.473168 -2.597899 -5 -1.326016 -5 0 
C -5 1.326016 -4.473168 2.597899 -3.535534 3.535534 
C -2.597899 4.473168 -1.326016 5 0 5 
z
" id="m2ec5df096c" style="stroke:#3d3d3d;stroke-width:2;"/>
    </defs>
    <g clip-path="url(#pc95c7a4e60)">
     <use style="fill:#ffffff;stroke:#3d3d3d;stroke-width:2;" x="307.15336" xlink:href="#m2ec5df096c" y="1045.478336"/>
    </g>
   </g>
   <g id="PathCollection_2">
    <g clip-path="url(#pc95c7a4e60)">
     <use style="fill:#ffffff;stroke:#3d3d3d;stroke-width:2;" x="568.58058" xlink:href="#m2ec5df096c" y="1068.454239"/>
    </g>
   </g>
   <g id="PathCollection_3">
    <g clip-path="url(#pc95c7a4e60)">
     <use style="fill:#ffffff;stroke:#3d3d3d;stroke-width:2;" x="830.007801" xlink:href="#m2ec5df096c" y="1101.745853"/>
    </g>
   </g>
   <g id="PathCollection_4">
    <g clip-path="url(#pc95c7a4e60)">
     <use style="fill:#ffffff;stroke:#3d3d3d;stroke-width:2;" x="1091.435021" xlink:href="#m2ec5df096c" y="1101.745853"/>
    </g>
   </g>
   <g id="text_12">
    <!-- ** -->
    <g transform="translate(679.833253 762.674034)scale(0.5 -0.5)">
     <defs>
      <path d="M 3.125 58.453125 
L 5.375 65.375 
Q 13.140625 62.640625 16.65625 60.640625 
Q 15.71875 69.484375 15.671875 72.796875 
L 22.75 72.796875 
Q 22.609375 67.96875 21.625 60.6875 
Q 26.65625 63.234375 33.15625 65.375 
L 35.40625 58.453125 
Q 29.203125 56.390625 23.25 55.71875 
Q 26.21875 53.125 31.640625 46.484375 
L 25.78125 42.328125 
Q 22.953125 46.1875 19.09375 52.828125 
Q 15.484375 45.953125 12.75 42.328125 
L 6.984375 46.484375 
Q 12.640625 53.46875 15.09375 55.71875 
Q 8.796875 56.9375 3.125 58.453125 
z
" id="ArialMT-42"/>
     </defs>
     <use xlink:href="#ArialMT-42"/>
     <use x="38.916016" xlink:href="#ArialMT-42"/>
    </g>
   </g>
   <g id="text_13">
    <!-- ns -->
    <g transform="translate(934.319067 667.248633)scale(0.5 -0.5)">
     <defs>
      <path d="M 3.078125 15.484375 
L 11.765625 16.84375 
Q 12.5 11.625 15.84375 8.84375 
Q 19.1875 6.0625 25.203125 6.0625 
Q 31.25 6.0625 34.171875 8.515625 
Q 37.109375 10.984375 37.109375 14.3125 
Q 37.109375 17.28125 34.515625 19 
Q 32.71875 20.171875 25.53125 21.96875 
Q 15.875 24.421875 12.140625 26.203125 
Q 8.40625 27.984375 6.46875 31.125 
Q 4.546875 34.28125 4.546875 38.09375 
Q 4.546875 41.546875 6.125 44.5 
Q 7.71875 47.46875 10.453125 49.421875 
Q 12.5 50.921875 16.03125 51.96875 
Q 19.578125 53.03125 23.640625 53.03125 
Q 29.734375 53.03125 34.34375 51.265625 
Q 38.96875 49.515625 41.15625 46.5 
Q 43.359375 43.5 44.1875 38.484375 
L 35.59375 37.3125 
Q 35.015625 41.3125 32.203125 43.546875 
Q 29.390625 45.796875 24.265625 45.796875 
Q 18.21875 45.796875 15.625 43.796875 
Q 13.03125 41.796875 13.03125 39.109375 
Q 13.03125 37.40625 14.109375 36.03125 
Q 15.1875 34.625 17.484375 33.6875 
Q 18.796875 33.203125 25.25 31.453125 
Q 34.578125 28.953125 38.25 27.359375 
Q 41.9375 25.78125 44.03125 22.75 
Q 46.140625 19.734375 46.140625 15.234375 
Q 46.140625 10.84375 43.578125 6.953125 
Q 41.015625 3.078125 36.171875 0.953125 
Q 31.34375 -1.171875 25.25 -1.171875 
Q 15.140625 -1.171875 9.84375 3.03125 
Q 4.546875 7.234375 3.078125 15.484375 
z
" id="ArialMT-115"/>
     </defs>
     <use xlink:href="#ArialMT-110"/>
     <use x="55.615234" xlink:href="#ArialMT-115"/>
    </g>
   </g>
   <g id="text_14">
    <!-- **** -->
    <g transform="translate(529.658705 362.236875)scale(0.5 -0.5)">
     <use xlink:href="#ArialMT-42"/>
     <use x="38.916016" xlink:href="#ArialMT-42"/>
     <use x="77.832031" xlink:href="#ArialMT-42"/>
     <use x="116.748047" xlink:href="#ArialMT-42"/>
    </g>
   </g>
   <g id="text_15">
    <!-- **** -->
    <g transform="translate(791.085926 265.554143)scale(0.5 -0.5)">
     <use xlink:href="#ArialMT-42"/>
     <use x="38.916016" xlink:href="#ArialMT-42"/>
     <use x="77.832031" xlink:href="#ArialMT-42"/>
     <use x="116.748047" xlink:href="#ArialMT-42"/>
    </g>
   </g>
   <g id="text_16">
    <!-- **** -->
    <g transform="translate(660.372315 163.930702)scale(0.5 -0.5)">
     <use xlink:href="#ArialMT-42"/>
     <use x="38.916016" xlink:href="#ArialMT-42"/>
     <use x="77.832031" xlink:href="#ArialMT-42"/>
     <use x="116.748047" xlink:href="#ArialMT-42"/>
    </g>
   </g>
   <g id="text_17">
    <!-- Actinomyces graevenitzii (K.W. p=3.36e-08) -->
    <g transform="translate(250.451719 90.12)scale(0.5 -0.5)">
     <defs>
      <path d="M 6.59375 0 
L 6.59375 51.859375 
L 14.453125 51.859375 
L 14.453125 44.578125 
Q 16.890625 48.390625 20.9375 50.703125 
Q 25 53.03125 30.171875 53.03125 
Q 35.9375 53.03125 39.625 50.640625 
Q 43.3125 48.25 44.828125 43.953125 
Q 50.984375 53.03125 60.84375 53.03125 
Q 68.5625 53.03125 72.703125 48.75 
Q 76.859375 44.484375 76.859375 35.59375 
L 76.859375 0 
L 68.109375 0 
L 68.109375 32.671875 
Q 68.109375 37.9375 67.25 40.25 
Q 66.40625 42.578125 64.15625 43.984375 
Q 61.921875 45.40625 58.890625 45.40625 
Q 53.421875 45.40625 49.796875 41.765625 
Q 46.1875 38.140625 46.1875 30.125 
L 46.1875 0 
L 37.40625 0 
L 37.40625 33.6875 
Q 37.40625 39.546875 35.25 42.46875 
Q 33.109375 45.40625 28.21875 45.40625 
Q 24.515625 45.40625 21.359375 43.453125 
Q 18.21875 41.5 16.796875 37.734375 
Q 15.375 33.984375 15.375 26.90625 
L 15.375 0 
z
" id="ArialMT-109"/>
      <path id="ArialMT-32"/>
      <path d="M 1.953125 0 
L 1.953125 7.125 
L 34.96875 45.015625 
Q 29.34375 44.734375 25.046875 44.734375 
L 3.90625 44.734375 
L 3.90625 51.859375 
L 46.296875 51.859375 
L 46.296875 46.046875 
L 18.21875 13.140625 
L 12.796875 7.125 
Q 18.703125 7.5625 23.875 7.5625 
L 47.859375 7.5625 
L 47.859375 0 
z
" id="ArialMT-122"/>
      <path d="M 23.390625 -21.046875 
Q 16.109375 -11.859375 11.078125 0.4375 
Q 6.0625 12.75 6.0625 25.921875 
Q 6.0625 37.546875 9.8125 48.1875 
Q 14.203125 60.546875 23.390625 72.796875 
L 29.6875 72.796875 
Q 23.78125 62.640625 21.875 58.296875 
Q 18.890625 51.5625 17.1875 44.234375 
Q 15.09375 35.109375 15.09375 25.875 
Q 15.09375 2.390625 29.6875 -21.046875 
z
" id="ArialMT-40"/>
      <path d="M 7.328125 0 
L 7.328125 71.578125 
L 16.796875 71.578125 
L 16.796875 36.078125 
L 52.34375 71.578125 
L 65.1875 71.578125 
L 35.15625 42.578125 
L 66.5 0 
L 54 0 
L 28.515625 36.234375 
L 16.796875 24.8125 
L 16.796875 0 
z
" id="ArialMT-75"/>
      <path d="M 9.078125 0 
L 9.078125 10.015625 
L 19.09375 10.015625 
L 19.09375 0 
z
" id="ArialMT-46"/>
      <path d="M 20.21875 0 
L 1.21875 71.578125 
L 10.9375 71.578125 
L 21.828125 24.65625 
Q 23.578125 17.28125 24.859375 10.015625 
Q 27.59375 21.484375 28.078125 23.25 
L 41.703125 71.578125 
L 53.125 71.578125 
L 63.375 35.359375 
Q 67.234375 21.875 68.953125 10.015625 
Q 70.3125 16.796875 72.515625 25.59375 
L 83.734375 71.578125 
L 93.265625 71.578125 
L 73.640625 0 
L 64.5 0 
L 49.421875 54.546875 
Q 47.515625 61.375 47.171875 62.9375 
Q 46.046875 58.015625 45.0625 54.546875 
L 29.890625 0 
z
" id="ArialMT-87"/>
      <path d="M 6.59375 -19.875 
L 6.59375 51.859375 
L 14.59375 51.859375 
L 14.59375 45.125 
Q 17.4375 49.078125 21 51.046875 
Q 24.5625 53.03125 29.640625 53.03125 
Q 36.28125 53.03125 41.359375 49.609375 
Q 46.4375 46.1875 49.015625 39.953125 
Q 51.609375 33.734375 51.609375 26.3125 
Q 51.609375 18.359375 48.75 11.984375 
Q 45.90625 5.609375 40.453125 2.21875 
Q 35.015625 -1.171875 29 -1.171875 
Q 24.609375 -1.171875 21.109375 0.6875 
Q 17.625 2.546875 15.375 5.375 
L 15.375 -19.875 
z
M 14.546875 25.640625 
Q 14.546875 15.625 18.59375 10.84375 
Q 22.65625 6.0625 28.421875 6.0625 
Q 34.28125 6.0625 38.453125 11.015625 
Q 42.625 15.96875 42.625 26.375 
Q 42.625 36.28125 38.546875 41.203125 
Q 34.46875 46.140625 28.8125 46.140625 
Q 23.1875 46.140625 18.859375 40.890625 
Q 14.546875 35.640625 14.546875 25.640625 
z
" id="ArialMT-112"/>
      <path d="M 52.828125 42.09375 
L 5.5625 42.09375 
L 5.5625 50.296875 
L 52.828125 50.296875 
z
M 52.828125 20.359375 
L 5.5625 20.359375 
L 5.5625 28.5625 
L 52.828125 28.5625 
z
" id="ArialMT-61"/>
      <path d="M 4.203125 18.890625 
L 12.984375 20.0625 
Q 14.5 12.59375 18.140625 9.296875 
Q 21.78125 6 27 6 
Q 33.203125 6 37.46875 10.296875 
Q 41.75 14.59375 41.75 20.953125 
Q 41.75 27 37.796875 30.921875 
Q 33.84375 34.859375 27.734375 34.859375 
Q 25.25 34.859375 21.53125 33.890625 
L 22.515625 41.609375 
Q 23.390625 41.5 23.921875 41.5 
Q 29.546875 41.5 34.03125 44.421875 
Q 38.53125 47.359375 38.53125 53.46875 
Q 38.53125 58.296875 35.25 61.46875 
Q 31.984375 64.65625 26.8125 64.65625 
Q 21.6875 64.65625 18.265625 61.421875 
Q 14.84375 58.203125 13.875 51.765625 
L 5.078125 53.328125 
Q 6.6875 62.15625 12.390625 67.015625 
Q 18.109375 71.875 26.609375 71.875 
Q 32.46875 71.875 37.390625 69.359375 
Q 42.328125 66.84375 44.9375 62.5 
Q 47.5625 58.15625 47.5625 53.265625 
Q 47.5625 48.640625 45.0625 44.828125 
Q 42.578125 41.015625 37.703125 38.765625 
Q 44.046875 37.3125 47.5625 32.6875 
Q 51.078125 28.078125 51.078125 21.140625 
Q 51.078125 11.765625 44.234375 5.25 
Q 37.40625 -1.265625 26.953125 -1.265625 
Q 17.53125 -1.265625 11.296875 4.34375 
Q 5.078125 9.96875 4.203125 18.890625 
z
" id="ArialMT-51"/>
      <path d="M 3.171875 21.484375 
L 3.171875 30.328125 
L 30.171875 30.328125 
L 30.171875 21.484375 
z
" id="ArialMT-45"/>
      <path d="M 12.359375 -21.046875 
L 6.0625 -21.046875 
Q 20.65625 2.390625 20.65625 25.875 
Q 20.65625 35.0625 18.5625 44.09375 
Q 16.890625 51.421875 13.921875 58.15625 
Q 12.015625 62.546875 6.0625 72.796875 
L 12.359375 72.796875 
Q 21.53125 60.546875 25.921875 48.1875 
Q 29.6875 37.546875 29.6875 25.921875 
Q 29.6875 12.75 24.625 0.4375 
Q 19.578125 -11.859375 12.359375 -21.046875 
z
" id="ArialMT-41"/>
     </defs>
     <use xlink:href="#ArialMT-65"/>
     <use x="66.699219" xlink:href="#ArialMT-99"/>
     <use x="116.699219" xlink:href="#ArialMT-116"/>
     <use x="144.482422" xlink:href="#ArialMT-105"/>
     <use x="166.699219" xlink:href="#ArialMT-110"/>
     <use x="222.314453" xlink:href="#ArialMT-111"/>
     <use x="277.929688" xlink:href="#ArialMT-109"/>
     <use x="361.230469" xlink:href="#ArialMT-121"/>
     <use x="411.230469" xlink:href="#ArialMT-99"/>
     <use x="461.230469" xlink:href="#ArialMT-101"/>
     <use x="516.845703" xlink:href="#ArialMT-115"/>
     <use x="566.845703" xlink:href="#ArialMT-32"/>
     <use x="594.628906" xlink:href="#ArialMT-103"/>
     <use x="650.244141" xlink:href="#ArialMT-114"/>
     <use x="683.544922" xlink:href="#ArialMT-97"/>
     <use x="739.160156" xlink:href="#ArialMT-101"/>
     <use x="794.775391" xlink:href="#ArialMT-118"/>
     <use x="844.775391" xlink:href="#ArialMT-101"/>
     <use x="900.390625" xlink:href="#ArialMT-110"/>
     <use x="956.005859" xlink:href="#ArialMT-105"/>
     <use x="978.222656" xlink:href="#ArialMT-116"/>
     <use x="1006.005859" xlink:href="#ArialMT-122"/>
     <use x="1056.005859" xlink:href="#ArialMT-105"/>
     <use x="1078.222656" xlink:href="#ArialMT-105"/>
     <use x="1100.439453" xlink:href="#ArialMT-32"/>
     <use x="1128.222656" xlink:href="#ArialMT-40"/>
     <use x="1161.523438" xlink:href="#ArialMT-75"/>
     <use x="1228.222656" xlink:href="#ArialMT-46"/>
     <use x="1256.005859" xlink:href="#ArialMT-87"/>
     <use x="1344.890625" xlink:href="#ArialMT-46"/>
     <use x="1372.673828" xlink:href="#ArialMT-32"/>
     <use x="1400.457031" xlink:href="#ArialMT-112"/>
     <use x="1456.072266" xlink:href="#ArialMT-61"/>
     <use x="1514.470703" xlink:href="#ArialMT-51"/>
     <use x="1570.085938" xlink:href="#ArialMT-46"/>
     <use x="1597.869141" xlink:href="#ArialMT-51"/>
     <use x="1653.484375" xlink:href="#ArialMT-54"/>
     <use x="1709.099609" xlink:href="#ArialMT-101"/>
     <use x="1764.714844" xlink:href="#ArialMT-45"/>
     <use x="1798.015625" xlink:href="#ArialMT-48"/>
     <use x="1853.630859" xlink:href="#ArialMT-56"/>
     <use x="1909.246094" xlink:href="#ArialMT-41"/>
    </g>
   </g>
  </g>
 </g>
 <defs>
  <clipPath id="pc95c7a4e60">
   <rect height="1083.82" width="1011.87" x="230.13" y="96.12"/>
  </clipPath>
 </defs>
</svg>
