<?xml version="1.0" encoding="utf-8" standalone="no"?>
<!DOCTYPE svg PUBLIC "-//W3C//DTD SVG 1.1//EN"
  "http://www.w3.org/Graphics/SVG/1.1/DTD/svg11.dtd">
<!-- Created with matplotlib (https://matplotlib.org/) -->
<svg height="1296pt" version="1.1" viewBox="0 0 1296 1296" width="1296pt" xmlns="http://www.w3.org/2000/svg" xmlns:xlink="http://www.w3.org/1999/xlink">
 <metadata>
  <rdf:RDF xmlns:cc="http://creativecommons.org/ns#" xmlns:dc="http://purl.org/dc/elements/1.1/" xmlns:rdf="http://www.w3.org/1999/02/22-rdf-syntax-ns#">
   <cc:Work>
    <dc:type rdf:resource="http://purl.org/dc/dcmitype/StillImage"/>
    <dc:date>2022-06-29T13:55:14.246127</dc:date>
    <dc:format>image/svg+xml</dc:format>
    <dc:creator>
     <cc:Agent>
      <dc:title>Matplotlib v3.3.3, https://matplotlib.org/</dc:title>
     </cc:Agent>
    </dc:creator>
   </cc:Work>
  </rdf:RDF>
 </metadata>
 <defs>
  <style type="text/css">*{stroke-linecap:butt;stroke-linejoin:round;}</style>
 </defs>
 <g id="figure_1">
  <g id="patch_1">
   <path d="M 0 1296 
L 1296 1296 
L 1296 0 
L 0 0 
z
" style="fill:#ffffff;"/>
  </g>
  <g id="axes_1">
   <g id="patch_2">
    <path d="M 230.16 1179.94 
L 1225.247518 1179.94 
L 1225.247518 96.24 
L 230.16 96.24 
z
" style="fill:#ffffff;"/>
   </g>
   <g id="matplotlib.axis_1">
    <g id="xtick_1">
     <g id="text_1">
      <!-- Healthy -->
      <g style="fill:#262626;" transform="translate(295.095182 1231.229063)scale(0.5 -0.5)">
       <defs>
        <path d="M 8.015625 0 
L 8.015625 71.578125 
L 17.484375 71.578125 
L 17.484375 42.1875 
L 54.6875 42.1875 
L 54.6875 71.578125 
L 64.15625 71.578125 
L 64.15625 0 
L 54.6875 0 
L 54.6875 33.734375 
L 17.484375 33.734375 
L 17.484375 0 
z
" id="ArialMT-72"/>
        <path d="M 42.09375 16.703125 
L 51.171875 15.578125 
Q 49.03125 7.625 43.21875 3.21875 
Q 37.40625 -1.171875 28.375 -1.171875 
Q 17 -1.171875 10.328125 5.828125 
Q 3.65625 12.84375 3.65625 25.484375 
Q 3.65625 38.578125 10.390625 45.796875 
Q 17.140625 53.03125 27.875 53.03125 
Q 38.28125 53.03125 44.875 45.953125 
Q 51.46875 38.875 51.46875 26.03125 
Q 51.46875 25.25 51.421875 23.6875 
L 12.75 23.6875 
Q 13.234375 15.140625 17.578125 10.59375 
Q 21.921875 6.0625 28.421875 6.0625 
Q 33.25 6.0625 36.671875 8.59375 
Q 40.09375 11.140625 42.09375 16.703125 
z
M 13.234375 30.90625 
L 42.1875 30.90625 
Q 41.609375 37.453125 38.875 40.71875 
Q 34.671875 45.796875 27.984375 45.796875 
Q 21.921875 45.796875 17.796875 41.75 
Q 13.671875 37.703125 13.234375 30.90625 
z
" id="ArialMT-101"/>
        <path d="M 40.4375 6.390625 
Q 35.546875 2.25 31.03125 0.53125 
Q 26.515625 -1.171875 21.34375 -1.171875 
Q 12.796875 -1.171875 8.203125 3 
Q 3.609375 7.171875 3.609375 13.671875 
Q 3.609375 17.484375 5.34375 20.625 
Q 7.078125 23.78125 9.890625 25.6875 
Q 12.703125 27.59375 16.21875 28.5625 
Q 18.796875 29.25 24.03125 29.890625 
Q 34.671875 31.15625 39.703125 32.90625 
Q 39.75 34.71875 39.75 35.203125 
Q 39.75 40.578125 37.25 42.78125 
Q 33.890625 45.75 27.25 45.75 
Q 21.046875 45.75 18.09375 43.578125 
Q 15.140625 41.40625 13.71875 35.890625 
L 5.125 37.0625 
Q 6.296875 42.578125 8.984375 45.96875 
Q 11.671875 49.359375 16.75 51.1875 
Q 21.828125 53.03125 28.515625 53.03125 
Q 35.15625 53.03125 39.296875 51.46875 
Q 43.453125 49.90625 45.40625 47.53125 
Q 47.359375 45.171875 48.140625 41.546875 
Q 48.578125 39.3125 48.578125 33.453125 
L 48.578125 21.734375 
Q 48.578125 9.46875 49.140625 6.21875 
Q 49.703125 2.984375 51.375 0 
L 42.1875 0 
Q 40.828125 2.734375 40.4375 6.390625 
z
M 39.703125 26.03125 
Q 34.90625 24.078125 25.34375 22.703125 
Q 19.921875 21.921875 17.671875 20.9375 
Q 15.4375 19.96875 14.203125 18.09375 
Q 12.984375 16.21875 12.984375 13.921875 
Q 12.984375 10.40625 15.640625 8.0625 
Q 18.3125 5.71875 23.4375 5.71875 
Q 28.515625 5.71875 32.46875 7.9375 
Q 36.421875 10.15625 38.28125 14.015625 
Q 39.703125 17 39.703125 22.796875 
z
" id="ArialMT-97"/>
        <path d="M 6.390625 0 
L 6.390625 71.578125 
L 15.1875 71.578125 
L 15.1875 0 
z
" id="ArialMT-108"/>
        <path d="M 25.78125 7.859375 
L 27.046875 0.09375 
Q 23.34375 -0.6875 20.40625 -0.6875 
Q 15.625 -0.6875 12.984375 0.828125 
Q 10.359375 2.34375 9.28125 4.8125 
Q 8.203125 7.28125 8.203125 15.1875 
L 8.203125 45.015625 
L 1.765625 45.015625 
L 1.765625 51.859375 
L 8.203125 51.859375 
L 8.203125 64.703125 
L 16.9375 69.96875 
L 16.9375 51.859375 
L 25.78125 51.859375 
L 25.78125 45.015625 
L 16.9375 45.015625 
L 16.9375 14.703125 
Q 16.9375 10.9375 17.40625 9.859375 
Q 17.875 8.796875 18.921875 8.15625 
Q 19.96875 7.515625 21.921875 7.515625 
Q 23.390625 7.515625 25.78125 7.859375 
z
" id="ArialMT-116"/>
        <path d="M 6.59375 0 
L 6.59375 71.578125 
L 15.375 71.578125 
L 15.375 45.90625 
Q 21.53125 53.03125 30.90625 53.03125 
Q 36.671875 53.03125 40.921875 50.75 
Q 45.171875 48.484375 47 44.484375 
Q 48.828125 40.484375 48.828125 32.859375 
L 48.828125 0 
L 40.046875 0 
L 40.046875 32.859375 
Q 40.046875 39.453125 37.1875 42.453125 
Q 34.328125 45.453125 29.109375 45.453125 
Q 25.203125 45.453125 21.75 43.421875 
Q 18.3125 41.40625 16.84375 37.9375 
Q 15.375 34.46875 15.375 28.375 
L 15.375 0 
z
" id="ArialMT-104"/>
        <path d="M 6.203125 -19.96875 
L 5.21875 -11.71875 
Q 8.109375 -12.5 10.25 -12.5 
Q 13.1875 -12.5 14.9375 -11.515625 
Q 16.703125 -10.546875 17.828125 -8.796875 
Q 18.65625 -7.46875 20.515625 -2.25 
Q 20.75 -1.515625 21.296875 -0.09375 
L 1.609375 51.859375 
L 11.078125 51.859375 
L 21.875 21.828125 
Q 23.96875 16.109375 25.640625 9.8125 
Q 27.15625 15.875 29.25 21.625 
L 40.328125 51.859375 
L 49.125 51.859375 
L 29.390625 -0.875 
Q 26.21875 -9.421875 24.46875 -12.640625 
Q 22.125 -17 19.09375 -19.015625 
Q 16.0625 -21.046875 11.859375 -21.046875 
Q 9.328125 -21.046875 6.203125 -19.96875 
z
" id="ArialMT-121"/>
       </defs>
       <use xlink:href="#ArialMT-72"/>
       <use x="72.216797" xlink:href="#ArialMT-101"/>
       <use x="127.832031" xlink:href="#ArialMT-97"/>
       <use x="183.447266" xlink:href="#ArialMT-108"/>
       <use x="205.664062" xlink:href="#ArialMT-116"/>
       <use x="233.447266" xlink:href="#ArialMT-104"/>
       <use x="289.0625" xlink:href="#ArialMT-121"/>
      </g>
     </g>
    </g>
    <g id="xtick_2">
     <g id="text_2">
      <!-- Slight -->
      <g style="fill:#262626;" transform="translate(578.485868 1231.838438)scale(0.5 -0.5)">
       <defs>
        <path d="M 4.5 23 
L 13.421875 23.78125 
Q 14.0625 18.40625 16.375 14.96875 
Q 18.703125 11.53125 23.578125 9.40625 
Q 28.46875 7.28125 34.578125 7.28125 
Q 39.984375 7.28125 44.140625 8.890625 
Q 48.296875 10.5 50.3125 13.296875 
Q 52.34375 16.109375 52.34375 19.4375 
Q 52.34375 22.796875 50.390625 25.3125 
Q 48.4375 27.828125 43.953125 29.546875 
Q 41.0625 30.671875 31.203125 33.03125 
Q 21.34375 35.40625 17.390625 37.5 
Q 12.25 40.1875 9.734375 44.15625 
Q 7.234375 48.140625 7.234375 53.078125 
Q 7.234375 58.5 10.296875 63.203125 
Q 13.375 67.921875 19.28125 70.359375 
Q 25.203125 72.796875 32.421875 72.796875 
Q 40.375 72.796875 46.453125 70.234375 
Q 52.546875 67.671875 55.8125 62.6875 
Q 59.078125 57.71875 59.328125 51.421875 
L 50.25 50.734375 
Q 49.515625 57.515625 45.28125 60.984375 
Q 41.0625 64.453125 32.8125 64.453125 
Q 24.21875 64.453125 20.28125 61.296875 
Q 16.359375 58.15625 16.359375 53.71875 
Q 16.359375 49.859375 19.140625 47.359375 
Q 21.875 44.875 33.421875 42.265625 
Q 44.96875 39.65625 49.265625 37.703125 
Q 55.515625 34.8125 58.484375 30.390625 
Q 61.46875 25.984375 61.46875 20.21875 
Q 61.46875 14.5 58.203125 9.4375 
Q 54.9375 4.390625 48.796875 1.578125 
Q 42.671875 -1.21875 35.015625 -1.21875 
Q 25.296875 -1.21875 18.71875 1.609375 
Q 12.15625 4.4375 8.421875 10.125 
Q 4.6875 15.828125 4.5 23 
z
" id="ArialMT-83"/>
        <path d="M 6.640625 61.46875 
L 6.640625 71.578125 
L 15.4375 71.578125 
L 15.4375 61.46875 
z
M 6.640625 0 
L 6.640625 51.859375 
L 15.4375 51.859375 
L 15.4375 0 
z
" id="ArialMT-105"/>
        <path d="M 4.984375 -4.296875 
L 13.53125 -5.5625 
Q 14.0625 -9.515625 16.5 -11.328125 
Q 19.78125 -13.765625 25.4375 -13.765625 
Q 31.546875 -13.765625 34.859375 -11.328125 
Q 38.1875 -8.890625 39.359375 -4.5 
Q 40.046875 -1.8125 39.984375 6.78125 
Q 34.234375 0 25.640625 0 
Q 14.9375 0 9.078125 7.71875 
Q 3.21875 15.4375 3.21875 26.21875 
Q 3.21875 33.640625 5.90625 39.90625 
Q 8.59375 46.1875 13.6875 49.609375 
Q 18.796875 53.03125 25.6875 53.03125 
Q 34.859375 53.03125 40.828125 45.609375 
L 40.828125 51.859375 
L 48.921875 51.859375 
L 48.921875 7.03125 
Q 48.921875 -5.078125 46.453125 -10.125 
Q 44 -15.1875 38.640625 -18.109375 
Q 33.296875 -21.046875 25.484375 -21.046875 
Q 16.21875 -21.046875 10.5 -16.875 
Q 4.78125 -12.703125 4.984375 -4.296875 
z
M 12.25 26.859375 
Q 12.25 16.65625 16.296875 11.96875 
Q 20.359375 7.28125 26.46875 7.28125 
Q 32.515625 7.28125 36.609375 11.9375 
Q 40.71875 16.609375 40.71875 26.5625 
Q 40.71875 36.078125 36.5 40.90625 
Q 32.28125 45.75 26.3125 45.75 
Q 20.453125 45.75 16.34375 40.984375 
Q 12.25 36.234375 12.25 26.859375 
z
" id="ArialMT-103"/>
       </defs>
       <use xlink:href="#ArialMT-83"/>
       <use x="66.699219" xlink:href="#ArialMT-108"/>
       <use x="88.916016" xlink:href="#ArialMT-105"/>
       <use x="111.132812" xlink:href="#ArialMT-103"/>
       <use x="166.748047" xlink:href="#ArialMT-104"/>
       <use x="222.363281" xlink:href="#ArialMT-116"/>
      </g>
     </g>
    </g>
    <g id="xtick_3">
     <g id="text_3">
      <!-- Moderate -->
      <g style="fill:#262626;" transform="translate(796.579679 1231.229063)scale(0.5 -0.5)">
       <defs>
        <path d="M 7.421875 0 
L 7.421875 71.578125 
L 21.6875 71.578125 
L 38.625 20.90625 
Q 40.96875 13.8125 42.046875 10.296875 
Q 43.265625 14.203125 45.84375 21.78125 
L 62.984375 71.578125 
L 75.734375 71.578125 
L 75.734375 0 
L 66.609375 0 
L 66.609375 59.90625 
L 45.796875 0 
L 37.25 0 
L 16.546875 60.9375 
L 16.546875 0 
z
" id="ArialMT-77"/>
        <path d="M 3.328125 25.921875 
Q 3.328125 40.328125 11.328125 47.265625 
Q 18.015625 53.03125 27.640625 53.03125 
Q 38.328125 53.03125 45.109375 46.015625 
Q 51.90625 39.015625 51.90625 26.65625 
Q 51.90625 16.65625 48.90625 10.90625 
Q 45.90625 5.171875 40.15625 2 
Q 34.421875 -1.171875 27.640625 -1.171875 
Q 16.75 -1.171875 10.03125 5.8125 
Q 3.328125 12.796875 3.328125 25.921875 
z
M 12.359375 25.921875 
Q 12.359375 15.96875 16.703125 11.015625 
Q 21.046875 6.0625 27.640625 6.0625 
Q 34.1875 6.0625 38.53125 11.03125 
Q 42.875 16.015625 42.875 26.21875 
Q 42.875 35.84375 38.5 40.796875 
Q 34.125 45.75 27.640625 45.75 
Q 21.046875 45.75 16.703125 40.8125 
Q 12.359375 35.890625 12.359375 25.921875 
z
" id="ArialMT-111"/>
        <path d="M 40.234375 0 
L 40.234375 6.546875 
Q 35.296875 -1.171875 25.734375 -1.171875 
Q 19.53125 -1.171875 14.328125 2.25 
Q 9.125 5.671875 6.265625 11.796875 
Q 3.421875 17.921875 3.421875 25.875 
Q 3.421875 33.640625 6 39.96875 
Q 8.59375 46.296875 13.765625 49.65625 
Q 18.953125 53.03125 25.34375 53.03125 
Q 30.03125 53.03125 33.6875 51.046875 
Q 37.359375 49.078125 39.65625 45.90625 
L 39.65625 71.578125 
L 48.390625 71.578125 
L 48.390625 0 
z
M 12.453125 25.875 
Q 12.453125 15.921875 16.640625 10.984375 
Q 20.84375 6.0625 26.5625 6.0625 
Q 32.328125 6.0625 36.34375 10.765625 
Q 40.375 15.484375 40.375 25.140625 
Q 40.375 35.796875 36.265625 40.765625 
Q 32.171875 45.75 26.171875 45.75 
Q 20.3125 45.75 16.375 40.96875 
Q 12.453125 36.1875 12.453125 25.875 
z
" id="ArialMT-100"/>
        <path d="M 6.5 0 
L 6.5 51.859375 
L 14.40625 51.859375 
L 14.40625 44 
Q 17.4375 49.515625 20 51.265625 
Q 22.5625 53.03125 25.640625 53.03125 
Q 30.078125 53.03125 34.671875 50.203125 
L 31.640625 42.046875 
Q 28.421875 43.953125 25.203125 43.953125 
Q 22.3125 43.953125 20.015625 42.21875 
Q 17.71875 40.484375 16.75 37.40625 
Q 15.28125 32.71875 15.28125 27.15625 
L 15.28125 0 
z
" id="ArialMT-114"/>
       </defs>
       <use xlink:href="#ArialMT-77"/>
       <use x="83.300781" xlink:href="#ArialMT-111"/>
       <use x="138.916016" xlink:href="#ArialMT-100"/>
       <use x="194.53125" xlink:href="#ArialMT-101"/>
       <use x="250.146484" xlink:href="#ArialMT-114"/>
       <use x="283.447266" xlink:href="#ArialMT-97"/>
       <use x="339.0625" xlink:href="#ArialMT-116"/>
       <use x="366.845703" xlink:href="#ArialMT-101"/>
      </g>
     </g>
    </g>
    <g id="xtick_4">
     <g id="text_4">
      <!-- Severe -->
      <g style="fill:#262626;" transform="translate(1084.142241 1231.229063)scale(0.5 -0.5)">
       <defs>
        <path d="M 21 0 
L 1.265625 51.859375 
L 10.546875 51.859375 
L 21.6875 20.796875 
Q 23.484375 15.765625 25 10.359375 
Q 26.171875 14.453125 28.265625 20.21875 
L 39.796875 51.859375 
L 48.828125 51.859375 
L 29.203125 0 
z
" id="ArialMT-118"/>
       </defs>
       <use xlink:href="#ArialMT-83"/>
       <use x="66.699219" xlink:href="#ArialMT-101"/>
       <use x="122.314453" xlink:href="#ArialMT-118"/>
       <use x="172.314453" xlink:href="#ArialMT-101"/>
       <use x="227.929688" xlink:href="#ArialMT-114"/>
       <use x="261.230469" xlink:href="#ArialMT-101"/>
      </g>
     </g>
    </g>
   </g>
   <g id="matplotlib.axis_2">
    <g id="ytick_1">
     <g id="line2d_1">
      <path clip-path="url(#p2b8b6f69b9)" d="M 230.16 1086.387131 
L 1225.247518 1086.387131 
" style="fill:none;stroke:#cccccc;stroke-linecap:round;stroke-width:2;"/>
     </g>
     <g id="text_5">
      <!-- 0 -->
      <g style="fill:#262626;" transform="translate(186.855313 1104.281662)scale(0.5 -0.5)">
       <defs>
        <path d="M 4.15625 35.296875 
Q 4.15625 48 6.765625 55.734375 
Q 9.375 63.484375 14.515625 67.671875 
Q 19.671875 71.875 27.484375 71.875 
Q 33.25 71.875 37.59375 69.546875 
Q 41.9375 67.234375 44.765625 62.859375 
Q 47.609375 58.5 49.21875 52.21875 
Q 50.828125 45.953125 50.828125 35.296875 
Q 50.828125 22.703125 48.234375 14.96875 
Q 45.65625 7.234375 40.5 3 
Q 35.359375 -1.21875 27.484375 -1.21875 
Q 17.140625 -1.21875 11.234375 6.203125 
Q 4.15625 15.140625 4.15625 35.296875 
z
M 13.1875 35.296875 
Q 13.1875 17.671875 17.3125 11.828125 
Q 21.4375 6 27.484375 6 
Q 33.546875 6 37.671875 11.859375 
Q 41.796875 17.71875 41.796875 35.296875 
Q 41.796875 52.984375 37.671875 58.78125 
Q 33.546875 64.59375 27.390625 64.59375 
Q 21.34375 64.59375 17.71875 59.46875 
Q 13.1875 52.9375 13.1875 35.296875 
z
" id="ArialMT-48"/>
       </defs>
       <use xlink:href="#ArialMT-48"/>
      </g>
     </g>
    </g>
    <g id="ytick_2">
     <g id="line2d_2">
      <path clip-path="url(#p2b8b6f69b9)" d="M 230.16 951.018358 
L 1225.247518 951.018358 
" style="fill:none;stroke:#cccccc;stroke-linecap:round;stroke-width:2;"/>
     </g>
     <g id="text_6">
      <!-- 200 -->
      <g style="fill:#262626;" transform="translate(131.245938 968.912889)scale(0.5 -0.5)">
       <defs>
        <path d="M 50.34375 8.453125 
L 50.34375 0 
L 3.03125 0 
Q 2.9375 3.171875 4.046875 6.109375 
Q 5.859375 10.9375 9.828125 15.625 
Q 13.8125 20.3125 21.34375 26.46875 
Q 33.015625 36.03125 37.109375 41.625 
Q 41.21875 47.21875 41.21875 52.203125 
Q 41.21875 57.421875 37.46875 61 
Q 33.734375 64.59375 27.734375 64.59375 
Q 21.390625 64.59375 17.578125 60.78125 
Q 13.765625 56.984375 13.71875 50.25 
L 4.6875 51.171875 
Q 5.609375 61.28125 11.65625 66.578125 
Q 17.71875 71.875 27.9375 71.875 
Q 38.234375 71.875 44.234375 66.15625 
Q 50.25 60.453125 50.25 52 
Q 50.25 47.703125 48.484375 43.546875 
Q 46.734375 39.40625 42.65625 34.8125 
Q 38.578125 30.21875 29.109375 22.21875 
Q 21.1875 15.578125 18.9375 13.203125 
Q 16.703125 10.84375 15.234375 8.453125 
z
" id="ArialMT-50"/>
       </defs>
       <use xlink:href="#ArialMT-50"/>
       <use x="55.615234" xlink:href="#ArialMT-48"/>
       <use x="111.230469" xlink:href="#ArialMT-48"/>
      </g>
     </g>
    </g>
    <g id="ytick_3">
     <g id="line2d_3">
      <path clip-path="url(#p2b8b6f69b9)" d="M 230.16 815.649585 
L 1225.247518 815.649585 
" style="fill:none;stroke:#cccccc;stroke-linecap:round;stroke-width:2;"/>
     </g>
     <g id="text_7">
      <!-- 400 -->
      <g style="fill:#262626;" transform="translate(131.245938 833.544116)scale(0.5 -0.5)">
       <defs>
        <path d="M 32.328125 0 
L 32.328125 17.140625 
L 1.265625 17.140625 
L 1.265625 25.203125 
L 33.9375 71.578125 
L 41.109375 71.578125 
L 41.109375 25.203125 
L 50.78125 25.203125 
L 50.78125 17.140625 
L 41.109375 17.140625 
L 41.109375 0 
z
M 32.328125 25.203125 
L 32.328125 57.46875 
L 9.90625 25.203125 
z
" id="ArialMT-52"/>
       </defs>
       <use xlink:href="#ArialMT-52"/>
       <use x="55.615234" xlink:href="#ArialMT-48"/>
       <use x="111.230469" xlink:href="#ArialMT-48"/>
      </g>
     </g>
    </g>
    <g id="ytick_4">
     <g id="line2d_4">
      <path clip-path="url(#p2b8b6f69b9)" d="M 230.16 680.280811 
L 1225.247518 680.280811 
" style="fill:none;stroke:#cccccc;stroke-linecap:round;stroke-width:2;"/>
     </g>
     <g id="text_8">
      <!-- 600 -->
      <g style="fill:#262626;" transform="translate(131.245938 698.175343)scale(0.5 -0.5)">
       <defs>
        <path d="M 49.75 54.046875 
L 41.015625 53.375 
Q 39.84375 58.546875 37.703125 60.890625 
Q 34.125 64.65625 28.90625 64.65625 
Q 24.703125 64.65625 21.53125 62.3125 
Q 17.390625 59.28125 14.984375 53.46875 
Q 12.59375 47.65625 12.5 36.921875 
Q 15.671875 41.75 20.265625 44.09375 
Q 24.859375 46.4375 29.890625 46.4375 
Q 38.671875 46.4375 44.84375 39.96875 
Q 51.03125 33.5 51.03125 23.25 
Q 51.03125 16.5 48.125 10.71875 
Q 45.21875 4.9375 40.140625 1.859375 
Q 35.0625 -1.21875 28.609375 -1.21875 
Q 17.625 -1.21875 10.6875 6.859375 
Q 3.765625 14.9375 3.765625 33.5 
Q 3.765625 54.25 11.421875 63.671875 
Q 18.109375 71.875 29.4375 71.875 
Q 37.890625 71.875 43.28125 67.140625 
Q 48.6875 62.40625 49.75 54.046875 
z
M 13.875 23.1875 
Q 13.875 18.65625 15.796875 14.5 
Q 17.71875 10.359375 21.1875 8.171875 
Q 24.65625 6 28.46875 6 
Q 34.03125 6 38.03125 10.484375 
Q 42.046875 14.984375 42.046875 22.703125 
Q 42.046875 30.125 38.078125 34.390625 
Q 34.125 38.671875 28.125 38.671875 
Q 22.171875 38.671875 18.015625 34.390625 
Q 13.875 30.125 13.875 23.1875 
z
" id="ArialMT-54"/>
       </defs>
       <use xlink:href="#ArialMT-54"/>
       <use x="55.615234" xlink:href="#ArialMT-48"/>
       <use x="111.230469" xlink:href="#ArialMT-48"/>
      </g>
     </g>
    </g>
    <g id="ytick_5">
     <g id="line2d_5">
      <path clip-path="url(#p2b8b6f69b9)" d="M 230.16 544.912038 
L 1225.247518 544.912038 
" style="fill:none;stroke:#cccccc;stroke-linecap:round;stroke-width:2;"/>
     </g>
     <g id="text_9">
      <!-- 800 -->
      <g style="fill:#262626;" transform="translate(131.245938 562.806569)scale(0.5 -0.5)">
       <defs>
        <path d="M 17.671875 38.8125 
Q 12.203125 40.828125 9.5625 44.53125 
Q 6.9375 48.25 6.9375 53.421875 
Q 6.9375 61.234375 12.546875 66.546875 
Q 18.171875 71.875 27.484375 71.875 
Q 36.859375 71.875 42.578125 66.421875 
Q 48.296875 60.984375 48.296875 53.171875 
Q 48.296875 48.1875 45.671875 44.5 
Q 43.0625 40.828125 37.75 38.8125 
Q 44.34375 36.671875 47.78125 31.875 
Q 51.21875 27.09375 51.21875 20.453125 
Q 51.21875 11.28125 44.71875 5.03125 
Q 38.234375 -1.21875 27.640625 -1.21875 
Q 17.046875 -1.21875 10.546875 5.046875 
Q 4.046875 11.328125 4.046875 20.703125 
Q 4.046875 27.6875 7.59375 32.390625 
Q 11.140625 37.109375 17.671875 38.8125 
z
M 15.921875 53.71875 
Q 15.921875 48.640625 19.1875 45.40625 
Q 22.46875 42.1875 27.6875 42.1875 
Q 32.765625 42.1875 36.015625 45.375 
Q 39.265625 48.578125 39.265625 53.21875 
Q 39.265625 58.0625 35.90625 61.359375 
Q 32.5625 64.65625 27.59375 64.65625 
Q 22.5625 64.65625 19.234375 61.421875 
Q 15.921875 58.203125 15.921875 53.71875 
z
M 13.09375 20.65625 
Q 13.09375 16.890625 14.875 13.375 
Q 16.65625 9.859375 20.171875 7.921875 
Q 23.6875 6 27.734375 6 
Q 34.03125 6 38.125 10.046875 
Q 42.234375 14.109375 42.234375 20.359375 
Q 42.234375 26.703125 38.015625 30.859375 
Q 33.796875 35.015625 27.4375 35.015625 
Q 21.234375 35.015625 17.15625 30.90625 
Q 13.09375 26.8125 13.09375 20.65625 
z
" id="ArialMT-56"/>
       </defs>
       <use xlink:href="#ArialMT-56"/>
       <use x="55.615234" xlink:href="#ArialMT-48"/>
       <use x="111.230469" xlink:href="#ArialMT-48"/>
      </g>
     </g>
    </g>
    <g id="ytick_6">
     <g id="line2d_6">
      <path clip-path="url(#p2b8b6f69b9)" d="M 230.16 409.543265 
L 1225.247518 409.543265 
" style="fill:none;stroke:#cccccc;stroke-linecap:round;stroke-width:2;"/>
     </g>
     <g id="text_10">
      <!-- 1000 -->
      <g style="fill:#262626;" transform="translate(103.44125 427.437796)scale(0.5 -0.5)">
       <defs>
        <path d="M 37.25 0 
L 28.46875 0 
L 28.46875 56 
Q 25.296875 52.984375 20.140625 49.953125 
Q 14.984375 46.921875 10.890625 45.40625 
L 10.890625 53.90625 
Q 18.265625 57.375 23.78125 62.296875 
Q 29.296875 67.234375 31.59375 71.875 
L 37.25 71.875 
z
" id="ArialMT-49"/>
       </defs>
       <use xlink:href="#ArialMT-49"/>
       <use x="55.615234" xlink:href="#ArialMT-48"/>
       <use x="111.230469" xlink:href="#ArialMT-48"/>
       <use x="166.845703" xlink:href="#ArialMT-48"/>
      </g>
     </g>
    </g>
    <g id="ytick_7">
     <g id="line2d_7">
      <path clip-path="url(#p2b8b6f69b9)" d="M 230.16 274.174491 
L 1225.247518 274.174491 
" style="fill:none;stroke:#cccccc;stroke-linecap:round;stroke-width:2;"/>
     </g>
     <g id="text_11">
      <!-- 1200 -->
      <g style="fill:#262626;" transform="translate(103.44125 292.069023)scale(0.5 -0.5)">
       <use xlink:href="#ArialMT-49"/>
       <use x="55.615234" xlink:href="#ArialMT-50"/>
       <use x="111.230469" xlink:href="#ArialMT-48"/>
       <use x="166.845703" xlink:href="#ArialMT-48"/>
      </g>
     </g>
    </g>
    <g id="ytick_8">
     <g id="line2d_8">
      <path clip-path="url(#p2b8b6f69b9)" d="M 230.16 138.805718 
L 1225.247518 138.805718 
" style="fill:none;stroke:#cccccc;stroke-linecap:round;stroke-width:2;"/>
     </g>
     <g id="text_12">
      <!-- 1400 -->
      <g style="fill:#262626;" transform="translate(103.44125 156.700249)scale(0.5 -0.5)">
       <use xlink:href="#ArialMT-49"/>
       <use x="55.615234" xlink:href="#ArialMT-52"/>
       <use x="111.230469" xlink:href="#ArialMT-48"/>
       <use x="166.845703" xlink:href="#ArialMT-48"/>
      </g>
     </g>
    </g>
    <g id="text_13">
     <!-- Abundance -->
     <g style="fill:#262626;" transform="translate(89.50375 764.582187)rotate(-90)scale(0.5 -0.5)">
      <defs>
       <path d="M -0.140625 0 
L 27.34375 71.578125 
L 37.546875 71.578125 
L 66.84375 0 
L 56.0625 0 
L 47.703125 21.6875 
L 17.78125 21.6875 
L 9.90625 0 
z
M 20.515625 29.390625 
L 44.78125 29.390625 
L 37.3125 49.21875 
Q 33.890625 58.25 32.234375 64.0625 
Q 30.859375 57.171875 28.375 50.390625 
z
" id="ArialMT-65"/>
       <path d="M 14.703125 0 
L 6.546875 0 
L 6.546875 71.578125 
L 15.328125 71.578125 
L 15.328125 46.046875 
Q 20.90625 53.03125 29.546875 53.03125 
Q 34.328125 53.03125 38.59375 51.09375 
Q 42.875 49.171875 45.625 45.671875 
Q 48.390625 42.1875 49.953125 37.25 
Q 51.515625 32.328125 51.515625 26.703125 
Q 51.515625 13.375 44.921875 6.09375 
Q 38.328125 -1.171875 29.109375 -1.171875 
Q 19.921875 -1.171875 14.703125 6.5 
z
M 14.59375 26.3125 
Q 14.59375 17 17.140625 12.84375 
Q 21.296875 6.0625 28.375 6.0625 
Q 34.125 6.0625 38.328125 11.0625 
Q 42.53125 16.0625 42.53125 25.984375 
Q 42.53125 36.140625 38.5 40.96875 
Q 34.46875 45.796875 28.765625 45.796875 
Q 23 45.796875 18.796875 40.796875 
Q 14.59375 35.796875 14.59375 26.3125 
z
" id="ArialMT-98"/>
       <path d="M 40.578125 0 
L 40.578125 7.625 
Q 34.515625 -1.171875 24.125 -1.171875 
Q 19.53125 -1.171875 15.546875 0.578125 
Q 11.578125 2.34375 9.640625 5 
Q 7.71875 7.671875 6.9375 11.53125 
Q 6.390625 14.109375 6.390625 19.734375 
L 6.390625 51.859375 
L 15.1875 51.859375 
L 15.1875 23.09375 
Q 15.1875 16.21875 15.71875 13.8125 
Q 16.546875 10.359375 19.234375 8.375 
Q 21.921875 6.390625 25.875 6.390625 
Q 29.828125 6.390625 33.296875 8.421875 
Q 36.765625 10.453125 38.203125 13.9375 
Q 39.65625 17.4375 39.65625 24.078125 
L 39.65625 51.859375 
L 48.4375 51.859375 
L 48.4375 0 
z
" id="ArialMT-117"/>
       <path d="M 6.59375 0 
L 6.59375 51.859375 
L 14.5 51.859375 
L 14.5 44.484375 
Q 20.21875 53.03125 31 53.03125 
Q 35.6875 53.03125 39.625 51.34375 
Q 43.5625 49.65625 45.515625 46.921875 
Q 47.46875 44.1875 48.25 40.4375 
Q 48.734375 37.984375 48.734375 31.890625 
L 48.734375 0 
L 39.9375 0 
L 39.9375 31.546875 
Q 39.9375 36.921875 38.90625 39.578125 
Q 37.890625 42.234375 35.28125 43.8125 
Q 32.671875 45.40625 29.15625 45.40625 
Q 23.53125 45.40625 19.453125 41.84375 
Q 15.375 38.28125 15.375 28.328125 
L 15.375 0 
z
" id="ArialMT-110"/>
       <path d="M 40.4375 19 
L 49.078125 17.875 
Q 47.65625 8.9375 41.8125 3.875 
Q 35.984375 -1.171875 27.484375 -1.171875 
Q 16.84375 -1.171875 10.375 5.78125 
Q 3.90625 12.75 3.90625 25.734375 
Q 3.90625 34.125 6.6875 40.421875 
Q 9.46875 46.734375 15.15625 49.875 
Q 20.84375 53.03125 27.546875 53.03125 
Q 35.984375 53.03125 41.359375 48.75 
Q 46.734375 44.484375 48.25 36.625 
L 39.703125 35.296875 
Q 38.484375 40.53125 35.375 43.15625 
Q 32.28125 45.796875 27.875 45.796875 
Q 21.234375 45.796875 17.078125 41.03125 
Q 12.9375 36.28125 12.9375 25.984375 
Q 12.9375 15.53125 16.9375 10.796875 
Q 20.953125 6.0625 27.390625 6.0625 
Q 32.5625 6.0625 36.03125 9.234375 
Q 39.5 12.40625 40.4375 19 
z
" id="ArialMT-99"/>
      </defs>
      <use xlink:href="#ArialMT-65"/>
      <use x="66.699219" xlink:href="#ArialMT-98"/>
      <use x="122.314453" xlink:href="#ArialMT-117"/>
      <use x="177.929688" xlink:href="#ArialMT-110"/>
      <use x="233.544922" xlink:href="#ArialMT-100"/>
      <use x="289.160156" xlink:href="#ArialMT-97"/>
      <use x="344.775391" xlink:href="#ArialMT-110"/>
      <use x="400.390625" xlink:href="#ArialMT-99"/>
      <use x="450.390625" xlink:href="#ArialMT-101"/>
     </g>
    </g>
   </g>
   <g id="PolyCollection_1">
    <defs>
     <path d="M 439.695748 -199.333422 
L 320.018052 -199.333422 
L 312.361475 -200.600793 
L 304.841176 -201.868164 
L 297.701079 -203.135534 
L 291.190997 -204.402905 
L 285.551845 -205.670275 
L 281.000374 -206.937646 
L 277.714763 -208.205017 
L 275.822434 -209.472387 
L 275.391251 -210.739758 
L 276.424961 -212.007129 
L 278.863312 -213.274499 
L 282.586797 -214.54187 
L 287.425525 -215.809241 
L 293.171301 -217.076611 
L 299.591739 -218.343982 
L 306.445099 -219.611352 
L 313.494559 -220.878723 
L 320.520806 -222.146094 
L 327.332107 -223.413464 
L 333.771324 -224.680835 
L 339.719727 -225.948206 
L 345.097725 -227.215576 
L 349.862935 -228.482947 
L 354.006138 -229.750317 
L 357.545796 -231.017688 
L 360.52177 -232.285059 
L 362.98886 -233.552429 
L 365.01065 -234.8198 
L 366.654041 -236.087171 
L 367.98472 -237.354541 
L 369.063665 -238.621912 
L 369.944724 -239.889283 
L 370.673201 -241.156653 
L 371.285312 -242.424024 
L 371.80837 -243.691394 
L 372.26153 -244.958765 
L 372.656903 -246.226136 
L 373.00091 -247.493506 
L 373.295704 -248.760877 
L 373.540582 -250.028248 
L 373.733271 -251.295618 
L 373.87105 -252.562989 
L 373.951661 -253.830359 
L 373.974004 -255.09773 
L 373.9386 -256.365101 
L 373.847856 -257.632471 
L 373.706134 -258.899842 
L 373.519648 -260.167213 
L 373.296231 -261.434583 
L 373.044987 -262.701954 
L 372.775866 -263.969325 
L 372.499194 -265.236695 
L 372.225203 -266.504066 
L 371.963581 -267.771436 
L 371.723084 -269.038807 
L 371.511231 -270.306178 
L 371.334104 -271.573548 
L 371.196253 -272.840919 
L 371.100709 -274.10829 
L 371.049074 -275.37566 
L 371.04168 -276.643031 
L 371.07778 -277.910401 
L 371.155736 -279.177772 
L 371.273196 -280.445143 
L 371.427219 -281.712513 
L 371.614373 -282.979884 
L 371.830783 -284.247255 
L 372.072154 -285.514625 
L 372.33379 -286.781996 
L 372.610628 -288.049367 
L 372.897293 -289.316737 
L 373.188211 -290.584108 
L 373.477757 -291.851478 
L 373.760451 -293.118849 
L 374.031195 -294.38622 
L 374.285513 -295.65359 
L 374.51979 -296.920961 
L 374.731493 -298.188332 
L 374.919328 -299.455702 
L 375.083349 -300.723073 
L 375.224977 -301.990443 
L 375.346942 -303.257814 
L 375.453135 -304.525185 
L 375.548381 -305.792555 
L 375.638141 -307.059926 
L 375.728159 -308.327297 
L 375.824088 -309.594667 
L 375.931103 -310.862038 
L 376.053547 -312.129409 
L 376.194633 -313.396779 
L 376.356224 -314.66415 
L 376.538718 -315.93152 
L 376.741043 -317.198891 
L 376.960756 -318.466262 
L 377.194257 -319.733632 
L 377.437066 -321.001003 
L 377.684166 -322.268374 
L 377.930357 -323.535744 
L 378.170604 -324.803115 
L 381.543196 -324.803115 
L 381.543196 -324.803115 
L 381.783443 -323.535744 
L 382.029635 -322.268374 
L 382.276735 -321.001003 
L 382.519544 -319.733632 
L 382.753044 -318.466262 
L 382.972758 -317.198891 
L 383.175082 -315.93152 
L 383.357577 -314.66415 
L 383.519168 -313.396779 
L 383.660254 -312.129409 
L 383.782697 -310.862038 
L 383.889712 -309.594667 
L 383.985641 -308.327297 
L 384.07566 -307.059926 
L 384.16542 -305.792555 
L 384.260666 -304.525185 
L 384.366859 -303.257814 
L 384.488824 -301.990443 
L 384.630452 -300.723073 
L 384.794473 -299.455702 
L 384.982308 -298.188332 
L 385.194011 -296.920961 
L 385.428288 -295.65359 
L 385.682605 -294.38622 
L 385.953349 -293.118849 
L 386.236044 -291.851478 
L 386.525589 -290.584108 
L 386.816507 -289.316737 
L 387.103173 -288.049367 
L 387.380011 -286.781996 
L 387.641647 -285.514625 
L 387.883018 -284.247255 
L 388.099428 -282.979884 
L 388.286582 -281.712513 
L 388.440605 -280.445143 
L 388.558064 -279.177772 
L 388.636021 -277.910401 
L 388.672121 -276.643031 
L 388.664727 -275.37566 
L 388.613091 -274.10829 
L 388.517547 -272.840919 
L 388.379697 -271.573548 
L 388.20257 -270.306178 
L 387.990716 -269.038807 
L 387.750219 -267.771436 
L 387.488598 -266.504066 
L 387.214607 -265.236695 
L 386.937935 -263.969325 
L 386.668813 -262.701954 
L 386.417569 -261.434583 
L 386.194153 -260.167213 
L 386.007667 -258.899842 
L 385.865944 -257.632471 
L 385.775201 -256.365101 
L 385.739797 -255.09773 
L 385.762139 -253.830359 
L 385.842751 -252.562989 
L 385.98053 -251.295618 
L 386.173219 -250.028248 
L 386.418097 -248.760877 
L 386.712891 -247.493506 
L 387.056897 -246.226136 
L 387.452271 -244.958765 
L 387.90543 -243.691394 
L 388.428489 -242.424024 
L 389.040599 -241.156653 
L 389.769077 -239.889283 
L 390.650136 -238.621912 
L 391.72908 -237.354541 
L 393.059759 -236.087171 
L 394.703151 -234.8198 
L 396.724941 -233.552429 
L 399.192031 -232.285059 
L 402.168005 -231.017688 
L 405.707663 -229.750317 
L 409.850866 -228.482947 
L 414.616075 -227.215576 
L 419.994074 -225.948206 
L 425.942476 -224.680835 
L 432.381694 -223.413464 
L 439.192995 -222.146094 
L 446.219242 -220.878723 
L 453.268701 -219.611352 
L 460.122061 -218.343982 
L 466.5425 -217.076611 
L 472.288276 -215.809241 
L 477.127004 -214.54187 
L 480.850489 -213.274499 
L 483.28884 -212.007129 
L 484.32255 -210.739758 
L 483.891367 -209.472387 
L 481.999038 -208.205017 
L 478.713427 -206.937646 
L 474.161955 -205.670275 
L 468.522804 -204.402905 
L 462.012722 -203.135534 
L 454.872624 -201.868164 
L 447.352325 -200.600793 
L 439.695748 -199.333422 
z
" id="mbe7b6c879a" style="stroke:#3d3d3d;stroke-width:5;"/>
    </defs>
    <g clip-path="url(#p2b8b6f69b9)">
     <use style="fill:#3a923a;stroke:#3d3d3d;stroke-width:5;" x="0" xlink:href="#mbe7b6c879a" y="1296"/>
    </g>
   </g>
   <g id="PolyCollection_2">
    <defs>
     <path d="M 657.423565 -181.596374 
L 624.618484 -181.596374 
L 622.657972 -184.767187 
L 620.712358 -187.938 
L 618.830913 -191.108814 
L 617.064454 -194.279627 
L 615.462812 -197.45044 
L 614.072184 -200.621253 
L 612.93257 -203.792066 
L 612.075495 -206.962879 
L 611.522221 -210.133693 
L 611.282581 -213.304506 
L 611.354547 -216.475319 
L 611.724558 -219.646132 
L 612.368581 -222.816945 
L 613.253788 -225.987758 
L 614.340719 -229.158571 
L 615.585712 -232.329385 
L 616.943417 -235.500198 
L 618.36918 -238.671011 
L 619.821133 -241.841824 
L 621.261842 -245.012637 
L 622.659459 -248.18345 
L 623.988321 -251.354264 
L 625.229057 -254.525077 
L 626.368247 -257.69589 
L 627.397753 -260.866703 
L 628.313839 -264.037516 
L 629.116203 -267.208329 
L 629.807024 -270.379143 
L 630.390135 -273.549956 
L 630.870359 -276.720769 
L 631.253063 -279.891582 
L 631.543919 -283.062395 
L 631.748851 -286.233208 
L 631.874131 -289.404022 
L 631.926558 -292.574835 
L 631.913679 -295.745648 
L 631.84398 -298.916461 
L 631.727014 -302.087274 
L 631.573421 -305.258087 
L 631.394845 -308.4289 
L 631.203714 -311.599714 
L 631.012925 -314.770527 
L 630.835449 -317.94134 
L 630.683869 -321.112153 
L 630.569923 -324.282966 
L 630.504046 -327.453779 
L 630.494976 -330.624593 
L 630.549428 -333.795406 
L 630.671864 -336.966219 
L 630.864368 -340.137032 
L 631.126631 -343.307845 
L 631.456035 -346.478658 
L 631.847836 -349.649472 
L 632.295421 -352.820285 
L 632.790639 -355.991098 
L 633.324166 -359.161911 
L 633.8859 -362.332724 
L 634.46537 -365.503537 
L 635.052119 -368.67435 
L 635.636071 -371.845164 
L 636.207849 -375.015977 
L 636.759041 -378.18679 
L 637.282403 -381.357603 
L 637.771989 -384.528416 
L 638.223221 -387.699229 
L 638.632888 -390.870043 
L 638.999086 -394.040856 
L 639.321108 -397.211669 
L 639.599304 -400.382482 
L 639.834914 -403.553295 
L 640.029887 -406.724108 
L 640.186711 -409.894922 
L 640.308255 -413.065735 
L 640.397636 -416.236548 
L 640.458106 -419.407361 
L 640.492976 -422.578174 
L 640.505565 -425.748987 
L 640.499168 -428.919801 
L 640.477046 -432.090614 
L 640.442419 -435.261427 
L 640.398461 -438.43224 
L 640.348293 -441.603053 
L 640.294956 -444.773866 
L 640.24138 -447.944679 
L 640.190327 -451.115493 
L 640.144338 -454.286306 
L 640.105654 -457.457119 
L 640.076151 -460.627932 
L 640.057277 -463.798745 
L 640.049999 -466.969558 
L 640.054775 -470.140372 
L 640.07155 -473.311185 
L 640.099774 -476.481998 
L 640.138454 -479.652811 
L 640.186221 -482.823624 
L 640.241423 -485.994437 
L 640.302223 -489.165251 
L 640.366706 -492.336064 
L 640.43298 -495.506877 
L 641.609069 -495.506877 
L 641.609069 -495.506877 
L 641.675342 -492.336064 
L 641.739825 -489.165251 
L 641.800625 -485.994437 
L 641.855827 -482.823624 
L 641.903595 -479.652811 
L 641.942274 -476.481998 
L 641.970499 -473.311185 
L 641.987273 -470.140372 
L 641.99205 -466.969558 
L 641.984772 -463.798745 
L 641.965898 -460.627932 
L 641.936395 -457.457119 
L 641.897711 -454.286306 
L 641.851721 -451.115493 
L 641.800669 -447.944679 
L 641.747092 -444.773866 
L 641.693755 -441.603053 
L 641.643587 -438.43224 
L 641.59963 -435.261427 
L 641.565003 -432.090614 
L 641.542881 -428.919801 
L 641.536484 -425.748987 
L 641.549072 -422.578174 
L 641.583942 -419.407361 
L 641.644412 -416.236548 
L 641.733793 -413.065735 
L 641.855338 -409.894922 
L 642.012162 -406.724108 
L 642.207134 -403.553295 
L 642.442744 -400.382482 
L 642.720941 -397.211669 
L 643.042963 -394.040856 
L 643.40916 -390.870043 
L 643.818827 -387.699229 
L 644.27006 -384.528416 
L 644.759646 -381.357603 
L 645.283007 -378.18679 
L 645.8342 -375.015977 
L 646.405978 -371.845164 
L 646.98993 -368.67435 
L 647.576678 -365.503537 
L 648.156148 -362.332724 
L 648.717883 -359.161911 
L 649.251409 -355.991098 
L 649.746627 -352.820285 
L 650.194213 -349.649472 
L 650.586013 -346.478658 
L 650.915417 -343.307845 
L 651.177681 -340.137032 
L 651.370185 -336.966219 
L 651.49262 -333.795406 
L 651.547072 -330.624593 
L 651.538002 -327.453779 
L 651.472126 -324.282966 
L 651.358179 -321.112153 
L 651.2066 -317.94134 
L 651.029123 -314.770527 
L 650.838335 -311.599714 
L 650.647203 -308.4289 
L 650.468627 -305.258087 
L 650.315035 -302.087274 
L 650.198068 -298.916461 
L 650.128369 -295.745648 
L 650.11549 -292.574835 
L 650.167917 -289.404022 
L 650.293197 -286.233208 
L 650.49813 -283.062395 
L 650.788986 -279.891582 
L 651.17169 -276.720769 
L 651.651913 -273.549956 
L 652.235024 -270.379143 
L 652.925846 -267.208329 
L 653.728209 -264.037516 
L 654.644296 -260.866703 
L 655.673801 -257.69589 
L 656.812991 -254.525077 
L 658.053727 -251.354264 
L 659.38259 -248.18345 
L 660.780206 -245.012637 
L 662.220916 -241.841824 
L 663.672868 -238.671011 
L 665.098632 -235.500198 
L 666.456337 -232.329385 
L 667.70133 -229.158571 
L 668.788261 -225.987758 
L 669.673468 -222.816945 
L 670.31749 -219.646132 
L 670.687501 -216.475319 
L 670.759467 -213.304506 
L 670.519828 -210.133693 
L 669.966554 -206.962879 
L 669.109479 -203.792066 
L 667.969864 -200.621253 
L 666.579236 -197.45044 
L 664.977595 -194.279627 
L 663.211135 -191.108814 
L 661.32969 -187.938 
L 659.384076 -184.767187 
L 657.423565 -181.596374 
z
" id="mae7fe4bc2f" style="stroke:#3d3d3d;stroke-width:5;"/>
    </defs>
    <g clip-path="url(#p2b8b6f69b9)">
     <use style="fill:#2eabb8;stroke:#3d3d3d;stroke-width:5;" x="0" xlink:href="#mae7fe4bc2f" y="1296"/>
    </g>
   </g>
   <g id="PolyCollection_3">
    <defs>
     <path d="M 904.969287 -166.328715 
L 899.401009 -166.328715 
L 898.845955 -172.556362 
L 898.236394 -178.784009 
L 897.577212 -185.011656 
L 896.8743 -191.239303 
L 896.134069 -197.46695 
L 895.362994 -203.694597 
L 894.567262 -209.922244 
L 893.75259 -216.149891 
L 892.924259 -222.377538 
L 892.087365 -228.605185 
L 891.247235 -234.832832 
L 890.409954 -241.060479 
L 889.582888 -247.288126 
L 888.775129 -253.515773 
L 887.997749 -259.74342 
L 887.263828 -265.971067 
L 886.588198 -272.198714 
L 885.986932 -278.426361 
L 885.476595 -284.654009 
L 885.07333 -290.881656 
L 884.791854 -297.109303 
L 884.644437 -303.33695 
L 884.639969 -309.564597 
L 884.783171 -315.792244 
L 885.07404 -322.019891 
L 885.507569 -328.247538 
L 886.07378 -334.475185 
L 886.75808 -340.702832 
L 887.541929 -346.930479 
L 888.403766 -353.158126 
L 889.320146 -359.385773 
L 890.266979 -365.61342 
L 891.220784 -371.841067 
L 892.159862 -378.068714 
L 893.065281 -384.296361 
L 893.92162 -390.524008 
L 894.717409 -396.751655 
L 895.445249 -402.979302 
L 896.101643 -409.206949 
L 896.686558 -415.434596 
L 897.202793 -421.662243 
L 897.655241 -427.88989 
L 898.050108 -434.117537 
L 898.39419 -440.345184 
L 898.694259 -446.572831 
L 898.956615 -452.800478 
L 899.186819 -459.028125 
L 899.389601 -465.255772 
L 899.568926 -471.483419 
L 899.72816 -477.711066 
L 899.87029 -483.938713 
L 899.998135 -490.16636 
L 900.11451 -496.394007 
L 900.222296 -502.621654 
L 900.324419 -508.849301 
L 900.423741 -515.076948 
L 900.522877 -521.304595 
L 900.623998 -527.532242 
L 900.728639 -533.759889 
L 900.837563 -539.987536 
L 900.9507 -546.215183 
L 901.067182 -552.44283 
L 901.185456 -558.670477 
L 901.303475 -564.898124 
L 901.418919 -571.125771 
L 901.529439 -577.353418 
L 901.632863 -583.581065 
L 901.727375 -589.808712 
L 901.811611 -596.036359 
L 901.884706 -602.264007 
L 901.946269 -608.491654 
L 901.996306 -614.719301 
L 902.035122 -620.946948 
L 902.063202 -627.174595 
L 902.081097 -633.402242 
L 902.089346 -639.629889 
L 902.088419 -645.857536 
L 902.078709 -652.085183 
L 902.060566 -658.31283 
L 902.034363 -664.540477 
L 902.000587 -670.768124 
L 901.959945 -676.995771 
L 901.913456 -683.223418 
L 901.862518 -689.451065 
L 901.808937 -695.678712 
L 901.754891 -701.906359 
L 901.702844 -708.134006 
L 901.655399 -714.361653 
L 901.61511 -720.5893 
L 901.584271 -726.816947 
L 901.564712 -733.044594 
L 901.557627 -739.272241 
L 901.563457 -745.499888 
L 901.581849 -751.727535 
L 901.611689 -757.955182 
L 901.651221 -764.182829 
L 901.698212 -770.410476 
L 901.750166 -776.638123 
L 901.804537 -782.86577 
L 902.565759 -782.86577 
L 902.565759 -782.86577 
L 902.62013 -776.638123 
L 902.672084 -770.410476 
L 902.719075 -764.182829 
L 902.758607 -757.955182 
L 902.788447 -751.727535 
L 902.806839 -745.499888 
L 902.812669 -739.272241 
L 902.805584 -733.044594 
L 902.786025 -726.816947 
L 902.755186 -720.5893 
L 902.714897 -714.361653 
L 902.667452 -708.134006 
L 902.615405 -701.906359 
L 902.561359 -695.678712 
L 902.507778 -689.451065 
L 902.45684 -683.223418 
L 902.410351 -676.995771 
L 902.369709 -670.768124 
L 902.335933 -664.540477 
L 902.30973 -658.31283 
L 902.291587 -652.085183 
L 902.281878 -645.857536 
L 902.28095 -639.629889 
L 902.289199 -633.402242 
L 902.307094 -627.174595 
L 902.335174 -620.946948 
L 902.37399 -614.719301 
L 902.424028 -608.491654 
L 902.48559 -602.264007 
L 902.558685 -596.036359 
L 902.642921 -589.808712 
L 902.737433 -583.581065 
L 902.840858 -577.353418 
L 902.951377 -571.125771 
L 903.066821 -564.898124 
L 903.18484 -558.670477 
L 903.303115 -552.44283 
L 903.419596 -546.215183 
L 903.532734 -539.987536 
L 903.641657 -533.759889 
L 903.746298 -527.532242 
L 903.847419 -521.304595 
L 903.946555 -515.076948 
L 904.045877 -508.849301 
L 904.148001 -502.621654 
L 904.255786 -496.394007 
L 904.372161 -490.16636 
L 904.500006 -483.938713 
L 904.642136 -477.711066 
L 904.80137 -471.483419 
L 904.980695 -465.255772 
L 905.183477 -459.028125 
L 905.413681 -452.800478 
L 905.676038 -446.572831 
L 905.976107 -440.345184 
L 906.320188 -434.117537 
L 906.715055 -427.88989 
L 907.167503 -421.662243 
L 907.683738 -415.434596 
L 908.268653 -409.206949 
L 908.925047 -402.979302 
L 909.652888 -396.751655 
L 910.448676 -390.524008 
L 911.305016 -384.296361 
L 912.210435 -378.068714 
L 913.149512 -371.841067 
L 914.103317 -365.61342 
L 915.05015 -359.385773 
L 915.96653 -353.158126 
L 916.828368 -346.930479 
L 917.612216 -340.702832 
L 918.296516 -334.475185 
L 918.862727 -328.247538 
L 919.296256 -322.019891 
L 919.587125 -315.792244 
L 919.730327 -309.564597 
L 919.725859 -303.33695 
L 919.578443 -297.109303 
L 919.296966 -290.881656 
L 918.893702 -284.654009 
L 918.383364 -278.426361 
L 917.782098 -272.198714 
L 917.106469 -265.971067 
L 916.372547 -259.74342 
L 915.595168 -253.515773 
L 914.787408 -247.288126 
L 913.960342 -241.060479 
L 913.123061 -234.832832 
L 912.282932 -228.605185 
L 911.446038 -222.377538 
L 910.617707 -216.149891 
L 909.803034 -209.922244 
L 909.007302 -203.694597 
L 908.236228 -197.46695 
L 907.495997 -191.239303 
L 906.793084 -185.011656 
L 906.133902 -178.784009 
L 905.524341 -172.556362 
L 904.969287 -166.328715 
z
" id="ma17170422b" style="stroke:#3d3d3d;stroke-width:5;"/>
    </defs>
    <g clip-path="url(#p2b8b6f69b9)">
     <use style="fill:#a9aa35;stroke:#3d3d3d;stroke-width:5;" x="0" xlink:href="#ma17170422b" y="1296"/>
    </g>
   </g>
   <g id="PolyCollection_4">
    <defs>
     <path d="M 1165.4122 -156.191874 
L 1161.286344 -156.191874 
L 1160.771611 -164.299324 
L 1160.177715 -172.406773 
L 1159.503904 -180.514222 
L 1158.751575 -188.621672 
L 1157.92435 -196.729121 
L 1157.028133 -204.83657 
L 1156.071207 -212.94402 
L 1155.064413 -221.051469 
L 1154.021418 -229.158918 
L 1152.959029 -237.266368 
L 1151.897465 -245.373817 
L 1150.860455 -253.481266 
L 1149.874996 -261.588716 
L 1148.970644 -269.696165 
L 1148.178264 -277.803614 
L 1147.528245 -285.911064 
L 1147.048315 -294.018513 
L 1146.761178 -302.125962 
L 1146.682277 -310.233412 
L 1146.81801 -318.340861 
L 1147.16468 -326.44831 
L 1147.708375 -334.55576 
L 1148.42584 -342.663209 
L 1149.286256 -350.770658 
L 1150.253698 -358.878108 
L 1151.289978 -366.985557 
L 1152.357494 -375.093006 
L 1153.421795 -383.200456 
L 1154.45356 -391.307905 
L 1155.42986 -399.415354 
L 1156.334655 -407.522804 
L 1157.158574 -415.630253 
L 1157.898138 -423.737702 
L 1158.554604 -431.845152 
L 1159.13263 -439.952601 
L 1159.638954 -448.06005 
L 1160.081215 -456.1675 
L 1160.46703 -464.274949 
L 1160.803352 -472.382398 
L 1161.096122 -480.489848 
L 1161.350168 -488.597297 
L 1161.569301 -496.704746 
L 1161.756542 -504.812196 
L 1161.914399 -512.919645 
L 1162.045156 -521.027094 
L 1162.15111 -529.134544 
L 1162.234733 -537.241993 
L 1162.298756 -545.349442 
L 1162.346164 -553.456892 
L 1162.380129 -561.564341 
L 1162.403903 -569.67179 
L 1162.420692 -577.77924 
L 1162.433539 -585.886689 
L 1162.445225 -593.994138 
L 1162.458191 -602.101588 
L 1162.47449 -610.209037 
L 1162.495748 -618.316486 
L 1162.523138 -626.423936 
L 1162.557354 -634.531385 
L 1162.598596 -642.638834 
L 1162.646569 -650.746284 
L 1162.700497 -658.853733 
L 1162.759177 -666.961182 
L 1162.821066 -675.068632 
L 1162.884397 -683.176081 
L 1162.947319 -691.28353 
L 1163.008043 -699.39098 
L 1163.064972 -707.498429 
L 1163.116802 -715.605878 
L 1163.162579 -723.713328 
L 1163.201711 -731.820777 
L 1163.233933 -739.928226 
L 1163.259236 -748.035676 
L 1163.277779 -756.143125 
L 1163.289793 -764.250574 
L 1163.295498 -772.358024 
L 1163.295046 -780.465473 
L 1163.288494 -788.572922 
L 1163.275822 -796.680372 
L 1163.256983 -804.787821 
L 1163.23199 -812.89527 
L 1163.201021 -821.00272 
L 1163.164527 -829.110169 
L 1163.123331 -837.217618 
L 1163.078684 -845.325068 
L 1163.032282 -853.432517 
L 1162.986206 -861.539966 
L 1162.942811 -869.647416 
L 1162.904542 -877.754865 
L 1162.873725 -885.862314 
L 1162.852338 -893.969764 
L 1162.841808 -902.077213 
L 1162.842851 -910.184662 
L 1162.855398 -918.292112 
L 1162.8786 -926.399561 
L 1162.910926 -934.50701 
L 1162.950326 -942.61446 
L 1162.994453 -950.721909 
L 1163.040884 -958.829358 
L 1163.65766 -958.829358 
L 1163.65766 -958.829358 
L 1163.704091 -950.721909 
L 1163.748218 -942.61446 
L 1163.787618 -934.50701 
L 1163.819944 -926.399561 
L 1163.843146 -918.292112 
L 1163.855693 -910.184662 
L 1163.856736 -902.077213 
L 1163.846206 -893.969764 
L 1163.824819 -885.862314 
L 1163.794002 -877.754865 
L 1163.755733 -869.647416 
L 1163.712338 -861.539966 
L 1163.666262 -853.432517 
L 1163.61986 -845.325068 
L 1163.575213 -837.217618 
L 1163.534017 -829.110169 
L 1163.497523 -821.00272 
L 1163.466554 -812.89527 
L 1163.441561 -804.787821 
L 1163.422722 -796.680372 
L 1163.41005 -788.572922 
L 1163.403498 -780.465473 
L 1163.403046 -772.358024 
L 1163.408751 -764.250574 
L 1163.420765 -756.143125 
L 1163.439308 -748.035676 
L 1163.464611 -739.928226 
L 1163.496833 -731.820777 
L 1163.535965 -723.713328 
L 1163.581742 -715.605878 
L 1163.633572 -707.498429 
L 1163.690501 -699.39098 
L 1163.751225 -691.28353 
L 1163.814147 -683.176081 
L 1163.877478 -675.068632 
L 1163.939367 -666.961182 
L 1163.998047 -658.853733 
L 1164.051975 -650.746284 
L 1164.099948 -642.638834 
L 1164.14119 -634.531385 
L 1164.175406 -626.423936 
L 1164.202796 -618.316486 
L 1164.224054 -610.209037 
L 1164.240353 -602.101588 
L 1164.253319 -593.994138 
L 1164.265005 -585.886689 
L 1164.277852 -577.77924 
L 1164.294641 -569.67179 
L 1164.318415 -561.564341 
L 1164.35238 -553.456892 
L 1164.399788 -545.349442 
L 1164.463811 -537.241993 
L 1164.547434 -529.134544 
L 1164.653388 -521.027094 
L 1164.784145 -512.919645 
L 1164.942002 -504.812196 
L 1165.129243 -496.704746 
L 1165.348376 -488.597297 
L 1165.602422 -480.489848 
L 1165.895192 -472.382398 
L 1166.231514 -464.274949 
L 1166.617329 -456.1675 
L 1167.05959 -448.06005 
L 1167.565914 -439.952601 
L 1168.14394 -431.845152 
L 1168.800406 -423.737702 
L 1169.53997 -415.630253 
L 1170.363889 -407.522804 
L 1171.268684 -399.415354 
L 1172.244984 -391.307905 
L 1173.276749 -383.200456 
L 1174.34105 -375.093006 
L 1175.408566 -366.985557 
L 1176.444845 -358.878108 
L 1177.412288 -350.770658 
L 1178.272704 -342.663209 
L 1178.990169 -334.55576 
L 1179.533864 -326.44831 
L 1179.880533 -318.340861 
L 1180.016267 -310.233412 
L 1179.937366 -302.125962 
L 1179.650229 -294.018513 
L 1179.170299 -285.911064 
L 1178.52028 -277.803614 
L 1177.7279 -269.696165 
L 1176.823548 -261.588716 
L 1175.838089 -253.481266 
L 1174.801079 -245.373817 
L 1173.739515 -237.266368 
L 1172.677126 -229.158918 
L 1171.634131 -221.051469 
L 1170.627337 -212.94402 
L 1169.670411 -204.83657 
L 1168.774194 -196.729121 
L 1167.946969 -188.621672 
L 1167.19464 -180.514222 
L 1166.520829 -172.406773 
L 1165.926933 -164.299324 
L 1165.4122 -156.191874 
z
" id="mdbca0bf0ee" style="stroke:#3d3d3d;stroke-width:5;"/>
    </defs>
    <g clip-path="url(#p2b8b6f69b9)">
     <use style="fill:#c03d3e;stroke:#3d3d3d;stroke-width:5;" x="0" xlink:href="#mdbca0bf0ee" y="1296"/>
    </g>
   </g>
   <g id="line2d_9">
    <path clip-path="url(#p2b8b6f69b9)" d="M 379.8569 1086.387131 
L 379.8569 1072.17341 
" style="fill:none;stroke:#3d3d3d;stroke-linecap:round;stroke-width:5;"/>
   </g>
   <g id="line2d_10">
    <path clip-path="url(#p2b8b6f69b9)" d="M 379.8569 1086.387131 
L 379.8569 1080.126325 
" style="fill:none;stroke:#3d3d3d;stroke-linecap:round;stroke-width:15;"/>
   </g>
   <g id="line2d_11">
    <path clip-path="url(#p2b8b6f69b9)" d="M 641.021024 1086.387131 
L 641.021024 934.774105 
" style="fill:none;stroke:#3d3d3d;stroke-linecap:round;stroke-width:5;"/>
   </g>
   <g id="line2d_12">
    <path clip-path="url(#p2b8b6f69b9)" d="M 641.021024 1086.387131 
L 641.021024 990.613724 
" style="fill:none;stroke:#3d3d3d;stroke-linecap:round;stroke-width:15;"/>
   </g>
   <g id="line2d_13">
    <path clip-path="url(#p2b8b6f69b9)" d="M 902.185148 1086.387131 
L 902.185148 835.278057 
" style="fill:none;stroke:#3d3d3d;stroke-linecap:round;stroke-width:5;"/>
   </g>
   <g id="line2d_14">
    <path clip-path="url(#p2b8b6f69b9)" d="M 902.185148 1019.887221 
L 902.185148 944.588341 
" style="fill:none;stroke:#3d3d3d;stroke-linecap:round;stroke-width:15;"/>
   </g>
   <g id="line2d_15">
    <path clip-path="url(#p2b8b6f69b9)" d="M 1163.349272 1086.387131 
L 1163.349272 848.814934 
" style="fill:none;stroke:#3d3d3d;stroke-linecap:round;stroke-width:5;"/>
   </g>
   <g id="line2d_16">
    <path clip-path="url(#p2b8b6f69b9)" d="M 1163.349272 1009.734563 
L 1163.349272 939.004379 
" style="fill:none;stroke:#3d3d3d;stroke-linecap:round;stroke-width:15;"/>
   </g>
   <g id="line2d_17">
    <path clip-path="url(#p2b8b6f69b9)" d="M 379.8569 775.535544 
L 379.8569 757.877519 
L 641.021024 757.877519 
L 641.021024 775.535544 
" style="fill:none;stroke:#333333;stroke-linecap:round;stroke-width:1.5;"/>
   </g>
   <g id="line2d_18">
    <path clip-path="url(#p2b8b6f69b9)" d="M 641.021024 503.44431 
L 641.021024 485.786285 
L 902.185148 485.786285 
L 902.185148 503.44431 
" style="fill:none;stroke:#333333;stroke-linecap:round;stroke-width:1.5;"/>
   </g>
   <g id="line2d_19">
    <path clip-path="url(#p2b8b6f69b9)" d="M 379.8569 400.624608 
L 379.8569 382.966583 
L 902.185148 382.966583 
L 902.185148 400.624608 
" style="fill:none;stroke:#333333;stroke-linecap:round;stroke-width:1.5;"/>
   </g>
   <g id="line2d_20">
    <path clip-path="url(#p2b8b6f69b9)" d="M 641.021024 297.804906 
L 641.021024 280.146881 
L 1163.349272 280.146881 
L 1163.349272 297.804906 
" style="fill:none;stroke:#333333;stroke-linecap:round;stroke-width:1.5;"/>
   </g>
   <g id="line2d_21">
    <path clip-path="url(#p2b8b6f69b9)" d="M 379.8569 192.071159 
L 379.8569 174.413134 
L 1163.349272 174.413134 
L 1163.349272 192.071159 
" style="fill:none;stroke:#333333;stroke-linecap:round;stroke-width:1.5;"/>
   </g>
   <g id="patch_3">
    <path d="M 230.16 1179.94 
L 230.16 96.24 
" style="fill:none;stroke:#cccccc;stroke-linecap:square;stroke-linejoin:miter;stroke-width:2.5;"/>
   </g>
   <g id="patch_4">
    <path d="M 1225.247518 1179.94 
L 1225.247518 96.24 
" style="fill:none;stroke:#cccccc;stroke-linecap:square;stroke-linejoin:miter;stroke-width:2.5;"/>
   </g>
   <g id="patch_5">
    <path d="M 230.16 1179.94 
L 1225.247518 1179.94 
" style="fill:none;stroke:#cccccc;stroke-linecap:square;stroke-linejoin:miter;stroke-width:2.5;"/>
   </g>
   <g id="patch_6">
    <path d="M 230.16 96.24 
L 1225.247518 96.24 
" style="fill:none;stroke:#cccccc;stroke-linecap:square;stroke-linejoin:miter;stroke-width:2.5;"/>
   </g>
   <g id="PathCollection_1">
    <defs>
     <path d="M 0 5 
C 1.326016 5 2.597899 4.473168 3.535534 3.535534 
C 4.473168 2.597899 5 1.326016 5 0 
C 5 -1.326016 4.473168 -2.597899 3.535534 -3.535534 
C 2.597899 -4.473168 1.326016 -5 0 -5 
C -1.326016 -5 -2.597899 -4.473168 -3.535534 -3.535534 
C -4.473168 -2.597899 -5 -1.326016 -5 0 
C -5 1.326016 -4.473168 2.597899 -3.535534 3.535534 
C -2.597899 4.473168 -1.326016 5 0 5 
z
" id="m4b46539d84" style="stroke:#3d3d3d;stroke-width:2;"/>
    </defs>
    <g clip-path="url(#p2b8b6f69b9)">
     <use style="fill:#ffffff;stroke:#3d3d3d;stroke-width:2;" x="379.8569" xlink:href="#m4b46539d84" y="1086.387131"/>
    </g>
   </g>
   <g id="PathCollection_2">
    <g clip-path="url(#p2b8b6f69b9)">
     <use style="fill:#ffffff;stroke:#3d3d3d;stroke-width:2;" x="641.021024" xlink:href="#m4b46539d84" y="1083.679756"/>
    </g>
   </g>
   <g id="PathCollection_3">
    <g clip-path="url(#p2b8b6f69b9)">
     <use style="fill:#ffffff;stroke:#3d3d3d;stroke-width:2;" x="902.185148" xlink:href="#m4b46539d84" y="982.491598"/>
    </g>
   </g>
   <g id="PathCollection_4">
    <g clip-path="url(#p2b8b6f69b9)">
     <use style="fill:#ffffff;stroke:#3d3d3d;stroke-width:2;" x="1163.349272" xlink:href="#m4b46539d84" y="979.4458"/>
    </g>
   </g>
   <g id="text_14">
    <!-- ** -->
    <g transform="translate(490.978025 746.940019)scale(0.5 -0.5)">
     <defs>
      <path d="M 3.125 58.453125 
L 5.375 65.375 
Q 13.140625 62.640625 16.65625 60.640625 
Q 15.71875 69.484375 15.671875 72.796875 
L 22.75 72.796875 
Q 22.609375 67.96875 21.625 60.6875 
Q 26.65625 63.234375 33.15625 65.375 
L 35.40625 58.453125 
Q 29.203125 56.390625 23.25 55.71875 
Q 26.21875 53.125 31.640625 46.484375 
L 25.78125 42.328125 
Q 22.953125 46.1875 19.09375 52.828125 
Q 15.484375 45.953125 12.75 42.328125 
L 6.984375 46.484375 
Q 12.640625 53.46875 15.09375 55.71875 
Q 8.796875 56.9375 3.125 58.453125 
z
" id="ArialMT-42"/>
     </defs>
     <use xlink:href="#ArialMT-42"/>
     <use x="38.916016" xlink:href="#ArialMT-42"/>
    </g>
   </g>
   <g id="text_15">
    <!-- **** -->
    <g transform="translate(732.681211 474.848785)scale(0.5 -0.5)">
     <use xlink:href="#ArialMT-42"/>
     <use x="38.916016" xlink:href="#ArialMT-42"/>
     <use x="77.832031" xlink:href="#ArialMT-42"/>
     <use x="116.748047" xlink:href="#ArialMT-42"/>
    </g>
   </g>
   <g id="text_16">
    <!-- **** -->
    <g transform="translate(602.099149 372.029083)scale(0.5 -0.5)">
     <use xlink:href="#ArialMT-42"/>
     <use x="38.916016" xlink:href="#ArialMT-42"/>
     <use x="77.832031" xlink:href="#ArialMT-42"/>
     <use x="116.748047" xlink:href="#ArialMT-42"/>
    </g>
   </g>
   <g id="text_17">
    <!-- **** -->
    <g transform="translate(863.263273 269.209381)scale(0.5 -0.5)">
     <use xlink:href="#ArialMT-42"/>
     <use x="38.916016" xlink:href="#ArialMT-42"/>
     <use x="77.832031" xlink:href="#ArialMT-42"/>
     <use x="116.748047" xlink:href="#ArialMT-42"/>
    </g>
   </g>
   <g id="text_18">
    <!-- **** -->
    <g transform="translate(732.681211 163.475634)scale(0.5 -0.5)">
     <use xlink:href="#ArialMT-42"/>
     <use x="38.916016" xlink:href="#ArialMT-42"/>
     <use x="77.832031" xlink:href="#ArialMT-42"/>
     <use x="116.748047" xlink:href="#ArialMT-42"/>
    </g>
   </g>
   <g id="text_19">
    <!-- Filifactor alocis (K.W. p=3.27e-25) -->
    <g transform="translate(351.875634 90.24)scale(0.5 -0.5)">
     <defs>
      <path d="M 8.203125 0 
L 8.203125 71.578125 
L 56.5 71.578125 
L 56.5 63.140625 
L 17.671875 63.140625 
L 17.671875 40.96875 
L 51.265625 40.96875 
L 51.265625 32.515625 
L 17.671875 32.515625 
L 17.671875 0 
z
" id="ArialMT-70"/>
      <path d="M 8.6875 0 
L 8.6875 45.015625 
L 0.921875 45.015625 
L 0.921875 51.859375 
L 8.6875 51.859375 
L 8.6875 57.375 
Q 8.6875 62.59375 9.625 65.140625 
Q 10.890625 68.5625 14.078125 70.671875 
Q 17.28125 72.796875 23.046875 72.796875 
Q 26.765625 72.796875 31.25 71.921875 
L 29.9375 64.265625 
Q 27.203125 64.75 24.75 64.75 
Q 20.75 64.75 19.09375 63.03125 
Q 17.4375 61.328125 17.4375 56.640625 
L 17.4375 51.859375 
L 27.546875 51.859375 
L 27.546875 45.015625 
L 17.4375 45.015625 
L 17.4375 0 
z
" id="ArialMT-102"/>
      <path id="ArialMT-32"/>
      <path d="M 3.078125 15.484375 
L 11.765625 16.84375 
Q 12.5 11.625 15.84375 8.84375 
Q 19.1875 6.0625 25.203125 6.0625 
Q 31.25 6.0625 34.171875 8.515625 
Q 37.109375 10.984375 37.109375 14.3125 
Q 37.109375 17.28125 34.515625 19 
Q 32.71875 20.171875 25.53125 21.96875 
Q 15.875 24.421875 12.140625 26.203125 
Q 8.40625 27.984375 6.46875 31.125 
Q 4.546875 34.28125 4.546875 38.09375 
Q 4.546875 41.546875 6.125 44.5 
Q 7.71875 47.46875 10.453125 49.421875 
Q 12.5 50.921875 16.03125 51.96875 
Q 19.578125 53.03125 23.640625 53.03125 
Q 29.734375 53.03125 34.34375 51.265625 
Q 38.96875 49.515625 41.15625 46.5 
Q 43.359375 43.5 44.1875 38.484375 
L 35.59375 37.3125 
Q 35.015625 41.3125 32.203125 43.546875 
Q 29.390625 45.796875 24.265625 45.796875 
Q 18.21875 45.796875 15.625 43.796875 
Q 13.03125 41.796875 13.03125 39.109375 
Q 13.03125 37.40625 14.109375 36.03125 
Q 15.1875 34.625 17.484375 33.6875 
Q 18.796875 33.203125 25.25 31.453125 
Q 34.578125 28.953125 38.25 27.359375 
Q 41.9375 25.78125 44.03125 22.75 
Q 46.140625 19.734375 46.140625 15.234375 
Q 46.140625 10.84375 43.578125 6.953125 
Q 41.015625 3.078125 36.171875 0.953125 
Q 31.34375 -1.171875 25.25 -1.171875 
Q 15.140625 -1.171875 9.84375 3.03125 
Q 4.546875 7.234375 3.078125 15.484375 
z
" id="ArialMT-115"/>
      <path d="M 23.390625 -21.046875 
Q 16.109375 -11.859375 11.078125 0.4375 
Q 6.0625 12.75 6.0625 25.921875 
Q 6.0625 37.546875 9.8125 48.1875 
Q 14.203125 60.546875 23.390625 72.796875 
L 29.6875 72.796875 
Q 23.78125 62.640625 21.875 58.296875 
Q 18.890625 51.5625 17.1875 44.234375 
Q 15.09375 35.109375 15.09375 25.875 
Q 15.09375 2.390625 29.6875 -21.046875 
z
" id="ArialMT-40"/>
      <path d="M 7.328125 0 
L 7.328125 71.578125 
L 16.796875 71.578125 
L 16.796875 36.078125 
L 52.34375 71.578125 
L 65.1875 71.578125 
L 35.15625 42.578125 
L 66.5 0 
L 54 0 
L 28.515625 36.234375 
L 16.796875 24.8125 
L 16.796875 0 
z
" id="ArialMT-75"/>
      <path d="M 9.078125 0 
L 9.078125 10.015625 
L 19.09375 10.015625 
L 19.09375 0 
z
" id="ArialMT-46"/>
      <path d="M 20.21875 0 
L 1.21875 71.578125 
L 10.9375 71.578125 
L 21.828125 24.65625 
Q 23.578125 17.28125 24.859375 10.015625 
Q 27.59375 21.484375 28.078125 23.25 
L 41.703125 71.578125 
L 53.125 71.578125 
L 63.375 35.359375 
Q 67.234375 21.875 68.953125 10.015625 
Q 70.3125 16.796875 72.515625 25.59375 
L 83.734375 71.578125 
L 93.265625 71.578125 
L 73.640625 0 
L 64.5 0 
L 49.421875 54.546875 
Q 47.515625 61.375 47.171875 62.9375 
Q 46.046875 58.015625 45.0625 54.546875 
L 29.890625 0 
z
" id="ArialMT-87"/>
      <path d="M 6.59375 -19.875 
L 6.59375 51.859375 
L 14.59375 51.859375 
L 14.59375 45.125 
Q 17.4375 49.078125 21 51.046875 
Q 24.5625 53.03125 29.640625 53.03125 
Q 36.28125 53.03125 41.359375 49.609375 
Q 46.4375 46.1875 49.015625 39.953125 
Q 51.609375 33.734375 51.609375 26.3125 
Q 51.609375 18.359375 48.75 11.984375 
Q 45.90625 5.609375 40.453125 2.21875 
Q 35.015625 -1.171875 29 -1.171875 
Q 24.609375 -1.171875 21.109375 0.6875 
Q 17.625 2.546875 15.375 5.375 
L 15.375 -19.875 
z
M 14.546875 25.640625 
Q 14.546875 15.625 18.59375 10.84375 
Q 22.65625 6.0625 28.421875 6.0625 
Q 34.28125 6.0625 38.453125 11.015625 
Q 42.625 15.96875 42.625 26.375 
Q 42.625 36.28125 38.546875 41.203125 
Q 34.46875 46.140625 28.8125 46.140625 
Q 23.1875 46.140625 18.859375 40.890625 
Q 14.546875 35.640625 14.546875 25.640625 
z
" id="ArialMT-112"/>
      <path d="M 52.828125 42.09375 
L 5.5625 42.09375 
L 5.5625 50.296875 
L 52.828125 50.296875 
z
M 52.828125 20.359375 
L 5.5625 20.359375 
L 5.5625 28.5625 
L 52.828125 28.5625 
z
" id="ArialMT-61"/>
      <path d="M 4.203125 18.890625 
L 12.984375 20.0625 
Q 14.5 12.59375 18.140625 9.296875 
Q 21.78125 6 27 6 
Q 33.203125 6 37.46875 10.296875 
Q 41.75 14.59375 41.75 20.953125 
Q 41.75 27 37.796875 30.921875 
Q 33.84375 34.859375 27.734375 34.859375 
Q 25.25 34.859375 21.53125 33.890625 
L 22.515625 41.609375 
Q 23.390625 41.5 23.921875 41.5 
Q 29.546875 41.5 34.03125 44.421875 
Q 38.53125 47.359375 38.53125 53.46875 
Q 38.53125 58.296875 35.25 61.46875 
Q 31.984375 64.65625 26.8125 64.65625 
Q 21.6875 64.65625 18.265625 61.421875 
Q 14.84375 58.203125 13.875 51.765625 
L 5.078125 53.328125 
Q 6.6875 62.15625 12.390625 67.015625 
Q 18.109375 71.875 26.609375 71.875 
Q 32.46875 71.875 37.390625 69.359375 
Q 42.328125 66.84375 44.9375 62.5 
Q 47.5625 58.15625 47.5625 53.265625 
Q 47.5625 48.640625 45.0625 44.828125 
Q 42.578125 41.015625 37.703125 38.765625 
Q 44.046875 37.3125 47.5625 32.6875 
Q 51.078125 28.078125 51.078125 21.140625 
Q 51.078125 11.765625 44.234375 5.25 
Q 37.40625 -1.265625 26.953125 -1.265625 
Q 17.53125 -1.265625 11.296875 4.34375 
Q 5.078125 9.96875 4.203125 18.890625 
z
" id="ArialMT-51"/>
      <path d="M 4.734375 62.203125 
L 4.734375 70.65625 
L 51.078125 70.65625 
L 51.078125 63.8125 
Q 44.234375 56.546875 37.515625 44.484375 
Q 30.8125 32.421875 27.15625 19.671875 
Q 24.515625 10.6875 23.78125 0 
L 14.75 0 
Q 14.890625 8.453125 18.0625 20.40625 
Q 21.234375 32.375 27.171875 43.484375 
Q 33.109375 54.59375 39.796875 62.203125 
z
" id="ArialMT-55"/>
      <path d="M 3.171875 21.484375 
L 3.171875 30.328125 
L 30.171875 30.328125 
L 30.171875 21.484375 
z
" id="ArialMT-45"/>
      <path d="M 4.15625 18.75 
L 13.375 19.53125 
Q 14.40625 12.796875 18.140625 9.390625 
Q 21.875 6 27.15625 6 
Q 33.5 6 37.890625 10.78125 
Q 42.28125 15.578125 42.28125 23.484375 
Q 42.28125 31 38.0625 35.34375 
Q 33.84375 39.703125 27 39.703125 
Q 22.75 39.703125 19.328125 37.765625 
Q 15.921875 35.84375 13.96875 32.765625 
L 5.71875 33.84375 
L 12.640625 70.609375 
L 48.25 70.609375 
L 48.25 62.203125 
L 19.671875 62.203125 
L 15.828125 42.96875 
Q 22.265625 47.46875 29.34375 47.46875 
Q 38.71875 47.46875 45.15625 40.96875 
Q 51.609375 34.46875 51.609375 24.265625 
Q 51.609375 14.546875 45.953125 7.46875 
Q 39.0625 -1.21875 27.15625 -1.21875 
Q 17.390625 -1.21875 11.203125 4.25 
Q 5.03125 9.71875 4.15625 18.75 
z
" id="ArialMT-53"/>
      <path d="M 12.359375 -21.046875 
L 6.0625 -21.046875 
Q 20.65625 2.390625 20.65625 25.875 
Q 20.65625 35.0625 18.5625 44.09375 
Q 16.890625 51.421875 13.921875 58.15625 
Q 12.015625 62.546875 6.0625 72.796875 
L 12.359375 72.796875 
Q 21.53125 60.546875 25.921875 48.1875 
Q 29.6875 37.546875 29.6875 25.921875 
Q 29.6875 12.75 24.625 0.4375 
Q 19.578125 -11.859375 12.359375 -21.046875 
z
" id="ArialMT-41"/>
     </defs>
     <use xlink:href="#ArialMT-70"/>
     <use x="61.083984" xlink:href="#ArialMT-105"/>
     <use x="83.300781" xlink:href="#ArialMT-108"/>
     <use x="105.517578" xlink:href="#ArialMT-105"/>
     <use x="127.734375" xlink:href="#ArialMT-102"/>
     <use x="155.517578" xlink:href="#ArialMT-97"/>
     <use x="211.132812" xlink:href="#ArialMT-99"/>
     <use x="261.132812" xlink:href="#ArialMT-116"/>
     <use x="288.916016" xlink:href="#ArialMT-111"/>
     <use x="344.53125" xlink:href="#ArialMT-114"/>
     <use x="377.832031" xlink:href="#ArialMT-32"/>
     <use x="405.615234" xlink:href="#ArialMT-97"/>
     <use x="461.230469" xlink:href="#ArialMT-108"/>
     <use x="483.447266" xlink:href="#ArialMT-111"/>
     <use x="539.0625" xlink:href="#ArialMT-99"/>
     <use x="589.0625" xlink:href="#ArialMT-105"/>
     <use x="611.279297" xlink:href="#ArialMT-115"/>
     <use x="661.279297" xlink:href="#ArialMT-32"/>
     <use x="689.0625" xlink:href="#ArialMT-40"/>
     <use x="722.363281" xlink:href="#ArialMT-75"/>
     <use x="789.0625" xlink:href="#ArialMT-46"/>
     <use x="816.845703" xlink:href="#ArialMT-87"/>
     <use x="905.730469" xlink:href="#ArialMT-46"/>
     <use x="933.513672" xlink:href="#ArialMT-32"/>
     <use x="961.296875" xlink:href="#ArialMT-112"/>
     <use x="1016.912109" xlink:href="#ArialMT-61"/>
     <use x="1075.310547" xlink:href="#ArialMT-51"/>
     <use x="1130.925781" xlink:href="#ArialMT-46"/>
     <use x="1158.708984" xlink:href="#ArialMT-50"/>
     <use x="1214.324219" xlink:href="#ArialMT-55"/>
     <use x="1269.939453" xlink:href="#ArialMT-101"/>
     <use x="1325.554688" xlink:href="#ArialMT-45"/>
     <use x="1358.855469" xlink:href="#ArialMT-50"/>
     <use x="1414.470703" xlink:href="#ArialMT-53"/>
     <use x="1470.085938" xlink:href="#ArialMT-41"/>
    </g>
   </g>
  </g>
 </g>
 <defs>
  <clipPath id="p2b8b6f69b9">
   <rect height="1083.7" width="995.087518" x="230.16" y="96.24"/>
  </clipPath>
 </defs>
</svg>
