<?xml version="1.0" encoding="utf-8" standalone="no"?>
<!DOCTYPE svg PUBLIC "-//W3C//DTD SVG 1.1//EN"
  "http://www.w3.org/Graphics/SVG/1.1/DTD/svg11.dtd">
<!-- Created with matplotlib (https://matplotlib.org/) -->
<svg height="1296pt" version="1.1" viewBox="0 0 1296 1296" width="1296pt" xmlns="http://www.w3.org/2000/svg" xmlns:xlink="http://www.w3.org/1999/xlink">
 <metadata>
  <rdf:RDF xmlns:cc="http://creativecommons.org/ns#" xmlns:dc="http://purl.org/dc/elements/1.1/" xmlns:rdf="http://www.w3.org/1999/02/22-rdf-syntax-ns#">
   <cc:Work>
    <dc:type rdf:resource="http://purl.org/dc/dcmitype/StillImage"/>
    <dc:date>2022-06-29T13:55:22.626348</dc:date>
    <dc:format>image/svg+xml</dc:format>
    <dc:creator>
     <cc:Agent>
      <dc:title>Matplotlib v3.3.3, https://matplotlib.org/</dc:title>
     </cc:Agent>
    </dc:creator>
   </cc:Work>
  </rdf:RDF>
 </metadata>
 <defs>
  <style type="text/css">*{stroke-linecap:butt;stroke-linejoin:round;}</style>
 </defs>
 <g id="figure_1">
  <g id="patch_1">
   <path d="M 0 1296 
L 1296 1296 
L 1296 0 
L 0 0 
z
" style="fill:#ffffff;"/>
  </g>
  <g id="axes_1">
   <g id="patch_2">
    <path d="M 202.32 1179.94 
L 1236.178781 1179.94 
L 1236.178781 96.12 
L 202.32 96.12 
z
" style="fill:#ffffff;"/>
   </g>
   <g id="matplotlib.axis_1">
    <g id="xtick_1">
     <g id="text_1">
      <!-- Healthy -->
      <g style="fill:#262626;" transform="translate(271.764022 1231.229063)scale(0.5 -0.5)">
       <defs>
        <path d="M 8.015625 0 
L 8.015625 71.578125 
L 17.484375 71.578125 
L 17.484375 42.1875 
L 54.6875 42.1875 
L 54.6875 71.578125 
L 64.15625 71.578125 
L 64.15625 0 
L 54.6875 0 
L 54.6875 33.734375 
L 17.484375 33.734375 
L 17.484375 0 
z
" id="ArialMT-72"/>
        <path d="M 42.09375 16.703125 
L 51.171875 15.578125 
Q 49.03125 7.625 43.21875 3.21875 
Q 37.40625 -1.171875 28.375 -1.171875 
Q 17 -1.171875 10.328125 5.828125 
Q 3.65625 12.84375 3.65625 25.484375 
Q 3.65625 38.578125 10.390625 45.796875 
Q 17.140625 53.03125 27.875 53.03125 
Q 38.28125 53.03125 44.875 45.953125 
Q 51.46875 38.875 51.46875 26.03125 
Q 51.46875 25.25 51.421875 23.6875 
L 12.75 23.6875 
Q 13.234375 15.140625 17.578125 10.59375 
Q 21.921875 6.0625 28.421875 6.0625 
Q 33.25 6.0625 36.671875 8.59375 
Q 40.09375 11.140625 42.09375 16.703125 
z
M 13.234375 30.90625 
L 42.1875 30.90625 
Q 41.609375 37.453125 38.875 40.71875 
Q 34.671875 45.796875 27.984375 45.796875 
Q 21.921875 45.796875 17.796875 41.75 
Q 13.671875 37.703125 13.234375 30.90625 
z
" id="ArialMT-101"/>
        <path d="M 40.4375 6.390625 
Q 35.546875 2.25 31.03125 0.53125 
Q 26.515625 -1.171875 21.34375 -1.171875 
Q 12.796875 -1.171875 8.203125 3 
Q 3.609375 7.171875 3.609375 13.671875 
Q 3.609375 17.484375 5.34375 20.625 
Q 7.078125 23.78125 9.890625 25.6875 
Q 12.703125 27.59375 16.21875 28.5625 
Q 18.796875 29.25 24.03125 29.890625 
Q 34.671875 31.15625 39.703125 32.90625 
Q 39.75 34.71875 39.75 35.203125 
Q 39.75 40.578125 37.25 42.78125 
Q 33.890625 45.75 27.25 45.75 
Q 21.046875 45.75 18.09375 43.578125 
Q 15.140625 41.40625 13.71875 35.890625 
L 5.125 37.0625 
Q 6.296875 42.578125 8.984375 45.96875 
Q 11.671875 49.359375 16.75 51.1875 
Q 21.828125 53.03125 28.515625 53.03125 
Q 35.15625 53.03125 39.296875 51.46875 
Q 43.453125 49.90625 45.40625 47.53125 
Q 47.359375 45.171875 48.140625 41.546875 
Q 48.578125 39.3125 48.578125 33.453125 
L 48.578125 21.734375 
Q 48.578125 9.46875 49.140625 6.21875 
Q 49.703125 2.984375 51.375 0 
L 42.1875 0 
Q 40.828125 2.734375 40.4375 6.390625 
z
M 39.703125 26.03125 
Q 34.90625 24.078125 25.34375 22.703125 
Q 19.921875 21.921875 17.671875 20.9375 
Q 15.4375 19.96875 14.203125 18.09375 
Q 12.984375 16.21875 12.984375 13.921875 
Q 12.984375 10.40625 15.640625 8.0625 
Q 18.3125 5.71875 23.4375 5.71875 
Q 28.515625 5.71875 32.46875 7.9375 
Q 36.421875 10.15625 38.28125 14.015625 
Q 39.703125 17 39.703125 22.796875 
z
" id="ArialMT-97"/>
        <path d="M 6.390625 0 
L 6.390625 71.578125 
L 15.1875 71.578125 
L 15.1875 0 
z
" id="ArialMT-108"/>
        <path d="M 25.78125 7.859375 
L 27.046875 0.09375 
Q 23.34375 -0.6875 20.40625 -0.6875 
Q 15.625 -0.6875 12.984375 0.828125 
Q 10.359375 2.34375 9.28125 4.8125 
Q 8.203125 7.28125 8.203125 15.1875 
L 8.203125 45.015625 
L 1.765625 45.015625 
L 1.765625 51.859375 
L 8.203125 51.859375 
L 8.203125 64.703125 
L 16.9375 69.96875 
L 16.9375 51.859375 
L 25.78125 51.859375 
L 25.78125 45.015625 
L 16.9375 45.015625 
L 16.9375 14.703125 
Q 16.9375 10.9375 17.40625 9.859375 
Q 17.875 8.796875 18.921875 8.15625 
Q 19.96875 7.515625 21.921875 7.515625 
Q 23.390625 7.515625 25.78125 7.859375 
z
" id="ArialMT-116"/>
        <path d="M 6.59375 0 
L 6.59375 71.578125 
L 15.375 71.578125 
L 15.375 45.90625 
Q 21.53125 53.03125 30.90625 53.03125 
Q 36.671875 53.03125 40.921875 50.75 
Q 45.171875 48.484375 47 44.484375 
Q 48.828125 40.484375 48.828125 32.859375 
L 48.828125 0 
L 40.046875 0 
L 40.046875 32.859375 
Q 40.046875 39.453125 37.1875 42.453125 
Q 34.328125 45.453125 29.109375 45.453125 
Q 25.203125 45.453125 21.75 43.421875 
Q 18.3125 41.40625 16.84375 37.9375 
Q 15.375 34.46875 15.375 28.375 
L 15.375 0 
z
" id="ArialMT-104"/>
        <path d="M 6.203125 -19.96875 
L 5.21875 -11.71875 
Q 8.109375 -12.5 10.25 -12.5 
Q 13.1875 -12.5 14.9375 -11.515625 
Q 16.703125 -10.546875 17.828125 -8.796875 
Q 18.65625 -7.46875 20.515625 -2.25 
Q 20.75 -1.515625 21.296875 -0.09375 
L 1.609375 51.859375 
L 11.078125 51.859375 
L 21.875 21.828125 
Q 23.96875 16.109375 25.640625 9.8125 
Q 27.15625 15.875 29.25 21.625 
L 40.328125 51.859375 
L 49.125 51.859375 
L 29.390625 -0.875 
Q 26.21875 -9.421875 24.46875 -12.640625 
Q 22.125 -17 19.09375 -19.015625 
Q 16.0625 -21.046875 11.859375 -21.046875 
Q 9.328125 -21.046875 6.203125 -19.96875 
z
" id="ArialMT-121"/>
       </defs>
       <use xlink:href="#ArialMT-72"/>
       <use x="72.216797" xlink:href="#ArialMT-101"/>
       <use x="127.832031" xlink:href="#ArialMT-97"/>
       <use x="183.447266" xlink:href="#ArialMT-108"/>
       <use x="205.664062" xlink:href="#ArialMT-116"/>
       <use x="233.447266" xlink:href="#ArialMT-104"/>
       <use x="289.0625" xlink:href="#ArialMT-121"/>
      </g>
     </g>
    </g>
    <g id="xtick_2">
     <g id="text_2">
      <!-- Slight -->
      <g style="fill:#262626;" transform="translate(562.020984 1231.838438)scale(0.5 -0.5)">
       <defs>
        <path d="M 4.5 23 
L 13.421875 23.78125 
Q 14.0625 18.40625 16.375 14.96875 
Q 18.703125 11.53125 23.578125 9.40625 
Q 28.46875 7.28125 34.578125 7.28125 
Q 39.984375 7.28125 44.140625 8.890625 
Q 48.296875 10.5 50.3125 13.296875 
Q 52.34375 16.109375 52.34375 19.4375 
Q 52.34375 22.796875 50.390625 25.3125 
Q 48.4375 27.828125 43.953125 29.546875 
Q 41.0625 30.671875 31.203125 33.03125 
Q 21.34375 35.40625 17.390625 37.5 
Q 12.25 40.1875 9.734375 44.15625 
Q 7.234375 48.140625 7.234375 53.078125 
Q 7.234375 58.5 10.296875 63.203125 
Q 13.375 67.921875 19.28125 70.359375 
Q 25.203125 72.796875 32.421875 72.796875 
Q 40.375 72.796875 46.453125 70.234375 
Q 52.546875 67.671875 55.8125 62.6875 
Q 59.078125 57.71875 59.328125 51.421875 
L 50.25 50.734375 
Q 49.515625 57.515625 45.28125 60.984375 
Q 41.0625 64.453125 32.8125 64.453125 
Q 24.21875 64.453125 20.28125 61.296875 
Q 16.359375 58.15625 16.359375 53.71875 
Q 16.359375 49.859375 19.140625 47.359375 
Q 21.875 44.875 33.421875 42.265625 
Q 44.96875 39.65625 49.265625 37.703125 
Q 55.515625 34.8125 58.484375 30.390625 
Q 61.46875 25.984375 61.46875 20.21875 
Q 61.46875 14.5 58.203125 9.4375 
Q 54.9375 4.390625 48.796875 1.578125 
Q 42.671875 -1.21875 35.015625 -1.21875 
Q 25.296875 -1.21875 18.71875 1.609375 
Q 12.15625 4.4375 8.421875 10.125 
Q 4.6875 15.828125 4.5 23 
z
" id="ArialMT-83"/>
        <path d="M 6.640625 61.46875 
L 6.640625 71.578125 
L 15.4375 71.578125 
L 15.4375 61.46875 
z
M 6.640625 0 
L 6.640625 51.859375 
L 15.4375 51.859375 
L 15.4375 0 
z
" id="ArialMT-105"/>
        <path d="M 4.984375 -4.296875 
L 13.53125 -5.5625 
Q 14.0625 -9.515625 16.5 -11.328125 
Q 19.78125 -13.765625 25.4375 -13.765625 
Q 31.546875 -13.765625 34.859375 -11.328125 
Q 38.1875 -8.890625 39.359375 -4.5 
Q 40.046875 -1.8125 39.984375 6.78125 
Q 34.234375 0 25.640625 0 
Q 14.9375 0 9.078125 7.71875 
Q 3.21875 15.4375 3.21875 26.21875 
Q 3.21875 33.640625 5.90625 39.90625 
Q 8.59375 46.1875 13.6875 49.609375 
Q 18.796875 53.03125 25.6875 53.03125 
Q 34.859375 53.03125 40.828125 45.609375 
L 40.828125 51.859375 
L 48.921875 51.859375 
L 48.921875 7.03125 
Q 48.921875 -5.078125 46.453125 -10.125 
Q 44 -15.1875 38.640625 -18.109375 
Q 33.296875 -21.046875 25.484375 -21.046875 
Q 16.21875 -21.046875 10.5 -16.875 
Q 4.78125 -12.703125 4.984375 -4.296875 
z
M 12.25 26.859375 
Q 12.25 16.65625 16.296875 11.96875 
Q 20.359375 7.28125 26.46875 7.28125 
Q 32.515625 7.28125 36.609375 11.9375 
Q 40.71875 16.609375 40.71875 26.5625 
Q 40.71875 36.078125 36.5 40.90625 
Q 32.28125 45.75 26.3125 45.75 
Q 20.453125 45.75 16.34375 40.984375 
Q 12.25 36.234375 12.25 26.859375 
z
" id="ArialMT-103"/>
       </defs>
       <use xlink:href="#ArialMT-83"/>
       <use x="66.699219" xlink:href="#ArialMT-108"/>
       <use x="88.916016" xlink:href="#ArialMT-105"/>
       <use x="111.132812" xlink:href="#ArialMT-103"/>
       <use x="166.748047" xlink:href="#ArialMT-104"/>
       <use x="222.363281" xlink:href="#ArialMT-116"/>
      </g>
     </g>
    </g>
    <g id="xtick_3">
     <g id="text_3">
      <!-- Moderate -->
      <g style="fill:#262626;" transform="translate(786.981072 1231.229063)scale(0.5 -0.5)">
       <defs>
        <path d="M 7.421875 0 
L 7.421875 71.578125 
L 21.6875 71.578125 
L 38.625 20.90625 
Q 40.96875 13.8125 42.046875 10.296875 
Q 43.265625 14.203125 45.84375 21.78125 
L 62.984375 71.578125 
L 75.734375 71.578125 
L 75.734375 0 
L 66.609375 0 
L 66.609375 59.90625 
L 45.796875 0 
L 37.25 0 
L 16.546875 60.9375 
L 16.546875 0 
z
" id="ArialMT-77"/>
        <path d="M 3.328125 25.921875 
Q 3.328125 40.328125 11.328125 47.265625 
Q 18.015625 53.03125 27.640625 53.03125 
Q 38.328125 53.03125 45.109375 46.015625 
Q 51.90625 39.015625 51.90625 26.65625 
Q 51.90625 16.65625 48.90625 10.90625 
Q 45.90625 5.171875 40.15625 2 
Q 34.421875 -1.171875 27.640625 -1.171875 
Q 16.75 -1.171875 10.03125 5.8125 
Q 3.328125 12.796875 3.328125 25.921875 
z
M 12.359375 25.921875 
Q 12.359375 15.96875 16.703125 11.015625 
Q 21.046875 6.0625 27.640625 6.0625 
Q 34.1875 6.0625 38.53125 11.03125 
Q 42.875 16.015625 42.875 26.21875 
Q 42.875 35.84375 38.5 40.796875 
Q 34.125 45.75 27.640625 45.75 
Q 21.046875 45.75 16.703125 40.8125 
Q 12.359375 35.890625 12.359375 25.921875 
z
" id="ArialMT-111"/>
        <path d="M 40.234375 0 
L 40.234375 6.546875 
Q 35.296875 -1.171875 25.734375 -1.171875 
Q 19.53125 -1.171875 14.328125 2.25 
Q 9.125 5.671875 6.265625 11.796875 
Q 3.421875 17.921875 3.421875 25.875 
Q 3.421875 33.640625 6 39.96875 
Q 8.59375 46.296875 13.765625 49.65625 
Q 18.953125 53.03125 25.34375 53.03125 
Q 30.03125 53.03125 33.6875 51.046875 
Q 37.359375 49.078125 39.65625 45.90625 
L 39.65625 71.578125 
L 48.390625 71.578125 
L 48.390625 0 
z
M 12.453125 25.875 
Q 12.453125 15.921875 16.640625 10.984375 
Q 20.84375 6.0625 26.5625 6.0625 
Q 32.328125 6.0625 36.34375 10.765625 
Q 40.375 15.484375 40.375 25.140625 
Q 40.375 35.796875 36.265625 40.765625 
Q 32.171875 45.75 26.171875 45.75 
Q 20.3125 45.75 16.375 40.96875 
Q 12.453125 36.1875 12.453125 25.875 
z
" id="ArialMT-100"/>
        <path d="M 6.5 0 
L 6.5 51.859375 
L 14.40625 51.859375 
L 14.40625 44 
Q 17.4375 49.515625 20 51.265625 
Q 22.5625 53.03125 25.640625 53.03125 
Q 30.078125 53.03125 34.671875 50.203125 
L 31.640625 42.046875 
Q 28.421875 43.953125 25.203125 43.953125 
Q 22.3125 43.953125 20.015625 42.21875 
Q 17.71875 40.484375 16.75 37.40625 
Q 15.28125 32.71875 15.28125 27.15625 
L 15.28125 0 
z
" id="ArialMT-114"/>
       </defs>
       <use xlink:href="#ArialMT-77"/>
       <use x="83.300781" xlink:href="#ArialMT-111"/>
       <use x="138.916016" xlink:href="#ArialMT-100"/>
       <use x="194.53125" xlink:href="#ArialMT-101"/>
       <use x="250.146484" xlink:href="#ArialMT-114"/>
       <use x="283.447266" xlink:href="#ArialMT-97"/>
       <use x="339.0625" xlink:href="#ArialMT-116"/>
       <use x="366.845703" xlink:href="#ArialMT-101"/>
      </g>
     </g>
    </g>
    <g id="xtick_4">
     <g id="text_4">
      <!-- Severe -->
      <g style="fill:#262626;" transform="translate(1081.409909 1231.229063)scale(0.5 -0.5)">
       <defs>
        <path d="M 21 0 
L 1.265625 51.859375 
L 10.546875 51.859375 
L 21.6875 20.796875 
Q 23.484375 15.765625 25 10.359375 
Q 26.171875 14.453125 28.265625 20.21875 
L 39.796875 51.859375 
L 48.828125 51.859375 
L 29.203125 0 
z
" id="ArialMT-118"/>
       </defs>
       <use xlink:href="#ArialMT-83"/>
       <use x="66.699219" xlink:href="#ArialMT-101"/>
       <use x="122.314453" xlink:href="#ArialMT-118"/>
       <use x="172.314453" xlink:href="#ArialMT-101"/>
       <use x="227.929688" xlink:href="#ArialMT-114"/>
       <use x="261.230469" xlink:href="#ArialMT-101"/>
      </g>
     </g>
    </g>
   </g>
   <g id="matplotlib.axis_2">
    <g id="ytick_1">
     <g id="line2d_1">
      <path clip-path="url(#pca9c29d691)" d="M 202.32 1093.898351 
L 1236.178781 1093.898351 
" style="fill:none;stroke:#cccccc;stroke-linecap:round;stroke-width:2;"/>
     </g>
     <g id="text_5">
      <!-- 0 -->
      <g style="fill:#262626;" transform="translate(159.015313 1111.792882)scale(0.5 -0.5)">
       <defs>
        <path d="M 4.15625 35.296875 
Q 4.15625 48 6.765625 55.734375 
Q 9.375 63.484375 14.515625 67.671875 
Q 19.671875 71.875 27.484375 71.875 
Q 33.25 71.875 37.59375 69.546875 
Q 41.9375 67.234375 44.765625 62.859375 
Q 47.609375 58.5 49.21875 52.21875 
Q 50.828125 45.953125 50.828125 35.296875 
Q 50.828125 22.703125 48.234375 14.96875 
Q 45.65625 7.234375 40.5 3 
Q 35.359375 -1.21875 27.484375 -1.21875 
Q 17.140625 -1.21875 11.234375 6.203125 
Q 4.15625 15.140625 4.15625 35.296875 
z
M 13.1875 35.296875 
Q 13.1875 17.671875 17.3125 11.828125 
Q 21.4375 6 27.484375 6 
Q 33.546875 6 37.671875 11.859375 
Q 41.796875 17.71875 41.796875 35.296875 
Q 41.796875 52.984375 37.671875 58.78125 
Q 33.546875 64.59375 27.390625 64.59375 
Q 21.34375 64.59375 17.71875 59.46875 
Q 13.1875 52.9375 13.1875 35.296875 
z
" id="ArialMT-48"/>
       </defs>
       <use xlink:href="#ArialMT-48"/>
      </g>
     </g>
    </g>
    <g id="ytick_2">
     <g id="line2d_2">
      <path clip-path="url(#pca9c29d691)" d="M 202.32 870.940388 
L 1236.178781 870.940388 
" style="fill:none;stroke:#cccccc;stroke-linecap:round;stroke-width:2;"/>
     </g>
     <g id="text_6">
      <!-- 200 -->
      <g style="fill:#262626;" transform="translate(103.405938 888.834919)scale(0.5 -0.5)">
       <defs>
        <path d="M 50.34375 8.453125 
L 50.34375 0 
L 3.03125 0 
Q 2.9375 3.171875 4.046875 6.109375 
Q 5.859375 10.9375 9.828125 15.625 
Q 13.8125 20.3125 21.34375 26.46875 
Q 33.015625 36.03125 37.109375 41.625 
Q 41.21875 47.21875 41.21875 52.203125 
Q 41.21875 57.421875 37.46875 61 
Q 33.734375 64.59375 27.734375 64.59375 
Q 21.390625 64.59375 17.578125 60.78125 
Q 13.765625 56.984375 13.71875 50.25 
L 4.6875 51.171875 
Q 5.609375 61.28125 11.65625 66.578125 
Q 17.71875 71.875 27.9375 71.875 
Q 38.234375 71.875 44.234375 66.15625 
Q 50.25 60.453125 50.25 52 
Q 50.25 47.703125 48.484375 43.546875 
Q 46.734375 39.40625 42.65625 34.8125 
Q 38.578125 30.21875 29.109375 22.21875 
Q 21.1875 15.578125 18.9375 13.203125 
Q 16.703125 10.84375 15.234375 8.453125 
z
" id="ArialMT-50"/>
       </defs>
       <use xlink:href="#ArialMT-50"/>
       <use x="55.615234" xlink:href="#ArialMT-48"/>
       <use x="111.230469" xlink:href="#ArialMT-48"/>
      </g>
     </g>
    </g>
    <g id="ytick_3">
     <g id="line2d_3">
      <path clip-path="url(#pca9c29d691)" d="M 202.32 647.982425 
L 1236.178781 647.982425 
" style="fill:none;stroke:#cccccc;stroke-linecap:round;stroke-width:2;"/>
     </g>
     <g id="text_7">
      <!-- 400 -->
      <g style="fill:#262626;" transform="translate(103.405938 665.876956)scale(0.5 -0.5)">
       <defs>
        <path d="M 32.328125 0 
L 32.328125 17.140625 
L 1.265625 17.140625 
L 1.265625 25.203125 
L 33.9375 71.578125 
L 41.109375 71.578125 
L 41.109375 25.203125 
L 50.78125 25.203125 
L 50.78125 17.140625 
L 41.109375 17.140625 
L 41.109375 0 
z
M 32.328125 25.203125 
L 32.328125 57.46875 
L 9.90625 25.203125 
z
" id="ArialMT-52"/>
       </defs>
       <use xlink:href="#ArialMT-52"/>
       <use x="55.615234" xlink:href="#ArialMT-48"/>
       <use x="111.230469" xlink:href="#ArialMT-48"/>
      </g>
     </g>
    </g>
    <g id="ytick_4">
     <g id="line2d_4">
      <path clip-path="url(#pca9c29d691)" d="M 202.32 425.024462 
L 1236.178781 425.024462 
" style="fill:none;stroke:#cccccc;stroke-linecap:round;stroke-width:2;"/>
     </g>
     <g id="text_8">
      <!-- 600 -->
      <g style="fill:#262626;" transform="translate(103.405938 442.918993)scale(0.5 -0.5)">
       <defs>
        <path d="M 49.75 54.046875 
L 41.015625 53.375 
Q 39.84375 58.546875 37.703125 60.890625 
Q 34.125 64.65625 28.90625 64.65625 
Q 24.703125 64.65625 21.53125 62.3125 
Q 17.390625 59.28125 14.984375 53.46875 
Q 12.59375 47.65625 12.5 36.921875 
Q 15.671875 41.75 20.265625 44.09375 
Q 24.859375 46.4375 29.890625 46.4375 
Q 38.671875 46.4375 44.84375 39.96875 
Q 51.03125 33.5 51.03125 23.25 
Q 51.03125 16.5 48.125 10.71875 
Q 45.21875 4.9375 40.140625 1.859375 
Q 35.0625 -1.21875 28.609375 -1.21875 
Q 17.625 -1.21875 10.6875 6.859375 
Q 3.765625 14.9375 3.765625 33.5 
Q 3.765625 54.25 11.421875 63.671875 
Q 18.109375 71.875 29.4375 71.875 
Q 37.890625 71.875 43.28125 67.140625 
Q 48.6875 62.40625 49.75 54.046875 
z
M 13.875 23.1875 
Q 13.875 18.65625 15.796875 14.5 
Q 17.71875 10.359375 21.1875 8.171875 
Q 24.65625 6 28.46875 6 
Q 34.03125 6 38.03125 10.484375 
Q 42.046875 14.984375 42.046875 22.703125 
Q 42.046875 30.125 38.078125 34.390625 
Q 34.125 38.671875 28.125 38.671875 
Q 22.171875 38.671875 18.015625 34.390625 
Q 13.875 30.125 13.875 23.1875 
z
" id="ArialMT-54"/>
       </defs>
       <use xlink:href="#ArialMT-54"/>
       <use x="55.615234" xlink:href="#ArialMT-48"/>
       <use x="111.230469" xlink:href="#ArialMT-48"/>
      </g>
     </g>
    </g>
    <g id="ytick_5">
     <g id="line2d_5">
      <path clip-path="url(#pca9c29d691)" d="M 202.32 202.066499 
L 1236.178781 202.066499 
" style="fill:none;stroke:#cccccc;stroke-linecap:round;stroke-width:2;"/>
     </g>
     <g id="text_9">
      <!-- 800 -->
      <g style="fill:#262626;" transform="translate(103.405938 219.96103)scale(0.5 -0.5)">
       <defs>
        <path d="M 17.671875 38.8125 
Q 12.203125 40.828125 9.5625 44.53125 
Q 6.9375 48.25 6.9375 53.421875 
Q 6.9375 61.234375 12.546875 66.546875 
Q 18.171875 71.875 27.484375 71.875 
Q 36.859375 71.875 42.578125 66.421875 
Q 48.296875 60.984375 48.296875 53.171875 
Q 48.296875 48.1875 45.671875 44.5 
Q 43.0625 40.828125 37.75 38.8125 
Q 44.34375 36.671875 47.78125 31.875 
Q 51.21875 27.09375 51.21875 20.453125 
Q 51.21875 11.28125 44.71875 5.03125 
Q 38.234375 -1.21875 27.640625 -1.21875 
Q 17.046875 -1.21875 10.546875 5.046875 
Q 4.046875 11.328125 4.046875 20.703125 
Q 4.046875 27.6875 7.59375 32.390625 
Q 11.140625 37.109375 17.671875 38.8125 
z
M 15.921875 53.71875 
Q 15.921875 48.640625 19.1875 45.40625 
Q 22.46875 42.1875 27.6875 42.1875 
Q 32.765625 42.1875 36.015625 45.375 
Q 39.265625 48.578125 39.265625 53.21875 
Q 39.265625 58.0625 35.90625 61.359375 
Q 32.5625 64.65625 27.59375 64.65625 
Q 22.5625 64.65625 19.234375 61.421875 
Q 15.921875 58.203125 15.921875 53.71875 
z
M 13.09375 20.65625 
Q 13.09375 16.890625 14.875 13.375 
Q 16.65625 9.859375 20.171875 7.921875 
Q 23.6875 6 27.734375 6 
Q 34.03125 6 38.125 10.046875 
Q 42.234375 14.109375 42.234375 20.359375 
Q 42.234375 26.703125 38.015625 30.859375 
Q 33.796875 35.015625 27.4375 35.015625 
Q 21.234375 35.015625 17.15625 30.90625 
Q 13.09375 26.8125 13.09375 20.65625 
z
" id="ArialMT-56"/>
       </defs>
       <use xlink:href="#ArialMT-56"/>
       <use x="55.615234" xlink:href="#ArialMT-48"/>
       <use x="111.230469" xlink:href="#ArialMT-48"/>
      </g>
     </g>
    </g>
    <g id="text_10">
     <!-- Abundance -->
     <g style="fill:#262626;" transform="translate(89.468438 764.522187)rotate(-90)scale(0.5 -0.5)">
      <defs>
       <path d="M -0.140625 0 
L 27.34375 71.578125 
L 37.546875 71.578125 
L 66.84375 0 
L 56.0625 0 
L 47.703125 21.6875 
L 17.78125 21.6875 
L 9.90625 0 
z
M 20.515625 29.390625 
L 44.78125 29.390625 
L 37.3125 49.21875 
Q 33.890625 58.25 32.234375 64.0625 
Q 30.859375 57.171875 28.375 50.390625 
z
" id="ArialMT-65"/>
       <path d="M 14.703125 0 
L 6.546875 0 
L 6.546875 71.578125 
L 15.328125 71.578125 
L 15.328125 46.046875 
Q 20.90625 53.03125 29.546875 53.03125 
Q 34.328125 53.03125 38.59375 51.09375 
Q 42.875 49.171875 45.625 45.671875 
Q 48.390625 42.1875 49.953125 37.25 
Q 51.515625 32.328125 51.515625 26.703125 
Q 51.515625 13.375 44.921875 6.09375 
Q 38.328125 -1.171875 29.109375 -1.171875 
Q 19.921875 -1.171875 14.703125 6.5 
z
M 14.59375 26.3125 
Q 14.59375 17 17.140625 12.84375 
Q 21.296875 6.0625 28.375 6.0625 
Q 34.125 6.0625 38.328125 11.0625 
Q 42.53125 16.0625 42.53125 25.984375 
Q 42.53125 36.140625 38.5 40.96875 
Q 34.46875 45.796875 28.765625 45.796875 
Q 23 45.796875 18.796875 40.796875 
Q 14.59375 35.796875 14.59375 26.3125 
z
" id="ArialMT-98"/>
       <path d="M 40.578125 0 
L 40.578125 7.625 
Q 34.515625 -1.171875 24.125 -1.171875 
Q 19.53125 -1.171875 15.546875 0.578125 
Q 11.578125 2.34375 9.640625 5 
Q 7.71875 7.671875 6.9375 11.53125 
Q 6.390625 14.109375 6.390625 19.734375 
L 6.390625 51.859375 
L 15.1875 51.859375 
L 15.1875 23.09375 
Q 15.1875 16.21875 15.71875 13.8125 
Q 16.546875 10.359375 19.234375 8.375 
Q 21.921875 6.390625 25.875 6.390625 
Q 29.828125 6.390625 33.296875 8.421875 
Q 36.765625 10.453125 38.203125 13.9375 
Q 39.65625 17.4375 39.65625 24.078125 
L 39.65625 51.859375 
L 48.4375 51.859375 
L 48.4375 0 
z
" id="ArialMT-117"/>
       <path d="M 6.59375 0 
L 6.59375 51.859375 
L 14.5 51.859375 
L 14.5 44.484375 
Q 20.21875 53.03125 31 53.03125 
Q 35.6875 53.03125 39.625 51.34375 
Q 43.5625 49.65625 45.515625 46.921875 
Q 47.46875 44.1875 48.25 40.4375 
Q 48.734375 37.984375 48.734375 31.890625 
L 48.734375 0 
L 39.9375 0 
L 39.9375 31.546875 
Q 39.9375 36.921875 38.90625 39.578125 
Q 37.890625 42.234375 35.28125 43.8125 
Q 32.671875 45.40625 29.15625 45.40625 
Q 23.53125 45.40625 19.453125 41.84375 
Q 15.375 38.28125 15.375 28.328125 
L 15.375 0 
z
" id="ArialMT-110"/>
       <path d="M 40.4375 19 
L 49.078125 17.875 
Q 47.65625 8.9375 41.8125 3.875 
Q 35.984375 -1.171875 27.484375 -1.171875 
Q 16.84375 -1.171875 10.375 5.78125 
Q 3.90625 12.75 3.90625 25.734375 
Q 3.90625 34.125 6.6875 40.421875 
Q 9.46875 46.734375 15.15625 49.875 
Q 20.84375 53.03125 27.546875 53.03125 
Q 35.984375 53.03125 41.359375 48.75 
Q 46.734375 44.484375 48.25 36.625 
L 39.703125 35.296875 
Q 38.484375 40.53125 35.375 43.15625 
Q 32.28125 45.796875 27.875 45.796875 
Q 21.234375 45.796875 17.078125 41.03125 
Q 12.9375 36.28125 12.9375 25.984375 
Q 12.9375 15.53125 16.9375 10.796875 
Q 20.953125 6.0625 27.390625 6.0625 
Q 32.5625 6.0625 36.03125 9.234375 
Q 39.5 12.40625 40.4375 19 
z
" id="ArialMT-99"/>
      </defs>
      <use xlink:href="#ArialMT-65"/>
      <use x="66.699219" xlink:href="#ArialMT-98"/>
      <use x="122.314453" xlink:href="#ArialMT-117"/>
      <use x="177.929688" xlink:href="#ArialMT-110"/>
      <use x="233.544922" xlink:href="#ArialMT-100"/>
      <use x="289.160156" xlink:href="#ArialMT-97"/>
      <use x="344.775391" xlink:href="#ArialMT-110"/>
      <use x="400.390625" xlink:href="#ArialMT-99"/>
      <use x="450.390625" xlink:href="#ArialMT-101"/>
     </g>
    </g>
   </g>
   <g id="PolyCollection_1">
    <defs>
     <path d="M 413.097273 -175.819969 
L 299.954208 -175.819969 
L 290.979152 -179.616458 
L 282.055714 -183.412947 
L 273.548602 -187.209436 
L 265.836038 -191.005925 
L 259.280098 -194.802414 
L 254.196219 -198.598903 
L 250.825544 -202.395392 
L 249.313581 -206.191881 
L 249.697893 -209.98837 
L 251.906369 -213.784859 
L 255.76614 -217.581348 
L 261.021811 -221.377837 
L 267.360441 -225.174326 
L 274.440018 -228.970815 
L 281.917927 -232.767303 
L 289.476279 -236.563792 
L 296.841698 -240.360281 
L 303.798185 -244.15677 
L 310.19273 -247.953259 
L 315.934298 -251.749748 
L 320.987496 -255.546237 
L 325.362627 -259.342726 
L 329.103911 -263.139215 
L 332.277481 -266.935704 
L 334.960405 -270.732193 
L 337.231599 -274.528682 
L 339.16502 -278.325171 
L 340.825222 -282.12166 
L 342.265058 -285.918149 
L 343.525154 -289.714638 
L 344.6347 -293.511127 
L 345.613115 -297.307615 
L 346.472142 -301.104104 
L 347.218059 -304.900593 
L 347.853716 -308.697082 
L 348.380238 -312.493571 
L 348.798295 -316.29006 
L 349.108933 -320.086549 
L 349.314018 -323.883038 
L 349.41639 -327.679527 
L 349.419872 -331.476016 
L 349.329255 -335.272505 
L 349.150364 -339.068994 
L 348.890271 -342.865483 
L 348.557647 -346.661972 
L 348.163199 -350.458461 
L 347.720076 -354.25495 
L 347.244123 -358.051439 
L 346.753863 -361.847927 
L 346.270111 -365.644416 
L 345.815208 -369.440905 
L 345.411905 -373.237394 
L 345.082021 -377.033883 
L 344.845005 -380.830372 
L 344.716601 -384.626861 
L 344.707764 -388.42335 
L 344.823967 -392.219839 
L 345.064956 -396.016328 
L 345.424981 -399.812817 
L 345.893425 -403.609306 
L 346.455754 -407.405795 
L 347.094651 -411.202284 
L 347.791196 -414.998773 
L 348.525998 -418.795262 
L 349.280167 -422.591751 
L 350.036091 -426.388239 
L 350.777993 -430.184728 
L 351.492273 -433.981217 
L 352.16767 -437.777706 
L 352.795279 -441.574195 
L 353.368458 -445.370684 
L 353.882662 -449.167173 
L 354.335226 -452.963662 
L 354.725126 -456.760151 
L 355.052727 -460.55664 
L 355.319538 -464.353129 
L 355.527993 -468.149618 
L 355.681268 -471.946107 
L 355.783148 -475.742596 
L 355.837953 -479.539085 
L 355.85052 -483.335574 
L 355.826226 -487.132063 
L 355.771029 -490.928551 
L 355.69149 -494.72504 
L 355.594746 -498.521529 
L 355.4884 -502.318018 
L 355.380308 -506.114507 
L 355.278259 -509.910996 
L 355.189577 -513.707485 
L 355.12068 -517.503974 
L 355.076644 -521.300463 
L 355.060846 -525.096952 
L 355.074736 -528.893441 
L 355.117763 -532.68993 
L 355.187499 -536.486419 
L 355.279922 -540.282908 
L 355.389845 -544.079397 
L 355.511421 -547.875886 
L 355.638671 -551.672375 
L 357.41281 -551.672375 
L 357.41281 -551.672375 
L 357.54006 -547.875886 
L 357.661637 -544.079397 
L 357.77156 -540.282908 
L 357.863983 -536.486419 
L 357.933719 -532.68993 
L 357.976746 -528.893441 
L 357.990635 -525.096952 
L 357.974838 -521.300463 
L 357.930802 -517.503974 
L 357.861904 -513.707485 
L 357.773223 -509.910996 
L 357.671174 -506.114507 
L 357.563082 -502.318018 
L 357.456736 -498.521529 
L 357.359992 -494.72504 
L 357.280453 -490.928551 
L 357.225255 -487.132063 
L 357.200962 -483.335574 
L 357.213529 -479.539085 
L 357.268334 -475.742596 
L 357.370214 -471.946107 
L 357.523489 -468.149618 
L 357.731944 -464.353129 
L 357.998755 -460.55664 
L 358.326356 -456.760151 
L 358.716256 -452.963662 
L 359.16882 -449.167173 
L 359.683024 -445.370684 
L 360.256203 -441.574195 
L 360.883812 -437.777706 
L 361.559209 -433.981217 
L 362.273488 -430.184728 
L 363.015391 -426.388239 
L 363.771315 -422.591751 
L 364.525484 -418.795262 
L 365.260286 -414.998773 
L 365.956831 -411.202284 
L 366.595727 -407.405795 
L 367.158057 -403.609306 
L 367.626501 -399.812817 
L 367.986525 -396.016328 
L 368.227515 -392.219839 
L 368.343718 -388.42335 
L 368.334881 -384.626861 
L 368.206477 -380.830372 
L 367.969461 -377.033883 
L 367.639577 -373.237394 
L 367.236274 -369.440905 
L 366.78137 -365.644416 
L 366.297618 -361.847927 
L 365.807358 -358.051439 
L 365.331406 -354.25495 
L 364.888283 -350.458461 
L 364.493835 -346.661972 
L 364.161211 -342.865483 
L 363.901118 -339.068994 
L 363.722226 -335.272505 
L 363.631609 -331.476016 
L 363.635092 -327.679527 
L 363.737464 -323.883038 
L 363.942549 -320.086549 
L 364.253187 -316.29006 
L 364.671244 -312.493571 
L 365.197766 -308.697082 
L 365.833423 -304.900593 
L 366.57934 -301.104104 
L 367.438367 -297.307615 
L 368.416781 -293.511127 
L 369.526328 -289.714638 
L 370.786423 -285.918149 
L 372.226259 -282.12166 
L 373.886462 -278.325171 
L 375.819883 -274.528682 
L 378.091077 -270.732193 
L 380.774001 -266.935704 
L 383.94757 -263.139215 
L 387.688855 -259.342726 
L 392.063986 -255.546237 
L 397.117184 -251.749748 
L 402.858752 -247.953259 
L 409.253297 -244.15677 
L 416.209784 -240.360281 
L 423.575203 -236.563792 
L 431.133555 -232.767303 
L 438.611464 -228.970815 
L 445.69104 -225.174326 
L 452.029671 -221.377837 
L 457.285341 -217.581348 
L 461.145113 -213.784859 
L 463.353588 -209.98837 
L 463.737901 -206.191881 
L 462.225938 -202.395392 
L 458.855263 -198.598903 
L 453.771384 -194.802414 
L 447.215444 -191.005925 
L 439.50288 -187.209436 
L 430.995767 -183.412947 
L 422.07233 -179.616458 
L 413.097273 -175.819969 
z
" id="m87a1f23ac0" style="stroke:#3d3d3d;stroke-width:5;"/>
    </defs>
    <g clip-path="url(#pca9c29d691)">
     <use style="fill:#3a923a;stroke:#3d3d3d;stroke-width:5;" x="0" xlink:href="#m87a1f23ac0" y="1296"/>
    </g>
   </g>
   <g id="PolyCollection_2">
    <defs>
     <path d="M 652.783099 -166.443836 
L 596.329182 -166.443836 
L 593.359242 -169.911759 
L 590.37989 -173.379681 
L 587.442215 -176.847604 
L 584.599586 -180.315527 
L 581.905718 -183.783449 
L 579.412581 -187.251372 
L 577.168276 -190.719295 
L 575.214975 -194.187217 
L 573.587071 -197.65514 
L 572.309636 -201.123062 
L 571.397292 -204.590985 
L 570.853563 -208.058908 
L 570.670765 -211.52683 
L 570.830425 -214.994753 
L 571.304219 -218.462676 
L 572.055365 -221.930598 
L 573.040394 -225.398521 
L 574.211183 -228.866443 
L 575.517141 -232.334366 
L 576.907425 -235.802289 
L 578.333055 -239.270211 
L 579.748843 -242.738134 
L 581.115023 -246.206057 
L 582.398539 -249.673979 
L 583.573927 -253.141902 
L 584.623791 -256.609824 
L 585.538873 -260.077747 
L 586.317739 -263.54567 
L 586.966141 -267.013592 
L 587.49609 -270.481515 
L 587.924729 -273.949438 
L 588.27306 -277.41736 
L 588.564598 -280.885283 
L 588.824029 -284.353205 
L 589.075918 -287.821128 
L 589.343539 -291.289051 
L 589.647854 -294.756973 
L 590.00669 -298.224896 
L 590.434128 -301.692819 
L 590.940117 -305.160741 
L 591.530315 -308.628664 
L 592.206145 -312.096587 
L 592.965038 -315.564509 
L 593.800853 -319.032432 
L 594.704413 -322.500354 
L 595.664139 -325.968277 
L 596.666729 -329.4362 
L 597.697852 -332.904122 
L 598.742813 -336.372045 
L 599.787163 -339.839968 
L 600.81723 -343.30789 
L 601.820557 -346.775813 
L 602.786235 -350.243735 
L 603.705136 -353.711658 
L 604.570045 -357.179581 
L 605.375712 -360.647503 
L 606.118824 -364.115426 
L 606.79792 -367.583349 
L 607.413266 -371.051271 
L 607.966695 -374.519194 
L 608.461424 -377.987116 
L 608.901865 -381.455039 
L 609.293421 -384.922962 
L 609.642283 -388.390884 
L 609.955224 -391.858807 
L 610.239389 -395.32673 
L 610.502092 -398.794652 
L 610.750612 -402.262575 
L 610.991996 -405.730497 
L 611.232872 -409.19842 
L 611.479287 -412.666343 
L 611.736554 -416.134265 
L 612.009139 -419.602188 
L 612.300572 -423.070111 
L 612.613406 -426.538033 
L 612.949195 -430.005956 
L 613.30853 -433.473878 
L 613.691095 -436.941801 
L 614.095755 -440.409724 
L 614.520668 -443.877646 
L 614.963414 -447.345569 
L 615.421121 -450.813492 
L 615.890606 -454.281414 
L 616.368491 -457.749337 
L 616.851323 -461.217259 
L 617.335664 -464.685182 
L 617.818175 -468.153105 
L 618.295674 -471.621027 
L 618.765179 -475.08895 
L 619.223943 -478.556873 
L 619.669468 -482.024795 
L 620.09952 -485.492718 
L 620.512134 -488.96064 
L 620.905616 -492.428563 
L 621.278548 -495.896486 
L 621.629789 -499.364408 
L 621.958475 -502.832331 
L 622.264023 -506.300254 
L 622.546129 -509.768176 
L 626.566153 -509.768176 
L 626.566153 -509.768176 
L 626.848258 -506.300254 
L 627.153806 -502.832331 
L 627.482493 -499.364408 
L 627.833734 -495.896486 
L 628.206666 -492.428563 
L 628.600147 -488.96064 
L 629.012761 -485.492718 
L 629.442813 -482.024795 
L 629.888338 -478.556873 
L 630.347102 -475.08895 
L 630.816607 -471.621027 
L 631.294106 -468.153105 
L 631.776617 -464.685182 
L 632.260959 -461.217259 
L 632.74379 -457.749337 
L 633.221676 -454.281414 
L 633.69116 -450.813492 
L 634.148868 -447.345569 
L 634.591613 -443.877646 
L 635.016527 -440.409724 
L 635.421186 -436.941801 
L 635.803751 -433.473878 
L 636.163087 -430.005956 
L 636.498876 -426.538033 
L 636.811709 -423.070111 
L 637.103143 -419.602188 
L 637.375727 -416.134265 
L 637.632994 -412.666343 
L 637.879409 -409.19842 
L 638.120286 -405.730497 
L 638.361669 -402.262575 
L 638.610189 -398.794652 
L 638.872892 -395.32673 
L 639.157058 -391.858807 
L 639.469998 -388.390884 
L 639.81886 -384.922962 
L 640.210416 -381.455039 
L 640.650857 -377.987116 
L 641.145587 -374.519194 
L 641.699015 -371.051271 
L 642.314362 -367.583349 
L 642.993458 -364.115426 
L 643.736569 -360.647503 
L 644.542236 -357.179581 
L 645.407146 -353.711658 
L 646.326046 -350.243735 
L 647.291724 -346.775813 
L 648.295051 -343.30789 
L 649.325118 -339.839968 
L 650.369468 -336.372045 
L 651.414429 -332.904122 
L 652.445552 -329.4362 
L 653.448142 -325.968277 
L 654.407868 -322.500354 
L 655.311428 -319.032432 
L 656.147243 -315.564509 
L 656.906137 -312.096587 
L 657.581966 -308.628664 
L 658.172164 -305.160741 
L 658.678153 -301.692819 
L 659.105591 -298.224896 
L 659.464428 -294.756973 
L 659.768742 -291.289051 
L 660.036363 -287.821128 
L 660.288252 -284.353205 
L 660.547683 -280.885283 
L 660.839221 -277.41736 
L 661.187552 -273.949438 
L 661.616192 -270.481515 
L 662.146141 -267.013592 
L 662.794542 -263.54567 
L 663.573409 -260.077747 
L 664.48849 -256.609824 
L 665.538354 -253.141902 
L 666.713742 -249.673979 
L 667.997258 -246.206057 
L 669.363439 -242.738134 
L 670.779226 -239.270211 
L 672.204856 -235.802289 
L 673.59514 -232.334366 
L 674.901098 -228.866443 
L 676.071887 -225.398521 
L 677.056916 -221.930598 
L 677.808062 -218.462676 
L 678.281856 -214.994753 
L 678.441516 -211.52683 
L 678.258719 -208.058908 
L 677.71499 -204.590985 
L 676.802645 -201.123062 
L 675.52521 -197.65514 
L 673.897307 -194.187217 
L 671.944006 -190.719295 
L 669.6997 -187.251372 
L 667.206563 -183.783449 
L 664.512695 -180.315527 
L 661.670066 -176.847604 
L 658.732391 -173.379681 
L 655.753039 -169.911759 
L 652.783099 -166.443836 
z
" id="m10959aa546" style="stroke:#3d3d3d;stroke-width:5;"/>
    </defs>
    <g clip-path="url(#pca9c29d691)">
     <use style="fill:#2eabb8;stroke:#3d3d3d;stroke-width:5;" x="0" xlink:href="#m10959aa546" y="1296"/>
    </g>
   </g>
   <g id="PolyCollection_3">
    <defs>
     <path d="M 895.851446 -150.282218 
L 889.321635 -150.282218 
L 888.514369 -157.195797 
L 887.569152 -164.109376 
L 886.478902 -171.022956 
L 885.240393 -177.936535 
L 883.855124 -184.850115 
L 882.329995 -191.763694 
L 880.677724 -198.677273 
L 878.916879 -205.590853 
L 877.071488 -212.504432 
L 875.170185 -219.418011 
L 873.244925 -226.331591 
L 871.329337 -233.24517 
L 869.45686 -240.158749 
L 867.65883 -247.072329 
L 865.962711 -253.985908 
L 864.390671 -260.899487 
L 862.958656 -267.813067 
L 861.676074 -274.726646 
L 860.546113 -281.640225 
L 859.566651 -288.553805 
L 858.73163 -295.467384 
L 858.032706 -302.380963 
L 857.460968 -309.294543 
L 857.008508 -316.208122 
L 856.669655 -323.121702 
L 856.44174 -330.035281 
L 856.325338 -336.94886 
L 856.323979 -343.86244 
L 856.443416 -350.776019 
L 856.690557 -357.689598 
L 857.072217 -364.603178 
L 857.59384 -371.516757 
L 858.25834 -378.430336 
L 859.065166 -385.343916 
L 860.009684 -392.257495 
L 861.082924 -399.171074 
L 862.271695 -406.084654 
L 863.559056 -412.998233 
L 864.925093 -419.911812 
L 866.347936 -426.825392 
L 867.80492 -433.738971 
L 869.273806 -440.65255 
L 870.73395 -447.56613 
L 872.167316 -454.479709 
L 873.559262 -461.393289 
L 874.89902 -468.306868 
L 876.179835 -475.220447 
L 877.398771 -482.134027 
L 878.556202 -489.047606 
L 879.655067 -495.961185 
L 880.699967 -502.874765 
L 881.696214 -509.788344 
L 882.648928 -516.701923 
L 883.562285 -523.615503 
L 884.438969 -530.529082 
L 885.279888 -537.442661 
L 886.084142 -544.356241 
L 886.849223 -551.26982 
L 887.571411 -558.183399 
L 888.246272 -565.096979 
L 888.869202 -572.010558 
L 889.435948 -578.924137 
L 889.943029 -585.837717 
L 890.388042 -592.751296 
L 890.769824 -599.664876 
L 891.088475 -606.578455 
L 891.345271 -613.492034 
L 891.542499 -620.405614 
L 891.683254 -627.319193 
L 891.771233 -634.232772 
L 891.810566 -641.146352 
L 891.80569 -648.059931 
L 891.761275 -654.97351 
L 891.682206 -661.88709 
L 891.573587 -668.800669 
L 891.440767 -675.714248 
L 891.289347 -682.627828 
L 891.125167 -689.541407 
L 890.954247 -696.454986 
L 890.782694 -703.368566 
L 890.616559 -710.282145 
L 890.461677 -717.195724 
L 890.323479 -724.109304 
L 890.206814 -731.022883 
L 890.115782 -737.936463 
L 890.053588 -744.850042 
L 890.022432 -751.763621 
L 890.023438 -758.677201 
L 890.056619 -765.59078 
L 890.120891 -772.504359 
L 890.214122 -779.417939 
L 890.333235 -786.331518 
L 890.474345 -793.245097 
L 890.632941 -800.158677 
L 890.804098 -807.072256 
L 890.982714 -813.985835 
L 891.163754 -820.899415 
L 891.342486 -827.812994 
L 891.514691 -834.726573 
L 893.65839 -834.726573 
L 893.65839 -834.726573 
L 893.830595 -827.812994 
L 894.009327 -820.899415 
L 894.190367 -813.985835 
L 894.368983 -807.072256 
L 894.54014 -800.158677 
L 894.698736 -793.245097 
L 894.839846 -786.331518 
L 894.958959 -779.417939 
L 895.05219 -772.504359 
L 895.116462 -765.59078 
L 895.149643 -758.677201 
L 895.150649 -751.763621 
L 895.119493 -744.850042 
L 895.057299 -737.936463 
L 894.966267 -731.022883 
L 894.849602 -724.109304 
L 894.711404 -717.195724 
L 894.556522 -710.282145 
L 894.390387 -703.368566 
L 894.218834 -696.454986 
L 894.047914 -689.541407 
L 893.883734 -682.627828 
L 893.732314 -675.714248 
L 893.599494 -668.800669 
L 893.490875 -661.88709 
L 893.411806 -654.97351 
L 893.367391 -648.059931 
L 893.362515 -641.146352 
L 893.401848 -634.232772 
L 893.489827 -627.319193 
L 893.630582 -620.405614 
L 893.82781 -613.492034 
L 894.084606 -606.578455 
L 894.403257 -599.664876 
L 894.785039 -592.751296 
L 895.230052 -585.837717 
L 895.737133 -578.924137 
L 896.303879 -572.010558 
L 896.926809 -565.096979 
L 897.60167 -558.183399 
L 898.323858 -551.26982 
L 899.088939 -544.356241 
L 899.893193 -537.442661 
L 900.734112 -530.529082 
L 901.610796 -523.615503 
L 902.524153 -516.701923 
L 903.476867 -509.788344 
L 904.473114 -502.874765 
L 905.518014 -495.961185 
L 906.616879 -489.047606 
L 907.77431 -482.134027 
L 908.993245 -475.220447 
L 910.274061 -468.306868 
L 911.613819 -461.393289 
L 913.005765 -454.479709 
L 914.439131 -447.56613 
L 915.899275 -440.65255 
L 917.368161 -433.738971 
L 918.825145 -426.825392 
L 920.247988 -419.911812 
L 921.614025 -412.998233 
L 922.901386 -406.084654 
L 924.090157 -399.171074 
L 925.163397 -392.257495 
L 926.107915 -385.343916 
L 926.914741 -378.430336 
L 927.579241 -371.516757 
L 928.100864 -364.603178 
L 928.482524 -357.689598 
L 928.729665 -350.776019 
L 928.849102 -343.86244 
L 928.847743 -336.94886 
L 928.731341 -330.035281 
L 928.503426 -323.121702 
L 928.164573 -316.208122 
L 927.712113 -309.294543 
L 927.140375 -302.380963 
L 926.441451 -295.467384 
L 925.60643 -288.553805 
L 924.626968 -281.640225 
L 923.497007 -274.726646 
L 922.214425 -267.813067 
L 920.78241 -260.899487 
L 919.21037 -253.985908 
L 917.514251 -247.072329 
L 915.716221 -240.158749 
L 913.843744 -233.24517 
L 911.928156 -226.331591 
L 910.002896 -219.418011 
L 908.101593 -212.504432 
L 906.256202 -205.590853 
L 904.495357 -198.677273 
L 902.843086 -191.763694 
L 901.317957 -184.850115 
L 899.932688 -177.936535 
L 898.694179 -171.022956 
L 897.603929 -164.109376 
L 896.658712 -157.195797 
L 895.851446 -150.282218 
z
" id="mdf5489b6b5" style="stroke:#3d3d3d;stroke-width:5;"/>
    </defs>
    <g clip-path="url(#pca9c29d691)">
     <use style="fill:#a9aa35;stroke:#3d3d3d;stroke-width:5;" x="0" xlink:href="#mdf5489b6b5" y="1296"/>
    </g>
   </g>
   <g id="PolyCollection_4">
    <defs>
     <path d="M 1168.579404 -150.625033 
L 1152.654476 -150.625033 
L 1151.574696 -155.988998 
L 1150.437349 -161.352963 
L 1149.253661 -166.716928 
L 1148.03641 -172.080893 
L 1146.799487 -177.444858 
L 1145.557401 -182.808822 
L 1144.32473 -188.172787 
L 1143.115594 -193.536752 
L 1141.943145 -198.900717 
L 1140.81915 -204.264682 
L 1139.753654 -209.628647 
L 1138.754777 -214.992612 
L 1137.828625 -220.356576 
L 1136.979324 -225.720541 
L 1136.209161 -231.084506 
L 1135.518805 -236.448471 
L 1134.907568 -241.812436 
L 1134.373691 -247.176401 
L 1133.914608 -252.540365 
L 1133.527164 -257.90433 
L 1133.207771 -263.268295 
L 1132.952495 -268.63226 
L 1132.757066 -273.996225 
L 1132.616837 -279.36019 
L 1132.526704 -284.724155 
L 1132.481009 -290.088119 
L 1132.473467 -295.452084 
L 1132.49714 -300.816049 
L 1132.544463 -306.180014 
L 1132.607372 -311.543979 
L 1132.677506 -316.907944 
L 1132.746499 -322.271908 
L 1132.80635 -327.635873 
L 1132.849836 -332.999838 
L 1132.870955 -338.363803 
L 1132.865357 -343.727768 
L 1132.830736 -349.091733 
L 1132.767145 -354.455698 
L 1132.677216 -359.819662 
L 1132.566245 -365.183627 
L 1132.442146 -370.547592 
L 1132.315253 -375.911557 
L 1132.197983 -381.275522 
L 1132.104365 -386.639487 
L 1132.049456 -392.003451 
L 1132.048681 -397.367416 
L 1132.117118 -402.731381 
L 1132.268773 -408.095346 
L 1132.515883 -413.459311 
L 1132.868287 -418.823276 
L 1133.332896 -424.187241 
L 1133.913295 -429.551205 
L 1134.609502 -434.91517 
L 1135.417883 -440.279135 
L 1136.331246 -445.6431 
L 1137.339095 -451.007065 
L 1138.428024 -456.37103 
L 1139.58224 -461.734994 
L 1140.784171 -467.098959 
L 1142.015136 -472.462924 
L 1143.256027 -477.826889 
L 1144.487988 -483.190854 
L 1145.693036 -488.554819 
L 1146.854619 -493.918784 
L 1147.958077 -499.282748 
L 1148.990999 -504.646713 
L 1149.943471 -510.010678 
L 1150.808215 -515.374643 
L 1151.580625 -520.738608 
L 1152.258709 -526.102573 
L 1152.842959 -531.466537 
L 1153.336151 -536.830502 
L 1153.743101 -542.194467 
L 1154.070387 -547.558432 
L 1154.32604 -552.922397 
L 1154.519234 -558.286362 
L 1154.659956 -563.650327 
L 1154.758691 -569.014291 
L 1154.826101 -574.378256 
L 1154.872719 -579.742221 
L 1154.908659 -585.106186 
L 1154.943343 -590.470151 
L 1154.985259 -595.834116 
L 1155.041742 -601.19808 
L 1155.118811 -606.562045 
L 1155.221037 -611.92601 
L 1155.351473 -617.289975 
L 1155.511642 -622.65394 
L 1155.701573 -628.017905 
L 1155.919908 -633.38187 
L 1156.164049 -638.745834 
L 1156.430361 -644.109799 
L 1156.714398 -649.473764 
L 1157.01116 -654.837729 
L 1157.31535 -660.201694 
L 1157.62163 -665.565659 
L 1157.924857 -670.929623 
L 1158.220282 -676.293588 
L 1158.503718 -681.657553 
L 1162.730163 -681.657553 
L 1162.730163 -681.657553 
L 1163.013599 -676.293588 
L 1163.309023 -670.929623 
L 1163.61225 -665.565659 
L 1163.918531 -660.201694 
L 1164.222721 -654.837729 
L 1164.519483 -649.473764 
L 1164.80352 -644.109799 
L 1165.069831 -638.745834 
L 1165.313973 -633.38187 
L 1165.532307 -628.017905 
L 1165.722239 -622.65394 
L 1165.882407 -617.289975 
L 1166.012844 -611.92601 
L 1166.11507 -606.562045 
L 1166.192139 -601.19808 
L 1166.248622 -595.834116 
L 1166.290537 -590.470151 
L 1166.325222 -585.106186 
L 1166.361162 -579.742221 
L 1166.40778 -574.378256 
L 1166.47519 -569.014291 
L 1166.573925 -563.650327 
L 1166.714647 -558.286362 
L 1166.90784 -552.922397 
L 1167.163494 -547.558432 
L 1167.490779 -542.194467 
L 1167.89773 -536.830502 
L 1168.390922 -531.466537 
L 1168.975171 -526.102573 
L 1169.653256 -520.738608 
L 1170.425665 -515.374643 
L 1171.29041 -510.010678 
L 1172.242882 -504.646713 
L 1173.275804 -499.282748 
L 1174.379262 -493.918784 
L 1175.540845 -488.554819 
L 1176.745893 -483.190854 
L 1177.977854 -477.826889 
L 1179.218745 -472.462924 
L 1180.449709 -467.098959 
L 1181.65164 -461.734994 
L 1182.805856 -456.37103 
L 1183.894785 -451.007065 
L 1184.902634 -445.6431 
L 1185.815998 -440.279135 
L 1186.624379 -434.91517 
L 1187.320585 -429.551205 
L 1187.900985 -424.187241 
L 1188.365593 -418.823276 
L 1188.717997 -413.459311 
L 1188.965107 -408.095346 
L 1189.116762 -402.731381 
L 1189.1852 -397.367416 
L 1189.184425 -392.003451 
L 1189.129516 -386.639487 
L 1189.035897 -381.275522 
L 1188.918627 -375.911557 
L 1188.791734 -370.547592 
L 1188.667635 -365.183627 
L 1188.556664 -359.819662 
L 1188.466735 -354.455698 
L 1188.403145 -349.091733 
L 1188.368523 -343.727768 
L 1188.362925 -338.363803 
L 1188.384044 -332.999838 
L 1188.42753 -327.635873 
L 1188.487382 -322.271908 
L 1188.556375 -316.907944 
L 1188.626508 -311.543979 
L 1188.689417 -306.180014 
L 1188.736741 -300.816049 
L 1188.760413 -295.452084 
L 1188.752872 -290.088119 
L 1188.707177 -284.724155 
L 1188.617043 -279.36019 
L 1188.476815 -273.996225 
L 1188.281386 -268.63226 
L 1188.026109 -263.268295 
L 1187.706717 -257.90433 
L 1187.319272 -252.540365 
L 1186.860189 -247.176401 
L 1186.326313 -241.812436 
L 1185.715076 -236.448471 
L 1185.024719 -231.084506 
L 1184.254557 -225.720541 
L 1183.405256 -220.356576 
L 1182.479103 -214.992612 
L 1181.480226 -209.628647 
L 1180.414731 -204.264682 
L 1179.290735 -198.900717 
L 1178.118287 -193.536752 
L 1176.90915 -188.172787 
L 1175.67648 -182.808822 
L 1174.434393 -177.444858 
L 1173.197471 -172.080893 
L 1171.980219 -166.716928 
L 1170.796532 -161.352963 
L 1169.659185 -155.988998 
L 1168.579404 -150.625033 
z
" id="m2b28230609" style="stroke:#3d3d3d;stroke-width:5;"/>
    </defs>
    <g clip-path="url(#pca9c29d691)">
     <use style="fill:#c03d3e;stroke:#3d3d3d;stroke-width:5;" x="0" xlink:href="#m2b28230609" y="1296"/>
    </g>
   </g>
   <g id="line2d_6">
    <path clip-path="url(#pca9c29d691)" d="M 356.525741 1093.898351 
L 356.525741 1023.666593 
" style="fill:none;stroke:#3d3d3d;stroke-linecap:round;stroke-width:5;"/>
   </g>
   <g id="line2d_7">
    <path clip-path="url(#pca9c29d691)" d="M 356.525741 1093.898351 
L 356.525741 1061.012052 
" style="fill:none;stroke:#3d3d3d;stroke-linecap:round;stroke-width:15;"/>
   </g>
   <g id="line2d_8">
    <path clip-path="url(#pca9c29d691)" d="M 624.556141 1093.898351 
L 624.556141 821.889636 
" style="fill:none;stroke:#3d3d3d;stroke-linecap:round;stroke-width:5;"/>
   </g>
   <g id="line2d_9">
    <path clip-path="url(#pca9c29d691)" d="M 624.556141 1093.898351 
L 624.556141 982.140672 
" style="fill:none;stroke:#3d3d3d;stroke-linecap:round;stroke-width:15;"/>
   </g>
   <g id="line2d_10">
    <path clip-path="url(#pca9c29d691)" d="M 892.58654 1093.898351 
L 892.58654 761.690986 
" style="fill:none;stroke:#3d3d3d;stroke-linecap:round;stroke-width:5;"/>
   </g>
   <g id="line2d_11">
    <path clip-path="url(#pca9c29d691)" d="M 892.58654 1018.092644 
L 892.58654 881.530891 
" style="fill:none;stroke:#3d3d3d;stroke-linecap:round;stroke-width:15;"/>
   </g>
   <g id="line2d_12">
    <path clip-path="url(#pca9c29d691)" d="M 1160.61694 1093.898351 
L 1160.61694 665.819062 
" style="fill:none;stroke:#3d3d3d;stroke-linecap:round;stroke-width:5;"/>
   </g>
   <g id="line2d_13">
    <path clip-path="url(#pca9c29d691)" d="M 1160.61694 1026.453567 
L 1160.61694 860.90728 
" style="fill:none;stroke:#3d3d3d;stroke-linecap:round;stroke-width:15;"/>
   </g>
   <g id="line2d_14">
    <path clip-path="url(#pca9c29d691)" d="M 356.525741 725.435977 
L 356.525741 710.378202 
L 624.556141 710.378202 
L 624.556141 725.435977 
" style="fill:none;stroke:#333333;stroke-linecap:round;stroke-width:1.5;"/>
   </g>
   <g id="line2d_15">
    <path clip-path="url(#pca9c29d691)" d="M 624.556141 467.91953 
L 624.556141 452.861754 
L 892.58654 452.861754 
L 892.58654 467.91953 
" style="fill:none;stroke:#333333;stroke-linecap:round;stroke-width:1.5;"/>
   </g>
   <g id="line2d_16">
    <path clip-path="url(#pca9c29d691)" d="M 356.525741 379.810783 
L 356.525741 364.753007 
L 892.58654 364.753007 
L 892.58654 379.810783 
" style="fill:none;stroke:#333333;stroke-linecap:round;stroke-width:1.5;"/>
   </g>
   <g id="line2d_17">
    <path clip-path="url(#pca9c29d691)" d="M 624.556141 287.199477 
L 624.556141 272.141701 
L 1160.61694 272.141701 
L 1160.61694 287.199477 
" style="fill:none;stroke:#333333;stroke-linecap:round;stroke-width:1.5;"/>
   </g>
   <g id="line2d_18">
    <path clip-path="url(#pca9c29d691)" d="M 356.525741 189.855521 
L 356.525741 174.797745 
L 1160.61694 174.797745 
L 1160.61694 189.855521 
" style="fill:none;stroke:#333333;stroke-linecap:round;stroke-width:1.5;"/>
   </g>
   <g id="patch_3">
    <path d="M 202.32 1179.94 
L 202.32 96.12 
" style="fill:none;stroke:#cccccc;stroke-linecap:square;stroke-linejoin:miter;stroke-width:2.5;"/>
   </g>
   <g id="patch_4">
    <path d="M 1236.178781 1179.94 
L 1236.178781 96.12 
" style="fill:none;stroke:#cccccc;stroke-linecap:square;stroke-linejoin:miter;stroke-width:2.5;"/>
   </g>
   <g id="patch_5">
    <path d="M 202.32 1179.94 
L 1236.178781 1179.94 
" style="fill:none;stroke:#cccccc;stroke-linecap:square;stroke-linejoin:miter;stroke-width:2.5;"/>
   </g>
   <g id="patch_6">
    <path d="M 202.32 96.12 
L 1236.178781 96.12 
" style="fill:none;stroke:#cccccc;stroke-linecap:square;stroke-linejoin:miter;stroke-width:2.5;"/>
   </g>
   <g id="PathCollection_1">
    <defs>
     <path d="M 0 5 
C 1.326016 5 2.597899 4.473168 3.535534 3.535534 
C 4.473168 2.597899 5 1.326016 5 0 
C 5 -1.326016 4.473168 -2.597899 3.535534 -3.535534 
C 2.597899 -4.473168 1.326016 -5 0 -5 
C -1.326016 -5 -2.597899 -4.473168 -3.535534 -3.535534 
C -4.473168 -2.597899 -5 -1.326016 -5 0 
C -5 1.326016 -4.473168 2.597899 -3.535534 3.535534 
C -2.597899 4.473168 -1.326016 5 0 5 
z
" id="mda0069b0e0" style="stroke:#3d3d3d;stroke-width:2;"/>
    </defs>
    <g clip-path="url(#pca9c29d691)">
     <use style="fill:#ffffff;stroke:#3d3d3d;stroke-width:2;" x="356.525741" xlink:href="#mda0069b0e0" y="1093.898351"/>
    </g>
   </g>
   <g id="PathCollection_2">
    <g clip-path="url(#pca9c29d691)">
     <use style="fill:#ffffff;stroke:#3d3d3d;stroke-width:2;" x="624.556141" xlink:href="#mda0069b0e0" y="1039.27365"/>
    </g>
   </g>
   <g id="PathCollection_3">
    <g clip-path="url(#pca9c29d691)">
     <use style="fill:#ffffff;stroke:#3d3d3d;stroke-width:2;" x="892.58654" xlink:href="#mda0069b0e0" y="938.942567"/>
    </g>
   </g>
   <g id="PathCollection_4">
    <g clip-path="url(#pca9c29d691)">
     <use style="fill:#ffffff;stroke:#3d3d3d;stroke-width:2;" x="1160.61694" xlink:href="#mda0069b0e0" y="942.844331"/>
    </g>
   </g>
   <g id="text_11">
    <!-- ** -->
    <g transform="translate(471.080003 699.440702)scale(0.5 -0.5)">
     <defs>
      <path d="M 3.125 58.453125 
L 5.375 65.375 
Q 13.140625 62.640625 16.65625 60.640625 
Q 15.71875 69.484375 15.671875 72.796875 
L 22.75 72.796875 
Q 22.609375 67.96875 21.625 60.6875 
Q 26.65625 63.234375 33.15625 65.375 
L 35.40625 58.453125 
Q 29.203125 56.390625 23.25 55.71875 
Q 26.21875 53.125 31.640625 46.484375 
L 25.78125 42.328125 
Q 22.953125 46.1875 19.09375 52.828125 
Q 15.484375 45.953125 12.75 42.328125 
L 6.984375 46.484375 
Q 12.640625 53.46875 15.09375 55.71875 
Q 8.796875 56.9375 3.125 58.453125 
z
" id="ArialMT-42"/>
     </defs>
     <use xlink:href="#ArialMT-42"/>
     <use x="38.916016" xlink:href="#ArialMT-42"/>
    </g>
   </g>
   <g id="text_12">
    <!-- **** -->
    <g transform="translate(719.649466 441.924254)scale(0.5 -0.5)">
     <use xlink:href="#ArialMT-42"/>
     <use x="38.916016" xlink:href="#ArialMT-42"/>
     <use x="77.832031" xlink:href="#ArialMT-42"/>
     <use x="116.748047" xlink:href="#ArialMT-42"/>
    </g>
   </g>
   <g id="text_13">
    <!-- **** -->
    <g transform="translate(585.634266 353.815507)scale(0.5 -0.5)">
     <use xlink:href="#ArialMT-42"/>
     <use x="38.916016" xlink:href="#ArialMT-42"/>
     <use x="77.832031" xlink:href="#ArialMT-42"/>
     <use x="116.748047" xlink:href="#ArialMT-42"/>
    </g>
   </g>
   <g id="text_14">
    <!-- **** -->
    <g transform="translate(853.664665 261.204201)scale(0.5 -0.5)">
     <use xlink:href="#ArialMT-42"/>
     <use x="38.916016" xlink:href="#ArialMT-42"/>
     <use x="77.832031" xlink:href="#ArialMT-42"/>
     <use x="116.748047" xlink:href="#ArialMT-42"/>
    </g>
   </g>
   <g id="text_15">
    <!-- **** -->
    <g transform="translate(719.649466 163.860245)scale(0.5 -0.5)">
     <use xlink:href="#ArialMT-42"/>
     <use x="38.916016" xlink:href="#ArialMT-42"/>
     <use x="77.832031" xlink:href="#ArialMT-42"/>
     <use x="116.748047" xlink:href="#ArialMT-42"/>
    </g>
   </g>
   <g id="text_16">
    <!-- Porphyromonas sp. HMT 285 (K.W. p=3.49e-18) -->
    <g transform="translate(182.667359 90.12)scale(0.5 -0.5)">
     <defs>
      <path d="M 7.71875 0 
L 7.71875 71.578125 
L 34.71875 71.578125 
Q 41.84375 71.578125 45.609375 70.90625 
Q 50.875 70.015625 54.4375 67.546875 
Q 58.015625 65.09375 60.1875 60.640625 
Q 62.359375 56.203125 62.359375 50.875 
Q 62.359375 41.75 56.546875 35.421875 
Q 50.734375 29.109375 35.546875 29.109375 
L 17.1875 29.109375 
L 17.1875 0 
z
M 17.1875 37.546875 
L 35.6875 37.546875 
Q 44.875 37.546875 48.734375 40.96875 
Q 52.59375 44.390625 52.59375 50.59375 
Q 52.59375 55.078125 50.3125 58.265625 
Q 48.046875 61.46875 44.34375 62.5 
Q 41.9375 63.140625 35.5 63.140625 
L 17.1875 63.140625 
z
" id="ArialMT-80"/>
      <path d="M 6.59375 -19.875 
L 6.59375 51.859375 
L 14.59375 51.859375 
L 14.59375 45.125 
Q 17.4375 49.078125 21 51.046875 
Q 24.5625 53.03125 29.640625 53.03125 
Q 36.28125 53.03125 41.359375 49.609375 
Q 46.4375 46.1875 49.015625 39.953125 
Q 51.609375 33.734375 51.609375 26.3125 
Q 51.609375 18.359375 48.75 11.984375 
Q 45.90625 5.609375 40.453125 2.21875 
Q 35.015625 -1.171875 29 -1.171875 
Q 24.609375 -1.171875 21.109375 0.6875 
Q 17.625 2.546875 15.375 5.375 
L 15.375 -19.875 
z
M 14.546875 25.640625 
Q 14.546875 15.625 18.59375 10.84375 
Q 22.65625 6.0625 28.421875 6.0625 
Q 34.28125 6.0625 38.453125 11.015625 
Q 42.625 15.96875 42.625 26.375 
Q 42.625 36.28125 38.546875 41.203125 
Q 34.46875 46.140625 28.8125 46.140625 
Q 23.1875 46.140625 18.859375 40.890625 
Q 14.546875 35.640625 14.546875 25.640625 
z
" id="ArialMT-112"/>
      <path d="M 6.59375 0 
L 6.59375 51.859375 
L 14.453125 51.859375 
L 14.453125 44.578125 
Q 16.890625 48.390625 20.9375 50.703125 
Q 25 53.03125 30.171875 53.03125 
Q 35.9375 53.03125 39.625 50.640625 
Q 43.3125 48.25 44.828125 43.953125 
Q 50.984375 53.03125 60.84375 53.03125 
Q 68.5625 53.03125 72.703125 48.75 
Q 76.859375 44.484375 76.859375 35.59375 
L 76.859375 0 
L 68.109375 0 
L 68.109375 32.671875 
Q 68.109375 37.9375 67.25 40.25 
Q 66.40625 42.578125 64.15625 43.984375 
Q 61.921875 45.40625 58.890625 45.40625 
Q 53.421875 45.40625 49.796875 41.765625 
Q 46.1875 38.140625 46.1875 30.125 
L 46.1875 0 
L 37.40625 0 
L 37.40625 33.6875 
Q 37.40625 39.546875 35.25 42.46875 
Q 33.109375 45.40625 28.21875 45.40625 
Q 24.515625 45.40625 21.359375 43.453125 
Q 18.21875 41.5 16.796875 37.734375 
Q 15.375 33.984375 15.375 26.90625 
L 15.375 0 
z
" id="ArialMT-109"/>
      <path d="M 3.078125 15.484375 
L 11.765625 16.84375 
Q 12.5 11.625 15.84375 8.84375 
Q 19.1875 6.0625 25.203125 6.0625 
Q 31.25 6.0625 34.171875 8.515625 
Q 37.109375 10.984375 37.109375 14.3125 
Q 37.109375 17.28125 34.515625 19 
Q 32.71875 20.171875 25.53125 21.96875 
Q 15.875 24.421875 12.140625 26.203125 
Q 8.40625 27.984375 6.46875 31.125 
Q 4.546875 34.28125 4.546875 38.09375 
Q 4.546875 41.546875 6.125 44.5 
Q 7.71875 47.46875 10.453125 49.421875 
Q 12.5 50.921875 16.03125 51.96875 
Q 19.578125 53.03125 23.640625 53.03125 
Q 29.734375 53.03125 34.34375 51.265625 
Q 38.96875 49.515625 41.15625 46.5 
Q 43.359375 43.5 44.1875 38.484375 
L 35.59375 37.3125 
Q 35.015625 41.3125 32.203125 43.546875 
Q 29.390625 45.796875 24.265625 45.796875 
Q 18.21875 45.796875 15.625 43.796875 
Q 13.03125 41.796875 13.03125 39.109375 
Q 13.03125 37.40625 14.109375 36.03125 
Q 15.1875 34.625 17.484375 33.6875 
Q 18.796875 33.203125 25.25 31.453125 
Q 34.578125 28.953125 38.25 27.359375 
Q 41.9375 25.78125 44.03125 22.75 
Q 46.140625 19.734375 46.140625 15.234375 
Q 46.140625 10.84375 43.578125 6.953125 
Q 41.015625 3.078125 36.171875 0.953125 
Q 31.34375 -1.171875 25.25 -1.171875 
Q 15.140625 -1.171875 9.84375 3.03125 
Q 4.546875 7.234375 3.078125 15.484375 
z
" id="ArialMT-115"/>
      <path id="ArialMT-32"/>
      <path d="M 9.078125 0 
L 9.078125 10.015625 
L 19.09375 10.015625 
L 19.09375 0 
z
" id="ArialMT-46"/>
      <path d="M 25.921875 0 
L 25.921875 63.140625 
L 2.34375 63.140625 
L 2.34375 71.578125 
L 59.078125 71.578125 
L 59.078125 63.140625 
L 35.40625 63.140625 
L 35.40625 0 
z
" id="ArialMT-84"/>
      <path d="M 4.15625 18.75 
L 13.375 19.53125 
Q 14.40625 12.796875 18.140625 9.390625 
Q 21.875 6 27.15625 6 
Q 33.5 6 37.890625 10.78125 
Q 42.28125 15.578125 42.28125 23.484375 
Q 42.28125 31 38.0625 35.34375 
Q 33.84375 39.703125 27 39.703125 
Q 22.75 39.703125 19.328125 37.765625 
Q 15.921875 35.84375 13.96875 32.765625 
L 5.71875 33.84375 
L 12.640625 70.609375 
L 48.25 70.609375 
L 48.25 62.203125 
L 19.671875 62.203125 
L 15.828125 42.96875 
Q 22.265625 47.46875 29.34375 47.46875 
Q 38.71875 47.46875 45.15625 40.96875 
Q 51.609375 34.46875 51.609375 24.265625 
Q 51.609375 14.546875 45.953125 7.46875 
Q 39.0625 -1.21875 27.15625 -1.21875 
Q 17.390625 -1.21875 11.203125 4.25 
Q 5.03125 9.71875 4.15625 18.75 
z
" id="ArialMT-53"/>
      <path d="M 23.390625 -21.046875 
Q 16.109375 -11.859375 11.078125 0.4375 
Q 6.0625 12.75 6.0625 25.921875 
Q 6.0625 37.546875 9.8125 48.1875 
Q 14.203125 60.546875 23.390625 72.796875 
L 29.6875 72.796875 
Q 23.78125 62.640625 21.875 58.296875 
Q 18.890625 51.5625 17.1875 44.234375 
Q 15.09375 35.109375 15.09375 25.875 
Q 15.09375 2.390625 29.6875 -21.046875 
z
" id="ArialMT-40"/>
      <path d="M 7.328125 0 
L 7.328125 71.578125 
L 16.796875 71.578125 
L 16.796875 36.078125 
L 52.34375 71.578125 
L 65.1875 71.578125 
L 35.15625 42.578125 
L 66.5 0 
L 54 0 
L 28.515625 36.234375 
L 16.796875 24.8125 
L 16.796875 0 
z
" id="ArialMT-75"/>
      <path d="M 20.21875 0 
L 1.21875 71.578125 
L 10.9375 71.578125 
L 21.828125 24.65625 
Q 23.578125 17.28125 24.859375 10.015625 
Q 27.59375 21.484375 28.078125 23.25 
L 41.703125 71.578125 
L 53.125 71.578125 
L 63.375 35.359375 
Q 67.234375 21.875 68.953125 10.015625 
Q 70.3125 16.796875 72.515625 25.59375 
L 83.734375 71.578125 
L 93.265625 71.578125 
L 73.640625 0 
L 64.5 0 
L 49.421875 54.546875 
Q 47.515625 61.375 47.171875 62.9375 
Q 46.046875 58.015625 45.0625 54.546875 
L 29.890625 0 
z
" id="ArialMT-87"/>
      <path d="M 52.828125 42.09375 
L 5.5625 42.09375 
L 5.5625 50.296875 
L 52.828125 50.296875 
z
M 52.828125 20.359375 
L 5.5625 20.359375 
L 5.5625 28.5625 
L 52.828125 28.5625 
z
" id="ArialMT-61"/>
      <path d="M 4.203125 18.890625 
L 12.984375 20.0625 
Q 14.5 12.59375 18.140625 9.296875 
Q 21.78125 6 27 6 
Q 33.203125 6 37.46875 10.296875 
Q 41.75 14.59375 41.75 20.953125 
Q 41.75 27 37.796875 30.921875 
Q 33.84375 34.859375 27.734375 34.859375 
Q 25.25 34.859375 21.53125 33.890625 
L 22.515625 41.609375 
Q 23.390625 41.5 23.921875 41.5 
Q 29.546875 41.5 34.03125 44.421875 
Q 38.53125 47.359375 38.53125 53.46875 
Q 38.53125 58.296875 35.25 61.46875 
Q 31.984375 64.65625 26.8125 64.65625 
Q 21.6875 64.65625 18.265625 61.421875 
Q 14.84375 58.203125 13.875 51.765625 
L 5.078125 53.328125 
Q 6.6875 62.15625 12.390625 67.015625 
Q 18.109375 71.875 26.609375 71.875 
Q 32.46875 71.875 37.390625 69.359375 
Q 42.328125 66.84375 44.9375 62.5 
Q 47.5625 58.15625 47.5625 53.265625 
Q 47.5625 48.640625 45.0625 44.828125 
Q 42.578125 41.015625 37.703125 38.765625 
Q 44.046875 37.3125 47.5625 32.6875 
Q 51.078125 28.078125 51.078125 21.140625 
Q 51.078125 11.765625 44.234375 5.25 
Q 37.40625 -1.265625 26.953125 -1.265625 
Q 17.53125 -1.265625 11.296875 4.34375 
Q 5.078125 9.96875 4.203125 18.890625 
z
" id="ArialMT-51"/>
      <path d="M 5.46875 16.546875 
L 13.921875 17.328125 
Q 14.984375 11.375 18.015625 8.6875 
Q 21.046875 6 25.78125 6 
Q 29.828125 6 32.875 7.859375 
Q 35.9375 9.71875 37.890625 12.8125 
Q 39.84375 15.921875 41.15625 21.1875 
Q 42.484375 26.46875 42.484375 31.9375 
Q 42.484375 32.515625 42.4375 33.6875 
Q 39.796875 29.5 35.234375 26.875 
Q 30.671875 24.265625 25.34375 24.265625 
Q 16.453125 24.265625 10.296875 30.703125 
Q 4.15625 37.15625 4.15625 47.703125 
Q 4.15625 58.59375 10.578125 65.234375 
Q 17 71.875 26.65625 71.875 
Q 33.640625 71.875 39.421875 68.109375 
Q 45.21875 64.359375 48.21875 57.390625 
Q 51.21875 50.4375 51.21875 37.25 
Q 51.21875 23.53125 48.234375 15.40625 
Q 45.265625 7.28125 39.375 3.03125 
Q 33.5 -1.21875 25.59375 -1.21875 
Q 17.1875 -1.21875 11.859375 3.4375 
Q 6.546875 8.109375 5.46875 16.546875 
z
M 41.453125 48.140625 
Q 41.453125 55.71875 37.421875 60.15625 
Q 33.40625 64.59375 27.734375 64.59375 
Q 21.875 64.59375 17.53125 59.8125 
Q 13.1875 55.03125 13.1875 47.40625 
Q 13.1875 40.578125 17.3125 36.296875 
Q 21.4375 32.03125 27.484375 32.03125 
Q 33.59375 32.03125 37.515625 36.296875 
Q 41.453125 40.578125 41.453125 48.140625 
z
" id="ArialMT-57"/>
      <path d="M 3.171875 21.484375 
L 3.171875 30.328125 
L 30.171875 30.328125 
L 30.171875 21.484375 
z
" id="ArialMT-45"/>
      <path d="M 37.25 0 
L 28.46875 0 
L 28.46875 56 
Q 25.296875 52.984375 20.140625 49.953125 
Q 14.984375 46.921875 10.890625 45.40625 
L 10.890625 53.90625 
Q 18.265625 57.375 23.78125 62.296875 
Q 29.296875 67.234375 31.59375 71.875 
L 37.25 71.875 
z
" id="ArialMT-49"/>
      <path d="M 12.359375 -21.046875 
L 6.0625 -21.046875 
Q 20.65625 2.390625 20.65625 25.875 
Q 20.65625 35.0625 18.5625 44.09375 
Q 16.890625 51.421875 13.921875 58.15625 
Q 12.015625 62.546875 6.0625 72.796875 
L 12.359375 72.796875 
Q 21.53125 60.546875 25.921875 48.1875 
Q 29.6875 37.546875 29.6875 25.921875 
Q 29.6875 12.75 24.625 0.4375 
Q 19.578125 -11.859375 12.359375 -21.046875 
z
" id="ArialMT-41"/>
     </defs>
     <use xlink:href="#ArialMT-80"/>
     <use x="66.699219" xlink:href="#ArialMT-111"/>
     <use x="122.314453" xlink:href="#ArialMT-114"/>
     <use x="155.615234" xlink:href="#ArialMT-112"/>
     <use x="211.230469" xlink:href="#ArialMT-104"/>
     <use x="266.845703" xlink:href="#ArialMT-121"/>
     <use x="316.845703" xlink:href="#ArialMT-114"/>
     <use x="350.146484" xlink:href="#ArialMT-111"/>
     <use x="405.761719" xlink:href="#ArialMT-109"/>
     <use x="489.0625" xlink:href="#ArialMT-111"/>
     <use x="544.677734" xlink:href="#ArialMT-110"/>
     <use x="600.292969" xlink:href="#ArialMT-97"/>
     <use x="655.908203" xlink:href="#ArialMT-115"/>
     <use x="705.908203" xlink:href="#ArialMT-32"/>
     <use x="733.691406" xlink:href="#ArialMT-115"/>
     <use x="783.691406" xlink:href="#ArialMT-112"/>
     <use x="839.306641" xlink:href="#ArialMT-46"/>
     <use x="867.089844" xlink:href="#ArialMT-32"/>
     <use x="894.873047" xlink:href="#ArialMT-72"/>
     <use x="967.089844" xlink:href="#ArialMT-77"/>
     <use x="1050.390625" xlink:href="#ArialMT-84"/>
     <use x="1109.724609" xlink:href="#ArialMT-32"/>
     <use x="1137.507812" xlink:href="#ArialMT-50"/>
     <use x="1193.123047" xlink:href="#ArialMT-56"/>
     <use x="1248.738281" xlink:href="#ArialMT-53"/>
     <use x="1304.353516" xlink:href="#ArialMT-32"/>
     <use x="1332.136719" xlink:href="#ArialMT-40"/>
     <use x="1365.4375" xlink:href="#ArialMT-75"/>
     <use x="1432.136719" xlink:href="#ArialMT-46"/>
     <use x="1459.919922" xlink:href="#ArialMT-87"/>
     <use x="1548.804688" xlink:href="#ArialMT-46"/>
     <use x="1576.587891" xlink:href="#ArialMT-32"/>
     <use x="1604.371094" xlink:href="#ArialMT-112"/>
     <use x="1659.986328" xlink:href="#ArialMT-61"/>
     <use x="1718.384766" xlink:href="#ArialMT-51"/>
     <use x="1774" xlink:href="#ArialMT-46"/>
     <use x="1801.783203" xlink:href="#ArialMT-52"/>
     <use x="1857.398438" xlink:href="#ArialMT-57"/>
     <use x="1913.013672" xlink:href="#ArialMT-101"/>
     <use x="1968.628906" xlink:href="#ArialMT-45"/>
     <use x="2001.929688" xlink:href="#ArialMT-49"/>
     <use x="2057.544922" xlink:href="#ArialMT-56"/>
     <use x="2113.160156" xlink:href="#ArialMT-41"/>
    </g>
   </g>
  </g>
 </g>
 <defs>
  <clipPath id="pca9c29d691">
   <rect height="1083.82" width="1033.858781" x="202.32" y="96.12"/>
  </clipPath>
 </defs>
</svg>
