<?xml version="1.0" encoding="utf-8" standalone="no"?>
<!DOCTYPE svg PUBLIC "-//W3C//DTD SVG 1.1//EN"
  "http://www.w3.org/Graphics/SVG/1.1/DTD/svg11.dtd">
<!-- Created with matplotlib (https://matplotlib.org/) -->
<svg height="1296pt" version="1.1" viewBox="0 0 1296 1296" width="1296pt" xmlns="http://www.w3.org/2000/svg" xmlns:xlink="http://www.w3.org/1999/xlink">
 <metadata>
  <rdf:RDF xmlns:cc="http://creativecommons.org/ns#" xmlns:dc="http://purl.org/dc/elements/1.1/" xmlns:rdf="http://www.w3.org/1999/02/22-rdf-syntax-ns#">
   <cc:Work>
    <dc:type rdf:resource="http://purl.org/dc/dcmitype/StillImage"/>
    <dc:date>2022-06-29T13:55:30.956125</dc:date>
    <dc:format>image/svg+xml</dc:format>
    <dc:creator>
     <cc:Agent>
      <dc:title>Matplotlib v3.3.3, https://matplotlib.org/</dc:title>
     </cc:Agent>
    </dc:creator>
   </cc:Work>
  </rdf:RDF>
 </metadata>
 <defs>
  <style type="text/css">*{stroke-linecap:butt;stroke-linejoin:round;}</style>
 </defs>
 <g id="figure_1">
  <g id="patch_1">
   <path d="M 0 1296 
L 1296 1296 
L 1296 0 
L 0 0 
z
" style="fill:#ffffff;"/>
  </g>
  <g id="axes_1">
   <g id="patch_2">
    <path d="M 202.32 1179.94 
L 1242 1179.94 
L 1242 96.24 
L 202.32 96.24 
z
" style="fill:#ffffff;"/>
   </g>
   <g id="matplotlib.axis_1">
    <g id="xtick_1">
     <g id="text_1">
      <!-- Healthy -->
      <g style="fill:#262626;" transform="translate(180.136319 1231.229063)scale(0.5 -0.5)">
       <defs>
        <path d="M 8.015625 0 
L 8.015625 71.578125 
L 17.484375 71.578125 
L 17.484375 42.1875 
L 54.6875 42.1875 
L 54.6875 71.578125 
L 64.15625 71.578125 
L 64.15625 0 
L 54.6875 0 
L 54.6875 33.734375 
L 17.484375 33.734375 
L 17.484375 0 
z
" id="ArialMT-72"/>
        <path d="M 42.09375 16.703125 
L 51.171875 15.578125 
Q 49.03125 7.625 43.21875 3.21875 
Q 37.40625 -1.171875 28.375 -1.171875 
Q 17 -1.171875 10.328125 5.828125 
Q 3.65625 12.84375 3.65625 25.484375 
Q 3.65625 38.578125 10.390625 45.796875 
Q 17.140625 53.03125 27.875 53.03125 
Q 38.28125 53.03125 44.875 45.953125 
Q 51.46875 38.875 51.46875 26.03125 
Q 51.46875 25.25 51.421875 23.6875 
L 12.75 23.6875 
Q 13.234375 15.140625 17.578125 10.59375 
Q 21.921875 6.0625 28.421875 6.0625 
Q 33.25 6.0625 36.671875 8.59375 
Q 40.09375 11.140625 42.09375 16.703125 
z
M 13.234375 30.90625 
L 42.1875 30.90625 
Q 41.609375 37.453125 38.875 40.71875 
Q 34.671875 45.796875 27.984375 45.796875 
Q 21.921875 45.796875 17.796875 41.75 
Q 13.671875 37.703125 13.234375 30.90625 
z
" id="ArialMT-101"/>
        <path d="M 40.4375 6.390625 
Q 35.546875 2.25 31.03125 0.53125 
Q 26.515625 -1.171875 21.34375 -1.171875 
Q 12.796875 -1.171875 8.203125 3 
Q 3.609375 7.171875 3.609375 13.671875 
Q 3.609375 17.484375 5.34375 20.625 
Q 7.078125 23.78125 9.890625 25.6875 
Q 12.703125 27.59375 16.21875 28.5625 
Q 18.796875 29.25 24.03125 29.890625 
Q 34.671875 31.15625 39.703125 32.90625 
Q 39.75 34.71875 39.75 35.203125 
Q 39.75 40.578125 37.25 42.78125 
Q 33.890625 45.75 27.25 45.75 
Q 21.046875 45.75 18.09375 43.578125 
Q 15.140625 41.40625 13.71875 35.890625 
L 5.125 37.0625 
Q 6.296875 42.578125 8.984375 45.96875 
Q 11.671875 49.359375 16.75 51.1875 
Q 21.828125 53.03125 28.515625 53.03125 
Q 35.15625 53.03125 39.296875 51.46875 
Q 43.453125 49.90625 45.40625 47.53125 
Q 47.359375 45.171875 48.140625 41.546875 
Q 48.578125 39.3125 48.578125 33.453125 
L 48.578125 21.734375 
Q 48.578125 9.46875 49.140625 6.21875 
Q 49.703125 2.984375 51.375 0 
L 42.1875 0 
Q 40.828125 2.734375 40.4375 6.390625 
z
M 39.703125 26.03125 
Q 34.90625 24.078125 25.34375 22.703125 
Q 19.921875 21.921875 17.671875 20.9375 
Q 15.4375 19.96875 14.203125 18.09375 
Q 12.984375 16.21875 12.984375 13.921875 
Q 12.984375 10.40625 15.640625 8.0625 
Q 18.3125 5.71875 23.4375 5.71875 
Q 28.515625 5.71875 32.46875 7.9375 
Q 36.421875 10.15625 38.28125 14.015625 
Q 39.703125 17 39.703125 22.796875 
z
" id="ArialMT-97"/>
        <path d="M 6.390625 0 
L 6.390625 71.578125 
L 15.1875 71.578125 
L 15.1875 0 
z
" id="ArialMT-108"/>
        <path d="M 25.78125 7.859375 
L 27.046875 0.09375 
Q 23.34375 -0.6875 20.40625 -0.6875 
Q 15.625 -0.6875 12.984375 0.828125 
Q 10.359375 2.34375 9.28125 4.8125 
Q 8.203125 7.28125 8.203125 15.1875 
L 8.203125 45.015625 
L 1.765625 45.015625 
L 1.765625 51.859375 
L 8.203125 51.859375 
L 8.203125 64.703125 
L 16.9375 69.96875 
L 16.9375 51.859375 
L 25.78125 51.859375 
L 25.78125 45.015625 
L 16.9375 45.015625 
L 16.9375 14.703125 
Q 16.9375 10.9375 17.40625 9.859375 
Q 17.875 8.796875 18.921875 8.15625 
Q 19.96875 7.515625 21.921875 7.515625 
Q 23.390625 7.515625 25.78125 7.859375 
z
" id="ArialMT-116"/>
        <path d="M 6.59375 0 
L 6.59375 71.578125 
L 15.375 71.578125 
L 15.375 45.90625 
Q 21.53125 53.03125 30.90625 53.03125 
Q 36.671875 53.03125 40.921875 50.75 
Q 45.171875 48.484375 47 44.484375 
Q 48.828125 40.484375 48.828125 32.859375 
L 48.828125 0 
L 40.046875 0 
L 40.046875 32.859375 
Q 40.046875 39.453125 37.1875 42.453125 
Q 34.328125 45.453125 29.109375 45.453125 
Q 25.203125 45.453125 21.75 43.421875 
Q 18.3125 41.40625 16.84375 37.9375 
Q 15.375 34.46875 15.375 28.375 
L 15.375 0 
z
" id="ArialMT-104"/>
        <path d="M 6.203125 -19.96875 
L 5.21875 -11.71875 
Q 8.109375 -12.5 10.25 -12.5 
Q 13.1875 -12.5 14.9375 -11.515625 
Q 16.703125 -10.546875 17.828125 -8.796875 
Q 18.65625 -7.46875 20.515625 -2.25 
Q 20.75 -1.515625 21.296875 -0.09375 
L 1.609375 51.859375 
L 11.078125 51.859375 
L 21.875 21.828125 
Q 23.96875 16.109375 25.640625 9.8125 
Q 27.15625 15.875 29.25 21.625 
L 40.328125 51.859375 
L 49.125 51.859375 
L 29.390625 -0.875 
Q 26.21875 -9.421875 24.46875 -12.640625 
Q 22.125 -17 19.09375 -19.015625 
Q 16.0625 -21.046875 11.859375 -21.046875 
Q 9.328125 -21.046875 6.203125 -19.96875 
z
" id="ArialMT-121"/>
       </defs>
       <use xlink:href="#ArialMT-72"/>
       <use x="72.216797" xlink:href="#ArialMT-101"/>
       <use x="127.832031" xlink:href="#ArialMT-97"/>
       <use x="183.447266" xlink:href="#ArialMT-108"/>
       <use x="205.664062" xlink:href="#ArialMT-116"/>
       <use x="233.447266" xlink:href="#ArialMT-104"/>
       <use x="289.0625" xlink:href="#ArialMT-121"/>
      </g>
     </g>
    </g>
    <g id="xtick_2">
     <g id="text_2">
      <!-- Slight -->
      <g style="fill:#262626;" transform="translate(476.903398 1231.838438)scale(0.5 -0.5)">
       <defs>
        <path d="M 4.5 23 
L 13.421875 23.78125 
Q 14.0625 18.40625 16.375 14.96875 
Q 18.703125 11.53125 23.578125 9.40625 
Q 28.46875 7.28125 34.578125 7.28125 
Q 39.984375 7.28125 44.140625 8.890625 
Q 48.296875 10.5 50.3125 13.296875 
Q 52.34375 16.109375 52.34375 19.4375 
Q 52.34375 22.796875 50.390625 25.3125 
Q 48.4375 27.828125 43.953125 29.546875 
Q 41.0625 30.671875 31.203125 33.03125 
Q 21.34375 35.40625 17.390625 37.5 
Q 12.25 40.1875 9.734375 44.15625 
Q 7.234375 48.140625 7.234375 53.078125 
Q 7.234375 58.5 10.296875 63.203125 
Q 13.375 67.921875 19.28125 70.359375 
Q 25.203125 72.796875 32.421875 72.796875 
Q 40.375 72.796875 46.453125 70.234375 
Q 52.546875 67.671875 55.8125 62.6875 
Q 59.078125 57.71875 59.328125 51.421875 
L 50.25 50.734375 
Q 49.515625 57.515625 45.28125 60.984375 
Q 41.0625 64.453125 32.8125 64.453125 
Q 24.21875 64.453125 20.28125 61.296875 
Q 16.359375 58.15625 16.359375 53.71875 
Q 16.359375 49.859375 19.140625 47.359375 
Q 21.875 44.875 33.421875 42.265625 
Q 44.96875 39.65625 49.265625 37.703125 
Q 55.515625 34.8125 58.484375 30.390625 
Q 61.46875 25.984375 61.46875 20.21875 
Q 61.46875 14.5 58.203125 9.4375 
Q 54.9375 4.390625 48.796875 1.578125 
Q 42.671875 -1.21875 35.015625 -1.21875 
Q 25.296875 -1.21875 18.71875 1.609375 
Q 12.15625 4.4375 8.421875 10.125 
Q 4.6875 15.828125 4.5 23 
z
" id="ArialMT-83"/>
        <path d="M 6.640625 61.46875 
L 6.640625 71.578125 
L 15.4375 71.578125 
L 15.4375 61.46875 
z
M 6.640625 0 
L 6.640625 51.859375 
L 15.4375 51.859375 
L 15.4375 0 
z
" id="ArialMT-105"/>
        <path d="M 4.984375 -4.296875 
L 13.53125 -5.5625 
Q 14.0625 -9.515625 16.5 -11.328125 
Q 19.78125 -13.765625 25.4375 -13.765625 
Q 31.546875 -13.765625 34.859375 -11.328125 
Q 38.1875 -8.890625 39.359375 -4.5 
Q 40.046875 -1.8125 39.984375 6.78125 
Q 34.234375 0 25.640625 0 
Q 14.9375 0 9.078125 7.71875 
Q 3.21875 15.4375 3.21875 26.21875 
Q 3.21875 33.640625 5.90625 39.90625 
Q 8.59375 46.1875 13.6875 49.609375 
Q 18.796875 53.03125 25.6875 53.03125 
Q 34.859375 53.03125 40.828125 45.609375 
L 40.828125 51.859375 
L 48.921875 51.859375 
L 48.921875 7.03125 
Q 48.921875 -5.078125 46.453125 -10.125 
Q 44 -15.1875 38.640625 -18.109375 
Q 33.296875 -21.046875 25.484375 -21.046875 
Q 16.21875 -21.046875 10.5 -16.875 
Q 4.78125 -12.703125 4.984375 -4.296875 
z
M 12.25 26.859375 
Q 12.25 16.65625 16.296875 11.96875 
Q 20.359375 7.28125 26.46875 7.28125 
Q 32.515625 7.28125 36.609375 11.9375 
Q 40.71875 16.609375 40.71875 26.5625 
Q 40.71875 36.078125 36.5 40.90625 
Q 32.28125 45.75 26.3125 45.75 
Q 20.453125 45.75 16.34375 40.984375 
Q 12.25 36.234375 12.25 26.859375 
z
" id="ArialMT-103"/>
       </defs>
       <use xlink:href="#ArialMT-83"/>
       <use x="66.699219" xlink:href="#ArialMT-108"/>
       <use x="88.916016" xlink:href="#ArialMT-105"/>
       <use x="111.132812" xlink:href="#ArialMT-103"/>
       <use x="166.748047" xlink:href="#ArialMT-104"/>
       <use x="222.363281" xlink:href="#ArialMT-116"/>
      </g>
     </g>
    </g>
    <g id="xtick_3">
     <g id="text_3">
      <!-- Moderate -->
      <g style="fill:#262626;" transform="translate(708.373602 1231.229063)scale(0.5 -0.5)">
       <defs>
        <path d="M 7.421875 0 
L 7.421875 71.578125 
L 21.6875 71.578125 
L 38.625 20.90625 
Q 40.96875 13.8125 42.046875 10.296875 
Q 43.265625 14.203125 45.84375 21.78125 
L 62.984375 71.578125 
L 75.734375 71.578125 
L 75.734375 0 
L 66.609375 0 
L 66.609375 59.90625 
L 45.796875 0 
L 37.25 0 
L 16.546875 60.9375 
L 16.546875 0 
z
" id="ArialMT-77"/>
        <path d="M 3.328125 25.921875 
Q 3.328125 40.328125 11.328125 47.265625 
Q 18.015625 53.03125 27.640625 53.03125 
Q 38.328125 53.03125 45.109375 46.015625 
Q 51.90625 39.015625 51.90625 26.65625 
Q 51.90625 16.65625 48.90625 10.90625 
Q 45.90625 5.171875 40.15625 2 
Q 34.421875 -1.171875 27.640625 -1.171875 
Q 16.75 -1.171875 10.03125 5.8125 
Q 3.328125 12.796875 3.328125 25.921875 
z
M 12.359375 25.921875 
Q 12.359375 15.96875 16.703125 11.015625 
Q 21.046875 6.0625 27.640625 6.0625 
Q 34.1875 6.0625 38.53125 11.03125 
Q 42.875 16.015625 42.875 26.21875 
Q 42.875 35.84375 38.5 40.796875 
Q 34.125 45.75 27.640625 45.75 
Q 21.046875 45.75 16.703125 40.8125 
Q 12.359375 35.890625 12.359375 25.921875 
z
" id="ArialMT-111"/>
        <path d="M 40.234375 0 
L 40.234375 6.546875 
Q 35.296875 -1.171875 25.734375 -1.171875 
Q 19.53125 -1.171875 14.328125 2.25 
Q 9.125 5.671875 6.265625 11.796875 
Q 3.421875 17.921875 3.421875 25.875 
Q 3.421875 33.640625 6 39.96875 
Q 8.59375 46.296875 13.765625 49.65625 
Q 18.953125 53.03125 25.34375 53.03125 
Q 30.03125 53.03125 33.6875 51.046875 
Q 37.359375 49.078125 39.65625 45.90625 
L 39.65625 71.578125 
L 48.390625 71.578125 
L 48.390625 0 
z
M 12.453125 25.875 
Q 12.453125 15.921875 16.640625 10.984375 
Q 20.84375 6.0625 26.5625 6.0625 
Q 32.328125 6.0625 36.34375 10.765625 
Q 40.375 15.484375 40.375 25.140625 
Q 40.375 35.796875 36.265625 40.765625 
Q 32.171875 45.75 26.171875 45.75 
Q 20.3125 45.75 16.375 40.96875 
Q 12.453125 36.1875 12.453125 25.875 
z
" id="ArialMT-100"/>
        <path d="M 6.5 0 
L 6.5 51.859375 
L 14.40625 51.859375 
L 14.40625 44 
Q 17.4375 49.515625 20 51.265625 
Q 22.5625 53.03125 25.640625 53.03125 
Q 30.078125 53.03125 34.671875 50.203125 
L 31.640625 42.046875 
Q 28.421875 43.953125 25.203125 43.953125 
Q 22.3125 43.953125 20.015625 42.21875 
Q 17.71875 40.484375 16.75 37.40625 
Q 15.28125 32.71875 15.28125 27.15625 
L 15.28125 0 
z
" id="ArialMT-114"/>
       </defs>
       <use xlink:href="#ArialMT-77"/>
       <use x="83.300781" xlink:href="#ArialMT-111"/>
       <use x="138.916016" xlink:href="#ArialMT-100"/>
       <use x="194.53125" xlink:href="#ArialMT-101"/>
       <use x="250.146484" xlink:href="#ArialMT-114"/>
       <use x="283.447266" xlink:href="#ArialMT-97"/>
       <use x="339.0625" xlink:href="#ArialMT-116"/>
       <use x="366.845703" xlink:href="#ArialMT-101"/>
      </g>
     </g>
    </g>
    <g id="xtick_4">
     <g id="text_4">
      <!-- Severe -->
      <g style="fill:#262626;" transform="translate(1009.312556 1231.229063)scale(0.5 -0.5)">
       <defs>
        <path d="M 21 0 
L 1.265625 51.859375 
L 10.546875 51.859375 
L 21.6875 20.796875 
Q 23.484375 15.765625 25 10.359375 
Q 26.171875 14.453125 28.265625 20.21875 
L 39.796875 51.859375 
L 48.828125 51.859375 
L 29.203125 0 
z
" id="ArialMT-118"/>
       </defs>
       <use xlink:href="#ArialMT-83"/>
       <use x="66.699219" xlink:href="#ArialMT-101"/>
       <use x="122.314453" xlink:href="#ArialMT-118"/>
       <use x="172.314453" xlink:href="#ArialMT-101"/>
       <use x="227.929688" xlink:href="#ArialMT-114"/>
       <use x="261.230469" xlink:href="#ArialMT-101"/>
      </g>
     </g>
    </g>
   </g>
   <g id="matplotlib.axis_2">
    <g id="ytick_1">
     <g id="line2d_1">
      <path clip-path="url(#p0bcea45397)" d="M 202.32 1107.364807 
L 1242 1107.364807 
" style="fill:none;stroke:#cccccc;stroke-linecap:round;stroke-width:2;"/>
     </g>
     <g id="text_5">
      <!-- 0 -->
      <g style="fill:#262626;" transform="translate(159.015313 1125.259338)scale(0.5 -0.5)">
       <defs>
        <path d="M 4.15625 35.296875 
Q 4.15625 48 6.765625 55.734375 
Q 9.375 63.484375 14.515625 67.671875 
Q 19.671875 71.875 27.484375 71.875 
Q 33.25 71.875 37.59375 69.546875 
Q 41.9375 67.234375 44.765625 62.859375 
Q 47.609375 58.5 49.21875 52.21875 
Q 50.828125 45.953125 50.828125 35.296875 
Q 50.828125 22.703125 48.234375 14.96875 
Q 45.65625 7.234375 40.5 3 
Q 35.359375 -1.21875 27.484375 -1.21875 
Q 17.140625 -1.21875 11.234375 6.203125 
Q 4.15625 15.140625 4.15625 35.296875 
z
M 13.1875 35.296875 
Q 13.1875 17.671875 17.3125 11.828125 
Q 21.4375 6 27.484375 6 
Q 33.546875 6 37.671875 11.859375 
Q 41.796875 17.71875 41.796875 35.296875 
Q 41.796875 52.984375 37.671875 58.78125 
Q 33.546875 64.59375 27.390625 64.59375 
Q 21.34375 64.59375 17.71875 59.46875 
Q 13.1875 52.9375 13.1875 35.296875 
z
" id="ArialMT-48"/>
       </defs>
       <use xlink:href="#ArialMT-48"/>
      </g>
     </g>
    </g>
    <g id="ytick_2">
     <g id="line2d_2">
      <path clip-path="url(#p0bcea45397)" d="M 202.32 972.957999 
L 1242 972.957999 
" style="fill:none;stroke:#cccccc;stroke-linecap:round;stroke-width:2;"/>
     </g>
     <g id="text_6">
      <!-- 100 -->
      <g style="fill:#262626;" transform="translate(103.405938 990.85253)scale(0.5 -0.5)">
       <defs>
        <path d="M 37.25 0 
L 28.46875 0 
L 28.46875 56 
Q 25.296875 52.984375 20.140625 49.953125 
Q 14.984375 46.921875 10.890625 45.40625 
L 10.890625 53.90625 
Q 18.265625 57.375 23.78125 62.296875 
Q 29.296875 67.234375 31.59375 71.875 
L 37.25 71.875 
z
" id="ArialMT-49"/>
       </defs>
       <use xlink:href="#ArialMT-49"/>
       <use x="55.615234" xlink:href="#ArialMT-48"/>
       <use x="111.230469" xlink:href="#ArialMT-48"/>
      </g>
     </g>
    </g>
    <g id="ytick_3">
     <g id="line2d_3">
      <path clip-path="url(#p0bcea45397)" d="M 202.32 838.551191 
L 1242 838.551191 
" style="fill:none;stroke:#cccccc;stroke-linecap:round;stroke-width:2;"/>
     </g>
     <g id="text_7">
      <!-- 200 -->
      <g style="fill:#262626;" transform="translate(103.405938 856.445722)scale(0.5 -0.5)">
       <defs>
        <path d="M 50.34375 8.453125 
L 50.34375 0 
L 3.03125 0 
Q 2.9375 3.171875 4.046875 6.109375 
Q 5.859375 10.9375 9.828125 15.625 
Q 13.8125 20.3125 21.34375 26.46875 
Q 33.015625 36.03125 37.109375 41.625 
Q 41.21875 47.21875 41.21875 52.203125 
Q 41.21875 57.421875 37.46875 61 
Q 33.734375 64.59375 27.734375 64.59375 
Q 21.390625 64.59375 17.578125 60.78125 
Q 13.765625 56.984375 13.71875 50.25 
L 4.6875 51.171875 
Q 5.609375 61.28125 11.65625 66.578125 
Q 17.71875 71.875 27.9375 71.875 
Q 38.234375 71.875 44.234375 66.15625 
Q 50.25 60.453125 50.25 52 
Q 50.25 47.703125 48.484375 43.546875 
Q 46.734375 39.40625 42.65625 34.8125 
Q 38.578125 30.21875 29.109375 22.21875 
Q 21.1875 15.578125 18.9375 13.203125 
Q 16.703125 10.84375 15.234375 8.453125 
z
" id="ArialMT-50"/>
       </defs>
       <use xlink:href="#ArialMT-50"/>
       <use x="55.615234" xlink:href="#ArialMT-48"/>
       <use x="111.230469" xlink:href="#ArialMT-48"/>
      </g>
     </g>
    </g>
    <g id="ytick_4">
     <g id="line2d_4">
      <path clip-path="url(#p0bcea45397)" d="M 202.32 704.144383 
L 1242 704.144383 
" style="fill:none;stroke:#cccccc;stroke-linecap:round;stroke-width:2;"/>
     </g>
     <g id="text_8">
      <!-- 300 -->
      <g style="fill:#262626;" transform="translate(103.405938 722.038914)scale(0.5 -0.5)">
       <defs>
        <path d="M 4.203125 18.890625 
L 12.984375 20.0625 
Q 14.5 12.59375 18.140625 9.296875 
Q 21.78125 6 27 6 
Q 33.203125 6 37.46875 10.296875 
Q 41.75 14.59375 41.75 20.953125 
Q 41.75 27 37.796875 30.921875 
Q 33.84375 34.859375 27.734375 34.859375 
Q 25.25 34.859375 21.53125 33.890625 
L 22.515625 41.609375 
Q 23.390625 41.5 23.921875 41.5 
Q 29.546875 41.5 34.03125 44.421875 
Q 38.53125 47.359375 38.53125 53.46875 
Q 38.53125 58.296875 35.25 61.46875 
Q 31.984375 64.65625 26.8125 64.65625 
Q 21.6875 64.65625 18.265625 61.421875 
Q 14.84375 58.203125 13.875 51.765625 
L 5.078125 53.328125 
Q 6.6875 62.15625 12.390625 67.015625 
Q 18.109375 71.875 26.609375 71.875 
Q 32.46875 71.875 37.390625 69.359375 
Q 42.328125 66.84375 44.9375 62.5 
Q 47.5625 58.15625 47.5625 53.265625 
Q 47.5625 48.640625 45.0625 44.828125 
Q 42.578125 41.015625 37.703125 38.765625 
Q 44.046875 37.3125 47.5625 32.6875 
Q 51.078125 28.078125 51.078125 21.140625 
Q 51.078125 11.765625 44.234375 5.25 
Q 37.40625 -1.265625 26.953125 -1.265625 
Q 17.53125 -1.265625 11.296875 4.34375 
Q 5.078125 9.96875 4.203125 18.890625 
z
" id="ArialMT-51"/>
       </defs>
       <use xlink:href="#ArialMT-51"/>
       <use x="55.615234" xlink:href="#ArialMT-48"/>
       <use x="111.230469" xlink:href="#ArialMT-48"/>
      </g>
     </g>
    </g>
    <g id="ytick_5">
     <g id="line2d_5">
      <path clip-path="url(#p0bcea45397)" d="M 202.32 569.737575 
L 1242 569.737575 
" style="fill:none;stroke:#cccccc;stroke-linecap:round;stroke-width:2;"/>
     </g>
     <g id="text_9">
      <!-- 400 -->
      <g style="fill:#262626;" transform="translate(103.405938 587.632106)scale(0.5 -0.5)">
       <defs>
        <path d="M 32.328125 0 
L 32.328125 17.140625 
L 1.265625 17.140625 
L 1.265625 25.203125 
L 33.9375 71.578125 
L 41.109375 71.578125 
L 41.109375 25.203125 
L 50.78125 25.203125 
L 50.78125 17.140625 
L 41.109375 17.140625 
L 41.109375 0 
z
M 32.328125 25.203125 
L 32.328125 57.46875 
L 9.90625 25.203125 
z
" id="ArialMT-52"/>
       </defs>
       <use xlink:href="#ArialMT-52"/>
       <use x="55.615234" xlink:href="#ArialMT-48"/>
       <use x="111.230469" xlink:href="#ArialMT-48"/>
      </g>
     </g>
    </g>
    <g id="ytick_6">
     <g id="line2d_6">
      <path clip-path="url(#p0bcea45397)" d="M 202.32 435.330767 
L 1242 435.330767 
" style="fill:none;stroke:#cccccc;stroke-linecap:round;stroke-width:2;"/>
     </g>
     <g id="text_10">
      <!-- 500 -->
      <g style="fill:#262626;" transform="translate(103.405938 453.225298)scale(0.5 -0.5)">
       <defs>
        <path d="M 4.15625 18.75 
L 13.375 19.53125 
Q 14.40625 12.796875 18.140625 9.390625 
Q 21.875 6 27.15625 6 
Q 33.5 6 37.890625 10.78125 
Q 42.28125 15.578125 42.28125 23.484375 
Q 42.28125 31 38.0625 35.34375 
Q 33.84375 39.703125 27 39.703125 
Q 22.75 39.703125 19.328125 37.765625 
Q 15.921875 35.84375 13.96875 32.765625 
L 5.71875 33.84375 
L 12.640625 70.609375 
L 48.25 70.609375 
L 48.25 62.203125 
L 19.671875 62.203125 
L 15.828125 42.96875 
Q 22.265625 47.46875 29.34375 47.46875 
Q 38.71875 47.46875 45.15625 40.96875 
Q 51.609375 34.46875 51.609375 24.265625 
Q 51.609375 14.546875 45.953125 7.46875 
Q 39.0625 -1.21875 27.15625 -1.21875 
Q 17.390625 -1.21875 11.203125 4.25 
Q 5.03125 9.71875 4.15625 18.75 
z
" id="ArialMT-53"/>
       </defs>
       <use xlink:href="#ArialMT-53"/>
       <use x="55.615234" xlink:href="#ArialMT-48"/>
       <use x="111.230469" xlink:href="#ArialMT-48"/>
      </g>
     </g>
    </g>
    <g id="ytick_7">
     <g id="line2d_7">
      <path clip-path="url(#p0bcea45397)" d="M 202.32 300.923959 
L 1242 300.923959 
" style="fill:none;stroke:#cccccc;stroke-linecap:round;stroke-width:2;"/>
     </g>
     <g id="text_11">
      <!-- 600 -->
      <g style="fill:#262626;" transform="translate(103.405938 318.81849)scale(0.5 -0.5)">
       <defs>
        <path d="M 49.75 54.046875 
L 41.015625 53.375 
Q 39.84375 58.546875 37.703125 60.890625 
Q 34.125 64.65625 28.90625 64.65625 
Q 24.703125 64.65625 21.53125 62.3125 
Q 17.390625 59.28125 14.984375 53.46875 
Q 12.59375 47.65625 12.5 36.921875 
Q 15.671875 41.75 20.265625 44.09375 
Q 24.859375 46.4375 29.890625 46.4375 
Q 38.671875 46.4375 44.84375 39.96875 
Q 51.03125 33.5 51.03125 23.25 
Q 51.03125 16.5 48.125 10.71875 
Q 45.21875 4.9375 40.140625 1.859375 
Q 35.0625 -1.21875 28.609375 -1.21875 
Q 17.625 -1.21875 10.6875 6.859375 
Q 3.765625 14.9375 3.765625 33.5 
Q 3.765625 54.25 11.421875 63.671875 
Q 18.109375 71.875 29.4375 71.875 
Q 37.890625 71.875 43.28125 67.140625 
Q 48.6875 62.40625 49.75 54.046875 
z
M 13.875 23.1875 
Q 13.875 18.65625 15.796875 14.5 
Q 17.71875 10.359375 21.1875 8.171875 
Q 24.65625 6 28.46875 6 
Q 34.03125 6 38.03125 10.484375 
Q 42.046875 14.984375 42.046875 22.703125 
Q 42.046875 30.125 38.078125 34.390625 
Q 34.125 38.671875 28.125 38.671875 
Q 22.171875 38.671875 18.015625 34.390625 
Q 13.875 30.125 13.875 23.1875 
z
" id="ArialMT-54"/>
       </defs>
       <use xlink:href="#ArialMT-54"/>
       <use x="55.615234" xlink:href="#ArialMT-48"/>
       <use x="111.230469" xlink:href="#ArialMT-48"/>
      </g>
     </g>
    </g>
    <g id="ytick_8">
     <g id="line2d_8">
      <path clip-path="url(#p0bcea45397)" d="M 202.32 166.517151 
L 1242 166.517151 
" style="fill:none;stroke:#cccccc;stroke-linecap:round;stroke-width:2;"/>
     </g>
     <g id="text_12">
      <!-- 700 -->
      <g style="fill:#262626;" transform="translate(103.405938 184.411682)scale(0.5 -0.5)">
       <defs>
        <path d="M 4.734375 62.203125 
L 4.734375 70.65625 
L 51.078125 70.65625 
L 51.078125 63.8125 
Q 44.234375 56.546875 37.515625 44.484375 
Q 30.8125 32.421875 27.15625 19.671875 
Q 24.515625 10.6875 23.78125 0 
L 14.75 0 
Q 14.890625 8.453125 18.0625 20.40625 
Q 21.234375 32.375 27.171875 43.484375 
Q 33.109375 54.59375 39.796875 62.203125 
z
" id="ArialMT-55"/>
       </defs>
       <use xlink:href="#ArialMT-55"/>
       <use x="55.615234" xlink:href="#ArialMT-48"/>
       <use x="111.230469" xlink:href="#ArialMT-48"/>
      </g>
     </g>
    </g>
    <g id="text_13">
     <!-- Abundance -->
     <g style="fill:#262626;" transform="translate(89.468438 764.582187)rotate(-90)scale(0.5 -0.5)">
      <defs>
       <path d="M -0.140625 0 
L 27.34375 71.578125 
L 37.546875 71.578125 
L 66.84375 0 
L 56.0625 0 
L 47.703125 21.6875 
L 17.78125 21.6875 
L 9.90625 0 
z
M 20.515625 29.390625 
L 44.78125 29.390625 
L 37.3125 49.21875 
Q 33.890625 58.25 32.234375 64.0625 
Q 30.859375 57.171875 28.375 50.390625 
z
" id="ArialMT-65"/>
       <path d="M 14.703125 0 
L 6.546875 0 
L 6.546875 71.578125 
L 15.328125 71.578125 
L 15.328125 46.046875 
Q 20.90625 53.03125 29.546875 53.03125 
Q 34.328125 53.03125 38.59375 51.09375 
Q 42.875 49.171875 45.625 45.671875 
Q 48.390625 42.1875 49.953125 37.25 
Q 51.515625 32.328125 51.515625 26.703125 
Q 51.515625 13.375 44.921875 6.09375 
Q 38.328125 -1.171875 29.109375 -1.171875 
Q 19.921875 -1.171875 14.703125 6.5 
z
M 14.59375 26.3125 
Q 14.59375 17 17.140625 12.84375 
Q 21.296875 6.0625 28.375 6.0625 
Q 34.125 6.0625 38.328125 11.0625 
Q 42.53125 16.0625 42.53125 25.984375 
Q 42.53125 36.140625 38.5 40.96875 
Q 34.46875 45.796875 28.765625 45.796875 
Q 23 45.796875 18.796875 40.796875 
Q 14.59375 35.796875 14.59375 26.3125 
z
" id="ArialMT-98"/>
       <path d="M 40.578125 0 
L 40.578125 7.625 
Q 34.515625 -1.171875 24.125 -1.171875 
Q 19.53125 -1.171875 15.546875 0.578125 
Q 11.578125 2.34375 9.640625 5 
Q 7.71875 7.671875 6.9375 11.53125 
Q 6.390625 14.109375 6.390625 19.734375 
L 6.390625 51.859375 
L 15.1875 51.859375 
L 15.1875 23.09375 
Q 15.1875 16.21875 15.71875 13.8125 
Q 16.546875 10.359375 19.234375 8.375 
Q 21.921875 6.390625 25.875 6.390625 
Q 29.828125 6.390625 33.296875 8.421875 
Q 36.765625 10.453125 38.203125 13.9375 
Q 39.65625 17.4375 39.65625 24.078125 
L 39.65625 51.859375 
L 48.4375 51.859375 
L 48.4375 0 
z
" id="ArialMT-117"/>
       <path d="M 6.59375 0 
L 6.59375 51.859375 
L 14.5 51.859375 
L 14.5 44.484375 
Q 20.21875 53.03125 31 53.03125 
Q 35.6875 53.03125 39.625 51.34375 
Q 43.5625 49.65625 45.515625 46.921875 
Q 47.46875 44.1875 48.25 40.4375 
Q 48.734375 37.984375 48.734375 31.890625 
L 48.734375 0 
L 39.9375 0 
L 39.9375 31.546875 
Q 39.9375 36.921875 38.90625 39.578125 
Q 37.890625 42.234375 35.28125 43.8125 
Q 32.671875 45.40625 29.15625 45.40625 
Q 23.53125 45.40625 19.453125 41.84375 
Q 15.375 38.28125 15.375 28.328125 
L 15.375 0 
z
" id="ArialMT-110"/>
       <path d="M 40.4375 19 
L 49.078125 17.875 
Q 47.65625 8.9375 41.8125 3.875 
Q 35.984375 -1.171875 27.484375 -1.171875 
Q 16.84375 -1.171875 10.375 5.78125 
Q 3.90625 12.75 3.90625 25.734375 
Q 3.90625 34.125 6.6875 40.421875 
Q 9.46875 46.734375 15.15625 49.875 
Q 20.84375 53.03125 27.546875 53.03125 
Q 35.984375 53.03125 41.359375 48.75 
Q 46.734375 44.484375 48.25 36.625 
L 39.703125 35.296875 
Q 38.484375 40.53125 35.375 43.15625 
Q 32.28125 45.796875 27.875 45.796875 
Q 21.234375 45.796875 17.078125 41.03125 
Q 12.9375 36.28125 12.9375 25.984375 
Q 12.9375 15.53125 16.9375 10.796875 
Q 20.953125 6.0625 27.390625 6.0625 
Q 32.5625 6.0625 36.03125 9.234375 
Q 39.5 12.40625 40.4375 19 
z
" id="ArialMT-99"/>
      </defs>
      <use xlink:href="#ArialMT-65"/>
      <use x="66.699219" xlink:href="#ArialMT-98"/>
      <use x="122.314453" xlink:href="#ArialMT-117"/>
      <use x="177.929688" xlink:href="#ArialMT-110"/>
      <use x="233.544922" xlink:href="#ArialMT-100"/>
      <use x="289.160156" xlink:href="#ArialMT-97"/>
      <use x="344.775391" xlink:href="#ArialMT-110"/>
      <use x="400.390625" xlink:href="#ArialMT-99"/>
      <use x="450.390625" xlink:href="#ArialMT-101"/>
     </g>
    </g>
   </g>
   <g id="PolyCollection_1">
    <defs>
     <path d="M 272.567979 -146.912064 
L 257.228096 -146.912064 
L 255.958814 -153.144805 
L 254.687831 -159.377545 
L 253.46524 -165.610285 
L 252.342362 -171.843025 
L 251.367359 -178.075766 
L 250.580905 -184.308506 
L 250.012501 -190.541246 
L 249.677924 -196.773986 
L 249.578182 -203.006727 
L 249.700084 -209.239467 
L 250.018308 -215.472207 
L 250.498621 -221.704947 
L 251.10176 -227.937688 
L 251.787414 -234.170428 
L 252.517798 -240.403168 
L 253.260406 -246.635908 
L 253.989727 -252.868649 
L 254.687863 -259.101389 
L 255.344188 -265.334129 
L 255.954267 -271.566869 
L 256.518349 -277.79961 
L 257.039732 -284.03235 
L 257.523241 -290.26509 
L 257.974017 -296.49783 
L 258.396683 -302.730571 
L 258.794916 -308.963311 
L 259.171348 -315.196051 
L 259.527717 -321.428791 
L 259.865157 -327.661532 
L 260.18452 -333.894272 
L 260.486664 -340.127012 
L 260.772647 -346.359752 
L 261.043814 -352.592493 
L 261.301764 -358.825233 
L 261.548247 -365.057973 
L 261.784982 -371.290713 
L 262.013469 -377.523454 
L 262.234803 -383.756194 
L 262.44953 -389.988934 
L 262.657566 -396.221674 
L 262.858193 -402.454415 
L 263.050136 -408.687155 
L 263.231704 -414.919895 
L 263.400991 -421.152636 
L 263.556106 -427.385376 
L 263.695394 -433.618116 
L 263.817643 -439.850856 
L 263.922223 -446.083597 
L 264.009169 -452.316337 
L 264.079189 -458.549077 
L 264.133606 -464.781817 
L 264.174249 -471.014558 
L 264.20331 -477.247298 
L 264.223183 -483.480038 
L 264.23631 -489.712778 
L 264.245031 -495.945519 
L 264.251466 -502.178259 
L 264.257412 -508.410999 
L 264.264279 -514.643739 
L 264.273044 -520.87648 
L 264.284243 -527.10922 
L 264.29799 -533.34196 
L 264.314026 -539.5747 
L 264.331795 -545.807441 
L 264.350542 -552.040181 
L 264.369423 -558.272921 
L 264.387606 -564.505661 
L 264.404369 -570.738402 
L 264.419162 -576.971142 
L 264.431645 -583.203882 
L 264.441688 -589.436622 
L 264.449347 -595.669363 
L 264.454811 -601.902103 
L 264.458357 -608.134843 
L 264.460291 -614.367583 
L 264.460919 -620.600324 
L 264.460521 -626.833064 
L 264.459352 -633.065804 
L 264.457651 -639.298544 
L 264.455655 -645.531285 
L 264.453624 -651.764025 
L 264.451847 -657.996765 
L 264.450653 -664.229505 
L 264.450411 -670.462246 
L 264.451521 -676.694986 
L 264.454401 -682.927726 
L 264.459473 -689.160467 
L 264.467134 -695.393207 
L 264.477728 -701.625947 
L 264.491516 -707.858687 
L 264.508637 -714.091428 
L 264.529078 -720.324168 
L 264.552647 -726.556908 
L 264.578969 -732.789648 
L 264.607486 -739.022389 
L 264.637495 -745.255129 
L 264.668189 -751.487869 
L 264.69872 -757.720609 
L 264.72827 -763.95335 
L 265.067805 -763.95335 
L 265.067805 -763.95335 
L 265.097355 -757.720609 
L 265.127886 -751.487869 
L 265.15858 -745.255129 
L 265.188589 -739.022389 
L 265.217106 -732.789648 
L 265.243428 -726.556908 
L 265.266997 -720.324168 
L 265.287438 -714.091428 
L 265.304559 -707.858687 
L 265.318347 -701.625947 
L 265.328941 -695.393207 
L 265.336602 -689.160467 
L 265.341674 -682.927726 
L 265.344554 -676.694986 
L 265.345664 -670.462246 
L 265.345422 -664.229505 
L 265.344228 -657.996765 
L 265.342451 -651.764025 
L 265.34042 -645.531285 
L 265.338424 -639.298544 
L 265.336723 -633.065804 
L 265.335554 -626.833064 
L 265.335156 -620.600324 
L 265.335784 -614.367583 
L 265.337718 -608.134843 
L 265.341264 -601.902103 
L 265.346728 -595.669363 
L 265.354387 -589.436622 
L 265.364431 -583.203882 
L 265.376913 -576.971142 
L 265.391706 -570.738402 
L 265.408469 -564.505661 
L 265.426652 -558.272921 
L 265.445533 -552.040181 
L 265.46428 -545.807441 
L 265.482049 -539.5747 
L 265.498085 -533.34196 
L 265.511832 -527.10922 
L 265.523031 -520.87648 
L 265.531796 -514.643739 
L 265.538663 -508.410999 
L 265.544609 -502.178259 
L 265.551044 -495.945519 
L 265.559765 -489.712778 
L 265.572892 -483.480038 
L 265.592765 -477.247298 
L 265.621826 -471.014558 
L 265.662469 -464.781817 
L 265.716886 -458.549077 
L 265.786906 -452.316337 
L 265.873852 -446.083597 
L 265.978432 -439.850856 
L 266.100681 -433.618116 
L 266.23997 -427.385376 
L 266.395084 -421.152636 
L 266.564371 -414.919895 
L 266.745939 -408.687155 
L 266.937882 -402.454415 
L 267.138509 -396.221674 
L 267.346545 -389.988934 
L 267.561272 -383.756194 
L 267.782606 -377.523454 
L 268.011093 -371.290713 
L 268.247828 -365.057973 
L 268.494311 -358.825233 
L 268.752261 -352.592493 
L 269.023428 -346.359752 
L 269.309411 -340.127012 
L 269.611555 -333.894272 
L 269.930918 -327.661532 
L 270.268358 -321.428791 
L 270.624727 -315.196051 
L 271.001159 -308.963311 
L 271.399392 -302.730571 
L 271.822058 -296.49783 
L 272.272834 -290.26509 
L 272.756343 -284.03235 
L 273.277726 -277.79961 
L 273.841808 -271.566869 
L 274.451887 -265.334129 
L 275.108212 -259.101389 
L 275.806348 -252.868649 
L 276.535669 -246.635908 
L 277.278277 -240.403168 
L 278.008661 -234.170428 
L 278.694315 -227.937688 
L 279.297454 -221.704947 
L 279.777767 -215.472207 
L 280.095991 -209.239467 
L 280.217893 -203.006727 
L 280.118151 -196.773986 
L 279.783574 -190.541246 
L 279.21517 -184.308506 
L 278.428716 -178.075766 
L 277.453713 -171.843025 
L 276.330835 -165.610285 
L 275.108244 -159.377545 
L 273.837261 -153.144805 
L 272.567979 -146.912064 
z
" id="m22dda9617d" style="stroke:#3d3d3d;stroke-width:5;"/>
    </defs>
    <g clip-path="url(#p0bcea45397)">
     <use style="fill:#3a923a;stroke:#3d3d3d;stroke-width:5;" x="0" xlink:href="#m22dda9617d" y="1296"/>
    </g>
   </g>
   <g id="PolyCollection_2">
    <defs>
     <path d="M 551.129776 -153.159323 
L 527.747333 -153.159323 
L 526.463188 -156.957861 
L 525.195412 -160.756398 
L 523.973436 -164.554935 
L 522.827292 -168.353473 
L 521.786244 -172.15201 
L 520.877372 -175.950547 
L 520.124219 -179.749085 
L 519.545588 -183.547622 
L 519.154588 -187.346159 
L 518.958001 -191.144696 
L 518.956017 -194.943234 
L 519.142355 -198.741771 
L 519.504758 -202.540308 
L 520.025815 -206.338846 
L 520.684046 -210.137383 
L 521.455147 -213.93592 
L 522.313317 -217.734458 
L 523.232546 -221.532995 
L 524.187799 -225.331532 
L 525.156 -229.13007 
L 526.116792 -232.928607 
L 527.053026 -236.727144 
L 527.950998 -240.525681 
L 528.800448 -244.324219 
L 529.59436 -248.122756 
L 530.328619 -251.921293 
L 531.001569 -255.719831 
L 531.613538 -259.518368 
L 532.166368 -263.316905 
L 532.66298 -267.115443 
L 533.107016 -270.91398 
L 533.502539 -274.712517 
L 533.853827 -278.511055 
L 534.165222 -282.309592 
L 534.441036 -286.108129 
L 534.685491 -289.906666 
L 534.902685 -293.705204 
L 535.096555 -297.503741 
L 535.270842 -301.302278 
L 535.429043 -305.100816 
L 535.574358 -308.899353 
L 535.709624 -312.69789 
L 535.837258 -316.496428 
L 535.9592 -320.294965 
L 536.076882 -324.093502 
L 536.191214 -327.892039 
L 536.302603 -331.690577 
L 536.410998 -335.489114 
L 536.51597 -339.287651 
L 536.616807 -343.086189 
L 536.712632 -346.884726 
L 536.80252 -350.683263 
L 536.885624 -354.481801 
L 536.961272 -358.280338 
L 537.029058 -362.078875 
L 537.088894 -365.877413 
L 537.141038 -369.67595 
L 537.186088 -373.474487 
L 537.224941 -377.273024 
L 537.258741 -381.071562 
L 537.288789 -384.870099 
L 537.316462 -388.668636 
L 537.343117 -392.467174 
L 537.370003 -396.265711 
L 537.398192 -400.064248 
L 537.428519 -403.862786 
L 537.461553 -407.661323 
L 537.497579 -411.45986 
L 537.536617 -415.258398 
L 537.578447 -419.056935 
L 537.622655 -422.855472 
L 537.668695 -426.654009 
L 537.715944 -430.452547 
L 537.763766 -434.251084 
L 537.811574 -438.049621 
L 537.858868 -441.848159 
L 537.905282 -445.646696 
L 537.950601 -449.445233 
L 537.99477 -453.243771 
L 538.037896 -457.042308 
L 538.080224 -460.840845 
L 538.122115 -464.639382 
L 538.164016 -468.43792 
L 538.206413 -472.236457 
L 538.2498 -476.034994 
L 538.294632 -479.833532 
L 538.341293 -483.632069 
L 538.390066 -487.430606 
L 538.441106 -491.229144 
L 538.494427 -495.027681 
L 538.549894 -498.826218 
L 538.607231 -502.624756 
L 538.666027 -506.423293 
L 538.725763 -510.22183 
L 538.785833 -514.020367 
L 538.845576 -517.818905 
L 538.904312 -521.617442 
L 538.961372 -525.415979 
L 539.016131 -529.214517 
L 539.860978 -529.214517 
L 539.860978 -529.214517 
L 539.915737 -525.415979 
L 539.972797 -521.617442 
L 540.031533 -517.818905 
L 540.091276 -514.020367 
L 540.151345 -510.22183 
L 540.211081 -506.423293 
L 540.269878 -502.624756 
L 540.327214 -498.826218 
L 540.382682 -495.027681 
L 540.436002 -491.229144 
L 540.487042 -487.430606 
L 540.535815 -483.632069 
L 540.582477 -479.833532 
L 540.627309 -476.034994 
L 540.670695 -472.236457 
L 540.713093 -468.43792 
L 540.754993 -464.639382 
L 540.796885 -460.840845 
L 540.839213 -457.042308 
L 540.882338 -453.243771 
L 540.926508 -449.445233 
L 540.971826 -445.646696 
L 541.01824 -441.848159 
L 541.065535 -438.049621 
L 541.113342 -434.251084 
L 541.161165 -430.452547 
L 541.208413 -426.654009 
L 541.254453 -422.855472 
L 541.298662 -419.056935 
L 541.340491 -415.258398 
L 541.379529 -411.45986 
L 541.415556 -407.661323 
L 541.448589 -403.862786 
L 541.478916 -400.064248 
L 541.507105 -396.265711 
L 541.533992 -392.467174 
L 541.560646 -388.668636 
L 541.58832 -384.870099 
L 541.618368 -381.071562 
L 541.652167 -377.273024 
L 541.691021 -373.474487 
L 541.73607 -369.67595 
L 541.788214 -365.877413 
L 541.848051 -362.078875 
L 541.915837 -358.280338 
L 541.991485 -354.481801 
L 542.074588 -350.683263 
L 542.164477 -346.884726 
L 542.260301 -343.086189 
L 542.361138 -339.287651 
L 542.46611 -335.489114 
L 542.574506 -331.690577 
L 542.685894 -327.892039 
L 542.800226 -324.093502 
L 542.917908 -320.294965 
L 543.03985 -316.496428 
L 543.167484 -312.69789 
L 543.30275 -308.899353 
L 543.448065 -305.100816 
L 543.606266 -301.302278 
L 543.780553 -297.503741 
L 543.974423 -293.705204 
L 544.191617 -289.906666 
L 544.436073 -286.108129 
L 544.711886 -282.309592 
L 545.023281 -278.511055 
L 545.37457 -274.712517 
L 545.770093 -270.91398 
L 546.214128 -267.115443 
L 546.710741 -263.316905 
L 547.26357 -259.518368 
L 547.87554 -255.719831 
L 548.548489 -251.921293 
L 549.282748 -248.122756 
L 550.076661 -244.324219 
L 550.926111 -240.525681 
L 551.824083 -236.727144 
L 552.760316 -232.928607 
L 553.721108 -229.13007 
L 554.68931 -225.331532 
L 555.644562 -221.532995 
L 556.563792 -217.734458 
L 557.421962 -213.93592 
L 558.193063 -210.137383 
L 558.851293 -206.338846 
L 559.37235 -202.540308 
L 559.734753 -198.741771 
L 559.921091 -194.943234 
L 559.919107 -191.144696 
L 559.722521 -187.346159 
L 559.331521 -183.547622 
L 558.75289 -179.749085 
L 557.999737 -175.950547 
L 557.090865 -172.15201 
L 556.049817 -168.353473 
L 554.903673 -164.554935 
L 553.681696 -160.756398 
L 552.41392 -156.957861 
L 551.129776 -153.159323 
z
" id="m1fd7382cd1" style="stroke:#3d3d3d;stroke-width:5;"/>
    </defs>
    <g clip-path="url(#p0bcea45397)">
     <use style="fill:#2eabb8;stroke:#3d3d3d;stroke-width:5;" x="0" xlink:href="#m1fd7382cd1" y="1296"/>
    </g>
   </g>
   <g id="PolyCollection_3">
    <defs>
     <path d="M 880.585161 -179.653123 
L 747.372981 -179.653123 
L 736.368772 -181.151494 
L 726.028389 -182.649865 
L 717.04564 -184.148236 
L 710.077372 -185.646608 
L 705.664539 -187.144979 
L 704.162864 -188.64335 
L 705.695394 -190.141721 
L 710.135707 -191.640092 
L 717.124917 -193.138463 
L 726.11924 -194.636834 
L 736.459331 -196.135206 
L 747.44906 -197.633577 
L 758.430682 -199.131948 
L 768.845372 -200.630319 
L 778.2721 -202.12869 
L 786.442691 -203.627061 
L 793.235397 -205.125432 
L 798.65252 -206.623804 
L 802.789103 -208.122175 
L 805.799498 -209.620546 
L 807.867142 -211.118917 
L 809.180815 -212.617288 
L 809.918526 -214.115659 
L 810.238479 -215.614031 
L 810.275551 -217.112402 
L 810.141311 -218.610773 
L 809.925791 -220.109144 
L 809.699676 -221.607515 
L 809.516195 -223.105886 
L 809.412526 -224.604257 
L 809.410902 -226.102629 
L 809.519782 -227.601 
L 809.735418 -229.099371 
L 810.04403 -230.597742 
L 810.424544 -232.096113 
L 810.851721 -233.594484 
L 811.299296 -235.092855 
L 811.742801 -236.591227 
L 812.161731 -238.089598 
L 812.540871 -239.587969 
L 812.870768 -241.08634 
L 813.147425 -242.584711 
L 813.371433 -244.083082 
L 813.546795 -245.581453 
L 813.679658 -247.079825 
L 813.777161 -248.578196 
L 813.846514 -250.076567 
L 813.89435 -251.574938 
L 813.92636 -253.073309 
L 813.947147 -254.57168 
L 813.96025 -256.070052 
L 813.968271 -257.568423 
L 813.973039 -259.066794 
L 813.975792 -260.565165 
L 813.977336 -262.063536 
L 813.978178 -263.561907 
L 813.978623 -265.060278 
L 813.978853 -266.55865 
L 813.978967 -268.057021 
L 813.979023 -269.555392 
L 813.979048 -271.053763 
L 813.979058 -272.552134 
L 813.979059 -274.050505 
L 813.97905 -275.548876 
L 813.979028 -277.047248 
L 813.978979 -278.545619 
L 813.97888 -280.04399 
L 813.978682 -281.542361 
L 813.978301 -283.040732 
L 813.977591 -284.539103 
L 813.976302 -286.037474 
L 813.974033 -287.535846 
L 813.970156 -289.034217 
L 813.96373 -290.532588 
L 813.953396 -292.030959 
L 813.937282 -293.52933 
L 813.912918 -295.027701 
L 813.877226 -296.526073 
L 813.826579 -298.024444 
L 813.757011 -299.522815 
L 813.664581 -301.021186 
L 813.545902 -302.519557 
L 813.398811 -304.017928 
L 813.223106 -305.516299 
L 813.021225 -307.014671 
L 812.79874 -308.513042 
L 812.564494 -310.011413 
L 812.330289 -311.509784 
L 812.110048 -313.008155 
L 811.918535 -314.506526 
L 811.769743 -316.004897 
L 811.67522 -317.503269 
L 811.642586 -319.00164 
L 811.674522 -320.500011 
L 811.768404 -321.998382 
L 811.916661 -323.496753 
L 812.107782 -324.995124 
L 812.327789 -326.493496 
L 812.561921 -327.991867 
L 815.396222 -327.991867 
L 815.396222 -327.991867 
L 815.630353 -326.493496 
L 815.85036 -324.995124 
L 816.041481 -323.496753 
L 816.189738 -321.998382 
L 816.28362 -320.500011 
L 816.315556 -319.00164 
L 816.282922 -317.503269 
L 816.188399 -316.004897 
L 816.039607 -314.506526 
L 815.848094 -313.008155 
L 815.627853 -311.509784 
L 815.393648 -310.011413 
L 815.159402 -308.513042 
L 814.936917 -307.014671 
L 814.735036 -305.516299 
L 814.559331 -304.017928 
L 814.41224 -302.519557 
L 814.293561 -301.021186 
L 814.201131 -299.522815 
L 814.131563 -298.024444 
L 814.080916 -296.526073 
L 814.045224 -295.027701 
L 814.020861 -293.52933 
L 814.004746 -292.030959 
L 813.994412 -290.532588 
L 813.987986 -289.034217 
L 813.984109 -287.535846 
L 813.98184 -286.037474 
L 813.980551 -284.539103 
L 813.979841 -283.040732 
L 813.97946 -281.542361 
L 813.979262 -280.04399 
L 813.979163 -278.545619 
L 813.979114 -277.047248 
L 813.979092 -275.548876 
L 813.979083 -274.050505 
L 813.979084 -272.552134 
L 813.979094 -271.053763 
L 813.979119 -269.555392 
L 813.979175 -268.057021 
L 813.979289 -266.55865 
L 813.979519 -265.060278 
L 813.979964 -263.561907 
L 813.980806 -262.063536 
L 813.98235 -260.565165 
L 813.985103 -259.066794 
L 813.989871 -257.568423 
L 813.997892 -256.070052 
L 814.010995 -254.57168 
L 814.031782 -253.073309 
L 814.063792 -251.574938 
L 814.111628 -250.076567 
L 814.180981 -248.578196 
L 814.278484 -247.079825 
L 814.411347 -245.581453 
L 814.586709 -244.083082 
L 814.810717 -242.584711 
L 815.087374 -241.08634 
L 815.417271 -239.587969 
L 815.796411 -238.089598 
L 816.215341 -236.591227 
L 816.658846 -235.092855 
L 817.106422 -233.594484 
L 817.533598 -232.096113 
L 817.914112 -230.597742 
L 818.222724 -229.099371 
L 818.43836 -227.601 
L 818.54724 -226.102629 
L 818.545616 -224.604257 
L 818.441947 -223.105886 
L 818.258466 -221.607515 
L 818.032351 -220.109144 
L 817.816831 -218.610773 
L 817.682591 -217.112402 
L 817.719663 -215.614031 
L 818.039616 -214.115659 
L 818.777327 -212.617288 
L 820.091 -211.118917 
L 822.158644 -209.620546 
L 825.169039 -208.122175 
L 829.305622 -206.623804 
L 834.722745 -205.125432 
L 841.515451 -203.627061 
L 849.686042 -202.12869 
L 859.11277 -200.630319 
L 869.52746 -199.131948 
L 880.509082 -197.633577 
L 891.498811 -196.135206 
L 901.838902 -194.636834 
L 910.833225 -193.138463 
L 917.822435 -191.640092 
L 922.262748 -190.141721 
L 923.795278 -188.64335 
L 922.293603 -187.144979 
L 917.88077 -185.646608 
L 910.912502 -184.148236 
L 901.929753 -182.649865 
L 891.58937 -181.151494 
L 880.585161 -179.653123 
z
" id="md45550197a" style="stroke:#3d3d3d;stroke-width:5;"/>
    </defs>
    <g clip-path="url(#p0bcea45397)">
     <use style="fill:#a9aa35;stroke:#3d3d3d;stroke-width:5;" x="0" xlink:href="#md45550197a" y="1296"/>
    </g>
   </g>
   <g id="PolyCollection_4">
    <defs>
     <path d="M 1152.7396 -180.306013 
L 1024.299576 -180.306013 
L 1017.057992 -181.248137 
L 1010.008184 -182.190261 
L 1003.355986 -183.132384 
L 997.309897 -184.074508 
L 992.070258 -185.016632 
L 987.818138 -185.958755 
L 984.704771 -186.900879 
L 982.842407 -187.843002 
L 982.297357 -188.785126 
L 983.085816 -189.72725 
L 985.172848 -190.669373 
L 988.474629 -191.611497 
L 992.863732 -192.553621 
L 998.177015 -193.495744 
L 1004.225418 -194.437868 
L 1010.804869 -195.379992 
L 1017.707411 -196.322115 
L 1024.731733 -197.264239 
L 1031.692362 -198.206362 
L 1038.426998 -199.148486 
L 1044.801621 -200.09061 
L 1050.713291 -201.032733 
L 1056.090716 -201.974857 
L 1060.892849 -202.916981 
L 1065.105925 -203.859104 
L 1068.739376 -204.801228 
L 1071.821107 -205.743351 
L 1074.392574 -206.685475 
L 1076.504042 -207.627599 
L 1078.210301 -208.569722 
L 1079.567048 -209.511846 
L 1080.628025 -210.45397 
L 1081.442929 -211.396093 
L 1082.056062 -212.338217 
L 1082.505622 -213.280341 
L 1082.823525 -214.222464 
L 1083.03565 -215.164588 
L 1083.162362 -216.106711 
L 1083.219232 -217.048835 
L 1083.217851 -217.990959 
L 1083.166669 -218.933082 
L 1083.071799 -219.875206 
L 1082.937754 -220.81733 
L 1082.768082 -221.759453 
L 1082.565894 -222.701577 
L 1082.334272 -223.6437 
L 1082.076569 -224.585824 
L 1081.796596 -225.527948 
L 1081.498729 -226.470071 
L 1081.187936 -227.412195 
L 1080.869753 -228.354319 
L 1080.550215 -229.296442 
L 1080.235765 -230.238566 
L 1079.933151 -231.18069 
L 1079.649298 -232.122813 
L 1079.391191 -233.064937 
L 1079.165728 -234.00706 
L 1078.979569 -234.949184 
L 1078.838959 -235.891308 
L 1078.749533 -236.833431 
L 1078.716095 -237.775555 
L 1078.742389 -238.717679 
L 1078.830868 -239.659802 
L 1078.98247 -240.601926 
L 1079.196441 -241.544049 
L 1079.4702 -242.486173 
L 1079.799295 -243.428297 
L 1080.177436 -244.37042 
L 1080.596641 -245.312544 
L 1081.047479 -246.254668 
L 1081.519418 -247.196791 
L 1082.001241 -248.138915 
L 1082.48154 -249.081039 
L 1082.949219 -250.023162 
L 1083.394012 -250.965286 
L 1083.806956 -251.907409 
L 1084.180796 -252.849533 
L 1084.510301 -253.791657 
L 1084.792464 -254.73378 
L 1085.026571 -255.675904 
L 1085.214149 -256.618028 
L 1085.358776 -257.560151 
L 1085.465792 -258.502275 
L 1085.541909 -259.444398 
L 1085.594763 -260.386522 
L 1085.632433 -261.328646 
L 1085.66295 -262.270769 
L 1085.693849 -263.212893 
L 1085.731763 -264.155017 
L 1085.782115 -265.09714 
L 1085.848892 -266.039264 
L 1085.934538 -266.981388 
L 1086.039948 -267.923511 
L 1086.164561 -268.865635 
L 1086.306541 -269.807758 
L 1086.463021 -270.749882 
L 1086.630392 -271.692006 
L 1086.804604 -272.634129 
L 1086.981463 -273.576253 
L 1090.057713 -273.576253 
L 1090.057713 -273.576253 
L 1090.234572 -272.634129 
L 1090.408783 -271.692006 
L 1090.576154 -270.749882 
L 1090.732635 -269.807758 
L 1090.874614 -268.865635 
L 1090.999227 -267.923511 
L 1091.104637 -266.981388 
L 1091.190283 -266.039264 
L 1091.257061 -265.09714 
L 1091.307412 -264.155017 
L 1091.345327 -263.212893 
L 1091.376225 -262.270769 
L 1091.406743 -261.328646 
L 1091.444412 -260.386522 
L 1091.497267 -259.444398 
L 1091.573384 -258.502275 
L 1091.680399 -257.560151 
L 1091.825027 -256.618028 
L 1092.012604 -255.675904 
L 1092.246712 -254.73378 
L 1092.528875 -253.791657 
L 1092.85838 -252.849533 
L 1093.232219 -251.907409 
L 1093.645163 -250.965286 
L 1094.089957 -250.023162 
L 1094.557636 -249.081039 
L 1095.037934 -248.138915 
L 1095.519758 -247.196791 
L 1095.991696 -246.254668 
L 1096.442535 -245.312544 
L 1096.861739 -244.37042 
L 1097.23988 -243.428297 
L 1097.568975 -242.486173 
L 1097.842735 -241.544049 
L 1098.056705 -240.601926 
L 1098.208308 -239.659802 
L 1098.296786 -238.717679 
L 1098.323081 -237.775555 
L 1098.289643 -236.833431 
L 1098.200216 -235.891308 
L 1098.059607 -234.949184 
L 1097.873448 -234.00706 
L 1097.647985 -233.064937 
L 1097.389878 -232.122813 
L 1097.106025 -231.18069 
L 1096.80341 -230.238566 
L 1096.488961 -229.296442 
L 1096.169423 -228.354319 
L 1095.851239 -227.412195 
L 1095.540447 -226.470071 
L 1095.242579 -225.527948 
L 1094.962606 -224.585824 
L 1094.704903 -223.6437 
L 1094.473282 -222.701577 
L 1094.271094 -221.759453 
L 1094.101422 -220.81733 
L 1093.967377 -219.875206 
L 1093.872507 -218.933082 
L 1093.821325 -217.990959 
L 1093.819944 -217.048835 
L 1093.876813 -216.106711 
L 1094.003525 -215.164588 
L 1094.21565 -214.222464 
L 1094.533554 -213.280341 
L 1094.983113 -212.338217 
L 1095.596246 -211.396093 
L 1096.411151 -210.45397 
L 1097.472128 -209.511846 
L 1098.828875 -208.569722 
L 1100.535134 -207.627599 
L 1102.646601 -206.685475 
L 1105.218069 -205.743351 
L 1108.2998 -204.801228 
L 1111.933251 -203.859104 
L 1116.146327 -202.916981 
L 1120.94846 -201.974857 
L 1126.325884 -201.032733 
L 1132.237555 -200.09061 
L 1138.612178 -199.148486 
L 1145.346813 -198.206362 
L 1152.307443 -197.264239 
L 1159.331764 -196.322115 
L 1166.234307 -195.379992 
L 1172.813758 -194.437868 
L 1178.862161 -193.495744 
L 1184.175443 -192.553621 
L 1188.564546 -191.611497 
L 1191.866327 -190.669373 
L 1193.95336 -189.72725 
L 1194.741818 -188.785126 
L 1194.196768 -187.843002 
L 1192.334405 -186.900879 
L 1189.221037 -185.958755 
L 1184.968917 -185.016632 
L 1179.729279 -184.074508 
L 1173.68319 -183.132384 
L 1167.030992 -182.190261 
L 1159.981184 -181.248137 
L 1152.7396 -180.306013 
z
" id="m849f14ad1d" style="stroke:#3d3d3d;stroke-width:5;"/>
    </defs>
    <g clip-path="url(#p0bcea45397)">
     <use style="fill:#c03d3e;stroke:#3d3d3d;stroke-width:5;" x="0" xlink:href="#m849f14ad1d" y="1296"/>
    </g>
   </g>
   <g id="line2d_9">
    <path clip-path="url(#p0bcea45397)" d="M 264.898038 1107.364807 
L 264.898038 889.625778 
" style="fill:none;stroke:#3d3d3d;stroke-linecap:round;stroke-width:5;"/>
   </g>
   <g id="line2d_10">
    <path clip-path="url(#p0bcea45397)" d="M 264.898038 1107.364807 
L 264.898038 1008.239786 
" style="fill:none;stroke:#3d3d3d;stroke-linecap:round;stroke-width:15;"/>
   </g>
   <g id="line2d_11">
    <path clip-path="url(#p0bcea45397)" d="M 539.438554 1107.364807 
L 539.438554 968.925795 
" style="fill:none;stroke:#3d3d3d;stroke-linecap:round;stroke-width:5;"/>
   </g>
   <g id="line2d_12">
    <path clip-path="url(#p0bcea45397)" d="M 539.438554 1107.364807 
L 539.438554 1047.21776 
" style="fill:none;stroke:#3d3d3d;stroke-linecap:round;stroke-width:15;"/>
   </g>
   <g id="line2d_13">
    <path clip-path="url(#p0bcea45397)" d="M 813.979071 1107.364807 
L 813.979071 1107.364807 
" style="fill:none;stroke:#3d3d3d;stroke-linecap:round;stroke-width:5;"/>
   </g>
   <g id="line2d_14">
    <path clip-path="url(#p0bcea45397)" d="M 813.979071 1107.364807 
L 813.979071 1107.364807 
" style="fill:none;stroke:#3d3d3d;stroke-linecap:round;stroke-width:15;"/>
   </g>
   <g id="line2d_15">
    <path clip-path="url(#p0bcea45397)" d="M 1088.519588 1107.364807 
L 1088.519588 1107.364807 
" style="fill:none;stroke:#3d3d3d;stroke-linecap:round;stroke-width:5;"/>
   </g>
   <g id="line2d_16">
    <path clip-path="url(#p0bcea45397)" d="M 1088.519588 1107.364807 
L 1088.519588 1107.364807 
" style="fill:none;stroke:#3d3d3d;stroke-linecap:round;stroke-width:15;"/>
   </g>
   <g id="line2d_17">
    <path clip-path="url(#p0bcea45397)" d="M 264.898038 533.045054 
L 264.898038 519.470146 
L 539.438554 519.470146 
L 539.438554 533.045054 
" style="fill:none;stroke:#333333;stroke-linecap:round;stroke-width:1.5;"/>
   </g>
   <g id="line2d_18">
    <path clip-path="url(#p0bcea45397)" d="M 539.438554 453.357963 
L 539.438554 439.783054 
L 813.979071 439.783054 
L 813.979071 453.357963 
" style="fill:none;stroke:#333333;stroke-linecap:round;stroke-width:1.5;"/>
   </g>
   <g id="line2d_19">
    <path clip-path="url(#p0bcea45397)" d="M 264.898038 369.598678 
L 264.898038 356.02377 
L 813.979071 356.02377 
L 813.979071 369.598678 
" style="fill:none;stroke:#333333;stroke-linecap:round;stroke-width:1.5;"/>
   </g>
   <g id="line2d_20">
    <path clip-path="url(#p0bcea45397)" d="M 539.438554 281.559102 
L 539.438554 267.984194 
L 1088.519588 267.984194 
L 1088.519588 281.559102 
" style="fill:none;stroke:#333333;stroke-linecap:round;stroke-width:1.5;"/>
   </g>
   <g id="line2d_21">
    <path clip-path="url(#p0bcea45397)" d="M 264.898038 189.020501 
L 264.898038 175.445593 
L 1088.519588 175.445593 
L 1088.519588 189.020501 
" style="fill:none;stroke:#333333;stroke-linecap:round;stroke-width:1.5;"/>
   </g>
   <g id="patch_3">
    <path d="M 202.32 1179.94 
L 202.32 96.24 
" style="fill:none;stroke:#cccccc;stroke-linecap:square;stroke-linejoin:miter;stroke-width:2.5;"/>
   </g>
   <g id="patch_4">
    <path d="M 1242 1179.94 
L 1242 96.24 
" style="fill:none;stroke:#cccccc;stroke-linecap:square;stroke-linejoin:miter;stroke-width:2.5;"/>
   </g>
   <g id="patch_5">
    <path d="M 202.32 1179.94 
L 1242 1179.94 
" style="fill:none;stroke:#cccccc;stroke-linecap:square;stroke-linejoin:miter;stroke-width:2.5;"/>
   </g>
   <g id="patch_6">
    <path d="M 202.32 96.24 
L 1242 96.24 
" style="fill:none;stroke:#cccccc;stroke-linecap:square;stroke-linejoin:miter;stroke-width:2.5;"/>
   </g>
   <g id="PathCollection_1">
    <defs>
     <path d="M 0 5 
C 1.326016 5 2.597899 4.473168 3.535534 3.535534 
C 4.473168 2.597899 5 1.326016 5 0 
C 5 -1.326016 4.473168 -2.597899 3.535534 -3.535534 
C 2.597899 -4.473168 1.326016 -5 0 -5 
C -1.326016 -5 -2.597899 -4.473168 -3.535534 -3.535534 
C -4.473168 -2.597899 -5 -1.326016 -5 0 
C -5 1.326016 -4.473168 2.597899 -3.535534 3.535534 
C -2.597899 4.473168 -1.326016 5 0 5 
z
" id="mfea95edaad" style="stroke:#3d3d3d;stroke-width:2;"/>
    </defs>
    <g clip-path="url(#p0bcea45397)">
     <use style="fill:#ffffff;stroke:#3d3d3d;stroke-width:2;" x="264.898038" xlink:href="#mfea95edaad" y="1076.451241"/>
    </g>
   </g>
   <g id="PathCollection_2">
    <g clip-path="url(#p0bcea45397)">
     <use style="fill:#ffffff;stroke:#3d3d3d;stroke-width:2;" x="539.438554" xlink:href="#mfea95edaad" y="1107.364807"/>
    </g>
   </g>
   <g id="PathCollection_3">
    <g clip-path="url(#p0bcea45397)">
     <use style="fill:#ffffff;stroke:#3d3d3d;stroke-width:2;" x="813.979071" xlink:href="#mfea95edaad" y="1107.364807"/>
    </g>
   </g>
   <g id="PathCollection_4">
    <g clip-path="url(#p0bcea45397)">
     <use style="fill:#ffffff;stroke:#3d3d3d;stroke-width:2;" x="1088.519588" xlink:href="#mfea95edaad" y="1107.364807"/>
    </g>
   </g>
   <g id="text_14">
    <!-- ns -->
    <g transform="translate(375.765952 508.532646)scale(0.5 -0.5)">
     <defs>
      <path d="M 3.078125 15.484375 
L 11.765625 16.84375 
Q 12.5 11.625 15.84375 8.84375 
Q 19.1875 6.0625 25.203125 6.0625 
Q 31.25 6.0625 34.171875 8.515625 
Q 37.109375 10.984375 37.109375 14.3125 
Q 37.109375 17.28125 34.515625 19 
Q 32.71875 20.171875 25.53125 21.96875 
Q 15.875 24.421875 12.140625 26.203125 
Q 8.40625 27.984375 6.46875 31.125 
Q 4.546875 34.28125 4.546875 38.09375 
Q 4.546875 41.546875 6.125 44.5 
Q 7.71875 47.46875 10.453125 49.421875 
Q 12.5 50.921875 16.03125 51.96875 
Q 19.578125 53.03125 23.640625 53.03125 
Q 29.734375 53.03125 34.34375 51.265625 
Q 38.96875 49.515625 41.15625 46.5 
Q 43.359375 43.5 44.1875 38.484375 
L 35.59375 37.3125 
Q 35.015625 41.3125 32.203125 43.546875 
Q 29.390625 45.796875 24.265625 45.796875 
Q 18.21875 45.796875 15.625 43.796875 
Q 13.03125 41.796875 13.03125 39.109375 
Q 13.03125 37.40625 14.109375 36.03125 
Q 15.1875 34.625 17.484375 33.6875 
Q 18.796875 33.203125 25.25 31.453125 
Q 34.578125 28.953125 38.25 27.359375 
Q 41.9375 25.78125 44.03125 22.75 
Q 46.140625 19.734375 46.140625 15.234375 
Q 46.140625 10.84375 43.578125 6.953125 
Q 41.015625 3.078125 36.171875 0.953125 
Q 31.34375 -1.171875 25.25 -1.171875 
Q 15.140625 -1.171875 9.84375 3.03125 
Q 4.546875 7.234375 3.078125 15.484375 
z
" id="ArialMT-115"/>
     </defs>
     <use xlink:href="#ArialMT-110"/>
     <use x="55.615234" xlink:href="#ArialMT-115"/>
    </g>
   </g>
   <g id="text_15">
    <!-- *** -->
    <g transform="translate(647.517406 428.845554)scale(0.5 -0.5)">
     <defs>
      <path d="M 3.125 58.453125 
L 5.375 65.375 
Q 13.140625 62.640625 16.65625 60.640625 
Q 15.71875 69.484375 15.671875 72.796875 
L 22.75 72.796875 
Q 22.609375 67.96875 21.625 60.6875 
Q 26.65625 63.234375 33.15625 65.375 
L 35.40625 58.453125 
Q 29.203125 56.390625 23.25 55.71875 
Q 26.21875 53.125 31.640625 46.484375 
L 25.78125 42.328125 
Q 22.953125 46.1875 19.09375 52.828125 
Q 15.484375 45.953125 12.75 42.328125 
L 6.984375 46.484375 
Q 12.640625 53.46875 15.09375 55.71875 
Q 8.796875 56.9375 3.125 58.453125 
z
" id="ArialMT-42"/>
     </defs>
     <use xlink:href="#ArialMT-42"/>
     <use x="38.916016" xlink:href="#ArialMT-42"/>
     <use x="77.832031" xlink:href="#ArialMT-42"/>
    </g>
   </g>
   <g id="text_16">
    <!-- **** -->
    <g transform="translate(500.516679 345.08627)scale(0.5 -0.5)">
     <use xlink:href="#ArialMT-42"/>
     <use x="38.916016" xlink:href="#ArialMT-42"/>
     <use x="77.832031" xlink:href="#ArialMT-42"/>
     <use x="116.748047" xlink:href="#ArialMT-42"/>
    </g>
   </g>
   <g id="text_17">
    <!-- ** -->
    <g transform="translate(794.518134 257.046694)scale(0.5 -0.5)">
     <use xlink:href="#ArialMT-42"/>
     <use x="38.916016" xlink:href="#ArialMT-42"/>
    </g>
   </g>
   <g id="text_18">
    <!-- **** -->
    <g transform="translate(637.786938 164.508093)scale(0.5 -0.5)">
     <use xlink:href="#ArialMT-42"/>
     <use x="38.916016" xlink:href="#ArialMT-42"/>
     <use x="77.832031" xlink:href="#ArialMT-42"/>
     <use x="116.748047" xlink:href="#ArialMT-42"/>
    </g>
   </g>
   <g id="text_19">
    <!-- Corynebacterium durum (K.W. p=1.73e-10) -->
    <g transform="translate(243.499844 90.24)scale(0.5 -0.5)">
     <defs>
      <path d="M 58.796875 25.09375 
L 68.265625 22.703125 
Q 65.28125 11.03125 57.546875 4.90625 
Q 49.8125 -1.21875 38.625 -1.21875 
Q 27.046875 -1.21875 19.796875 3.484375 
Q 12.546875 8.203125 8.765625 17.140625 
Q 4.984375 26.078125 4.984375 36.328125 
Q 4.984375 47.515625 9.25 55.828125 
Q 13.53125 64.15625 21.40625 68.46875 
Q 29.296875 72.796875 38.765625 72.796875 
Q 49.515625 72.796875 56.828125 67.328125 
Q 64.15625 61.859375 67.046875 51.953125 
L 57.71875 49.75 
Q 55.21875 57.5625 50.484375 61.125 
Q 45.75 64.703125 38.578125 64.703125 
Q 30.328125 64.703125 24.78125 60.734375 
Q 19.234375 56.78125 16.984375 50.109375 
Q 14.75 43.453125 14.75 36.375 
Q 14.75 27.25 17.40625 20.4375 
Q 20.0625 13.625 25.671875 10.25 
Q 31.296875 6.890625 37.84375 6.890625 
Q 45.796875 6.890625 51.3125 11.46875 
Q 56.84375 16.0625 58.796875 25.09375 
z
" id="ArialMT-67"/>
      <path d="M 6.59375 0 
L 6.59375 51.859375 
L 14.453125 51.859375 
L 14.453125 44.578125 
Q 16.890625 48.390625 20.9375 50.703125 
Q 25 53.03125 30.171875 53.03125 
Q 35.9375 53.03125 39.625 50.640625 
Q 43.3125 48.25 44.828125 43.953125 
Q 50.984375 53.03125 60.84375 53.03125 
Q 68.5625 53.03125 72.703125 48.75 
Q 76.859375 44.484375 76.859375 35.59375 
L 76.859375 0 
L 68.109375 0 
L 68.109375 32.671875 
Q 68.109375 37.9375 67.25 40.25 
Q 66.40625 42.578125 64.15625 43.984375 
Q 61.921875 45.40625 58.890625 45.40625 
Q 53.421875 45.40625 49.796875 41.765625 
Q 46.1875 38.140625 46.1875 30.125 
L 46.1875 0 
L 37.40625 0 
L 37.40625 33.6875 
Q 37.40625 39.546875 35.25 42.46875 
Q 33.109375 45.40625 28.21875 45.40625 
Q 24.515625 45.40625 21.359375 43.453125 
Q 18.21875 41.5 16.796875 37.734375 
Q 15.375 33.984375 15.375 26.90625 
L 15.375 0 
z
" id="ArialMT-109"/>
      <path id="ArialMT-32"/>
      <path d="M 23.390625 -21.046875 
Q 16.109375 -11.859375 11.078125 0.4375 
Q 6.0625 12.75 6.0625 25.921875 
Q 6.0625 37.546875 9.8125 48.1875 
Q 14.203125 60.546875 23.390625 72.796875 
L 29.6875 72.796875 
Q 23.78125 62.640625 21.875 58.296875 
Q 18.890625 51.5625 17.1875 44.234375 
Q 15.09375 35.109375 15.09375 25.875 
Q 15.09375 2.390625 29.6875 -21.046875 
z
" id="ArialMT-40"/>
      <path d="M 7.328125 0 
L 7.328125 71.578125 
L 16.796875 71.578125 
L 16.796875 36.078125 
L 52.34375 71.578125 
L 65.1875 71.578125 
L 35.15625 42.578125 
L 66.5 0 
L 54 0 
L 28.515625 36.234375 
L 16.796875 24.8125 
L 16.796875 0 
z
" id="ArialMT-75"/>
      <path d="M 9.078125 0 
L 9.078125 10.015625 
L 19.09375 10.015625 
L 19.09375 0 
z
" id="ArialMT-46"/>
      <path d="M 20.21875 0 
L 1.21875 71.578125 
L 10.9375 71.578125 
L 21.828125 24.65625 
Q 23.578125 17.28125 24.859375 10.015625 
Q 27.59375 21.484375 28.078125 23.25 
L 41.703125 71.578125 
L 53.125 71.578125 
L 63.375 35.359375 
Q 67.234375 21.875 68.953125 10.015625 
Q 70.3125 16.796875 72.515625 25.59375 
L 83.734375 71.578125 
L 93.265625 71.578125 
L 73.640625 0 
L 64.5 0 
L 49.421875 54.546875 
Q 47.515625 61.375 47.171875 62.9375 
Q 46.046875 58.015625 45.0625 54.546875 
L 29.890625 0 
z
" id="ArialMT-87"/>
      <path d="M 6.59375 -19.875 
L 6.59375 51.859375 
L 14.59375 51.859375 
L 14.59375 45.125 
Q 17.4375 49.078125 21 51.046875 
Q 24.5625 53.03125 29.640625 53.03125 
Q 36.28125 53.03125 41.359375 49.609375 
Q 46.4375 46.1875 49.015625 39.953125 
Q 51.609375 33.734375 51.609375 26.3125 
Q 51.609375 18.359375 48.75 11.984375 
Q 45.90625 5.609375 40.453125 2.21875 
Q 35.015625 -1.171875 29 -1.171875 
Q 24.609375 -1.171875 21.109375 0.6875 
Q 17.625 2.546875 15.375 5.375 
L 15.375 -19.875 
z
M 14.546875 25.640625 
Q 14.546875 15.625 18.59375 10.84375 
Q 22.65625 6.0625 28.421875 6.0625 
Q 34.28125 6.0625 38.453125 11.015625 
Q 42.625 15.96875 42.625 26.375 
Q 42.625 36.28125 38.546875 41.203125 
Q 34.46875 46.140625 28.8125 46.140625 
Q 23.1875 46.140625 18.859375 40.890625 
Q 14.546875 35.640625 14.546875 25.640625 
z
" id="ArialMT-112"/>
      <path d="M 52.828125 42.09375 
L 5.5625 42.09375 
L 5.5625 50.296875 
L 52.828125 50.296875 
z
M 52.828125 20.359375 
L 5.5625 20.359375 
L 5.5625 28.5625 
L 52.828125 28.5625 
z
" id="ArialMT-61"/>
      <path d="M 3.171875 21.484375 
L 3.171875 30.328125 
L 30.171875 30.328125 
L 30.171875 21.484375 
z
" id="ArialMT-45"/>
      <path d="M 12.359375 -21.046875 
L 6.0625 -21.046875 
Q 20.65625 2.390625 20.65625 25.875 
Q 20.65625 35.0625 18.5625 44.09375 
Q 16.890625 51.421875 13.921875 58.15625 
Q 12.015625 62.546875 6.0625 72.796875 
L 12.359375 72.796875 
Q 21.53125 60.546875 25.921875 48.1875 
Q 29.6875 37.546875 29.6875 25.921875 
Q 29.6875 12.75 24.625 0.4375 
Q 19.578125 -11.859375 12.359375 -21.046875 
z
" id="ArialMT-41"/>
     </defs>
     <use xlink:href="#ArialMT-67"/>
     <use x="72.216797" xlink:href="#ArialMT-111"/>
     <use x="127.832031" xlink:href="#ArialMT-114"/>
     <use x="161.132812" xlink:href="#ArialMT-121"/>
     <use x="211.132812" xlink:href="#ArialMT-110"/>
     <use x="266.748047" xlink:href="#ArialMT-101"/>
     <use x="322.363281" xlink:href="#ArialMT-98"/>
     <use x="377.978516" xlink:href="#ArialMT-97"/>
     <use x="433.59375" xlink:href="#ArialMT-99"/>
     <use x="483.59375" xlink:href="#ArialMT-116"/>
     <use x="511.376953" xlink:href="#ArialMT-101"/>
     <use x="566.992188" xlink:href="#ArialMT-114"/>
     <use x="600.292969" xlink:href="#ArialMT-105"/>
     <use x="622.509766" xlink:href="#ArialMT-117"/>
     <use x="678.125" xlink:href="#ArialMT-109"/>
     <use x="761.425781" xlink:href="#ArialMT-32"/>
     <use x="789.208984" xlink:href="#ArialMT-100"/>
     <use x="844.824219" xlink:href="#ArialMT-117"/>
     <use x="900.439453" xlink:href="#ArialMT-114"/>
     <use x="933.740234" xlink:href="#ArialMT-117"/>
     <use x="989.355469" xlink:href="#ArialMT-109"/>
     <use x="1072.65625" xlink:href="#ArialMT-32"/>
     <use x="1100.439453" xlink:href="#ArialMT-40"/>
     <use x="1133.740234" xlink:href="#ArialMT-75"/>
     <use x="1200.439453" xlink:href="#ArialMT-46"/>
     <use x="1228.222656" xlink:href="#ArialMT-87"/>
     <use x="1317.107422" xlink:href="#ArialMT-46"/>
     <use x="1344.890625" xlink:href="#ArialMT-32"/>
     <use x="1372.673828" xlink:href="#ArialMT-112"/>
     <use x="1428.289062" xlink:href="#ArialMT-61"/>
     <use x="1486.6875" xlink:href="#ArialMT-49"/>
     <use x="1542.302734" xlink:href="#ArialMT-46"/>
     <use x="1570.085938" xlink:href="#ArialMT-55"/>
     <use x="1625.701172" xlink:href="#ArialMT-51"/>
     <use x="1681.316406" xlink:href="#ArialMT-101"/>
     <use x="1736.931641" xlink:href="#ArialMT-45"/>
     <use x="1770.232422" xlink:href="#ArialMT-49"/>
     <use x="1825.847656" xlink:href="#ArialMT-48"/>
     <use x="1881.462891" xlink:href="#ArialMT-41"/>
    </g>
   </g>
  </g>
 </g>
 <defs>
  <clipPath id="p0bcea45397">
   <rect height="1083.7" width="1039.68" x="202.32" y="96.24"/>
  </clipPath>
 </defs>
</svg>
