<?xml version="1.0" encoding="utf-8" standalone="no"?>
<!DOCTYPE svg PUBLIC "-//W3C//DTD SVG 1.1//EN"
  "http://www.w3.org/Graphics/SVG/1.1/DTD/svg11.dtd">
<!-- Created with matplotlib (https://matplotlib.org/) -->
<svg height="1296pt" version="1.1" viewBox="0 0 1296 1296" width="1296pt" xmlns="http://www.w3.org/2000/svg" xmlns:xlink="http://www.w3.org/1999/xlink">
 <metadata>
  <rdf:RDF xmlns:cc="http://creativecommons.org/ns#" xmlns:dc="http://purl.org/dc/elements/1.1/" xmlns:rdf="http://www.w3.org/1999/02/22-rdf-syntax-ns#">
   <cc:Work>
    <dc:type rdf:resource="http://purl.org/dc/dcmitype/StillImage"/>
    <dc:date>2022-06-29T13:55:01.481027</dc:date>
    <dc:format>image/svg+xml</dc:format>
    <dc:creator>
     <cc:Agent>
      <dc:title>Matplotlib v3.3.3, https://matplotlib.org/</dc:title>
     </cc:Agent>
    </dc:creator>
   </cc:Work>
  </rdf:RDF>
 </metadata>
 <defs>
  <style type="text/css">*{stroke-linecap:butt;stroke-linejoin:round;}</style>
 </defs>
 <g id="figure_1">
  <g id="patch_1">
   <path d="M 0 1296 
L 1296 1296 
L 1296 0 
L 0 0 
z
" style="fill:#ffffff;"/>
  </g>
  <g id="axes_1">
   <g id="patch_2">
    <path d="M 230.16 1179.94 
L 1242 1179.94 
L 1242 96.12 
L 230.16 96.12 
z
" style="fill:#ffffff;"/>
   </g>
   <g id="matplotlib.axis_1">
    <g id="xtick_1">
     <g id="text_1">
      <!-- Healthy -->
      <g style="fill:#262626;" transform="translate(213.168915 1231.229063)scale(0.5 -0.5)">
       <defs>
        <path d="M 8.015625 0 
L 8.015625 71.578125 
L 17.484375 71.578125 
L 17.484375 42.1875 
L 54.6875 42.1875 
L 54.6875 71.578125 
L 64.15625 71.578125 
L 64.15625 0 
L 54.6875 0 
L 54.6875 33.734375 
L 17.484375 33.734375 
L 17.484375 0 
z
" id="ArialMT-72"/>
        <path d="M 42.09375 16.703125 
L 51.171875 15.578125 
Q 49.03125 7.625 43.21875 3.21875 
Q 37.40625 -1.171875 28.375 -1.171875 
Q 17 -1.171875 10.328125 5.828125 
Q 3.65625 12.84375 3.65625 25.484375 
Q 3.65625 38.578125 10.390625 45.796875 
Q 17.140625 53.03125 27.875 53.03125 
Q 38.28125 53.03125 44.875 45.953125 
Q 51.46875 38.875 51.46875 26.03125 
Q 51.46875 25.25 51.421875 23.6875 
L 12.75 23.6875 
Q 13.234375 15.140625 17.578125 10.59375 
Q 21.921875 6.0625 28.421875 6.0625 
Q 33.25 6.0625 36.671875 8.59375 
Q 40.09375 11.140625 42.09375 16.703125 
z
M 13.234375 30.90625 
L 42.1875 30.90625 
Q 41.609375 37.453125 38.875 40.71875 
Q 34.671875 45.796875 27.984375 45.796875 
Q 21.921875 45.796875 17.796875 41.75 
Q 13.671875 37.703125 13.234375 30.90625 
z
" id="ArialMT-101"/>
        <path d="M 40.4375 6.390625 
Q 35.546875 2.25 31.03125 0.53125 
Q 26.515625 -1.171875 21.34375 -1.171875 
Q 12.796875 -1.171875 8.203125 3 
Q 3.609375 7.171875 3.609375 13.671875 
Q 3.609375 17.484375 5.34375 20.625 
Q 7.078125 23.78125 9.890625 25.6875 
Q 12.703125 27.59375 16.21875 28.5625 
Q 18.796875 29.25 24.03125 29.890625 
Q 34.671875 31.15625 39.703125 32.90625 
Q 39.75 34.71875 39.75 35.203125 
Q 39.75 40.578125 37.25 42.78125 
Q 33.890625 45.75 27.25 45.75 
Q 21.046875 45.75 18.09375 43.578125 
Q 15.140625 41.40625 13.71875 35.890625 
L 5.125 37.0625 
Q 6.296875 42.578125 8.984375 45.96875 
Q 11.671875 49.359375 16.75 51.1875 
Q 21.828125 53.03125 28.515625 53.03125 
Q 35.15625 53.03125 39.296875 51.46875 
Q 43.453125 49.90625 45.40625 47.53125 
Q 47.359375 45.171875 48.140625 41.546875 
Q 48.578125 39.3125 48.578125 33.453125 
L 48.578125 21.734375 
Q 48.578125 9.46875 49.140625 6.21875 
Q 49.703125 2.984375 51.375 0 
L 42.1875 0 
Q 40.828125 2.734375 40.4375 6.390625 
z
M 39.703125 26.03125 
Q 34.90625 24.078125 25.34375 22.703125 
Q 19.921875 21.921875 17.671875 20.9375 
Q 15.4375 19.96875 14.203125 18.09375 
Q 12.984375 16.21875 12.984375 13.921875 
Q 12.984375 10.40625 15.640625 8.0625 
Q 18.3125 5.71875 23.4375 5.71875 
Q 28.515625 5.71875 32.46875 7.9375 
Q 36.421875 10.15625 38.28125 14.015625 
Q 39.703125 17 39.703125 22.796875 
z
" id="ArialMT-97"/>
        <path d="M 6.390625 0 
L 6.390625 71.578125 
L 15.1875 71.578125 
L 15.1875 0 
z
" id="ArialMT-108"/>
        <path d="M 25.78125 7.859375 
L 27.046875 0.09375 
Q 23.34375 -0.6875 20.40625 -0.6875 
Q 15.625 -0.6875 12.984375 0.828125 
Q 10.359375 2.34375 9.28125 4.8125 
Q 8.203125 7.28125 8.203125 15.1875 
L 8.203125 45.015625 
L 1.765625 45.015625 
L 1.765625 51.859375 
L 8.203125 51.859375 
L 8.203125 64.703125 
L 16.9375 69.96875 
L 16.9375 51.859375 
L 25.78125 51.859375 
L 25.78125 45.015625 
L 16.9375 45.015625 
L 16.9375 14.703125 
Q 16.9375 10.9375 17.40625 9.859375 
Q 17.875 8.796875 18.921875 8.15625 
Q 19.96875 7.515625 21.921875 7.515625 
Q 23.390625 7.515625 25.78125 7.859375 
z
" id="ArialMT-116"/>
        <path d="M 6.59375 0 
L 6.59375 71.578125 
L 15.375 71.578125 
L 15.375 45.90625 
Q 21.53125 53.03125 30.90625 53.03125 
Q 36.671875 53.03125 40.921875 50.75 
Q 45.171875 48.484375 47 44.484375 
Q 48.828125 40.484375 48.828125 32.859375 
L 48.828125 0 
L 40.046875 0 
L 40.046875 32.859375 
Q 40.046875 39.453125 37.1875 42.453125 
Q 34.328125 45.453125 29.109375 45.453125 
Q 25.203125 45.453125 21.75 43.421875 
Q 18.3125 41.40625 16.84375 37.9375 
Q 15.375 34.46875 15.375 28.375 
L 15.375 0 
z
" id="ArialMT-104"/>
        <path d="M 6.203125 -19.96875 
L 5.21875 -11.71875 
Q 8.109375 -12.5 10.25 -12.5 
Q 13.1875 -12.5 14.9375 -11.515625 
Q 16.703125 -10.546875 17.828125 -8.796875 
Q 18.65625 -7.46875 20.515625 -2.25 
Q 20.75 -1.515625 21.296875 -0.09375 
L 1.609375 51.859375 
L 11.078125 51.859375 
L 21.875 21.828125 
Q 23.96875 16.109375 25.640625 9.8125 
Q 27.15625 15.875 29.25 21.625 
L 40.328125 51.859375 
L 49.125 51.859375 
L 29.390625 -0.875 
Q 26.21875 -9.421875 24.46875 -12.640625 
Q 22.125 -17 19.09375 -19.015625 
Q 16.0625 -21.046875 11.859375 -21.046875 
Q 9.328125 -21.046875 6.203125 -19.96875 
z
" id="ArialMT-121"/>
       </defs>
       <use xlink:href="#ArialMT-72"/>
       <use x="72.216797" xlink:href="#ArialMT-101"/>
       <use x="127.832031" xlink:href="#ArialMT-97"/>
       <use x="183.447266" xlink:href="#ArialMT-108"/>
       <use x="205.664062" xlink:href="#ArialMT-116"/>
       <use x="233.447266" xlink:href="#ArialMT-104"/>
       <use x="289.0625" xlink:href="#ArialMT-121"/>
      </g>
     </g>
    </g>
    <g id="xtick_2">
     <g id="text_2">
      <!-- Slight -->
      <g style="fill:#262626;" transform="translate(502.589017 1231.838438)scale(0.5 -0.5)">
       <defs>
        <path d="M 4.5 23 
L 13.421875 23.78125 
Q 14.0625 18.40625 16.375 14.96875 
Q 18.703125 11.53125 23.578125 9.40625 
Q 28.46875 7.28125 34.578125 7.28125 
Q 39.984375 7.28125 44.140625 8.890625 
Q 48.296875 10.5 50.3125 13.296875 
Q 52.34375 16.109375 52.34375 19.4375 
Q 52.34375 22.796875 50.390625 25.3125 
Q 48.4375 27.828125 43.953125 29.546875 
Q 41.0625 30.671875 31.203125 33.03125 
Q 21.34375 35.40625 17.390625 37.5 
Q 12.25 40.1875 9.734375 44.15625 
Q 7.234375 48.140625 7.234375 53.078125 
Q 7.234375 58.5 10.296875 63.203125 
Q 13.375 67.921875 19.28125 70.359375 
Q 25.203125 72.796875 32.421875 72.796875 
Q 40.375 72.796875 46.453125 70.234375 
Q 52.546875 67.671875 55.8125 62.6875 
Q 59.078125 57.71875 59.328125 51.421875 
L 50.25 50.734375 
Q 49.515625 57.515625 45.28125 60.984375 
Q 41.0625 64.453125 32.8125 64.453125 
Q 24.21875 64.453125 20.28125 61.296875 
Q 16.359375 58.15625 16.359375 53.71875 
Q 16.359375 49.859375 19.140625 47.359375 
Q 21.875 44.875 33.421875 42.265625 
Q 44.96875 39.65625 49.265625 37.703125 
Q 55.515625 34.8125 58.484375 30.390625 
Q 61.46875 25.984375 61.46875 20.21875 
Q 61.46875 14.5 58.203125 9.4375 
Q 54.9375 4.390625 48.796875 1.578125 
Q 42.671875 -1.21875 35.015625 -1.21875 
Q 25.296875 -1.21875 18.71875 1.609375 
Q 12.15625 4.4375 8.421875 10.125 
Q 4.6875 15.828125 4.5 23 
z
" id="ArialMT-83"/>
        <path d="M 6.640625 61.46875 
L 6.640625 71.578125 
L 15.4375 71.578125 
L 15.4375 61.46875 
z
M 6.640625 0 
L 6.640625 51.859375 
L 15.4375 51.859375 
L 15.4375 0 
z
" id="ArialMT-105"/>
        <path d="M 4.984375 -4.296875 
L 13.53125 -5.5625 
Q 14.0625 -9.515625 16.5 -11.328125 
Q 19.78125 -13.765625 25.4375 -13.765625 
Q 31.546875 -13.765625 34.859375 -11.328125 
Q 38.1875 -8.890625 39.359375 -4.5 
Q 40.046875 -1.8125 39.984375 6.78125 
Q 34.234375 0 25.640625 0 
Q 14.9375 0 9.078125 7.71875 
Q 3.21875 15.4375 3.21875 26.21875 
Q 3.21875 33.640625 5.90625 39.90625 
Q 8.59375 46.1875 13.6875 49.609375 
Q 18.796875 53.03125 25.6875 53.03125 
Q 34.859375 53.03125 40.828125 45.609375 
L 40.828125 51.859375 
L 48.921875 51.859375 
L 48.921875 7.03125 
Q 48.921875 -5.078125 46.453125 -10.125 
Q 44 -15.1875 38.640625 -18.109375 
Q 33.296875 -21.046875 25.484375 -21.046875 
Q 16.21875 -21.046875 10.5 -16.875 
Q 4.78125 -12.703125 4.984375 -4.296875 
z
M 12.25 26.859375 
Q 12.25 16.65625 16.296875 11.96875 
Q 20.359375 7.28125 26.46875 7.28125 
Q 32.515625 7.28125 36.609375 11.9375 
Q 40.71875 16.609375 40.71875 26.5625 
Q 40.71875 36.078125 36.5 40.90625 
Q 32.28125 45.75 26.3125 45.75 
Q 20.453125 45.75 16.34375 40.984375 
Q 12.25 36.234375 12.25 26.859375 
z
" id="ArialMT-103"/>
       </defs>
       <use xlink:href="#ArialMT-83"/>
       <use x="66.699219" xlink:href="#ArialMT-108"/>
       <use x="88.916016" xlink:href="#ArialMT-105"/>
       <use x="111.132812" xlink:href="#ArialMT-103"/>
       <use x="166.748047" xlink:href="#ArialMT-104"/>
       <use x="222.363281" xlink:href="#ArialMT-116"/>
      </g>
     </g>
    </g>
    <g id="xtick_3">
     <g id="text_3">
      <!-- Moderate -->
      <g style="fill:#262626;" transform="translate(726.712244 1231.229063)scale(0.5 -0.5)">
       <defs>
        <path d="M 7.421875 0 
L 7.421875 71.578125 
L 21.6875 71.578125 
L 38.625 20.90625 
Q 40.96875 13.8125 42.046875 10.296875 
Q 43.265625 14.203125 45.84375 21.78125 
L 62.984375 71.578125 
L 75.734375 71.578125 
L 75.734375 0 
L 66.609375 0 
L 66.609375 59.90625 
L 45.796875 0 
L 37.25 0 
L 16.546875 60.9375 
L 16.546875 0 
z
" id="ArialMT-77"/>
        <path d="M 3.328125 25.921875 
Q 3.328125 40.328125 11.328125 47.265625 
Q 18.015625 53.03125 27.640625 53.03125 
Q 38.328125 53.03125 45.109375 46.015625 
Q 51.90625 39.015625 51.90625 26.65625 
Q 51.90625 16.65625 48.90625 10.90625 
Q 45.90625 5.171875 40.15625 2 
Q 34.421875 -1.171875 27.640625 -1.171875 
Q 16.75 -1.171875 10.03125 5.8125 
Q 3.328125 12.796875 3.328125 25.921875 
z
M 12.359375 25.921875 
Q 12.359375 15.96875 16.703125 11.015625 
Q 21.046875 6.0625 27.640625 6.0625 
Q 34.1875 6.0625 38.53125 11.03125 
Q 42.875 16.015625 42.875 26.21875 
Q 42.875 35.84375 38.5 40.796875 
Q 34.125 45.75 27.640625 45.75 
Q 21.046875 45.75 16.703125 40.8125 
Q 12.359375 35.890625 12.359375 25.921875 
z
" id="ArialMT-111"/>
        <path d="M 40.234375 0 
L 40.234375 6.546875 
Q 35.296875 -1.171875 25.734375 -1.171875 
Q 19.53125 -1.171875 14.328125 2.25 
Q 9.125 5.671875 6.265625 11.796875 
Q 3.421875 17.921875 3.421875 25.875 
Q 3.421875 33.640625 6 39.96875 
Q 8.59375 46.296875 13.765625 49.65625 
Q 18.953125 53.03125 25.34375 53.03125 
Q 30.03125 53.03125 33.6875 51.046875 
Q 37.359375 49.078125 39.65625 45.90625 
L 39.65625 71.578125 
L 48.390625 71.578125 
L 48.390625 0 
z
M 12.453125 25.875 
Q 12.453125 15.921875 16.640625 10.984375 
Q 20.84375 6.0625 26.5625 6.0625 
Q 32.328125 6.0625 36.34375 10.765625 
Q 40.375 15.484375 40.375 25.140625 
Q 40.375 35.796875 36.265625 40.765625 
Q 32.171875 45.75 26.171875 45.75 
Q 20.3125 45.75 16.375 40.96875 
Q 12.453125 36.1875 12.453125 25.875 
z
" id="ArialMT-100"/>
        <path d="M 6.5 0 
L 6.5 51.859375 
L 14.40625 51.859375 
L 14.40625 44 
Q 17.4375 49.515625 20 51.265625 
Q 22.5625 53.03125 25.640625 53.03125 
Q 30.078125 53.03125 34.671875 50.203125 
L 31.640625 42.046875 
Q 28.421875 43.953125 25.203125 43.953125 
Q 22.3125 43.953125 20.015625 42.21875 
Q 17.71875 40.484375 16.75 37.40625 
Q 15.28125 32.71875 15.28125 27.15625 
L 15.28125 0 
z
" id="ArialMT-114"/>
       </defs>
       <use xlink:href="#ArialMT-77"/>
       <use x="83.300781" xlink:href="#ArialMT-111"/>
       <use x="138.916016" xlink:href="#ArialMT-100"/>
       <use x="194.53125" xlink:href="#ArialMT-101"/>
       <use x="250.146484" xlink:href="#ArialMT-114"/>
       <use x="283.447266" xlink:href="#ArialMT-97"/>
       <use x="339.0625" xlink:href="#ArialMT-116"/>
       <use x="366.845703" xlink:href="#ArialMT-101"/>
      </g>
     </g>
    </g>
    <g id="xtick_4">
     <g id="text_4">
      <!-- Severe -->
      <g style="fill:#262626;" transform="translate(1020.304221 1231.229063)scale(0.5 -0.5)">
       <defs>
        <path d="M 21 0 
L 1.265625 51.859375 
L 10.546875 51.859375 
L 21.6875 20.796875 
Q 23.484375 15.765625 25 10.359375 
Q 26.171875 14.453125 28.265625 20.21875 
L 39.796875 51.859375 
L 48.828125 51.859375 
L 29.203125 0 
z
" id="ArialMT-118"/>
       </defs>
       <use xlink:href="#ArialMT-83"/>
       <use x="66.699219" xlink:href="#ArialMT-101"/>
       <use x="122.314453" xlink:href="#ArialMT-118"/>
       <use x="172.314453" xlink:href="#ArialMT-101"/>
       <use x="227.929688" xlink:href="#ArialMT-114"/>
       <use x="261.230469" xlink:href="#ArialMT-101"/>
      </g>
     </g>
    </g>
   </g>
   <g id="matplotlib.axis_2">
    <g id="ytick_1">
     <g id="line2d_1">
      <path clip-path="url(#p68aa4d05be)" d="M 230.16 1104.117254 
L 1242 1104.117254 
" style="fill:none;stroke:#cccccc;stroke-linecap:round;stroke-width:2;"/>
     </g>
     <g id="text_5">
      <!-- 0 -->
      <g style="fill:#262626;" transform="translate(186.855313 1122.011785)scale(0.5 -0.5)">
       <defs>
        <path d="M 4.15625 35.296875 
Q 4.15625 48 6.765625 55.734375 
Q 9.375 63.484375 14.515625 67.671875 
Q 19.671875 71.875 27.484375 71.875 
Q 33.25 71.875 37.59375 69.546875 
Q 41.9375 67.234375 44.765625 62.859375 
Q 47.609375 58.5 49.21875 52.21875 
Q 50.828125 45.953125 50.828125 35.296875 
Q 50.828125 22.703125 48.234375 14.96875 
Q 45.65625 7.234375 40.5 3 
Q 35.359375 -1.21875 27.484375 -1.21875 
Q 17.140625 -1.21875 11.234375 6.203125 
Q 4.15625 15.140625 4.15625 35.296875 
z
M 13.1875 35.296875 
Q 13.1875 17.671875 17.3125 11.828125 
Q 21.4375 6 27.484375 6 
Q 33.546875 6 37.671875 11.859375 
Q 41.796875 17.71875 41.796875 35.296875 
Q 41.796875 52.984375 37.671875 58.78125 
Q 33.546875 64.59375 27.390625 64.59375 
Q 21.34375 64.59375 17.71875 59.46875 
Q 13.1875 52.9375 13.1875 35.296875 
z
" id="ArialMT-48"/>
       </defs>
       <use xlink:href="#ArialMT-48"/>
      </g>
     </g>
    </g>
    <g id="ytick_2">
     <g id="line2d_2">
      <path clip-path="url(#p68aa4d05be)" d="M 230.16 978.746927 
L 1242 978.746927 
" style="fill:none;stroke:#cccccc;stroke-linecap:round;stroke-width:2;"/>
     </g>
     <g id="text_6">
      <!-- 200 -->
      <g style="fill:#262626;" transform="translate(131.245938 996.641459)scale(0.5 -0.5)">
       <defs>
        <path d="M 50.34375 8.453125 
L 50.34375 0 
L 3.03125 0 
Q 2.9375 3.171875 4.046875 6.109375 
Q 5.859375 10.9375 9.828125 15.625 
Q 13.8125 20.3125 21.34375 26.46875 
Q 33.015625 36.03125 37.109375 41.625 
Q 41.21875 47.21875 41.21875 52.203125 
Q 41.21875 57.421875 37.46875 61 
Q 33.734375 64.59375 27.734375 64.59375 
Q 21.390625 64.59375 17.578125 60.78125 
Q 13.765625 56.984375 13.71875 50.25 
L 4.6875 51.171875 
Q 5.609375 61.28125 11.65625 66.578125 
Q 17.71875 71.875 27.9375 71.875 
Q 38.234375 71.875 44.234375 66.15625 
Q 50.25 60.453125 50.25 52 
Q 50.25 47.703125 48.484375 43.546875 
Q 46.734375 39.40625 42.65625 34.8125 
Q 38.578125 30.21875 29.109375 22.21875 
Q 21.1875 15.578125 18.9375 13.203125 
Q 16.703125 10.84375 15.234375 8.453125 
z
" id="ArialMT-50"/>
       </defs>
       <use xlink:href="#ArialMT-50"/>
       <use x="55.615234" xlink:href="#ArialMT-48"/>
       <use x="111.230469" xlink:href="#ArialMT-48"/>
      </g>
     </g>
    </g>
    <g id="ytick_3">
     <g id="line2d_3">
      <path clip-path="url(#p68aa4d05be)" d="M 230.16 853.376601 
L 1242 853.376601 
" style="fill:none;stroke:#cccccc;stroke-linecap:round;stroke-width:2;"/>
     </g>
     <g id="text_7">
      <!-- 400 -->
      <g style="fill:#262626;" transform="translate(131.245938 871.271132)scale(0.5 -0.5)">
       <defs>
        <path d="M 32.328125 0 
L 32.328125 17.140625 
L 1.265625 17.140625 
L 1.265625 25.203125 
L 33.9375 71.578125 
L 41.109375 71.578125 
L 41.109375 25.203125 
L 50.78125 25.203125 
L 50.78125 17.140625 
L 41.109375 17.140625 
L 41.109375 0 
z
M 32.328125 25.203125 
L 32.328125 57.46875 
L 9.90625 25.203125 
z
" id="ArialMT-52"/>
       </defs>
       <use xlink:href="#ArialMT-52"/>
       <use x="55.615234" xlink:href="#ArialMT-48"/>
       <use x="111.230469" xlink:href="#ArialMT-48"/>
      </g>
     </g>
    </g>
    <g id="ytick_4">
     <g id="line2d_4">
      <path clip-path="url(#p68aa4d05be)" d="M 230.16 728.006275 
L 1242 728.006275 
" style="fill:none;stroke:#cccccc;stroke-linecap:round;stroke-width:2;"/>
     </g>
     <g id="text_8">
      <!-- 600 -->
      <g style="fill:#262626;" transform="translate(131.245938 745.900806)scale(0.5 -0.5)">
       <defs>
        <path d="M 49.75 54.046875 
L 41.015625 53.375 
Q 39.84375 58.546875 37.703125 60.890625 
Q 34.125 64.65625 28.90625 64.65625 
Q 24.703125 64.65625 21.53125 62.3125 
Q 17.390625 59.28125 14.984375 53.46875 
Q 12.59375 47.65625 12.5 36.921875 
Q 15.671875 41.75 20.265625 44.09375 
Q 24.859375 46.4375 29.890625 46.4375 
Q 38.671875 46.4375 44.84375 39.96875 
Q 51.03125 33.5 51.03125 23.25 
Q 51.03125 16.5 48.125 10.71875 
Q 45.21875 4.9375 40.140625 1.859375 
Q 35.0625 -1.21875 28.609375 -1.21875 
Q 17.625 -1.21875 10.6875 6.859375 
Q 3.765625 14.9375 3.765625 33.5 
Q 3.765625 54.25 11.421875 63.671875 
Q 18.109375 71.875 29.4375 71.875 
Q 37.890625 71.875 43.28125 67.140625 
Q 48.6875 62.40625 49.75 54.046875 
z
M 13.875 23.1875 
Q 13.875 18.65625 15.796875 14.5 
Q 17.71875 10.359375 21.1875 8.171875 
Q 24.65625 6 28.46875 6 
Q 34.03125 6 38.03125 10.484375 
Q 42.046875 14.984375 42.046875 22.703125 
Q 42.046875 30.125 38.078125 34.390625 
Q 34.125 38.671875 28.125 38.671875 
Q 22.171875 38.671875 18.015625 34.390625 
Q 13.875 30.125 13.875 23.1875 
z
" id="ArialMT-54"/>
       </defs>
       <use xlink:href="#ArialMT-54"/>
       <use x="55.615234" xlink:href="#ArialMT-48"/>
       <use x="111.230469" xlink:href="#ArialMT-48"/>
      </g>
     </g>
    </g>
    <g id="ytick_5">
     <g id="line2d_5">
      <path clip-path="url(#p68aa4d05be)" d="M 230.16 602.635948 
L 1242 602.635948 
" style="fill:none;stroke:#cccccc;stroke-linecap:round;stroke-width:2;"/>
     </g>
     <g id="text_9">
      <!-- 800 -->
      <g style="fill:#262626;" transform="translate(131.245938 620.530479)scale(0.5 -0.5)">
       <defs>
        <path d="M 17.671875 38.8125 
Q 12.203125 40.828125 9.5625 44.53125 
Q 6.9375 48.25 6.9375 53.421875 
Q 6.9375 61.234375 12.546875 66.546875 
Q 18.171875 71.875 27.484375 71.875 
Q 36.859375 71.875 42.578125 66.421875 
Q 48.296875 60.984375 48.296875 53.171875 
Q 48.296875 48.1875 45.671875 44.5 
Q 43.0625 40.828125 37.75 38.8125 
Q 44.34375 36.671875 47.78125 31.875 
Q 51.21875 27.09375 51.21875 20.453125 
Q 51.21875 11.28125 44.71875 5.03125 
Q 38.234375 -1.21875 27.640625 -1.21875 
Q 17.046875 -1.21875 10.546875 5.046875 
Q 4.046875 11.328125 4.046875 20.703125 
Q 4.046875 27.6875 7.59375 32.390625 
Q 11.140625 37.109375 17.671875 38.8125 
z
M 15.921875 53.71875 
Q 15.921875 48.640625 19.1875 45.40625 
Q 22.46875 42.1875 27.6875 42.1875 
Q 32.765625 42.1875 36.015625 45.375 
Q 39.265625 48.578125 39.265625 53.21875 
Q 39.265625 58.0625 35.90625 61.359375 
Q 32.5625 64.65625 27.59375 64.65625 
Q 22.5625 64.65625 19.234375 61.421875 
Q 15.921875 58.203125 15.921875 53.71875 
z
M 13.09375 20.65625 
Q 13.09375 16.890625 14.875 13.375 
Q 16.65625 9.859375 20.171875 7.921875 
Q 23.6875 6 27.734375 6 
Q 34.03125 6 38.125 10.046875 
Q 42.234375 14.109375 42.234375 20.359375 
Q 42.234375 26.703125 38.015625 30.859375 
Q 33.796875 35.015625 27.4375 35.015625 
Q 21.234375 35.015625 17.15625 30.90625 
Q 13.09375 26.8125 13.09375 20.65625 
z
" id="ArialMT-56"/>
       </defs>
       <use xlink:href="#ArialMT-56"/>
       <use x="55.615234" xlink:href="#ArialMT-48"/>
       <use x="111.230469" xlink:href="#ArialMT-48"/>
      </g>
     </g>
    </g>
    <g id="ytick_6">
     <g id="line2d_6">
      <path clip-path="url(#p68aa4d05be)" d="M 230.16 477.265622 
L 1242 477.265622 
" style="fill:none;stroke:#cccccc;stroke-linecap:round;stroke-width:2;"/>
     </g>
     <g id="text_10">
      <!-- 1000 -->
      <g style="fill:#262626;" transform="translate(103.44125 495.160153)scale(0.5 -0.5)">
       <defs>
        <path d="M 37.25 0 
L 28.46875 0 
L 28.46875 56 
Q 25.296875 52.984375 20.140625 49.953125 
Q 14.984375 46.921875 10.890625 45.40625 
L 10.890625 53.90625 
Q 18.265625 57.375 23.78125 62.296875 
Q 29.296875 67.234375 31.59375 71.875 
L 37.25 71.875 
z
" id="ArialMT-49"/>
       </defs>
       <use xlink:href="#ArialMT-49"/>
       <use x="55.615234" xlink:href="#ArialMT-48"/>
       <use x="111.230469" xlink:href="#ArialMT-48"/>
       <use x="166.845703" xlink:href="#ArialMT-48"/>
      </g>
     </g>
    </g>
    <g id="ytick_7">
     <g id="line2d_7">
      <path clip-path="url(#p68aa4d05be)" d="M 230.16 351.895295 
L 1242 351.895295 
" style="fill:none;stroke:#cccccc;stroke-linecap:round;stroke-width:2;"/>
     </g>
     <g id="text_11">
      <!-- 1200 -->
      <g style="fill:#262626;" transform="translate(103.44125 369.789827)scale(0.5 -0.5)">
       <use xlink:href="#ArialMT-49"/>
       <use x="55.615234" xlink:href="#ArialMT-50"/>
       <use x="111.230469" xlink:href="#ArialMT-48"/>
       <use x="166.845703" xlink:href="#ArialMT-48"/>
      </g>
     </g>
    </g>
    <g id="ytick_8">
     <g id="line2d_8">
      <path clip-path="url(#p68aa4d05be)" d="M 230.16 226.524969 
L 1242 226.524969 
" style="fill:none;stroke:#cccccc;stroke-linecap:round;stroke-width:2;"/>
     </g>
     <g id="text_12">
      <!-- 1400 -->
      <g style="fill:#262626;" transform="translate(103.44125 244.4195)scale(0.5 -0.5)">
       <use xlink:href="#ArialMT-49"/>
       <use x="55.615234" xlink:href="#ArialMT-52"/>
       <use x="111.230469" xlink:href="#ArialMT-48"/>
       <use x="166.845703" xlink:href="#ArialMT-48"/>
      </g>
     </g>
    </g>
    <g id="ytick_9">
     <g id="line2d_9">
      <path clip-path="url(#p68aa4d05be)" d="M 230.16 101.154643 
L 1242 101.154643 
" style="fill:none;stroke:#cccccc;stroke-linecap:round;stroke-width:2;"/>
     </g>
     <g id="text_13">
      <!-- 1600 -->
      <g style="fill:#262626;" transform="translate(103.44125 119.049174)scale(0.5 -0.5)">
       <use xlink:href="#ArialMT-49"/>
       <use x="55.615234" xlink:href="#ArialMT-54"/>
       <use x="111.230469" xlink:href="#ArialMT-48"/>
       <use x="166.845703" xlink:href="#ArialMT-48"/>
      </g>
     </g>
    </g>
    <g id="text_14">
     <!-- Abundance -->
     <g style="fill:#262626;" transform="translate(89.50375 764.522187)rotate(-90)scale(0.5 -0.5)">
      <defs>
       <path d="M -0.140625 0 
L 27.34375 71.578125 
L 37.546875 71.578125 
L 66.84375 0 
L 56.0625 0 
L 47.703125 21.6875 
L 17.78125 21.6875 
L 9.90625 0 
z
M 20.515625 29.390625 
L 44.78125 29.390625 
L 37.3125 49.21875 
Q 33.890625 58.25 32.234375 64.0625 
Q 30.859375 57.171875 28.375 50.390625 
z
" id="ArialMT-65"/>
       <path d="M 14.703125 0 
L 6.546875 0 
L 6.546875 71.578125 
L 15.328125 71.578125 
L 15.328125 46.046875 
Q 20.90625 53.03125 29.546875 53.03125 
Q 34.328125 53.03125 38.59375 51.09375 
Q 42.875 49.171875 45.625 45.671875 
Q 48.390625 42.1875 49.953125 37.25 
Q 51.515625 32.328125 51.515625 26.703125 
Q 51.515625 13.375 44.921875 6.09375 
Q 38.328125 -1.171875 29.109375 -1.171875 
Q 19.921875 -1.171875 14.703125 6.5 
z
M 14.59375 26.3125 
Q 14.59375 17 17.140625 12.84375 
Q 21.296875 6.0625 28.375 6.0625 
Q 34.125 6.0625 38.328125 11.0625 
Q 42.53125 16.0625 42.53125 25.984375 
Q 42.53125 36.140625 38.5 40.96875 
Q 34.46875 45.796875 28.765625 45.796875 
Q 23 45.796875 18.796875 40.796875 
Q 14.59375 35.796875 14.59375 26.3125 
z
" id="ArialMT-98"/>
       <path d="M 40.578125 0 
L 40.578125 7.625 
Q 34.515625 -1.171875 24.125 -1.171875 
Q 19.53125 -1.171875 15.546875 0.578125 
Q 11.578125 2.34375 9.640625 5 
Q 7.71875 7.671875 6.9375 11.53125 
Q 6.390625 14.109375 6.390625 19.734375 
L 6.390625 51.859375 
L 15.1875 51.859375 
L 15.1875 23.09375 
Q 15.1875 16.21875 15.71875 13.8125 
Q 16.546875 10.359375 19.234375 8.375 
Q 21.921875 6.390625 25.875 6.390625 
Q 29.828125 6.390625 33.296875 8.421875 
Q 36.765625 10.453125 38.203125 13.9375 
Q 39.65625 17.4375 39.65625 24.078125 
L 39.65625 51.859375 
L 48.4375 51.859375 
L 48.4375 0 
z
" id="ArialMT-117"/>
       <path d="M 6.59375 0 
L 6.59375 51.859375 
L 14.5 51.859375 
L 14.5 44.484375 
Q 20.21875 53.03125 31 53.03125 
Q 35.6875 53.03125 39.625 51.34375 
Q 43.5625 49.65625 45.515625 46.921875 
Q 47.46875 44.1875 48.25 40.4375 
Q 48.734375 37.984375 48.734375 31.890625 
L 48.734375 0 
L 39.9375 0 
L 39.9375 31.546875 
Q 39.9375 36.921875 38.90625 39.578125 
Q 37.890625 42.234375 35.28125 43.8125 
Q 32.671875 45.40625 29.15625 45.40625 
Q 23.53125 45.40625 19.453125 41.84375 
Q 15.375 38.28125 15.375 28.328125 
L 15.375 0 
z
" id="ArialMT-110"/>
       <path d="M 40.4375 19 
L 49.078125 17.875 
Q 47.65625 8.9375 41.8125 3.875 
Q 35.984375 -1.171875 27.484375 -1.171875 
Q 16.84375 -1.171875 10.375 5.78125 
Q 3.90625 12.75 3.90625 25.734375 
Q 3.90625 34.125 6.6875 40.421875 
Q 9.46875 46.734375 15.15625 49.875 
Q 20.84375 53.03125 27.546875 53.03125 
Q 35.984375 53.03125 41.359375 48.75 
Q 46.734375 44.484375 48.25 36.625 
L 39.703125 35.296875 
Q 38.484375 40.53125 35.375 43.15625 
Q 32.28125 45.796875 27.875 45.796875 
Q 21.234375 45.796875 17.078125 41.03125 
Q 12.9375 36.28125 12.9375 25.984375 
Q 12.9375 15.53125 16.9375 10.796875 
Q 20.953125 6.0625 27.390625 6.0625 
Q 32.5625 6.0625 36.03125 9.234375 
Q 39.5 12.40625 40.4375 19 
z
" id="ArialMT-99"/>
      </defs>
      <use xlink:href="#ArialMT-65"/>
      <use x="66.699219" xlink:href="#ArialMT-98"/>
      <use x="122.314453" xlink:href="#ArialMT-117"/>
      <use x="177.929688" xlink:href="#ArialMT-110"/>
      <use x="233.544922" xlink:href="#ArialMT-100"/>
      <use x="289.160156" xlink:href="#ArialMT-97"/>
      <use x="344.775391" xlink:href="#ArialMT-110"/>
      <use x="400.390625" xlink:href="#ArialMT-99"/>
      <use x="450.390625" xlink:href="#ArialMT-101"/>
     </g>
    </g>
   </g>
   <g id="PolyCollection_1">
    <defs>
     <path d="M 299.580355 -147.029778 
L 296.280913 -147.029778 
L 295.883461 -153.286299 
L 295.418356 -159.54282 
L 294.880387 -165.799341 
L 294.265245 -172.055862 
L 293.569872 -178.312383 
L 292.792867 -184.568903 
L 291.934925 -190.825424 
L 290.99929 -197.081945 
L 289.992175 -203.338466 
L 288.923095 -209.594987 
L 287.805052 -215.851508 
L 286.654505 -222.108029 
L 285.491049 -228.364549 
L 284.336792 -234.62107 
L 283.215393 -240.877591 
L 282.150819 -247.134112 
L 281.165886 -253.390633 
L 280.280723 -259.647154 
L 279.511297 -265.903675 
L 278.86819 -272.160195 
L 278.355772 -278.416716 
L 277.9719 -284.673237 
L 277.708199 -290.929758 
L 277.550923 -297.186279 
L 277.482296 -303.4428 
L 277.48217 -309.699321 
L 277.529806 -315.955841 
L 277.605539 -322.212362 
L 277.692139 -328.468883 
L 277.775709 -334.725404 
L 277.846055 -340.981925 
L 277.896532 -347.238446 
L 277.923477 -353.494967 
L 277.925376 -359.751487 
L 277.901955 -366.008008 
L 277.853394 -372.264529 
L 277.779811 -378.52105 
L 277.681118 -384.777571 
L 277.557257 -391.034092 
L 277.408777 -397.290613 
L 277.237626 -403.547133 
L 277.047993 -409.803654 
L 276.847042 -416.060175 
L 276.645357 -422.316696 
L 276.456998 -428.573217 
L 276.299083 -434.829738 
L 276.190919 -441.086259 
L 276.152727 -447.342779 
L 276.204114 -453.5993 
L 276.362425 -459.855821 
L 276.641181 -466.112342 
L 277.048776 -472.368863 
L 277.587566 -478.625384 
L 278.253485 -484.881905 
L 279.036208 -491.138425 
L 279.919862 -497.394946 
L 280.884208 -503.651467 
L 281.906159 -509.907988 
L 282.961484 -516.164509 
L 284.026506 -522.42103 
L 285.079637 -528.677551 
L 286.102586 -534.934071 
L 287.081149 -541.190592 
L 288.005523 -547.447113 
L 288.870156 -553.703634 
L 289.673193 -559.960155 
L 290.415635 -566.216676 
L 291.100335 -572.473197 
L 291.730994 -578.729717 
L 292.311265 -584.986238 
L 292.844106 -591.242759 
L 293.331401 -597.49928 
L 293.77391 -603.755801 
L 294.171473 -610.012322 
L 294.523442 -616.268843 
L 294.829216 -622.525364 
L 295.088794 -628.781884 
L 295.303258 -635.038405 
L 295.475092 -641.294926 
L 295.608307 -647.551447 
L 295.708364 -653.807968 
L 295.78189 -660.064489 
L 295.836263 -666.32101 
L 295.879097 -672.57753 
L 295.917712 -678.834051 
L 295.958649 -685.090572 
L 296.007273 -691.347093 
L 296.067502 -697.603614 
L 296.141687 -703.860135 
L 296.230624 -710.116656 
L 296.333691 -716.373176 
L 296.449077 -722.629697 
L 296.574075 -728.886218 
L 296.705401 -735.142739 
L 296.839509 -741.39926 
L 296.972877 -747.655781 
L 297.102254 -753.912302 
L 297.224837 -760.168822 
L 297.338397 -766.425343 
L 298.522871 -766.425343 
L 298.522871 -766.425343 
L 298.636431 -760.168822 
L 298.759013 -753.912302 
L 298.88839 -747.655781 
L 299.021759 -741.39926 
L 299.155867 -735.142739 
L 299.287193 -728.886218 
L 299.412191 -722.629697 
L 299.527577 -716.373176 
L 299.630643 -710.116656 
L 299.719581 -703.860135 
L 299.793766 -697.603614 
L 299.853995 -691.347093 
L 299.902618 -685.090572 
L 299.943556 -678.834051 
L 299.982171 -672.57753 
L 300.025005 -666.32101 
L 300.079377 -660.064489 
L 300.152904 -653.807968 
L 300.25296 -647.551447 
L 300.386176 -641.294926 
L 300.558009 -635.038405 
L 300.772474 -628.781884 
L 301.032052 -622.525364 
L 301.337825 -616.268843 
L 301.689794 -610.012322 
L 302.087358 -603.755801 
L 302.529866 -597.49928 
L 303.017162 -591.242759 
L 303.550002 -584.986238 
L 304.130274 -578.729717 
L 304.760932 -572.473197 
L 305.445633 -566.216676 
L 306.188075 -559.960155 
L 306.991112 -553.703634 
L 307.855744 -547.447113 
L 308.780118 -541.190592 
L 309.758681 -534.934071 
L 310.78163 -528.677551 
L 311.834761 -522.42103 
L 312.899784 -516.164509 
L 313.955108 -509.907988 
L 314.97706 -503.651467 
L 315.941406 -497.394946 
L 316.82506 -491.138425 
L 317.607782 -484.881905 
L 318.273701 -478.625384 
L 318.812492 -472.368863 
L 319.220086 -466.112342 
L 319.498843 -459.855821 
L 319.657153 -453.5993 
L 319.70854 -447.342779 
L 319.670349 -441.086259 
L 319.562184 -434.829738 
L 319.40427 -428.573217 
L 319.21591 -422.316696 
L 319.014226 -416.060175 
L 318.813274 -409.803654 
L 318.623642 -403.547133 
L 318.45249 -397.290613 
L 318.304011 -391.034092 
L 318.18015 -384.777571 
L 318.081456 -378.52105 
L 318.007874 -372.264529 
L 317.959312 -366.008008 
L 317.935891 -359.751487 
L 317.93779 -353.494967 
L 317.964736 -347.238446 
L 318.015213 -340.981925 
L 318.085558 -334.725404 
L 318.169129 -328.468883 
L 318.255729 -322.212362 
L 318.331462 -315.955841 
L 318.379098 -309.699321 
L 318.378972 -303.4428 
L 318.310344 -297.186279 
L 318.153069 -290.929758 
L 317.889368 -284.673237 
L 317.505495 -278.416716 
L 316.993078 -272.160195 
L 316.349971 -265.903675 
L 315.580545 -259.647154 
L 314.695382 -253.390633 
L 313.710449 -247.134112 
L 312.645875 -240.877591 
L 311.524476 -234.62107 
L 310.370219 -228.364549 
L 309.206763 -222.108029 
L 308.056215 -215.851508 
L 306.938173 -209.594987 
L 305.869092 -203.338466 
L 304.861977 -197.081945 
L 303.926343 -190.825424 
L 303.068401 -184.568903 
L 302.291395 -178.312383 
L 301.596022 -172.055862 
L 300.98088 -165.799341 
L 300.442912 -159.54282 
L 299.977806 -153.286299 
L 299.580355 -147.029778 
z
" id="m304a28c51d" style="stroke:#3d3d3d;stroke-width:5;"/>
    </defs>
    <g clip-path="url(#p68aa4d05be)">
     <use style="fill:#3a923a;stroke:#3d3d3d;stroke-width:5;" x="0" xlink:href="#m304a28c51d" y="1296"/>
    </g>
   </g>
   <g id="PolyCollection_2">
    <defs>
     <path d="M 577.869939 -150.976959 
L 552.378408 -150.976959 
L 550.915622 -155.057901 
L 549.425267 -159.138844 
L 547.93054 -163.219786 
L 546.456378 -167.300729 
L 545.028603 -171.381671 
L 543.672956 -175.462614 
L 542.414069 -179.543557 
L 541.274431 -183.624499 
L 540.273408 -187.705442 
L 539.42636 -191.786384 
L 538.743929 -195.867327 
L 538.231527 -199.948269 
L 537.889054 -204.029212 
L 537.710883 -208.110155 
L 537.686095 -212.191097 
L 537.798966 -216.27204 
L 538.029678 -220.352982 
L 538.355213 -224.433925 
L 538.750393 -228.514867 
L 539.188994 -232.59581 
L 539.644898 -236.676753 
L 540.093211 -240.757695 
L 540.51129 -244.838638 
L 540.879651 -248.91958 
L 541.182681 -253.000523 
L 541.409158 -257.081465 
L 541.552536 -261.162408 
L 541.610993 -265.24335 
L 541.587249 -269.324293 
L 541.488167 -273.405236 
L 541.324171 -277.486178 
L 541.108505 -281.567121 
L 540.856397 -285.648063 
L 540.584167 -289.729006 
L 540.308336 -293.809948 
L 540.04479 -297.890891 
L 539.808041 -301.971834 
L 539.610631 -306.052776 
L 539.462704 -310.133719 
L 539.371764 -314.214661 
L 539.342623 -318.295604 
L 539.377525 -322.376546 
L 539.476422 -326.457489 
L 539.637373 -330.538432 
L 539.857024 -334.619374 
L 540.131115 -338.700317 
L 540.454982 -342.781259 
L 540.824004 -346.862202 
L 541.233966 -350.943144 
L 541.681313 -355.024087 
L 542.163279 -359.10503 
L 542.677898 -363.185972 
L 543.223901 -367.266915 
L 543.800521 -371.347857 
L 544.407234 -375.4288 
L 545.04347 -379.509742 
L 545.708319 -383.590685 
L 546.40027 -387.671627 
L 547.117002 -391.75257 
L 547.855253 -395.833513 
L 548.610775 -399.914455 
L 549.378371 -403.995398 
L 550.152028 -408.07634 
L 550.925109 -412.157283 
L 551.690613 -416.238225 
L 552.441462 -420.319168 
L 553.170808 -424.400111 
L 553.872324 -428.481053 
L 554.540478 -432.561996 
L 555.170755 -436.642938 
L 555.759824 -440.723881 
L 556.305647 -444.804823 
L 556.807511 -448.885766 
L 557.266 -452.966709 
L 557.682903 -457.047651 
L 558.061071 -461.128594 
L 558.404231 -465.209536 
L 558.716766 -469.290479 
L 559.003482 -473.371421 
L 559.269372 -477.452364 
L 559.519385 -481.533306 
L 559.758214 -485.614249 
L 559.990114 -489.695192 
L 560.218759 -493.776134 
L 560.447126 -497.857077 
L 560.677439 -501.938019 
L 560.911135 -506.018962 
L 561.148888 -510.099904 
L 561.390651 -514.180847 
L 561.635741 -518.26179 
L 561.882938 -522.342732 
L 562.1306 -526.423675 
L 562.376795 -530.504617 
L 562.619421 -534.58556 
L 562.856327 -538.666502 
L 563.085429 -542.747445 
L 563.304796 -546.828388 
L 563.512737 -550.90933 
L 563.707849 -554.990273 
L 566.540498 -554.990273 
L 566.540498 -554.990273 
L 566.73561 -550.90933 
L 566.94355 -546.828388 
L 567.162918 -542.747445 
L 567.392019 -538.666502 
L 567.628926 -534.58556 
L 567.871551 -530.504617 
L 568.117746 -526.423675 
L 568.365409 -522.342732 
L 568.612605 -518.26179 
L 568.857695 -514.180847 
L 569.099459 -510.099904 
L 569.337211 -506.018962 
L 569.570908 -501.938019 
L 569.80122 -497.857077 
L 570.029588 -493.776134 
L 570.258232 -489.695192 
L 570.490133 -485.614249 
L 570.728962 -481.533306 
L 570.978974 -477.452364 
L 571.244864 -473.371421 
L 571.531581 -469.290479 
L 571.844115 -465.209536 
L 572.187275 -461.128594 
L 572.565444 -457.047651 
L 572.982347 -452.966709 
L 573.440835 -448.885766 
L 573.942699 -444.804823 
L 574.488522 -440.723881 
L 575.077592 -436.642938 
L 575.707868 -432.561996 
L 576.376022 -428.481053 
L 577.077539 -424.400111 
L 577.806884 -420.319168 
L 578.557734 -416.238225 
L 579.323238 -412.157283 
L 580.096319 -408.07634 
L 580.869975 -403.995398 
L 581.637571 -399.914455 
L 582.393093 -395.833513 
L 583.131345 -391.75257 
L 583.848077 -387.671627 
L 584.540027 -383.590685 
L 585.204877 -379.509742 
L 585.841113 -375.4288 
L 586.447826 -371.347857 
L 587.024445 -367.266915 
L 587.570448 -363.185972 
L 588.085067 -359.10503 
L 588.567034 -355.024087 
L 589.014381 -350.943144 
L 589.424343 -346.862202 
L 589.793365 -342.781259 
L 590.117231 -338.700317 
L 590.391322 -334.619374 
L 590.610973 -330.538432 
L 590.771925 -326.457489 
L 590.870821 -322.376546 
L 590.905723 -318.295604 
L 590.876583 -314.214661 
L 590.785643 -310.133719 
L 590.637715 -306.052776 
L 590.440305 -301.971834 
L 590.203556 -297.890891 
L 589.94001 -293.809948 
L 589.66418 -289.729006 
L 589.39195 -285.648063 
L 589.139841 -281.567121 
L 588.924175 -277.486178 
L 588.760179 -273.405236 
L 588.661098 -269.324293 
L 588.637354 -265.24335 
L 588.69581 -261.162408 
L 588.839188 -257.081465 
L 589.065665 -253.000523 
L 589.368695 -248.91958 
L 589.737056 -244.838638 
L 590.155136 -240.757695 
L 590.603448 -236.676753 
L 591.059352 -232.59581 
L 591.497953 -228.514867 
L 591.893133 -224.433925 
L 592.218669 -220.352982 
L 592.44938 -216.27204 
L 592.562251 -212.191097 
L 592.537463 -208.110155 
L 592.359292 -204.029212 
L 592.01682 -199.948269 
L 591.504417 -195.867327 
L 590.821987 -191.786384 
L 589.974939 -187.705442 
L 588.973915 -183.624499 
L 587.834278 -179.543557 
L 586.575391 -175.462614 
L 585.219743 -171.381671 
L 583.791968 -167.300729 
L 582.317806 -163.219786 
L 580.823079 -159.138844 
L 579.332725 -155.057901 
L 577.869939 -150.976959 
z
" id="me9f560014c" style="stroke:#3d3d3d;stroke-width:5;"/>
    </defs>
    <g clip-path="url(#p68aa4d05be)">
     <use style="fill:#2eabb8;stroke:#3d3d3d;stroke-width:5;" x="0" xlink:href="#me9f560014c" y="1296"/>
    </g>
   </g>
   <g id="PolyCollection_3">
    <defs>
     <path d="M 895.053701 -175.504334 
L 769.581724 -175.504334 
L 762.642509 -177.297865 
L 755.8371 -179.091396 
L 749.339979 -180.884927 
L 743.327918 -182.678457 
L 737.971197 -184.471988 
L 733.424559 -186.265519 
L 729.818571 -188.05905 
L 727.252029 -189.852581 
L 725.786048 -191.646112 
L 725.440297 -193.439642 
L 726.191726 -195.233173 
L 727.975891 -197.026704 
L 730.690783 -198.820235 
L 734.202855 -200.613766 
L 738.35478 -202.407296 
L 742.974307 -204.200827 
L 747.883579 -205.994358 
L 752.908208 -207.787889 
L 757.885528 -209.58142 
L 762.671509 -211.374951 
L 767.145995 -213.168481 
L 771.216073 -214.962012 
L 774.817568 -216.755543 
L 777.91477 -218.549074 
L 780.498654 -220.342605 
L 782.583901 -222.136135 
L 784.205076 -223.929666 
L 785.412329 -225.723197 
L 786.266943 -227.516728 
L 786.837001 -229.310259 
L 787.1934 -231.10379 
L 787.406339 -232.89732 
L 787.542391 -234.690851 
L 787.662166 -236.484382 
L 787.818577 -238.277913 
L 788.055668 -240.071444 
L 788.407938 -241.864975 
L 788.900129 -243.658505 
L 789.547391 -245.452036 
L 790.355779 -247.245567 
L 791.323016 -249.039098 
L 792.439487 -250.832629 
L 793.68939 -252.626159 
L 795.05201 -254.41969 
L 796.503064 -256.213221 
L 798.016071 -258.006752 
L 799.563693 -259.800283 
L 801.119015 -261.593814 
L 802.656713 -263.387344 
L 804.154075 -265.180875 
L 805.591856 -266.974406 
L 806.954917 -268.767937 
L 808.232655 -270.561468 
L 809.419189 -272.354998 
L 810.513323 -274.148529 
L 811.518263 -275.94206 
L 812.441126 -277.735591 
L 813.292259 -279.529122 
L 814.084396 -281.322653 
L 814.831717 -283.116183 
L 815.548841 -284.909714 
L 816.249837 -286.703245 
L 816.947289 -288.496776 
L 817.651499 -290.290307 
L 818.36985 -292.083837 
L 819.106402 -293.877368 
L 819.861713 -295.670899 
L 820.632911 -297.46443 
L 821.414001 -299.257961 
L 822.196374 -301.051492 
L 822.969486 -302.845022 
L 823.721634 -304.638553 
L 824.440798 -306.432084 
L 825.11546 -308.225615 
L 825.735373 -310.019146 
L 826.292204 -311.812676 
L 826.780035 -313.606207 
L 827.195697 -315.399738 
L 827.538906 -317.193269 
L 827.812226 -318.9868 
L 828.020862 -320.780331 
L 828.1723 -322.573861 
L 828.275837 -324.367392 
L 828.342023 -326.160923 
L 828.382067 -327.954454 
L 828.407227 -329.747985 
L 828.428237 -331.541515 
L 828.454798 -333.335046 
L 828.495152 -335.128577 
L 828.555775 -336.922108 
L 828.641184 -338.715639 
L 828.753876 -340.50917 
L 828.894383 -342.3027 
L 829.061439 -344.096231 
L 829.252238 -345.889762 
L 829.462751 -347.683293 
L 829.688088 -349.476824 
L 829.922869 -351.270354 
L 830.161585 -353.063885 
L 834.47384 -353.063885 
L 834.47384 -353.063885 
L 834.712556 -351.270354 
L 834.947338 -349.476824 
L 835.172675 -347.683293 
L 835.383187 -345.889762 
L 835.573986 -344.096231 
L 835.741043 -342.3027 
L 835.881549 -340.50917 
L 835.994241 -338.715639 
L 836.07965 -336.922108 
L 836.140273 -335.128577 
L 836.180628 -333.335046 
L 836.207188 -331.541515 
L 836.228199 -329.747985 
L 836.253358 -327.954454 
L 836.293402 -326.160923 
L 836.359589 -324.367392 
L 836.463125 -322.573861 
L 836.614563 -320.780331 
L 836.823199 -318.9868 
L 837.096519 -317.193269 
L 837.439728 -315.399738 
L 837.85539 -313.606207 
L 838.343222 -311.812676 
L 838.900052 -310.019146 
L 839.519965 -308.225615 
L 840.194628 -306.432084 
L 840.913792 -304.638553 
L 841.66594 -302.845022 
L 842.439051 -301.051492 
L 843.221425 -299.257961 
L 844.002514 -297.46443 
L 844.773712 -295.670899 
L 845.529023 -293.877368 
L 846.265575 -292.083837 
L 846.983927 -290.290307 
L 847.688136 -288.496776 
L 848.385589 -286.703245 
L 849.086584 -284.909714 
L 849.803709 -283.116183 
L 850.551029 -281.322653 
L 851.343167 -279.529122 
L 852.194299 -277.735591 
L 853.117163 -275.94206 
L 854.122102 -274.148529 
L 855.216236 -272.354998 
L 856.402771 -270.561468 
L 857.680508 -268.767937 
L 859.043569 -266.974406 
L 860.48135 -265.180875 
L 861.978713 -263.387344 
L 863.51641 -261.593814 
L 865.071732 -259.800283 
L 866.619355 -258.006752 
L 868.132361 -256.213221 
L 869.583415 -254.41969 
L 870.946035 -252.626159 
L 872.195938 -250.832629 
L 873.312409 -249.039098 
L 874.279647 -247.245567 
L 875.088034 -245.452036 
L 875.735297 -243.658505 
L 876.227488 -241.864975 
L 876.579758 -240.071444 
L 876.816848 -238.277913 
L 876.97326 -236.484382 
L 877.093035 -234.690851 
L 877.229087 -232.89732 
L 877.442026 -231.10379 
L 877.798424 -229.310259 
L 878.368483 -227.516728 
L 879.223096 -225.723197 
L 880.43035 -223.929666 
L 882.051525 -222.136135 
L 884.136771 -220.342605 
L 886.720656 -218.549074 
L 889.817857 -216.755543 
L 893.419352 -214.962012 
L 897.489431 -213.168481 
L 901.963916 -211.374951 
L 906.749898 -209.58142 
L 911.727218 -207.787889 
L 916.751846 -205.994358 
L 921.661118 -204.200827 
L 926.280646 -202.407296 
L 930.43257 -200.613766 
L 933.944643 -198.820235 
L 936.659534 -197.026704 
L 938.443699 -195.233173 
L 939.195128 -193.439642 
L 938.849378 -191.646112 
L 937.383397 -189.852581 
L 934.816855 -188.05905 
L 931.210866 -186.265519 
L 926.664229 -184.471988 
L 921.307507 -182.678457 
L 915.295447 -180.884927 
L 908.798326 -179.091396 
L 901.992916 -177.297865 
L 895.053701 -175.504334 
z
" id="mba42ceb6a5" style="stroke:#3d3d3d;stroke-width:5;"/>
    </defs>
    <g clip-path="url(#p68aa4d05be)">
     <use style="fill:#a9aa35;stroke:#3d3d3d;stroke-width:5;" x="0" xlink:href="#mba42ceb6a5" y="1296"/>
    </g>
   </g>
   <g id="PolyCollection_4">
    <defs>
     <path d="M 1147.301696 -175.498327 
L 1051.720808 -175.498327 
L 1045.854053 -177.323638 
L 1039.936864 -179.14895 
L 1034.091567 -180.974261 
L 1028.445986 -182.799572 
L 1023.127543 -184.624884 
L 1018.257046 -186.450195 
L 1013.942614 -188.275506 
L 1010.274211 -190.100818 
L 1007.319195 -191.926129 
L 1005.119224 -193.75144 
L 1003.68876 -195.576752 
L 1003.015232 -197.402063 
L 1003.060806 -199.227374 
L 1003.765582 -201.052686 
L 1005.051886 -202.877997 
L 1006.8293 -204.703308 
L 1009.00002 -206.52862 
L 1011.464137 -208.353931 
L 1014.124493 -210.179243 
L 1016.890854 -212.004554 
L 1019.683198 -213.829865 
L 1022.434053 -215.655177 
L 1025.089862 -217.480488 
L 1027.611473 -219.305799 
L 1029.973838 -221.131111 
L 1032.165098 -222.956422 
L 1034.185172 -224.781733 
L 1036.044024 -226.607045 
L 1037.759708 -228.432356 
L 1039.356303 -230.257667 
L 1040.861834 -232.082979 
L 1042.306242 -233.90829 
L 1043.719467 -235.733601 
L 1045.129705 -237.558913 
L 1046.561902 -239.384224 
L 1048.03652 -241.209536 
L 1049.568646 -243.034847 
L 1051.167459 -244.860158 
L 1052.836082 -246.68547 
L 1054.571826 -248.510781 
L 1056.366782 -250.336092 
L 1058.208733 -252.161404 
L 1060.082286 -253.986715 
L 1061.970166 -255.812026 
L 1063.854546 -257.637338 
L 1065.718318 -259.462649 
L 1067.546216 -261.28796 
L 1069.325701 -263.113272 
L 1071.047557 -264.938583 
L 1072.706157 -266.763894 
L 1074.299407 -268.589206 
L 1075.828385 -270.414517 
L 1077.296728 -272.239829 
L 1078.709847 -274.06514 
L 1080.074031 -275.890451 
L 1081.395548 -277.715763 
L 1082.679812 -279.541074 
L 1083.930692 -281.366385 
L 1085.150011 -283.191697 
L 1086.337262 -285.017008 
L 1087.489554 -286.842319 
L 1088.601777 -288.667631 
L 1089.666939 -290.492942 
L 1090.676643 -292.318253 
L 1091.621657 -294.143565 
L 1092.492503 -295.968876 
L 1093.280047 -297.794188 
L 1093.976033 -299.619499 
L 1094.573546 -301.44481 
L 1095.06738 -303.270122 
L 1095.454319 -305.095433 
L 1095.733334 -306.920744 
L 1095.905693 -308.746056 
L 1095.97501 -310.571367 
L 1095.947235 -312.396678 
L 1095.830588 -314.22199 
L 1095.635429 -316.047301 
L 1095.374083 -317.872612 
L 1095.060582 -319.697924 
L 1094.71034 -321.523235 
L 1094.339744 -323.348546 
L 1093.965672 -325.173858 
L 1093.604947 -326.999169 
L 1093.273735 -328.824481 
L 1092.986934 -330.649792 
L 1092.757583 -332.475103 
L 1092.596323 -334.300415 
L 1092.510955 -336.125726 
L 1092.506138 -337.951037 
L 1092.583242 -339.776349 
L 1092.740369 -341.60166 
L 1092.972561 -343.426971 
L 1093.272161 -345.252283 
L 1093.629312 -347.077594 
L 1094.032552 -348.902905 
L 1094.469465 -350.728217 
L 1094.927343 -352.553528 
L 1095.393804 -354.378839 
L 1095.857341 -356.204151 
L 1103.165163 -356.204151 
L 1103.165163 -356.204151 
L 1103.6287 -354.378839 
L 1104.095161 -352.553528 
L 1104.553039 -350.728217 
L 1104.989952 -348.902905 
L 1105.393192 -347.077594 
L 1105.750343 -345.252283 
L 1106.049943 -343.426971 
L 1106.282136 -341.60166 
L 1106.439263 -339.776349 
L 1106.516366 -337.951037 
L 1106.51155 -336.125726 
L 1106.426182 -334.300415 
L 1106.264921 -332.475103 
L 1106.03557 -330.649792 
L 1105.74877 -328.824481 
L 1105.417557 -326.999169 
L 1105.056832 -325.173858 
L 1104.682761 -323.348546 
L 1104.312165 -321.523235 
L 1103.961922 -319.697924 
L 1103.648421 -317.872612 
L 1103.387075 -316.047301 
L 1103.191917 -314.22199 
L 1103.075269 -312.396678 
L 1103.047495 -310.571367 
L 1103.116812 -308.746056 
L 1103.28917 -306.920744 
L 1103.568185 -305.095433 
L 1103.955124 -303.270122 
L 1104.448958 -301.44481 
L 1105.046471 -299.619499 
L 1105.742458 -297.794188 
L 1106.530002 -295.968876 
L 1107.400848 -294.143565 
L 1108.345861 -292.318253 
L 1109.355566 -290.492942 
L 1110.420727 -288.667631 
L 1111.53295 -286.842319 
L 1112.685242 -285.017008 
L 1113.872493 -283.191697 
L 1115.091812 -281.366385 
L 1116.342693 -279.541074 
L 1117.626957 -277.715763 
L 1118.948473 -275.890451 
L 1120.312657 -274.06514 
L 1121.725776 -272.239829 
L 1123.19412 -270.414517 
L 1124.723097 -268.589206 
L 1126.316347 -266.763894 
L 1127.974947 -264.938583 
L 1129.696803 -263.113272 
L 1131.476289 -261.28796 
L 1133.304186 -259.462649 
L 1135.167958 -257.637338 
L 1137.052338 -255.812026 
L 1138.940219 -253.986715 
L 1140.813772 -252.161404 
L 1142.655722 -250.336092 
L 1144.450679 -248.510781 
L 1146.186422 -246.68547 
L 1147.855046 -244.860158 
L 1149.453858 -243.034847 
L 1150.985984 -241.209536 
L 1152.460602 -239.384224 
L 1153.892799 -237.558913 
L 1155.303037 -235.733601 
L 1156.716262 -233.90829 
L 1158.16067 -232.082979 
L 1159.666202 -230.257667 
L 1161.262796 -228.432356 
L 1162.97848 -226.607045 
L 1164.837333 -224.781733 
L 1166.857407 -222.956422 
L 1169.048666 -221.131111 
L 1171.411031 -219.305799 
L 1173.932642 -217.480488 
L 1176.588452 -215.655177 
L 1179.339306 -213.829865 
L 1182.13165 -212.004554 
L 1184.898011 -210.179243 
L 1187.558368 -208.353931 
L 1190.022484 -206.52862 
L 1192.193205 -204.703308 
L 1193.970619 -202.877997 
L 1195.256922 -201.052686 
L 1195.961698 -199.227374 
L 1196.007273 -197.402063 
L 1195.333744 -195.576752 
L 1193.90328 -193.75144 
L 1191.70331 -191.926129 
L 1188.748293 -190.100818 
L 1185.079891 -188.275506 
L 1180.765459 -186.450195 
L 1175.894961 -184.624884 
L 1170.576518 -182.799572 
L 1164.930938 -180.974261 
L 1159.08564 -179.14895 
L 1153.168451 -177.323638 
L 1147.301696 -175.498327 
z
" id="m52761ff248" style="stroke:#3d3d3d;stroke-width:5;"/>
    </defs>
    <g clip-path="url(#p68aa4d05be)">
     <use style="fill:#c03d3e;stroke:#3d3d3d;stroke-width:5;" x="0" xlink:href="#m52761ff248" y="1296"/>
    </g>
   </g>
   <g id="line2d_10">
    <path clip-path="url(#p68aa4d05be)" d="M 297.930634 1104.117254 
L 297.930634 574.427625 
" style="fill:none;stroke:#3d3d3d;stroke-linecap:round;stroke-width:5;"/>
   </g>
   <g id="line2d_11">
    <path clip-path="url(#p68aa4d05be)" d="M 297.930634 997.709189 
L 297.930634 827.048832 
" style="fill:none;stroke:#3d3d3d;stroke-linecap:round;stroke-width:15;"/>
   </g>
   <g id="line2d_12">
    <path clip-path="url(#p68aa4d05be)" d="M 565.124173 1104.117254 
L 565.124173 781.915515 
" style="fill:none;stroke:#3d3d3d;stroke-linecap:round;stroke-width:5;"/>
   </g>
   <g id="line2d_13">
    <path clip-path="url(#p68aa4d05be)" d="M 565.124173 1087.035547 
L 565.124173 928.128658 
" style="fill:none;stroke:#3d3d3d;stroke-linecap:round;stroke-width:15;"/>
   </g>
   <g id="line2d_14">
    <path clip-path="url(#p68aa4d05be)" d="M 832.317713 1104.117254 
L 832.317713 1001.313586 
" style="fill:none;stroke:#3d3d3d;stroke-linecap:round;stroke-width:5;"/>
   </g>
   <g id="line2d_15">
    <path clip-path="url(#p68aa4d05be)" d="M 832.317713 1104.117254 
L 832.317713 1056.163104 
" style="fill:none;stroke:#3d3d3d;stroke-linecap:round;stroke-width:15;"/>
   </g>
   <g id="line2d_16">
    <path clip-path="url(#p68aa4d05be)" d="M 1099.511252 1104.117254 
L 1099.511252 1013.850619 
" style="fill:none;stroke:#3d3d3d;stroke-linecap:round;stroke-width:5;"/>
   </g>
   <g id="line2d_17">
    <path clip-path="url(#p68aa4d05be)" d="M 1099.511252 1104.117254 
L 1099.511252 1055.692965 
" style="fill:none;stroke:#3d3d3d;stroke-linecap:round;stroke-width:15;"/>
   </g>
   <g id="line2d_18">
    <path clip-path="url(#p68aa4d05be)" d="M 297.930634 533.547517 
L 297.930634 519.920815 
L 565.124173 519.920815 
L 565.124173 533.547517 
" style="fill:none;stroke:#333333;stroke-linecap:round;stroke-width:1.5;"/>
   </g>
   <g id="line2d_19">
    <path clip-path="url(#p68aa4d05be)" d="M 565.124173 453.708192 
L 565.124173 440.08149 
L 832.317713 440.08149 
L 832.317713 453.708192 
" style="fill:none;stroke:#333333;stroke-linecap:round;stroke-width:1.5;"/>
   </g>
   <g id="line2d_20">
    <path clip-path="url(#p68aa4d05be)" d="M 297.930634 369.788894 
L 297.930634 356.162192 
L 832.317713 356.162192 
L 832.317713 369.788894 
" style="fill:none;stroke:#333333;stroke-linecap:round;stroke-width:1.5;"/>
   </g>
   <g id="line2d_21">
    <path clip-path="url(#p68aa4d05be)" d="M 565.124173 281.581127 
L 565.124173 267.954425 
L 1099.511252 267.954425 
L 1099.511252 281.581127 
" style="fill:none;stroke:#333333;stroke-linecap:round;stroke-width:1.5;"/>
   </g>
   <g id="line2d_22">
    <path clip-path="url(#p68aa4d05be)" d="M 297.930634 188.865742 
L 297.930634 175.239039 
L 1099.511252 175.239039 
L 1099.511252 188.865742 
" style="fill:none;stroke:#333333;stroke-linecap:round;stroke-width:1.5;"/>
   </g>
   <g id="patch_3">
    <path d="M 230.16 1179.94 
L 230.16 96.12 
" style="fill:none;stroke:#cccccc;stroke-linecap:square;stroke-linejoin:miter;stroke-width:2.5;"/>
   </g>
   <g id="patch_4">
    <path d="M 1242 1179.94 
L 1242 96.12 
" style="fill:none;stroke:#cccccc;stroke-linecap:square;stroke-linejoin:miter;stroke-width:2.5;"/>
   </g>
   <g id="patch_5">
    <path d="M 230.16 1179.94 
L 1242 1179.94 
" style="fill:none;stroke:#cccccc;stroke-linecap:square;stroke-linejoin:miter;stroke-width:2.5;"/>
   </g>
   <g id="patch_6">
    <path d="M 230.16 96.12 
L 1242 96.12 
" style="fill:none;stroke:#cccccc;stroke-linecap:square;stroke-linejoin:miter;stroke-width:2.5;"/>
   </g>
   <g id="PathCollection_1">
    <defs>
     <path d="M 0 5 
C 1.326016 5 2.597899 4.473168 3.535534 3.535534 
C 4.473168 2.597899 5 1.326016 5 0 
C 5 -1.326016 4.473168 -2.597899 3.535534 -3.535534 
C 2.597899 -4.473168 1.326016 -5 0 -5 
C -1.326016 -5 -2.597899 -4.473168 -3.535534 -3.535534 
C -4.473168 -2.597899 -5 -1.326016 -5 0 
C -5 1.326016 -4.473168 2.597899 -3.535534 3.535534 
C -2.597899 4.473168 -1.326016 5 0 5 
z
" id="m2c71680952" style="stroke:#3d3d3d;stroke-width:2;"/>
    </defs>
    <g clip-path="url(#p68aa4d05be)">
     <use style="fill:#ffffff;stroke:#3d3d3d;stroke-width:2;" x="297.930634" xlink:href="#m2c71680952" y="907.912693"/>
    </g>
   </g>
   <g id="PathCollection_2">
    <g clip-path="url(#p68aa4d05be)">
     <use style="fill:#ffffff;stroke:#3d3d3d;stroke-width:2;" x="565.124173" xlink:href="#m2c71680952" y="997.552476"/>
    </g>
   </g>
   <g id="PathCollection_3">
    <g clip-path="url(#p68aa4d05be)">
     <use style="fill:#ffffff;stroke:#3d3d3d;stroke-width:2;" x="832.317713" xlink:href="#m2c71680952" y="1104.117254"/>
    </g>
   </g>
   <g id="PathCollection_4">
    <g clip-path="url(#p68aa4d05be)">
     <use style="fill:#ffffff;stroke:#3d3d3d;stroke-width:2;" x="1099.511252" xlink:href="#m2c71680952" y="1083.744576"/>
    </g>
   </g>
   <g id="text_15">
    <!-- **** -->
    <g transform="translate(392.605529 508.983315)scale(0.5 -0.5)">
     <defs>
      <path d="M 3.125 58.453125 
L 5.375 65.375 
Q 13.140625 62.640625 16.65625 60.640625 
Q 15.71875 69.484375 15.671875 72.796875 
L 22.75 72.796875 
Q 22.609375 67.96875 21.625 60.6875 
Q 26.65625 63.234375 33.15625 65.375 
L 35.40625 58.453125 
Q 29.203125 56.390625 23.25 55.71875 
Q 26.21875 53.125 31.640625 46.484375 
L 25.78125 42.328125 
Q 22.953125 46.1875 19.09375 52.828125 
Q 15.484375 45.953125 12.75 42.328125 
L 6.984375 46.484375 
Q 12.640625 53.46875 15.09375 55.71875 
Q 8.796875 56.9375 3.125 58.453125 
z
" id="ArialMT-42"/>
     </defs>
     <use xlink:href="#ArialMT-42"/>
     <use x="38.916016" xlink:href="#ArialMT-42"/>
     <use x="77.832031" xlink:href="#ArialMT-42"/>
     <use x="116.748047" xlink:href="#ArialMT-42"/>
    </g>
   </g>
   <g id="text_16">
    <!-- **** -->
    <g transform="translate(659.799068 429.14399)scale(0.5 -0.5)">
     <use xlink:href="#ArialMT-42"/>
     <use x="38.916016" xlink:href="#ArialMT-42"/>
     <use x="77.832031" xlink:href="#ArialMT-42"/>
     <use x="116.748047" xlink:href="#ArialMT-42"/>
    </g>
   </g>
   <g id="text_17">
    <!-- **** -->
    <g transform="translate(526.202298 345.224692)scale(0.5 -0.5)">
     <use xlink:href="#ArialMT-42"/>
     <use x="38.916016" xlink:href="#ArialMT-42"/>
     <use x="77.832031" xlink:href="#ArialMT-42"/>
     <use x="116.748047" xlink:href="#ArialMT-42"/>
    </g>
   </g>
   <g id="text_18">
    <!-- **** -->
    <g transform="translate(793.395838 257.016925)scale(0.5 -0.5)">
     <use xlink:href="#ArialMT-42"/>
     <use x="38.916016" xlink:href="#ArialMT-42"/>
     <use x="77.832031" xlink:href="#ArialMT-42"/>
     <use x="116.748047" xlink:href="#ArialMT-42"/>
    </g>
   </g>
   <g id="text_19">
    <!-- **** -->
    <g transform="translate(659.799068 164.301539)scale(0.5 -0.5)">
     <use xlink:href="#ArialMT-42"/>
     <use x="38.916016" xlink:href="#ArialMT-42"/>
     <use x="77.832031" xlink:href="#ArialMT-42"/>
     <use x="116.748047" xlink:href="#ArialMT-42"/>
    </g>
   </g>
   <g id="text_20">
    <!-- Actinomyces spp. (K.W. p=1.42e-27) -->
    <g transform="translate(329.662031 90.12)scale(0.5 -0.5)">
     <defs>
      <path d="M 6.59375 0 
L 6.59375 51.859375 
L 14.453125 51.859375 
L 14.453125 44.578125 
Q 16.890625 48.390625 20.9375 50.703125 
Q 25 53.03125 30.171875 53.03125 
Q 35.9375 53.03125 39.625 50.640625 
Q 43.3125 48.25 44.828125 43.953125 
Q 50.984375 53.03125 60.84375 53.03125 
Q 68.5625 53.03125 72.703125 48.75 
Q 76.859375 44.484375 76.859375 35.59375 
L 76.859375 0 
L 68.109375 0 
L 68.109375 32.671875 
Q 68.109375 37.9375 67.25 40.25 
Q 66.40625 42.578125 64.15625 43.984375 
Q 61.921875 45.40625 58.890625 45.40625 
Q 53.421875 45.40625 49.796875 41.765625 
Q 46.1875 38.140625 46.1875 30.125 
L 46.1875 0 
L 37.40625 0 
L 37.40625 33.6875 
Q 37.40625 39.546875 35.25 42.46875 
Q 33.109375 45.40625 28.21875 45.40625 
Q 24.515625 45.40625 21.359375 43.453125 
Q 18.21875 41.5 16.796875 37.734375 
Q 15.375 33.984375 15.375 26.90625 
L 15.375 0 
z
" id="ArialMT-109"/>
      <path d="M 3.078125 15.484375 
L 11.765625 16.84375 
Q 12.5 11.625 15.84375 8.84375 
Q 19.1875 6.0625 25.203125 6.0625 
Q 31.25 6.0625 34.171875 8.515625 
Q 37.109375 10.984375 37.109375 14.3125 
Q 37.109375 17.28125 34.515625 19 
Q 32.71875 20.171875 25.53125 21.96875 
Q 15.875 24.421875 12.140625 26.203125 
Q 8.40625 27.984375 6.46875 31.125 
Q 4.546875 34.28125 4.546875 38.09375 
Q 4.546875 41.546875 6.125 44.5 
Q 7.71875 47.46875 10.453125 49.421875 
Q 12.5 50.921875 16.03125 51.96875 
Q 19.578125 53.03125 23.640625 53.03125 
Q 29.734375 53.03125 34.34375 51.265625 
Q 38.96875 49.515625 41.15625 46.5 
Q 43.359375 43.5 44.1875 38.484375 
L 35.59375 37.3125 
Q 35.015625 41.3125 32.203125 43.546875 
Q 29.390625 45.796875 24.265625 45.796875 
Q 18.21875 45.796875 15.625 43.796875 
Q 13.03125 41.796875 13.03125 39.109375 
Q 13.03125 37.40625 14.109375 36.03125 
Q 15.1875 34.625 17.484375 33.6875 
Q 18.796875 33.203125 25.25 31.453125 
Q 34.578125 28.953125 38.25 27.359375 
Q 41.9375 25.78125 44.03125 22.75 
Q 46.140625 19.734375 46.140625 15.234375 
Q 46.140625 10.84375 43.578125 6.953125 
Q 41.015625 3.078125 36.171875 0.953125 
Q 31.34375 -1.171875 25.25 -1.171875 
Q 15.140625 -1.171875 9.84375 3.03125 
Q 4.546875 7.234375 3.078125 15.484375 
z
" id="ArialMT-115"/>
      <path id="ArialMT-32"/>
      <path d="M 6.59375 -19.875 
L 6.59375 51.859375 
L 14.59375 51.859375 
L 14.59375 45.125 
Q 17.4375 49.078125 21 51.046875 
Q 24.5625 53.03125 29.640625 53.03125 
Q 36.28125 53.03125 41.359375 49.609375 
Q 46.4375 46.1875 49.015625 39.953125 
Q 51.609375 33.734375 51.609375 26.3125 
Q 51.609375 18.359375 48.75 11.984375 
Q 45.90625 5.609375 40.453125 2.21875 
Q 35.015625 -1.171875 29 -1.171875 
Q 24.609375 -1.171875 21.109375 0.6875 
Q 17.625 2.546875 15.375 5.375 
L 15.375 -19.875 
z
M 14.546875 25.640625 
Q 14.546875 15.625 18.59375 10.84375 
Q 22.65625 6.0625 28.421875 6.0625 
Q 34.28125 6.0625 38.453125 11.015625 
Q 42.625 15.96875 42.625 26.375 
Q 42.625 36.28125 38.546875 41.203125 
Q 34.46875 46.140625 28.8125 46.140625 
Q 23.1875 46.140625 18.859375 40.890625 
Q 14.546875 35.640625 14.546875 25.640625 
z
" id="ArialMT-112"/>
      <path d="M 9.078125 0 
L 9.078125 10.015625 
L 19.09375 10.015625 
L 19.09375 0 
z
" id="ArialMT-46"/>
      <path d="M 23.390625 -21.046875 
Q 16.109375 -11.859375 11.078125 0.4375 
Q 6.0625 12.75 6.0625 25.921875 
Q 6.0625 37.546875 9.8125 48.1875 
Q 14.203125 60.546875 23.390625 72.796875 
L 29.6875 72.796875 
Q 23.78125 62.640625 21.875 58.296875 
Q 18.890625 51.5625 17.1875 44.234375 
Q 15.09375 35.109375 15.09375 25.875 
Q 15.09375 2.390625 29.6875 -21.046875 
z
" id="ArialMT-40"/>
      <path d="M 7.328125 0 
L 7.328125 71.578125 
L 16.796875 71.578125 
L 16.796875 36.078125 
L 52.34375 71.578125 
L 65.1875 71.578125 
L 35.15625 42.578125 
L 66.5 0 
L 54 0 
L 28.515625 36.234375 
L 16.796875 24.8125 
L 16.796875 0 
z
" id="ArialMT-75"/>
      <path d="M 20.21875 0 
L 1.21875 71.578125 
L 10.9375 71.578125 
L 21.828125 24.65625 
Q 23.578125 17.28125 24.859375 10.015625 
Q 27.59375 21.484375 28.078125 23.25 
L 41.703125 71.578125 
L 53.125 71.578125 
L 63.375 35.359375 
Q 67.234375 21.875 68.953125 10.015625 
Q 70.3125 16.796875 72.515625 25.59375 
L 83.734375 71.578125 
L 93.265625 71.578125 
L 73.640625 0 
L 64.5 0 
L 49.421875 54.546875 
Q 47.515625 61.375 47.171875 62.9375 
Q 46.046875 58.015625 45.0625 54.546875 
L 29.890625 0 
z
" id="ArialMT-87"/>
      <path d="M 52.828125 42.09375 
L 5.5625 42.09375 
L 5.5625 50.296875 
L 52.828125 50.296875 
z
M 52.828125 20.359375 
L 5.5625 20.359375 
L 5.5625 28.5625 
L 52.828125 28.5625 
z
" id="ArialMT-61"/>
      <path d="M 3.171875 21.484375 
L 3.171875 30.328125 
L 30.171875 30.328125 
L 30.171875 21.484375 
z
" id="ArialMT-45"/>
      <path d="M 4.734375 62.203125 
L 4.734375 70.65625 
L 51.078125 70.65625 
L 51.078125 63.8125 
Q 44.234375 56.546875 37.515625 44.484375 
Q 30.8125 32.421875 27.15625 19.671875 
Q 24.515625 10.6875 23.78125 0 
L 14.75 0 
Q 14.890625 8.453125 18.0625 20.40625 
Q 21.234375 32.375 27.171875 43.484375 
Q 33.109375 54.59375 39.796875 62.203125 
z
" id="ArialMT-55"/>
      <path d="M 12.359375 -21.046875 
L 6.0625 -21.046875 
Q 20.65625 2.390625 20.65625 25.875 
Q 20.65625 35.0625 18.5625 44.09375 
Q 16.890625 51.421875 13.921875 58.15625 
Q 12.015625 62.546875 6.0625 72.796875 
L 12.359375 72.796875 
Q 21.53125 60.546875 25.921875 48.1875 
Q 29.6875 37.546875 29.6875 25.921875 
Q 29.6875 12.75 24.625 0.4375 
Q 19.578125 -11.859375 12.359375 -21.046875 
z
" id="ArialMT-41"/>
     </defs>
     <use xlink:href="#ArialMT-65"/>
     <use x="66.699219" xlink:href="#ArialMT-99"/>
     <use x="116.699219" xlink:href="#ArialMT-116"/>
     <use x="144.482422" xlink:href="#ArialMT-105"/>
     <use x="166.699219" xlink:href="#ArialMT-110"/>
     <use x="222.314453" xlink:href="#ArialMT-111"/>
     <use x="277.929688" xlink:href="#ArialMT-109"/>
     <use x="361.230469" xlink:href="#ArialMT-121"/>
     <use x="411.230469" xlink:href="#ArialMT-99"/>
     <use x="461.230469" xlink:href="#ArialMT-101"/>
     <use x="516.845703" xlink:href="#ArialMT-115"/>
     <use x="566.845703" xlink:href="#ArialMT-32"/>
     <use x="594.628906" xlink:href="#ArialMT-115"/>
     <use x="644.628906" xlink:href="#ArialMT-112"/>
     <use x="700.244141" xlink:href="#ArialMT-112"/>
     <use x="755.859375" xlink:href="#ArialMT-46"/>
     <use x="783.642578" xlink:href="#ArialMT-32"/>
     <use x="811.425781" xlink:href="#ArialMT-40"/>
     <use x="844.726562" xlink:href="#ArialMT-75"/>
     <use x="911.425781" xlink:href="#ArialMT-46"/>
     <use x="939.208984" xlink:href="#ArialMT-87"/>
     <use x="1028.09375" xlink:href="#ArialMT-46"/>
     <use x="1055.876953" xlink:href="#ArialMT-32"/>
     <use x="1083.660156" xlink:href="#ArialMT-112"/>
     <use x="1139.275391" xlink:href="#ArialMT-61"/>
     <use x="1197.673828" xlink:href="#ArialMT-49"/>
     <use x="1253.289062" xlink:href="#ArialMT-46"/>
     <use x="1281.072266" xlink:href="#ArialMT-52"/>
     <use x="1336.6875" xlink:href="#ArialMT-50"/>
     <use x="1392.302734" xlink:href="#ArialMT-101"/>
     <use x="1447.917969" xlink:href="#ArialMT-45"/>
     <use x="1481.21875" xlink:href="#ArialMT-50"/>
     <use x="1536.833984" xlink:href="#ArialMT-55"/>
     <use x="1592.449219" xlink:href="#ArialMT-41"/>
    </g>
   </g>
  </g>
 </g>
 <defs>
  <clipPath id="p68aa4d05be">
   <rect height="1083.82" width="1011.84" x="230.16" y="96.12"/>
  </clipPath>
 </defs>
</svg>
