<?xml version="1.0" encoding="utf-8" standalone="no"?>
<!DOCTYPE svg PUBLIC "-//W3C//DTD SVG 1.1//EN"
  "http://www.w3.org/Graphics/SVG/1.1/DTD/svg11.dtd">
<!-- Created with matplotlib (https://matplotlib.org/) -->
<svg height="1296pt" version="1.1" viewBox="0 0 1296 1296" width="1296pt" xmlns="http://www.w3.org/2000/svg" xmlns:xlink="http://www.w3.org/1999/xlink">
 <metadata>
  <rdf:RDF xmlns:cc="http://creativecommons.org/ns#" xmlns:dc="http://purl.org/dc/elements/1.1/" xmlns:rdf="http://www.w3.org/1999/02/22-rdf-syntax-ns#">
   <cc:Work>
    <dc:type rdf:resource="http://purl.org/dc/dcmitype/StillImage"/>
    <dc:date>2022-06-29T13:55:18.468877</dc:date>
    <dc:format>image/svg+xml</dc:format>
    <dc:creator>
     <cc:Agent>
      <dc:title>Matplotlib v3.3.3, https://matplotlib.org/</dc:title>
     </cc:Agent>
    </dc:creator>
   </cc:Work>
  </rdf:RDF>
 </metadata>
 <defs>
  <style type="text/css">*{stroke-linecap:butt;stroke-linejoin:round;}</style>
 </defs>
 <g id="figure_1">
  <g id="patch_1">
   <path d="M 0 1296 
L 1296 1296 
L 1296 0 
L 0 0 
z
" style="fill:#ffffff;"/>
  </g>
  <g id="axes_1">
   <g id="patch_2">
    <path d="M 230.13 1179.94 
L 1242 1179.94 
L 1242 96.24 
L 230.13 96.24 
z
" style="fill:#ffffff;"/>
   </g>
   <g id="matplotlib.axis_1">
    <g id="xtick_1">
     <g id="text_1">
      <!-- Healthy -->
      <g style="fill:#262626;" transform="translate(291.052472 1231.229063)scale(0.5 -0.5)">
       <defs>
        <path d="M 8.015625 0 
L 8.015625 71.578125 
L 17.484375 71.578125 
L 17.484375 42.1875 
L 54.6875 42.1875 
L 54.6875 71.578125 
L 64.15625 71.578125 
L 64.15625 0 
L 54.6875 0 
L 54.6875 33.734375 
L 17.484375 33.734375 
L 17.484375 0 
z
" id="ArialMT-72"/>
        <path d="M 42.09375 16.703125 
L 51.171875 15.578125 
Q 49.03125 7.625 43.21875 3.21875 
Q 37.40625 -1.171875 28.375 -1.171875 
Q 17 -1.171875 10.328125 5.828125 
Q 3.65625 12.84375 3.65625 25.484375 
Q 3.65625 38.578125 10.390625 45.796875 
Q 17.140625 53.03125 27.875 53.03125 
Q 38.28125 53.03125 44.875 45.953125 
Q 51.46875 38.875 51.46875 26.03125 
Q 51.46875 25.25 51.421875 23.6875 
L 12.75 23.6875 
Q 13.234375 15.140625 17.578125 10.59375 
Q 21.921875 6.0625 28.421875 6.0625 
Q 33.25 6.0625 36.671875 8.59375 
Q 40.09375 11.140625 42.09375 16.703125 
z
M 13.234375 30.90625 
L 42.1875 30.90625 
Q 41.609375 37.453125 38.875 40.71875 
Q 34.671875 45.796875 27.984375 45.796875 
Q 21.921875 45.796875 17.796875 41.75 
Q 13.671875 37.703125 13.234375 30.90625 
z
" id="ArialMT-101"/>
        <path d="M 40.4375 6.390625 
Q 35.546875 2.25 31.03125 0.53125 
Q 26.515625 -1.171875 21.34375 -1.171875 
Q 12.796875 -1.171875 8.203125 3 
Q 3.609375 7.171875 3.609375 13.671875 
Q 3.609375 17.484375 5.34375 20.625 
Q 7.078125 23.78125 9.890625 25.6875 
Q 12.703125 27.59375 16.21875 28.5625 
Q 18.796875 29.25 24.03125 29.890625 
Q 34.671875 31.15625 39.703125 32.90625 
Q 39.75 34.71875 39.75 35.203125 
Q 39.75 40.578125 37.25 42.78125 
Q 33.890625 45.75 27.25 45.75 
Q 21.046875 45.75 18.09375 43.578125 
Q 15.140625 41.40625 13.71875 35.890625 
L 5.125 37.0625 
Q 6.296875 42.578125 8.984375 45.96875 
Q 11.671875 49.359375 16.75 51.1875 
Q 21.828125 53.03125 28.515625 53.03125 
Q 35.15625 53.03125 39.296875 51.46875 
Q 43.453125 49.90625 45.40625 47.53125 
Q 47.359375 45.171875 48.140625 41.546875 
Q 48.578125 39.3125 48.578125 33.453125 
L 48.578125 21.734375 
Q 48.578125 9.46875 49.140625 6.21875 
Q 49.703125 2.984375 51.375 0 
L 42.1875 0 
Q 40.828125 2.734375 40.4375 6.390625 
z
M 39.703125 26.03125 
Q 34.90625 24.078125 25.34375 22.703125 
Q 19.921875 21.921875 17.671875 20.9375 
Q 15.4375 19.96875 14.203125 18.09375 
Q 12.984375 16.21875 12.984375 13.921875 
Q 12.984375 10.40625 15.640625 8.0625 
Q 18.3125 5.71875 23.4375 5.71875 
Q 28.515625 5.71875 32.46875 7.9375 
Q 36.421875 10.15625 38.28125 14.015625 
Q 39.703125 17 39.703125 22.796875 
z
" id="ArialMT-97"/>
        <path d="M 6.390625 0 
L 6.390625 71.578125 
L 15.1875 71.578125 
L 15.1875 0 
z
" id="ArialMT-108"/>
        <path d="M 25.78125 7.859375 
L 27.046875 0.09375 
Q 23.34375 -0.6875 20.40625 -0.6875 
Q 15.625 -0.6875 12.984375 0.828125 
Q 10.359375 2.34375 9.28125 4.8125 
Q 8.203125 7.28125 8.203125 15.1875 
L 8.203125 45.015625 
L 1.765625 45.015625 
L 1.765625 51.859375 
L 8.203125 51.859375 
L 8.203125 64.703125 
L 16.9375 69.96875 
L 16.9375 51.859375 
L 25.78125 51.859375 
L 25.78125 45.015625 
L 16.9375 45.015625 
L 16.9375 14.703125 
Q 16.9375 10.9375 17.40625 9.859375 
Q 17.875 8.796875 18.921875 8.15625 
Q 19.96875 7.515625 21.921875 7.515625 
Q 23.390625 7.515625 25.78125 7.859375 
z
" id="ArialMT-116"/>
        <path d="M 6.59375 0 
L 6.59375 71.578125 
L 15.375 71.578125 
L 15.375 45.90625 
Q 21.53125 53.03125 30.90625 53.03125 
Q 36.671875 53.03125 40.921875 50.75 
Q 45.171875 48.484375 47 44.484375 
Q 48.828125 40.484375 48.828125 32.859375 
L 48.828125 0 
L 40.046875 0 
L 40.046875 32.859375 
Q 40.046875 39.453125 37.1875 42.453125 
Q 34.328125 45.453125 29.109375 45.453125 
Q 25.203125 45.453125 21.75 43.421875 
Q 18.3125 41.40625 16.84375 37.9375 
Q 15.375 34.46875 15.375 28.375 
L 15.375 0 
z
" id="ArialMT-104"/>
        <path d="M 6.203125 -19.96875 
L 5.21875 -11.71875 
Q 8.109375 -12.5 10.25 -12.5 
Q 13.1875 -12.5 14.9375 -11.515625 
Q 16.703125 -10.546875 17.828125 -8.796875 
Q 18.65625 -7.46875 20.515625 -2.25 
Q 20.75 -1.515625 21.296875 -0.09375 
L 1.609375 51.859375 
L 11.078125 51.859375 
L 21.875 21.828125 
Q 23.96875 16.109375 25.640625 9.8125 
Q 27.15625 15.875 29.25 21.625 
L 40.328125 51.859375 
L 49.125 51.859375 
L 29.390625 -0.875 
Q 26.21875 -9.421875 24.46875 -12.640625 
Q 22.125 -17 19.09375 -19.015625 
Q 16.0625 -21.046875 11.859375 -21.046875 
Q 9.328125 -21.046875 6.203125 -19.96875 
z
" id="ArialMT-121"/>
       </defs>
       <use xlink:href="#ArialMT-72"/>
       <use x="72.216797" xlink:href="#ArialMT-101"/>
       <use x="127.832031" xlink:href="#ArialMT-97"/>
       <use x="183.447266" xlink:href="#ArialMT-108"/>
       <use x="205.664062" xlink:href="#ArialMT-116"/>
       <use x="233.447266" xlink:href="#ArialMT-104"/>
       <use x="289.0625" xlink:href="#ArialMT-121"/>
      </g>
     </g>
    </g>
    <g id="xtick_2">
     <g id="text_2">
      <!-- Slight -->
      <g style="fill:#262626;" transform="translate(562.504284 1231.838438)scale(0.5 -0.5)">
       <defs>
        <path d="M 4.5 23 
L 13.421875 23.78125 
Q 14.0625 18.40625 16.375 14.96875 
Q 18.703125 11.53125 23.578125 9.40625 
Q 28.46875 7.28125 34.578125 7.28125 
Q 39.984375 7.28125 44.140625 8.890625 
Q 48.296875 10.5 50.3125 13.296875 
Q 52.34375 16.109375 52.34375 19.4375 
Q 52.34375 22.796875 50.390625 25.3125 
Q 48.4375 27.828125 43.953125 29.546875 
Q 41.0625 30.671875 31.203125 33.03125 
Q 21.34375 35.40625 17.390625 37.5 
Q 12.25 40.1875 9.734375 44.15625 
Q 7.234375 48.140625 7.234375 53.078125 
Q 7.234375 58.5 10.296875 63.203125 
Q 13.375 67.921875 19.28125 70.359375 
Q 25.203125 72.796875 32.421875 72.796875 
Q 40.375 72.796875 46.453125 70.234375 
Q 52.546875 67.671875 55.8125 62.6875 
Q 59.078125 57.71875 59.328125 51.421875 
L 50.25 50.734375 
Q 49.515625 57.515625 45.28125 60.984375 
Q 41.0625 64.453125 32.8125 64.453125 
Q 24.21875 64.453125 20.28125 61.296875 
Q 16.359375 58.15625 16.359375 53.71875 
Q 16.359375 49.859375 19.140625 47.359375 
Q 21.875 44.875 33.421875 42.265625 
Q 44.96875 39.65625 49.265625 37.703125 
Q 55.515625 34.8125 58.484375 30.390625 
Q 61.46875 25.984375 61.46875 20.21875 
Q 61.46875 14.5 58.203125 9.4375 
Q 54.9375 4.390625 48.796875 1.578125 
Q 42.671875 -1.21875 35.015625 -1.21875 
Q 25.296875 -1.21875 18.71875 1.609375 
Q 12.15625 4.4375 8.421875 10.125 
Q 4.6875 15.828125 4.5 23 
z
" id="ArialMT-83"/>
        <path d="M 6.640625 61.46875 
L 6.640625 71.578125 
L 15.4375 71.578125 
L 15.4375 61.46875 
z
M 6.640625 0 
L 6.640625 51.859375 
L 15.4375 51.859375 
L 15.4375 0 
z
" id="ArialMT-105"/>
        <path d="M 4.984375 -4.296875 
L 13.53125 -5.5625 
Q 14.0625 -9.515625 16.5 -11.328125 
Q 19.78125 -13.765625 25.4375 -13.765625 
Q 31.546875 -13.765625 34.859375 -11.328125 
Q 38.1875 -8.890625 39.359375 -4.5 
Q 40.046875 -1.8125 39.984375 6.78125 
Q 34.234375 0 25.640625 0 
Q 14.9375 0 9.078125 7.71875 
Q 3.21875 15.4375 3.21875 26.21875 
Q 3.21875 33.640625 5.90625 39.90625 
Q 8.59375 46.1875 13.6875 49.609375 
Q 18.796875 53.03125 25.6875 53.03125 
Q 34.859375 53.03125 40.828125 45.609375 
L 40.828125 51.859375 
L 48.921875 51.859375 
L 48.921875 7.03125 
Q 48.921875 -5.078125 46.453125 -10.125 
Q 44 -15.1875 38.640625 -18.109375 
Q 33.296875 -21.046875 25.484375 -21.046875 
Q 16.21875 -21.046875 10.5 -16.875 
Q 4.78125 -12.703125 4.984375 -4.296875 
z
M 12.25 26.859375 
Q 12.25 16.65625 16.296875 11.96875 
Q 20.359375 7.28125 26.46875 7.28125 
Q 32.515625 7.28125 36.609375 11.9375 
Q 40.71875 16.609375 40.71875 26.5625 
Q 40.71875 36.078125 36.5 40.90625 
Q 32.28125 45.75 26.3125 45.75 
Q 20.453125 45.75 16.34375 40.984375 
Q 12.25 36.234375 12.25 26.859375 
z
" id="ArialMT-103"/>
       </defs>
       <use xlink:href="#ArialMT-83"/>
       <use x="66.699219" xlink:href="#ArialMT-108"/>
       <use x="88.916016" xlink:href="#ArialMT-105"/>
       <use x="111.132812" xlink:href="#ArialMT-103"/>
       <use x="166.748047" xlink:href="#ArialMT-104"/>
       <use x="222.363281" xlink:href="#ArialMT-116"/>
      </g>
     </g>
    </g>
    <g id="xtick_3">
     <g id="text_3">
      <!-- Moderate -->
      <g style="fill:#262626;" transform="translate(768.659221 1231.229063)scale(0.5 -0.5)">
       <defs>
        <path d="M 7.421875 0 
L 7.421875 71.578125 
L 21.6875 71.578125 
L 38.625 20.90625 
Q 40.96875 13.8125 42.046875 10.296875 
Q 43.265625 14.203125 45.84375 21.78125 
L 62.984375 71.578125 
L 75.734375 71.578125 
L 75.734375 0 
L 66.609375 0 
L 66.609375 59.90625 
L 45.796875 0 
L 37.25 0 
L 16.546875 60.9375 
L 16.546875 0 
z
" id="ArialMT-77"/>
        <path d="M 3.328125 25.921875 
Q 3.328125 40.328125 11.328125 47.265625 
Q 18.015625 53.03125 27.640625 53.03125 
Q 38.328125 53.03125 45.109375 46.015625 
Q 51.90625 39.015625 51.90625 26.65625 
Q 51.90625 16.65625 48.90625 10.90625 
Q 45.90625 5.171875 40.15625 2 
Q 34.421875 -1.171875 27.640625 -1.171875 
Q 16.75 -1.171875 10.03125 5.8125 
Q 3.328125 12.796875 3.328125 25.921875 
z
M 12.359375 25.921875 
Q 12.359375 15.96875 16.703125 11.015625 
Q 21.046875 6.0625 27.640625 6.0625 
Q 34.1875 6.0625 38.53125 11.03125 
Q 42.875 16.015625 42.875 26.21875 
Q 42.875 35.84375 38.5 40.796875 
Q 34.125 45.75 27.640625 45.75 
Q 21.046875 45.75 16.703125 40.8125 
Q 12.359375 35.890625 12.359375 25.921875 
z
" id="ArialMT-111"/>
        <path d="M 40.234375 0 
L 40.234375 6.546875 
Q 35.296875 -1.171875 25.734375 -1.171875 
Q 19.53125 -1.171875 14.328125 2.25 
Q 9.125 5.671875 6.265625 11.796875 
Q 3.421875 17.921875 3.421875 25.875 
Q 3.421875 33.640625 6 39.96875 
Q 8.59375 46.296875 13.765625 49.65625 
Q 18.953125 53.03125 25.34375 53.03125 
Q 30.03125 53.03125 33.6875 51.046875 
Q 37.359375 49.078125 39.65625 45.90625 
L 39.65625 71.578125 
L 48.390625 71.578125 
L 48.390625 0 
z
M 12.453125 25.875 
Q 12.453125 15.921875 16.640625 10.984375 
Q 20.84375 6.0625 26.5625 6.0625 
Q 32.328125 6.0625 36.34375 10.765625 
Q 40.375 15.484375 40.375 25.140625 
Q 40.375 35.796875 36.265625 40.765625 
Q 32.171875 45.75 26.171875 45.75 
Q 20.3125 45.75 16.375 40.96875 
Q 12.453125 36.1875 12.453125 25.875 
z
" id="ArialMT-100"/>
        <path d="M 6.5 0 
L 6.5 51.859375 
L 14.40625 51.859375 
L 14.40625 44 
Q 17.4375 49.515625 20 51.265625 
Q 22.5625 53.03125 25.640625 53.03125 
Q 30.078125 53.03125 34.671875 50.203125 
L 31.640625 42.046875 
Q 28.421875 43.953125 25.203125 43.953125 
Q 22.3125 43.953125 20.015625 42.21875 
Q 17.71875 40.484375 16.75 37.40625 
Q 15.28125 32.71875 15.28125 27.15625 
L 15.28125 0 
z
" id="ArialMT-114"/>
       </defs>
       <use xlink:href="#ArialMT-77"/>
       <use x="83.300781" xlink:href="#ArialMT-111"/>
       <use x="138.916016" xlink:href="#ArialMT-100"/>
       <use x="194.53125" xlink:href="#ArialMT-101"/>
       <use x="250.146484" xlink:href="#ArialMT-114"/>
       <use x="283.447266" xlink:href="#ArialMT-97"/>
       <use x="339.0625" xlink:href="#ArialMT-116"/>
       <use x="366.845703" xlink:href="#ArialMT-101"/>
      </g>
     </g>
    </g>
    <g id="xtick_4">
     <g id="text_4">
      <!-- Severe -->
      <g style="fill:#262626;" transform="translate(1044.282908 1231.229063)scale(0.5 -0.5)">
       <defs>
        <path d="M 21 0 
L 1.265625 51.859375 
L 10.546875 51.859375 
L 21.6875 20.796875 
Q 23.484375 15.765625 25 10.359375 
Q 26.171875 14.453125 28.265625 20.21875 
L 39.796875 51.859375 
L 48.828125 51.859375 
L 29.203125 0 
z
" id="ArialMT-118"/>
       </defs>
       <use xlink:href="#ArialMT-83"/>
       <use x="66.699219" xlink:href="#ArialMT-101"/>
       <use x="122.314453" xlink:href="#ArialMT-118"/>
       <use x="172.314453" xlink:href="#ArialMT-101"/>
       <use x="227.929688" xlink:href="#ArialMT-114"/>
       <use x="261.230469" xlink:href="#ArialMT-101"/>
      </g>
     </g>
    </g>
   </g>
   <g id="matplotlib.axis_2">
    <g id="ytick_1">
     <g id="line2d_1">
      <path clip-path="url(#p52e68b4724)" d="M 230.13 1107.189134 
L 1242 1107.189134 
" style="fill:none;stroke:#cccccc;stroke-linecap:round;stroke-width:2;"/>
     </g>
     <g id="text_5">
      <!-- 0 -->
      <g style="fill:#262626;" transform="translate(186.825312 1125.083665)scale(0.5 -0.5)">
       <defs>
        <path d="M 4.15625 35.296875 
Q 4.15625 48 6.765625 55.734375 
Q 9.375 63.484375 14.515625 67.671875 
Q 19.671875 71.875 27.484375 71.875 
Q 33.25 71.875 37.59375 69.546875 
Q 41.9375 67.234375 44.765625 62.859375 
Q 47.609375 58.5 49.21875 52.21875 
Q 50.828125 45.953125 50.828125 35.296875 
Q 50.828125 22.703125 48.234375 14.96875 
Q 45.65625 7.234375 40.5 3 
Q 35.359375 -1.21875 27.484375 -1.21875 
Q 17.140625 -1.21875 11.234375 6.203125 
Q 4.15625 15.140625 4.15625 35.296875 
z
M 13.1875 35.296875 
Q 13.1875 17.671875 17.3125 11.828125 
Q 21.4375 6 27.484375 6 
Q 33.546875 6 37.671875 11.859375 
Q 41.796875 17.71875 41.796875 35.296875 
Q 41.796875 52.984375 37.671875 58.78125 
Q 33.546875 64.59375 27.390625 64.59375 
Q 21.34375 64.59375 17.71875 59.46875 
Q 13.1875 52.9375 13.1875 35.296875 
z
" id="ArialMT-48"/>
       </defs>
       <use xlink:href="#ArialMT-48"/>
      </g>
     </g>
    </g>
    <g id="ytick_2">
     <g id="line2d_2">
      <path clip-path="url(#p52e68b4724)" d="M 230.13 908.391625 
L 1242 908.391625 
" style="fill:none;stroke:#cccccc;stroke-linecap:round;stroke-width:2;"/>
     </g>
     <g id="text_6">
      <!-- 200 -->
      <g style="fill:#262626;" transform="translate(131.215937 926.286156)scale(0.5 -0.5)">
       <defs>
        <path d="M 50.34375 8.453125 
L 50.34375 0 
L 3.03125 0 
Q 2.9375 3.171875 4.046875 6.109375 
Q 5.859375 10.9375 9.828125 15.625 
Q 13.8125 20.3125 21.34375 26.46875 
Q 33.015625 36.03125 37.109375 41.625 
Q 41.21875 47.21875 41.21875 52.203125 
Q 41.21875 57.421875 37.46875 61 
Q 33.734375 64.59375 27.734375 64.59375 
Q 21.390625 64.59375 17.578125 60.78125 
Q 13.765625 56.984375 13.71875 50.25 
L 4.6875 51.171875 
Q 5.609375 61.28125 11.65625 66.578125 
Q 17.71875 71.875 27.9375 71.875 
Q 38.234375 71.875 44.234375 66.15625 
Q 50.25 60.453125 50.25 52 
Q 50.25 47.703125 48.484375 43.546875 
Q 46.734375 39.40625 42.65625 34.8125 
Q 38.578125 30.21875 29.109375 22.21875 
Q 21.1875 15.578125 18.9375 13.203125 
Q 16.703125 10.84375 15.234375 8.453125 
z
" id="ArialMT-50"/>
       </defs>
       <use xlink:href="#ArialMT-50"/>
       <use x="55.615234" xlink:href="#ArialMT-48"/>
       <use x="111.230469" xlink:href="#ArialMT-48"/>
      </g>
     </g>
    </g>
    <g id="ytick_3">
     <g id="line2d_3">
      <path clip-path="url(#p52e68b4724)" d="M 230.13 709.594117 
L 1242 709.594117 
" style="fill:none;stroke:#cccccc;stroke-linecap:round;stroke-width:2;"/>
     </g>
     <g id="text_7">
      <!-- 400 -->
      <g style="fill:#262626;" transform="translate(131.215937 727.488648)scale(0.5 -0.5)">
       <defs>
        <path d="M 32.328125 0 
L 32.328125 17.140625 
L 1.265625 17.140625 
L 1.265625 25.203125 
L 33.9375 71.578125 
L 41.109375 71.578125 
L 41.109375 25.203125 
L 50.78125 25.203125 
L 50.78125 17.140625 
L 41.109375 17.140625 
L 41.109375 0 
z
M 32.328125 25.203125 
L 32.328125 57.46875 
L 9.90625 25.203125 
z
" id="ArialMT-52"/>
       </defs>
       <use xlink:href="#ArialMT-52"/>
       <use x="55.615234" xlink:href="#ArialMT-48"/>
       <use x="111.230469" xlink:href="#ArialMT-48"/>
      </g>
     </g>
    </g>
    <g id="ytick_4">
     <g id="line2d_4">
      <path clip-path="url(#p52e68b4724)" d="M 230.13 510.796608 
L 1242 510.796608 
" style="fill:none;stroke:#cccccc;stroke-linecap:round;stroke-width:2;"/>
     </g>
     <g id="text_8">
      <!-- 600 -->
      <g style="fill:#262626;" transform="translate(131.215937 528.691139)scale(0.5 -0.5)">
       <defs>
        <path d="M 49.75 54.046875 
L 41.015625 53.375 
Q 39.84375 58.546875 37.703125 60.890625 
Q 34.125 64.65625 28.90625 64.65625 
Q 24.703125 64.65625 21.53125 62.3125 
Q 17.390625 59.28125 14.984375 53.46875 
Q 12.59375 47.65625 12.5 36.921875 
Q 15.671875 41.75 20.265625 44.09375 
Q 24.859375 46.4375 29.890625 46.4375 
Q 38.671875 46.4375 44.84375 39.96875 
Q 51.03125 33.5 51.03125 23.25 
Q 51.03125 16.5 48.125 10.71875 
Q 45.21875 4.9375 40.140625 1.859375 
Q 35.0625 -1.21875 28.609375 -1.21875 
Q 17.625 -1.21875 10.6875 6.859375 
Q 3.765625 14.9375 3.765625 33.5 
Q 3.765625 54.25 11.421875 63.671875 
Q 18.109375 71.875 29.4375 71.875 
Q 37.890625 71.875 43.28125 67.140625 
Q 48.6875 62.40625 49.75 54.046875 
z
M 13.875 23.1875 
Q 13.875 18.65625 15.796875 14.5 
Q 17.71875 10.359375 21.1875 8.171875 
Q 24.65625 6 28.46875 6 
Q 34.03125 6 38.03125 10.484375 
Q 42.046875 14.984375 42.046875 22.703125 
Q 42.046875 30.125 38.078125 34.390625 
Q 34.125 38.671875 28.125 38.671875 
Q 22.171875 38.671875 18.015625 34.390625 
Q 13.875 30.125 13.875 23.1875 
z
" id="ArialMT-54"/>
       </defs>
       <use xlink:href="#ArialMT-54"/>
       <use x="55.615234" xlink:href="#ArialMT-48"/>
       <use x="111.230469" xlink:href="#ArialMT-48"/>
      </g>
     </g>
    </g>
    <g id="ytick_5">
     <g id="line2d_5">
      <path clip-path="url(#p52e68b4724)" d="M 230.13 311.9991 
L 1242 311.9991 
" style="fill:none;stroke:#cccccc;stroke-linecap:round;stroke-width:2;"/>
     </g>
     <g id="text_9">
      <!-- 800 -->
      <g style="fill:#262626;" transform="translate(131.215937 329.893631)scale(0.5 -0.5)">
       <defs>
        <path d="M 17.671875 38.8125 
Q 12.203125 40.828125 9.5625 44.53125 
Q 6.9375 48.25 6.9375 53.421875 
Q 6.9375 61.234375 12.546875 66.546875 
Q 18.171875 71.875 27.484375 71.875 
Q 36.859375 71.875 42.578125 66.421875 
Q 48.296875 60.984375 48.296875 53.171875 
Q 48.296875 48.1875 45.671875 44.5 
Q 43.0625 40.828125 37.75 38.8125 
Q 44.34375 36.671875 47.78125 31.875 
Q 51.21875 27.09375 51.21875 20.453125 
Q 51.21875 11.28125 44.71875 5.03125 
Q 38.234375 -1.21875 27.640625 -1.21875 
Q 17.046875 -1.21875 10.546875 5.046875 
Q 4.046875 11.328125 4.046875 20.703125 
Q 4.046875 27.6875 7.59375 32.390625 
Q 11.140625 37.109375 17.671875 38.8125 
z
M 15.921875 53.71875 
Q 15.921875 48.640625 19.1875 45.40625 
Q 22.46875 42.1875 27.6875 42.1875 
Q 32.765625 42.1875 36.015625 45.375 
Q 39.265625 48.578125 39.265625 53.21875 
Q 39.265625 58.0625 35.90625 61.359375 
Q 32.5625 64.65625 27.59375 64.65625 
Q 22.5625 64.65625 19.234375 61.421875 
Q 15.921875 58.203125 15.921875 53.71875 
z
M 13.09375 20.65625 
Q 13.09375 16.890625 14.875 13.375 
Q 16.65625 9.859375 20.171875 7.921875 
Q 23.6875 6 27.734375 6 
Q 34.03125 6 38.125 10.046875 
Q 42.234375 14.109375 42.234375 20.359375 
Q 42.234375 26.703125 38.015625 30.859375 
Q 33.796875 35.015625 27.4375 35.015625 
Q 21.234375 35.015625 17.15625 30.90625 
Q 13.09375 26.8125 13.09375 20.65625 
z
" id="ArialMT-56"/>
       </defs>
       <use xlink:href="#ArialMT-56"/>
       <use x="55.615234" xlink:href="#ArialMT-48"/>
       <use x="111.230469" xlink:href="#ArialMT-48"/>
      </g>
     </g>
    </g>
    <g id="ytick_6">
     <g id="line2d_6">
      <path clip-path="url(#p52e68b4724)" d="M 230.13 113.201591 
L 1242 113.201591 
" style="fill:none;stroke:#cccccc;stroke-linecap:round;stroke-width:2;"/>
     </g>
     <g id="text_10">
      <!-- 1000 -->
      <g style="fill:#262626;" transform="translate(103.41125 131.096122)scale(0.5 -0.5)">
       <defs>
        <path d="M 37.25 0 
L 28.46875 0 
L 28.46875 56 
Q 25.296875 52.984375 20.140625 49.953125 
Q 14.984375 46.921875 10.890625 45.40625 
L 10.890625 53.90625 
Q 18.265625 57.375 23.78125 62.296875 
Q 29.296875 67.234375 31.59375 71.875 
L 37.25 71.875 
z
" id="ArialMT-49"/>
       </defs>
       <use xlink:href="#ArialMT-49"/>
       <use x="55.615234" xlink:href="#ArialMT-48"/>
       <use x="111.230469" xlink:href="#ArialMT-48"/>
       <use x="166.845703" xlink:href="#ArialMT-48"/>
      </g>
     </g>
    </g>
    <g id="text_11">
     <!-- Abundance -->
     <g style="fill:#262626;" transform="translate(89.47375 764.582187)rotate(-90)scale(0.5 -0.5)">
      <defs>
       <path d="M -0.140625 0 
L 27.34375 71.578125 
L 37.546875 71.578125 
L 66.84375 0 
L 56.0625 0 
L 47.703125 21.6875 
L 17.78125 21.6875 
L 9.90625 0 
z
M 20.515625 29.390625 
L 44.78125 29.390625 
L 37.3125 49.21875 
Q 33.890625 58.25 32.234375 64.0625 
Q 30.859375 57.171875 28.375 50.390625 
z
" id="ArialMT-65"/>
       <path d="M 14.703125 0 
L 6.546875 0 
L 6.546875 71.578125 
L 15.328125 71.578125 
L 15.328125 46.046875 
Q 20.90625 53.03125 29.546875 53.03125 
Q 34.328125 53.03125 38.59375 51.09375 
Q 42.875 49.171875 45.625 45.671875 
Q 48.390625 42.1875 49.953125 37.25 
Q 51.515625 32.328125 51.515625 26.703125 
Q 51.515625 13.375 44.921875 6.09375 
Q 38.328125 -1.171875 29.109375 -1.171875 
Q 19.921875 -1.171875 14.703125 6.5 
z
M 14.59375 26.3125 
Q 14.59375 17 17.140625 12.84375 
Q 21.296875 6.0625 28.375 6.0625 
Q 34.125 6.0625 38.328125 11.0625 
Q 42.53125 16.0625 42.53125 25.984375 
Q 42.53125 36.140625 38.5 40.96875 
Q 34.46875 45.796875 28.765625 45.796875 
Q 23 45.796875 18.796875 40.796875 
Q 14.59375 35.796875 14.59375 26.3125 
z
" id="ArialMT-98"/>
       <path d="M 40.578125 0 
L 40.578125 7.625 
Q 34.515625 -1.171875 24.125 -1.171875 
Q 19.53125 -1.171875 15.546875 0.578125 
Q 11.578125 2.34375 9.640625 5 
Q 7.71875 7.671875 6.9375 11.53125 
Q 6.390625 14.109375 6.390625 19.734375 
L 6.390625 51.859375 
L 15.1875 51.859375 
L 15.1875 23.09375 
Q 15.1875 16.21875 15.71875 13.8125 
Q 16.546875 10.359375 19.234375 8.375 
Q 21.921875 6.390625 25.875 6.390625 
Q 29.828125 6.390625 33.296875 8.421875 
Q 36.765625 10.453125 38.203125 13.9375 
Q 39.65625 17.4375 39.65625 24.078125 
L 39.65625 51.859375 
L 48.4375 51.859375 
L 48.4375 0 
z
" id="ArialMT-117"/>
       <path d="M 6.59375 0 
L 6.59375 51.859375 
L 14.5 51.859375 
L 14.5 44.484375 
Q 20.21875 53.03125 31 53.03125 
Q 35.6875 53.03125 39.625 51.34375 
Q 43.5625 49.65625 45.515625 46.921875 
Q 47.46875 44.1875 48.25 40.4375 
Q 48.734375 37.984375 48.734375 31.890625 
L 48.734375 0 
L 39.9375 0 
L 39.9375 31.546875 
Q 39.9375 36.921875 38.90625 39.578125 
Q 37.890625 42.234375 35.28125 43.8125 
Q 32.671875 45.40625 29.15625 45.40625 
Q 23.53125 45.40625 19.453125 41.84375 
Q 15.375 38.28125 15.375 28.328125 
L 15.375 0 
z
" id="ArialMT-110"/>
       <path d="M 40.4375 19 
L 49.078125 17.875 
Q 47.65625 8.9375 41.8125 3.875 
Q 35.984375 -1.171875 27.484375 -1.171875 
Q 16.84375 -1.171875 10.375 5.78125 
Q 3.90625 12.75 3.90625 25.734375 
Q 3.90625 34.125 6.6875 40.421875 
Q 9.46875 46.734375 15.15625 49.875 
Q 20.84375 53.03125 27.546875 53.03125 
Q 35.984375 53.03125 41.359375 48.75 
Q 46.734375 44.484375 48.25 36.625 
L 39.703125 35.296875 
Q 38.484375 40.53125 35.375 43.15625 
Q 32.28125 45.796875 27.875 45.796875 
Q 21.234375 45.796875 17.078125 41.03125 
Q 12.9375 36.28125 12.9375 25.984375 
Q 12.9375 15.53125 16.9375 10.796875 
Q 20.953125 6.0625 27.390625 6.0625 
Q 32.5625 6.0625 36.03125 9.234375 
Q 39.5 12.40625 40.4375 19 
z
" id="ArialMT-99"/>
      </defs>
      <use xlink:href="#ArialMT-65"/>
      <use x="66.699219" xlink:href="#ArialMT-98"/>
      <use x="122.314453" xlink:href="#ArialMT-117"/>
      <use x="177.929688" xlink:href="#ArialMT-110"/>
      <use x="233.544922" xlink:href="#ArialMT-100"/>
      <use x="289.160156" xlink:href="#ArialMT-97"/>
      <use x="344.775391" xlink:href="#ArialMT-110"/>
      <use x="400.390625" xlink:href="#ArialMT-99"/>
      <use x="450.390625" xlink:href="#ArialMT-101"/>
     </g>
    </g>
   </g>
   <g id="PolyCollection_1">
    <defs>
     <path d="M 425.46974 -157.420796 
L 326.158642 -157.420796 
L 313.047773 -164.822086 
L 300.33639 -172.223376 
L 289.330426 -179.624667 
L 281.197574 -187.025957 
L 276.717004 -194.427248 
L 276.124091 -201.828538 
L 279.099729 -209.229828 
L 284.90001 -216.631119 
L 292.571675 -224.032409 
L 301.174753 -231.433699 
L 309.944508 -238.83499 
L 318.360536 -246.23628 
L 326.131565 -253.63757 
L 333.131509 -261.038861 
L 339.327571 -268.440151 
L 344.728535 -275.841441 
L 349.361692 -283.242732 
L 353.270889 -290.644022 
L 356.521593 -298.045312 
L 359.201408 -305.446603 
L 361.411779 -312.847893 
L 363.253711 -320.249184 
L 364.813738 -327.650474 
L 366.155667 -335.051764 
L 367.320131 -342.453055 
L 368.330432 -349.854345 
L 369.201026 -357.255635 
L 369.945131 -364.656926 
L 370.5793 -372.058216 
L 371.124588 -379.459506 
L 371.60506 -386.860797 
L 372.044789 -394.262087 
L 372.464427 -401.663377 
L 372.878182 -409.064668 
L 373.29192 -416.465958 
L 373.702901 -423.867248 
L 374.101367 -431.268539 
L 374.47364 -438.669829 
L 374.805929 -446.07112 
L 375.087763 -453.47241 
L 375.314142 -460.8737 
L 375.486 -468.274991 
L 375.609164 -475.676281 
L 375.692435 -483.077571 
L 375.745529 -490.478862 
L 375.777452 -497.880152 
L 375.795551 -505.281442 
L 375.805228 -512.682733 
L 375.810108 -520.084023 
L 375.812429 -527.485313 
L 375.813471 -534.886604 
L 375.813913 -542.287894 
L 375.814089 -549.689184 
L 375.814156 -557.090475 
L 375.814179 -564.491765 
L 375.814187 -571.893056 
L 375.81419 -579.294346 
L 375.81419 -586.695636 
L 375.814191 -594.096927 
L 375.814191 -601.498217 
L 375.814191 -608.899507 
L 375.814191 -616.300798 
L 375.814191 -623.702088 
L 375.814191 -631.103378 
L 375.814191 -638.504669 
L 375.814191 -645.905959 
L 375.814191 -653.307249 
L 375.814191 -660.70854 
L 375.814191 -668.10983 
L 375.814191 -675.51112 
L 375.814191 -682.912411 
L 375.81419 -690.313701 
L 375.814188 -697.714991 
L 375.814182 -705.116282 
L 375.814163 -712.517572 
L 375.81411 -719.918863 
L 375.813968 -727.320153 
L 375.81361 -734.721443 
L 375.812758 -742.122734 
L 375.810843 -749.524024 
L 375.806795 -756.925314 
L 375.798735 -764.326605 
L 375.783636 -771.727895 
L 375.757053 -779.129185 
L 375.713123 -786.530476 
L 375.645084 -793.931766 
L 375.546542 -801.333056 
L 375.413486 -808.734347 
L 375.246725 -816.135637 
L 375.054022 -823.536927 
L 374.850945 -830.938218 
L 374.659623 -838.339508 
L 374.505137 -845.740799 
L 374.410242 -853.142089 
L 374.389894 -860.543379 
L 374.447388 -867.94467 
L 374.573491 -875.34596 
L 374.748863 -882.74725 
L 374.948913 -890.148541 
L 376.679468 -890.148541 
L 376.679468 -890.148541 
L 376.879518 -882.74725 
L 377.05489 -875.34596 
L 377.180993 -867.94467 
L 377.238488 -860.543379 
L 377.218139 -853.142089 
L 377.123244 -845.740799 
L 376.968758 -838.339508 
L 376.777436 -830.938218 
L 376.57436 -823.536927 
L 376.381656 -816.135637 
L 376.214895 -808.734347 
L 376.081839 -801.333056 
L 375.983297 -793.931766 
L 375.915258 -786.530476 
L 375.871328 -779.129185 
L 375.844746 -771.727895 
L 375.829647 -764.326605 
L 375.821586 -756.925314 
L 375.817538 -749.524024 
L 375.815624 -742.122734 
L 375.814771 -734.721443 
L 375.814413 -727.320153 
L 375.814271 -719.918863 
L 375.814218 -712.517572 
L 375.8142 -705.116282 
L 375.814194 -697.714991 
L 375.814192 -690.313701 
L 375.814191 -682.912411 
L 375.814191 -675.51112 
L 375.814191 -668.10983 
L 375.814191 -660.70854 
L 375.814191 -653.307249 
L 375.814191 -645.905959 
L 375.814191 -638.504669 
L 375.814191 -631.103378 
L 375.814191 -623.702088 
L 375.814191 -616.300798 
L 375.814191 -608.899507 
L 375.814191 -601.498217 
L 375.814191 -594.096927 
L 375.814191 -586.695636 
L 375.814192 -579.294346 
L 375.814194 -571.893056 
L 375.814202 -564.491765 
L 375.814226 -557.090475 
L 375.814293 -549.689184 
L 375.814469 -542.287894 
L 375.81491 -534.886604 
L 375.815952 -527.485313 
L 375.818274 -520.084023 
L 375.823154 -512.682733 
L 375.832831 -505.281442 
L 375.85093 -497.880152 
L 375.882853 -490.478862 
L 375.935947 -483.077571 
L 376.019217 -475.676281 
L 376.142381 -468.274991 
L 376.31424 -460.8737 
L 376.540619 -453.47241 
L 376.822452 -446.07112 
L 377.154741 -438.669829 
L 377.527014 -431.268539 
L 377.92548 -423.867248 
L 378.336462 -416.465958 
L 378.750199 -409.064668 
L 379.163955 -401.663377 
L 379.583593 -394.262087 
L 380.023322 -386.860797 
L 380.503793 -379.459506 
L 381.049081 -372.058216 
L 381.68325 -364.656926 
L 382.427355 -357.255635 
L 383.29795 -349.854345 
L 384.30825 -342.453055 
L 385.472715 -335.051764 
L 386.814643 -327.650474 
L 388.374671 -320.249184 
L 390.216602 -312.847893 
L 392.426974 -305.446603 
L 395.106789 -298.045312 
L 398.357493 -290.644022 
L 402.26669 -283.242732 
L 406.899847 -275.841441 
L 412.30081 -268.440151 
L 418.496872 -261.038861 
L 425.496816 -253.63757 
L 433.267846 -246.23628 
L 441.683874 -238.83499 
L 450.453629 -231.433699 
L 459.056706 -224.032409 
L 466.728371 -216.631119 
L 472.528653 -209.229828 
L 475.504291 -201.828538 
L 474.911378 -194.427248 
L 470.430808 -187.025957 
L 462.297955 -179.624667 
L 451.291991 -172.223376 
L 438.580608 -164.822086 
L 425.46974 -157.420796 
z
" id="me826bf1725" style="stroke:#3d3d3d;stroke-width:5;"/>
    </defs>
    <g clip-path="url(#p52e68b4724)">
     <use style="fill:#3a923a;stroke:#3d3d3d;stroke-width:5;" x="0" xlink:href="#me826bf1725" y="1296"/>
    </g>
   </g>
   <g id="PolyCollection_2">
    <defs>
     <path d="M 672.590876 -162.437452 
L 577.488005 -162.437452 
L 570.780671 -165.831728 
L 564.057559 -169.226004 
L 557.516698 -172.620279 
L 551.362967 -176.014555 
L 545.794943 -179.40883 
L 540.991277 -182.803106 
L 537.097946 -186.197381 
L 534.217673 -189.591657 
L 532.402641 -192.985932 
L 531.651284 -196.380208 
L 531.909508 -199.774483 
L 533.076182 -203.168759 
L 535.012309 -206.563034 
L 537.55288 -209.95731 
L 540.520177 -213.351585 
L 543.737196 -216.745861 
L 547.03994 -220.140136 
L 550.287535 -223.534412 
L 553.369412 -226.928688 
L 556.209197 -230.322963 
L 558.765285 -233.717239 
L 561.028417 -237.111514 
L 563.016841 -240.50579 
L 564.769788 -243.900065 
L 566.340112 -247.294341 
L 567.786872 -250.688616 
L 569.168583 -254.082892 
L 570.537686 -257.477167 
L 571.936605 -260.871443 
L 573.39555 -264.265718 
L 574.932008 -267.659994 
L 576.55172 -271.054269 
L 578.250772 -274.448545 
L 580.018368 -277.84282 
L 581.839837 -281.237096 
L 583.699429 -284.631372 
L 585.582581 -288.025647 
L 587.477405 -291.419923 
L 589.375341 -294.814198 
L 591.270986 -298.208474 
L 593.161286 -301.602749 
L 595.044306 -304.997025 
L 596.917865 -308.3913 
L 598.778291 -311.785576 
L 600.619518 -315.179851 
L 602.432668 -318.574127 
L 604.206181 -321.968402 
L 605.92644 -325.362678 
L 607.578808 -328.756953 
L 609.14889 -332.151229 
L 610.623857 -335.545504 
L 611.993631 -338.93978 
L 613.251785 -342.334056 
L 614.396055 -345.728331 
L 615.428414 -349.122607 
L 616.354716 -352.516882 
L 617.183979 -355.911158 
L 617.927415 -359.305433 
L 618.597326 -362.699709 
L 619.206 -366.093984 
L 619.764735 -369.48826 
L 620.283067 -372.882535 
L 620.768272 -376.276811 
L 621.225159 -379.671086 
L 621.656123 -383.065362 
L 622.061424 -386.459637 
L 622.439618 -389.853913 
L 622.788065 -393.248188 
L 623.103445 -396.642464 
L 623.382222 -400.03674 
L 623.621024 -403.431015 
L 623.816914 -406.825291 
L 623.967571 -410.219566 
L 624.071386 -413.613842 
L 624.12752 -417.008117 
L 624.135938 -420.402393 
L 624.097461 -423.796668 
L 624.013853 -427.190944 
L 623.887923 -430.585219 
L 623.723658 -433.979495 
L 623.526335 -437.37377 
L 623.302595 -440.768046 
L 623.060427 -444.162321 
L 622.809041 -447.556597 
L 622.558604 -450.950872 
L 622.319834 -454.345148 
L 622.10348 -457.739424 
L 621.91971 -461.133699 
L 621.777479 -464.527975 
L 621.683927 -467.92225 
L 621.643872 -471.316526 
L 621.659477 -474.710801 
L 621.730098 -478.105077 
L 621.852369 -481.499352 
L 622.020485 -484.893628 
L 622.226679 -488.287903 
L 622.461822 -491.682179 
L 622.716102 -495.076454 
L 622.979694 -498.47073 
L 627.099186 -498.47073 
L 627.099186 -498.47073 
L 627.362778 -495.076454 
L 627.617058 -491.682179 
L 627.852202 -488.287903 
L 628.058396 -484.893628 
L 628.226512 -481.499352 
L 628.348782 -478.105077 
L 628.419404 -474.710801 
L 628.435009 -471.316526 
L 628.394954 -467.92225 
L 628.301401 -464.527975 
L 628.159171 -461.133699 
L 627.975401 -457.739424 
L 627.759047 -454.345148 
L 627.520277 -450.950872 
L 627.269839 -447.556597 
L 627.018454 -444.162321 
L 626.776286 -440.768046 
L 626.552546 -437.37377 
L 626.355223 -433.979495 
L 626.190957 -430.585219 
L 626.065028 -427.190944 
L 625.981419 -423.796668 
L 625.942943 -420.402393 
L 625.951361 -417.008117 
L 626.007494 -413.613842 
L 626.11131 -410.219566 
L 626.261967 -406.825291 
L 626.457857 -403.431015 
L 626.696658 -400.03674 
L 626.975436 -396.642464 
L 627.290816 -393.248188 
L 627.639263 -389.853913 
L 628.017457 -386.459637 
L 628.422758 -383.065362 
L 628.853721 -379.671086 
L 629.310608 -376.276811 
L 629.795814 -372.882535 
L 630.314146 -369.48826 
L 630.872881 -366.093984 
L 631.481555 -362.699709 
L 632.151466 -359.305433 
L 632.894902 -355.911158 
L 633.724165 -352.516882 
L 634.650467 -349.122607 
L 635.682826 -345.728331 
L 636.827096 -342.334056 
L 638.08525 -338.93978 
L 639.455024 -335.545504 
L 640.929991 -332.151229 
L 642.500073 -328.756953 
L 644.152441 -325.362678 
L 645.8727 -321.968402 
L 647.646213 -318.574127 
L 649.459363 -315.179851 
L 651.30059 -311.785576 
L 653.161015 -308.3913 
L 655.034575 -304.997025 
L 656.917595 -301.602749 
L 658.807895 -298.208474 
L 660.70354 -294.814198 
L 662.601476 -291.419923 
L 664.4963 -288.025647 
L 666.379452 -284.631372 
L 668.239044 -281.237096 
L 670.060513 -277.84282 
L 671.828109 -274.448545 
L 673.52716 -271.054269 
L 675.146873 -267.659994 
L 676.683331 -264.265718 
L 678.142275 -260.871443 
L 679.541195 -257.477167 
L 680.910298 -254.082892 
L 682.292009 -250.688616 
L 683.738769 -247.294341 
L 685.309093 -243.900065 
L 687.06204 -240.50579 
L 689.050463 -237.111514 
L 691.313596 -233.717239 
L 693.869684 -230.322963 
L 696.709469 -226.928688 
L 699.791345 -223.534412 
L 703.03894 -220.140136 
L 706.341685 -216.745861 
L 709.558704 -213.351585 
L 712.526 -209.95731 
L 715.066572 -206.563034 
L 717.002699 -203.168759 
L 718.169373 -199.774483 
L 718.427596 -196.380208 
L 717.67624 -192.985932 
L 715.861208 -189.591657 
L 712.980935 -186.197381 
L 709.087604 -182.803106 
L 704.283938 -179.40883 
L 698.715913 -176.014555 
L 692.562183 -172.620279 
L 686.021322 -169.226004 
L 679.29821 -165.831728 
L 672.590876 -162.437452 
z
" id="m904b1e456f" style="stroke:#3d3d3d;stroke-width:5;"/>
    </defs>
    <g clip-path="url(#p52e68b4724)">
     <use style="fill:#2eabb8;stroke:#3d3d3d;stroke-width:5;" x="0" xlink:href="#m904b1e456f" y="1296"/>
    </g>
   </g>
   <g id="PolyCollection_3">
    <defs>
     <path d="M 888.819928 -163.681824 
L 859.709452 -163.681824 
L 857.886469 -166.237698 
L 855.981004 -168.793572 
L 854.009592 -171.349446 
L 851.989829 -173.905321 
L 849.939564 -176.461195 
L 847.876061 -179.017069 
L 845.815164 -181.572943 
L 843.770557 -184.128817 
L 841.753156 -186.684691 
L 839.770688 -189.240566 
L 837.827482 -191.79644 
L 835.924516 -194.352314 
L 834.059683 -196.908188 
L 832.22829 -199.464062 
L 830.423741 -202.019937 
L 828.638353 -204.575811 
L 826.864256 -207.131685 
L 825.094309 -209.687559 
L 823.32297 -212.243433 
L 821.547072 -214.799307 
L 819.766439 -217.355182 
L 817.984327 -219.911056 
L 816.207647 -222.46693 
L 814.446977 -225.022804 
L 812.716348 -227.578678 
L 811.032832 -230.134552 
L 809.415948 -232.690427 
L 807.886918 -235.246301 
L 806.467814 -237.802175 
L 805.180626 -240.358049 
L 804.046311 -242.913923 
L 803.083849 -245.469798 
L 802.309363 -248.025672 
L 801.735344 -250.581546 
L 801.370013 -253.13742 
L 801.216863 -255.693294 
L 801.274412 -258.249168 
L 801.536178 -260.805043 
L 801.990892 -263.360917 
L 802.622946 -265.916791 
L 803.413062 -268.472665 
L 804.33914 -271.028539 
L 805.377259 -273.584414 
L 806.50276 -276.140288 
L 807.69135 -278.696162 
L 808.920172 -281.252036 
L 810.168747 -283.80791 
L 811.419752 -286.363784 
L 812.659565 -288.919659 
L 813.878556 -291.475533 
L 815.071097 -294.031407 
L 816.235304 -296.587281 
L 817.37254 -299.143155 
L 818.486719 -301.69903 
L 819.583486 -304.254904 
L 820.669333 -306.810778 
L 821.750733 -309.366652 
L 822.833368 -311.922526 
L 823.921518 -314.4784 
L 825.01764 -317.034275 
L 826.122192 -319.590149 
L 827.233687 -322.146023 
L 828.348974 -324.701897 
L 829.463701 -327.257771 
L 830.57291 -329.813645 
L 831.671705 -332.36952 
L 832.755914 -334.925394 
L 833.82269 -337.481268 
L 834.870978 -340.037142 
L 835.901821 -342.593016 
L 836.918455 -345.148891 
L 837.926206 -347.704765 
L 838.93218 -350.260639 
L 839.94479 -352.816513 
L 840.973157 -355.372387 
L 842.026426 -357.928261 
L 843.113081 -360.484136 
L 844.240286 -363.04001 
L 845.413323 -365.595884 
L 846.635158 -368.151758 
L 847.906171 -370.707632 
L 849.224047 -373.263507 
L 850.583849 -375.819381 
L 851.978244 -378.375255 
L 853.397854 -380.931129 
L 854.831718 -383.487003 
L 856.267803 -386.042877 
L 857.693548 -388.598752 
L 859.09639 -391.154626 
L 860.464256 -393.7105 
L 861.78598 -396.266374 
L 863.051647 -398.822248 
L 864.252843 -401.378123 
L 865.382812 -403.933997 
L 866.436532 -406.489871 
L 867.410703 -409.045745 
L 868.303684 -411.601619 
L 869.115357 -414.157493 
L 869.846977 -416.713368 
L 878.682403 -416.713368 
L 878.682403 -416.713368 
L 879.414023 -414.157493 
L 880.225697 -411.601619 
L 881.118677 -409.045745 
L 882.092848 -406.489871 
L 883.146568 -403.933997 
L 884.276537 -401.378123 
L 885.477733 -398.822248 
L 886.7434 -396.266374 
L 888.065124 -393.7105 
L 889.43299 -391.154626 
L 890.835832 -388.598752 
L 892.261577 -386.042877 
L 893.697662 -383.487003 
L 895.131526 -380.931129 
L 896.551136 -378.375255 
L 897.945531 -375.819381 
L 899.305333 -373.263507 
L 900.623209 -370.707632 
L 901.894222 -368.151758 
L 903.116057 -365.595884 
L 904.289094 -363.04001 
L 905.416299 -360.484136 
L 906.502954 -357.928261 
L 907.556223 -355.372387 
L 908.58459 -352.816513 
L 909.5972 -350.260639 
L 910.603174 -347.704765 
L 911.610925 -345.148891 
L 912.627559 -342.593016 
L 913.658402 -340.037142 
L 914.70669 -337.481268 
L 915.773466 -334.925394 
L 916.857675 -332.36952 
L 917.95647 -329.813645 
L 919.065679 -327.257771 
L 920.180406 -324.701897 
L 921.295693 -322.146023 
L 922.407188 -319.590149 
L 923.51174 -317.034275 
L 924.607862 -314.4784 
L 925.696012 -311.922526 
L 926.778647 -309.366652 
L 927.860047 -306.810778 
L 928.945894 -304.254904 
L 930.042661 -301.69903 
L 931.15684 -299.143155 
L 932.294076 -296.587281 
L 933.458283 -294.031407 
L 934.650824 -291.475533 
L 935.869815 -288.919659 
L 937.109628 -286.363784 
L 938.360633 -283.80791 
L 939.609208 -281.252036 
L 940.83803 -278.696162 
L 942.026621 -276.140288 
L 943.152121 -273.584414 
L 944.19024 -271.028539 
L 945.116318 -268.472665 
L 945.906434 -265.916791 
L 946.538488 -263.360917 
L 946.993202 -260.805043 
L 947.254968 -258.249168 
L 947.312517 -255.693294 
L 947.159367 -253.13742 
L 946.794036 -250.581546 
L 946.220017 -248.025672 
L 945.445531 -245.469798 
L 944.483069 -242.913923 
L 943.348754 -240.358049 
L 942.061566 -237.802175 
L 940.642462 -235.246301 
L 939.113433 -232.690427 
L 937.496548 -230.134552 
L 935.813032 -227.578678 
L 934.082403 -225.022804 
L 932.321733 -222.46693 
L 930.545053 -219.911056 
L 928.762941 -217.355182 
L 926.982308 -214.799307 
L 925.20641 -212.243433 
L 923.435071 -209.687559 
L 921.665124 -207.131685 
L 919.891027 -204.575811 
L 918.105639 -202.019937 
L 916.30109 -199.464062 
L 914.469697 -196.908188 
L 912.604864 -194.352314 
L 910.701898 -191.79644 
L 908.758693 -189.240566 
L 906.776224 -186.684691 
L 904.758823 -184.128817 
L 902.714216 -181.572943 
L 900.653319 -179.017069 
L 898.589816 -176.461195 
L 896.539551 -173.905321 
L 894.519788 -171.349446 
L 892.548376 -168.793572 
L 890.642912 -166.237698 
L 888.819928 -163.681824 
z
" id="mb5a758a5f9" style="stroke:#3d3d3d;stroke-width:5;"/>
    </defs>
    <g clip-path="url(#p52e68b4724)">
     <use style="fill:#a9aa35;stroke:#3d3d3d;stroke-width:5;" x="0" xlink:href="#mb5a758a5f9" y="1296"/>
    </g>
   </g>
   <g id="PolyCollection_4">
    <defs>
     <path d="M 1136.885602 -152.921359 
L 1110.094277 -152.921359 
L 1107.611825 -157.2609 
L 1104.859071 -161.60044 
L 1101.844094 -165.939981 
L 1098.582565 -170.279522 
L 1095.098116 -174.619063 
L 1091.422476 -178.958603 
L 1087.595365 -183.298144 
L 1083.664134 -187.637685 
L 1079.683127 -191.977225 
L 1075.712762 -196.316766 
L 1071.818317 -200.656307 
L 1068.068416 -204.995848 
L 1064.533211 -209.335388 
L 1061.282299 -213.674929 
L 1058.382413 -218.01447 
L 1055.894956 -222.35401 
L 1053.873488 -226.693551 
L 1052.361309 -231.033092 
L 1051.389263 -235.372632 
L 1050.97397 -239.712173 
L 1051.116604 -244.051714 
L 1051.802392 -248.391255 
L 1053.00092 -252.730795 
L 1054.667289 -257.070336 
L 1056.744119 -261.409877 
L 1059.164288 -265.749417 
L 1061.854254 -270.088958 
L 1064.737726 -274.428499 
L 1067.739422 -278.76804 
L 1070.788624 -283.10758 
L 1073.822253 -287.447121 
L 1076.787239 -291.786662 
L 1079.642015 -296.126202 
L 1082.357064 -300.465743 
L 1084.914532 -304.805284 
L 1087.307027 -309.144824 
L 1089.535785 -313.484365 
L 1091.60845 -317.823906 
L 1093.536719 -322.163447 
L 1095.334129 -326.502987 
L 1097.014156 -330.842528 
L 1098.588811 -335.182069 
L 1100.067766 -339.521609 
L 1101.458033 -343.86115 
L 1102.76409 -348.200691 
L 1103.988353 -352.540232 
L 1105.131836 -356.879772 
L 1106.194852 -361.219313 
L 1107.177643 -365.558854 
L 1108.080833 -369.898394 
L 1108.905695 -374.237935 
L 1109.654219 -378.577476 
L 1110.329027 -382.917016 
L 1110.933223 -387.256557 
L 1111.470215 -391.596098 
L 1111.943614 -395.935639 
L 1112.357217 -400.275179 
L 1112.715113 -404.61472 
L 1113.02188 -408.954261 
L 1113.282828 -413.293801 
L 1113.504244 -417.633342 
L 1113.693558 -421.972883 
L 1113.859367 -426.312424 
L 1114.011303 -430.651964 
L 1114.159694 -434.991505 
L 1114.315062 -439.331046 
L 1114.487487 -443.670586 
L 1114.685896 -448.010127 
L 1114.917369 -452.349668 
L 1115.186537 -456.689209 
L 1115.495141 -461.028749 
L 1115.841823 -465.36829 
L 1116.222167 -469.707831 
L 1116.629007 -474.047371 
L 1117.052967 -478.386912 
L 1117.483198 -482.726453 
L 1117.908231 -487.065993 
L 1118.316874 -491.405534 
L 1118.699067 -495.745075 
L 1119.046625 -500.084616 
L 1119.353797 -504.424156 
L 1119.617609 -508.763697 
L 1119.837962 -513.103238 
L 1120.017492 -517.442778 
L 1120.16121 -521.782319 
L 1120.275976 -526.12186 
L 1120.369848 -530.461401 
L 1120.451385 -534.800941 
L 1120.52895 -539.140482 
L 1120.610091 -543.480023 
L 1120.701033 -547.819563 
L 1120.806321 -552.159104 
L 1120.928632 -556.498645 
L 1121.068762 -560.838185 
L 1121.225755 -565.177726 
L 1121.397171 -569.517267 
L 1121.579439 -573.856808 
L 1121.768253 -578.196348 
L 1121.958987 -582.535889 
L 1125.020893 -582.535889 
L 1125.020893 -582.535889 
L 1125.211627 -578.196348 
L 1125.400441 -573.856808 
L 1125.582708 -569.517267 
L 1125.754125 -565.177726 
L 1125.911118 -560.838185 
L 1126.051247 -556.498645 
L 1126.173559 -552.159104 
L 1126.278846 -547.819563 
L 1126.369788 -543.480023 
L 1126.45093 -539.140482 
L 1126.528495 -534.800941 
L 1126.610031 -530.461401 
L 1126.703903 -526.12186 
L 1126.818669 -521.782319 
L 1126.962387 -517.442778 
L 1127.141917 -513.103238 
L 1127.362271 -508.763697 
L 1127.626083 -504.424156 
L 1127.933254 -500.084616 
L 1128.280812 -495.745075 
L 1128.663005 -491.405534 
L 1129.071648 -487.065993 
L 1129.496682 -482.726453 
L 1129.926913 -478.386912 
L 1130.350873 -474.047371 
L 1130.757712 -469.707831 
L 1131.138056 -465.36829 
L 1131.484739 -461.028749 
L 1131.793343 -456.689209 
L 1132.06251 -452.349668 
L 1132.293983 -448.010127 
L 1132.492392 -443.670586 
L 1132.664817 -439.331046 
L 1132.820186 -434.991505 
L 1132.968576 -430.651964 
L 1133.120512 -426.312424 
L 1133.286321 -421.972883 
L 1133.475635 -417.633342 
L 1133.697052 -413.293801 
L 1133.958 -408.954261 
L 1134.264766 -404.61472 
L 1134.622663 -400.275179 
L 1135.036266 -395.935639 
L 1135.509664 -391.596098 
L 1136.046656 -387.256557 
L 1136.650852 -382.917016 
L 1137.325661 -378.577476 
L 1138.074184 -374.237935 
L 1138.899046 -369.898394 
L 1139.802236 -365.558854 
L 1140.785027 -361.219313 
L 1141.848044 -356.879772 
L 1142.991526 -352.540232 
L 1144.215789 -348.200691 
L 1145.521846 -343.86115 
L 1146.912113 -339.521609 
L 1148.391068 -335.182069 
L 1149.965723 -330.842528 
L 1151.64575 -326.502987 
L 1153.44316 -322.163447 
L 1155.37143 -317.823906 
L 1157.444094 -313.484365 
L 1159.672852 -309.144824 
L 1162.065348 -304.805284 
L 1164.622816 -300.465743 
L 1167.337864 -296.126202 
L 1170.192641 -291.786662 
L 1173.157627 -287.447121 
L 1176.191256 -283.10758 
L 1179.240457 -278.76804 
L 1182.242153 -274.428499 
L 1185.125625 -270.088958 
L 1187.815591 -265.749417 
L 1190.23576 -261.409877 
L 1192.312591 -257.070336 
L 1193.97896 -252.730795 
L 1195.177487 -248.391255 
L 1195.863275 -244.051714 
L 1196.005909 -239.712173 
L 1195.590616 -235.372632 
L 1194.618571 -231.033092 
L 1193.106391 -226.693551 
L 1191.084924 -222.35401 
L 1188.597466 -218.01447 
L 1185.69758 -213.674929 
L 1182.446669 -209.335388 
L 1178.911463 -204.995848 
L 1175.161562 -200.656307 
L 1171.267118 -196.316766 
L 1167.296753 -191.977225 
L 1163.315745 -187.637685 
L 1159.384514 -183.298144 
L 1155.557404 -178.958603 
L 1151.881763 -174.619063 
L 1148.397314 -170.279522 
L 1145.135785 -165.939981 
L 1142.120808 -161.60044 
L 1139.368054 -157.2609 
L 1136.885602 -152.921359 
z
" id="mbf31f8cad2" style="stroke:#3d3d3d;stroke-width:5;"/>
    </defs>
    <g clip-path="url(#p52e68b4724)">
     <use style="fill:#c03d3e;stroke:#3d3d3d;stroke-width:5;" x="0" xlink:href="#mbf31f8cad2" y="1296"/>
    </g>
   </g>
   <g id="line2d_7">
    <path clip-path="url(#p52e68b4724)" d="M 375.814191 1107.189134 
L 375.814191 976.976766 
" style="fill:none;stroke:#3d3d3d;stroke-linecap:round;stroke-width:5;"/>
   </g>
   <g id="line2d_8">
    <path clip-path="url(#p52e68b4724)" d="M 375.814191 1107.189134 
L 375.814191 1054.0108 
" style="fill:none;stroke:#3d3d3d;stroke-linecap:round;stroke-width:15;"/>
   </g>
   <g id="line2d_9">
    <path clip-path="url(#p52e68b4724)" d="M 625.03944 1107.189134 
L 625.03944 930.259351 
" style="fill:none;stroke:#3d3d3d;stroke-linecap:round;stroke-width:5;"/>
   </g>
   <g id="line2d_10">
    <path clip-path="url(#p52e68b4724)" d="M 625.03944 1107.189134 
L 625.03944 1034.628043 
" style="fill:none;stroke:#3d3d3d;stroke-linecap:round;stroke-width:15;"/>
   </g>
   <g id="line2d_11">
    <path clip-path="url(#p52e68b4724)" d="M 874.26469 1107.189134 
L 874.26469 904.415675 
" style="fill:none;stroke:#3d3d3d;stroke-linecap:round;stroke-width:5;"/>
   </g>
   <g id="line2d_12">
    <path clip-path="url(#p52e68b4724)" d="M 874.26469 1060.471719 
L 874.26469 984.928666 
" style="fill:none;stroke:#3d3d3d;stroke-linecap:round;stroke-width:15;"/>
   </g>
   <g id="line2d_13">
    <path clip-path="url(#p52e68b4724)" d="M 1123.48994 1107.189134 
L 1123.48994 858.692248 
" style="fill:none;stroke:#3d3d3d;stroke-linecap:round;stroke-width:5;"/>
   </g>
   <g id="line2d_14">
    <path clip-path="url(#p52e68b4724)" d="M 1123.48994 1070.908588 
L 1123.48994 980.952716 
" style="fill:none;stroke:#3d3d3d;stroke-linecap:round;stroke-width:15;"/>
   </g>
   <g id="line2d_15">
    <path clip-path="url(#p52e68b4724)" d="M 625.03944 775.24569 
L 625.03944 759.026692 
L 874.26469 759.026692 
L 874.26469 775.24569 
" style="fill:none;stroke:#333333;stroke-linecap:round;stroke-width:1.5;"/>
   </g>
   <g id="line2d_16">
    <path clip-path="url(#p52e68b4724)" d="M 375.814191 388.584536 
L 375.814191 372.365538 
L 874.26469 372.365538 
L 874.26469 388.584536 
" style="fill:none;stroke:#333333;stroke-linecap:round;stroke-width:1.5;"/>
   </g>
   <g id="line2d_17">
    <path clip-path="url(#p52e68b4724)" d="M 625.03944 292.432836 
L 625.03944 276.213838 
L 1123.48994 276.213838 
L 1123.48994 292.432836 
" style="fill:none;stroke:#333333;stroke-linecap:round;stroke-width:1.5;"/>
   </g>
   <g id="line2d_18">
    <path clip-path="url(#p52e68b4724)" d="M 375.814191 191.367564 
L 375.814191 175.148566 
L 1123.48994 175.148566 
L 1123.48994 191.367564 
" style="fill:none;stroke:#333333;stroke-linecap:round;stroke-width:1.5;"/>
   </g>
   <g id="patch_3">
    <path d="M 230.13 1179.94 
L 230.13 96.24 
" style="fill:none;stroke:#cccccc;stroke-linecap:square;stroke-linejoin:miter;stroke-width:2.5;"/>
   </g>
   <g id="patch_4">
    <path d="M 1242 1179.94 
L 1242 96.24 
" style="fill:none;stroke:#cccccc;stroke-linecap:square;stroke-linejoin:miter;stroke-width:2.5;"/>
   </g>
   <g id="patch_5">
    <path d="M 230.13 1179.94 
L 1242 1179.94 
" style="fill:none;stroke:#cccccc;stroke-linecap:square;stroke-linejoin:miter;stroke-width:2.5;"/>
   </g>
   <g id="patch_6">
    <path d="M 230.13 96.24 
L 1242 96.24 
" style="fill:none;stroke:#cccccc;stroke-linecap:square;stroke-linejoin:miter;stroke-width:2.5;"/>
   </g>
   <g id="PathCollection_1">
    <defs>
     <path d="M 0 5 
C 1.326016 5 2.597899 4.473168 3.535534 3.535534 
C 4.473168 2.597899 5 1.326016 5 0 
C 5 -1.326016 4.473168 -2.597899 3.535534 -3.535534 
C 2.597899 -4.473168 1.326016 -5 0 -5 
C -1.326016 -5 -2.597899 -4.473168 -3.535534 -3.535534 
C -4.473168 -2.597899 -5 -1.326016 -5 0 
C -5 1.326016 -4.473168 2.597899 -3.535534 3.535534 
C -2.597899 4.473168 -1.326016 5 0 5 
z
" id="m3a4bed6126" style="stroke:#3d3d3d;stroke-width:2;"/>
    </defs>
    <g clip-path="url(#p52e68b4724)">
     <use style="fill:#ffffff;stroke:#3d3d3d;stroke-width:2;" x="375.814191" xlink:href="#m3a4bed6126" y="1101.225208"/>
    </g>
   </g>
   <g id="PathCollection_2">
    <g clip-path="url(#p52e68b4724)">
     <use style="fill:#ffffff;stroke:#3d3d3d;stroke-width:2;" x="625.03944" xlink:href="#m3a4bed6126" y="1083.830426"/>
    </g>
   </g>
   <g id="PathCollection_3">
    <g clip-path="url(#p52e68b4724)">
     <use style="fill:#ffffff;stroke:#3d3d3d;stroke-width:2;" x="874.26469" xlink:href="#m3a4bed6126" y="1029.161112"/>
    </g>
   </g>
   <g id="PathCollection_4">
    <g clip-path="url(#p52e68b4724)">
     <use style="fill:#ffffff;stroke:#3d3d3d;stroke-width:2;" x="1123.48994" xlink:href="#m3a4bed6126" y="1042.08295"/>
    </g>
   </g>
   <g id="text_12">
    <!-- *** -->
    <g transform="translate(720.460659 748.089192)scale(0.5 -0.5)">
     <defs>
      <path d="M 3.125 58.453125 
L 5.375 65.375 
Q 13.140625 62.640625 16.65625 60.640625 
Q 15.71875 69.484375 15.671875 72.796875 
L 22.75 72.796875 
Q 22.609375 67.96875 21.625 60.6875 
Q 26.65625 63.234375 33.15625 65.375 
L 35.40625 58.453125 
Q 29.203125 56.390625 23.25 55.71875 
Q 26.21875 53.125 31.640625 46.484375 
L 25.78125 42.328125 
Q 22.953125 46.1875 19.09375 52.828125 
Q 15.484375 45.953125 12.75 42.328125 
L 6.984375 46.484375 
Q 12.640625 53.46875 15.09375 55.71875 
Q 8.796875 56.9375 3.125 58.453125 
z
" id="ArialMT-42"/>
     </defs>
     <use xlink:href="#ArialMT-42"/>
     <use x="38.916016" xlink:href="#ArialMT-42"/>
     <use x="77.832031" xlink:href="#ArialMT-42"/>
    </g>
   </g>
   <g id="text_13">
    <!-- **** -->
    <g transform="translate(586.117565 361.428038)scale(0.5 -0.5)">
     <use xlink:href="#ArialMT-42"/>
     <use x="38.916016" xlink:href="#ArialMT-42"/>
     <use x="77.832031" xlink:href="#ArialMT-42"/>
     <use x="116.748047" xlink:href="#ArialMT-42"/>
    </g>
   </g>
   <g id="text_14">
    <!-- *** -->
    <g transform="translate(845.073284 265.276338)scale(0.5 -0.5)">
     <use xlink:href="#ArialMT-42"/>
     <use x="38.916016" xlink:href="#ArialMT-42"/>
     <use x="77.832031" xlink:href="#ArialMT-42"/>
    </g>
   </g>
   <g id="text_15">
    <!-- **** -->
    <g transform="translate(710.73019 164.211066)scale(0.5 -0.5)">
     <use xlink:href="#ArialMT-42"/>
     <use x="38.916016" xlink:href="#ArialMT-42"/>
     <use x="77.832031" xlink:href="#ArialMT-42"/>
     <use x="116.748047" xlink:href="#ArialMT-42"/>
    </g>
   </g>
   <g id="text_16">
    <!-- Campylobacter showae (K.W. p=2.23e-10) -->
    <g transform="translate(264.322813 90.24)scale(0.5 -0.5)">
     <defs>
      <path d="M 58.796875 25.09375 
L 68.265625 22.703125 
Q 65.28125 11.03125 57.546875 4.90625 
Q 49.8125 -1.21875 38.625 -1.21875 
Q 27.046875 -1.21875 19.796875 3.484375 
Q 12.546875 8.203125 8.765625 17.140625 
Q 4.984375 26.078125 4.984375 36.328125 
Q 4.984375 47.515625 9.25 55.828125 
Q 13.53125 64.15625 21.40625 68.46875 
Q 29.296875 72.796875 38.765625 72.796875 
Q 49.515625 72.796875 56.828125 67.328125 
Q 64.15625 61.859375 67.046875 51.953125 
L 57.71875 49.75 
Q 55.21875 57.5625 50.484375 61.125 
Q 45.75 64.703125 38.578125 64.703125 
Q 30.328125 64.703125 24.78125 60.734375 
Q 19.234375 56.78125 16.984375 50.109375 
Q 14.75 43.453125 14.75 36.375 
Q 14.75 27.25 17.40625 20.4375 
Q 20.0625 13.625 25.671875 10.25 
Q 31.296875 6.890625 37.84375 6.890625 
Q 45.796875 6.890625 51.3125 11.46875 
Q 56.84375 16.0625 58.796875 25.09375 
z
" id="ArialMT-67"/>
      <path d="M 6.59375 0 
L 6.59375 51.859375 
L 14.453125 51.859375 
L 14.453125 44.578125 
Q 16.890625 48.390625 20.9375 50.703125 
Q 25 53.03125 30.171875 53.03125 
Q 35.9375 53.03125 39.625 50.640625 
Q 43.3125 48.25 44.828125 43.953125 
Q 50.984375 53.03125 60.84375 53.03125 
Q 68.5625 53.03125 72.703125 48.75 
Q 76.859375 44.484375 76.859375 35.59375 
L 76.859375 0 
L 68.109375 0 
L 68.109375 32.671875 
Q 68.109375 37.9375 67.25 40.25 
Q 66.40625 42.578125 64.15625 43.984375 
Q 61.921875 45.40625 58.890625 45.40625 
Q 53.421875 45.40625 49.796875 41.765625 
Q 46.1875 38.140625 46.1875 30.125 
L 46.1875 0 
L 37.40625 0 
L 37.40625 33.6875 
Q 37.40625 39.546875 35.25 42.46875 
Q 33.109375 45.40625 28.21875 45.40625 
Q 24.515625 45.40625 21.359375 43.453125 
Q 18.21875 41.5 16.796875 37.734375 
Q 15.375 33.984375 15.375 26.90625 
L 15.375 0 
z
" id="ArialMT-109"/>
      <path d="M 6.59375 -19.875 
L 6.59375 51.859375 
L 14.59375 51.859375 
L 14.59375 45.125 
Q 17.4375 49.078125 21 51.046875 
Q 24.5625 53.03125 29.640625 53.03125 
Q 36.28125 53.03125 41.359375 49.609375 
Q 46.4375 46.1875 49.015625 39.953125 
Q 51.609375 33.734375 51.609375 26.3125 
Q 51.609375 18.359375 48.75 11.984375 
Q 45.90625 5.609375 40.453125 2.21875 
Q 35.015625 -1.171875 29 -1.171875 
Q 24.609375 -1.171875 21.109375 0.6875 
Q 17.625 2.546875 15.375 5.375 
L 15.375 -19.875 
z
M 14.546875 25.640625 
Q 14.546875 15.625 18.59375 10.84375 
Q 22.65625 6.0625 28.421875 6.0625 
Q 34.28125 6.0625 38.453125 11.015625 
Q 42.625 15.96875 42.625 26.375 
Q 42.625 36.28125 38.546875 41.203125 
Q 34.46875 46.140625 28.8125 46.140625 
Q 23.1875 46.140625 18.859375 40.890625 
Q 14.546875 35.640625 14.546875 25.640625 
z
" id="ArialMT-112"/>
      <path id="ArialMT-32"/>
      <path d="M 3.078125 15.484375 
L 11.765625 16.84375 
Q 12.5 11.625 15.84375 8.84375 
Q 19.1875 6.0625 25.203125 6.0625 
Q 31.25 6.0625 34.171875 8.515625 
Q 37.109375 10.984375 37.109375 14.3125 
Q 37.109375 17.28125 34.515625 19 
Q 32.71875 20.171875 25.53125 21.96875 
Q 15.875 24.421875 12.140625 26.203125 
Q 8.40625 27.984375 6.46875 31.125 
Q 4.546875 34.28125 4.546875 38.09375 
Q 4.546875 41.546875 6.125 44.5 
Q 7.71875 47.46875 10.453125 49.421875 
Q 12.5 50.921875 16.03125 51.96875 
Q 19.578125 53.03125 23.640625 53.03125 
Q 29.734375 53.03125 34.34375 51.265625 
Q 38.96875 49.515625 41.15625 46.5 
Q 43.359375 43.5 44.1875 38.484375 
L 35.59375 37.3125 
Q 35.015625 41.3125 32.203125 43.546875 
Q 29.390625 45.796875 24.265625 45.796875 
Q 18.21875 45.796875 15.625 43.796875 
Q 13.03125 41.796875 13.03125 39.109375 
Q 13.03125 37.40625 14.109375 36.03125 
Q 15.1875 34.625 17.484375 33.6875 
Q 18.796875 33.203125 25.25 31.453125 
Q 34.578125 28.953125 38.25 27.359375 
Q 41.9375 25.78125 44.03125 22.75 
Q 46.140625 19.734375 46.140625 15.234375 
Q 46.140625 10.84375 43.578125 6.953125 
Q 41.015625 3.078125 36.171875 0.953125 
Q 31.34375 -1.171875 25.25 -1.171875 
Q 15.140625 -1.171875 9.84375 3.03125 
Q 4.546875 7.234375 3.078125 15.484375 
z
" id="ArialMT-115"/>
      <path d="M 16.15625 0 
L 0.296875 51.859375 
L 9.375 51.859375 
L 17.625 21.921875 
L 20.703125 10.796875 
Q 20.90625 11.625 23.390625 21.484375 
L 31.640625 51.859375 
L 40.671875 51.859375 
L 48.4375 21.78125 
L 51.03125 11.859375 
L 54 21.875 
L 62.890625 51.859375 
L 71.4375 51.859375 
L 55.21875 0 
L 46.09375 0 
L 37.84375 31.0625 
L 35.84375 39.890625 
L 25.34375 0 
z
" id="ArialMT-119"/>
      <path d="M 23.390625 -21.046875 
Q 16.109375 -11.859375 11.078125 0.4375 
Q 6.0625 12.75 6.0625 25.921875 
Q 6.0625 37.546875 9.8125 48.1875 
Q 14.203125 60.546875 23.390625 72.796875 
L 29.6875 72.796875 
Q 23.78125 62.640625 21.875 58.296875 
Q 18.890625 51.5625 17.1875 44.234375 
Q 15.09375 35.109375 15.09375 25.875 
Q 15.09375 2.390625 29.6875 -21.046875 
z
" id="ArialMT-40"/>
      <path d="M 7.328125 0 
L 7.328125 71.578125 
L 16.796875 71.578125 
L 16.796875 36.078125 
L 52.34375 71.578125 
L 65.1875 71.578125 
L 35.15625 42.578125 
L 66.5 0 
L 54 0 
L 28.515625 36.234375 
L 16.796875 24.8125 
L 16.796875 0 
z
" id="ArialMT-75"/>
      <path d="M 9.078125 0 
L 9.078125 10.015625 
L 19.09375 10.015625 
L 19.09375 0 
z
" id="ArialMT-46"/>
      <path d="M 20.21875 0 
L 1.21875 71.578125 
L 10.9375 71.578125 
L 21.828125 24.65625 
Q 23.578125 17.28125 24.859375 10.015625 
Q 27.59375 21.484375 28.078125 23.25 
L 41.703125 71.578125 
L 53.125 71.578125 
L 63.375 35.359375 
Q 67.234375 21.875 68.953125 10.015625 
Q 70.3125 16.796875 72.515625 25.59375 
L 83.734375 71.578125 
L 93.265625 71.578125 
L 73.640625 0 
L 64.5 0 
L 49.421875 54.546875 
Q 47.515625 61.375 47.171875 62.9375 
Q 46.046875 58.015625 45.0625 54.546875 
L 29.890625 0 
z
" id="ArialMT-87"/>
      <path d="M 52.828125 42.09375 
L 5.5625 42.09375 
L 5.5625 50.296875 
L 52.828125 50.296875 
z
M 52.828125 20.359375 
L 5.5625 20.359375 
L 5.5625 28.5625 
L 52.828125 28.5625 
z
" id="ArialMT-61"/>
      <path d="M 4.203125 18.890625 
L 12.984375 20.0625 
Q 14.5 12.59375 18.140625 9.296875 
Q 21.78125 6 27 6 
Q 33.203125 6 37.46875 10.296875 
Q 41.75 14.59375 41.75 20.953125 
Q 41.75 27 37.796875 30.921875 
Q 33.84375 34.859375 27.734375 34.859375 
Q 25.25 34.859375 21.53125 33.890625 
L 22.515625 41.609375 
Q 23.390625 41.5 23.921875 41.5 
Q 29.546875 41.5 34.03125 44.421875 
Q 38.53125 47.359375 38.53125 53.46875 
Q 38.53125 58.296875 35.25 61.46875 
Q 31.984375 64.65625 26.8125 64.65625 
Q 21.6875 64.65625 18.265625 61.421875 
Q 14.84375 58.203125 13.875 51.765625 
L 5.078125 53.328125 
Q 6.6875 62.15625 12.390625 67.015625 
Q 18.109375 71.875 26.609375 71.875 
Q 32.46875 71.875 37.390625 69.359375 
Q 42.328125 66.84375 44.9375 62.5 
Q 47.5625 58.15625 47.5625 53.265625 
Q 47.5625 48.640625 45.0625 44.828125 
Q 42.578125 41.015625 37.703125 38.765625 
Q 44.046875 37.3125 47.5625 32.6875 
Q 51.078125 28.078125 51.078125 21.140625 
Q 51.078125 11.765625 44.234375 5.25 
Q 37.40625 -1.265625 26.953125 -1.265625 
Q 17.53125 -1.265625 11.296875 4.34375 
Q 5.078125 9.96875 4.203125 18.890625 
z
" id="ArialMT-51"/>
      <path d="M 3.171875 21.484375 
L 3.171875 30.328125 
L 30.171875 30.328125 
L 30.171875 21.484375 
z
" id="ArialMT-45"/>
      <path d="M 12.359375 -21.046875 
L 6.0625 -21.046875 
Q 20.65625 2.390625 20.65625 25.875 
Q 20.65625 35.0625 18.5625 44.09375 
Q 16.890625 51.421875 13.921875 58.15625 
Q 12.015625 62.546875 6.0625 72.796875 
L 12.359375 72.796875 
Q 21.53125 60.546875 25.921875 48.1875 
Q 29.6875 37.546875 29.6875 25.921875 
Q 29.6875 12.75 24.625 0.4375 
Q 19.578125 -11.859375 12.359375 -21.046875 
z
" id="ArialMT-41"/>
     </defs>
     <use xlink:href="#ArialMT-67"/>
     <use x="72.216797" xlink:href="#ArialMT-97"/>
     <use x="127.832031" xlink:href="#ArialMT-109"/>
     <use x="211.132812" xlink:href="#ArialMT-112"/>
     <use x="266.748047" xlink:href="#ArialMT-121"/>
     <use x="316.748047" xlink:href="#ArialMT-108"/>
     <use x="338.964844" xlink:href="#ArialMT-111"/>
     <use x="394.580078" xlink:href="#ArialMT-98"/>
     <use x="450.195312" xlink:href="#ArialMT-97"/>
     <use x="505.810547" xlink:href="#ArialMT-99"/>
     <use x="555.810547" xlink:href="#ArialMT-116"/>
     <use x="583.59375" xlink:href="#ArialMT-101"/>
     <use x="639.208984" xlink:href="#ArialMT-114"/>
     <use x="672.509766" xlink:href="#ArialMT-32"/>
     <use x="700.292969" xlink:href="#ArialMT-115"/>
     <use x="750.292969" xlink:href="#ArialMT-104"/>
     <use x="805.908203" xlink:href="#ArialMT-111"/>
     <use x="861.523438" xlink:href="#ArialMT-119"/>
     <use x="933.740234" xlink:href="#ArialMT-97"/>
     <use x="989.355469" xlink:href="#ArialMT-101"/>
     <use x="1044.970703" xlink:href="#ArialMT-32"/>
     <use x="1072.753906" xlink:href="#ArialMT-40"/>
     <use x="1106.054688" xlink:href="#ArialMT-75"/>
     <use x="1172.753906" xlink:href="#ArialMT-46"/>
     <use x="1200.537109" xlink:href="#ArialMT-87"/>
     <use x="1289.421875" xlink:href="#ArialMT-46"/>
     <use x="1317.205078" xlink:href="#ArialMT-32"/>
     <use x="1344.988281" xlink:href="#ArialMT-112"/>
     <use x="1400.603516" xlink:href="#ArialMT-61"/>
     <use x="1459.001953" xlink:href="#ArialMT-50"/>
     <use x="1514.617188" xlink:href="#ArialMT-46"/>
     <use x="1542.400391" xlink:href="#ArialMT-50"/>
     <use x="1598.015625" xlink:href="#ArialMT-51"/>
     <use x="1653.630859" xlink:href="#ArialMT-101"/>
     <use x="1709.246094" xlink:href="#ArialMT-45"/>
     <use x="1742.546875" xlink:href="#ArialMT-49"/>
     <use x="1798.162109" xlink:href="#ArialMT-48"/>
     <use x="1853.777344" xlink:href="#ArialMT-41"/>
    </g>
   </g>
  </g>
 </g>
 <defs>
  <clipPath id="p52e68b4724">
   <rect height="1083.7" width="1011.87" x="230.13" y="96.24"/>
  </clipPath>
 </defs>
</svg>
