<?xml version="1.0" encoding="utf-8" standalone="no"?>
<!DOCTYPE svg PUBLIC "-//W3C//DTD SVG 1.1//EN"
  "http://www.w3.org/Graphics/SVG/1.1/DTD/svg11.dtd">
<!-- Created with matplotlib (https://matplotlib.org/) -->
<svg height="1296pt" version="1.1" viewBox="0 0 1296 1296" width="1296pt" xmlns="http://www.w3.org/2000/svg" xmlns:xlink="http://www.w3.org/1999/xlink">
 <metadata>
  <rdf:RDF xmlns:cc="http://creativecommons.org/ns#" xmlns:dc="http://purl.org/dc/elements/1.1/" xmlns:rdf="http://www.w3.org/1999/02/22-rdf-syntax-ns#">
   <cc:Work>
    <dc:type rdf:resource="http://purl.org/dc/dcmitype/StillImage"/>
    <dc:date>2022-06-29T13:55:10.106550</dc:date>
    <dc:format>image/svg+xml</dc:format>
    <dc:creator>
     <cc:Agent>
      <dc:title>Matplotlib v3.3.3, https://matplotlib.org/</dc:title>
     </cc:Agent>
    </dc:creator>
   </cc:Work>
  </rdf:RDF>
 </metadata>
 <defs>
  <style type="text/css">*{stroke-linecap:butt;stroke-linejoin:round;}</style>
 </defs>
 <g id="figure_1">
  <g id="patch_1">
   <path d="M 0 1296 
L 1296 1296 
L 1296 0 
L 0 0 
z
" style="fill:#ffffff;"/>
  </g>
  <g id="axes_1">
   <g id="patch_2">
    <path d="M 230.13 1179.94 
L 1235.695575 1179.94 
L 1235.695575 96.12 
L 230.13 96.12 
z
" style="fill:#ffffff;"/>
   </g>
   <g id="matplotlib.axis_1">
    <g id="xtick_1">
     <g id="text_1">
      <!-- Healthy -->
      <g style="fill:#262626;" transform="translate(295.410848 1231.229063)scale(0.5 -0.5)">
       <defs>
        <path d="M 8.015625 0 
L 8.015625 71.578125 
L 17.484375 71.578125 
L 17.484375 42.1875 
L 54.6875 42.1875 
L 54.6875 71.578125 
L 64.15625 71.578125 
L 64.15625 0 
L 54.6875 0 
L 54.6875 33.734375 
L 17.484375 33.734375 
L 17.484375 0 
z
" id="ArialMT-72"/>
        <path d="M 42.09375 16.703125 
L 51.171875 15.578125 
Q 49.03125 7.625 43.21875 3.21875 
Q 37.40625 -1.171875 28.375 -1.171875 
Q 17 -1.171875 10.328125 5.828125 
Q 3.65625 12.84375 3.65625 25.484375 
Q 3.65625 38.578125 10.390625 45.796875 
Q 17.140625 53.03125 27.875 53.03125 
Q 38.28125 53.03125 44.875 45.953125 
Q 51.46875 38.875 51.46875 26.03125 
Q 51.46875 25.25 51.421875 23.6875 
L 12.75 23.6875 
Q 13.234375 15.140625 17.578125 10.59375 
Q 21.921875 6.0625 28.421875 6.0625 
Q 33.25 6.0625 36.671875 8.59375 
Q 40.09375 11.140625 42.09375 16.703125 
z
M 13.234375 30.90625 
L 42.1875 30.90625 
Q 41.609375 37.453125 38.875 40.71875 
Q 34.671875 45.796875 27.984375 45.796875 
Q 21.921875 45.796875 17.796875 41.75 
Q 13.671875 37.703125 13.234375 30.90625 
z
" id="ArialMT-101"/>
        <path d="M 40.4375 6.390625 
Q 35.546875 2.25 31.03125 0.53125 
Q 26.515625 -1.171875 21.34375 -1.171875 
Q 12.796875 -1.171875 8.203125 3 
Q 3.609375 7.171875 3.609375 13.671875 
Q 3.609375 17.484375 5.34375 20.625 
Q 7.078125 23.78125 9.890625 25.6875 
Q 12.703125 27.59375 16.21875 28.5625 
Q 18.796875 29.25 24.03125 29.890625 
Q 34.671875 31.15625 39.703125 32.90625 
Q 39.75 34.71875 39.75 35.203125 
Q 39.75 40.578125 37.25 42.78125 
Q 33.890625 45.75 27.25 45.75 
Q 21.046875 45.75 18.09375 43.578125 
Q 15.140625 41.40625 13.71875 35.890625 
L 5.125 37.0625 
Q 6.296875 42.578125 8.984375 45.96875 
Q 11.671875 49.359375 16.75 51.1875 
Q 21.828125 53.03125 28.515625 53.03125 
Q 35.15625 53.03125 39.296875 51.46875 
Q 43.453125 49.90625 45.40625 47.53125 
Q 47.359375 45.171875 48.140625 41.546875 
Q 48.578125 39.3125 48.578125 33.453125 
L 48.578125 21.734375 
Q 48.578125 9.46875 49.140625 6.21875 
Q 49.703125 2.984375 51.375 0 
L 42.1875 0 
Q 40.828125 2.734375 40.4375 6.390625 
z
M 39.703125 26.03125 
Q 34.90625 24.078125 25.34375 22.703125 
Q 19.921875 21.921875 17.671875 20.9375 
Q 15.4375 19.96875 14.203125 18.09375 
Q 12.984375 16.21875 12.984375 13.921875 
Q 12.984375 10.40625 15.640625 8.0625 
Q 18.3125 5.71875 23.4375 5.71875 
Q 28.515625 5.71875 32.46875 7.9375 
Q 36.421875 10.15625 38.28125 14.015625 
Q 39.703125 17 39.703125 22.796875 
z
" id="ArialMT-97"/>
        <path d="M 6.390625 0 
L 6.390625 71.578125 
L 15.1875 71.578125 
L 15.1875 0 
z
" id="ArialMT-108"/>
        <path d="M 25.78125 7.859375 
L 27.046875 0.09375 
Q 23.34375 -0.6875 20.40625 -0.6875 
Q 15.625 -0.6875 12.984375 0.828125 
Q 10.359375 2.34375 9.28125 4.8125 
Q 8.203125 7.28125 8.203125 15.1875 
L 8.203125 45.015625 
L 1.765625 45.015625 
L 1.765625 51.859375 
L 8.203125 51.859375 
L 8.203125 64.703125 
L 16.9375 69.96875 
L 16.9375 51.859375 
L 25.78125 51.859375 
L 25.78125 45.015625 
L 16.9375 45.015625 
L 16.9375 14.703125 
Q 16.9375 10.9375 17.40625 9.859375 
Q 17.875 8.796875 18.921875 8.15625 
Q 19.96875 7.515625 21.921875 7.515625 
Q 23.390625 7.515625 25.78125 7.859375 
z
" id="ArialMT-116"/>
        <path d="M 6.59375 0 
L 6.59375 71.578125 
L 15.375 71.578125 
L 15.375 45.90625 
Q 21.53125 53.03125 30.90625 53.03125 
Q 36.671875 53.03125 40.921875 50.75 
Q 45.171875 48.484375 47 44.484375 
Q 48.828125 40.484375 48.828125 32.859375 
L 48.828125 0 
L 40.046875 0 
L 40.046875 32.859375 
Q 40.046875 39.453125 37.1875 42.453125 
Q 34.328125 45.453125 29.109375 45.453125 
Q 25.203125 45.453125 21.75 43.421875 
Q 18.3125 41.40625 16.84375 37.9375 
Q 15.375 34.46875 15.375 28.375 
L 15.375 0 
z
" id="ArialMT-104"/>
        <path d="M 6.203125 -19.96875 
L 5.21875 -11.71875 
Q 8.109375 -12.5 10.25 -12.5 
Q 13.1875 -12.5 14.9375 -11.515625 
Q 16.703125 -10.546875 17.828125 -8.796875 
Q 18.65625 -7.46875 20.515625 -2.25 
Q 20.75 -1.515625 21.296875 -0.09375 
L 1.609375 51.859375 
L 11.078125 51.859375 
L 21.875 21.828125 
Q 23.96875 16.109375 25.640625 9.8125 
Q 27.15625 15.875 29.25 21.625 
L 40.328125 51.859375 
L 49.125 51.859375 
L 29.390625 -0.875 
Q 26.21875 -9.421875 24.46875 -12.640625 
Q 22.125 -17 19.09375 -19.015625 
Q 16.0625 -21.046875 11.859375 -21.046875 
Q 9.328125 -21.046875 6.203125 -19.96875 
z
" id="ArialMT-121"/>
       </defs>
       <use xlink:href="#ArialMT-72"/>
       <use x="72.216797" xlink:href="#ArialMT-101"/>
       <use x="127.832031" xlink:href="#ArialMT-97"/>
       <use x="183.447266" xlink:href="#ArialMT-108"/>
       <use x="205.664062" xlink:href="#ArialMT-116"/>
       <use x="233.447266" xlink:href="#ArialMT-104"/>
       <use x="289.0625" xlink:href="#ArialMT-121"/>
      </g>
     </g>
    </g>
    <g id="xtick_2">
     <g id="text_2">
      <!-- Slight -->
      <g style="fill:#262626;" transform="translate(578.475012 1231.838438)scale(0.5 -0.5)">
       <defs>
        <path d="M 4.5 23 
L 13.421875 23.78125 
Q 14.0625 18.40625 16.375 14.96875 
Q 18.703125 11.53125 23.578125 9.40625 
Q 28.46875 7.28125 34.578125 7.28125 
Q 39.984375 7.28125 44.140625 8.890625 
Q 48.296875 10.5 50.3125 13.296875 
Q 52.34375 16.109375 52.34375 19.4375 
Q 52.34375 22.796875 50.390625 25.3125 
Q 48.4375 27.828125 43.953125 29.546875 
Q 41.0625 30.671875 31.203125 33.03125 
Q 21.34375 35.40625 17.390625 37.5 
Q 12.25 40.1875 9.734375 44.15625 
Q 7.234375 48.140625 7.234375 53.078125 
Q 7.234375 58.5 10.296875 63.203125 
Q 13.375 67.921875 19.28125 70.359375 
Q 25.203125 72.796875 32.421875 72.796875 
Q 40.375 72.796875 46.453125 70.234375 
Q 52.546875 67.671875 55.8125 62.6875 
Q 59.078125 57.71875 59.328125 51.421875 
L 50.25 50.734375 
Q 49.515625 57.515625 45.28125 60.984375 
Q 41.0625 64.453125 32.8125 64.453125 
Q 24.21875 64.453125 20.28125 61.296875 
Q 16.359375 58.15625 16.359375 53.71875 
Q 16.359375 49.859375 19.140625 47.359375 
Q 21.875 44.875 33.421875 42.265625 
Q 44.96875 39.65625 49.265625 37.703125 
Q 55.515625 34.8125 58.484375 30.390625 
Q 61.46875 25.984375 61.46875 20.21875 
Q 61.46875 14.5 58.203125 9.4375 
Q 54.9375 4.390625 48.796875 1.578125 
Q 42.671875 -1.21875 35.015625 -1.21875 
Q 25.296875 -1.21875 18.71875 1.609375 
Q 12.15625 4.4375 8.421875 10.125 
Q 4.6875 15.828125 4.5 23 
z
" id="ArialMT-83"/>
        <path d="M 6.640625 61.46875 
L 6.640625 71.578125 
L 15.4375 71.578125 
L 15.4375 61.46875 
z
M 6.640625 0 
L 6.640625 51.859375 
L 15.4375 51.859375 
L 15.4375 0 
z
" id="ArialMT-105"/>
        <path d="M 4.984375 -4.296875 
L 13.53125 -5.5625 
Q 14.0625 -9.515625 16.5 -11.328125 
Q 19.78125 -13.765625 25.4375 -13.765625 
Q 31.546875 -13.765625 34.859375 -11.328125 
Q 38.1875 -8.890625 39.359375 -4.5 
Q 40.046875 -1.8125 39.984375 6.78125 
Q 34.234375 0 25.640625 0 
Q 14.9375 0 9.078125 7.71875 
Q 3.21875 15.4375 3.21875 26.21875 
Q 3.21875 33.640625 5.90625 39.90625 
Q 8.59375 46.1875 13.6875 49.609375 
Q 18.796875 53.03125 25.6875 53.03125 
Q 34.859375 53.03125 40.828125 45.609375 
L 40.828125 51.859375 
L 48.921875 51.859375 
L 48.921875 7.03125 
Q 48.921875 -5.078125 46.453125 -10.125 
Q 44 -15.1875 38.640625 -18.109375 
Q 33.296875 -21.046875 25.484375 -21.046875 
Q 16.21875 -21.046875 10.5 -16.875 
Q 4.78125 -12.703125 4.984375 -4.296875 
z
M 12.25 26.859375 
Q 12.25 16.65625 16.296875 11.96875 
Q 20.359375 7.28125 26.46875 7.28125 
Q 32.515625 7.28125 36.609375 11.9375 
Q 40.71875 16.609375 40.71875 26.5625 
Q 40.71875 36.078125 36.5 40.90625 
Q 32.28125 45.75 26.3125 45.75 
Q 20.453125 45.75 16.34375 40.984375 
Q 12.25 36.234375 12.25 26.859375 
z
" id="ArialMT-103"/>
       </defs>
       <use xlink:href="#ArialMT-83"/>
       <use x="66.699219" xlink:href="#ArialMT-108"/>
       <use x="88.916016" xlink:href="#ArialMT-105"/>
       <use x="111.132812" xlink:href="#ArialMT-103"/>
       <use x="166.748047" xlink:href="#ArialMT-104"/>
       <use x="222.363281" xlink:href="#ArialMT-116"/>
      </g>
     </g>
    </g>
    <g id="xtick_3">
     <g id="text_3">
      <!-- Moderate -->
      <g style="fill:#262626;" transform="translate(796.242302 1231.229063)scale(0.5 -0.5)">
       <defs>
        <path d="M 7.421875 0 
L 7.421875 71.578125 
L 21.6875 71.578125 
L 38.625 20.90625 
Q 40.96875 13.8125 42.046875 10.296875 
Q 43.265625 14.203125 45.84375 21.78125 
L 62.984375 71.578125 
L 75.734375 71.578125 
L 75.734375 0 
L 66.609375 0 
L 66.609375 59.90625 
L 45.796875 0 
L 37.25 0 
L 16.546875 60.9375 
L 16.546875 0 
z
" id="ArialMT-77"/>
        <path d="M 3.328125 25.921875 
Q 3.328125 40.328125 11.328125 47.265625 
Q 18.015625 53.03125 27.640625 53.03125 
Q 38.328125 53.03125 45.109375 46.015625 
Q 51.90625 39.015625 51.90625 26.65625 
Q 51.90625 16.65625 48.90625 10.90625 
Q 45.90625 5.171875 40.15625 2 
Q 34.421875 -1.171875 27.640625 -1.171875 
Q 16.75 -1.171875 10.03125 5.8125 
Q 3.328125 12.796875 3.328125 25.921875 
z
M 12.359375 25.921875 
Q 12.359375 15.96875 16.703125 11.015625 
Q 21.046875 6.0625 27.640625 6.0625 
Q 34.1875 6.0625 38.53125 11.03125 
Q 42.875 16.015625 42.875 26.21875 
Q 42.875 35.84375 38.5 40.796875 
Q 34.125 45.75 27.640625 45.75 
Q 21.046875 45.75 16.703125 40.8125 
Q 12.359375 35.890625 12.359375 25.921875 
z
" id="ArialMT-111"/>
        <path d="M 40.234375 0 
L 40.234375 6.546875 
Q 35.296875 -1.171875 25.734375 -1.171875 
Q 19.53125 -1.171875 14.328125 2.25 
Q 9.125 5.671875 6.265625 11.796875 
Q 3.421875 17.921875 3.421875 25.875 
Q 3.421875 33.640625 6 39.96875 
Q 8.59375 46.296875 13.765625 49.65625 
Q 18.953125 53.03125 25.34375 53.03125 
Q 30.03125 53.03125 33.6875 51.046875 
Q 37.359375 49.078125 39.65625 45.90625 
L 39.65625 71.578125 
L 48.390625 71.578125 
L 48.390625 0 
z
M 12.453125 25.875 
Q 12.453125 15.921875 16.640625 10.984375 
Q 20.84375 6.0625 26.5625 6.0625 
Q 32.328125 6.0625 36.34375 10.765625 
Q 40.375 15.484375 40.375 25.140625 
Q 40.375 35.796875 36.265625 40.765625 
Q 32.171875 45.75 26.171875 45.75 
Q 20.3125 45.75 16.375 40.96875 
Q 12.453125 36.1875 12.453125 25.875 
z
" id="ArialMT-100"/>
        <path d="M 6.5 0 
L 6.5 51.859375 
L 14.40625 51.859375 
L 14.40625 44 
Q 17.4375 49.515625 20 51.265625 
Q 22.5625 53.03125 25.640625 53.03125 
Q 30.078125 53.03125 34.671875 50.203125 
L 31.640625 42.046875 
Q 28.421875 43.953125 25.203125 43.953125 
Q 22.3125 43.953125 20.015625 42.21875 
Q 17.71875 40.484375 16.75 37.40625 
Q 15.28125 32.71875 15.28125 27.15625 
L 15.28125 0 
z
" id="ArialMT-114"/>
       </defs>
       <use xlink:href="#ArialMT-77"/>
       <use x="83.300781" xlink:href="#ArialMT-111"/>
       <use x="138.916016" xlink:href="#ArialMT-100"/>
       <use x="194.53125" xlink:href="#ArialMT-101"/>
       <use x="250.146484" xlink:href="#ArialMT-114"/>
       <use x="283.447266" xlink:href="#ArialMT-97"/>
       <use x="339.0625" xlink:href="#ArialMT-116"/>
       <use x="366.845703" xlink:href="#ArialMT-101"/>
      </g>
     </g>
    </g>
    <g id="xtick_4">
     <g id="text_4">
      <!-- Severe -->
      <g style="fill:#262626;" transform="translate(1083.478341 1231.229063)scale(0.5 -0.5)">
       <defs>
        <path d="M 21 0 
L 1.265625 51.859375 
L 10.546875 51.859375 
L 21.6875 20.796875 
Q 23.484375 15.765625 25 10.359375 
Q 26.171875 14.453125 28.265625 20.21875 
L 39.796875 51.859375 
L 48.828125 51.859375 
L 29.203125 0 
z
" id="ArialMT-118"/>
       </defs>
       <use xlink:href="#ArialMT-83"/>
       <use x="66.699219" xlink:href="#ArialMT-101"/>
       <use x="122.314453" xlink:href="#ArialMT-118"/>
       <use x="172.314453" xlink:href="#ArialMT-101"/>
       <use x="227.929688" xlink:href="#ArialMT-114"/>
       <use x="261.230469" xlink:href="#ArialMT-101"/>
      </g>
     </g>
    </g>
   </g>
   <g id="matplotlib.axis_2">
    <g id="ytick_1">
     <g id="line2d_1">
      <path clip-path="url(#ped5afa7d72)" d="M 230.13 1103.466056 
L 1235.695575 1103.466056 
" style="fill:none;stroke:#cccccc;stroke-linecap:round;stroke-width:2;"/>
     </g>
     <g id="text_5">
      <!-- 0 -->
      <g style="fill:#262626;" transform="translate(186.825312 1121.360587)scale(0.5 -0.5)">
       <defs>
        <path d="M 4.15625 35.296875 
Q 4.15625 48 6.765625 55.734375 
Q 9.375 63.484375 14.515625 67.671875 
Q 19.671875 71.875 27.484375 71.875 
Q 33.25 71.875 37.59375 69.546875 
Q 41.9375 67.234375 44.765625 62.859375 
Q 47.609375 58.5 49.21875 52.21875 
Q 50.828125 45.953125 50.828125 35.296875 
Q 50.828125 22.703125 48.234375 14.96875 
Q 45.65625 7.234375 40.5 3 
Q 35.359375 -1.21875 27.484375 -1.21875 
Q 17.140625 -1.21875 11.234375 6.203125 
Q 4.15625 15.140625 4.15625 35.296875 
z
M 13.1875 35.296875 
Q 13.1875 17.671875 17.3125 11.828125 
Q 21.4375 6 27.484375 6 
Q 33.546875 6 37.671875 11.859375 
Q 41.796875 17.71875 41.796875 35.296875 
Q 41.796875 52.984375 37.671875 58.78125 
Q 33.546875 64.59375 27.390625 64.59375 
Q 21.34375 64.59375 17.71875 59.46875 
Q 13.1875 52.9375 13.1875 35.296875 
z
" id="ArialMT-48"/>
       </defs>
       <use xlink:href="#ArialMT-48"/>
      </g>
     </g>
    </g>
    <g id="ytick_2">
     <g id="line2d_2">
      <path clip-path="url(#ped5afa7d72)" d="M 230.13 965.611697 
L 1235.695575 965.611697 
" style="fill:none;stroke:#cccccc;stroke-linecap:round;stroke-width:2;"/>
     </g>
     <g id="text_6">
      <!-- 500 -->
      <g style="fill:#262626;" transform="translate(131.215937 983.506228)scale(0.5 -0.5)">
       <defs>
        <path d="M 4.15625 18.75 
L 13.375 19.53125 
Q 14.40625 12.796875 18.140625 9.390625 
Q 21.875 6 27.15625 6 
Q 33.5 6 37.890625 10.78125 
Q 42.28125 15.578125 42.28125 23.484375 
Q 42.28125 31 38.0625 35.34375 
Q 33.84375 39.703125 27 39.703125 
Q 22.75 39.703125 19.328125 37.765625 
Q 15.921875 35.84375 13.96875 32.765625 
L 5.71875 33.84375 
L 12.640625 70.609375 
L 48.25 70.609375 
L 48.25 62.203125 
L 19.671875 62.203125 
L 15.828125 42.96875 
Q 22.265625 47.46875 29.34375 47.46875 
Q 38.71875 47.46875 45.15625 40.96875 
Q 51.609375 34.46875 51.609375 24.265625 
Q 51.609375 14.546875 45.953125 7.46875 
Q 39.0625 -1.21875 27.15625 -1.21875 
Q 17.390625 -1.21875 11.203125 4.25 
Q 5.03125 9.71875 4.15625 18.75 
z
" id="ArialMT-53"/>
       </defs>
       <use xlink:href="#ArialMT-53"/>
       <use x="55.615234" xlink:href="#ArialMT-48"/>
       <use x="111.230469" xlink:href="#ArialMT-48"/>
      </g>
     </g>
    </g>
    <g id="ytick_3">
     <g id="line2d_3">
      <path clip-path="url(#ped5afa7d72)" d="M 230.13 827.757338 
L 1235.695575 827.757338 
" style="fill:none;stroke:#cccccc;stroke-linecap:round;stroke-width:2;"/>
     </g>
     <g id="text_7">
      <!-- 1000 -->
      <g style="fill:#262626;" transform="translate(103.41125 845.651869)scale(0.5 -0.5)">
       <defs>
        <path d="M 37.25 0 
L 28.46875 0 
L 28.46875 56 
Q 25.296875 52.984375 20.140625 49.953125 
Q 14.984375 46.921875 10.890625 45.40625 
L 10.890625 53.90625 
Q 18.265625 57.375 23.78125 62.296875 
Q 29.296875 67.234375 31.59375 71.875 
L 37.25 71.875 
z
" id="ArialMT-49"/>
       </defs>
       <use xlink:href="#ArialMT-49"/>
       <use x="55.615234" xlink:href="#ArialMT-48"/>
       <use x="111.230469" xlink:href="#ArialMT-48"/>
       <use x="166.845703" xlink:href="#ArialMT-48"/>
      </g>
     </g>
    </g>
    <g id="ytick_4">
     <g id="line2d_4">
      <path clip-path="url(#ped5afa7d72)" d="M 230.13 689.902979 
L 1235.695575 689.902979 
" style="fill:none;stroke:#cccccc;stroke-linecap:round;stroke-width:2;"/>
     </g>
     <g id="text_8">
      <!-- 1500 -->
      <g style="fill:#262626;" transform="translate(103.41125 707.797511)scale(0.5 -0.5)">
       <use xlink:href="#ArialMT-49"/>
       <use x="55.615234" xlink:href="#ArialMT-53"/>
       <use x="111.230469" xlink:href="#ArialMT-48"/>
       <use x="166.845703" xlink:href="#ArialMT-48"/>
      </g>
     </g>
    </g>
    <g id="ytick_5">
     <g id="line2d_5">
      <path clip-path="url(#ped5afa7d72)" d="M 230.13 552.048621 
L 1235.695575 552.048621 
" style="fill:none;stroke:#cccccc;stroke-linecap:round;stroke-width:2;"/>
     </g>
     <g id="text_9">
      <!-- 2000 -->
      <g style="fill:#262626;" transform="translate(103.41125 569.943152)scale(0.5 -0.5)">
       <defs>
        <path d="M 50.34375 8.453125 
L 50.34375 0 
L 3.03125 0 
Q 2.9375 3.171875 4.046875 6.109375 
Q 5.859375 10.9375 9.828125 15.625 
Q 13.8125 20.3125 21.34375 26.46875 
Q 33.015625 36.03125 37.109375 41.625 
Q 41.21875 47.21875 41.21875 52.203125 
Q 41.21875 57.421875 37.46875 61 
Q 33.734375 64.59375 27.734375 64.59375 
Q 21.390625 64.59375 17.578125 60.78125 
Q 13.765625 56.984375 13.71875 50.25 
L 4.6875 51.171875 
Q 5.609375 61.28125 11.65625 66.578125 
Q 17.71875 71.875 27.9375 71.875 
Q 38.234375 71.875 44.234375 66.15625 
Q 50.25 60.453125 50.25 52 
Q 50.25 47.703125 48.484375 43.546875 
Q 46.734375 39.40625 42.65625 34.8125 
Q 38.578125 30.21875 29.109375 22.21875 
Q 21.1875 15.578125 18.9375 13.203125 
Q 16.703125 10.84375 15.234375 8.453125 
z
" id="ArialMT-50"/>
       </defs>
       <use xlink:href="#ArialMT-50"/>
       <use x="55.615234" xlink:href="#ArialMT-48"/>
       <use x="111.230469" xlink:href="#ArialMT-48"/>
       <use x="166.845703" xlink:href="#ArialMT-48"/>
      </g>
     </g>
    </g>
    <g id="ytick_6">
     <g id="line2d_6">
      <path clip-path="url(#ped5afa7d72)" d="M 230.13 414.194262 
L 1235.695575 414.194262 
" style="fill:none;stroke:#cccccc;stroke-linecap:round;stroke-width:2;"/>
     </g>
     <g id="text_10">
      <!-- 2500 -->
      <g style="fill:#262626;" transform="translate(103.41125 432.088793)scale(0.5 -0.5)">
       <use xlink:href="#ArialMT-50"/>
       <use x="55.615234" xlink:href="#ArialMT-53"/>
       <use x="111.230469" xlink:href="#ArialMT-48"/>
       <use x="166.845703" xlink:href="#ArialMT-48"/>
      </g>
     </g>
    </g>
    <g id="ytick_7">
     <g id="line2d_7">
      <path clip-path="url(#ped5afa7d72)" d="M 230.13 276.339903 
L 1235.695575 276.339903 
" style="fill:none;stroke:#cccccc;stroke-linecap:round;stroke-width:2;"/>
     </g>
     <g id="text_11">
      <!-- 3000 -->
      <g style="fill:#262626;" transform="translate(103.41125 294.234434)scale(0.5 -0.5)">
       <defs>
        <path d="M 4.203125 18.890625 
L 12.984375 20.0625 
Q 14.5 12.59375 18.140625 9.296875 
Q 21.78125 6 27 6 
Q 33.203125 6 37.46875 10.296875 
Q 41.75 14.59375 41.75 20.953125 
Q 41.75 27 37.796875 30.921875 
Q 33.84375 34.859375 27.734375 34.859375 
Q 25.25 34.859375 21.53125 33.890625 
L 22.515625 41.609375 
Q 23.390625 41.5 23.921875 41.5 
Q 29.546875 41.5 34.03125 44.421875 
Q 38.53125 47.359375 38.53125 53.46875 
Q 38.53125 58.296875 35.25 61.46875 
Q 31.984375 64.65625 26.8125 64.65625 
Q 21.6875 64.65625 18.265625 61.421875 
Q 14.84375 58.203125 13.875 51.765625 
L 5.078125 53.328125 
Q 6.6875 62.15625 12.390625 67.015625 
Q 18.109375 71.875 26.609375 71.875 
Q 32.46875 71.875 37.390625 69.359375 
Q 42.328125 66.84375 44.9375 62.5 
Q 47.5625 58.15625 47.5625 53.265625 
Q 47.5625 48.640625 45.0625 44.828125 
Q 42.578125 41.015625 37.703125 38.765625 
Q 44.046875 37.3125 47.5625 32.6875 
Q 51.078125 28.078125 51.078125 21.140625 
Q 51.078125 11.765625 44.234375 5.25 
Q 37.40625 -1.265625 26.953125 -1.265625 
Q 17.53125 -1.265625 11.296875 4.34375 
Q 5.078125 9.96875 4.203125 18.890625 
z
" id="ArialMT-51"/>
       </defs>
       <use xlink:href="#ArialMT-51"/>
       <use x="55.615234" xlink:href="#ArialMT-48"/>
       <use x="111.230469" xlink:href="#ArialMT-48"/>
       <use x="166.845703" xlink:href="#ArialMT-48"/>
      </g>
     </g>
    </g>
    <g id="ytick_8">
     <g id="line2d_8">
      <path clip-path="url(#ped5afa7d72)" d="M 230.13 138.485544 
L 1235.695575 138.485544 
" style="fill:none;stroke:#cccccc;stroke-linecap:round;stroke-width:2;"/>
     </g>
     <g id="text_12">
      <!-- 3500 -->
      <g style="fill:#262626;" transform="translate(103.41125 156.380076)scale(0.5 -0.5)">
       <use xlink:href="#ArialMT-51"/>
       <use x="55.615234" xlink:href="#ArialMT-53"/>
       <use x="111.230469" xlink:href="#ArialMT-48"/>
       <use x="166.845703" xlink:href="#ArialMT-48"/>
      </g>
     </g>
    </g>
    <g id="text_13">
     <!-- Abundance -->
     <g style="fill:#262626;" transform="translate(89.47375 764.522187)rotate(-90)scale(0.5 -0.5)">
      <defs>
       <path d="M -0.140625 0 
L 27.34375 71.578125 
L 37.546875 71.578125 
L 66.84375 0 
L 56.0625 0 
L 47.703125 21.6875 
L 17.78125 21.6875 
L 9.90625 0 
z
M 20.515625 29.390625 
L 44.78125 29.390625 
L 37.3125 49.21875 
Q 33.890625 58.25 32.234375 64.0625 
Q 30.859375 57.171875 28.375 50.390625 
z
" id="ArialMT-65"/>
       <path d="M 14.703125 0 
L 6.546875 0 
L 6.546875 71.578125 
L 15.328125 71.578125 
L 15.328125 46.046875 
Q 20.90625 53.03125 29.546875 53.03125 
Q 34.328125 53.03125 38.59375 51.09375 
Q 42.875 49.171875 45.625 45.671875 
Q 48.390625 42.1875 49.953125 37.25 
Q 51.515625 32.328125 51.515625 26.703125 
Q 51.515625 13.375 44.921875 6.09375 
Q 38.328125 -1.171875 29.109375 -1.171875 
Q 19.921875 -1.171875 14.703125 6.5 
z
M 14.59375 26.3125 
Q 14.59375 17 17.140625 12.84375 
Q 21.296875 6.0625 28.375 6.0625 
Q 34.125 6.0625 38.328125 11.0625 
Q 42.53125 16.0625 42.53125 25.984375 
Q 42.53125 36.140625 38.5 40.96875 
Q 34.46875 45.796875 28.765625 45.796875 
Q 23 45.796875 18.796875 40.796875 
Q 14.59375 35.796875 14.59375 26.3125 
z
" id="ArialMT-98"/>
       <path d="M 40.578125 0 
L 40.578125 7.625 
Q 34.515625 -1.171875 24.125 -1.171875 
Q 19.53125 -1.171875 15.546875 0.578125 
Q 11.578125 2.34375 9.640625 5 
Q 7.71875 7.671875 6.9375 11.53125 
Q 6.390625 14.109375 6.390625 19.734375 
L 6.390625 51.859375 
L 15.1875 51.859375 
L 15.1875 23.09375 
Q 15.1875 16.21875 15.71875 13.8125 
Q 16.546875 10.359375 19.234375 8.375 
Q 21.921875 6.390625 25.875 6.390625 
Q 29.828125 6.390625 33.296875 8.421875 
Q 36.765625 10.453125 38.203125 13.9375 
Q 39.65625 17.4375 39.65625 24.078125 
L 39.65625 51.859375 
L 48.4375 51.859375 
L 48.4375 0 
z
" id="ArialMT-117"/>
       <path d="M 6.59375 0 
L 6.59375 51.859375 
L 14.5 51.859375 
L 14.5 44.484375 
Q 20.21875 53.03125 31 53.03125 
Q 35.6875 53.03125 39.625 51.34375 
Q 43.5625 49.65625 45.515625 46.921875 
Q 47.46875 44.1875 48.25 40.4375 
Q 48.734375 37.984375 48.734375 31.890625 
L 48.734375 0 
L 39.9375 0 
L 39.9375 31.546875 
Q 39.9375 36.921875 38.90625 39.578125 
Q 37.890625 42.234375 35.28125 43.8125 
Q 32.671875 45.40625 29.15625 45.40625 
Q 23.53125 45.40625 19.453125 41.84375 
Q 15.375 38.28125 15.375 28.328125 
L 15.375 0 
z
" id="ArialMT-110"/>
       <path d="M 40.4375 19 
L 49.078125 17.875 
Q 47.65625 8.9375 41.8125 3.875 
Q 35.984375 -1.171875 27.484375 -1.171875 
Q 16.84375 -1.171875 10.375 5.78125 
Q 3.90625 12.75 3.90625 25.734375 
Q 3.90625 34.125 6.6875 40.421875 
Q 9.46875 46.734375 15.15625 49.875 
Q 20.84375 53.03125 27.546875 53.03125 
Q 35.984375 53.03125 41.359375 48.75 
Q 46.734375 44.484375 48.25 36.625 
L 39.703125 35.296875 
Q 38.484375 40.53125 35.375 43.15625 
Q 32.28125 45.796875 27.875 45.796875 
Q 21.234375 45.796875 17.078125 41.03125 
Q 12.9375 36.28125 12.9375 25.984375 
Q 12.9375 15.53125 16.9375 10.796875 
Q 20.953125 6.0625 27.390625 6.0625 
Q 32.5625 6.0625 36.03125 9.234375 
Q 39.5 12.40625 40.4375 19 
z
" id="ArialMT-99"/>
      </defs>
      <use xlink:href="#ArialMT-65"/>
      <use x="66.699219" xlink:href="#ArialMT-98"/>
      <use x="122.314453" xlink:href="#ArialMT-117"/>
      <use x="177.929688" xlink:href="#ArialMT-110"/>
      <use x="233.544922" xlink:href="#ArialMT-100"/>
      <use x="289.160156" xlink:href="#ArialMT-97"/>
      <use x="344.775391" xlink:href="#ArialMT-110"/>
      <use x="400.390625" xlink:href="#ArialMT-99"/>
      <use x="450.390625" xlink:href="#ArialMT-101"/>
     </g>
    </g>
   </g>
   <g id="PolyCollection_1">
    <defs>
     <path d="M 438.286611 -179.765239 
L 322.058522 -179.765239 
L 311.786619 -181.91695 
L 301.842224 -184.06866 
L 292.816217 -186.220371 
L 285.28414 -188.372081 
L 279.739707 -190.523792 
L 276.534952 -192.675502 
L 275.837526 -194.827213 
L 277.61277 -196.978923 
L 281.633531 -199.130634 
L 287.515354 -201.282344 
L 294.770017 -203.434055 
L 302.867424 -205.585765 
L 311.295299 -207.737476 
L 319.607777 -209.889186 
L 327.457289 -212.040897 
L 334.608026 -214.192607 
L 340.932842 -216.344318 
L 346.397855 -218.496028 
L 351.040064 -220.647739 
L 354.943025 -222.799449 
L 358.214455 -224.95116 
L 360.968118 -227.10287 
L 363.310866 -229.25458 
L 365.334641 -231.406291 
L 367.112643 -233.558001 
L 368.69865 -235.709712 
L 370.128553 -237.861422 
L 371.423329 -240.013133 
L 372.592814 -242.164843 
L 373.639772 -244.316554 
L 374.563766 -246.468264 
L 375.364418 -248.619975 
L 376.043725 -250.771685 
L 376.607226 -252.923396 
L 377.064028 -255.075106 
L 377.425887 -257.226817 
L 377.705704 -259.378527 
L 377.915878 -261.530238 
L 378.066959 -263.681948 
L 378.166915 -265.833659 
L 378.221159 -267.985369 
L 378.233307 -270.13708 
L 378.206423 -272.28879 
L 378.144441 -274.440501 
L 378.053386 -276.592211 
L 377.942092 -278.743922 
L 377.822229 -280.895632 
L 377.707596 -283.047343 
L 377.612809 -285.199053 
L 377.551627 -287.350763 
L 377.535233 -289.502474 
L 377.570779 -291.654184 
L 377.660453 -293.805895 
L 377.801208 -295.957605 
L 377.985166 -298.109316 
L 378.200579 -300.261026 
L 378.43316 -302.412737 
L 378.667526 -304.564447 
L 378.888552 -306.716158 
L 379.08245 -308.867868 
L 379.23753 -311.019579 
L 379.344633 -313.171289 
L 379.397346 -315.323 
L 379.392117 -317.47471 
L 379.32837 -319.626421 
L 379.208683 -321.778131 
L 379.03899 -323.929842 
L 378.828731 -326.081552 
L 378.590771 -328.233263 
L 378.340957 -330.384973 
L 378.097193 -332.536684 
L 377.878041 -334.688394 
L 377.700946 -336.840105 
L 377.580334 -338.991815 
L 377.52586 -341.143526 
L 377.541142 -343.295236 
L 377.623201 -345.446947 
L 377.762761 -347.598657 
L 377.945351 -349.750367 
L 378.153074 -351.902078 
L 378.366745 -354.053788 
L 378.568086 -356.205499 
L 378.741698 -358.357209 
L 378.876543 -360.50892 
L 378.96683 -362.66063 
L 379.012238 -364.812341 
L 379.017521 -366.964051 
L 378.991585 -369.115762 
L 378.946191 -371.267472 
L 378.894414 -373.419183 
L 378.849071 -375.570893 
L 378.821272 -377.722604 
L 378.819267 -379.874314 
L 378.847722 -382.026025 
L 378.907485 -384.177735 
L 378.995868 -386.329446 
L 379.107337 -388.481156 
L 379.234507 -390.632867 
L 379.369238 -392.784577 
L 380.975895 -392.784577 
L 380.975895 -392.784577 
L 381.110627 -390.632867 
L 381.237796 -388.481156 
L 381.349266 -386.329446 
L 381.437648 -384.177735 
L 381.497412 -382.026025 
L 381.525866 -379.874314 
L 381.523862 -377.722604 
L 381.496063 -375.570893 
L 381.45072 -373.419183 
L 381.398943 -371.267472 
L 381.353548 -369.115762 
L 381.327613 -366.964051 
L 381.332895 -364.812341 
L 381.378303 -362.66063 
L 381.46859 -360.50892 
L 381.603435 -358.357209 
L 381.777047 -356.205499 
L 381.978389 -354.053788 
L 382.192059 -351.902078 
L 382.399783 -349.750367 
L 382.582373 -347.598657 
L 382.721932 -345.446947 
L 382.803992 -343.295236 
L 382.819274 -341.143526 
L 382.7648 -338.991815 
L 382.644187 -336.840105 
L 382.467093 -334.688394 
L 382.247941 -332.536684 
L 382.004177 -330.384973 
L 381.754363 -328.233263 
L 381.516403 -326.081552 
L 381.306144 -323.929842 
L 381.136451 -321.778131 
L 381.016763 -319.626421 
L 380.953017 -317.47471 
L 380.947788 -315.323 
L 381.000501 -313.171289 
L 381.107603 -311.019579 
L 381.262684 -308.867868 
L 381.456582 -306.716158 
L 381.677607 -304.564447 
L 381.911974 -302.412737 
L 382.144554 -300.261026 
L 382.359968 -298.109316 
L 382.543926 -295.957605 
L 382.684681 -293.805895 
L 382.774355 -291.654184 
L 382.809901 -289.502474 
L 382.793507 -287.350763 
L 382.732325 -285.199053 
L 382.637538 -283.047343 
L 382.522904 -280.895632 
L 382.403042 -278.743922 
L 382.291748 -276.592211 
L 382.200693 -274.440501 
L 382.138711 -272.28879 
L 382.111827 -270.13708 
L 382.123974 -267.985369 
L 382.178219 -265.833659 
L 382.278175 -263.681948 
L 382.429256 -261.530238 
L 382.63943 -259.378527 
L 382.919247 -257.226817 
L 383.281106 -255.075106 
L 383.737908 -252.923396 
L 384.301409 -250.771685 
L 384.980716 -248.619975 
L 385.781368 -246.468264 
L 386.705362 -244.316554 
L 387.75232 -242.164843 
L 388.921805 -240.013133 
L 390.21658 -237.861422 
L 391.646484 -235.709712 
L 393.232491 -233.558001 
L 395.010492 -231.406291 
L 397.034267 -229.25458 
L 399.377015 -227.10287 
L 402.130679 -224.95116 
L 405.402109 -222.799449 
L 409.305069 -220.647739 
L 413.947279 -218.496028 
L 419.412292 -216.344318 
L 425.737108 -214.192607 
L 432.887845 -212.040897 
L 440.737356 -209.889186 
L 449.049835 -207.737476 
L 457.47771 -205.585765 
L 465.575117 -203.434055 
L 472.82978 -201.282344 
L 478.711603 -199.130634 
L 482.732363 -196.978923 
L 484.507608 -194.827213 
L 483.810181 -192.675502 
L 480.605426 -190.523792 
L 475.060994 -188.372081 
L 467.528917 -186.220371 
L 458.502909 -184.06866 
L 448.558514 -181.91695 
L 438.286611 -179.765239 
z
" id="m2cb8e6886c" style="stroke:#3d3d3d;stroke-width:5;"/>
    </defs>
    <g clip-path="url(#ped5afa7d72)">
     <use style="fill:#3a923a;stroke:#3d3d3d;stroke-width:5;" x="0" xlink:href="#m2cb8e6886c" y="1296"/>
    </g>
   </g>
   <g id="PolyCollection_2">
    <defs>
     <path d="M 657.579091 -151.806984 
L 624.441246 -151.806984 
L 621.519902 -157.957335 
L 618.554989 -164.107685 
L 615.66595 -170.258036 
L 612.981501 -176.408386 
L 610.629674 -182.558737 
L 608.727095 -188.709087 
L 607.368791 -194.859438 
L 606.619834 -201.009788 
L 606.50986 -207.160138 
L 607.031149 -213.310489 
L 608.140397 -219.460839 
L 609.763828 -225.61119 
L 611.804837 -231.76154 
L 614.153102 -237.911891 
L 616.693985 -244.062241 
L 619.317171 -250.212592 
L 621.923712 -256.362942 
L 624.430985 -262.513293 
L 626.775411 -268.663643 
L 628.913071 -274.813994 
L 630.818614 -280.964344 
L 632.482922 -287.114695 
L 633.910059 -293.265045 
L 635.11397 -299.415396 
L 636.115277 -305.565746 
L 636.938445 -311.716096 
L 637.609414 -317.866447 
L 638.153773 -324.016797 
L 638.595422 -330.167148 
L 638.955688 -336.317498 
L 639.252813 -342.467849 
L 639.501751 -348.618199 
L 639.714218 -354.76855 
L 639.898925 -360.9189 
L 640.061964 -367.069251 
L 640.20728 -373.219601 
L 640.337178 -379.369952 
L 640.452826 -385.520302 
L 640.554699 -391.670653 
L 640.642939 -397.821003 
L 640.717613 -403.971354 
L 640.778852 -410.121704 
L 640.826913 -416.272055 
L 640.86215 -422.422405 
L 640.884961 -428.572755 
L 640.895719 -434.723106 
L 640.894719 -440.873456 
L 640.882178 -447.023807 
L 640.858275 -453.174157 
L 640.823256 -459.324508 
L 640.777572 -465.474858 
L 640.722042 -471.625209 
L 640.658006 -477.775559 
L 640.58744 -483.92591 
L 640.512995 -490.07626 
L 640.437948 -496.226611 
L 640.366044 -502.376961 
L 640.301247 -508.527312 
L 640.247412 -514.677662 
L 640.207934 -520.828013 
L 640.185405 -526.978363 
L 640.181342 -533.128713 
L 640.19602 -539.279064 
L 640.228445 -545.429414 
L 640.27646 -551.579765 
L 640.336977 -557.730115 
L 640.406293 -563.880466 
L 640.480446 -570.030816 
L 640.555558 -576.181167 
L 640.628123 -582.331517 
L 640.695203 -588.481868 
L 640.754529 -594.632218 
L 640.8045 -600.782569 
L 640.8441 -606.932919 
L 640.872765 -613.08327 
L 640.890236 -619.23362 
L 640.89642 -625.383971 
L 640.891296 -631.534321 
L 640.874881 -637.684672 
L 640.847258 -643.835022 
L 640.808666 -649.985372 
L 640.759632 -656.135723 
L 640.701125 -662.286073 
L 640.634686 -668.436424 
L 640.562521 -674.586774 
L 640.487507 -680.737125 
L 640.413103 -686.887475 
L 640.343164 -693.037826 
L 640.281659 -699.188176 
L 640.23233 -705.338527 
L 640.198338 -711.488877 
L 640.181941 -717.639228 
L 640.184252 -723.789578 
L 640.205121 -729.939929 
L 640.243153 -736.090279 
L 640.295864 -742.24063 
L 640.35995 -748.39098 
L 640.431632 -754.54133 
L 640.507018 -760.691681 
L 641.513319 -760.691681 
L 641.513319 -760.691681 
L 641.588705 -754.54133 
L 641.660387 -748.39098 
L 641.724473 -742.24063 
L 641.777184 -736.090279 
L 641.815216 -729.939929 
L 641.836085 -723.789578 
L 641.838396 -717.639228 
L 641.821999 -711.488877 
L 641.788007 -705.338527 
L 641.738678 -699.188176 
L 641.677173 -693.037826 
L 641.607234 -686.887475 
L 641.532831 -680.737125 
L 641.457816 -674.586774 
L 641.385651 -668.436424 
L 641.319212 -662.286073 
L 641.260705 -656.135723 
L 641.211671 -649.985372 
L 641.173079 -643.835022 
L 641.145456 -637.684672 
L 641.129041 -631.534321 
L 641.123918 -625.383971 
L 641.130101 -619.23362 
L 641.147572 -613.08327 
L 641.176237 -606.932919 
L 641.215837 -600.782569 
L 641.265808 -594.632218 
L 641.325135 -588.481868 
L 641.392214 -582.331517 
L 641.464779 -576.181167 
L 641.539891 -570.030816 
L 641.614044 -563.880466 
L 641.68336 -557.730115 
L 641.743877 -551.579765 
L 641.791892 -545.429414 
L 641.824317 -539.279064 
L 641.838996 -533.128713 
L 641.834932 -526.978363 
L 641.812403 -520.828013 
L 641.772926 -514.677662 
L 641.719091 -508.527312 
L 641.654293 -502.376961 
L 641.582389 -496.226611 
L 641.507342 -490.07626 
L 641.432897 -483.92591 
L 641.362331 -477.775559 
L 641.298295 -471.625209 
L 641.242765 -465.474858 
L 641.197081 -459.324508 
L 641.162062 -453.174157 
L 641.138159 -447.023807 
L 641.125618 -440.873456 
L 641.124618 -434.723106 
L 641.135376 -428.572755 
L 641.158188 -422.422405 
L 641.193425 -416.272055 
L 641.241485 -410.121704 
L 641.302725 -403.971354 
L 641.377398 -397.821003 
L 641.465639 -391.670653 
L 641.567511 -385.520302 
L 641.683159 -379.369952 
L 641.813057 -373.219601 
L 641.958373 -367.069251 
L 642.121413 -360.9189 
L 642.30612 -354.76855 
L 642.518586 -348.618199 
L 642.767524 -342.467849 
L 643.064649 -336.317498 
L 643.424915 -330.167148 
L 643.866564 -324.016797 
L 644.410923 -317.866447 
L 645.081892 -311.716096 
L 645.90506 -305.565746 
L 646.906367 -299.415396 
L 648.110278 -293.265045 
L 649.537415 -287.114695 
L 651.201723 -280.964344 
L 653.107266 -274.813994 
L 655.244926 -268.663643 
L 657.589352 -262.513293 
L 660.096626 -256.362942 
L 662.703166 -250.212592 
L 665.326352 -244.062241 
L 667.867235 -237.911891 
L 670.2155 -231.76154 
L 672.25651 -225.61119 
L 673.87994 -219.460839 
L 674.989188 -213.310489 
L 675.510477 -207.160138 
L 675.400503 -201.009788 
L 674.651546 -194.859438 
L 673.293243 -188.709087 
L 671.390663 -182.558737 
L 669.038836 -176.408386 
L 666.354387 -170.258036 
L 663.465348 -164.107685 
L 660.500435 -157.957335 
L 657.579091 -151.806984 
z
" id="m6e6f681401" style="stroke:#3d3d3d;stroke-width:5;"/>
    </defs>
    <g clip-path="url(#ped5afa7d72)">
     <use style="fill:#2eabb8;stroke:#3d3d3d;stroke-width:5;" x="0" xlink:href="#m6e6f681401" y="1296"/>
    </g>
   </g>
   <g id="PolyCollection_3">
    <defs>
     <path d="M 907.034262 -168.276507 
L 896.661279 -168.276507 
L 894.868952 -172.425963 
L 892.653321 -176.575418 
L 889.986147 -180.724874 
L 886.862493 -184.87433 
L 883.307903 -189.023786 
L 879.384016 -193.173242 
L 875.191357 -197.322698 
L 870.868201 -201.472154 
L 866.58479 -205.621609 
L 862.532783 -209.771065 
L 858.910626 -213.920521 
L 855.906266 -218.069977 
L 853.679337 -222.219433 
L 852.345214 -226.368889 
L 851.96328 -230.518345 
L 852.531158 -234.6678 
L 853.985819 -238.817256 
L 856.211331 -242.966712 
L 859.052037 -247.116168 
L 862.32911 -251.265624 
L 865.858097 -255.41508 
L 869.465112 -259.564536 
L 872.999792 -263.713991 
L 876.343873 -267.863447 
L 879.415003 -272.012903 
L 882.166189 -276.162359 
L 884.581753 -280.311815 
L 886.671022 -284.461271 
L 888.460991 -288.610727 
L 889.989088 -292.760182 
L 891.296863 -296.909638 
L 892.425127 -301.059094 
L 893.410703 -305.20855 
L 894.284685 -309.358006 
L 895.071909 -313.507462 
L 895.791246 -317.656918 
L 896.456335 -321.806373 
L 897.07646 -325.955829 
L 897.657376 -330.105285 
L 898.202022 -334.254741 
L 898.71114 -338.404197 
L 899.183848 -342.553653 
L 899.618234 -346.703109 
L 900.011974 -350.852564 
L 900.362948 -355.00202 
L 900.669789 -359.151476 
L 900.932294 -363.300932 
L 901.151641 -367.450388 
L 901.330381 -371.599844 
L 901.472249 -375.7493 
L 901.581819 -379.898755 
L 901.664106 -384.048211 
L 901.724161 -388.197667 
L 901.766736 -392.347123 
L 901.796046 -396.496579 
L 901.815636 -400.646035 
L 901.828346 -404.795491 
L 901.836348 -408.944946 
L 901.841238 -413.094402 
L 901.844138 -417.243858 
L 901.845806 -421.393314 
L 901.846738 -425.54277 
L 901.847241 -429.692226 
L 901.847503 -433.841682 
L 901.847631 -437.991137 
L 901.847682 -442.140593 
L 901.847681 -446.290049 
L 901.847626 -450.439505 
L 901.847492 -454.588961 
L 901.847222 -458.738417 
L 901.846709 -462.887873 
L 901.845772 -467.037328 
L 901.844114 -471.186784 
L 901.841273 -475.33624 
L 901.836555 -479.485696 
L 901.828971 -483.635152 
L 901.817166 -487.784608 
L 901.799385 -491.934064 
L 901.773479 -496.083519 
L 901.736992 -500.232975 
L 901.687349 -504.382431 
L 901.622159 -508.531887 
L 901.539627 -512.681343 
L 901.43904 -516.830799 
L 901.321253 -520.980255 
L 901.189081 -525.12971 
L 901.047494 -529.279166 
L 900.903509 -533.428622 
L 900.765749 -537.578078 
L 900.643645 -541.727534 
L 900.546404 -545.87699 
L 900.481869 -550.026446 
L 900.455475 -554.175901 
L 900.469497 -558.325357 
L 900.522724 -562.474813 
L 900.61063 -566.624269 
L 900.726013 -570.773725 
L 900.859966 -574.923181 
L 901.003007 -579.072637 
L 902.692533 -579.072637 
L 902.692533 -579.072637 
L 902.835575 -574.923181 
L 902.969528 -570.773725 
L 903.084911 -566.624269 
L 903.172817 -562.474813 
L 903.226043 -558.325357 
L 903.240066 -554.175901 
L 903.213672 -550.026446 
L 903.149137 -545.87699 
L 903.051896 -541.727534 
L 902.929792 -537.578078 
L 902.792031 -533.428622 
L 902.648047 -529.279166 
L 902.506459 -525.12971 
L 902.374288 -520.980255 
L 902.256501 -516.830799 
L 902.155914 -512.681343 
L 902.073382 -508.531887 
L 902.008191 -504.382431 
L 901.958548 -500.232975 
L 901.922062 -496.083519 
L 901.896156 -491.934064 
L 901.878375 -487.784608 
L 901.86657 -483.635152 
L 901.858985 -479.485696 
L 901.854268 -475.33624 
L 901.851426 -471.186784 
L 901.849768 -467.037328 
L 901.848831 -462.887873 
L 901.848319 -458.738417 
L 901.848049 -454.588961 
L 901.847915 -450.439505 
L 901.84786 -446.290049 
L 901.847858 -442.140593 
L 901.847909 -437.991137 
L 901.848037 -433.841682 
L 901.8483 -429.692226 
L 901.848803 -425.54277 
L 901.849734 -421.393314 
L 901.851403 -417.243858 
L 901.854302 -413.094402 
L 901.859193 -408.944946 
L 901.867195 -404.795491 
L 901.879904 -400.646035 
L 901.899494 -396.496579 
L 901.928805 -392.347123 
L 901.97138 -388.197667 
L 902.031435 -384.048211 
L 902.113722 -379.898755 
L 902.223292 -375.7493 
L 902.365159 -371.599844 
L 902.5439 -367.450388 
L 902.763246 -363.300932 
L 903.025752 -359.151476 
L 903.332593 -355.00202 
L 903.683567 -350.852564 
L 904.077307 -346.703109 
L 904.511693 -342.553653 
L 904.984401 -338.404197 
L 905.493518 -334.254741 
L 906.038165 -330.105285 
L 906.619081 -325.955829 
L 907.239206 -321.806373 
L 907.904295 -317.656918 
L 908.623631 -313.507462 
L 909.410856 -309.358006 
L 910.284838 -305.20855 
L 911.270414 -301.059094 
L 912.398678 -296.909638 
L 913.706453 -292.760182 
L 915.234549 -288.610727 
L 917.024519 -284.461271 
L 919.113787 -280.311815 
L 921.529351 -276.162359 
L 924.280537 -272.012903 
L 927.351668 -267.863447 
L 930.695749 -263.713991 
L 934.230429 -259.564536 
L 937.837444 -255.41508 
L 941.366431 -251.265624 
L 944.643503 -247.116168 
L 947.48421 -242.966712 
L 949.709722 -238.817256 
L 951.164383 -234.6678 
L 951.732261 -230.518345 
L 951.350326 -226.368889 
L 950.016204 -222.219433 
L 947.789274 -218.069977 
L 944.784914 -213.920521 
L 941.162757 -209.771065 
L 937.110751 -205.621609 
L 932.827339 -201.472154 
L 928.504184 -197.322698 
L 924.311525 -193.173242 
L 920.387638 -189.023786 
L 916.833048 -184.87433 
L 913.709394 -180.724874 
L 911.04222 -176.575418 
L 908.826588 -172.425963 
L 907.034262 -168.276507 
z
" id="m9fb9c78b06" style="stroke:#3d3d3d;stroke-width:5;"/>
    </defs>
    <g clip-path="url(#ped5afa7d72)">
     <use style="fill:#a9aa35;stroke:#3d3d3d;stroke-width:5;" x="0" xlink:href="#m9fb9c78b06" y="1296"/>
    </g>
   </g>
   <g id="PolyCollection_4">
    <defs>
     <path d="M 1169.811756 -147.262012 
L 1155.558988 -147.262012 
L 1153.968266 -153.565448 
L 1152.202749 -159.868885 
L 1150.291096 -166.172322 
L 1148.274433 -172.475758 
L 1146.205349 -178.779195 
L 1144.145725 -185.082632 
L 1142.163485 -191.386069 
L 1140.328512 -197.689505 
L 1138.708075 -203.992942 
L 1137.362212 -210.296379 
L 1136.339555 -216.599815 
L 1135.674018 -222.903252 
L 1135.382695 -229.206689 
L 1135.465154 -235.510126 
L 1135.904161 -241.813562 
L 1136.667686 -248.116999 
L 1137.711915 -254.420436 
L 1138.984909 -260.723872 
L 1140.43049 -267.027309 
L 1141.991988 -273.330746 
L 1143.615517 -279.634182 
L 1145.252563 -285.937619 
L 1146.861773 -292.241056 
L 1148.409913 -298.544493 
L 1149.872082 -304.847929 
L 1151.23131 -311.151366 
L 1152.47769 -317.454803 
L 1153.607242 -323.758239 
L 1154.620646 -330.061676 
L 1155.522001 -336.365113 
L 1156.31771 -342.668549 
L 1157.015552 -348.971986 
L 1157.623984 -355.275423 
L 1158.151667 -361.57886 
L 1158.607185 -367.882296 
L 1158.998917 -374.185733 
L 1159.335008 -380.48917 
L 1159.623372 -386.792606 
L 1159.871692 -393.096043 
L 1160.087378 -399.39948 
L 1160.277465 -405.702917 
L 1160.44846 -412.006353 
L 1160.60616 -418.30979 
L 1160.755452 -424.613227 
L 1160.900159 -430.916663 
L 1161.042932 -437.2201 
L 1161.185224 -443.523537 
L 1161.327358 -449.826973 
L 1161.46867 -456.13041 
L 1161.607724 -462.433847 
L 1161.742559 -468.737284 
L 1161.870955 -475.04072 
L 1161.99067 -481.344157 
L 1162.099645 -487.647594 
L 1162.196142 -493.95103 
L 1162.27883 -500.254467 
L 1162.34681 -506.557904 
L 1162.399594 -512.86134 
L 1162.437064 -519.164777 
L 1162.459415 -525.468214 
L 1162.467113 -531.771651 
L 1162.460866 -538.075087 
L 1162.441625 -544.378524 
L 1162.410602 -550.681961 
L 1162.369299 -556.985397 
L 1162.319542 -563.288834 
L 1162.263482 -569.592271 
L 1162.203569 -575.895707 
L 1162.142481 -582.199144 
L 1162.082997 -588.502581 
L 1162.027826 -594.806018 
L 1161.979407 -601.109454 
L 1161.939705 -607.412891 
L 1161.910018 -613.716328 
L 1161.890842 -620.019764 
L 1161.881805 -626.323201 
L 1161.881691 -632.626638 
L 1161.888562 -638.930075 
L 1161.899962 -645.233511 
L 1161.91319 -651.536948 
L 1161.925613 -657.840385 
L 1161.93497 -664.143821 
L 1161.939638 -670.447258 
L 1161.938827 -676.750695 
L 1161.932674 -683.054131 
L 1161.922226 -689.357568 
L 1161.909319 -695.661005 
L 1161.896355 -701.964442 
L 1161.886024 -708.267878 
L 1161.880992 -714.571315 
L 1161.883604 -720.874752 
L 1161.895626 -727.178188 
L 1161.918068 -733.481625 
L 1161.951099 -739.785062 
L 1161.994056 -746.088498 
L 1162.045541 -752.391935 
L 1162.103598 -758.695372 
L 1162.165917 -764.998809 
L 1162.230068 -771.302245 
L 1163.140677 -771.302245 
L 1163.140677 -771.302245 
L 1163.204827 -764.998809 
L 1163.267146 -758.695372 
L 1163.325203 -752.391935 
L 1163.376689 -746.088498 
L 1163.419645 -739.785062 
L 1163.452676 -733.481625 
L 1163.475118 -727.178188 
L 1163.48714 -720.874752 
L 1163.489752 -714.571315 
L 1163.48472 -708.267878 
L 1163.474389 -701.964442 
L 1163.461425 -695.661005 
L 1163.448518 -689.357568 
L 1163.438071 -683.054131 
L 1163.431917 -676.750695 
L 1163.431106 -670.447258 
L 1163.435774 -664.143821 
L 1163.445131 -657.840385 
L 1163.457554 -651.536948 
L 1163.470783 -645.233511 
L 1163.482182 -638.930075 
L 1163.489053 -632.626638 
L 1163.488939 -626.323201 
L 1163.479903 -620.019764 
L 1163.460727 -613.716328 
L 1163.431039 -607.412891 
L 1163.391337 -601.109454 
L 1163.342918 -594.806018 
L 1163.287747 -588.502581 
L 1163.228263 -582.199144 
L 1163.167175 -575.895707 
L 1163.107263 -569.592271 
L 1163.051202 -563.288834 
L 1163.001445 -556.985397 
L 1162.960143 -550.681961 
L 1162.929119 -544.378524 
L 1162.909878 -538.075087 
L 1162.903631 -531.771651 
L 1162.911329 -525.468214 
L 1162.93368 -519.164777 
L 1162.97115 -512.86134 
L 1163.023934 -506.557904 
L 1163.091914 -500.254467 
L 1163.174602 -493.95103 
L 1163.271099 -487.647594 
L 1163.380074 -481.344157 
L 1163.499789 -475.04072 
L 1163.628185 -468.737284 
L 1163.763021 -462.433847 
L 1163.902074 -456.13041 
L 1164.043387 -449.826973 
L 1164.18552 -443.523537 
L 1164.327812 -437.2201 
L 1164.470585 -430.916663 
L 1164.615292 -424.613227 
L 1164.764584 -418.30979 
L 1164.922284 -412.006353 
L 1165.09328 -405.702917 
L 1165.283366 -399.39948 
L 1165.499052 -393.096043 
L 1165.747372 -386.792606 
L 1166.035736 -380.48917 
L 1166.371827 -374.185733 
L 1166.76356 -367.882296 
L 1167.219077 -361.57886 
L 1167.74676 -355.275423 
L 1168.355193 -348.971986 
L 1169.053034 -342.668549 
L 1169.848743 -336.365113 
L 1170.750099 -330.061676 
L 1171.763502 -323.758239 
L 1172.893054 -317.454803 
L 1174.139435 -311.151366 
L 1175.498662 -304.847929 
L 1176.960831 -298.544493 
L 1178.508971 -292.241056 
L 1180.118181 -285.937619 
L 1181.755228 -279.634182 
L 1183.378756 -273.330746 
L 1184.940254 -267.027309 
L 1186.385835 -260.723872 
L 1187.658829 -254.420436 
L 1188.703058 -248.116999 
L 1189.466583 -241.813562 
L 1189.90559 -235.510126 
L 1189.988049 -229.206689 
L 1189.696726 -222.903252 
L 1189.031189 -216.599815 
L 1188.008532 -210.296379 
L 1186.662669 -203.992942 
L 1185.042232 -197.689505 
L 1183.20726 -191.386069 
L 1181.22502 -185.082632 
L 1179.165395 -178.779195 
L 1177.096311 -172.475758 
L 1175.079649 -166.172322 
L 1173.167995 -159.868885 
L 1171.402478 -153.565448 
L 1169.811756 -147.262012 
z
" id="mbe8f697448" style="stroke:#3d3d3d;stroke-width:5;"/>
    </defs>
    <g clip-path="url(#ped5afa7d72)">
     <use style="fill:#c03d3e;stroke:#3d3d3d;stroke-width:5;" x="0" xlink:href="#mbe8f697448" y="1296"/>
    </g>
   </g>
   <g id="line2d_9">
    <path clip-path="url(#ped5afa7d72)" d="M 380.172567 1103.466056 
L 380.172567 1071.759553 
" style="fill:none;stroke:#3d3d3d;stroke-linecap:round;stroke-width:5;"/>
   </g>
   <g id="line2d_10">
    <path clip-path="url(#ped5afa7d72)" d="M 380.172567 1103.466056 
L 380.172567 1090.783455 
" style="fill:none;stroke:#3d3d3d;stroke-linecap:round;stroke-width:15;"/>
   </g>
   <g id="line2d_11">
    <path clip-path="url(#ped5afa7d72)" d="M 641.010169 1103.466056 
L 641.010169 1021.856275 
" style="fill:none;stroke:#3d3d3d;stroke-linecap:round;stroke-width:5;"/>
   </g>
   <g id="line2d_12">
    <path clip-path="url(#ped5afa7d72)" d="M 641.010169 1103.466056 
L 641.010169 1067.968558 
" style="fill:none;stroke:#3d3d3d;stroke-linecap:round;stroke-width:15;"/>
   </g>
   <g id="line2d_13">
    <path clip-path="url(#ped5afa7d72)" d="M 901.84777 1103.466056 
L 901.84777 1008.622257 
" style="fill:none;stroke:#3d3d3d;stroke-linecap:round;stroke-width:5;"/>
   </g>
   <g id="line2d_14">
    <path clip-path="url(#ped5afa7d72)" d="M 901.84777 1074.240932 
L 901.84777 1045.360443 
" style="fill:none;stroke:#3d3d3d;stroke-linecap:round;stroke-width:15;"/>
   </g>
   <g id="line2d_15">
    <path clip-path="url(#ped5afa7d72)" d="M 1162.685372 1103.466056 
L 1162.685372 940.797912 
" style="fill:none;stroke:#3d3d3d;stroke-linecap:round;stroke-width:5;"/>
   </g>
   <g id="line2d_16">
    <path clip-path="url(#ped5afa7d72)" d="M 1162.685372 1080.237596 
L 1162.685372 1022.407693 
" style="fill:none;stroke:#3d3d3d;stroke-linecap:round;stroke-width:15;"/>
   </g>
   <g id="line2d_17">
    <path clip-path="url(#ped5afa7d72)" d="M 380.172567 534.848624 
L 380.172567 521.119739 
L 641.010169 521.119739 
L 641.010169 534.848624 
" style="fill:none;stroke:#333333;stroke-linecap:round;stroke-width:1.5;"/>
   </g>
   <g id="line2d_18">
    <path clip-path="url(#ped5afa7d72)" d="M 641.010169 454.724794 
L 641.010169 440.995909 
L 901.84777 440.995909 
L 901.84777 454.724794 
" style="fill:none;stroke:#333333;stroke-linecap:round;stroke-width:1.5;"/>
   </g>
   <g id="line2d_19">
    <path clip-path="url(#ped5afa7d72)" d="M 380.172567 370.506453 
L 380.172567 356.777568 
L 901.84777 356.777568 
L 901.84777 370.506453 
" style="fill:none;stroke:#333333;stroke-linecap:round;stroke-width:1.5;"/>
   </g>
   <g id="line2d_20">
    <path clip-path="url(#ped5afa7d72)" d="M 641.010169 281.984362 
L 641.010169 268.255477 
L 1162.685372 268.255477 
L 1162.685372 281.984362 
" style="fill:none;stroke:#333333;stroke-linecap:round;stroke-width:1.5;"/>
   </g>
   <g id="line2d_21">
    <path clip-path="url(#ped5afa7d72)" d="M 380.172567 188.938589 
L 380.172567 175.209704 
L 1162.685372 175.209704 
L 1162.685372 188.938589 
" style="fill:none;stroke:#333333;stroke-linecap:round;stroke-width:1.5;"/>
   </g>
   <g id="patch_3">
    <path d="M 230.13 1179.94 
L 230.13 96.12 
" style="fill:none;stroke:#cccccc;stroke-linecap:square;stroke-linejoin:miter;stroke-width:2.5;"/>
   </g>
   <g id="patch_4">
    <path d="M 1235.695575 1179.94 
L 1235.695575 96.12 
" style="fill:none;stroke:#cccccc;stroke-linecap:square;stroke-linejoin:miter;stroke-width:2.5;"/>
   </g>
   <g id="patch_5">
    <path d="M 230.13 1179.94 
L 1235.695575 1179.94 
" style="fill:none;stroke:#cccccc;stroke-linecap:square;stroke-linejoin:miter;stroke-width:2.5;"/>
   </g>
   <g id="patch_6">
    <path d="M 230.13 96.12 
L 1235.695575 96.12 
" style="fill:none;stroke:#cccccc;stroke-linecap:square;stroke-linejoin:miter;stroke-width:2.5;"/>
   </g>
   <g id="PathCollection_1">
    <defs>
     <path d="M 0 5 
C 1.326016 5 2.597899 4.473168 3.535534 3.535534 
C 4.473168 2.597899 5 1.326016 5 0 
C 5 -1.326016 4.473168 -2.597899 3.535534 -3.535534 
C 2.597899 -4.473168 1.326016 -5 0 -5 
C -1.326016 -5 -2.597899 -4.473168 -3.535534 -3.535534 
C -4.473168 -2.597899 -5 -1.326016 -5 0 
C -5 1.326016 -4.473168 2.597899 -3.535534 3.535534 
C -2.597899 4.473168 -1.326016 5 0 5 
z
" id="m454a75c309" style="stroke:#3d3d3d;stroke-width:2;"/>
    </defs>
    <g clip-path="url(#ped5afa7d72)">
     <use style="fill:#ffffff;stroke:#3d3d3d;stroke-width:2;" x="380.172567" xlink:href="#m454a75c309" y="1103.466056"/>
    </g>
   </g>
   <g id="PathCollection_2">
    <g clip-path="url(#ped5afa7d72)">
     <use style="fill:#ffffff;stroke:#3d3d3d;stroke-width:2;" x="641.010169" xlink:href="#m454a75c309" y="1095.884066"/>
    </g>
   </g>
   <g id="PathCollection_3">
    <g clip-path="url(#ped5afa7d72)">
     <use style="fill:#ffffff;stroke:#3d3d3d;stroke-width:2;" x="901.84777" xlink:href="#m454a75c309" y="1064.453272"/>
    </g>
   </g>
   <g id="PathCollection_4">
    <g clip-path="url(#ped5afa7d72)">
     <use style="fill:#ffffff;stroke:#3d3d3d;stroke-width:2;" x="1162.685372" xlink:href="#m454a75c309" y="1067.899631"/>
    </g>
   </g>
   <g id="text_14">
    <!-- ** -->
    <g transform="translate(491.13043 510.182239)scale(0.5 -0.5)">
     <defs>
      <path d="M 3.125 58.453125 
L 5.375 65.375 
Q 13.140625 62.640625 16.65625 60.640625 
Q 15.71875 69.484375 15.671875 72.796875 
L 22.75 72.796875 
Q 22.609375 67.96875 21.625 60.6875 
Q 26.65625 63.234375 33.15625 65.375 
L 35.40625 58.453125 
Q 29.203125 56.390625 23.25 55.71875 
Q 26.21875 53.125 31.640625 46.484375 
L 25.78125 42.328125 
Q 22.953125 46.1875 19.09375 52.828125 
Q 15.484375 45.953125 12.75 42.328125 
L 6.984375 46.484375 
Q 12.640625 53.46875 15.09375 55.71875 
Q 8.796875 56.9375 3.125 58.453125 
z
" id="ArialMT-42"/>
     </defs>
     <use xlink:href="#ArialMT-42"/>
     <use x="38.916016" xlink:href="#ArialMT-42"/>
    </g>
   </g>
   <g id="text_15">
    <!-- **** -->
    <g transform="translate(732.507094 430.058409)scale(0.5 -0.5)">
     <use xlink:href="#ArialMT-42"/>
     <use x="38.916016" xlink:href="#ArialMT-42"/>
     <use x="77.832031" xlink:href="#ArialMT-42"/>
     <use x="116.748047" xlink:href="#ArialMT-42"/>
    </g>
   </g>
   <g id="text_16">
    <!-- **** -->
    <g transform="translate(602.088294 345.840068)scale(0.5 -0.5)">
     <use xlink:href="#ArialMT-42"/>
     <use x="38.916016" xlink:href="#ArialMT-42"/>
     <use x="77.832031" xlink:href="#ArialMT-42"/>
     <use x="116.748047" xlink:href="#ArialMT-42"/>
    </g>
   </g>
   <g id="text_17">
    <!-- **** -->
    <g transform="translate(862.925895 257.317977)scale(0.5 -0.5)">
     <use xlink:href="#ArialMT-42"/>
     <use x="38.916016" xlink:href="#ArialMT-42"/>
     <use x="77.832031" xlink:href="#ArialMT-42"/>
     <use x="116.748047" xlink:href="#ArialMT-42"/>
    </g>
   </g>
   <g id="text_18">
    <!-- **** -->
    <g transform="translate(732.507094 164.272204)scale(0.5 -0.5)">
     <use xlink:href="#ArialMT-42"/>
     <use x="38.916016" xlink:href="#ArialMT-42"/>
     <use x="77.832031" xlink:href="#ArialMT-42"/>
     <use x="116.748047" xlink:href="#ArialMT-42"/>
    </g>
   </g>
   <g id="text_19">
    <!-- Prevotella intermedia (K.W. p=3.46e-21) -->
    <g transform="translate(287.572944 90.12)scale(0.5 -0.5)">
     <defs>
      <path d="M 7.71875 0 
L 7.71875 71.578125 
L 34.71875 71.578125 
Q 41.84375 71.578125 45.609375 70.90625 
Q 50.875 70.015625 54.4375 67.546875 
Q 58.015625 65.09375 60.1875 60.640625 
Q 62.359375 56.203125 62.359375 50.875 
Q 62.359375 41.75 56.546875 35.421875 
Q 50.734375 29.109375 35.546875 29.109375 
L 17.1875 29.109375 
L 17.1875 0 
z
M 17.1875 37.546875 
L 35.6875 37.546875 
Q 44.875 37.546875 48.734375 40.96875 
Q 52.59375 44.390625 52.59375 50.59375 
Q 52.59375 55.078125 50.3125 58.265625 
Q 48.046875 61.46875 44.34375 62.5 
Q 41.9375 63.140625 35.5 63.140625 
L 17.1875 63.140625 
z
" id="ArialMT-80"/>
      <path id="ArialMT-32"/>
      <path d="M 6.59375 0 
L 6.59375 51.859375 
L 14.453125 51.859375 
L 14.453125 44.578125 
Q 16.890625 48.390625 20.9375 50.703125 
Q 25 53.03125 30.171875 53.03125 
Q 35.9375 53.03125 39.625 50.640625 
Q 43.3125 48.25 44.828125 43.953125 
Q 50.984375 53.03125 60.84375 53.03125 
Q 68.5625 53.03125 72.703125 48.75 
Q 76.859375 44.484375 76.859375 35.59375 
L 76.859375 0 
L 68.109375 0 
L 68.109375 32.671875 
Q 68.109375 37.9375 67.25 40.25 
Q 66.40625 42.578125 64.15625 43.984375 
Q 61.921875 45.40625 58.890625 45.40625 
Q 53.421875 45.40625 49.796875 41.765625 
Q 46.1875 38.140625 46.1875 30.125 
L 46.1875 0 
L 37.40625 0 
L 37.40625 33.6875 
Q 37.40625 39.546875 35.25 42.46875 
Q 33.109375 45.40625 28.21875 45.40625 
Q 24.515625 45.40625 21.359375 43.453125 
Q 18.21875 41.5 16.796875 37.734375 
Q 15.375 33.984375 15.375 26.90625 
L 15.375 0 
z
" id="ArialMT-109"/>
      <path d="M 23.390625 -21.046875 
Q 16.109375 -11.859375 11.078125 0.4375 
Q 6.0625 12.75 6.0625 25.921875 
Q 6.0625 37.546875 9.8125 48.1875 
Q 14.203125 60.546875 23.390625 72.796875 
L 29.6875 72.796875 
Q 23.78125 62.640625 21.875 58.296875 
Q 18.890625 51.5625 17.1875 44.234375 
Q 15.09375 35.109375 15.09375 25.875 
Q 15.09375 2.390625 29.6875 -21.046875 
z
" id="ArialMT-40"/>
      <path d="M 7.328125 0 
L 7.328125 71.578125 
L 16.796875 71.578125 
L 16.796875 36.078125 
L 52.34375 71.578125 
L 65.1875 71.578125 
L 35.15625 42.578125 
L 66.5 0 
L 54 0 
L 28.515625 36.234375 
L 16.796875 24.8125 
L 16.796875 0 
z
" id="ArialMT-75"/>
      <path d="M 9.078125 0 
L 9.078125 10.015625 
L 19.09375 10.015625 
L 19.09375 0 
z
" id="ArialMT-46"/>
      <path d="M 20.21875 0 
L 1.21875 71.578125 
L 10.9375 71.578125 
L 21.828125 24.65625 
Q 23.578125 17.28125 24.859375 10.015625 
Q 27.59375 21.484375 28.078125 23.25 
L 41.703125 71.578125 
L 53.125 71.578125 
L 63.375 35.359375 
Q 67.234375 21.875 68.953125 10.015625 
Q 70.3125 16.796875 72.515625 25.59375 
L 83.734375 71.578125 
L 93.265625 71.578125 
L 73.640625 0 
L 64.5 0 
L 49.421875 54.546875 
Q 47.515625 61.375 47.171875 62.9375 
Q 46.046875 58.015625 45.0625 54.546875 
L 29.890625 0 
z
" id="ArialMT-87"/>
      <path d="M 6.59375 -19.875 
L 6.59375 51.859375 
L 14.59375 51.859375 
L 14.59375 45.125 
Q 17.4375 49.078125 21 51.046875 
Q 24.5625 53.03125 29.640625 53.03125 
Q 36.28125 53.03125 41.359375 49.609375 
Q 46.4375 46.1875 49.015625 39.953125 
Q 51.609375 33.734375 51.609375 26.3125 
Q 51.609375 18.359375 48.75 11.984375 
Q 45.90625 5.609375 40.453125 2.21875 
Q 35.015625 -1.171875 29 -1.171875 
Q 24.609375 -1.171875 21.109375 0.6875 
Q 17.625 2.546875 15.375 5.375 
L 15.375 -19.875 
z
M 14.546875 25.640625 
Q 14.546875 15.625 18.59375 10.84375 
Q 22.65625 6.0625 28.421875 6.0625 
Q 34.28125 6.0625 38.453125 11.015625 
Q 42.625 15.96875 42.625 26.375 
Q 42.625 36.28125 38.546875 41.203125 
Q 34.46875 46.140625 28.8125 46.140625 
Q 23.1875 46.140625 18.859375 40.890625 
Q 14.546875 35.640625 14.546875 25.640625 
z
" id="ArialMT-112"/>
      <path d="M 52.828125 42.09375 
L 5.5625 42.09375 
L 5.5625 50.296875 
L 52.828125 50.296875 
z
M 52.828125 20.359375 
L 5.5625 20.359375 
L 5.5625 28.5625 
L 52.828125 28.5625 
z
" id="ArialMT-61"/>
      <path d="M 32.328125 0 
L 32.328125 17.140625 
L 1.265625 17.140625 
L 1.265625 25.203125 
L 33.9375 71.578125 
L 41.109375 71.578125 
L 41.109375 25.203125 
L 50.78125 25.203125 
L 50.78125 17.140625 
L 41.109375 17.140625 
L 41.109375 0 
z
M 32.328125 25.203125 
L 32.328125 57.46875 
L 9.90625 25.203125 
z
" id="ArialMT-52"/>
      <path d="M 49.75 54.046875 
L 41.015625 53.375 
Q 39.84375 58.546875 37.703125 60.890625 
Q 34.125 64.65625 28.90625 64.65625 
Q 24.703125 64.65625 21.53125 62.3125 
Q 17.390625 59.28125 14.984375 53.46875 
Q 12.59375 47.65625 12.5 36.921875 
Q 15.671875 41.75 20.265625 44.09375 
Q 24.859375 46.4375 29.890625 46.4375 
Q 38.671875 46.4375 44.84375 39.96875 
Q 51.03125 33.5 51.03125 23.25 
Q 51.03125 16.5 48.125 10.71875 
Q 45.21875 4.9375 40.140625 1.859375 
Q 35.0625 -1.21875 28.609375 -1.21875 
Q 17.625 -1.21875 10.6875 6.859375 
Q 3.765625 14.9375 3.765625 33.5 
Q 3.765625 54.25 11.421875 63.671875 
Q 18.109375 71.875 29.4375 71.875 
Q 37.890625 71.875 43.28125 67.140625 
Q 48.6875 62.40625 49.75 54.046875 
z
M 13.875 23.1875 
Q 13.875 18.65625 15.796875 14.5 
Q 17.71875 10.359375 21.1875 8.171875 
Q 24.65625 6 28.46875 6 
Q 34.03125 6 38.03125 10.484375 
Q 42.046875 14.984375 42.046875 22.703125 
Q 42.046875 30.125 38.078125 34.390625 
Q 34.125 38.671875 28.125 38.671875 
Q 22.171875 38.671875 18.015625 34.390625 
Q 13.875 30.125 13.875 23.1875 
z
" id="ArialMT-54"/>
      <path d="M 3.171875 21.484375 
L 3.171875 30.328125 
L 30.171875 30.328125 
L 30.171875 21.484375 
z
" id="ArialMT-45"/>
      <path d="M 12.359375 -21.046875 
L 6.0625 -21.046875 
Q 20.65625 2.390625 20.65625 25.875 
Q 20.65625 35.0625 18.5625 44.09375 
Q 16.890625 51.421875 13.921875 58.15625 
Q 12.015625 62.546875 6.0625 72.796875 
L 12.359375 72.796875 
Q 21.53125 60.546875 25.921875 48.1875 
Q 29.6875 37.546875 29.6875 25.921875 
Q 29.6875 12.75 24.625 0.4375 
Q 19.578125 -11.859375 12.359375 -21.046875 
z
" id="ArialMT-41"/>
     </defs>
     <use xlink:href="#ArialMT-80"/>
     <use x="66.699219" xlink:href="#ArialMT-114"/>
     <use x="100" xlink:href="#ArialMT-101"/>
     <use x="155.615234" xlink:href="#ArialMT-118"/>
     <use x="205.615234" xlink:href="#ArialMT-111"/>
     <use x="261.230469" xlink:href="#ArialMT-116"/>
     <use x="289.013672" xlink:href="#ArialMT-101"/>
     <use x="344.628906" xlink:href="#ArialMT-108"/>
     <use x="366.845703" xlink:href="#ArialMT-108"/>
     <use x="389.0625" xlink:href="#ArialMT-97"/>
     <use x="444.677734" xlink:href="#ArialMT-32"/>
     <use x="472.460938" xlink:href="#ArialMT-105"/>
     <use x="494.677734" xlink:href="#ArialMT-110"/>
     <use x="550.292969" xlink:href="#ArialMT-116"/>
     <use x="578.076172" xlink:href="#ArialMT-101"/>
     <use x="633.691406" xlink:href="#ArialMT-114"/>
     <use x="666.992188" xlink:href="#ArialMT-109"/>
     <use x="750.292969" xlink:href="#ArialMT-101"/>
     <use x="805.908203" xlink:href="#ArialMT-100"/>
     <use x="861.523438" xlink:href="#ArialMT-105"/>
     <use x="883.740234" xlink:href="#ArialMT-97"/>
     <use x="939.355469" xlink:href="#ArialMT-32"/>
     <use x="967.138672" xlink:href="#ArialMT-40"/>
     <use x="1000.439453" xlink:href="#ArialMT-75"/>
     <use x="1067.138672" xlink:href="#ArialMT-46"/>
     <use x="1094.921875" xlink:href="#ArialMT-87"/>
     <use x="1183.806641" xlink:href="#ArialMT-46"/>
     <use x="1211.589844" xlink:href="#ArialMT-32"/>
     <use x="1239.373047" xlink:href="#ArialMT-112"/>
     <use x="1294.988281" xlink:href="#ArialMT-61"/>
     <use x="1353.386719" xlink:href="#ArialMT-51"/>
     <use x="1409.001953" xlink:href="#ArialMT-46"/>
     <use x="1436.785156" xlink:href="#ArialMT-52"/>
     <use x="1492.400391" xlink:href="#ArialMT-54"/>
     <use x="1548.015625" xlink:href="#ArialMT-101"/>
     <use x="1603.630859" xlink:href="#ArialMT-45"/>
     <use x="1636.931641" xlink:href="#ArialMT-50"/>
     <use x="1692.546875" xlink:href="#ArialMT-49"/>
     <use x="1748.162109" xlink:href="#ArialMT-41"/>
    </g>
   </g>
  </g>
 </g>
 <defs>
  <clipPath id="ped5afa7d72">
   <rect height="1083.82" width="1005.565575" x="230.13" y="96.12"/>
  </clipPath>
 </defs>
</svg>
