<?xml version="1.0" encoding="utf-8" standalone="no"?>
<!DOCTYPE svg PUBLIC "-//W3C//DTD SVG 1.1//EN"
  "http://www.w3.org/Graphics/SVG/1.1/DTD/svg11.dtd">
<!-- Created with matplotlib (https://matplotlib.org/) -->
<svg height="1296pt" version="1.1" viewBox="0 0 1296 1296" width="1296pt" xmlns="http://www.w3.org/2000/svg" xmlns:xlink="http://www.w3.org/1999/xlink">
 <metadata>
  <rdf:RDF xmlns:cc="http://creativecommons.org/ns#" xmlns:dc="http://purl.org/dc/elements/1.1/" xmlns:rdf="http://www.w3.org/1999/02/22-rdf-syntax-ns#">
   <cc:Work>
    <dc:type rdf:resource="http://purl.org/dc/dcmitype/StillImage"/>
    <dc:date>2022-06-29T14:05:34.521527</dc:date>
    <dc:format>image/svg+xml</dc:format>
    <dc:creator>
     <cc:Agent>
      <dc:title>Matplotlib v3.3.3, https://matplotlib.org/</dc:title>
     </cc:Agent>
    </dc:creator>
   </cc:Work>
  </rdf:RDF>
 </metadata>
 <defs>
  <style type="text/css">*{stroke-linecap:butt;stroke-linejoin:round;}</style>
 </defs>
 <g id="figure_1">
  <g id="patch_1">
   <path d="M 0 1296 
L 1296 1296 
L 1296 0 
L 0 0 
z
" style="fill:#ffffff;"/>
  </g>
  <g id="axes_1">
   <g id="patch_2">
    <path d="M 202.32 1179.94 
L 1242 1179.94 
L 1242 96.12 
L 202.32 96.12 
z
" style="fill:#ffffff;"/>
   </g>
   <g id="matplotlib.axis_1">
    <g id="xtick_1">
     <g id="text_1">
      <!-- Healthy -->
      <g style="fill:#262626;" transform="translate(310.167999 1231.229063)scale(0.5 -0.5)">
       <defs>
        <path d="M 8.015625 0 
L 8.015625 71.578125 
L 17.484375 71.578125 
L 17.484375 42.1875 
L 54.6875 42.1875 
L 54.6875 71.578125 
L 64.15625 71.578125 
L 64.15625 0 
L 54.6875 0 
L 54.6875 33.734375 
L 17.484375 33.734375 
L 17.484375 0 
z
" id="ArialMT-72"/>
        <path d="M 42.09375 16.703125 
L 51.171875 15.578125 
Q 49.03125 7.625 43.21875 3.21875 
Q 37.40625 -1.171875 28.375 -1.171875 
Q 17 -1.171875 10.328125 5.828125 
Q 3.65625 12.84375 3.65625 25.484375 
Q 3.65625 38.578125 10.390625 45.796875 
Q 17.140625 53.03125 27.875 53.03125 
Q 38.28125 53.03125 44.875 45.953125 
Q 51.46875 38.875 51.46875 26.03125 
Q 51.46875 25.25 51.421875 23.6875 
L 12.75 23.6875 
Q 13.234375 15.140625 17.578125 10.59375 
Q 21.921875 6.0625 28.421875 6.0625 
Q 33.25 6.0625 36.671875 8.59375 
Q 40.09375 11.140625 42.09375 16.703125 
z
M 13.234375 30.90625 
L 42.1875 30.90625 
Q 41.609375 37.453125 38.875 40.71875 
Q 34.671875 45.796875 27.984375 45.796875 
Q 21.921875 45.796875 17.796875 41.75 
Q 13.671875 37.703125 13.234375 30.90625 
z
" id="ArialMT-101"/>
        <path d="M 40.4375 6.390625 
Q 35.546875 2.25 31.03125 0.53125 
Q 26.515625 -1.171875 21.34375 -1.171875 
Q 12.796875 -1.171875 8.203125 3 
Q 3.609375 7.171875 3.609375 13.671875 
Q 3.609375 17.484375 5.34375 20.625 
Q 7.078125 23.78125 9.890625 25.6875 
Q 12.703125 27.59375 16.21875 28.5625 
Q 18.796875 29.25 24.03125 29.890625 
Q 34.671875 31.15625 39.703125 32.90625 
Q 39.75 34.71875 39.75 35.203125 
Q 39.75 40.578125 37.25 42.78125 
Q 33.890625 45.75 27.25 45.75 
Q 21.046875 45.75 18.09375 43.578125 
Q 15.140625 41.40625 13.71875 35.890625 
L 5.125 37.0625 
Q 6.296875 42.578125 8.984375 45.96875 
Q 11.671875 49.359375 16.75 51.1875 
Q 21.828125 53.03125 28.515625 53.03125 
Q 35.15625 53.03125 39.296875 51.46875 
Q 43.453125 49.90625 45.40625 47.53125 
Q 47.359375 45.171875 48.140625 41.546875 
Q 48.578125 39.3125 48.578125 33.453125 
L 48.578125 21.734375 
Q 48.578125 9.46875 49.140625 6.21875 
Q 49.703125 2.984375 51.375 0 
L 42.1875 0 
Q 40.828125 2.734375 40.4375 6.390625 
z
M 39.703125 26.03125 
Q 34.90625 24.078125 25.34375 22.703125 
Q 19.921875 21.921875 17.671875 20.9375 
Q 15.4375 19.96875 14.203125 18.09375 
Q 12.984375 16.21875 12.984375 13.921875 
Q 12.984375 10.40625 15.640625 8.0625 
Q 18.3125 5.71875 23.4375 5.71875 
Q 28.515625 5.71875 32.46875 7.9375 
Q 36.421875 10.15625 38.28125 14.015625 
Q 39.703125 17 39.703125 22.796875 
z
" id="ArialMT-97"/>
        <path d="M 6.390625 0 
L 6.390625 71.578125 
L 15.1875 71.578125 
L 15.1875 0 
z
" id="ArialMT-108"/>
        <path d="M 25.78125 7.859375 
L 27.046875 0.09375 
Q 23.34375 -0.6875 20.40625 -0.6875 
Q 15.625 -0.6875 12.984375 0.828125 
Q 10.359375 2.34375 9.28125 4.8125 
Q 8.203125 7.28125 8.203125 15.1875 
L 8.203125 45.015625 
L 1.765625 45.015625 
L 1.765625 51.859375 
L 8.203125 51.859375 
L 8.203125 64.703125 
L 16.9375 69.96875 
L 16.9375 51.859375 
L 25.78125 51.859375 
L 25.78125 45.015625 
L 16.9375 45.015625 
L 16.9375 14.703125 
Q 16.9375 10.9375 17.40625 9.859375 
Q 17.875 8.796875 18.921875 8.15625 
Q 19.96875 7.515625 21.921875 7.515625 
Q 23.390625 7.515625 25.78125 7.859375 
z
" id="ArialMT-116"/>
        <path d="M 6.59375 0 
L 6.59375 71.578125 
L 15.375 71.578125 
L 15.375 45.90625 
Q 21.53125 53.03125 30.90625 53.03125 
Q 36.671875 53.03125 40.921875 50.75 
Q 45.171875 48.484375 47 44.484375 
Q 48.828125 40.484375 48.828125 32.859375 
L 48.828125 0 
L 40.046875 0 
L 40.046875 32.859375 
Q 40.046875 39.453125 37.1875 42.453125 
Q 34.328125 45.453125 29.109375 45.453125 
Q 25.203125 45.453125 21.75 43.421875 
Q 18.3125 41.40625 16.84375 37.9375 
Q 15.375 34.46875 15.375 28.375 
L 15.375 0 
z
" id="ArialMT-104"/>
        <path d="M 6.203125 -19.96875 
L 5.21875 -11.71875 
Q 8.109375 -12.5 10.25 -12.5 
Q 13.1875 -12.5 14.9375 -11.515625 
Q 16.703125 -10.546875 17.828125 -8.796875 
Q 18.65625 -7.46875 20.515625 -2.25 
Q 20.75 -1.515625 21.296875 -0.09375 
L 1.609375 51.859375 
L 11.078125 51.859375 
L 21.875 21.828125 
Q 23.96875 16.109375 25.640625 9.8125 
Q 27.15625 15.875 29.25 21.625 
L 40.328125 51.859375 
L 49.125 51.859375 
L 29.390625 -0.875 
Q 26.21875 -9.421875 24.46875 -12.640625 
Q 22.125 -17 19.09375 -19.015625 
Q 16.0625 -21.046875 11.859375 -21.046875 
Q 9.328125 -21.046875 6.203125 -19.96875 
z
" id="ArialMT-121"/>
       </defs>
       <use xlink:href="#ArialMT-72"/>
       <use x="72.216797" xlink:href="#ArialMT-101"/>
       <use x="127.832031" xlink:href="#ArialMT-97"/>
       <use x="183.447266" xlink:href="#ArialMT-108"/>
       <use x="205.664062" xlink:href="#ArialMT-116"/>
       <use x="233.447266" xlink:href="#ArialMT-104"/>
       <use x="289.0625" xlink:href="#ArialMT-121"/>
      </g>
     </g>
    </g>
    <g id="xtick_2">
     <g id="text_2">
      <!-- Moderate+Severe -->
      <g style="fill:#262626;" transform="translate(558.894496 1231.229063)scale(0.5 -0.5)">
       <defs>
        <path d="M 7.421875 0 
L 7.421875 71.578125 
L 21.6875 71.578125 
L 38.625 20.90625 
Q 40.96875 13.8125 42.046875 10.296875 
Q 43.265625 14.203125 45.84375 21.78125 
L 62.984375 71.578125 
L 75.734375 71.578125 
L 75.734375 0 
L 66.609375 0 
L 66.609375 59.90625 
L 45.796875 0 
L 37.25 0 
L 16.546875 60.9375 
L 16.546875 0 
z
" id="ArialMT-77"/>
        <path d="M 3.328125 25.921875 
Q 3.328125 40.328125 11.328125 47.265625 
Q 18.015625 53.03125 27.640625 53.03125 
Q 38.328125 53.03125 45.109375 46.015625 
Q 51.90625 39.015625 51.90625 26.65625 
Q 51.90625 16.65625 48.90625 10.90625 
Q 45.90625 5.171875 40.15625 2 
Q 34.421875 -1.171875 27.640625 -1.171875 
Q 16.75 -1.171875 10.03125 5.8125 
Q 3.328125 12.796875 3.328125 25.921875 
z
M 12.359375 25.921875 
Q 12.359375 15.96875 16.703125 11.015625 
Q 21.046875 6.0625 27.640625 6.0625 
Q 34.1875 6.0625 38.53125 11.03125 
Q 42.875 16.015625 42.875 26.21875 
Q 42.875 35.84375 38.5 40.796875 
Q 34.125 45.75 27.640625 45.75 
Q 21.046875 45.75 16.703125 40.8125 
Q 12.359375 35.890625 12.359375 25.921875 
z
" id="ArialMT-111"/>
        <path d="M 40.234375 0 
L 40.234375 6.546875 
Q 35.296875 -1.171875 25.734375 -1.171875 
Q 19.53125 -1.171875 14.328125 2.25 
Q 9.125 5.671875 6.265625 11.796875 
Q 3.421875 17.921875 3.421875 25.875 
Q 3.421875 33.640625 6 39.96875 
Q 8.59375 46.296875 13.765625 49.65625 
Q 18.953125 53.03125 25.34375 53.03125 
Q 30.03125 53.03125 33.6875 51.046875 
Q 37.359375 49.078125 39.65625 45.90625 
L 39.65625 71.578125 
L 48.390625 71.578125 
L 48.390625 0 
z
M 12.453125 25.875 
Q 12.453125 15.921875 16.640625 10.984375 
Q 20.84375 6.0625 26.5625 6.0625 
Q 32.328125 6.0625 36.34375 10.765625 
Q 40.375 15.484375 40.375 25.140625 
Q 40.375 35.796875 36.265625 40.765625 
Q 32.171875 45.75 26.171875 45.75 
Q 20.3125 45.75 16.375 40.96875 
Q 12.453125 36.1875 12.453125 25.875 
z
" id="ArialMT-100"/>
        <path d="M 6.5 0 
L 6.5 51.859375 
L 14.40625 51.859375 
L 14.40625 44 
Q 17.4375 49.515625 20 51.265625 
Q 22.5625 53.03125 25.640625 53.03125 
Q 30.078125 53.03125 34.671875 50.203125 
L 31.640625 42.046875 
Q 28.421875 43.953125 25.203125 43.953125 
Q 22.3125 43.953125 20.015625 42.21875 
Q 17.71875 40.484375 16.75 37.40625 
Q 15.28125 32.71875 15.28125 27.15625 
L 15.28125 0 
z
" id="ArialMT-114"/>
        <path d="M 25.046875 11.578125 
L 25.046875 31.203125 
L 5.5625 31.203125 
L 5.5625 39.40625 
L 25.046875 39.40625 
L 25.046875 58.890625 
L 33.34375 58.890625 
L 33.34375 39.40625 
L 52.828125 39.40625 
L 52.828125 31.203125 
L 33.34375 31.203125 
L 33.34375 11.578125 
z
" id="ArialMT-43"/>
        <path d="M 4.5 23 
L 13.421875 23.78125 
Q 14.0625 18.40625 16.375 14.96875 
Q 18.703125 11.53125 23.578125 9.40625 
Q 28.46875 7.28125 34.578125 7.28125 
Q 39.984375 7.28125 44.140625 8.890625 
Q 48.296875 10.5 50.3125 13.296875 
Q 52.34375 16.109375 52.34375 19.4375 
Q 52.34375 22.796875 50.390625 25.3125 
Q 48.4375 27.828125 43.953125 29.546875 
Q 41.0625 30.671875 31.203125 33.03125 
Q 21.34375 35.40625 17.390625 37.5 
Q 12.25 40.1875 9.734375 44.15625 
Q 7.234375 48.140625 7.234375 53.078125 
Q 7.234375 58.5 10.296875 63.203125 
Q 13.375 67.921875 19.28125 70.359375 
Q 25.203125 72.796875 32.421875 72.796875 
Q 40.375 72.796875 46.453125 70.234375 
Q 52.546875 67.671875 55.8125 62.6875 
Q 59.078125 57.71875 59.328125 51.421875 
L 50.25 50.734375 
Q 49.515625 57.515625 45.28125 60.984375 
Q 41.0625 64.453125 32.8125 64.453125 
Q 24.21875 64.453125 20.28125 61.296875 
Q 16.359375 58.15625 16.359375 53.71875 
Q 16.359375 49.859375 19.140625 47.359375 
Q 21.875 44.875 33.421875 42.265625 
Q 44.96875 39.65625 49.265625 37.703125 
Q 55.515625 34.8125 58.484375 30.390625 
Q 61.46875 25.984375 61.46875 20.21875 
Q 61.46875 14.5 58.203125 9.4375 
Q 54.9375 4.390625 48.796875 1.578125 
Q 42.671875 -1.21875 35.015625 -1.21875 
Q 25.296875 -1.21875 18.71875 1.609375 
Q 12.15625 4.4375 8.421875 10.125 
Q 4.6875 15.828125 4.5 23 
z
" id="ArialMT-83"/>
        <path d="M 21 0 
L 1.265625 51.859375 
L 10.546875 51.859375 
L 21.6875 20.796875 
Q 23.484375 15.765625 25 10.359375 
Q 26.171875 14.453125 28.265625 20.21875 
L 39.796875 51.859375 
L 48.828125 51.859375 
L 29.203125 0 
z
" id="ArialMT-118"/>
       </defs>
       <use xlink:href="#ArialMT-77"/>
       <use x="83.300781" xlink:href="#ArialMT-111"/>
       <use x="138.916016" xlink:href="#ArialMT-100"/>
       <use x="194.53125" xlink:href="#ArialMT-101"/>
       <use x="250.146484" xlink:href="#ArialMT-114"/>
       <use x="283.447266" xlink:href="#ArialMT-97"/>
       <use x="339.0625" xlink:href="#ArialMT-116"/>
       <use x="366.845703" xlink:href="#ArialMT-101"/>
       <use x="422.460938" xlink:href="#ArialMT-43"/>
       <use x="480.859375" xlink:href="#ArialMT-83"/>
       <use x="547.558594" xlink:href="#ArialMT-101"/>
       <use x="603.173828" xlink:href="#ArialMT-118"/>
       <use x="653.173828" xlink:href="#ArialMT-101"/>
       <use x="708.789062" xlink:href="#ArialMT-114"/>
       <use x="742.089844" xlink:href="#ArialMT-101"/>
      </g>
     </g>
    </g>
    <g id="xtick_3">
     <g id="text_3">
      <!-- Slight -->
      <g style="fill:#262626;" transform="translate(1059.152242 1231.838438)scale(0.5 -0.5)">
       <defs>
        <path d="M 6.640625 61.46875 
L 6.640625 71.578125 
L 15.4375 71.578125 
L 15.4375 61.46875 
z
M 6.640625 0 
L 6.640625 51.859375 
L 15.4375 51.859375 
L 15.4375 0 
z
" id="ArialMT-105"/>
        <path d="M 4.984375 -4.296875 
L 13.53125 -5.5625 
Q 14.0625 -9.515625 16.5 -11.328125 
Q 19.78125 -13.765625 25.4375 -13.765625 
Q 31.546875 -13.765625 34.859375 -11.328125 
Q 38.1875 -8.890625 39.359375 -4.5 
Q 40.046875 -1.8125 39.984375 6.78125 
Q 34.234375 0 25.640625 0 
Q 14.9375 0 9.078125 7.71875 
Q 3.21875 15.4375 3.21875 26.21875 
Q 3.21875 33.640625 5.90625 39.90625 
Q 8.59375 46.1875 13.6875 49.609375 
Q 18.796875 53.03125 25.6875 53.03125 
Q 34.859375 53.03125 40.828125 45.609375 
L 40.828125 51.859375 
L 48.921875 51.859375 
L 48.921875 7.03125 
Q 48.921875 -5.078125 46.453125 -10.125 
Q 44 -15.1875 38.640625 -18.109375 
Q 33.296875 -21.046875 25.484375 -21.046875 
Q 16.21875 -21.046875 10.5 -16.875 
Q 4.78125 -12.703125 4.984375 -4.296875 
z
M 12.25 26.859375 
Q 12.25 16.65625 16.296875 11.96875 
Q 20.359375 7.28125 26.46875 7.28125 
Q 32.515625 7.28125 36.609375 11.9375 
Q 40.71875 16.609375 40.71875 26.5625 
Q 40.71875 36.078125 36.5 40.90625 
Q 32.28125 45.75 26.3125 45.75 
Q 20.453125 45.75 16.34375 40.984375 
Q 12.25 36.234375 12.25 26.859375 
z
" id="ArialMT-103"/>
       </defs>
       <use xlink:href="#ArialMT-83"/>
       <use x="66.699219" xlink:href="#ArialMT-108"/>
       <use x="88.916016" xlink:href="#ArialMT-105"/>
       <use x="111.132812" xlink:href="#ArialMT-103"/>
       <use x="166.748047" xlink:href="#ArialMT-104"/>
       <use x="222.363281" xlink:href="#ArialMT-116"/>
      </g>
     </g>
    </g>
   </g>
   <g id="matplotlib.axis_2">
    <g id="ytick_1">
     <g id="line2d_1">
      <path clip-path="url(#p32fa91058b)" d="M 202.32 1092.036808 
L 1242 1092.036808 
" style="fill:none;stroke:#cccccc;stroke-linecap:round;stroke-width:2;"/>
     </g>
     <g id="text_4">
      <!-- 0 -->
      <g style="fill:#262626;" transform="translate(159.015313 1109.93134)scale(0.5 -0.5)">
       <defs>
        <path d="M 4.15625 35.296875 
Q 4.15625 48 6.765625 55.734375 
Q 9.375 63.484375 14.515625 67.671875 
Q 19.671875 71.875 27.484375 71.875 
Q 33.25 71.875 37.59375 69.546875 
Q 41.9375 67.234375 44.765625 62.859375 
Q 47.609375 58.5 49.21875 52.21875 
Q 50.828125 45.953125 50.828125 35.296875 
Q 50.828125 22.703125 48.234375 14.96875 
Q 45.65625 7.234375 40.5 3 
Q 35.359375 -1.21875 27.484375 -1.21875 
Q 17.140625 -1.21875 11.234375 6.203125 
Q 4.15625 15.140625 4.15625 35.296875 
z
M 13.1875 35.296875 
Q 13.1875 17.671875 17.3125 11.828125 
Q 21.4375 6 27.484375 6 
Q 33.546875 6 37.671875 11.859375 
Q 41.796875 17.71875 41.796875 35.296875 
Q 41.796875 52.984375 37.671875 58.78125 
Q 33.546875 64.59375 27.390625 64.59375 
Q 21.34375 64.59375 17.71875 59.46875 
Q 13.1875 52.9375 13.1875 35.296875 
z
" id="ArialMT-48"/>
       </defs>
       <use xlink:href="#ArialMT-48"/>
      </g>
     </g>
    </g>
    <g id="ytick_2">
     <g id="line2d_2">
      <path clip-path="url(#p32fa91058b)" d="M 202.32 966.917901 
L 1242 966.917901 
" style="fill:none;stroke:#cccccc;stroke-linecap:round;stroke-width:2;"/>
     </g>
     <g id="text_5">
      <!-- 100 -->
      <g style="fill:#262626;" transform="translate(103.405938 984.812432)scale(0.5 -0.5)">
       <defs>
        <path d="M 37.25 0 
L 28.46875 0 
L 28.46875 56 
Q 25.296875 52.984375 20.140625 49.953125 
Q 14.984375 46.921875 10.890625 45.40625 
L 10.890625 53.90625 
Q 18.265625 57.375 23.78125 62.296875 
Q 29.296875 67.234375 31.59375 71.875 
L 37.25 71.875 
z
" id="ArialMT-49"/>
       </defs>
       <use xlink:href="#ArialMT-49"/>
       <use x="55.615234" xlink:href="#ArialMT-48"/>
       <use x="111.230469" xlink:href="#ArialMT-48"/>
      </g>
     </g>
    </g>
    <g id="ytick_3">
     <g id="line2d_3">
      <path clip-path="url(#p32fa91058b)" d="M 202.32 841.798993 
L 1242 841.798993 
" style="fill:none;stroke:#cccccc;stroke-linecap:round;stroke-width:2;"/>
     </g>
     <g id="text_6">
      <!-- 200 -->
      <g style="fill:#262626;" transform="translate(103.405938 859.693524)scale(0.5 -0.5)">
       <defs>
        <path d="M 50.34375 8.453125 
L 50.34375 0 
L 3.03125 0 
Q 2.9375 3.171875 4.046875 6.109375 
Q 5.859375 10.9375 9.828125 15.625 
Q 13.8125 20.3125 21.34375 26.46875 
Q 33.015625 36.03125 37.109375 41.625 
Q 41.21875 47.21875 41.21875 52.203125 
Q 41.21875 57.421875 37.46875 61 
Q 33.734375 64.59375 27.734375 64.59375 
Q 21.390625 64.59375 17.578125 60.78125 
Q 13.765625 56.984375 13.71875 50.25 
L 4.6875 51.171875 
Q 5.609375 61.28125 11.65625 66.578125 
Q 17.71875 71.875 27.9375 71.875 
Q 38.234375 71.875 44.234375 66.15625 
Q 50.25 60.453125 50.25 52 
Q 50.25 47.703125 48.484375 43.546875 
Q 46.734375 39.40625 42.65625 34.8125 
Q 38.578125 30.21875 29.109375 22.21875 
Q 21.1875 15.578125 18.9375 13.203125 
Q 16.703125 10.84375 15.234375 8.453125 
z
" id="ArialMT-50"/>
       </defs>
       <use xlink:href="#ArialMT-50"/>
       <use x="55.615234" xlink:href="#ArialMT-48"/>
       <use x="111.230469" xlink:href="#ArialMT-48"/>
      </g>
     </g>
    </g>
    <g id="ytick_4">
     <g id="line2d_4">
      <path clip-path="url(#p32fa91058b)" d="M 202.32 716.680085 
L 1242 716.680085 
" style="fill:none;stroke:#cccccc;stroke-linecap:round;stroke-width:2;"/>
     </g>
     <g id="text_7">
      <!-- 300 -->
      <g style="fill:#262626;" transform="translate(103.405938 734.574616)scale(0.5 -0.5)">
       <defs>
        <path d="M 4.203125 18.890625 
L 12.984375 20.0625 
Q 14.5 12.59375 18.140625 9.296875 
Q 21.78125 6 27 6 
Q 33.203125 6 37.46875 10.296875 
Q 41.75 14.59375 41.75 20.953125 
Q 41.75 27 37.796875 30.921875 
Q 33.84375 34.859375 27.734375 34.859375 
Q 25.25 34.859375 21.53125 33.890625 
L 22.515625 41.609375 
Q 23.390625 41.5 23.921875 41.5 
Q 29.546875 41.5 34.03125 44.421875 
Q 38.53125 47.359375 38.53125 53.46875 
Q 38.53125 58.296875 35.25 61.46875 
Q 31.984375 64.65625 26.8125 64.65625 
Q 21.6875 64.65625 18.265625 61.421875 
Q 14.84375 58.203125 13.875 51.765625 
L 5.078125 53.328125 
Q 6.6875 62.15625 12.390625 67.015625 
Q 18.109375 71.875 26.609375 71.875 
Q 32.46875 71.875 37.390625 69.359375 
Q 42.328125 66.84375 44.9375 62.5 
Q 47.5625 58.15625 47.5625 53.265625 
Q 47.5625 48.640625 45.0625 44.828125 
Q 42.578125 41.015625 37.703125 38.765625 
Q 44.046875 37.3125 47.5625 32.6875 
Q 51.078125 28.078125 51.078125 21.140625 
Q 51.078125 11.765625 44.234375 5.25 
Q 37.40625 -1.265625 26.953125 -1.265625 
Q 17.53125 -1.265625 11.296875 4.34375 
Q 5.078125 9.96875 4.203125 18.890625 
z
" id="ArialMT-51"/>
       </defs>
       <use xlink:href="#ArialMT-51"/>
       <use x="55.615234" xlink:href="#ArialMT-48"/>
       <use x="111.230469" xlink:href="#ArialMT-48"/>
      </g>
     </g>
    </g>
    <g id="ytick_5">
     <g id="line2d_5">
      <path clip-path="url(#p32fa91058b)" d="M 202.32 591.561177 
L 1242 591.561177 
" style="fill:none;stroke:#cccccc;stroke-linecap:round;stroke-width:2;"/>
     </g>
     <g id="text_8">
      <!-- 400 -->
      <g style="fill:#262626;" transform="translate(103.405938 609.455709)scale(0.5 -0.5)">
       <defs>
        <path d="M 32.328125 0 
L 32.328125 17.140625 
L 1.265625 17.140625 
L 1.265625 25.203125 
L 33.9375 71.578125 
L 41.109375 71.578125 
L 41.109375 25.203125 
L 50.78125 25.203125 
L 50.78125 17.140625 
L 41.109375 17.140625 
L 41.109375 0 
z
M 32.328125 25.203125 
L 32.328125 57.46875 
L 9.90625 25.203125 
z
" id="ArialMT-52"/>
       </defs>
       <use xlink:href="#ArialMT-52"/>
       <use x="55.615234" xlink:href="#ArialMT-48"/>
       <use x="111.230469" xlink:href="#ArialMT-48"/>
      </g>
     </g>
    </g>
    <g id="ytick_6">
     <g id="line2d_6">
      <path clip-path="url(#p32fa91058b)" d="M 202.32 466.44227 
L 1242 466.44227 
" style="fill:none;stroke:#cccccc;stroke-linecap:round;stroke-width:2;"/>
     </g>
     <g id="text_9">
      <!-- 500 -->
      <g style="fill:#262626;" transform="translate(103.405938 484.336801)scale(0.5 -0.5)">
       <defs>
        <path d="M 4.15625 18.75 
L 13.375 19.53125 
Q 14.40625 12.796875 18.140625 9.390625 
Q 21.875 6 27.15625 6 
Q 33.5 6 37.890625 10.78125 
Q 42.28125 15.578125 42.28125 23.484375 
Q 42.28125 31 38.0625 35.34375 
Q 33.84375 39.703125 27 39.703125 
Q 22.75 39.703125 19.328125 37.765625 
Q 15.921875 35.84375 13.96875 32.765625 
L 5.71875 33.84375 
L 12.640625 70.609375 
L 48.25 70.609375 
L 48.25 62.203125 
L 19.671875 62.203125 
L 15.828125 42.96875 
Q 22.265625 47.46875 29.34375 47.46875 
Q 38.71875 47.46875 45.15625 40.96875 
Q 51.609375 34.46875 51.609375 24.265625 
Q 51.609375 14.546875 45.953125 7.46875 
Q 39.0625 -1.21875 27.15625 -1.21875 
Q 17.390625 -1.21875 11.203125 4.25 
Q 5.03125 9.71875 4.15625 18.75 
z
" id="ArialMT-53"/>
       </defs>
       <use xlink:href="#ArialMT-53"/>
       <use x="55.615234" xlink:href="#ArialMT-48"/>
       <use x="111.230469" xlink:href="#ArialMT-48"/>
      </g>
     </g>
    </g>
    <g id="ytick_7">
     <g id="line2d_7">
      <path clip-path="url(#p32fa91058b)" d="M 202.32 341.323362 
L 1242 341.323362 
" style="fill:none;stroke:#cccccc;stroke-linecap:round;stroke-width:2;"/>
     </g>
     <g id="text_10">
      <!-- 600 -->
      <g style="fill:#262626;" transform="translate(103.405938 359.217893)scale(0.5 -0.5)">
       <defs>
        <path d="M 49.75 54.046875 
L 41.015625 53.375 
Q 39.84375 58.546875 37.703125 60.890625 
Q 34.125 64.65625 28.90625 64.65625 
Q 24.703125 64.65625 21.53125 62.3125 
Q 17.390625 59.28125 14.984375 53.46875 
Q 12.59375 47.65625 12.5 36.921875 
Q 15.671875 41.75 20.265625 44.09375 
Q 24.859375 46.4375 29.890625 46.4375 
Q 38.671875 46.4375 44.84375 39.96875 
Q 51.03125 33.5 51.03125 23.25 
Q 51.03125 16.5 48.125 10.71875 
Q 45.21875 4.9375 40.140625 1.859375 
Q 35.0625 -1.21875 28.609375 -1.21875 
Q 17.625 -1.21875 10.6875 6.859375 
Q 3.765625 14.9375 3.765625 33.5 
Q 3.765625 54.25 11.421875 63.671875 
Q 18.109375 71.875 29.4375 71.875 
Q 37.890625 71.875 43.28125 67.140625 
Q 48.6875 62.40625 49.75 54.046875 
z
M 13.875 23.1875 
Q 13.875 18.65625 15.796875 14.5 
Q 17.71875 10.359375 21.1875 8.171875 
Q 24.65625 6 28.46875 6 
Q 34.03125 6 38.03125 10.484375 
Q 42.046875 14.984375 42.046875 22.703125 
Q 42.046875 30.125 38.078125 34.390625 
Q 34.125 38.671875 28.125 38.671875 
Q 22.171875 38.671875 18.015625 34.390625 
Q 13.875 30.125 13.875 23.1875 
z
" id="ArialMT-54"/>
       </defs>
       <use xlink:href="#ArialMT-54"/>
       <use x="55.615234" xlink:href="#ArialMT-48"/>
       <use x="111.230469" xlink:href="#ArialMT-48"/>
      </g>
     </g>
    </g>
    <g id="ytick_8">
     <g id="line2d_8">
      <path clip-path="url(#p32fa91058b)" d="M 202.32 216.204454 
L 1242 216.204454 
" style="fill:none;stroke:#cccccc;stroke-linecap:round;stroke-width:2;"/>
     </g>
     <g id="text_11">
      <!-- 700 -->
      <g style="fill:#262626;" transform="translate(103.405938 234.098985)scale(0.5 -0.5)">
       <defs>
        <path d="M 4.734375 62.203125 
L 4.734375 70.65625 
L 51.078125 70.65625 
L 51.078125 63.8125 
Q 44.234375 56.546875 37.515625 44.484375 
Q 30.8125 32.421875 27.15625 19.671875 
Q 24.515625 10.6875 23.78125 0 
L 14.75 0 
Q 14.890625 8.453125 18.0625 20.40625 
Q 21.234375 32.375 27.171875 43.484375 
Q 33.109375 54.59375 39.796875 62.203125 
z
" id="ArialMT-55"/>
       </defs>
       <use xlink:href="#ArialMT-55"/>
       <use x="55.615234" xlink:href="#ArialMT-48"/>
       <use x="111.230469" xlink:href="#ArialMT-48"/>
      </g>
     </g>
    </g>
    <g id="text_12">
     <!-- Abundance -->
     <g style="fill:#262626;" transform="translate(89.468438 764.522187)rotate(-90)scale(0.5 -0.5)">
      <defs>
       <path d="M -0.140625 0 
L 27.34375 71.578125 
L 37.546875 71.578125 
L 66.84375 0 
L 56.0625 0 
L 47.703125 21.6875 
L 17.78125 21.6875 
L 9.90625 0 
z
M 20.515625 29.390625 
L 44.78125 29.390625 
L 37.3125 49.21875 
Q 33.890625 58.25 32.234375 64.0625 
Q 30.859375 57.171875 28.375 50.390625 
z
" id="ArialMT-65"/>
       <path d="M 14.703125 0 
L 6.546875 0 
L 6.546875 71.578125 
L 15.328125 71.578125 
L 15.328125 46.046875 
Q 20.90625 53.03125 29.546875 53.03125 
Q 34.328125 53.03125 38.59375 51.09375 
Q 42.875 49.171875 45.625 45.671875 
Q 48.390625 42.1875 49.953125 37.25 
Q 51.515625 32.328125 51.515625 26.703125 
Q 51.515625 13.375 44.921875 6.09375 
Q 38.328125 -1.171875 29.109375 -1.171875 
Q 19.921875 -1.171875 14.703125 6.5 
z
M 14.59375 26.3125 
Q 14.59375 17 17.140625 12.84375 
Q 21.296875 6.0625 28.375 6.0625 
Q 34.125 6.0625 38.328125 11.0625 
Q 42.53125 16.0625 42.53125 25.984375 
Q 42.53125 36.140625 38.5 40.96875 
Q 34.46875 45.796875 28.765625 45.796875 
Q 23 45.796875 18.796875 40.796875 
Q 14.59375 35.796875 14.59375 26.3125 
z
" id="ArialMT-98"/>
       <path d="M 40.578125 0 
L 40.578125 7.625 
Q 34.515625 -1.171875 24.125 -1.171875 
Q 19.53125 -1.171875 15.546875 0.578125 
Q 11.578125 2.34375 9.640625 5 
Q 7.71875 7.671875 6.9375 11.53125 
Q 6.390625 14.109375 6.390625 19.734375 
L 6.390625 51.859375 
L 15.1875 51.859375 
L 15.1875 23.09375 
Q 15.1875 16.21875 15.71875 13.8125 
Q 16.546875 10.359375 19.234375 8.375 
Q 21.921875 6.390625 25.875 6.390625 
Q 29.828125 6.390625 33.296875 8.421875 
Q 36.765625 10.453125 38.203125 13.9375 
Q 39.65625 17.4375 39.65625 24.078125 
L 39.65625 51.859375 
L 48.4375 51.859375 
L 48.4375 0 
z
" id="ArialMT-117"/>
       <path d="M 6.59375 0 
L 6.59375 51.859375 
L 14.5 51.859375 
L 14.5 44.484375 
Q 20.21875 53.03125 31 53.03125 
Q 35.6875 53.03125 39.625 51.34375 
Q 43.5625 49.65625 45.515625 46.921875 
Q 47.46875 44.1875 48.25 40.4375 
Q 48.734375 37.984375 48.734375 31.890625 
L 48.734375 0 
L 39.9375 0 
L 39.9375 31.546875 
Q 39.9375 36.921875 38.90625 39.578125 
Q 37.890625 42.234375 35.28125 43.8125 
Q 32.671875 45.40625 29.15625 45.40625 
Q 23.53125 45.40625 19.453125 41.84375 
Q 15.375 38.28125 15.375 28.328125 
L 15.375 0 
z
" id="ArialMT-110"/>
       <path d="M 40.4375 19 
L 49.078125 17.875 
Q 47.65625 8.9375 41.8125 3.875 
Q 35.984375 -1.171875 27.484375 -1.171875 
Q 16.84375 -1.171875 10.375 5.78125 
Q 3.90625 12.75 3.90625 25.734375 
Q 3.90625 34.125 6.6875 40.421875 
Q 9.46875 46.734375 15.15625 49.875 
Q 20.84375 53.03125 27.546875 53.03125 
Q 35.984375 53.03125 41.359375 48.75 
Q 46.734375 44.484375 48.25 36.625 
L 39.703125 35.296875 
Q 38.484375 40.53125 35.375 43.15625 
Q 32.28125 45.796875 27.875 45.796875 
Q 21.234375 45.796875 17.078125 41.03125 
Q 12.9375 36.28125 12.9375 25.984375 
Q 12.9375 15.53125 16.9375 10.796875 
Q 20.953125 6.0625 27.390625 6.0625 
Q 32.5625 6.0625 36.03125 9.234375 
Q 39.5 12.40625 40.4375 19 
z
" id="ArialMT-99"/>
      </defs>
      <use xlink:href="#ArialMT-65"/>
      <use x="66.699219" xlink:href="#ArialMT-98"/>
      <use x="122.314453" xlink:href="#ArialMT-117"/>
      <use x="177.929688" xlink:href="#ArialMT-110"/>
      <use x="233.544922" xlink:href="#ArialMT-100"/>
      <use x="289.160156" xlink:href="#ArialMT-97"/>
      <use x="344.775391" xlink:href="#ArialMT-110"/>
      <use x="400.390625" xlink:href="#ArialMT-99"/>
      <use x="450.390625" xlink:href="#ArialMT-101"/>
     </g>
    </g>
   </g>
   <g id="PolyCollection_1">
    <defs>
     <path d="M 471.625861 -174.465837 
L 318.233575 -174.465837 
L 306.065755 -178.726843 
L 293.967917 -182.987848 
L 282.434506 -187.248854 
L 271.978295 -191.509859 
L 263.090162 -195.770865 
L 256.197756 -200.03187 
L 251.628007 -204.292876 
L 249.578182 -208.553881 
L 250.099209 -212.814886 
L 253.093321 -217.075892 
L 258.326158 -221.336897 
L 265.451467 -225.597903 
L 274.044986 -229.858908 
L 283.643033 -234.119914 
L 293.781114 -238.380919 
L 304.028254 -242.641925 
L 314.013828 -246.90293 
L 323.444998 -251.163936 
L 332.114322 -255.424941 
L 339.89838 -259.685947 
L 346.74919 -263.946952 
L 352.680718 -268.207958 
L 357.752918 -272.468963 
L 362.055444 -276.729968 
L 365.692785 -280.990974 
L 368.771928 -285.251979 
L 371.393139 -289.512985 
L 373.643937 -293.77399 
L 375.595977 -298.034996 
L 377.304336 -302.296001 
L 378.808589 -306.557007 
L 380.135062 -310.818012 
L 381.299678 -315.079018 
L 382.310945 -319.340023 
L 383.172729 -323.601029 
L 383.886554 -327.862034 
L 384.45333 -332.12304 
L 384.874474 -336.384045 
L 385.152516 -340.64505 
L 385.291305 -344.906056 
L 385.296026 -349.167061 
L 385.173173 -353.428067 
L 384.930644 -357.689072 
L 384.578025 -361.950078 
L 384.127075 -366.211083 
L 383.592307 -370.472089 
L 382.991548 -374.733094 
L 382.346282 -378.9941 
L 381.681618 -383.255105 
L 381.025777 -387.516111 
L 380.409047 -391.777116 
L 379.862275 -396.038122 
L 379.415039 -400.299127 
L 379.093707 -404.560132 
L 378.919625 -408.821138 
L 378.907645 -413.082143 
L 379.065185 -417.343149 
L 379.391904 -421.604154 
L 379.880002 -425.86516 
L 380.515089 -430.126165 
L 381.277461 -434.387171 
L 382.143637 -438.648176 
L 383.087969 -442.909182 
L 384.084167 -447.170187 
L 385.106622 -451.431193 
L 386.131457 -455.692198 
L 387.137282 -459.953204 
L 388.105657 -464.214209 
L 389.021318 -468.475214 
L 389.872191 -472.73622 
L 390.649271 -476.997225 
L 391.346397 -481.258231 
L 391.959955 -485.519236 
L 392.488557 -489.780242 
L 392.932698 -494.041247 
L 393.294423 -498.302253 
L 393.577034 -502.563258 
L 393.784834 -506.824264 
L 393.922957 -511.085269 
L 393.997258 -515.346275 
L 394.014296 -519.60728 
L 393.98136 -523.868286 
L 393.906527 -528.129291 
L 393.798692 -532.390296 
L 393.667533 -536.651302 
L 393.523356 -540.912307 
L 393.376812 -545.173313 
L 393.23846 -549.434318 
L 393.118231 -553.695324 
L 393.024824 -557.956329 
L 392.965123 -562.217335 
L 392.943706 -566.47834 
L 392.962536 -570.739346 
L 393.02087 -575.000351 
L 393.115413 -579.261357 
L 393.240715 -583.522362 
L 393.389741 -587.783368 
L 393.554567 -592.044373 
L 393.727085 -596.305378 
L 396.132351 -596.305378 
L 396.132351 -596.305378 
L 396.304869 -592.044373 
L 396.469694 -587.783368 
L 396.618721 -583.522362 
L 396.744023 -579.261357 
L 396.838566 -575.000351 
L 396.8969 -570.739346 
L 396.91573 -566.47834 
L 396.894313 -562.217335 
L 396.834611 -557.956329 
L 396.741205 -553.695324 
L 396.620976 -549.434318 
L 396.482624 -545.173313 
L 396.33608 -540.912307 
L 396.191903 -536.651302 
L 396.060744 -532.390296 
L 395.952909 -528.129291 
L 395.878076 -523.868286 
L 395.84514 -519.60728 
L 395.862178 -515.346275 
L 395.936479 -511.085269 
L 396.074601 -506.824264 
L 396.282402 -502.563258 
L 396.565013 -498.302253 
L 396.926738 -494.041247 
L 397.370879 -489.780242 
L 397.899481 -485.519236 
L 398.513039 -481.258231 
L 399.210165 -476.997225 
L 399.987245 -472.73622 
L 400.838118 -468.475214 
L 401.753779 -464.214209 
L 402.722154 -459.953204 
L 403.727979 -455.692198 
L 404.752814 -451.431193 
L 405.775269 -447.170187 
L 406.771467 -442.909182 
L 407.715799 -438.648176 
L 408.581975 -434.387171 
L 409.344347 -430.126165 
L 409.979433 -425.86516 
L 410.467532 -421.604154 
L 410.794251 -417.343149 
L 410.951791 -413.082143 
L 410.939811 -408.821138 
L 410.765729 -404.560132 
L 410.444397 -400.299127 
L 409.997161 -396.038122 
L 409.450389 -391.777116 
L 408.833659 -387.516111 
L 408.177818 -383.255105 
L 407.513154 -378.9941 
L 406.867888 -374.733094 
L 406.267129 -370.472089 
L 405.732361 -366.211083 
L 405.281411 -361.950078 
L 404.928792 -357.689072 
L 404.686263 -353.428067 
L 404.56341 -349.167061 
L 404.568131 -344.906056 
L 404.70692 -340.64505 
L 404.984962 -336.384045 
L 405.406106 -332.12304 
L 405.972882 -327.862034 
L 406.686707 -323.601029 
L 407.548491 -319.340023 
L 408.559758 -315.079018 
L 409.724374 -310.818012 
L 411.050846 -306.557007 
L 412.5551 -302.296001 
L 414.263459 -298.034996 
L 416.215498 -293.77399 
L 418.466297 -289.512985 
L 421.087508 -285.251979 
L 424.16665 -280.990974 
L 427.803992 -276.729968 
L 432.106518 -272.468963 
L 437.178717 -268.207958 
L 443.110246 -263.946952 
L 449.961055 -259.685947 
L 457.745114 -255.424941 
L 466.414438 -251.163936 
L 475.845608 -246.90293 
L 485.831182 -242.641925 
L 496.078322 -238.380919 
L 506.216403 -234.119914 
L 515.81445 -229.858908 
L 524.407968 -225.597903 
L 531.533278 -221.336897 
L 536.766114 -217.075892 
L 539.760227 -212.814886 
L 540.281254 -208.553881 
L 538.231429 -204.292876 
L 533.66168 -200.03187 
L 526.769274 -195.770865 
L 517.881141 -191.509859 
L 507.42493 -187.248854 
L 495.891519 -182.987848 
L 483.793681 -178.726843 
L 471.625861 -174.465837 
z
" id="m61c550e09f" style="stroke:#4c4c4c;stroke-width:5;"/>
    </defs>
    <g clip-path="url(#p32fa91058b)">
     <use style="fill:#5875a4;stroke:#4c4c4c;stroke-width:5;" x="0" xlink:href="#m61c550e09f" y="1296"/>
    </g>
   </g>
   <g id="PolyCollection_2">
    <defs>
     <path d="M 766.161686 -153.681631 
L 750.455431 -153.681631 
L 748.752756 -161.281961 
L 746.869659 -168.882291 
L 744.827534 -176.48262 
L 742.654266 -184.08295 
L 740.382611 -191.683279 
L 738.048316 -199.283609 
L 735.688282 -206.883939 
L 733.338976 -214.484268 
L 731.035257 -222.084598 
L 728.809627 -229.684927 
L 726.691823 -237.285257 
L 724.708565 -244.885587 
L 722.883274 -252.485916 
L 721.235582 -260.086246 
L 719.780592 -267.686575 
L 718.527937 -275.286905 
L 717.480827 -282.887235 
L 716.635313 -290.487564 
L 715.980044 -298.087894 
L 715.496689 -305.688223 
L 715.161112 -313.288553 
L 714.945238 -320.888883 
L 714.819408 -328.489212 
L 714.754959 -336.089542 
L 714.726724 -343.689871 
L 714.715176 -351.290201 
L 714.70801 -358.89053 
L 714.701079 -366.49086 
L 714.698658 -374.09119 
L 714.713083 -381.691519 
L 714.763848 -389.291849 
L 714.876243 -396.892178 
L 715.079582 -404.492508 
L 715.405103 -412.092838 
L 715.88359 -419.693167 
L 716.54284 -427.293497 
L 717.405131 -434.893826 
L 718.48491 -442.494156 
L 719.786945 -450.094486 
L 721.305196 -457.694815 
L 723.022582 -465.295145 
L 724.911732 -472.895474 
L 726.936696 -480.495804 
L 729.055428 -488.096134 
L 731.222764 -495.696463 
L 733.393544 -503.296793 
L 735.525526 -510.897122 
L 737.581761 -518.497452 
L 739.532228 -526.097781 
L 741.354616 -533.698111 
L 743.034295 -541.298441 
L 744.563607 -548.89877 
L 745.940695 -556.4991 
L 747.168131 -564.099429 
L 748.251565 -571.699759 
L 749.198622 -579.300089 
L 750.018125 -586.900418 
L 750.719714 -594.500748 
L 751.313789 -602.101077 
L 751.811654 -609.701407 
L 752.225727 -617.301737 
L 752.56964 -624.902066 
L 752.858101 -632.502396 
L 753.106458 -640.102725 
L 753.32995 -647.703055 
L 753.542745 -655.303385 
L 753.756879 -662.903714 
L 753.981282 -670.504044 
L 754.221062 -678.104373 
L 754.477174 -685.704703 
L 754.746557 -693.305033 
L 755.022739 -700.905362 
L 755.296828 -708.505692 
L 755.558753 -716.106021 
L 755.79858 -723.706351 
L 756.007732 -731.30668 
L 756.179951 -738.90701 
L 756.311904 -746.50734 
L 756.403387 -754.107669 
L 756.457149 -761.707999 
L 756.478411 -769.308328 
L 756.474175 -776.908658 
L 756.452463 -784.508988 
L 756.421567 -792.109317 
L 756.389416 -799.709647 
L 756.363097 -807.309976 
L 756.348541 -814.910306 
L 756.350353 -822.510636 
L 756.371756 -830.110965 
L 756.414605 -837.711295 
L 756.47944 -845.311624 
L 756.565562 -852.911954 
L 756.67113 -860.512284 
L 756.793295 -868.112613 
L 756.928374 -875.712943 
L 757.072083 -883.313272 
L 757.219819 -890.913602 
L 757.366968 -898.513932 
L 757.509222 -906.114261 
L 759.107894 -906.114261 
L 759.107894 -906.114261 
L 759.250148 -898.513932 
L 759.397298 -890.913602 
L 759.545033 -883.313272 
L 759.688743 -875.712943 
L 759.823822 -868.112613 
L 759.945986 -860.512284 
L 760.051555 -852.911954 
L 760.137677 -845.311624 
L 760.202512 -837.711295 
L 760.245361 -830.110965 
L 760.266764 -822.510636 
L 760.268575 -814.910306 
L 760.254019 -807.309976 
L 760.227701 -799.709647 
L 760.19555 -792.109317 
L 760.164653 -784.508988 
L 760.142941 -776.908658 
L 760.138706 -769.308328 
L 760.159967 -761.707999 
L 760.213729 -754.107669 
L 760.305212 -746.50734 
L 760.437165 -738.90701 
L 760.609385 -731.30668 
L 760.818537 -723.706351 
L 761.058364 -716.106021 
L 761.320288 -708.505692 
L 761.594378 -700.905362 
L 761.87056 -693.305033 
L 762.139943 -685.704703 
L 762.396054 -678.104373 
L 762.635834 -670.504044 
L 762.860238 -662.903714 
L 763.074371 -655.303385 
L 763.287166 -647.703055 
L 763.510659 -640.102725 
L 763.759015 -632.502396 
L 764.047477 -624.902066 
L 764.39139 -617.301737 
L 764.805463 -609.701407 
L 765.303328 -602.101077 
L 765.897402 -594.500748 
L 766.598992 -586.900418 
L 767.418495 -579.300089 
L 768.365551 -571.699759 
L 769.448986 -564.099429 
L 770.676421 -556.4991 
L 772.05351 -548.89877 
L 773.582822 -541.298441 
L 775.262501 -533.698111 
L 777.084889 -526.097781 
L 779.035355 -518.497452 
L 781.091591 -510.897122 
L 783.223573 -503.296793 
L 785.394353 -495.696463 
L 787.561688 -488.096134 
L 789.680421 -480.495804 
L 791.705385 -472.895474 
L 793.594535 -465.295145 
L 795.31192 -457.694815 
L 796.830172 -450.094486 
L 798.132207 -442.494156 
L 799.211985 -434.893826 
L 800.074276 -427.293497 
L 800.733526 -419.693167 
L 801.212013 -412.092838 
L 801.537534 -404.492508 
L 801.740874 -396.892178 
L 801.853268 -389.291849 
L 801.904034 -381.691519 
L 801.918458 -374.09119 
L 801.916037 -366.49086 
L 801.909107 -358.89053 
L 801.90194 -351.290201 
L 801.890392 -343.689871 
L 801.862158 -336.089542 
L 801.797709 -328.489212 
L 801.671878 -320.888883 
L 801.456004 -313.288553 
L 801.120428 -305.688223 
L 800.637073 -298.087894 
L 799.981803 -290.487564 
L 799.136289 -282.887235 
L 798.089179 -275.286905 
L 796.836525 -267.686575 
L 795.381534 -260.086246 
L 793.733842 -252.485916 
L 791.908551 -244.885587 
L 789.925294 -237.285257 
L 787.807489 -229.684927 
L 785.581859 -222.084598 
L 783.27814 -214.484268 
L 780.928834 -206.883939 
L 778.5688 -199.283609 
L 776.234506 -191.683279 
L 773.962851 -184.08295 
L 771.789583 -176.48262 
L 769.747457 -168.882291 
L 767.864361 -161.281961 
L 766.161686 -153.681631 
z
" id="m519038281d" style="stroke:#4c4c4c;stroke-width:5;"/>
    </defs>
    <g clip-path="url(#p32fa91058b)">
     <use style="fill:#cc8963;stroke:#4c4c4c;stroke-width:5;" x="0" xlink:href="#m519038281d" y="1296"/>
    </g>
   </g>
   <g id="PolyCollection_3">
    <defs>
     <path d="M 1159.955742 -163.942494 
L 1083.419055 -163.942494 
L 1079.392596 -167.834732 
L 1075.353377 -171.72697 
L 1071.370661 -175.619207 
L 1067.516803 -179.511445 
L 1063.864625 -183.403683 
L 1060.484586 -187.29592 
L 1057.441897 -191.188158 
L 1054.793734 -195.080396 
L 1052.586724 -198.972633 
L 1050.854858 -202.864871 
L 1049.617958 -206.757109 
L 1048.880805 -210.649346 
L 1048.632979 -214.541584 
L 1048.849436 -218.433822 
L 1049.491776 -222.326059 
L 1050.510133 -226.218297 
L 1051.845574 -230.110535 
L 1053.432856 -234.002772 
L 1055.203393 -237.89501 
L 1057.088252 -241.787248 
L 1059.021032 -245.679486 
L 1060.940468 -249.571723 
L 1062.79265 -253.463961 
L 1064.532761 -257.356199 
L 1066.126278 -261.248436 
L 1067.549619 -265.140674 
L 1068.790229 -269.032912 
L 1069.846167 -272.925149 
L 1070.725229 -276.817387 
L 1071.443701 -280.709625 
L 1072.024824 -284.601862 
L 1072.497069 -288.4941 
L 1072.892318 -292.386338 
L 1073.244038 -296.278575 
L 1073.585534 -300.170813 
L 1073.948357 -304.063051 
L 1074.360928 -307.955288 
L 1074.847416 -311.847526 
L 1075.426909 -315.739764 
L 1076.112898 -319.632001 
L 1076.913052 -323.524239 
L 1077.829299 -327.416477 
L 1078.858159 -331.308714 
L 1079.991305 -335.200952 
L 1081.216295 -339.09319 
L 1082.517431 -342.985427 
L 1083.87668 -346.877665 
L 1085.274612 -350.769903 
L 1086.691305 -354.66214 
L 1088.107169 -358.554378 
L 1089.50367 -362.446616 
L 1090.863918 -366.338853 
L 1092.173123 -370.231091 
L 1093.418911 -374.123329 
L 1094.591501 -378.015566 
L 1095.683774 -381.907804 
L 1096.691238 -385.800042 
L 1097.611914 -389.692279 
L 1098.446162 -393.584517 
L 1099.196466 -397.476755 
L 1099.867189 -401.368992 
L 1100.464312 -405.26123 
L 1100.995159 -409.153468 
L 1101.468124 -413.045705 
L 1101.892389 -416.937943 
L 1102.277643 -420.830181 
L 1102.6338 -424.722418 
L 1102.970727 -428.614656 
L 1103.29798 -432.506894 
L 1103.624545 -436.399131 
L 1103.958619 -440.291369 
L 1104.307405 -444.183607 
L 1104.676958 -448.075844 
L 1105.072066 -451.968082 
L 1105.496186 -455.86032 
L 1105.951428 -459.752557 
L 1106.438592 -463.644795 
L 1106.95725 -467.537033 
L 1107.505862 -471.42927 
L 1108.081933 -475.321508 
L 1108.68218 -479.213746 
L 1109.302711 -483.105983 
L 1109.939209 -486.998221 
L 1110.587096 -490.890459 
L 1111.241688 -494.782696 
L 1111.898328 -498.674934 
L 1112.552487 -502.567172 
L 1113.19985 -506.459409 
L 1113.836376 -510.351647 
L 1114.458339 -514.243885 
L 1115.062354 -518.136122 
L 1115.645392 -522.02836 
L 1116.204787 -525.920598 
L 1116.738245 -529.812835 
L 1117.243843 -533.705073 
L 1117.720034 -537.597311 
L 1118.165646 -541.489548 
L 1118.579889 -545.381786 
L 1118.96235 -549.274024 
L 1124.412447 -549.274024 
L 1124.412447 -549.274024 
L 1124.794908 -545.381786 
L 1125.209151 -541.489548 
L 1125.654764 -537.597311 
L 1126.130954 -533.705073 
L 1126.636552 -529.812835 
L 1127.17001 -525.920598 
L 1127.729405 -522.02836 
L 1128.312443 -518.136122 
L 1128.916458 -514.243885 
L 1129.538421 -510.351647 
L 1130.174948 -506.459409 
L 1130.82231 -502.567172 
L 1131.476469 -498.674934 
L 1132.133109 -494.782696 
L 1132.787702 -490.890459 
L 1133.435588 -486.998221 
L 1134.072086 -483.105983 
L 1134.692617 -479.213746 
L 1135.292864 -475.321508 
L 1135.868935 -471.42927 
L 1136.417548 -467.537033 
L 1136.936205 -463.644795 
L 1137.423369 -459.752557 
L 1137.878611 -455.86032 
L 1138.302731 -451.968082 
L 1138.697839 -448.075844 
L 1139.067392 -444.183607 
L 1139.416178 -440.291369 
L 1139.750252 -436.399131 
L 1140.076817 -432.506894 
L 1140.40407 -428.614656 
L 1140.740998 -424.722418 
L 1141.097155 -420.830181 
L 1141.482408 -416.937943 
L 1141.906673 -413.045705 
L 1142.379638 -409.153468 
L 1142.910485 -405.26123 
L 1143.507608 -401.368992 
L 1144.178331 -397.476755 
L 1144.928635 -393.584517 
L 1145.762883 -389.692279 
L 1146.683559 -385.800042 
L 1147.691023 -381.907804 
L 1148.783296 -378.015566 
L 1149.955886 -374.123329 
L 1151.201674 -370.231091 
L 1152.51088 -366.338853 
L 1153.871128 -362.446616 
L 1155.267628 -358.554378 
L 1156.683492 -354.66214 
L 1158.100185 -350.769903 
L 1159.498117 -346.877665 
L 1160.857366 -342.985427 
L 1162.158502 -339.09319 
L 1163.383492 -335.200952 
L 1164.516638 -331.308714 
L 1165.545499 -327.416477 
L 1166.461745 -323.524239 
L 1167.261899 -319.632001 
L 1167.947888 -315.739764 
L 1168.527381 -311.847526 
L 1169.013869 -307.955288 
L 1169.42644 -304.063051 
L 1169.789264 -300.170813 
L 1170.130759 -296.278575 
L 1170.482479 -292.386338 
L 1170.877729 -288.4941 
L 1171.349974 -284.601862 
L 1171.931096 -280.709625 
L 1172.649568 -276.817387 
L 1173.52863 -272.925149 
L 1174.584568 -269.032912 
L 1175.825179 -265.140674 
L 1177.248519 -261.248436 
L 1178.842036 -257.356199 
L 1180.582147 -253.463961 
L 1182.434329 -249.571723 
L 1184.353765 -245.679486 
L 1186.286545 -241.787248 
L 1188.171404 -237.89501 
L 1189.941941 -234.002772 
L 1191.529223 -230.110535 
L 1192.864664 -226.218297 
L 1193.883021 -222.326059 
L 1194.525361 -218.433822 
L 1194.741818 -214.541584 
L 1194.493992 -210.649346 
L 1193.756839 -206.757109 
L 1192.519939 -202.864871 
L 1190.788073 -198.972633 
L 1188.581063 -195.080396 
L 1185.9329 -191.188158 
L 1182.890211 -187.29592 
L 1179.510172 -183.403683 
L 1175.857994 -179.511445 
L 1172.004136 -175.619207 
L 1168.02142 -171.72697 
L 1163.982201 -167.834732 
L 1159.955742 -163.942494 
z
" id="mdb607193da" style="stroke:#4c4c4c;stroke-width:5;"/>
    </defs>
    <g clip-path="url(#p32fa91058b)">
     <use style="fill:#5f9e6e;stroke:#4c4c4c;stroke-width:5;" x="0" xlink:href="#mdb607193da" y="1296"/>
    </g>
   </g>
   <g id="line2d_9">
    <path clip-path="url(#p32fa91058b)" d="M 394.929718 1092.036808 
L 394.929718 1013.211896 
" style="fill:none;stroke:#4c4c4c;stroke-linecap:round;stroke-width:5;"/>
   </g>
   <g id="line2d_10">
    <path clip-path="url(#p32fa91058b)" d="M 394.929718 1092.036808 
L 394.929718 1055.126731 
" style="fill:none;stroke:#4c4c4c;stroke-linecap:round;stroke-width:15;"/>
   </g>
   <g id="line2d_11">
    <path clip-path="url(#p32fa91058b)" d="M 758.308558 1092.036808 
L 758.308558 611.580203 
" style="fill:none;stroke:#4c4c4c;stroke-linecap:round;stroke-width:5;"/>
   </g>
   <g id="line2d_12">
    <path clip-path="url(#p32fa91058b)" d="M 758.308558 1010.709518 
L 758.308558 849.306127 
" style="fill:none;stroke:#4c4c4c;stroke-linecap:round;stroke-width:15;"/>
   </g>
   <g id="line2d_13">
    <path clip-path="url(#p32fa91058b)" d="M 1121.687399 1092.036808 
L 1121.687399 786.746673 
" style="fill:none;stroke:#4c4c4c;stroke-linecap:round;stroke-width:5;"/>
   </g>
   <g id="line2d_14">
    <path clip-path="url(#p32fa91058b)" d="M 1121.687399 1092.036808 
L 1121.687399 966.605103 
" style="fill:none;stroke:#4c4c4c;stroke-linecap:round;stroke-width:15;"/>
   </g>
   <g id="line2d_15">
    <path clip-path="url(#p32fa91058b)" d="M 394.929718 390.506746 
L 394.929718 373.953228 
L 758.308558 373.953228 
L 758.308558 390.506746 
" style="fill:none;stroke:#333333;stroke-linecap:round;stroke-width:1.5;"/>
   </g>
   <g id="line2d_16">
    <path clip-path="url(#p32fa91058b)" d="M 758.308558 293.304213 
L 758.308558 276.750695 
L 1121.687399 276.750695 
L 1121.687399 293.304213 
" style="fill:none;stroke:#333333;stroke-linecap:round;stroke-width:1.5;"/>
   </g>
   <g id="line2d_17">
    <path clip-path="url(#p32fa91058b)" d="M 394.929718 191.134408 
L 394.929718 174.58089 
L 1121.687399 174.58089 
L 1121.687399 191.134408 
" style="fill:none;stroke:#333333;stroke-linecap:round;stroke-width:1.5;"/>
   </g>
   <g id="patch_3">
    <path d="M 202.32 1179.94 
L 202.32 96.12 
" style="fill:none;stroke:#cccccc;stroke-linecap:square;stroke-linejoin:miter;stroke-width:2.5;"/>
   </g>
   <g id="patch_4">
    <path d="M 1242 1179.94 
L 1242 96.12 
" style="fill:none;stroke:#cccccc;stroke-linecap:square;stroke-linejoin:miter;stroke-width:2.5;"/>
   </g>
   <g id="patch_5">
    <path d="M 202.32 1179.94 
L 1242 1179.94 
" style="fill:none;stroke:#cccccc;stroke-linecap:square;stroke-linejoin:miter;stroke-width:2.5;"/>
   </g>
   <g id="patch_6">
    <path d="M 202.32 96.12 
L 1242 96.12 
" style="fill:none;stroke:#cccccc;stroke-linecap:square;stroke-linejoin:miter;stroke-width:2.5;"/>
   </g>
   <g id="PathCollection_1">
    <defs>
     <path d="M 0 5 
C 1.326016 5 2.597899 4.473168 3.535534 3.535534 
C 4.473168 2.597899 5 1.326016 5 0 
C 5 -1.326016 4.473168 -2.597899 3.535534 -3.535534 
C 2.597899 -4.473168 1.326016 -5 0 -5 
C -1.326016 -5 -2.597899 -4.473168 -3.535534 -3.535534 
C -4.473168 -2.597899 -5 -1.326016 -5 0 
C -5 1.326016 -4.473168 2.597899 -3.535534 3.535534 
C -2.597899 4.473168 -1.326016 5 0 5 
z
" id="mb002a38392" style="stroke:#4c4c4c;stroke-width:2;"/>
    </defs>
    <g clip-path="url(#p32fa91058b)">
     <use style="fill:#ffffff;stroke:#4c4c4c;stroke-width:2;" x="394.929718" xlink:href="#mb002a38392" y="1092.036808"/>
    </g>
   </g>
   <g id="PathCollection_2">
    <g clip-path="url(#p32fa91058b)">
     <use style="fill:#ffffff;stroke:#4c4c4c;stroke-width:2;" x="758.308558" xlink:href="#mb002a38392" y="919.99831"/>
    </g>
   </g>
   <g id="PathCollection_3">
    <g clip-path="url(#p32fa91058b)">
     <use style="fill:#ffffff;stroke:#4c4c4c;stroke-width:2;" x="1121.687399" xlink:href="#mb002a38392" y="1030.728544"/>
    </g>
   </g>
   <g id="text_13">
    <!-- **** -->
    <g transform="translate(537.697263 363.015728)scale(0.5 -0.5)">
     <defs>
      <path d="M 3.125 58.453125 
L 5.375 65.375 
Q 13.140625 62.640625 16.65625 60.640625 
Q 15.71875 69.484375 15.671875 72.796875 
L 22.75 72.796875 
Q 22.609375 67.96875 21.625 60.6875 
Q 26.65625 63.234375 33.15625 65.375 
L 35.40625 58.453125 
Q 29.203125 56.390625 23.25 55.71875 
Q 26.21875 53.125 31.640625 46.484375 
L 25.78125 42.328125 
Q 22.953125 46.1875 19.09375 52.828125 
Q 15.484375 45.953125 12.75 42.328125 
L 6.984375 46.484375 
Q 12.640625 53.46875 15.09375 55.71875 
Q 8.796875 56.9375 3.125 58.453125 
z
" id="ArialMT-42"/>
     </defs>
     <use xlink:href="#ArialMT-42"/>
     <use x="38.916016" xlink:href="#ArialMT-42"/>
     <use x="77.832031" xlink:href="#ArialMT-42"/>
     <use x="116.748047" xlink:href="#ArialMT-42"/>
    </g>
   </g>
   <g id="text_14">
    <!-- **** -->
    <g transform="translate(901.076103 265.813195)scale(0.5 -0.5)">
     <use xlink:href="#ArialMT-42"/>
     <use x="38.916016" xlink:href="#ArialMT-42"/>
     <use x="77.832031" xlink:href="#ArialMT-42"/>
     <use x="116.748047" xlink:href="#ArialMT-42"/>
    </g>
   </g>
   <g id="text_15">
    <!-- ** -->
    <g transform="translate(738.847621 163.64339)scale(0.5 -0.5)">
     <use xlink:href="#ArialMT-42"/>
     <use x="38.916016" xlink:href="#ArialMT-42"/>
    </g>
   </g>
   <g id="text_16">
    <!-- Porphyromonas sp. HMT 285 (K.W. p=6.01e-19) -->
    <g transform="translate(185.577969 90.12)scale(0.5 -0.5)">
     <defs>
      <path d="M 7.71875 0 
L 7.71875 71.578125 
L 34.71875 71.578125 
Q 41.84375 71.578125 45.609375 70.90625 
Q 50.875 70.015625 54.4375 67.546875 
Q 58.015625 65.09375 60.1875 60.640625 
Q 62.359375 56.203125 62.359375 50.875 
Q 62.359375 41.75 56.546875 35.421875 
Q 50.734375 29.109375 35.546875 29.109375 
L 17.1875 29.109375 
L 17.1875 0 
z
M 17.1875 37.546875 
L 35.6875 37.546875 
Q 44.875 37.546875 48.734375 40.96875 
Q 52.59375 44.390625 52.59375 50.59375 
Q 52.59375 55.078125 50.3125 58.265625 
Q 48.046875 61.46875 44.34375 62.5 
Q 41.9375 63.140625 35.5 63.140625 
L 17.1875 63.140625 
z
" id="ArialMT-80"/>
      <path d="M 6.59375 -19.875 
L 6.59375 51.859375 
L 14.59375 51.859375 
L 14.59375 45.125 
Q 17.4375 49.078125 21 51.046875 
Q 24.5625 53.03125 29.640625 53.03125 
Q 36.28125 53.03125 41.359375 49.609375 
Q 46.4375 46.1875 49.015625 39.953125 
Q 51.609375 33.734375 51.609375 26.3125 
Q 51.609375 18.359375 48.75 11.984375 
Q 45.90625 5.609375 40.453125 2.21875 
Q 35.015625 -1.171875 29 -1.171875 
Q 24.609375 -1.171875 21.109375 0.6875 
Q 17.625 2.546875 15.375 5.375 
L 15.375 -19.875 
z
M 14.546875 25.640625 
Q 14.546875 15.625 18.59375 10.84375 
Q 22.65625 6.0625 28.421875 6.0625 
Q 34.28125 6.0625 38.453125 11.015625 
Q 42.625 15.96875 42.625 26.375 
Q 42.625 36.28125 38.546875 41.203125 
Q 34.46875 46.140625 28.8125 46.140625 
Q 23.1875 46.140625 18.859375 40.890625 
Q 14.546875 35.640625 14.546875 25.640625 
z
" id="ArialMT-112"/>
      <path d="M 6.59375 0 
L 6.59375 51.859375 
L 14.453125 51.859375 
L 14.453125 44.578125 
Q 16.890625 48.390625 20.9375 50.703125 
Q 25 53.03125 30.171875 53.03125 
Q 35.9375 53.03125 39.625 50.640625 
Q 43.3125 48.25 44.828125 43.953125 
Q 50.984375 53.03125 60.84375 53.03125 
Q 68.5625 53.03125 72.703125 48.75 
Q 76.859375 44.484375 76.859375 35.59375 
L 76.859375 0 
L 68.109375 0 
L 68.109375 32.671875 
Q 68.109375 37.9375 67.25 40.25 
Q 66.40625 42.578125 64.15625 43.984375 
Q 61.921875 45.40625 58.890625 45.40625 
Q 53.421875 45.40625 49.796875 41.765625 
Q 46.1875 38.140625 46.1875 30.125 
L 46.1875 0 
L 37.40625 0 
L 37.40625 33.6875 
Q 37.40625 39.546875 35.25 42.46875 
Q 33.109375 45.40625 28.21875 45.40625 
Q 24.515625 45.40625 21.359375 43.453125 
Q 18.21875 41.5 16.796875 37.734375 
Q 15.375 33.984375 15.375 26.90625 
L 15.375 0 
z
" id="ArialMT-109"/>
      <path d="M 3.078125 15.484375 
L 11.765625 16.84375 
Q 12.5 11.625 15.84375 8.84375 
Q 19.1875 6.0625 25.203125 6.0625 
Q 31.25 6.0625 34.171875 8.515625 
Q 37.109375 10.984375 37.109375 14.3125 
Q 37.109375 17.28125 34.515625 19 
Q 32.71875 20.171875 25.53125 21.96875 
Q 15.875 24.421875 12.140625 26.203125 
Q 8.40625 27.984375 6.46875 31.125 
Q 4.546875 34.28125 4.546875 38.09375 
Q 4.546875 41.546875 6.125 44.5 
Q 7.71875 47.46875 10.453125 49.421875 
Q 12.5 50.921875 16.03125 51.96875 
Q 19.578125 53.03125 23.640625 53.03125 
Q 29.734375 53.03125 34.34375 51.265625 
Q 38.96875 49.515625 41.15625 46.5 
Q 43.359375 43.5 44.1875 38.484375 
L 35.59375 37.3125 
Q 35.015625 41.3125 32.203125 43.546875 
Q 29.390625 45.796875 24.265625 45.796875 
Q 18.21875 45.796875 15.625 43.796875 
Q 13.03125 41.796875 13.03125 39.109375 
Q 13.03125 37.40625 14.109375 36.03125 
Q 15.1875 34.625 17.484375 33.6875 
Q 18.796875 33.203125 25.25 31.453125 
Q 34.578125 28.953125 38.25 27.359375 
Q 41.9375 25.78125 44.03125 22.75 
Q 46.140625 19.734375 46.140625 15.234375 
Q 46.140625 10.84375 43.578125 6.953125 
Q 41.015625 3.078125 36.171875 0.953125 
Q 31.34375 -1.171875 25.25 -1.171875 
Q 15.140625 -1.171875 9.84375 3.03125 
Q 4.546875 7.234375 3.078125 15.484375 
z
" id="ArialMT-115"/>
      <path id="ArialMT-32"/>
      <path d="M 9.078125 0 
L 9.078125 10.015625 
L 19.09375 10.015625 
L 19.09375 0 
z
" id="ArialMT-46"/>
      <path d="M 25.921875 0 
L 25.921875 63.140625 
L 2.34375 63.140625 
L 2.34375 71.578125 
L 59.078125 71.578125 
L 59.078125 63.140625 
L 35.40625 63.140625 
L 35.40625 0 
z
" id="ArialMT-84"/>
      <path d="M 17.671875 38.8125 
Q 12.203125 40.828125 9.5625 44.53125 
Q 6.9375 48.25 6.9375 53.421875 
Q 6.9375 61.234375 12.546875 66.546875 
Q 18.171875 71.875 27.484375 71.875 
Q 36.859375 71.875 42.578125 66.421875 
Q 48.296875 60.984375 48.296875 53.171875 
Q 48.296875 48.1875 45.671875 44.5 
Q 43.0625 40.828125 37.75 38.8125 
Q 44.34375 36.671875 47.78125 31.875 
Q 51.21875 27.09375 51.21875 20.453125 
Q 51.21875 11.28125 44.71875 5.03125 
Q 38.234375 -1.21875 27.640625 -1.21875 
Q 17.046875 -1.21875 10.546875 5.046875 
Q 4.046875 11.328125 4.046875 20.703125 
Q 4.046875 27.6875 7.59375 32.390625 
Q 11.140625 37.109375 17.671875 38.8125 
z
M 15.921875 53.71875 
Q 15.921875 48.640625 19.1875 45.40625 
Q 22.46875 42.1875 27.6875 42.1875 
Q 32.765625 42.1875 36.015625 45.375 
Q 39.265625 48.578125 39.265625 53.21875 
Q 39.265625 58.0625 35.90625 61.359375 
Q 32.5625 64.65625 27.59375 64.65625 
Q 22.5625 64.65625 19.234375 61.421875 
Q 15.921875 58.203125 15.921875 53.71875 
z
M 13.09375 20.65625 
Q 13.09375 16.890625 14.875 13.375 
Q 16.65625 9.859375 20.171875 7.921875 
Q 23.6875 6 27.734375 6 
Q 34.03125 6 38.125 10.046875 
Q 42.234375 14.109375 42.234375 20.359375 
Q 42.234375 26.703125 38.015625 30.859375 
Q 33.796875 35.015625 27.4375 35.015625 
Q 21.234375 35.015625 17.15625 30.90625 
Q 13.09375 26.8125 13.09375 20.65625 
z
" id="ArialMT-56"/>
      <path d="M 23.390625 -21.046875 
Q 16.109375 -11.859375 11.078125 0.4375 
Q 6.0625 12.75 6.0625 25.921875 
Q 6.0625 37.546875 9.8125 48.1875 
Q 14.203125 60.546875 23.390625 72.796875 
L 29.6875 72.796875 
Q 23.78125 62.640625 21.875 58.296875 
Q 18.890625 51.5625 17.1875 44.234375 
Q 15.09375 35.109375 15.09375 25.875 
Q 15.09375 2.390625 29.6875 -21.046875 
z
" id="ArialMT-40"/>
      <path d="M 7.328125 0 
L 7.328125 71.578125 
L 16.796875 71.578125 
L 16.796875 36.078125 
L 52.34375 71.578125 
L 65.1875 71.578125 
L 35.15625 42.578125 
L 66.5 0 
L 54 0 
L 28.515625 36.234375 
L 16.796875 24.8125 
L 16.796875 0 
z
" id="ArialMT-75"/>
      <path d="M 20.21875 0 
L 1.21875 71.578125 
L 10.9375 71.578125 
L 21.828125 24.65625 
Q 23.578125 17.28125 24.859375 10.015625 
Q 27.59375 21.484375 28.078125 23.25 
L 41.703125 71.578125 
L 53.125 71.578125 
L 63.375 35.359375 
Q 67.234375 21.875 68.953125 10.015625 
Q 70.3125 16.796875 72.515625 25.59375 
L 83.734375 71.578125 
L 93.265625 71.578125 
L 73.640625 0 
L 64.5 0 
L 49.421875 54.546875 
Q 47.515625 61.375 47.171875 62.9375 
Q 46.046875 58.015625 45.0625 54.546875 
L 29.890625 0 
z
" id="ArialMT-87"/>
      <path d="M 52.828125 42.09375 
L 5.5625 42.09375 
L 5.5625 50.296875 
L 52.828125 50.296875 
z
M 52.828125 20.359375 
L 5.5625 20.359375 
L 5.5625 28.5625 
L 52.828125 28.5625 
z
" id="ArialMT-61"/>
      <path d="M 3.171875 21.484375 
L 3.171875 30.328125 
L 30.171875 30.328125 
L 30.171875 21.484375 
z
" id="ArialMT-45"/>
      <path d="M 5.46875 16.546875 
L 13.921875 17.328125 
Q 14.984375 11.375 18.015625 8.6875 
Q 21.046875 6 25.78125 6 
Q 29.828125 6 32.875 7.859375 
Q 35.9375 9.71875 37.890625 12.8125 
Q 39.84375 15.921875 41.15625 21.1875 
Q 42.484375 26.46875 42.484375 31.9375 
Q 42.484375 32.515625 42.4375 33.6875 
Q 39.796875 29.5 35.234375 26.875 
Q 30.671875 24.265625 25.34375 24.265625 
Q 16.453125 24.265625 10.296875 30.703125 
Q 4.15625 37.15625 4.15625 47.703125 
Q 4.15625 58.59375 10.578125 65.234375 
Q 17 71.875 26.65625 71.875 
Q 33.640625 71.875 39.421875 68.109375 
Q 45.21875 64.359375 48.21875 57.390625 
Q 51.21875 50.4375 51.21875 37.25 
Q 51.21875 23.53125 48.234375 15.40625 
Q 45.265625 7.28125 39.375 3.03125 
Q 33.5 -1.21875 25.59375 -1.21875 
Q 17.1875 -1.21875 11.859375 3.4375 
Q 6.546875 8.109375 5.46875 16.546875 
z
M 41.453125 48.140625 
Q 41.453125 55.71875 37.421875 60.15625 
Q 33.40625 64.59375 27.734375 64.59375 
Q 21.875 64.59375 17.53125 59.8125 
Q 13.1875 55.03125 13.1875 47.40625 
Q 13.1875 40.578125 17.3125 36.296875 
Q 21.4375 32.03125 27.484375 32.03125 
Q 33.59375 32.03125 37.515625 36.296875 
Q 41.453125 40.578125 41.453125 48.140625 
z
" id="ArialMT-57"/>
      <path d="M 12.359375 -21.046875 
L 6.0625 -21.046875 
Q 20.65625 2.390625 20.65625 25.875 
Q 20.65625 35.0625 18.5625 44.09375 
Q 16.890625 51.421875 13.921875 58.15625 
Q 12.015625 62.546875 6.0625 72.796875 
L 12.359375 72.796875 
Q 21.53125 60.546875 25.921875 48.1875 
Q 29.6875 37.546875 29.6875 25.921875 
Q 29.6875 12.75 24.625 0.4375 
Q 19.578125 -11.859375 12.359375 -21.046875 
z
" id="ArialMT-41"/>
     </defs>
     <use xlink:href="#ArialMT-80"/>
     <use x="66.699219" xlink:href="#ArialMT-111"/>
     <use x="122.314453" xlink:href="#ArialMT-114"/>
     <use x="155.615234" xlink:href="#ArialMT-112"/>
     <use x="211.230469" xlink:href="#ArialMT-104"/>
     <use x="266.845703" xlink:href="#ArialMT-121"/>
     <use x="316.845703" xlink:href="#ArialMT-114"/>
     <use x="350.146484" xlink:href="#ArialMT-111"/>
     <use x="405.761719" xlink:href="#ArialMT-109"/>
     <use x="489.0625" xlink:href="#ArialMT-111"/>
     <use x="544.677734" xlink:href="#ArialMT-110"/>
     <use x="600.292969" xlink:href="#ArialMT-97"/>
     <use x="655.908203" xlink:href="#ArialMT-115"/>
     <use x="705.908203" xlink:href="#ArialMT-32"/>
     <use x="733.691406" xlink:href="#ArialMT-115"/>
     <use x="783.691406" xlink:href="#ArialMT-112"/>
     <use x="839.306641" xlink:href="#ArialMT-46"/>
     <use x="867.089844" xlink:href="#ArialMT-32"/>
     <use x="894.873047" xlink:href="#ArialMT-72"/>
     <use x="967.089844" xlink:href="#ArialMT-77"/>
     <use x="1050.390625" xlink:href="#ArialMT-84"/>
     <use x="1109.724609" xlink:href="#ArialMT-32"/>
     <use x="1137.507812" xlink:href="#ArialMT-50"/>
     <use x="1193.123047" xlink:href="#ArialMT-56"/>
     <use x="1248.738281" xlink:href="#ArialMT-53"/>
     <use x="1304.353516" xlink:href="#ArialMT-32"/>
     <use x="1332.136719" xlink:href="#ArialMT-40"/>
     <use x="1365.4375" xlink:href="#ArialMT-75"/>
     <use x="1432.136719" xlink:href="#ArialMT-46"/>
     <use x="1459.919922" xlink:href="#ArialMT-87"/>
     <use x="1548.804688" xlink:href="#ArialMT-46"/>
     <use x="1576.587891" xlink:href="#ArialMT-32"/>
     <use x="1604.371094" xlink:href="#ArialMT-112"/>
     <use x="1659.986328" xlink:href="#ArialMT-61"/>
     <use x="1718.384766" xlink:href="#ArialMT-54"/>
     <use x="1774" xlink:href="#ArialMT-46"/>
     <use x="1801.783203" xlink:href="#ArialMT-48"/>
     <use x="1857.398438" xlink:href="#ArialMT-49"/>
     <use x="1913.013672" xlink:href="#ArialMT-101"/>
     <use x="1968.628906" xlink:href="#ArialMT-45"/>
     <use x="2001.929688" xlink:href="#ArialMT-49"/>
     <use x="2057.544922" xlink:href="#ArialMT-57"/>
     <use x="2113.160156" xlink:href="#ArialMT-41"/>
    </g>
   </g>
  </g>
 </g>
 <defs>
  <clipPath id="p32fa91058b">
   <rect height="1083.82" width="1039.68" x="202.32" y="96.12"/>
  </clipPath>
 </defs>
</svg>
