<?xml version="1.0" encoding="utf-8" standalone="no"?>
<!DOCTYPE svg PUBLIC "-//W3C//DTD SVG 1.1//EN"
  "http://www.w3.org/Graphics/SVG/1.1/DTD/svg11.dtd">
<!-- Created with matplotlib (https://matplotlib.org/) -->
<svg height="1296pt" version="1.1" viewBox="0 0 1296 1296" width="1296pt" xmlns="http://www.w3.org/2000/svg" xmlns:xlink="http://www.w3.org/1999/xlink">
 <metadata>
  <rdf:RDF xmlns:cc="http://creativecommons.org/ns#" xmlns:dc="http://purl.org/dc/elements/1.1/" xmlns:rdf="http://www.w3.org/1999/02/22-rdf-syntax-ns#">
   <cc:Work>
    <dc:type rdf:resource="http://purl.org/dc/dcmitype/StillImage"/>
    <dc:date>2022-06-29T14:05:27.463039</dc:date>
    <dc:format>image/svg+xml</dc:format>
    <dc:creator>
     <cc:Agent>
      <dc:title>Matplotlib v3.3.3, https://matplotlib.org/</dc:title>
     </cc:Agent>
    </dc:creator>
   </cc:Work>
  </rdf:RDF>
 </metadata>
 <defs>
  <style type="text/css">*{stroke-linecap:butt;stroke-linejoin:round;}</style>
 </defs>
 <g id="figure_1">
  <g id="patch_1">
   <path d="M 0 1296 
L 1296 1296 
L 1296 0 
L 0 0 
z
" style="fill:#ffffff;"/>
  </g>
  <g id="axes_1">
   <g id="patch_2">
    <path d="M 202.32 1179.94 
L 1242 1179.94 
L 1242 96.24 
L 202.32 96.24 
z
" style="fill:#ffffff;"/>
   </g>
   <g id="matplotlib.axis_1">
    <g id="xtick_1">
     <g id="text_1">
      <!-- Healthy -->
      <g style="fill:#262626;" transform="translate(186.872972 1231.229063)scale(0.5 -0.5)">
       <defs>
        <path d="M 8.015625 0 
L 8.015625 71.578125 
L 17.484375 71.578125 
L 17.484375 42.1875 
L 54.6875 42.1875 
L 54.6875 71.578125 
L 64.15625 71.578125 
L 64.15625 0 
L 54.6875 0 
L 54.6875 33.734375 
L 17.484375 33.734375 
L 17.484375 0 
z
" id="ArialMT-72"/>
        <path d="M 42.09375 16.703125 
L 51.171875 15.578125 
Q 49.03125 7.625 43.21875 3.21875 
Q 37.40625 -1.171875 28.375 -1.171875 
Q 17 -1.171875 10.328125 5.828125 
Q 3.65625 12.84375 3.65625 25.484375 
Q 3.65625 38.578125 10.390625 45.796875 
Q 17.140625 53.03125 27.875 53.03125 
Q 38.28125 53.03125 44.875 45.953125 
Q 51.46875 38.875 51.46875 26.03125 
Q 51.46875 25.25 51.421875 23.6875 
L 12.75 23.6875 
Q 13.234375 15.140625 17.578125 10.59375 
Q 21.921875 6.0625 28.421875 6.0625 
Q 33.25 6.0625 36.671875 8.59375 
Q 40.09375 11.140625 42.09375 16.703125 
z
M 13.234375 30.90625 
L 42.1875 30.90625 
Q 41.609375 37.453125 38.875 40.71875 
Q 34.671875 45.796875 27.984375 45.796875 
Q 21.921875 45.796875 17.796875 41.75 
Q 13.671875 37.703125 13.234375 30.90625 
z
" id="ArialMT-101"/>
        <path d="M 40.4375 6.390625 
Q 35.546875 2.25 31.03125 0.53125 
Q 26.515625 -1.171875 21.34375 -1.171875 
Q 12.796875 -1.171875 8.203125 3 
Q 3.609375 7.171875 3.609375 13.671875 
Q 3.609375 17.484375 5.34375 20.625 
Q 7.078125 23.78125 9.890625 25.6875 
Q 12.703125 27.59375 16.21875 28.5625 
Q 18.796875 29.25 24.03125 29.890625 
Q 34.671875 31.15625 39.703125 32.90625 
Q 39.75 34.71875 39.75 35.203125 
Q 39.75 40.578125 37.25 42.78125 
Q 33.890625 45.75 27.25 45.75 
Q 21.046875 45.75 18.09375 43.578125 
Q 15.140625 41.40625 13.71875 35.890625 
L 5.125 37.0625 
Q 6.296875 42.578125 8.984375 45.96875 
Q 11.671875 49.359375 16.75 51.1875 
Q 21.828125 53.03125 28.515625 53.03125 
Q 35.15625 53.03125 39.296875 51.46875 
Q 43.453125 49.90625 45.40625 47.53125 
Q 47.359375 45.171875 48.140625 41.546875 
Q 48.578125 39.3125 48.578125 33.453125 
L 48.578125 21.734375 
Q 48.578125 9.46875 49.140625 6.21875 
Q 49.703125 2.984375 51.375 0 
L 42.1875 0 
Q 40.828125 2.734375 40.4375 6.390625 
z
M 39.703125 26.03125 
Q 34.90625 24.078125 25.34375 22.703125 
Q 19.921875 21.921875 17.671875 20.9375 
Q 15.4375 19.96875 14.203125 18.09375 
Q 12.984375 16.21875 12.984375 13.921875 
Q 12.984375 10.40625 15.640625 8.0625 
Q 18.3125 5.71875 23.4375 5.71875 
Q 28.515625 5.71875 32.46875 7.9375 
Q 36.421875 10.15625 38.28125 14.015625 
Q 39.703125 17 39.703125 22.796875 
z
" id="ArialMT-97"/>
        <path d="M 6.390625 0 
L 6.390625 71.578125 
L 15.1875 71.578125 
L 15.1875 0 
z
" id="ArialMT-108"/>
        <path d="M 25.78125 7.859375 
L 27.046875 0.09375 
Q 23.34375 -0.6875 20.40625 -0.6875 
Q 15.625 -0.6875 12.984375 0.828125 
Q 10.359375 2.34375 9.28125 4.8125 
Q 8.203125 7.28125 8.203125 15.1875 
L 8.203125 45.015625 
L 1.765625 45.015625 
L 1.765625 51.859375 
L 8.203125 51.859375 
L 8.203125 64.703125 
L 16.9375 69.96875 
L 16.9375 51.859375 
L 25.78125 51.859375 
L 25.78125 45.015625 
L 16.9375 45.015625 
L 16.9375 14.703125 
Q 16.9375 10.9375 17.40625 9.859375 
Q 17.875 8.796875 18.921875 8.15625 
Q 19.96875 7.515625 21.921875 7.515625 
Q 23.390625 7.515625 25.78125 7.859375 
z
" id="ArialMT-116"/>
        <path d="M 6.59375 0 
L 6.59375 71.578125 
L 15.375 71.578125 
L 15.375 45.90625 
Q 21.53125 53.03125 30.90625 53.03125 
Q 36.671875 53.03125 40.921875 50.75 
Q 45.171875 48.484375 47 44.484375 
Q 48.828125 40.484375 48.828125 32.859375 
L 48.828125 0 
L 40.046875 0 
L 40.046875 32.859375 
Q 40.046875 39.453125 37.1875 42.453125 
Q 34.328125 45.453125 29.109375 45.453125 
Q 25.203125 45.453125 21.75 43.421875 
Q 18.3125 41.40625 16.84375 37.9375 
Q 15.375 34.46875 15.375 28.375 
L 15.375 0 
z
" id="ArialMT-104"/>
        <path d="M 6.203125 -19.96875 
L 5.21875 -11.71875 
Q 8.109375 -12.5 10.25 -12.5 
Q 13.1875 -12.5 14.9375 -11.515625 
Q 16.703125 -10.546875 17.828125 -8.796875 
Q 18.65625 -7.46875 20.515625 -2.25 
Q 20.75 -1.515625 21.296875 -0.09375 
L 1.609375 51.859375 
L 11.078125 51.859375 
L 21.875 21.828125 
Q 23.96875 16.109375 25.640625 9.8125 
Q 27.15625 15.875 29.25 21.625 
L 40.328125 51.859375 
L 49.125 51.859375 
L 29.390625 -0.875 
Q 26.21875 -9.421875 24.46875 -12.640625 
Q 22.125 -17 19.09375 -19.015625 
Q 16.0625 -21.046875 11.859375 -21.046875 
Q 9.328125 -21.046875 6.203125 -19.96875 
z
" id="ArialMT-121"/>
       </defs>
       <use xlink:href="#ArialMT-72"/>
       <use x="72.216797" xlink:href="#ArialMT-101"/>
       <use x="127.832031" xlink:href="#ArialMT-97"/>
       <use x="183.447266" xlink:href="#ArialMT-108"/>
       <use x="205.664062" xlink:href="#ArialMT-116"/>
       <use x="233.447266" xlink:href="#ArialMT-104"/>
       <use x="289.0625" xlink:href="#ArialMT-121"/>
      </g>
     </g>
    </g>
    <g id="xtick_2">
     <g id="text_2">
      <!-- Moderate+Severe -->
      <g style="fill:#262626;" transform="translate(519.029495 1231.229063)scale(0.5 -0.5)">
       <defs>
        <path d="M 7.421875 0 
L 7.421875 71.578125 
L 21.6875 71.578125 
L 38.625 20.90625 
Q 40.96875 13.8125 42.046875 10.296875 
Q 43.265625 14.203125 45.84375 21.78125 
L 62.984375 71.578125 
L 75.734375 71.578125 
L 75.734375 0 
L 66.609375 0 
L 66.609375 59.90625 
L 45.796875 0 
L 37.25 0 
L 16.546875 60.9375 
L 16.546875 0 
z
" id="ArialMT-77"/>
        <path d="M 3.328125 25.921875 
Q 3.328125 40.328125 11.328125 47.265625 
Q 18.015625 53.03125 27.640625 53.03125 
Q 38.328125 53.03125 45.109375 46.015625 
Q 51.90625 39.015625 51.90625 26.65625 
Q 51.90625 16.65625 48.90625 10.90625 
Q 45.90625 5.171875 40.15625 2 
Q 34.421875 -1.171875 27.640625 -1.171875 
Q 16.75 -1.171875 10.03125 5.8125 
Q 3.328125 12.796875 3.328125 25.921875 
z
M 12.359375 25.921875 
Q 12.359375 15.96875 16.703125 11.015625 
Q 21.046875 6.0625 27.640625 6.0625 
Q 34.1875 6.0625 38.53125 11.03125 
Q 42.875 16.015625 42.875 26.21875 
Q 42.875 35.84375 38.5 40.796875 
Q 34.125 45.75 27.640625 45.75 
Q 21.046875 45.75 16.703125 40.8125 
Q 12.359375 35.890625 12.359375 25.921875 
z
" id="ArialMT-111"/>
        <path d="M 40.234375 0 
L 40.234375 6.546875 
Q 35.296875 -1.171875 25.734375 -1.171875 
Q 19.53125 -1.171875 14.328125 2.25 
Q 9.125 5.671875 6.265625 11.796875 
Q 3.421875 17.921875 3.421875 25.875 
Q 3.421875 33.640625 6 39.96875 
Q 8.59375 46.296875 13.765625 49.65625 
Q 18.953125 53.03125 25.34375 53.03125 
Q 30.03125 53.03125 33.6875 51.046875 
Q 37.359375 49.078125 39.65625 45.90625 
L 39.65625 71.578125 
L 48.390625 71.578125 
L 48.390625 0 
z
M 12.453125 25.875 
Q 12.453125 15.921875 16.640625 10.984375 
Q 20.84375 6.0625 26.5625 6.0625 
Q 32.328125 6.0625 36.34375 10.765625 
Q 40.375 15.484375 40.375 25.140625 
Q 40.375 35.796875 36.265625 40.765625 
Q 32.171875 45.75 26.171875 45.75 
Q 20.3125 45.75 16.375 40.96875 
Q 12.453125 36.1875 12.453125 25.875 
z
" id="ArialMT-100"/>
        <path d="M 6.5 0 
L 6.5 51.859375 
L 14.40625 51.859375 
L 14.40625 44 
Q 17.4375 49.515625 20 51.265625 
Q 22.5625 53.03125 25.640625 53.03125 
Q 30.078125 53.03125 34.671875 50.203125 
L 31.640625 42.046875 
Q 28.421875 43.953125 25.203125 43.953125 
Q 22.3125 43.953125 20.015625 42.21875 
Q 17.71875 40.484375 16.75 37.40625 
Q 15.28125 32.71875 15.28125 27.15625 
L 15.28125 0 
z
" id="ArialMT-114"/>
        <path d="M 25.046875 11.578125 
L 25.046875 31.203125 
L 5.5625 31.203125 
L 5.5625 39.40625 
L 25.046875 39.40625 
L 25.046875 58.890625 
L 33.34375 58.890625 
L 33.34375 39.40625 
L 52.828125 39.40625 
L 52.828125 31.203125 
L 33.34375 31.203125 
L 33.34375 11.578125 
z
" id="ArialMT-43"/>
        <path d="M 4.5 23 
L 13.421875 23.78125 
Q 14.0625 18.40625 16.375 14.96875 
Q 18.703125 11.53125 23.578125 9.40625 
Q 28.46875 7.28125 34.578125 7.28125 
Q 39.984375 7.28125 44.140625 8.890625 
Q 48.296875 10.5 50.3125 13.296875 
Q 52.34375 16.109375 52.34375 19.4375 
Q 52.34375 22.796875 50.390625 25.3125 
Q 48.4375 27.828125 43.953125 29.546875 
Q 41.0625 30.671875 31.203125 33.03125 
Q 21.34375 35.40625 17.390625 37.5 
Q 12.25 40.1875 9.734375 44.15625 
Q 7.234375 48.140625 7.234375 53.078125 
Q 7.234375 58.5 10.296875 63.203125 
Q 13.375 67.921875 19.28125 70.359375 
Q 25.203125 72.796875 32.421875 72.796875 
Q 40.375 72.796875 46.453125 70.234375 
Q 52.546875 67.671875 55.8125 62.6875 
Q 59.078125 57.71875 59.328125 51.421875 
L 50.25 50.734375 
Q 49.515625 57.515625 45.28125 60.984375 
Q 41.0625 64.453125 32.8125 64.453125 
Q 24.21875 64.453125 20.28125 61.296875 
Q 16.359375 58.15625 16.359375 53.71875 
Q 16.359375 49.859375 19.140625 47.359375 
Q 21.875 44.875 33.421875 42.265625 
Q 44.96875 39.65625 49.265625 37.703125 
Q 55.515625 34.8125 58.484375 30.390625 
Q 61.46875 25.984375 61.46875 20.21875 
Q 61.46875 14.5 58.203125 9.4375 
Q 54.9375 4.390625 48.796875 1.578125 
Q 42.671875 -1.21875 35.015625 -1.21875 
Q 25.296875 -1.21875 18.71875 1.609375 
Q 12.15625 4.4375 8.421875 10.125 
Q 4.6875 15.828125 4.5 23 
z
" id="ArialMT-83"/>
        <path d="M 21 0 
L 1.265625 51.859375 
L 10.546875 51.859375 
L 21.6875 20.796875 
Q 23.484375 15.765625 25 10.359375 
Q 26.171875 14.453125 28.265625 20.21875 
L 39.796875 51.859375 
L 48.828125 51.859375 
L 29.203125 0 
z
" id="ArialMT-118"/>
       </defs>
       <use xlink:href="#ArialMT-77"/>
       <use x="83.300781" xlink:href="#ArialMT-111"/>
       <use x="138.916016" xlink:href="#ArialMT-100"/>
       <use x="194.53125" xlink:href="#ArialMT-101"/>
       <use x="250.146484" xlink:href="#ArialMT-114"/>
       <use x="283.447266" xlink:href="#ArialMT-97"/>
       <use x="339.0625" xlink:href="#ArialMT-116"/>
       <use x="366.845703" xlink:href="#ArialMT-101"/>
       <use x="422.460938" xlink:href="#ArialMT-43"/>
       <use x="480.859375" xlink:href="#ArialMT-83"/>
       <use x="547.558594" xlink:href="#ArialMT-101"/>
       <use x="603.173828" xlink:href="#ArialMT-118"/>
       <use x="653.173828" xlink:href="#ArialMT-101"/>
       <use x="708.789062" xlink:href="#ArialMT-114"/>
       <use x="742.089844" xlink:href="#ArialMT-101"/>
      </g>
     </g>
    </g>
    <g id="xtick_3">
     <g id="text_3">
      <!-- Slight -->
      <g style="fill:#262626;" transform="translate(1102.717269 1231.838438)scale(0.5 -0.5)">
       <defs>
        <path d="M 6.640625 61.46875 
L 6.640625 71.578125 
L 15.4375 71.578125 
L 15.4375 61.46875 
z
M 6.640625 0 
L 6.640625 51.859375 
L 15.4375 51.859375 
L 15.4375 0 
z
" id="ArialMT-105"/>
        <path d="M 4.984375 -4.296875 
L 13.53125 -5.5625 
Q 14.0625 -9.515625 16.5 -11.328125 
Q 19.78125 -13.765625 25.4375 -13.765625 
Q 31.546875 -13.765625 34.859375 -11.328125 
Q 38.1875 -8.890625 39.359375 -4.5 
Q 40.046875 -1.8125 39.984375 6.78125 
Q 34.234375 0 25.640625 0 
Q 14.9375 0 9.078125 7.71875 
Q 3.21875 15.4375 3.21875 26.21875 
Q 3.21875 33.640625 5.90625 39.90625 
Q 8.59375 46.1875 13.6875 49.609375 
Q 18.796875 53.03125 25.6875 53.03125 
Q 34.859375 53.03125 40.828125 45.609375 
L 40.828125 51.859375 
L 48.921875 51.859375 
L 48.921875 7.03125 
Q 48.921875 -5.078125 46.453125 -10.125 
Q 44 -15.1875 38.640625 -18.109375 
Q 33.296875 -21.046875 25.484375 -21.046875 
Q 16.21875 -21.046875 10.5 -16.875 
Q 4.78125 -12.703125 4.984375 -4.296875 
z
M 12.25 26.859375 
Q 12.25 16.65625 16.296875 11.96875 
Q 20.359375 7.28125 26.46875 7.28125 
Q 32.515625 7.28125 36.609375 11.9375 
Q 40.71875 16.609375 40.71875 26.5625 
Q 40.71875 36.078125 36.5 40.90625 
Q 32.28125 45.75 26.3125 45.75 
Q 20.453125 45.75 16.34375 40.984375 
Q 12.25 36.234375 12.25 26.859375 
z
" id="ArialMT-103"/>
       </defs>
       <use xlink:href="#ArialMT-83"/>
       <use x="66.699219" xlink:href="#ArialMT-108"/>
       <use x="88.916016" xlink:href="#ArialMT-105"/>
       <use x="111.132812" xlink:href="#ArialMT-103"/>
       <use x="166.748047" xlink:href="#ArialMT-104"/>
       <use x="222.363281" xlink:href="#ArialMT-116"/>
      </g>
     </g>
    </g>
   </g>
   <g id="matplotlib.axis_2">
    <g id="ytick_1">
     <g id="line2d_1">
      <path clip-path="url(#p40b95ab08d)" d="M 202.32 1091.390389 
L 1242 1091.390389 
" style="fill:none;stroke:#cccccc;stroke-linecap:round;stroke-width:2;"/>
     </g>
     <g id="text_4">
      <!-- 0 -->
      <g style="fill:#262626;" transform="translate(159.015313 1109.28492)scale(0.5 -0.5)">
       <defs>
        <path d="M 4.15625 35.296875 
Q 4.15625 48 6.765625 55.734375 
Q 9.375 63.484375 14.515625 67.671875 
Q 19.671875 71.875 27.484375 71.875 
Q 33.25 71.875 37.59375 69.546875 
Q 41.9375 67.234375 44.765625 62.859375 
Q 47.609375 58.5 49.21875 52.21875 
Q 50.828125 45.953125 50.828125 35.296875 
Q 50.828125 22.703125 48.234375 14.96875 
Q 45.65625 7.234375 40.5 3 
Q 35.359375 -1.21875 27.484375 -1.21875 
Q 17.140625 -1.21875 11.234375 6.203125 
Q 4.15625 15.140625 4.15625 35.296875 
z
M 13.1875 35.296875 
Q 13.1875 17.671875 17.3125 11.828125 
Q 21.4375 6 27.484375 6 
Q 33.546875 6 37.671875 11.859375 
Q 41.796875 17.71875 41.796875 35.296875 
Q 41.796875 52.984375 37.671875 58.78125 
Q 33.546875 64.59375 27.390625 64.59375 
Q 21.34375 64.59375 17.71875 59.46875 
Q 13.1875 52.9375 13.1875 35.296875 
z
" id="ArialMT-48"/>
       </defs>
       <use xlink:href="#ArialMT-48"/>
      </g>
     </g>
    </g>
    <g id="ytick_2">
     <g id="line2d_2">
      <path clip-path="url(#p40b95ab08d)" d="M 202.32 927.399497 
L 1242 927.399497 
" style="fill:none;stroke:#cccccc;stroke-linecap:round;stroke-width:2;"/>
     </g>
     <g id="text_5">
      <!-- 100 -->
      <g style="fill:#262626;" transform="translate(103.405938 945.294028)scale(0.5 -0.5)">
       <defs>
        <path d="M 37.25 0 
L 28.46875 0 
L 28.46875 56 
Q 25.296875 52.984375 20.140625 49.953125 
Q 14.984375 46.921875 10.890625 45.40625 
L 10.890625 53.90625 
Q 18.265625 57.375 23.78125 62.296875 
Q 29.296875 67.234375 31.59375 71.875 
L 37.25 71.875 
z
" id="ArialMT-49"/>
       </defs>
       <use xlink:href="#ArialMT-49"/>
       <use x="55.615234" xlink:href="#ArialMT-48"/>
       <use x="111.230469" xlink:href="#ArialMT-48"/>
      </g>
     </g>
    </g>
    <g id="ytick_3">
     <g id="line2d_3">
      <path clip-path="url(#p40b95ab08d)" d="M 202.32 763.408605 
L 1242 763.408605 
" style="fill:none;stroke:#cccccc;stroke-linecap:round;stroke-width:2;"/>
     </g>
     <g id="text_6">
      <!-- 200 -->
      <g style="fill:#262626;" transform="translate(103.405938 781.303136)scale(0.5 -0.5)">
       <defs>
        <path d="M 50.34375 8.453125 
L 50.34375 0 
L 3.03125 0 
Q 2.9375 3.171875 4.046875 6.109375 
Q 5.859375 10.9375 9.828125 15.625 
Q 13.8125 20.3125 21.34375 26.46875 
Q 33.015625 36.03125 37.109375 41.625 
Q 41.21875 47.21875 41.21875 52.203125 
Q 41.21875 57.421875 37.46875 61 
Q 33.734375 64.59375 27.734375 64.59375 
Q 21.390625 64.59375 17.578125 60.78125 
Q 13.765625 56.984375 13.71875 50.25 
L 4.6875 51.171875 
Q 5.609375 61.28125 11.65625 66.578125 
Q 17.71875 71.875 27.9375 71.875 
Q 38.234375 71.875 44.234375 66.15625 
Q 50.25 60.453125 50.25 52 
Q 50.25 47.703125 48.484375 43.546875 
Q 46.734375 39.40625 42.65625 34.8125 
Q 38.578125 30.21875 29.109375 22.21875 
Q 21.1875 15.578125 18.9375 13.203125 
Q 16.703125 10.84375 15.234375 8.453125 
z
" id="ArialMT-50"/>
       </defs>
       <use xlink:href="#ArialMT-50"/>
       <use x="55.615234" xlink:href="#ArialMT-48"/>
       <use x="111.230469" xlink:href="#ArialMT-48"/>
      </g>
     </g>
    </g>
    <g id="ytick_4">
     <g id="line2d_4">
      <path clip-path="url(#p40b95ab08d)" d="M 202.32 599.417713 
L 1242 599.417713 
" style="fill:none;stroke:#cccccc;stroke-linecap:round;stroke-width:2;"/>
     </g>
     <g id="text_7">
      <!-- 300 -->
      <g style="fill:#262626;" transform="translate(103.405938 617.312244)scale(0.5 -0.5)">
       <defs>
        <path d="M 4.203125 18.890625 
L 12.984375 20.0625 
Q 14.5 12.59375 18.140625 9.296875 
Q 21.78125 6 27 6 
Q 33.203125 6 37.46875 10.296875 
Q 41.75 14.59375 41.75 20.953125 
Q 41.75 27 37.796875 30.921875 
Q 33.84375 34.859375 27.734375 34.859375 
Q 25.25 34.859375 21.53125 33.890625 
L 22.515625 41.609375 
Q 23.390625 41.5 23.921875 41.5 
Q 29.546875 41.5 34.03125 44.421875 
Q 38.53125 47.359375 38.53125 53.46875 
Q 38.53125 58.296875 35.25 61.46875 
Q 31.984375 64.65625 26.8125 64.65625 
Q 21.6875 64.65625 18.265625 61.421875 
Q 14.84375 58.203125 13.875 51.765625 
L 5.078125 53.328125 
Q 6.6875 62.15625 12.390625 67.015625 
Q 18.109375 71.875 26.609375 71.875 
Q 32.46875 71.875 37.390625 69.359375 
Q 42.328125 66.84375 44.9375 62.5 
Q 47.5625 58.15625 47.5625 53.265625 
Q 47.5625 48.640625 45.0625 44.828125 
Q 42.578125 41.015625 37.703125 38.765625 
Q 44.046875 37.3125 47.5625 32.6875 
Q 51.078125 28.078125 51.078125 21.140625 
Q 51.078125 11.765625 44.234375 5.25 
Q 37.40625 -1.265625 26.953125 -1.265625 
Q 17.53125 -1.265625 11.296875 4.34375 
Q 5.078125 9.96875 4.203125 18.890625 
z
" id="ArialMT-51"/>
       </defs>
       <use xlink:href="#ArialMT-51"/>
       <use x="55.615234" xlink:href="#ArialMT-48"/>
       <use x="111.230469" xlink:href="#ArialMT-48"/>
      </g>
     </g>
    </g>
    <g id="ytick_5">
     <g id="line2d_5">
      <path clip-path="url(#p40b95ab08d)" d="M 202.32 435.426821 
L 1242 435.426821 
" style="fill:none;stroke:#cccccc;stroke-linecap:round;stroke-width:2;"/>
     </g>
     <g id="text_8">
      <!-- 400 -->
      <g style="fill:#262626;" transform="translate(103.405938 453.321352)scale(0.5 -0.5)">
       <defs>
        <path d="M 32.328125 0 
L 32.328125 17.140625 
L 1.265625 17.140625 
L 1.265625 25.203125 
L 33.9375 71.578125 
L 41.109375 71.578125 
L 41.109375 25.203125 
L 50.78125 25.203125 
L 50.78125 17.140625 
L 41.109375 17.140625 
L 41.109375 0 
z
M 32.328125 25.203125 
L 32.328125 57.46875 
L 9.90625 25.203125 
z
" id="ArialMT-52"/>
       </defs>
       <use xlink:href="#ArialMT-52"/>
       <use x="55.615234" xlink:href="#ArialMT-48"/>
       <use x="111.230469" xlink:href="#ArialMT-48"/>
      </g>
     </g>
    </g>
    <g id="ytick_6">
     <g id="line2d_6">
      <path clip-path="url(#p40b95ab08d)" d="M 202.32 271.435929 
L 1242 271.435929 
" style="fill:none;stroke:#cccccc;stroke-linecap:round;stroke-width:2;"/>
     </g>
     <g id="text_9">
      <!-- 500 -->
      <g style="fill:#262626;" transform="translate(103.405938 289.33046)scale(0.5 -0.5)">
       <defs>
        <path d="M 4.15625 18.75 
L 13.375 19.53125 
Q 14.40625 12.796875 18.140625 9.390625 
Q 21.875 6 27.15625 6 
Q 33.5 6 37.890625 10.78125 
Q 42.28125 15.578125 42.28125 23.484375 
Q 42.28125 31 38.0625 35.34375 
Q 33.84375 39.703125 27 39.703125 
Q 22.75 39.703125 19.328125 37.765625 
Q 15.921875 35.84375 13.96875 32.765625 
L 5.71875 33.84375 
L 12.640625 70.609375 
L 48.25 70.609375 
L 48.25 62.203125 
L 19.671875 62.203125 
L 15.828125 42.96875 
Q 22.265625 47.46875 29.34375 47.46875 
Q 38.71875 47.46875 45.15625 40.96875 
Q 51.609375 34.46875 51.609375 24.265625 
Q 51.609375 14.546875 45.953125 7.46875 
Q 39.0625 -1.21875 27.15625 -1.21875 
Q 17.390625 -1.21875 11.203125 4.25 
Q 5.03125 9.71875 4.15625 18.75 
z
" id="ArialMT-53"/>
       </defs>
       <use xlink:href="#ArialMT-53"/>
       <use x="55.615234" xlink:href="#ArialMT-48"/>
       <use x="111.230469" xlink:href="#ArialMT-48"/>
      </g>
     </g>
    </g>
    <g id="ytick_7">
     <g id="line2d_7">
      <path clip-path="url(#p40b95ab08d)" d="M 202.32 107.445036 
L 1242 107.445036 
" style="fill:none;stroke:#cccccc;stroke-linecap:round;stroke-width:2;"/>
     </g>
     <g id="text_10">
      <!-- 600 -->
      <g style="fill:#262626;" transform="translate(103.405938 125.339568)scale(0.5 -0.5)">
       <defs>
        <path d="M 49.75 54.046875 
L 41.015625 53.375 
Q 39.84375 58.546875 37.703125 60.890625 
Q 34.125 64.65625 28.90625 64.65625 
Q 24.703125 64.65625 21.53125 62.3125 
Q 17.390625 59.28125 14.984375 53.46875 
Q 12.59375 47.65625 12.5 36.921875 
Q 15.671875 41.75 20.265625 44.09375 
Q 24.859375 46.4375 29.890625 46.4375 
Q 38.671875 46.4375 44.84375 39.96875 
Q 51.03125 33.5 51.03125 23.25 
Q 51.03125 16.5 48.125 10.71875 
Q 45.21875 4.9375 40.140625 1.859375 
Q 35.0625 -1.21875 28.609375 -1.21875 
Q 17.625 -1.21875 10.6875 6.859375 
Q 3.765625 14.9375 3.765625 33.5 
Q 3.765625 54.25 11.421875 63.671875 
Q 18.109375 71.875 29.4375 71.875 
Q 37.890625 71.875 43.28125 67.140625 
Q 48.6875 62.40625 49.75 54.046875 
z
M 13.875 23.1875 
Q 13.875 18.65625 15.796875 14.5 
Q 17.71875 10.359375 21.1875 8.171875 
Q 24.65625 6 28.46875 6 
Q 34.03125 6 38.03125 10.484375 
Q 42.046875 14.984375 42.046875 22.703125 
Q 42.046875 30.125 38.078125 34.390625 
Q 34.125 38.671875 28.125 38.671875 
Q 22.171875 38.671875 18.015625 34.390625 
Q 13.875 30.125 13.875 23.1875 
z
" id="ArialMT-54"/>
       </defs>
       <use xlink:href="#ArialMT-54"/>
       <use x="55.615234" xlink:href="#ArialMT-48"/>
       <use x="111.230469" xlink:href="#ArialMT-48"/>
      </g>
     </g>
    </g>
    <g id="text_11">
     <!-- Abundance -->
     <g style="fill:#262626;" transform="translate(89.468438 764.582187)rotate(-90)scale(0.5 -0.5)">
      <defs>
       <path d="M -0.140625 0 
L 27.34375 71.578125 
L 37.546875 71.578125 
L 66.84375 0 
L 56.0625 0 
L 47.703125 21.6875 
L 17.78125 21.6875 
L 9.90625 0 
z
M 20.515625 29.390625 
L 44.78125 29.390625 
L 37.3125 49.21875 
Q 33.890625 58.25 32.234375 64.0625 
Q 30.859375 57.171875 28.375 50.390625 
z
" id="ArialMT-65"/>
       <path d="M 14.703125 0 
L 6.546875 0 
L 6.546875 71.578125 
L 15.328125 71.578125 
L 15.328125 46.046875 
Q 20.90625 53.03125 29.546875 53.03125 
Q 34.328125 53.03125 38.59375 51.09375 
Q 42.875 49.171875 45.625 45.671875 
Q 48.390625 42.1875 49.953125 37.25 
Q 51.515625 32.328125 51.515625 26.703125 
Q 51.515625 13.375 44.921875 6.09375 
Q 38.328125 -1.171875 29.109375 -1.171875 
Q 19.921875 -1.171875 14.703125 6.5 
z
M 14.59375 26.3125 
Q 14.59375 17 17.140625 12.84375 
Q 21.296875 6.0625 28.375 6.0625 
Q 34.125 6.0625 38.328125 11.0625 
Q 42.53125 16.0625 42.53125 25.984375 
Q 42.53125 36.140625 38.5 40.96875 
Q 34.46875 45.796875 28.765625 45.796875 
Q 23 45.796875 18.796875 40.796875 
Q 14.59375 35.796875 14.59375 26.3125 
z
" id="ArialMT-98"/>
       <path d="M 40.578125 0 
L 40.578125 7.625 
Q 34.515625 -1.171875 24.125 -1.171875 
Q 19.53125 -1.171875 15.546875 0.578125 
Q 11.578125 2.34375 9.640625 5 
Q 7.71875 7.671875 6.9375 11.53125 
Q 6.390625 14.109375 6.390625 19.734375 
L 6.390625 51.859375 
L 15.1875 51.859375 
L 15.1875 23.09375 
Q 15.1875 16.21875 15.71875 13.8125 
Q 16.546875 10.359375 19.234375 8.375 
Q 21.921875 6.390625 25.875 6.390625 
Q 29.828125 6.390625 33.296875 8.421875 
Q 36.765625 10.453125 38.203125 13.9375 
Q 39.65625 17.4375 39.65625 24.078125 
L 39.65625 51.859375 
L 48.4375 51.859375 
L 48.4375 0 
z
" id="ArialMT-117"/>
       <path d="M 6.59375 0 
L 6.59375 51.859375 
L 14.5 51.859375 
L 14.5 44.484375 
Q 20.21875 53.03125 31 53.03125 
Q 35.6875 53.03125 39.625 51.34375 
Q 43.5625 49.65625 45.515625 46.921875 
Q 47.46875 44.1875 48.25 40.4375 
Q 48.734375 37.984375 48.734375 31.890625 
L 48.734375 0 
L 39.9375 0 
L 39.9375 31.546875 
Q 39.9375 36.921875 38.90625 39.578125 
Q 37.890625 42.234375 35.28125 43.8125 
Q 32.671875 45.40625 29.15625 45.40625 
Q 23.53125 45.40625 19.453125 41.84375 
Q 15.375 38.28125 15.375 28.328125 
L 15.375 0 
z
" id="ArialMT-110"/>
       <path d="M 40.4375 19 
L 49.078125 17.875 
Q 47.65625 8.9375 41.8125 3.875 
Q 35.984375 -1.171875 27.484375 -1.171875 
Q 16.84375 -1.171875 10.375 5.78125 
Q 3.90625 12.75 3.90625 25.734375 
Q 3.90625 34.125 6.6875 40.421875 
Q 9.46875 46.734375 15.15625 49.875 
Q 20.84375 53.03125 27.546875 53.03125 
Q 35.984375 53.03125 41.359375 48.75 
Q 46.734375 44.484375 48.25 36.625 
L 39.703125 35.296875 
Q 38.484375 40.53125 35.375 43.15625 
Q 32.28125 45.796875 27.875 45.796875 
Q 21.234375 45.796875 17.078125 41.03125 
Q 12.9375 36.28125 12.9375 25.984375 
Q 12.9375 15.53125 16.9375 10.796875 
Q 20.953125 6.0625 27.390625 6.0625 
Q 32.5625 6.0625 36.03125 9.234375 
Q 39.5 12.40625 40.4375 19 
z
" id="ArialMT-99"/>
      </defs>
      <use xlink:href="#ArialMT-65"/>
      <use x="66.699219" xlink:href="#ArialMT-98"/>
      <use x="122.314453" xlink:href="#ArialMT-117"/>
      <use x="177.929688" xlink:href="#ArialMT-110"/>
      <use x="233.544922" xlink:href="#ArialMT-100"/>
      <use x="289.160156" xlink:href="#ArialMT-97"/>
      <use x="344.775391" xlink:href="#ArialMT-110"/>
      <use x="400.390625" xlink:href="#ArialMT-99"/>
      <use x="450.390625" xlink:href="#ArialMT-101"/>
     </g>
    </g>
   </g>
   <g id="PolyCollection_1">
    <defs>
     <path d="M 282.677361 -153.702867 
L 260.592019 -153.702867 
L 258.764591 -161.307486 
L 256.934715 -168.912106 
L 255.17451 -176.516725 
L 253.557865 -184.121345 
L 252.15412 -191.725964 
L 251.021837 -199.330584 
L 250.203486 -206.935203 
L 249.721784 -214.539823 
L 249.578182 -222.144442 
L 249.753688 -229.749062 
L 250.211846 -237.353681 
L 250.903369 -244.958301 
L 251.771728 -252.56292 
L 252.758887 -260.16754 
L 253.810445 -267.772159 
L 254.879603 -275.376779 
L 255.92963 -282.981398 
L 256.934761 -290.586018 
L 257.879694 -298.190637 
L 258.758044 -305.795257 
L 259.570173 -313.399876 
L 260.320826 -321.004496 
L 261.01695 -328.609115 
L 261.665946 -336.213735 
L 262.274473 -343.818354 
L 262.847822 -351.422974 
L 263.389783 -359.027593 
L 263.90286 -366.632213 
L 264.388684 -374.236832 
L 264.848481 -381.841452 
L 265.283488 -389.446071 
L 265.695228 -397.050691 
L 266.085635 -404.65531 
L 266.457015 -412.25993 
L 266.811884 -419.864549 
L 267.15272 -427.469169 
L 267.481681 -435.073788 
L 267.800343 -442.678408 
L 268.109492 -450.283027 
L 268.409008 -457.887647 
L 268.697858 -465.492266 
L 268.974205 -473.096886 
L 269.235614 -480.701505 
L 269.479343 -488.306125 
L 269.702666 -495.910744 
L 269.903204 -503.515364 
L 270.07921 -511.119983 
L 270.229777 -518.724603 
L 270.354957 -526.329222 
L 270.455767 -533.933842 
L 270.534112 -541.538461 
L 270.592628 -549.143081 
L 270.634467 -556.7477 
L 270.66308 -564.35232 
L 270.681979 -571.956939 
L 270.694535 -579.561559 
L 270.703799 -587.166178 
L 270.71236 -594.770798 
L 270.722247 -602.375417 
L 270.734866 -609.980037 
L 270.75099 -617.584656 
L 270.770782 -625.189276 
L 270.793869 -632.793895 
L 270.819452 -640.398515 
L 270.846443 -648.003134 
L 270.873626 -655.607754 
L 270.899805 -663.212373 
L 270.923939 -670.816993 
L 270.945237 -678.421612 
L 270.963209 -686.026232 
L 270.977669 -693.630851 
L 270.988695 -701.235471 
L 270.996563 -708.84009 
L 271.001667 -716.44471 
L 271.004453 -724.049329 
L 271.005357 -731.653949 
L 271.004784 -739.258568 
L 271.003101 -746.863188 
L 271.000651 -754.467807 
L 270.997778 -762.072427 
L 270.994854 -769.677046 
L 270.992295 -777.281666 
L 270.990576 -784.886285 
L 270.990227 -792.490905 
L 270.991825 -800.095524 
L 270.995972 -807.700144 
L 271.003275 -815.304763 
L 271.014304 -822.909383 
L 271.029556 -830.514002 
L 271.049407 -838.118622 
L 271.074057 -845.723241 
L 271.103486 -853.327861 
L 271.137421 -860.93248 
L 271.175317 -868.5371 
L 271.216374 -876.14172 
L 271.259579 -883.746339 
L 271.303769 -891.350959 
L 271.347727 -898.955578 
L 271.39027 -906.560198 
L 271.87911 -906.560198 
L 271.87911 -906.560198 
L 271.921654 -898.955578 
L 271.965612 -891.350959 
L 272.009802 -883.746339 
L 272.053006 -876.14172 
L 272.094064 -868.5371 
L 272.13196 -860.93248 
L 272.165894 -853.327861 
L 272.195324 -845.723241 
L 272.219973 -838.118622 
L 272.239824 -830.514002 
L 272.255077 -822.909383 
L 272.266106 -815.304763 
L 272.273408 -807.700144 
L 272.277556 -800.095524 
L 272.279153 -792.490905 
L 272.278804 -784.886285 
L 272.277086 -777.281666 
L 272.274527 -769.677046 
L 272.271603 -762.072427 
L 272.26873 -754.467807 
L 272.26628 -746.863188 
L 272.264597 -739.258568 
L 272.264024 -731.653949 
L 272.264928 -724.049329 
L 272.267713 -716.44471 
L 272.272818 -708.84009 
L 272.280685 -701.235471 
L 272.291712 -693.630851 
L 272.306172 -686.026232 
L 272.324144 -678.421612 
L 272.345442 -670.816993 
L 272.369575 -663.212373 
L 272.395754 -655.607754 
L 272.422937 -648.003134 
L 272.449929 -640.398515 
L 272.475511 -632.793895 
L 272.498598 -625.189276 
L 272.51839 -617.584656 
L 272.534514 -609.980037 
L 272.547134 -602.375417 
L 272.55702 -594.770798 
L 272.565581 -587.166178 
L 272.574845 -579.561559 
L 272.587401 -571.956939 
L 272.6063 -564.35232 
L 272.634913 -556.7477 
L 272.676753 -549.143081 
L 272.735268 -541.538461 
L 272.813614 -533.933842 
L 272.914424 -526.329222 
L 273.039603 -518.724603 
L 273.19017 -511.119983 
L 273.366176 -503.515364 
L 273.566715 -495.910744 
L 273.790038 -488.306125 
L 274.033766 -480.701505 
L 274.295175 -473.096886 
L 274.571522 -465.492266 
L 274.860373 -457.887647 
L 275.159889 -450.283027 
L 275.469038 -442.678408 
L 275.7877 -435.073788 
L 276.116661 -427.469169 
L 276.457496 -419.864549 
L 276.812365 -412.25993 
L 277.183745 -404.65531 
L 277.574152 -397.050691 
L 277.985893 -389.446071 
L 278.420899 -381.841452 
L 278.880697 -374.236832 
L 279.36652 -366.632213 
L 279.879597 -359.027593 
L 280.421559 -351.422974 
L 280.994908 -343.818354 
L 281.603435 -336.213735 
L 282.252431 -328.609115 
L 282.948555 -321.004496 
L 283.699207 -313.399876 
L 284.511336 -305.795257 
L 285.389687 -298.190637 
L 286.33462 -290.586018 
L 287.33975 -282.981398 
L 288.389778 -275.376779 
L 289.458936 -267.772159 
L 290.510494 -260.16754 
L 291.497653 -252.56292 
L 292.366011 -244.958301 
L 293.057534 -237.353681 
L 293.515692 -229.749062 
L 293.691199 -222.144442 
L 293.547596 -214.539823 
L 293.065894 -206.935203 
L 292.247544 -199.330584 
L 291.115261 -191.725964 
L 289.711516 -184.121345 
L 288.09487 -176.516725 
L 286.334666 -168.912106 
L 284.50479 -161.307486 
L 282.677361 -153.702867 
z
" id="ma77e977db3" style="stroke:#4c4c4c;stroke-width:5;"/>
    </defs>
    <g clip-path="url(#p40b95ab08d)">
     <use style="fill:#5875a4;stroke:#4c4c4c;stroke-width:5;" x="0" xlink:href="#ma77e977db3" y="1296"/>
    </g>
   </g>
   <g id="PolyCollection_2">
    <defs>
     <path d="M 826.773356 -195.423261 
L 610.113759 -195.423261 
L 589.248025 -197.215623 
L 570.113246 -199.007985 
L 554.496557 -200.800348 
L 543.989565 -202.59271 
L 539.720011 -204.385072 
L 542.150096 -206.177434 
L 550.99134 -207.969797 
L 565.257726 -209.762159 
L 583.443677 -211.554521 
L 603.782553 -213.346884 
L 624.524428 -215.139246 
L 644.173396 -216.931608 
L 661.642209 -218.72397 
L 676.308287 -220.516333 
L 687.980927 -222.308695 
L 696.807367 -224.101057 
L 703.152032 -225.89342 
L 707.479517 -227.685782 
L 710.261793 -229.478144 
L 711.918203 -231.270507 
L 712.786991 -233.062869 
L 713.121137 -234.855231 
L 713.099292 -236.647593 
L 712.843442 -238.439956 
L 712.437199 -240.232318 
L 711.941075 -242.02468 
L 711.40315 -243.817043 
L 710.86493 -245.609405 
L 710.363132 -247.401767 
L 709.928658 -249.194129 
L 709.584312 -250.986492 
L 709.342788 -252.778854 
L 709.20614 -254.571216 
L 709.167329 -256.363579 
L 709.213694 -258.155941 
L 709.331506 -259.948303 
L 709.510318 -261.740665 
L 709.745862 -263.533028 
L 710.040598 -265.32539 
L 710.401749 -267.117752 
L 710.83737 -268.910115 
L 711.351587 -270.702477 
L 711.940377 -272.494839 
L 712.58908 -274.287201 
L 713.272367 -276.079564 
L 713.956737 -277.871926 
L 714.604977 -279.664288 
L 715.181632 -281.456651 
L 715.658342 -283.249013 
L 716.018049 -285.041375 
L 716.257343 -286.833737 
L 716.386631 -288.6261 
L 716.428188 -290.418462 
L 716.412472 -292.210824 
L 716.373353 -294.003187 
L 716.343061 -295.795549 
L 716.34769 -297.587911 
L 716.404002 -299.380273 
L 716.51802 -301.172636 
L 716.685542 -302.964998 
L 716.894307 -304.75736 
L 717.127232 -306.549723 
L 717.365939 -308.342085 
L 717.593865 -310.134447 
L 717.79841 -311.926809 
L 717.971928 -313.719172 
L 718.11162 -315.511534 
L 718.218646 -317.303896 
L 718.296842 -319.096259 
L 718.351402 -320.888621 
L 718.387781 -322.680983 
L 718.410934 -324.473345 
L 718.424906 -326.265708 
L 718.432681 -328.05807 
L 718.436199 -329.850432 
L 718.436435 -331.642795 
L 718.433454 -333.435157 
L 718.426425 -335.227519 
L 718.413559 -337.019882 
L 718.392035 -338.812244 
L 718.357965 -340.604606 
L 718.306515 -342.396968 
L 718.232271 -344.189331 
L 718.12995 -345.981693 
L 717.995457 -347.774055 
L 717.827199 -349.566418 
L 717.627428 -351.35878 
L 717.403274 -353.151142 
L 717.167084 -354.943504 
L 716.935775 -356.735867 
L 716.729076 -358.528229 
L 716.566862 -360.320591 
L 716.466032 -362.112954 
L 716.43762 -363.905316 
L 716.484804 -365.697678 
L 716.602322 -367.49004 
L 716.77744 -369.282403 
L 716.992217 -371.074765 
L 717.226531 -372.867127 
L 719.660584 -372.867127 
L 719.660584 -372.867127 
L 719.894898 -371.074765 
L 720.109676 -369.282403 
L 720.284793 -367.49004 
L 720.402311 -365.697678 
L 720.449495 -363.905316 
L 720.421083 -362.112954 
L 720.320254 -360.320591 
L 720.158039 -358.528229 
L 719.95134 -356.735867 
L 719.720031 -354.943504 
L 719.483841 -353.151142 
L 719.259687 -351.35878 
L 719.059916 -349.566418 
L 718.891658 -347.774055 
L 718.757165 -345.981693 
L 718.654844 -344.189331 
L 718.580601 -342.396968 
L 718.52915 -340.604606 
L 718.49508 -338.812244 
L 718.473556 -337.019882 
L 718.46069 -335.227519 
L 718.453661 -333.435157 
L 718.450681 -331.642795 
L 718.450916 -329.850432 
L 718.454434 -328.05807 
L 718.462209 -326.265708 
L 718.476181 -324.473345 
L 718.499334 -322.680983 
L 718.535713 -320.888621 
L 718.590273 -319.096259 
L 718.66847 -317.303896 
L 718.775496 -315.511534 
L 718.915187 -313.719172 
L 719.088705 -311.926809 
L 719.293251 -310.134447 
L 719.521176 -308.342085 
L 719.759883 -306.549723 
L 719.992808 -304.75736 
L 720.201573 -302.964998 
L 720.369095 -301.172636 
L 720.483113 -299.380273 
L 720.539425 -297.587911 
L 720.544054 -295.795549 
L 720.513762 -294.003187 
L 720.474643 -292.210824 
L 720.458927 -290.418462 
L 720.500484 -288.6261 
L 720.629772 -286.833737 
L 720.869066 -285.041375 
L 721.228773 -283.249013 
L 721.705483 -281.456651 
L 722.282138 -279.664288 
L 722.930378 -277.871926 
L 723.614748 -276.079564 
L 724.298036 -274.287201 
L 724.946738 -272.494839 
L 725.535528 -270.702477 
L 726.049746 -268.910115 
L 726.485366 -267.117752 
L 726.846518 -265.32539 
L 727.141254 -263.533028 
L 727.376797 -261.740665 
L 727.555609 -259.948303 
L 727.673421 -258.155941 
L 727.719786 -256.363579 
L 727.680975 -254.571216 
L 727.544327 -252.778854 
L 727.302803 -250.986492 
L 726.958457 -249.194129 
L 726.523983 -247.401767 
L 726.022185 -245.609405 
L 725.483966 -243.817043 
L 724.94604 -242.02468 
L 724.449917 -240.232318 
L 724.043673 -238.439956 
L 723.787823 -236.647593 
L 723.765979 -234.855231 
L 724.100124 -233.062869 
L 724.968912 -231.270507 
L 726.625322 -229.478144 
L 729.407598 -227.685782 
L 733.735083 -225.89342 
L 740.079748 -224.101057 
L 748.906189 -222.308695 
L 760.578828 -220.516333 
L 775.244906 -218.72397 
L 792.713719 -216.931608 
L 812.362687 -215.139246 
L 833.104562 -213.346884 
L 853.443438 -211.554521 
L 871.629389 -209.762159 
L 885.895775 -207.969797 
L 894.73702 -206.177434 
L 897.167104 -204.385072 
L 892.89755 -202.59271 
L 882.390558 -200.800348 
L 866.77387 -199.007985 
L 847.63909 -197.215623 
L 826.773356 -195.423261 
z
" id="m31aaa09543" style="stroke:#4c4c4c;stroke-width:5;"/>
    </defs>
    <g clip-path="url(#p40b95ab08d)">
     <use style="fill:#cc8963;stroke:#4c4c4c;stroke-width:5;" x="0" xlink:href="#m31aaa09543" y="1296"/>
    </g>
   </g>
   <g id="PolyCollection_3">
    <defs>
     <path d="M 1182.084668 -161.325201 
L 1148.420182 -161.325201 
L 1146.571357 -165.959828 
L 1144.746097 -170.594456 
L 1142.986777 -175.229084 
L 1141.336635 -179.863712 
L 1139.837803 -184.498339 
L 1138.52927 -189.132967 
L 1137.44493 -193.767595 
L 1136.611856 -198.402223 
L 1136.04892 -203.03685 
L 1135.765888 -207.671478 
L 1135.763032 -212.306106 
L 1136.031309 -216.940734 
L 1136.553072 -221.575361 
L 1137.303256 -226.209989 
L 1138.250932 -230.844617 
L 1139.361112 -235.479245 
L 1140.596648 -240.113872 
L 1141.920093 -244.7485 
L 1143.295402 -249.383128 
L 1144.689354 -254.017755 
L 1146.072638 -258.652383 
L 1147.420565 -263.287011 
L 1148.713405 -267.921639 
L 1149.936387 -272.556266 
L 1151.07941 -277.190894 
L 1152.136547 -281.825522 
L 1153.105415 -286.46015 
L 1153.986487 -291.094777 
L 1154.782414 -295.729405 
L 1155.497404 -300.364033 
L 1156.136697 -304.998661 
L 1156.706145 -309.633288 
L 1157.211907 -314.267916 
L 1157.660233 -318.902544 
L 1158.057331 -323.537172 
L 1158.409281 -328.171799 
L 1158.721983 -332.806427 
L 1159.001104 -337.441055 
L 1159.25203 -342.075683 
L 1159.479798 -346.71031 
L 1159.689013 -351.344938 
L 1159.88376 -355.979566 
L 1160.067518 -360.614194 
L 1160.243083 -365.248821 
L 1160.412513 -369.883449 
L 1160.577121 -374.518077 
L 1160.73749 -379.152704 
L 1160.893551 -383.787332 
L 1161.044683 -388.42196 
L 1161.189862 -393.056588 
L 1161.327823 -397.691215 
L 1161.457238 -402.325843 
L 1161.576885 -406.960471 
L 1161.685799 -411.595099 
L 1161.783392 -416.229726 
L 1161.86954 -420.864354 
L 1161.944615 -425.498982 
L 1162.009474 -430.13361 
L 1162.065412 -434.768237 
L 1162.114074 -439.402865 
L 1162.157336 -444.037493 
L 1162.197178 -448.672121 
L 1162.235553 -453.306748 
L 1162.274263 -457.941376 
L 1162.314847 -462.576004 
L 1162.358511 -467.210632 
L 1162.40607 -471.845259 
L 1162.457938 -476.479887 
L 1162.514142 -481.114515 
L 1162.574366 -485.749142 
L 1162.638015 -490.38377 
L 1162.7043 -495.018398 
L 1162.772325 -499.653026 
L 1162.841177 -504.287653 
L 1162.910006 -508.922281 
L 1162.978098 -513.556909 
L 1163.044922 -518.191537 
L 1163.110168 -522.826164 
L 1163.173761 -527.460792 
L 1163.23585 -532.09542 
L 1163.296791 -536.730048 
L 1163.357104 -541.364675 
L 1163.417429 -545.999303 
L 1163.47847 -550.633931 
L 1163.540935 -555.268559 
L 1163.605481 -559.903186 
L 1163.672662 -564.537814 
L 1163.742882 -569.172442 
L 1163.816366 -573.80707 
L 1163.893133 -578.441697 
L 1163.972991 -583.076325 
L 1164.055541 -587.710953 
L 1164.140192 -592.345581 
L 1164.226196 -596.980208 
L 1164.31268 -601.614836 
L 1164.398694 -606.249464 
L 1164.483258 -610.884091 
L 1164.565409 -615.518719 
L 1164.644248 -620.153347 
L 1165.860602 -620.153347 
L 1165.860602 -620.153347 
L 1165.93944 -615.518719 
L 1166.021592 -610.884091 
L 1166.106156 -606.249464 
L 1166.19217 -601.614836 
L 1166.278654 -596.980208 
L 1166.364658 -592.345581 
L 1166.449309 -587.710953 
L 1166.531859 -583.076325 
L 1166.611717 -578.441697 
L 1166.688484 -573.80707 
L 1166.761968 -569.172442 
L 1166.832188 -564.537814 
L 1166.899368 -559.903186 
L 1166.963914 -555.268559 
L 1167.026379 -550.633931 
L 1167.08742 -545.999303 
L 1167.147746 -541.364675 
L 1167.208059 -536.730048 
L 1167.268999 -532.09542 
L 1167.331089 -527.460792 
L 1167.394681 -522.826164 
L 1167.459928 -518.191537 
L 1167.526752 -513.556909 
L 1167.594843 -508.922281 
L 1167.663673 -504.287653 
L 1167.732525 -499.653026 
L 1167.80055 -495.018398 
L 1167.866835 -490.38377 
L 1167.930484 -485.749142 
L 1167.990707 -481.114515 
L 1168.046912 -476.479887 
L 1168.09878 -471.845259 
L 1168.146339 -467.210632 
L 1168.190003 -462.576004 
L 1168.230587 -457.941376 
L 1168.269296 -453.306748 
L 1168.307672 -448.672121 
L 1168.347514 -444.037493 
L 1168.390775 -439.402865 
L 1168.439437 -434.768237 
L 1168.495376 -430.13361 
L 1168.560235 -425.498982 
L 1168.635309 -420.864354 
L 1168.721458 -416.229726 
L 1168.819051 -411.595099 
L 1168.927965 -406.960471 
L 1169.047611 -402.325843 
L 1169.177027 -397.691215 
L 1169.314988 -393.056588 
L 1169.460167 -388.42196 
L 1169.611299 -383.787332 
L 1169.767359 -379.152704 
L 1169.927729 -374.518077 
L 1170.092337 -369.883449 
L 1170.261767 -365.248821 
L 1170.437331 -360.614194 
L 1170.62109 -355.979566 
L 1170.815837 -351.344938 
L 1171.025052 -346.71031 
L 1171.252819 -342.075683 
L 1171.503746 -337.441055 
L 1171.782867 -332.806427 
L 1172.095568 -328.171799 
L 1172.447519 -323.537172 
L 1172.844617 -318.902544 
L 1173.292943 -314.267916 
L 1173.798705 -309.633288 
L 1174.368153 -304.998661 
L 1175.007445 -300.364033 
L 1175.722435 -295.729405 
L 1176.518362 -291.094777 
L 1177.399435 -286.46015 
L 1178.368303 -281.825522 
L 1179.42544 -277.190894 
L 1180.568463 -272.556266 
L 1181.791444 -267.921639 
L 1183.084285 -263.287011 
L 1184.432211 -258.652383 
L 1185.815495 -254.017755 
L 1187.209447 -249.383128 
L 1188.584757 -244.7485 
L 1189.908202 -240.113872 
L 1191.143738 -235.479245 
L 1192.253918 -230.844617 
L 1193.201594 -226.209989 
L 1193.951778 -221.575361 
L 1194.473541 -216.940734 
L 1194.741818 -212.306106 
L 1194.738962 -207.671478 
L 1194.45593 -203.03685 
L 1193.892994 -198.402223 
L 1193.059919 -193.767595 
L 1191.97558 -189.132967 
L 1190.667047 -184.498339 
L 1189.168215 -179.863712 
L 1187.518073 -175.229084 
L 1185.758753 -170.594456 
L 1183.933493 -165.959828 
L 1182.084668 -161.325201 
z
" id="m754d2ac16d" style="stroke:#4c4c4c;stroke-width:5;"/>
    </defs>
    <g clip-path="url(#p40b95ab08d)">
     <use style="fill:#5f9e6e;stroke:#4c4c4c;stroke-width:5;" x="0" xlink:href="#m754d2ac16d" y="1296"/>
    </g>
   </g>
   <g id="line2d_8">
    <path clip-path="url(#p40b95ab08d)" d="M 271.63469 1091.390389 
L 271.63469 825.725144 
" style="fill:none;stroke:#4c4c4c;stroke-linecap:round;stroke-width:5;"/>
   </g>
   <g id="line2d_9">
    <path clip-path="url(#p40b95ab08d)" d="M 271.63469 1091.390389 
L 271.63469 970.447106 
" style="fill:none;stroke:#4c4c4c;stroke-linecap:round;stroke-width:15;"/>
   </g>
   <g id="line2d_10">
    <path clip-path="url(#p40b95ab08d)" d="M 718.443558 1091.390389 
L 718.443558 1091.390389 
" style="fill:none;stroke:#4c4c4c;stroke-linecap:round;stroke-width:5;"/>
   </g>
   <g id="line2d_11">
    <path clip-path="url(#p40b95ab08d)" d="M 718.443558 1091.390389 
L 718.443558 1091.390389 
" style="fill:none;stroke:#4c4c4c;stroke-linecap:round;stroke-width:15;"/>
   </g>
   <g id="line2d_12">
    <path clip-path="url(#p40b95ab08d)" d="M 1165.252425 1091.390389 
L 1165.252425 922.47977 
" style="fill:none;stroke:#4c4c4c;stroke-linecap:round;stroke-width:5;"/>
   </g>
   <g id="line2d_13">
    <path clip-path="url(#p40b95ab08d)" d="M 1165.252425 1091.390389 
L 1165.252425 1018.004464 
" style="fill:none;stroke:#4c4c4c;stroke-linecap:round;stroke-width:15;"/>
   </g>
   <g id="line2d_14">
    <path clip-path="url(#p40b95ab08d)" d="M 271.63469 390.657963 
L 271.63469 374.095102 
L 718.443558 374.095102 
L 718.443558 390.657963 
" style="fill:none;stroke:#333333;stroke-linecap:round;stroke-width:1.5;"/>
   </g>
   <g id="line2d_15">
    <path clip-path="url(#p40b95ab08d)" d="M 718.443558 293.431064 
L 718.443558 276.868203 
L 1165.252425 276.868203 
L 1165.252425 293.431064 
" style="fill:none;stroke:#333333;stroke-linecap:round;stroke-width:1.5;"/>
   </g>
   <g id="line2d_16">
    <path clip-path="url(#p40b95ab08d)" d="M 271.63469 191.235647 
L 271.63469 174.672785 
L 1165.252425 174.672785 
L 1165.252425 191.235647 
" style="fill:none;stroke:#333333;stroke-linecap:round;stroke-width:1.5;"/>
   </g>
   <g id="patch_3">
    <path d="M 202.32 1179.94 
L 202.32 96.24 
" style="fill:none;stroke:#cccccc;stroke-linecap:square;stroke-linejoin:miter;stroke-width:2.5;"/>
   </g>
   <g id="patch_4">
    <path d="M 1242 1179.94 
L 1242 96.24 
" style="fill:none;stroke:#cccccc;stroke-linecap:square;stroke-linejoin:miter;stroke-width:2.5;"/>
   </g>
   <g id="patch_5">
    <path d="M 202.32 1179.94 
L 1242 1179.94 
" style="fill:none;stroke:#cccccc;stroke-linecap:square;stroke-linejoin:miter;stroke-width:2.5;"/>
   </g>
   <g id="patch_6">
    <path d="M 202.32 96.24 
L 1242 96.24 
" style="fill:none;stroke:#cccccc;stroke-linecap:square;stroke-linejoin:miter;stroke-width:2.5;"/>
   </g>
   <g id="PathCollection_1">
    <defs>
     <path d="M 0 5 
C 1.326016 5 2.597899 4.473168 3.535534 3.535534 
C 4.473168 2.597899 5 1.326016 5 0 
C 5 -1.326016 4.473168 -2.597899 3.535534 -3.535534 
C 2.597899 -4.473168 1.326016 -5 0 -5 
C -1.326016 -5 -2.597899 -4.473168 -3.535534 -3.535534 
C -4.473168 -2.597899 -5 -1.326016 -5 0 
C -5 1.326016 -4.473168 2.597899 -3.535534 3.535534 
C -2.597899 4.473168 -1.326016 5 0 5 
z
" id="m36d5fc06af" style="stroke:#4c4c4c;stroke-width:2;"/>
    </defs>
    <g clip-path="url(#p40b95ab08d)">
     <use style="fill:#ffffff;stroke:#4c4c4c;stroke-width:2;" x="271.63469" xlink:href="#m36d5fc06af" y="1053.672483"/>
    </g>
   </g>
   <g id="PathCollection_2">
    <g clip-path="url(#p40b95ab08d)">
     <use style="fill:#ffffff;stroke:#4c4c4c;stroke-width:2;" x="718.443558" xlink:href="#m36d5fc06af" y="1091.390389"/>
    </g>
   </g>
   <g id="PathCollection_3">
    <g clip-path="url(#p40b95ab08d)">
     <use style="fill:#ffffff;stroke:#4c4c4c;stroke-width:2;" x="1165.252425" xlink:href="#m36d5fc06af" y="1091.390389"/>
    </g>
   </g>
   <g id="text_12">
    <!-- **** -->
    <g transform="translate(456.117249 363.157602)scale(0.5 -0.5)">
     <defs>
      <path d="M 3.125 58.453125 
L 5.375 65.375 
Q 13.140625 62.640625 16.65625 60.640625 
Q 15.71875 69.484375 15.671875 72.796875 
L 22.75 72.796875 
Q 22.609375 67.96875 21.625 60.6875 
Q 26.65625 63.234375 33.15625 65.375 
L 35.40625 58.453125 
Q 29.203125 56.390625 23.25 55.71875 
Q 26.21875 53.125 31.640625 46.484375 
L 25.78125 42.328125 
Q 22.953125 46.1875 19.09375 52.828125 
Q 15.484375 45.953125 12.75 42.328125 
L 6.984375 46.484375 
Q 12.640625 53.46875 15.09375 55.71875 
Q 8.796875 56.9375 3.125 58.453125 
z
" id="ArialMT-42"/>
     </defs>
     <use xlink:href="#ArialMT-42"/>
     <use x="38.916016" xlink:href="#ArialMT-42"/>
     <use x="77.832031" xlink:href="#ArialMT-42"/>
     <use x="116.748047" xlink:href="#ArialMT-42"/>
    </g>
   </g>
   <g id="text_13">
    <!-- **** -->
    <g transform="translate(902.926116 265.930703)scale(0.5 -0.5)">
     <use xlink:href="#ArialMT-42"/>
     <use x="38.916016" xlink:href="#ArialMT-42"/>
     <use x="77.832031" xlink:href="#ArialMT-42"/>
     <use x="116.748047" xlink:href="#ArialMT-42"/>
    </g>
   </g>
   <g id="text_14">
    <!-- ns -->
    <g transform="translate(692.041214 163.735285)scale(0.5 -0.5)">
     <defs>
      <path d="M 3.078125 15.484375 
L 11.765625 16.84375 
Q 12.5 11.625 15.84375 8.84375 
Q 19.1875 6.0625 25.203125 6.0625 
Q 31.25 6.0625 34.171875 8.515625 
Q 37.109375 10.984375 37.109375 14.3125 
Q 37.109375 17.28125 34.515625 19 
Q 32.71875 20.171875 25.53125 21.96875 
Q 15.875 24.421875 12.140625 26.203125 
Q 8.40625 27.984375 6.46875 31.125 
Q 4.546875 34.28125 4.546875 38.09375 
Q 4.546875 41.546875 6.125 44.5 
Q 7.71875 47.46875 10.453125 49.421875 
Q 12.5 50.921875 16.03125 51.96875 
Q 19.578125 53.03125 23.640625 53.03125 
Q 29.734375 53.03125 34.34375 51.265625 
Q 38.96875 49.515625 41.15625 46.5 
Q 43.359375 43.5 44.1875 38.484375 
L 35.59375 37.3125 
Q 35.015625 41.3125 32.203125 43.546875 
Q 29.390625 45.796875 24.265625 45.796875 
Q 18.21875 45.796875 15.625 43.796875 
Q 13.03125 41.796875 13.03125 39.109375 
Q 13.03125 37.40625 14.109375 36.03125 
Q 15.1875 34.625 17.484375 33.6875 
Q 18.796875 33.203125 25.25 31.453125 
Q 34.578125 28.953125 38.25 27.359375 
Q 41.9375 25.78125 44.03125 22.75 
Q 46.140625 19.734375 46.140625 15.234375 
Q 46.140625 10.84375 43.578125 6.953125 
Q 41.015625 3.078125 36.171875 0.953125 
Q 31.34375 -1.171875 25.25 -1.171875 
Q 15.140625 -1.171875 9.84375 3.03125 
Q 4.546875 7.234375 3.078125 15.484375 
z
" id="ArialMT-115"/>
     </defs>
     <use xlink:href="#ArialMT-110"/>
     <use x="55.615234" xlink:href="#ArialMT-115"/>
    </g>
   </g>
   <g id="text_15">
    <!-- Corynebacterium durum (K.W. p=4.23e-11) -->
    <g transform="translate(245.343594 90.24)scale(0.5 -0.5)">
     <defs>
      <path d="M 58.796875 25.09375 
L 68.265625 22.703125 
Q 65.28125 11.03125 57.546875 4.90625 
Q 49.8125 -1.21875 38.625 -1.21875 
Q 27.046875 -1.21875 19.796875 3.484375 
Q 12.546875 8.203125 8.765625 17.140625 
Q 4.984375 26.078125 4.984375 36.328125 
Q 4.984375 47.515625 9.25 55.828125 
Q 13.53125 64.15625 21.40625 68.46875 
Q 29.296875 72.796875 38.765625 72.796875 
Q 49.515625 72.796875 56.828125 67.328125 
Q 64.15625 61.859375 67.046875 51.953125 
L 57.71875 49.75 
Q 55.21875 57.5625 50.484375 61.125 
Q 45.75 64.703125 38.578125 64.703125 
Q 30.328125 64.703125 24.78125 60.734375 
Q 19.234375 56.78125 16.984375 50.109375 
Q 14.75 43.453125 14.75 36.375 
Q 14.75 27.25 17.40625 20.4375 
Q 20.0625 13.625 25.671875 10.25 
Q 31.296875 6.890625 37.84375 6.890625 
Q 45.796875 6.890625 51.3125 11.46875 
Q 56.84375 16.0625 58.796875 25.09375 
z
" id="ArialMT-67"/>
      <path d="M 6.59375 0 
L 6.59375 51.859375 
L 14.453125 51.859375 
L 14.453125 44.578125 
Q 16.890625 48.390625 20.9375 50.703125 
Q 25 53.03125 30.171875 53.03125 
Q 35.9375 53.03125 39.625 50.640625 
Q 43.3125 48.25 44.828125 43.953125 
Q 50.984375 53.03125 60.84375 53.03125 
Q 68.5625 53.03125 72.703125 48.75 
Q 76.859375 44.484375 76.859375 35.59375 
L 76.859375 0 
L 68.109375 0 
L 68.109375 32.671875 
Q 68.109375 37.9375 67.25 40.25 
Q 66.40625 42.578125 64.15625 43.984375 
Q 61.921875 45.40625 58.890625 45.40625 
Q 53.421875 45.40625 49.796875 41.765625 
Q 46.1875 38.140625 46.1875 30.125 
L 46.1875 0 
L 37.40625 0 
L 37.40625 33.6875 
Q 37.40625 39.546875 35.25 42.46875 
Q 33.109375 45.40625 28.21875 45.40625 
Q 24.515625 45.40625 21.359375 43.453125 
Q 18.21875 41.5 16.796875 37.734375 
Q 15.375 33.984375 15.375 26.90625 
L 15.375 0 
z
" id="ArialMT-109"/>
      <path id="ArialMT-32"/>
      <path d="M 23.390625 -21.046875 
Q 16.109375 -11.859375 11.078125 0.4375 
Q 6.0625 12.75 6.0625 25.921875 
Q 6.0625 37.546875 9.8125 48.1875 
Q 14.203125 60.546875 23.390625 72.796875 
L 29.6875 72.796875 
Q 23.78125 62.640625 21.875 58.296875 
Q 18.890625 51.5625 17.1875 44.234375 
Q 15.09375 35.109375 15.09375 25.875 
Q 15.09375 2.390625 29.6875 -21.046875 
z
" id="ArialMT-40"/>
      <path d="M 7.328125 0 
L 7.328125 71.578125 
L 16.796875 71.578125 
L 16.796875 36.078125 
L 52.34375 71.578125 
L 65.1875 71.578125 
L 35.15625 42.578125 
L 66.5 0 
L 54 0 
L 28.515625 36.234375 
L 16.796875 24.8125 
L 16.796875 0 
z
" id="ArialMT-75"/>
      <path d="M 9.078125 0 
L 9.078125 10.015625 
L 19.09375 10.015625 
L 19.09375 0 
z
" id="ArialMT-46"/>
      <path d="M 20.21875 0 
L 1.21875 71.578125 
L 10.9375 71.578125 
L 21.828125 24.65625 
Q 23.578125 17.28125 24.859375 10.015625 
Q 27.59375 21.484375 28.078125 23.25 
L 41.703125 71.578125 
L 53.125 71.578125 
L 63.375 35.359375 
Q 67.234375 21.875 68.953125 10.015625 
Q 70.3125 16.796875 72.515625 25.59375 
L 83.734375 71.578125 
L 93.265625 71.578125 
L 73.640625 0 
L 64.5 0 
L 49.421875 54.546875 
Q 47.515625 61.375 47.171875 62.9375 
Q 46.046875 58.015625 45.0625 54.546875 
L 29.890625 0 
z
" id="ArialMT-87"/>
      <path d="M 6.59375 -19.875 
L 6.59375 51.859375 
L 14.59375 51.859375 
L 14.59375 45.125 
Q 17.4375 49.078125 21 51.046875 
Q 24.5625 53.03125 29.640625 53.03125 
Q 36.28125 53.03125 41.359375 49.609375 
Q 46.4375 46.1875 49.015625 39.953125 
Q 51.609375 33.734375 51.609375 26.3125 
Q 51.609375 18.359375 48.75 11.984375 
Q 45.90625 5.609375 40.453125 2.21875 
Q 35.015625 -1.171875 29 -1.171875 
Q 24.609375 -1.171875 21.109375 0.6875 
Q 17.625 2.546875 15.375 5.375 
L 15.375 -19.875 
z
M 14.546875 25.640625 
Q 14.546875 15.625 18.59375 10.84375 
Q 22.65625 6.0625 28.421875 6.0625 
Q 34.28125 6.0625 38.453125 11.015625 
Q 42.625 15.96875 42.625 26.375 
Q 42.625 36.28125 38.546875 41.203125 
Q 34.46875 46.140625 28.8125 46.140625 
Q 23.1875 46.140625 18.859375 40.890625 
Q 14.546875 35.640625 14.546875 25.640625 
z
" id="ArialMT-112"/>
      <path d="M 52.828125 42.09375 
L 5.5625 42.09375 
L 5.5625 50.296875 
L 52.828125 50.296875 
z
M 52.828125 20.359375 
L 5.5625 20.359375 
L 5.5625 28.5625 
L 52.828125 28.5625 
z
" id="ArialMT-61"/>
      <path d="M 3.171875 21.484375 
L 3.171875 30.328125 
L 30.171875 30.328125 
L 30.171875 21.484375 
z
" id="ArialMT-45"/>
      <path d="M 12.359375 -21.046875 
L 6.0625 -21.046875 
Q 20.65625 2.390625 20.65625 25.875 
Q 20.65625 35.0625 18.5625 44.09375 
Q 16.890625 51.421875 13.921875 58.15625 
Q 12.015625 62.546875 6.0625 72.796875 
L 12.359375 72.796875 
Q 21.53125 60.546875 25.921875 48.1875 
Q 29.6875 37.546875 29.6875 25.921875 
Q 29.6875 12.75 24.625 0.4375 
Q 19.578125 -11.859375 12.359375 -21.046875 
z
" id="ArialMT-41"/>
     </defs>
     <use xlink:href="#ArialMT-67"/>
     <use x="72.216797" xlink:href="#ArialMT-111"/>
     <use x="127.832031" xlink:href="#ArialMT-114"/>
     <use x="161.132812" xlink:href="#ArialMT-121"/>
     <use x="211.132812" xlink:href="#ArialMT-110"/>
     <use x="266.748047" xlink:href="#ArialMT-101"/>
     <use x="322.363281" xlink:href="#ArialMT-98"/>
     <use x="377.978516" xlink:href="#ArialMT-97"/>
     <use x="433.59375" xlink:href="#ArialMT-99"/>
     <use x="483.59375" xlink:href="#ArialMT-116"/>
     <use x="511.376953" xlink:href="#ArialMT-101"/>
     <use x="566.992188" xlink:href="#ArialMT-114"/>
     <use x="600.292969" xlink:href="#ArialMT-105"/>
     <use x="622.509766" xlink:href="#ArialMT-117"/>
     <use x="678.125" xlink:href="#ArialMT-109"/>
     <use x="761.425781" xlink:href="#ArialMT-32"/>
     <use x="789.208984" xlink:href="#ArialMT-100"/>
     <use x="844.824219" xlink:href="#ArialMT-117"/>
     <use x="900.439453" xlink:href="#ArialMT-114"/>
     <use x="933.740234" xlink:href="#ArialMT-117"/>
     <use x="989.355469" xlink:href="#ArialMT-109"/>
     <use x="1072.65625" xlink:href="#ArialMT-32"/>
     <use x="1100.439453" xlink:href="#ArialMT-40"/>
     <use x="1133.740234" xlink:href="#ArialMT-75"/>
     <use x="1200.439453" xlink:href="#ArialMT-46"/>
     <use x="1228.222656" xlink:href="#ArialMT-87"/>
     <use x="1317.107422" xlink:href="#ArialMT-46"/>
     <use x="1344.890625" xlink:href="#ArialMT-32"/>
     <use x="1372.673828" xlink:href="#ArialMT-112"/>
     <use x="1428.289062" xlink:href="#ArialMT-61"/>
     <use x="1486.6875" xlink:href="#ArialMT-52"/>
     <use x="1542.302734" xlink:href="#ArialMT-46"/>
     <use x="1570.085938" xlink:href="#ArialMT-50"/>
     <use x="1625.701172" xlink:href="#ArialMT-51"/>
     <use x="1681.316406" xlink:href="#ArialMT-101"/>
     <use x="1736.931641" xlink:href="#ArialMT-45"/>
     <use x="1770.232422" xlink:href="#ArialMT-49"/>
     <use x="1818.472656" xlink:href="#ArialMT-49"/>
     <use x="1874.087891" xlink:href="#ArialMT-41"/>
    </g>
   </g>
  </g>
 </g>
 <defs>
  <clipPath id="p40b95ab08d">
   <rect height="1083.7" width="1039.68" x="202.32" y="96.24"/>
  </clipPath>
 </defs>
</svg>
