<?xml version="1.0" encoding="utf-8" standalone="no"?>
<!DOCTYPE svg PUBLIC "-//W3C//DTD SVG 1.1//EN"
  "http://www.w3.org/Graphics/SVG/1.1/DTD/svg11.dtd">
<!-- Created with matplotlib (https://matplotlib.org/) -->
<svg height="1296pt" version="1.1" viewBox="0 0 1296 1296" width="1296pt" xmlns="http://www.w3.org/2000/svg" xmlns:xlink="http://www.w3.org/1999/xlink">
 <metadata>
  <rdf:RDF xmlns:cc="http://creativecommons.org/ns#" xmlns:dc="http://purl.org/dc/elements/1.1/" xmlns:rdf="http://www.w3.org/1999/02/22-rdf-syntax-ns#">
   <cc:Work>
    <dc:type rdf:resource="http://purl.org/dc/dcmitype/StillImage"/>
    <dc:date>2022-06-29T14:05:24.015245</dc:date>
    <dc:format>image/svg+xml</dc:format>
    <dc:creator>
     <cc:Agent>
      <dc:title>Matplotlib v3.3.3, https://matplotlib.org/</dc:title>
     </cc:Agent>
    </dc:creator>
   </cc:Work>
  </rdf:RDF>
 </metadata>
 <defs>
  <style type="text/css">*{stroke-linecap:butt;stroke-linejoin:round;}</style>
 </defs>
 <g id="figure_1">
  <g id="patch_1">
   <path d="M 0 1296 
L 1296 1296 
L 1296 0 
L 0 0 
z
" style="fill:#ffffff;"/>
  </g>
  <g id="axes_1">
   <g id="patch_2">
    <path d="M 230.13 1179.94 
L 1242 1179.94 
L 1242 96.12 
L 230.13 96.12 
z
" style="fill:#ffffff;"/>
   </g>
   <g id="matplotlib.axis_1">
    <g id="xtick_1">
     <g id="text_1">
      <!-- Healthy -->
      <g style="fill:#262626;" transform="translate(336.66801 1231.229063)scale(0.5 -0.5)">
       <defs>
        <path d="M 8.015625 0 
L 8.015625 71.578125 
L 17.484375 71.578125 
L 17.484375 42.1875 
L 54.6875 42.1875 
L 54.6875 71.578125 
L 64.15625 71.578125 
L 64.15625 0 
L 54.6875 0 
L 54.6875 33.734375 
L 17.484375 33.734375 
L 17.484375 0 
z
" id="ArialMT-72"/>
        <path d="M 42.09375 16.703125 
L 51.171875 15.578125 
Q 49.03125 7.625 43.21875 3.21875 
Q 37.40625 -1.171875 28.375 -1.171875 
Q 17 -1.171875 10.328125 5.828125 
Q 3.65625 12.84375 3.65625 25.484375 
Q 3.65625 38.578125 10.390625 45.796875 
Q 17.140625 53.03125 27.875 53.03125 
Q 38.28125 53.03125 44.875 45.953125 
Q 51.46875 38.875 51.46875 26.03125 
Q 51.46875 25.25 51.421875 23.6875 
L 12.75 23.6875 
Q 13.234375 15.140625 17.578125 10.59375 
Q 21.921875 6.0625 28.421875 6.0625 
Q 33.25 6.0625 36.671875 8.59375 
Q 40.09375 11.140625 42.09375 16.703125 
z
M 13.234375 30.90625 
L 42.1875 30.90625 
Q 41.609375 37.453125 38.875 40.71875 
Q 34.671875 45.796875 27.984375 45.796875 
Q 21.921875 45.796875 17.796875 41.75 
Q 13.671875 37.703125 13.234375 30.90625 
z
" id="ArialMT-101"/>
        <path d="M 40.4375 6.390625 
Q 35.546875 2.25 31.03125 0.53125 
Q 26.515625 -1.171875 21.34375 -1.171875 
Q 12.796875 -1.171875 8.203125 3 
Q 3.609375 7.171875 3.609375 13.671875 
Q 3.609375 17.484375 5.34375 20.625 
Q 7.078125 23.78125 9.890625 25.6875 
Q 12.703125 27.59375 16.21875 28.5625 
Q 18.796875 29.25 24.03125 29.890625 
Q 34.671875 31.15625 39.703125 32.90625 
Q 39.75 34.71875 39.75 35.203125 
Q 39.75 40.578125 37.25 42.78125 
Q 33.890625 45.75 27.25 45.75 
Q 21.046875 45.75 18.09375 43.578125 
Q 15.140625 41.40625 13.71875 35.890625 
L 5.125 37.0625 
Q 6.296875 42.578125 8.984375 45.96875 
Q 11.671875 49.359375 16.75 51.1875 
Q 21.828125 53.03125 28.515625 53.03125 
Q 35.15625 53.03125 39.296875 51.46875 
Q 43.453125 49.90625 45.40625 47.53125 
Q 47.359375 45.171875 48.140625 41.546875 
Q 48.578125 39.3125 48.578125 33.453125 
L 48.578125 21.734375 
Q 48.578125 9.46875 49.140625 6.21875 
Q 49.703125 2.984375 51.375 0 
L 42.1875 0 
Q 40.828125 2.734375 40.4375 6.390625 
z
M 39.703125 26.03125 
Q 34.90625 24.078125 25.34375 22.703125 
Q 19.921875 21.921875 17.671875 20.9375 
Q 15.4375 19.96875 14.203125 18.09375 
Q 12.984375 16.21875 12.984375 13.921875 
Q 12.984375 10.40625 15.640625 8.0625 
Q 18.3125 5.71875 23.4375 5.71875 
Q 28.515625 5.71875 32.46875 7.9375 
Q 36.421875 10.15625 38.28125 14.015625 
Q 39.703125 17 39.703125 22.796875 
z
" id="ArialMT-97"/>
        <path d="M 6.390625 0 
L 6.390625 71.578125 
L 15.1875 71.578125 
L 15.1875 0 
z
" id="ArialMT-108"/>
        <path d="M 25.78125 7.859375 
L 27.046875 0.09375 
Q 23.34375 -0.6875 20.40625 -0.6875 
Q 15.625 -0.6875 12.984375 0.828125 
Q 10.359375 2.34375 9.28125 4.8125 
Q 8.203125 7.28125 8.203125 15.1875 
L 8.203125 45.015625 
L 1.765625 45.015625 
L 1.765625 51.859375 
L 8.203125 51.859375 
L 8.203125 64.703125 
L 16.9375 69.96875 
L 16.9375 51.859375 
L 25.78125 51.859375 
L 25.78125 45.015625 
L 16.9375 45.015625 
L 16.9375 14.703125 
Q 16.9375 10.9375 17.40625 9.859375 
Q 17.875 8.796875 18.921875 8.15625 
Q 19.96875 7.515625 21.921875 7.515625 
Q 23.390625 7.515625 25.78125 7.859375 
z
" id="ArialMT-116"/>
        <path d="M 6.59375 0 
L 6.59375 71.578125 
L 15.375 71.578125 
L 15.375 45.90625 
Q 21.53125 53.03125 30.90625 53.03125 
Q 36.671875 53.03125 40.921875 50.75 
Q 45.171875 48.484375 47 44.484375 
Q 48.828125 40.484375 48.828125 32.859375 
L 48.828125 0 
L 40.046875 0 
L 40.046875 32.859375 
Q 40.046875 39.453125 37.1875 42.453125 
Q 34.328125 45.453125 29.109375 45.453125 
Q 25.203125 45.453125 21.75 43.421875 
Q 18.3125 41.40625 16.84375 37.9375 
Q 15.375 34.46875 15.375 28.375 
L 15.375 0 
z
" id="ArialMT-104"/>
        <path d="M 6.203125 -19.96875 
L 5.21875 -11.71875 
Q 8.109375 -12.5 10.25 -12.5 
Q 13.1875 -12.5 14.9375 -11.515625 
Q 16.703125 -10.546875 17.828125 -8.796875 
Q 18.65625 -7.46875 20.515625 -2.25 
Q 20.75 -1.515625 21.296875 -0.09375 
L 1.609375 51.859375 
L 11.078125 51.859375 
L 21.875 21.828125 
Q 23.96875 16.109375 25.640625 9.8125 
Q 27.15625 15.875 29.25 21.625 
L 40.328125 51.859375 
L 49.125 51.859375 
L 29.390625 -0.875 
Q 26.21875 -9.421875 24.46875 -12.640625 
Q 22.125 -17 19.09375 -19.015625 
Q 16.0625 -21.046875 11.859375 -21.046875 
Q 9.328125 -21.046875 6.203125 -19.96875 
z
" id="ArialMT-121"/>
       </defs>
       <use xlink:href="#ArialMT-72"/>
       <use x="72.216797" xlink:href="#ArialMT-101"/>
       <use x="127.832031" xlink:href="#ArialMT-97"/>
       <use x="183.447266" xlink:href="#ArialMT-108"/>
       <use x="205.664062" xlink:href="#ArialMT-116"/>
       <use x="233.447266" xlink:href="#ArialMT-104"/>
       <use x="289.0625" xlink:href="#ArialMT-121"/>
      </g>
     </g>
    </g>
    <g id="xtick_2">
     <g id="text_2">
      <!-- Moderate+Severe -->
      <g style="fill:#262626;" transform="translate(585.27976 1231.229063)scale(0.5 -0.5)">
       <defs>
        <path d="M 7.421875 0 
L 7.421875 71.578125 
L 21.6875 71.578125 
L 38.625 20.90625 
Q 40.96875 13.8125 42.046875 10.296875 
Q 43.265625 14.203125 45.84375 21.78125 
L 62.984375 71.578125 
L 75.734375 71.578125 
L 75.734375 0 
L 66.609375 0 
L 66.609375 59.90625 
L 45.796875 0 
L 37.25 0 
L 16.546875 60.9375 
L 16.546875 0 
z
" id="ArialMT-77"/>
        <path d="M 3.328125 25.921875 
Q 3.328125 40.328125 11.328125 47.265625 
Q 18.015625 53.03125 27.640625 53.03125 
Q 38.328125 53.03125 45.109375 46.015625 
Q 51.90625 39.015625 51.90625 26.65625 
Q 51.90625 16.65625 48.90625 10.90625 
Q 45.90625 5.171875 40.15625 2 
Q 34.421875 -1.171875 27.640625 -1.171875 
Q 16.75 -1.171875 10.03125 5.8125 
Q 3.328125 12.796875 3.328125 25.921875 
z
M 12.359375 25.921875 
Q 12.359375 15.96875 16.703125 11.015625 
Q 21.046875 6.0625 27.640625 6.0625 
Q 34.1875 6.0625 38.53125 11.03125 
Q 42.875 16.015625 42.875 26.21875 
Q 42.875 35.84375 38.5 40.796875 
Q 34.125 45.75 27.640625 45.75 
Q 21.046875 45.75 16.703125 40.8125 
Q 12.359375 35.890625 12.359375 25.921875 
z
" id="ArialMT-111"/>
        <path d="M 40.234375 0 
L 40.234375 6.546875 
Q 35.296875 -1.171875 25.734375 -1.171875 
Q 19.53125 -1.171875 14.328125 2.25 
Q 9.125 5.671875 6.265625 11.796875 
Q 3.421875 17.921875 3.421875 25.875 
Q 3.421875 33.640625 6 39.96875 
Q 8.59375 46.296875 13.765625 49.65625 
Q 18.953125 53.03125 25.34375 53.03125 
Q 30.03125 53.03125 33.6875 51.046875 
Q 37.359375 49.078125 39.65625 45.90625 
L 39.65625 71.578125 
L 48.390625 71.578125 
L 48.390625 0 
z
M 12.453125 25.875 
Q 12.453125 15.921875 16.640625 10.984375 
Q 20.84375 6.0625 26.5625 6.0625 
Q 32.328125 6.0625 36.34375 10.765625 
Q 40.375 15.484375 40.375 25.140625 
Q 40.375 35.796875 36.265625 40.765625 
Q 32.171875 45.75 26.171875 45.75 
Q 20.3125 45.75 16.375 40.96875 
Q 12.453125 36.1875 12.453125 25.875 
z
" id="ArialMT-100"/>
        <path d="M 6.5 0 
L 6.5 51.859375 
L 14.40625 51.859375 
L 14.40625 44 
Q 17.4375 49.515625 20 51.265625 
Q 22.5625 53.03125 25.640625 53.03125 
Q 30.078125 53.03125 34.671875 50.203125 
L 31.640625 42.046875 
Q 28.421875 43.953125 25.203125 43.953125 
Q 22.3125 43.953125 20.015625 42.21875 
Q 17.71875 40.484375 16.75 37.40625 
Q 15.28125 32.71875 15.28125 27.15625 
L 15.28125 0 
z
" id="ArialMT-114"/>
        <path d="M 25.046875 11.578125 
L 25.046875 31.203125 
L 5.5625 31.203125 
L 5.5625 39.40625 
L 25.046875 39.40625 
L 25.046875 58.890625 
L 33.34375 58.890625 
L 33.34375 39.40625 
L 52.828125 39.40625 
L 52.828125 31.203125 
L 33.34375 31.203125 
L 33.34375 11.578125 
z
" id="ArialMT-43"/>
        <path d="M 4.5 23 
L 13.421875 23.78125 
Q 14.0625 18.40625 16.375 14.96875 
Q 18.703125 11.53125 23.578125 9.40625 
Q 28.46875 7.28125 34.578125 7.28125 
Q 39.984375 7.28125 44.140625 8.890625 
Q 48.296875 10.5 50.3125 13.296875 
Q 52.34375 16.109375 52.34375 19.4375 
Q 52.34375 22.796875 50.390625 25.3125 
Q 48.4375 27.828125 43.953125 29.546875 
Q 41.0625 30.671875 31.203125 33.03125 
Q 21.34375 35.40625 17.390625 37.5 
Q 12.25 40.1875 9.734375 44.15625 
Q 7.234375 48.140625 7.234375 53.078125 
Q 7.234375 58.5 10.296875 63.203125 
Q 13.375 67.921875 19.28125 70.359375 
Q 25.203125 72.796875 32.421875 72.796875 
Q 40.375 72.796875 46.453125 70.234375 
Q 52.546875 67.671875 55.8125 62.6875 
Q 59.078125 57.71875 59.328125 51.421875 
L 50.25 50.734375 
Q 49.515625 57.515625 45.28125 60.984375 
Q 41.0625 64.453125 32.8125 64.453125 
Q 24.21875 64.453125 20.28125 61.296875 
Q 16.359375 58.15625 16.359375 53.71875 
Q 16.359375 49.859375 19.140625 47.359375 
Q 21.875 44.875 33.421875 42.265625 
Q 44.96875 39.65625 49.265625 37.703125 
Q 55.515625 34.8125 58.484375 30.390625 
Q 61.46875 25.984375 61.46875 20.21875 
Q 61.46875 14.5 58.203125 9.4375 
Q 54.9375 4.390625 48.796875 1.578125 
Q 42.671875 -1.21875 35.015625 -1.21875 
Q 25.296875 -1.21875 18.71875 1.609375 
Q 12.15625 4.4375 8.421875 10.125 
Q 4.6875 15.828125 4.5 23 
z
" id="ArialMT-83"/>
        <path d="M 21 0 
L 1.265625 51.859375 
L 10.546875 51.859375 
L 21.6875 20.796875 
Q 23.484375 15.765625 25 10.359375 
Q 26.171875 14.453125 28.265625 20.21875 
L 39.796875 51.859375 
L 48.828125 51.859375 
L 29.203125 0 
z
" id="ArialMT-118"/>
       </defs>
       <use xlink:href="#ArialMT-77"/>
       <use x="83.300781" xlink:href="#ArialMT-111"/>
       <use x="138.916016" xlink:href="#ArialMT-100"/>
       <use x="194.53125" xlink:href="#ArialMT-101"/>
       <use x="250.146484" xlink:href="#ArialMT-114"/>
       <use x="283.447266" xlink:href="#ArialMT-97"/>
       <use x="339.0625" xlink:href="#ArialMT-116"/>
       <use x="366.845703" xlink:href="#ArialMT-101"/>
       <use x="422.460938" xlink:href="#ArialMT-43"/>
       <use x="480.859375" xlink:href="#ArialMT-83"/>
       <use x="547.558594" xlink:href="#ArialMT-101"/>
       <use x="603.173828" xlink:href="#ArialMT-118"/>
       <use x="653.173828" xlink:href="#ArialMT-101"/>
       <use x="708.789062" xlink:href="#ArialMT-114"/>
       <use x="742.089844" xlink:href="#ArialMT-101"/>
      </g>
     </g>
    </g>
    <g id="xtick_3">
     <g id="text_3">
      <!-- Slight -->
      <g style="fill:#262626;" transform="translate(1085.42276 1231.838438)scale(0.5 -0.5)">
       <defs>
        <path d="M 6.640625 61.46875 
L 6.640625 71.578125 
L 15.4375 71.578125 
L 15.4375 61.46875 
z
M 6.640625 0 
L 6.640625 51.859375 
L 15.4375 51.859375 
L 15.4375 0 
z
" id="ArialMT-105"/>
        <path d="M 4.984375 -4.296875 
L 13.53125 -5.5625 
Q 14.0625 -9.515625 16.5 -11.328125 
Q 19.78125 -13.765625 25.4375 -13.765625 
Q 31.546875 -13.765625 34.859375 -11.328125 
Q 38.1875 -8.890625 39.359375 -4.5 
Q 40.046875 -1.8125 39.984375 6.78125 
Q 34.234375 0 25.640625 0 
Q 14.9375 0 9.078125 7.71875 
Q 3.21875 15.4375 3.21875 26.21875 
Q 3.21875 33.640625 5.90625 39.90625 
Q 8.59375 46.1875 13.6875 49.609375 
Q 18.796875 53.03125 25.6875 53.03125 
Q 34.859375 53.03125 40.828125 45.609375 
L 40.828125 51.859375 
L 48.921875 51.859375 
L 48.921875 7.03125 
Q 48.921875 -5.078125 46.453125 -10.125 
Q 44 -15.1875 38.640625 -18.109375 
Q 33.296875 -21.046875 25.484375 -21.046875 
Q 16.21875 -21.046875 10.5 -16.875 
Q 4.78125 -12.703125 4.984375 -4.296875 
z
M 12.25 26.859375 
Q 12.25 16.65625 16.296875 11.96875 
Q 20.359375 7.28125 26.46875 7.28125 
Q 32.515625 7.28125 36.609375 11.9375 
Q 40.71875 16.609375 40.71875 26.5625 
Q 40.71875 36.078125 36.5 40.90625 
Q 32.28125 45.75 26.3125 45.75 
Q 20.453125 45.75 16.34375 40.984375 
Q 12.25 36.234375 12.25 26.859375 
z
" id="ArialMT-103"/>
       </defs>
       <use xlink:href="#ArialMT-83"/>
       <use x="66.699219" xlink:href="#ArialMT-108"/>
       <use x="88.916016" xlink:href="#ArialMT-105"/>
       <use x="111.132812" xlink:href="#ArialMT-103"/>
       <use x="166.748047" xlink:href="#ArialMT-104"/>
       <use x="222.363281" xlink:href="#ArialMT-116"/>
      </g>
     </g>
    </g>
   </g>
   <g id="matplotlib.axis_2">
    <g id="ytick_1">
     <g id="line2d_1">
      <path clip-path="url(#p37499bf98d)" d="M 230.13 1092.706774 
L 1242 1092.706774 
" style="fill:none;stroke:#cccccc;stroke-linecap:round;stroke-width:2;"/>
     </g>
     <g id="text_4">
      <!-- 0 -->
      <g style="fill:#262626;" transform="translate(186.825312 1110.601305)scale(0.5 -0.5)">
       <defs>
        <path d="M 4.15625 35.296875 
Q 4.15625 48 6.765625 55.734375 
Q 9.375 63.484375 14.515625 67.671875 
Q 19.671875 71.875 27.484375 71.875 
Q 33.25 71.875 37.59375 69.546875 
Q 41.9375 67.234375 44.765625 62.859375 
Q 47.609375 58.5 49.21875 52.21875 
Q 50.828125 45.953125 50.828125 35.296875 
Q 50.828125 22.703125 48.234375 14.96875 
Q 45.65625 7.234375 40.5 3 
Q 35.359375 -1.21875 27.484375 -1.21875 
Q 17.140625 -1.21875 11.234375 6.203125 
Q 4.15625 15.140625 4.15625 35.296875 
z
M 13.1875 35.296875 
Q 13.1875 17.671875 17.3125 11.828125 
Q 21.4375 6 27.484375 6 
Q 33.546875 6 37.671875 11.859375 
Q 41.796875 17.71875 41.796875 35.296875 
Q 41.796875 52.984375 37.671875 58.78125 
Q 33.546875 64.59375 27.390625 64.59375 
Q 21.34375 64.59375 17.71875 59.46875 
Q 13.1875 52.9375 13.1875 35.296875 
z
" id="ArialMT-48"/>
       </defs>
       <use xlink:href="#ArialMT-48"/>
      </g>
     </g>
    </g>
    <g id="ytick_2">
     <g id="line2d_2">
      <path clip-path="url(#p37499bf98d)" d="M 230.13 923.741219 
L 1242 923.741219 
" style="fill:none;stroke:#cccccc;stroke-linecap:round;stroke-width:2;"/>
     </g>
     <g id="text_5">
      <!-- 500 -->
      <g style="fill:#262626;" transform="translate(131.215937 941.63575)scale(0.5 -0.5)">
       <defs>
        <path d="M 4.15625 18.75 
L 13.375 19.53125 
Q 14.40625 12.796875 18.140625 9.390625 
Q 21.875 6 27.15625 6 
Q 33.5 6 37.890625 10.78125 
Q 42.28125 15.578125 42.28125 23.484375 
Q 42.28125 31 38.0625 35.34375 
Q 33.84375 39.703125 27 39.703125 
Q 22.75 39.703125 19.328125 37.765625 
Q 15.921875 35.84375 13.96875 32.765625 
L 5.71875 33.84375 
L 12.640625 70.609375 
L 48.25 70.609375 
L 48.25 62.203125 
L 19.671875 62.203125 
L 15.828125 42.96875 
Q 22.265625 47.46875 29.34375 47.46875 
Q 38.71875 47.46875 45.15625 40.96875 
Q 51.609375 34.46875 51.609375 24.265625 
Q 51.609375 14.546875 45.953125 7.46875 
Q 39.0625 -1.21875 27.15625 -1.21875 
Q 17.390625 -1.21875 11.203125 4.25 
Q 5.03125 9.71875 4.15625 18.75 
z
" id="ArialMT-53"/>
       </defs>
       <use xlink:href="#ArialMT-53"/>
       <use x="55.615234" xlink:href="#ArialMT-48"/>
       <use x="111.230469" xlink:href="#ArialMT-48"/>
      </g>
     </g>
    </g>
    <g id="ytick_3">
     <g id="line2d_3">
      <path clip-path="url(#p37499bf98d)" d="M 230.13 754.775664 
L 1242 754.775664 
" style="fill:none;stroke:#cccccc;stroke-linecap:round;stroke-width:2;"/>
     </g>
     <g id="text_6">
      <!-- 1000 -->
      <g style="fill:#262626;" transform="translate(103.41125 772.670195)scale(0.5 -0.5)">
       <defs>
        <path d="M 37.25 0 
L 28.46875 0 
L 28.46875 56 
Q 25.296875 52.984375 20.140625 49.953125 
Q 14.984375 46.921875 10.890625 45.40625 
L 10.890625 53.90625 
Q 18.265625 57.375 23.78125 62.296875 
Q 29.296875 67.234375 31.59375 71.875 
L 37.25 71.875 
z
" id="ArialMT-49"/>
       </defs>
       <use xlink:href="#ArialMT-49"/>
       <use x="55.615234" xlink:href="#ArialMT-48"/>
       <use x="111.230469" xlink:href="#ArialMT-48"/>
       <use x="166.845703" xlink:href="#ArialMT-48"/>
      </g>
     </g>
    </g>
    <g id="ytick_4">
     <g id="line2d_4">
      <path clip-path="url(#p37499bf98d)" d="M 230.13 585.810109 
L 1242 585.810109 
" style="fill:none;stroke:#cccccc;stroke-linecap:round;stroke-width:2;"/>
     </g>
     <g id="text_7">
      <!-- 1500 -->
      <g style="fill:#262626;" transform="translate(103.41125 603.70464)scale(0.5 -0.5)">
       <use xlink:href="#ArialMT-49"/>
       <use x="55.615234" xlink:href="#ArialMT-53"/>
       <use x="111.230469" xlink:href="#ArialMT-48"/>
       <use x="166.845703" xlink:href="#ArialMT-48"/>
      </g>
     </g>
    </g>
    <g id="ytick_5">
     <g id="line2d_5">
      <path clip-path="url(#p37499bf98d)" d="M 230.13 416.844554 
L 1242 416.844554 
" style="fill:none;stroke:#cccccc;stroke-linecap:round;stroke-width:2;"/>
     </g>
     <g id="text_8">
      <!-- 2000 -->
      <g style="fill:#262626;" transform="translate(103.41125 434.739085)scale(0.5 -0.5)">
       <defs>
        <path d="M 50.34375 8.453125 
L 50.34375 0 
L 3.03125 0 
Q 2.9375 3.171875 4.046875 6.109375 
Q 5.859375 10.9375 9.828125 15.625 
Q 13.8125 20.3125 21.34375 26.46875 
Q 33.015625 36.03125 37.109375 41.625 
Q 41.21875 47.21875 41.21875 52.203125 
Q 41.21875 57.421875 37.46875 61 
Q 33.734375 64.59375 27.734375 64.59375 
Q 21.390625 64.59375 17.578125 60.78125 
Q 13.765625 56.984375 13.71875 50.25 
L 4.6875 51.171875 
Q 5.609375 61.28125 11.65625 66.578125 
Q 17.71875 71.875 27.9375 71.875 
Q 38.234375 71.875 44.234375 66.15625 
Q 50.25 60.453125 50.25 52 
Q 50.25 47.703125 48.484375 43.546875 
Q 46.734375 39.40625 42.65625 34.8125 
Q 38.578125 30.21875 29.109375 22.21875 
Q 21.1875 15.578125 18.9375 13.203125 
Q 16.703125 10.84375 15.234375 8.453125 
z
" id="ArialMT-50"/>
       </defs>
       <use xlink:href="#ArialMT-50"/>
       <use x="55.615234" xlink:href="#ArialMT-48"/>
       <use x="111.230469" xlink:href="#ArialMT-48"/>
       <use x="166.845703" xlink:href="#ArialMT-48"/>
      </g>
     </g>
    </g>
    <g id="ytick_6">
     <g id="line2d_6">
      <path clip-path="url(#p37499bf98d)" d="M 230.13 247.878999 
L 1242 247.878999 
" style="fill:none;stroke:#cccccc;stroke-linecap:round;stroke-width:2;"/>
     </g>
     <g id="text_9">
      <!-- 2500 -->
      <g style="fill:#262626;" transform="translate(103.41125 265.77353)scale(0.5 -0.5)">
       <use xlink:href="#ArialMT-50"/>
       <use x="55.615234" xlink:href="#ArialMT-53"/>
       <use x="111.230469" xlink:href="#ArialMT-48"/>
       <use x="166.845703" xlink:href="#ArialMT-48"/>
      </g>
     </g>
    </g>
    <g id="text_10">
     <!-- Abundance -->
     <g style="fill:#262626;" transform="translate(89.47375 764.522187)rotate(-90)scale(0.5 -0.5)">
      <defs>
       <path d="M -0.140625 0 
L 27.34375 71.578125 
L 37.546875 71.578125 
L 66.84375 0 
L 56.0625 0 
L 47.703125 21.6875 
L 17.78125 21.6875 
L 9.90625 0 
z
M 20.515625 29.390625 
L 44.78125 29.390625 
L 37.3125 49.21875 
Q 33.890625 58.25 32.234375 64.0625 
Q 30.859375 57.171875 28.375 50.390625 
z
" id="ArialMT-65"/>
       <path d="M 14.703125 0 
L 6.546875 0 
L 6.546875 71.578125 
L 15.328125 71.578125 
L 15.328125 46.046875 
Q 20.90625 53.03125 29.546875 53.03125 
Q 34.328125 53.03125 38.59375 51.09375 
Q 42.875 49.171875 45.625 45.671875 
Q 48.390625 42.1875 49.953125 37.25 
Q 51.515625 32.328125 51.515625 26.703125 
Q 51.515625 13.375 44.921875 6.09375 
Q 38.328125 -1.171875 29.109375 -1.171875 
Q 19.921875 -1.171875 14.703125 6.5 
z
M 14.59375 26.3125 
Q 14.59375 17 17.140625 12.84375 
Q 21.296875 6.0625 28.375 6.0625 
Q 34.125 6.0625 38.328125 11.0625 
Q 42.53125 16.0625 42.53125 25.984375 
Q 42.53125 36.140625 38.5 40.96875 
Q 34.46875 45.796875 28.765625 45.796875 
Q 23 45.796875 18.796875 40.796875 
Q 14.59375 35.796875 14.59375 26.3125 
z
" id="ArialMT-98"/>
       <path d="M 40.578125 0 
L 40.578125 7.625 
Q 34.515625 -1.171875 24.125 -1.171875 
Q 19.53125 -1.171875 15.546875 0.578125 
Q 11.578125 2.34375 9.640625 5 
Q 7.71875 7.671875 6.9375 11.53125 
Q 6.390625 14.109375 6.390625 19.734375 
L 6.390625 51.859375 
L 15.1875 51.859375 
L 15.1875 23.09375 
Q 15.1875 16.21875 15.71875 13.8125 
Q 16.546875 10.359375 19.234375 8.375 
Q 21.921875 6.390625 25.875 6.390625 
Q 29.828125 6.390625 33.296875 8.421875 
Q 36.765625 10.453125 38.203125 13.9375 
Q 39.65625 17.4375 39.65625 24.078125 
L 39.65625 51.859375 
L 48.4375 51.859375 
L 48.4375 0 
z
" id="ArialMT-117"/>
       <path d="M 6.59375 0 
L 6.59375 51.859375 
L 14.5 51.859375 
L 14.5 44.484375 
Q 20.21875 53.03125 31 53.03125 
Q 35.6875 53.03125 39.625 51.34375 
Q 43.5625 49.65625 45.515625 46.921875 
Q 47.46875 44.1875 48.25 40.4375 
Q 48.734375 37.984375 48.734375 31.890625 
L 48.734375 0 
L 39.9375 0 
L 39.9375 31.546875 
Q 39.9375 36.921875 38.90625 39.578125 
Q 37.890625 42.234375 35.28125 43.8125 
Q 32.671875 45.40625 29.15625 45.40625 
Q 23.53125 45.40625 19.453125 41.84375 
Q 15.375 38.28125 15.375 28.328125 
L 15.375 0 
z
" id="ArialMT-110"/>
       <path d="M 40.4375 19 
L 49.078125 17.875 
Q 47.65625 8.9375 41.8125 3.875 
Q 35.984375 -1.171875 27.484375 -1.171875 
Q 16.84375 -1.171875 10.375 5.78125 
Q 3.90625 12.75 3.90625 25.734375 
Q 3.90625 34.125 6.6875 40.421875 
Q 9.46875 46.734375 15.15625 49.875 
Q 20.84375 53.03125 27.546875 53.03125 
Q 35.984375 53.03125 41.359375 48.75 
Q 46.734375 44.484375 48.25 36.625 
L 39.703125 35.296875 
Q 38.484375 40.53125 35.375 43.15625 
Q 32.28125 45.796875 27.875 45.796875 
Q 21.234375 45.796875 17.078125 41.03125 
Q 12.9375 36.28125 12.9375 25.984375 
Q 12.9375 15.53125 16.9375 10.796875 
Q 20.953125 6.0625 27.390625 6.0625 
Q 32.5625 6.0625 36.03125 9.234375 
Q 39.5 12.40625 40.4375 19 
z
" id="ArialMT-99"/>
      </defs>
      <use xlink:href="#ArialMT-65"/>
      <use x="66.699219" xlink:href="#ArialMT-98"/>
      <use x="122.314453" xlink:href="#ArialMT-117"/>
      <use x="177.929688" xlink:href="#ArialMT-110"/>
      <use x="233.544922" xlink:href="#ArialMT-100"/>
      <use x="289.160156" xlink:href="#ArialMT-97"/>
      <use x="344.775391" xlink:href="#ArialMT-110"/>
      <use x="400.390625" xlink:href="#ArialMT-99"/>
      <use x="450.390625" xlink:href="#ArialMT-101"/>
     </g>
    </g>
   </g>
   <g id="PolyCollection_1">
    <defs>
     <path d="M 502.36417 -187.642859 
L 340.495287 -187.642859 
L 326.189782 -190.280171 
L 312.340392 -192.917483 
L 299.770025 -195.554795 
L 289.280229 -198.192107 
L 281.558592 -200.829419 
L 277.095385 -203.466731 
L 276.124091 -206.104043 
L 278.596443 -208.741355 
L 284.196088 -211.378667 
L 292.387603 -214.015979 
L 302.491049 -216.653291 
L 313.76817 -219.290603 
L 325.505528 -221.927915 
L 337.082175 -224.565227 
L 348.014057 -227.202539 
L 357.972766 -229.839851 
L 366.781231 -232.477163 
L 374.392261 -235.114475 
L 380.857387 -237.751787 
L 386.292974 -240.389099 
L 390.849039 -243.026411 
L 394.68402 -245.663723 
L 397.946725 -248.301035 
L 400.765202 -250.938347 
L 403.241395 -253.575659 
L 405.450199 -256.212971 
L 407.441601 -258.850283 
L 409.244813 -261.487595 
L 410.873536 -264.124907 
L 412.331616 -266.762219 
L 413.618446 -269.399531 
L 414.733501 -272.036843 
L 415.67956 -274.674155 
L 416.464339 -277.311467 
L 417.100519 -279.948779 
L 417.604474 -282.586091 
L 417.99417 -285.223403 
L 418.286876 -287.860715 
L 418.497284 -290.498027 
L 418.636491 -293.135339 
L 418.712036 -295.772651 
L 418.728954 -298.409963 
L 418.691513 -301.047275 
L 418.605192 -303.684587 
L 418.478381 -306.321899 
L 418.323384 -308.959211 
L 418.156453 -311.596523 
L 417.996806 -314.233835 
L 417.864797 -316.871147 
L 417.77959 -319.508459 
L 417.756759 -322.145771 
L 417.806263 -324.783083 
L 417.93115 -327.420395 
L 418.127177 -330.057707 
L 418.383372 -332.695019 
L 418.683375 -335.332332 
L 419.007286 -337.969644 
L 419.333684 -340.606956 
L 419.641502 -343.244268 
L 419.911541 -345.88158 
L 420.127519 -348.518892 
L 420.276679 -351.156204 
L 420.350091 -353.793516 
L 420.342809 -356.430828 
L 420.25403 -359.06814 
L 420.087343 -361.705452 
L 419.851015 -364.342764 
L 419.558191 -366.980076 
L 419.226788 -369.617388 
L 418.878876 -372.2547 
L 418.539391 -374.892012 
L 418.234181 -377.529324 
L 417.987545 -380.166636 
L 417.81957 -382.803948 
L 417.743705 -385.44126 
L 417.764987 -388.078572 
L 417.87927 -390.715884 
L 418.073632 -393.353196 
L 418.327923 -395.990508 
L 418.617216 -398.62782 
L 418.914791 -401.265132 
L 419.195196 -403.902444 
L 419.436982 -406.539756 
L 419.624778 -409.177068 
L 419.75052 -411.81438 
L 419.813759 -414.451692 
L 419.821115 -417.089004 
L 419.784996 -419.726316 
L 419.721775 -422.363628 
L 419.649666 -425.00094 
L 419.586518 -427.638252 
L 419.547803 -430.275564 
L 419.545011 -432.912876 
L 419.584639 -435.550188 
L 419.667871 -438.1875 
L 419.79096 -440.824812 
L 419.946201 -443.462124 
L 420.123308 -446.099436 
L 420.310946 -448.736748 
L 422.54851 -448.736748 
L 422.54851 -448.736748 
L 422.736149 -446.099436 
L 422.913255 -443.462124 
L 423.068497 -440.824812 
L 423.191586 -438.1875 
L 423.274818 -435.550188 
L 423.314446 -432.912876 
L 423.311654 -430.275564 
L 423.272939 -427.638252 
L 423.209791 -425.00094 
L 423.137681 -422.363628 
L 423.074461 -419.726316 
L 423.038342 -417.089004 
L 423.045698 -414.451692 
L 423.108937 -411.81438 
L 423.234678 -409.177068 
L 423.422475 -406.539756 
L 423.664261 -403.902444 
L 423.944666 -401.265132 
L 424.242241 -398.62782 
L 424.531534 -395.990508 
L 424.785824 -393.353196 
L 424.980186 -390.715884 
L 425.09447 -388.078572 
L 425.115752 -385.44126 
L 425.039887 -382.803948 
L 424.871912 -380.166636 
L 424.625276 -377.529324 
L 424.320066 -374.892012 
L 423.980581 -372.2547 
L 423.632669 -369.617388 
L 423.301266 -366.980076 
L 423.008442 -364.342764 
L 422.772114 -361.705452 
L 422.605427 -359.06814 
L 422.516648 -356.430828 
L 422.509366 -353.793516 
L 422.582778 -351.156204 
L 422.731938 -348.518892 
L 422.947915 -345.88158 
L 423.217955 -343.244268 
L 423.525773 -340.606956 
L 423.852171 -337.969644 
L 424.176082 -335.332332 
L 424.476085 -332.695019 
L 424.732279 -330.057707 
L 424.928307 -327.420395 
L 425.053194 -324.783083 
L 425.102698 -322.145771 
L 425.079867 -319.508459 
L 424.99466 -316.871147 
L 424.862651 -314.233835 
L 424.703004 -311.596523 
L 424.536073 -308.959211 
L 424.381076 -306.321899 
L 424.254265 -303.684587 
L 424.167944 -301.047275 
L 424.130503 -298.409963 
L 424.147421 -295.772651 
L 424.222966 -293.135339 
L 424.362172 -290.498027 
L 424.572581 -287.860715 
L 424.865287 -285.223403 
L 425.254982 -282.586091 
L 425.758938 -279.948779 
L 426.395118 -277.311467 
L 427.179896 -274.674155 
L 428.125956 -272.036843 
L 429.241011 -269.399531 
L 430.527841 -266.762219 
L 431.985921 -264.124907 
L 433.614643 -261.487595 
L 435.417855 -258.850283 
L 437.409258 -256.212971 
L 439.618062 -253.575659 
L 442.094255 -250.938347 
L 444.912732 -248.301035 
L 448.175437 -245.663723 
L 452.010418 -243.026411 
L 456.566483 -240.389099 
L 462.00207 -237.751787 
L 468.467195 -235.114475 
L 476.078226 -232.477163 
L 484.88669 -229.839851 
L 494.8454 -227.202539 
L 505.777281 -224.565227 
L 517.353929 -221.927915 
L 529.091287 -219.290603 
L 540.368408 -216.653291 
L 550.471853 -214.015979 
L 558.663368 -211.378667 
L 564.263014 -208.741355 
L 566.735366 -206.104043 
L 565.764072 -203.466731 
L 561.300864 -200.829419 
L 553.579227 -198.192107 
L 543.089432 -195.554795 
L 530.519065 -192.917483 
L 516.669675 -190.280171 
L 502.36417 -187.642859 
z
" id="m8c8cfe578c" style="stroke:#4c4c4c;stroke-width:5;"/>
    </defs>
    <g clip-path="url(#p37499bf98d)">
     <use style="fill:#5875a4;stroke:#4c4c4c;stroke-width:5;" x="0" xlink:href="#m8c8cfe578c" y="1296"/>
    </g>
   </g>
   <g id="PolyCollection_2">
    <defs>
     <path d="M 793.939416 -164.395022 
L 775.448228 -164.395022 
L 772.196225 -171.785862 
L 768.292461 -179.176701 
L 763.791624 -186.567541 
L 758.819338 -193.95838 
L 753.573483 -201.34922 
L 748.314351 -208.740059 
L 743.343221 -216.130899 
L 738.971427 -223.521738 
L 735.484361 -230.912577 
L 733.106483 -238.303417 
L 731.973684 -245.694256 
L 732.118104 -253.085096 
L 733.468026 -260.475935 
L 735.862348 -267.866775 
L 739.076217 -275.257614 
L 742.852491 -282.648454 
L 746.933121 -290.039293 
L 751.08539 -297.430132 
L 755.119809 -304.820972 
L 758.898606 -312.211811 
L 762.3358 -319.602651 
L 765.391052 -326.99349 
L 768.060027 -334.38433 
L 770.363721 -341.775169 
L 772.338523 -349.166009 
L 774.028009 -356.556848 
L 775.476739 -363.947687 
L 776.725949 -371.338527 
L 777.810832 -378.729366 
L 778.759132 -386.120206 
L 779.590839 -393.511045 
L 780.318859 -400.901885 
L 780.950475 -408.292724 
L 781.489378 -415.683564 
L 781.937941 -423.074403 
L 782.299338 -430.465242 
L 782.579167 -437.856082 
L 782.786301 -445.246921 
L 782.932884 -452.637761 
L 783.033557 -460.0286 
L 783.104133 -467.41944 
L 783.160023 -474.810279 
L 783.214733 -482.201119 
L 783.278668 -489.591958 
L 783.358408 -496.982797 
L 783.456508 -504.373637 
L 783.571787 -511.764476 
L 783.700022 -519.155316 
L 783.834882 -526.546155 
L 783.96896 -533.936995 
L 784.09475 -541.327834 
L 784.205443 -548.718674 
L 784.295482 -556.109513 
L 784.360879 -563.500352 
L 784.399326 -570.891192 
L 784.410207 -578.282031 
L 784.394555 -585.672871 
L 784.355013 -593.06371 
L 784.295756 -600.45455 
L 784.222331 -607.845389 
L 784.141306 -615.236229 
L 784.059689 -622.627068 
L 783.984144 -630.017907 
L 783.920102 -637.408747 
L 783.870976 -644.799586 
L 783.837684 -652.190426 
L 783.818664 -659.581265 
L 783.810435 -666.972105 
L 783.8086 -674.362944 
L 783.809081 -681.753784 
L 783.809237 -689.144623 
L 783.8086 -696.535462 
L 783.808986 -703.926302 
L 783.813979 -711.317141 
L 783.827903 -718.707981 
L 783.854581 -726.09882 
L 783.896183 -733.48966 
L 783.952462 -740.880499 
L 784.020527 -748.271339 
L 784.09517 -755.662178 
L 784.169629 -763.053017 
L 784.236598 -770.443857 
L 784.289259 -777.834696 
L 784.322197 -785.225536 
L 784.332083 -792.616375 
L 784.318097 -800.007215 
L 784.282076 -807.398054 
L 784.228399 -814.788894 
L 784.163592 -822.179733 
L 784.095664 -829.570572 
L 784.033205 -836.961412 
L 783.98433 -844.352251 
L 783.95562 -851.743091 
L 783.951244 -859.13393 
L 783.972429 -866.52477 
L 784.017414 -873.915609 
L 784.081869 -881.306449 
L 784.159714 -888.697288 
L 784.244143 -896.088127 
L 785.143502 -896.088127 
L 785.143502 -896.088127 
L 785.22793 -888.697288 
L 785.305775 -881.306449 
L 785.37023 -873.915609 
L 785.415215 -866.52477 
L 785.436401 -859.13393 
L 785.432024 -851.743091 
L 785.403314 -844.352251 
L 785.354439 -836.961412 
L 785.29198 -829.570572 
L 785.224053 -822.179733 
L 785.159245 -814.788894 
L 785.105568 -807.398054 
L 785.069548 -800.007215 
L 785.055561 -792.616375 
L 785.065447 -785.225536 
L 785.098385 -777.834696 
L 785.151046 -770.443857 
L 785.218015 -763.053017 
L 785.292475 -755.662178 
L 785.367117 -748.271339 
L 785.435182 -740.880499 
L 785.491461 -733.48966 
L 785.533064 -726.09882 
L 785.559741 -718.707981 
L 785.573666 -711.317141 
L 785.578658 -703.926302 
L 785.579044 -696.535462 
L 785.578407 -689.144623 
L 785.578564 -681.753784 
L 785.579044 -674.362944 
L 785.577209 -666.972105 
L 785.56898 -659.581265 
L 785.549961 -652.190426 
L 785.516668 -644.799586 
L 785.467542 -637.408747 
L 785.4035 -630.017907 
L 785.327956 -622.627068 
L 785.246339 -615.236229 
L 785.165313 -607.845389 
L 785.091888 -600.45455 
L 785.032631 -593.06371 
L 784.993089 -585.672871 
L 784.977437 -578.282031 
L 784.988318 -570.891192 
L 785.026766 -563.500352 
L 785.092162 -556.109513 
L 785.182202 -548.718674 
L 785.292894 -541.327834 
L 785.418684 -533.936995 
L 785.552762 -526.546155 
L 785.687622 -519.155316 
L 785.815857 -511.764476 
L 785.931136 -504.373637 
L 786.029236 -496.982797 
L 786.108976 -489.591958 
L 786.172912 -482.201119 
L 786.227621 -474.810279 
L 786.283511 -467.41944 
L 786.354087 -460.0286 
L 786.454761 -452.637761 
L 786.601343 -445.246921 
L 786.808477 -437.856082 
L 787.088306 -430.465242 
L 787.449703 -423.074403 
L 787.898266 -415.683564 
L 788.43717 -408.292724 
L 789.068785 -400.901885 
L 789.796805 -393.511045 
L 790.628513 -386.120206 
L 791.576812 -378.729366 
L 792.661695 -371.338527 
L 793.910905 -363.947687 
L 795.359635 -356.556848 
L 797.049121 -349.166009 
L 799.023924 -341.775169 
L 801.327617 -334.38433 
L 803.996592 -326.99349 
L 807.051844 -319.602651 
L 810.489038 -312.211811 
L 814.267836 -304.820972 
L 818.302254 -297.430132 
L 822.454524 -290.039293 
L 826.535153 -282.648454 
L 830.311427 -275.257614 
L 833.525296 -267.866775 
L 835.919618 -260.475935 
L 837.26954 -253.085096 
L 837.41396 -245.694256 
L 836.281161 -238.303417 
L 833.903284 -230.912577 
L 830.416217 -223.521738 
L 826.044423 -216.130899 
L 821.073293 -208.740059 
L 815.814161 -201.34922 
L 810.568306 -193.95838 
L 805.59602 -186.567541 
L 801.095183 -179.176701 
L 797.191419 -171.785862 
L 793.939416 -164.395022 
z
" id="mdb5a5c0af4" style="stroke:#4c4c4c;stroke-width:5;"/>
    </defs>
    <g clip-path="url(#p37499bf98d)">
     <use style="fill:#cc8963;stroke:#4c4c4c;stroke-width:5;" x="0" xlink:href="#mdb5a5c0af4" y="1296"/>
    </g>
   </g>
   <g id="PolyCollection_3">
    <defs>
     <path d="M 1171.033172 -153.374939 
L 1124.882659 -153.374939 
L 1120.814153 -160.913311 
L 1116.684969 -168.451683 
L 1112.661454 -175.990054 
L 1108.922867 -183.528426 
L 1105.647518 -191.066797 
L 1102.997828 -198.605169 
L 1101.106141 -206.14354 
L 1100.063081 -213.681912 
L 1099.909922 -221.220284 
L 1100.635913 -228.758655 
L 1102.180743 -236.297027 
L 1104.441668 -243.835398 
L 1107.284147 -251.37377 
L 1110.554536 -258.912141 
L 1114.093181 -266.450513 
L 1117.746447 -273.988885 
L 1121.376532 -281.527256 
L 1124.868369 -289.065628 
L 1128.133411 -296.603999 
L 1131.110494 -304.142371 
L 1133.764311 -311.680743 
L 1136.082164 -319.219114 
L 1138.069714 -326.757486 
L 1139.74638 -334.295857 
L 1141.140884 -341.834229 
L 1142.287295 -349.3726 
L 1143.221743 -356.910972 
L 1143.979862 -364.449344 
L 1144.59494 -371.987715 
L 1145.096676 -379.526087 
L 1145.510476 -387.064458 
L 1145.857169 -394.60283 
L 1146.153067 -402.141202 
L 1146.410305 -409.679573 
L 1146.637368 -417.217945 
L 1146.839747 -424.756316 
L 1147.020654 -432.294688 
L 1147.181714 -439.833059 
L 1147.32359 -447.371431 
L 1147.446482 -454.909803 
L 1147.550478 -462.448174 
L 1147.635766 -469.986546 
L 1147.702698 -477.524917 
L 1147.751772 -485.063289 
L 1147.783542 -492.601661 
L 1147.798523 -500.140032 
L 1147.797131 -507.678404 
L 1147.779665 -515.216775 
L 1147.746377 -522.755147 
L 1147.697606 -530.293518 
L 1147.633983 -537.83189 
L 1147.556647 -545.370262 
L 1147.467465 -552.908633 
L 1147.369189 -560.447005 
L 1147.265511 -567.985376 
L 1147.160994 -575.523748 
L 1147.060855 -583.06212 
L 1146.970612 -590.600491 
L 1146.895637 -598.138863 
L 1146.840657 -605.677234 
L 1146.809282 -613.215606 
L 1146.803623 -620.753977 
L 1146.824065 -628.292349 
L 1146.869222 -635.830721 
L 1146.936092 -643.369092 
L 1147.020373 -650.907464 
L 1147.116908 -658.445835 
L 1147.22018 -665.984207 
L 1147.324788 -673.522579 
L 1147.425847 -681.06095 
L 1147.519268 -688.599322 
L 1147.601891 -696.137693 
L 1147.671485 -703.676065 
L 1147.726635 -711.214436 
L 1147.766556 -718.752808 
L 1147.790887 -726.29118 
L 1147.799499 -733.829551 
L 1147.792364 -741.367923 
L 1147.769503 -748.906294 
L 1147.731033 -756.444666 
L 1147.677286 -763.983038 
L 1147.608998 -771.521409 
L 1147.527516 -779.059781 
L 1147.434988 -786.598152 
L 1147.334485 -794.136524 
L 1147.230013 -801.674895 
L 1147.126392 -809.213267 
L 1147.02899 -816.751639 
L 1146.943333 -824.29001 
L 1146.874633 -831.828382 
L 1146.827293 -839.366753 
L 1146.804457 -846.905125 
L 1146.807676 -854.443497 
L 1146.83674 -861.981868 
L 1146.889706 -869.52024 
L 1146.963116 -877.058611 
L 1147.052368 -884.596983 
L 1147.152198 -892.135354 
L 1147.257187 -899.673726 
L 1148.658645 -899.673726 
L 1148.658645 -899.673726 
L 1148.763633 -892.135354 
L 1148.863464 -884.596983 
L 1148.952716 -877.058611 
L 1149.026126 -869.52024 
L 1149.079092 -861.981868 
L 1149.108156 -854.443497 
L 1149.111374 -846.905125 
L 1149.088538 -839.366753 
L 1149.041199 -831.828382 
L 1148.972499 -824.29001 
L 1148.886842 -816.751639 
L 1148.789439 -809.213267 
L 1148.685818 -801.674895 
L 1148.581347 -794.136524 
L 1148.480844 -786.598152 
L 1148.388316 -779.059781 
L 1148.306833 -771.521409 
L 1148.238545 -763.983038 
L 1148.184798 -756.444666 
L 1148.146328 -748.906294 
L 1148.123468 -741.367923 
L 1148.116332 -733.829551 
L 1148.124944 -726.29118 
L 1148.149276 -718.752808 
L 1148.189197 -711.214436 
L 1148.244347 -703.676065 
L 1148.313941 -696.137693 
L 1148.396564 -688.599322 
L 1148.489985 -681.06095 
L 1148.591044 -673.522579 
L 1148.695652 -665.984207 
L 1148.798923 -658.445835 
L 1148.895459 -650.907464 
L 1148.97974 -643.369092 
L 1149.046609 -635.830721 
L 1149.091767 -628.292349 
L 1149.112209 -620.753977 
L 1149.10655 -613.215606 
L 1149.075175 -605.677234 
L 1149.020194 -598.138863 
L 1148.945219 -590.600491 
L 1148.854977 -583.06212 
L 1148.754837 -575.523748 
L 1148.65032 -567.985376 
L 1148.546643 -560.447005 
L 1148.448366 -552.908633 
L 1148.359185 -545.370262 
L 1148.281849 -537.83189 
L 1148.218225 -530.293518 
L 1148.169455 -522.755147 
L 1148.136166 -515.216775 
L 1148.1187 -507.678404 
L 1148.117308 -500.140032 
L 1148.13229 -492.601661 
L 1148.164059 -485.063289 
L 1148.213133 -477.524917 
L 1148.280066 -469.986546 
L 1148.365354 -462.448174 
L 1148.46935 -454.909803 
L 1148.592241 -447.371431 
L 1148.734117 -439.833059 
L 1148.895178 -432.294688 
L 1149.076084 -424.756316 
L 1149.278464 -417.217945 
L 1149.505526 -409.679573 
L 1149.762765 -402.141202 
L 1150.058663 -394.60283 
L 1150.405355 -387.064458 
L 1150.819156 -379.526087 
L 1151.320892 -371.987715 
L 1151.935969 -364.449344 
L 1152.694089 -356.910972 
L 1153.628536 -349.3726 
L 1154.774948 -341.834229 
L 1156.169452 -334.295857 
L 1157.846117 -326.757486 
L 1159.833667 -319.219114 
L 1162.151521 -311.680743 
L 1164.805338 -304.142371 
L 1167.782421 -296.603999 
L 1171.047462 -289.065628 
L 1174.5393 -281.527256 
L 1178.169385 -273.988885 
L 1181.822651 -266.450513 
L 1185.361295 -258.912141 
L 1188.631684 -251.37377 
L 1191.474164 -243.835398 
L 1193.735088 -236.297027 
L 1195.279919 -228.758655 
L 1196.005909 -221.220284 
L 1195.85275 -213.681912 
L 1194.80969 -206.14354 
L 1192.918004 -198.605169 
L 1190.268314 -191.066797 
L 1186.992964 -183.528426 
L 1183.254378 -175.990054 
L 1179.230862 -168.451683 
L 1175.101678 -160.913311 
L 1171.033172 -153.374939 
z
" id="m1b224217cd" style="stroke:#4c4c4c;stroke-width:5;"/>
    </defs>
    <g clip-path="url(#p37499bf98d)">
     <use style="fill:#5f9e6e;stroke:#4c4c4c;stroke-width:5;" x="0" xlink:href="#m1b224217cd" y="1296"/>
    </g>
   </g>
   <g id="line2d_7">
    <path clip-path="url(#p37499bf98d)" d="M 421.429728 1092.706774 
L 421.429728 1053.844696 
" style="fill:none;stroke:#4c4c4c;stroke-linecap:round;stroke-width:5;"/>
   </g>
   <g id="line2d_8">
    <path clip-path="url(#p37499bf98d)" d="M 421.429728 1092.706774 
L 421.429728 1077.161943 
" style="fill:none;stroke:#4c4c4c;stroke-linecap:round;stroke-width:15;"/>
   </g>
   <g id="line2d_9">
    <path clip-path="url(#p37499bf98d)" d="M 784.693822 1092.706774 
L 784.693822 942.32743 
" style="fill:none;stroke:#4c4c4c;stroke-linecap:round;stroke-width:5;"/>
   </g>
   <g id="line2d_10">
    <path clip-path="url(#p37499bf98d)" d="M 784.693822 1059.336077 
L 784.693822 1010.673997 
" style="fill:none;stroke:#4c4c4c;stroke-linecap:round;stroke-width:15;"/>
   </g>
   <g id="line2d_11">
    <path clip-path="url(#p37499bf98d)" d="M 1147.957916 1092.706774 
L 1147.957916 992.679165 
" style="fill:none;stroke:#4c4c4c;stroke-linecap:round;stroke-width:5;"/>
   </g>
   <g id="line2d_12">
    <path clip-path="url(#p37499bf98d)" d="M 1147.957916 1092.706774 
L 1147.957916 1049.198144 
" style="fill:none;stroke:#4c4c4c;stroke-linecap:round;stroke-width:15;"/>
   </g>
   <g id="line2d_13">
    <path clip-path="url(#p37499bf98d)" d="M 421.429728 389.554356 
L 421.429728 373.135783 
L 784.693822 373.135783 
L 784.693822 389.554356 
" style="fill:none;stroke:#333333;stroke-linecap:round;stroke-width:1.5;"/>
   </g>
   <g id="line2d_14">
    <path clip-path="url(#p37499bf98d)" d="M 784.693822 292.766683 
L 784.693822 276.34811 
L 1147.957916 276.34811 
L 1147.957916 292.766683 
" style="fill:none;stroke:#333333;stroke-linecap:round;stroke-width:1.5;"/>
   </g>
   <g id="line2d_15">
    <path clip-path="url(#p37499bf98d)" d="M 421.429728 191.032939 
L 421.429728 174.614365 
L 1147.957916 174.614365 
L 1147.957916 191.032939 
" style="fill:none;stroke:#333333;stroke-linecap:round;stroke-width:1.5;"/>
   </g>
   <g id="patch_3">
    <path d="M 230.13 1179.94 
L 230.13 96.12 
" style="fill:none;stroke:#cccccc;stroke-linecap:square;stroke-linejoin:miter;stroke-width:2.5;"/>
   </g>
   <g id="patch_4">
    <path d="M 1242 1179.94 
L 1242 96.12 
" style="fill:none;stroke:#cccccc;stroke-linecap:square;stroke-linejoin:miter;stroke-width:2.5;"/>
   </g>
   <g id="patch_5">
    <path d="M 230.13 1179.94 
L 1242 1179.94 
" style="fill:none;stroke:#cccccc;stroke-linecap:square;stroke-linejoin:miter;stroke-width:2.5;"/>
   </g>
   <g id="patch_6">
    <path d="M 230.13 96.12 
L 1242 96.12 
" style="fill:none;stroke:#cccccc;stroke-linecap:square;stroke-linejoin:miter;stroke-width:2.5;"/>
   </g>
   <g id="PathCollection_1">
    <defs>
     <path d="M 0 5 
C 1.326016 5 2.597899 4.473168 3.535534 3.535534 
C 4.473168 2.597899 5 1.326016 5 0 
C 5 -1.326016 4.473168 -2.597899 3.535534 -3.535534 
C 2.597899 -4.473168 1.326016 -5 0 -5 
C -1.326016 -5 -2.597899 -4.473168 -3.535534 -3.535534 
C -4.473168 -2.597899 -5 -1.326016 -5 0 
C -5 1.326016 -4.473168 2.597899 -3.535534 3.535534 
C -2.597899 4.473168 -1.326016 5 0 5 
z
" id="m122c5dd28a" style="stroke:#4c4c4c;stroke-width:2;"/>
    </defs>
    <g clip-path="url(#p37499bf98d)">
     <use style="fill:#ffffff;stroke:#4c4c4c;stroke-width:2;" x="421.429728" xlink:href="#m122c5dd28a" y="1092.706774"/>
    </g>
   </g>
   <g id="PathCollection_2">
    <g clip-path="url(#p37499bf98d)">
     <use style="fill:#ffffff;stroke:#4c4c4c;stroke-width:2;" x="784.693822" xlink:href="#m122c5dd28a" y="1045.227453"/>
    </g>
   </g>
   <g id="PathCollection_3">
    <g clip-path="url(#p37499bf98d)">
     <use style="fill:#ffffff;stroke:#4c4c4c;stroke-width:2;" x="1147.957916" xlink:href="#m122c5dd28a" y="1083.413668"/>
    </g>
   </g>
   <g id="text_11">
    <!-- **** -->
    <g transform="translate(564.1399 362.198283)scale(0.5 -0.5)">
     <defs>
      <path d="M 3.125 58.453125 
L 5.375 65.375 
Q 13.140625 62.640625 16.65625 60.640625 
Q 15.71875 69.484375 15.671875 72.796875 
L 22.75 72.796875 
Q 22.609375 67.96875 21.625 60.6875 
Q 26.65625 63.234375 33.15625 65.375 
L 35.40625 58.453125 
Q 29.203125 56.390625 23.25 55.71875 
Q 26.21875 53.125 31.640625 46.484375 
L 25.78125 42.328125 
Q 22.953125 46.1875 19.09375 52.828125 
Q 15.484375 45.953125 12.75 42.328125 
L 6.984375 46.484375 
Q 12.640625 53.46875 15.09375 55.71875 
Q 8.796875 56.9375 3.125 58.453125 
z
" id="ArialMT-42"/>
     </defs>
     <use xlink:href="#ArialMT-42"/>
     <use x="38.916016" xlink:href="#ArialMT-42"/>
     <use x="77.832031" xlink:href="#ArialMT-42"/>
     <use x="116.748047" xlink:href="#ArialMT-42"/>
    </g>
   </g>
   <g id="text_12">
    <!-- **** -->
    <g transform="translate(927.403994 265.41061)scale(0.5 -0.5)">
     <use xlink:href="#ArialMT-42"/>
     <use x="38.916016" xlink:href="#ArialMT-42"/>
     <use x="77.832031" xlink:href="#ArialMT-42"/>
     <use x="116.748047" xlink:href="#ArialMT-42"/>
    </g>
   </g>
   <g id="text_13">
    <!-- ** -->
    <g transform="translate(765.232885 163.676865)scale(0.5 -0.5)">
     <use xlink:href="#ArialMT-42"/>
     <use x="38.916016" xlink:href="#ArialMT-42"/>
    </g>
   </g>
   <g id="text_14">
    <!-- Prevotella intermedia (K.W. p=4.33e-22) -->
    <g transform="translate(290.725156 90.12)scale(0.5 -0.5)">
     <defs>
      <path d="M 7.71875 0 
L 7.71875 71.578125 
L 34.71875 71.578125 
Q 41.84375 71.578125 45.609375 70.90625 
Q 50.875 70.015625 54.4375 67.546875 
Q 58.015625 65.09375 60.1875 60.640625 
Q 62.359375 56.203125 62.359375 50.875 
Q 62.359375 41.75 56.546875 35.421875 
Q 50.734375 29.109375 35.546875 29.109375 
L 17.1875 29.109375 
L 17.1875 0 
z
M 17.1875 37.546875 
L 35.6875 37.546875 
Q 44.875 37.546875 48.734375 40.96875 
Q 52.59375 44.390625 52.59375 50.59375 
Q 52.59375 55.078125 50.3125 58.265625 
Q 48.046875 61.46875 44.34375 62.5 
Q 41.9375 63.140625 35.5 63.140625 
L 17.1875 63.140625 
z
" id="ArialMT-80"/>
      <path id="ArialMT-32"/>
      <path d="M 6.59375 0 
L 6.59375 51.859375 
L 14.453125 51.859375 
L 14.453125 44.578125 
Q 16.890625 48.390625 20.9375 50.703125 
Q 25 53.03125 30.171875 53.03125 
Q 35.9375 53.03125 39.625 50.640625 
Q 43.3125 48.25 44.828125 43.953125 
Q 50.984375 53.03125 60.84375 53.03125 
Q 68.5625 53.03125 72.703125 48.75 
Q 76.859375 44.484375 76.859375 35.59375 
L 76.859375 0 
L 68.109375 0 
L 68.109375 32.671875 
Q 68.109375 37.9375 67.25 40.25 
Q 66.40625 42.578125 64.15625 43.984375 
Q 61.921875 45.40625 58.890625 45.40625 
Q 53.421875 45.40625 49.796875 41.765625 
Q 46.1875 38.140625 46.1875 30.125 
L 46.1875 0 
L 37.40625 0 
L 37.40625 33.6875 
Q 37.40625 39.546875 35.25 42.46875 
Q 33.109375 45.40625 28.21875 45.40625 
Q 24.515625 45.40625 21.359375 43.453125 
Q 18.21875 41.5 16.796875 37.734375 
Q 15.375 33.984375 15.375 26.90625 
L 15.375 0 
z
" id="ArialMT-109"/>
      <path d="M 23.390625 -21.046875 
Q 16.109375 -11.859375 11.078125 0.4375 
Q 6.0625 12.75 6.0625 25.921875 
Q 6.0625 37.546875 9.8125 48.1875 
Q 14.203125 60.546875 23.390625 72.796875 
L 29.6875 72.796875 
Q 23.78125 62.640625 21.875 58.296875 
Q 18.890625 51.5625 17.1875 44.234375 
Q 15.09375 35.109375 15.09375 25.875 
Q 15.09375 2.390625 29.6875 -21.046875 
z
" id="ArialMT-40"/>
      <path d="M 7.328125 0 
L 7.328125 71.578125 
L 16.796875 71.578125 
L 16.796875 36.078125 
L 52.34375 71.578125 
L 65.1875 71.578125 
L 35.15625 42.578125 
L 66.5 0 
L 54 0 
L 28.515625 36.234375 
L 16.796875 24.8125 
L 16.796875 0 
z
" id="ArialMT-75"/>
      <path d="M 9.078125 0 
L 9.078125 10.015625 
L 19.09375 10.015625 
L 19.09375 0 
z
" id="ArialMT-46"/>
      <path d="M 20.21875 0 
L 1.21875 71.578125 
L 10.9375 71.578125 
L 21.828125 24.65625 
Q 23.578125 17.28125 24.859375 10.015625 
Q 27.59375 21.484375 28.078125 23.25 
L 41.703125 71.578125 
L 53.125 71.578125 
L 63.375 35.359375 
Q 67.234375 21.875 68.953125 10.015625 
Q 70.3125 16.796875 72.515625 25.59375 
L 83.734375 71.578125 
L 93.265625 71.578125 
L 73.640625 0 
L 64.5 0 
L 49.421875 54.546875 
Q 47.515625 61.375 47.171875 62.9375 
Q 46.046875 58.015625 45.0625 54.546875 
L 29.890625 0 
z
" id="ArialMT-87"/>
      <path d="M 6.59375 -19.875 
L 6.59375 51.859375 
L 14.59375 51.859375 
L 14.59375 45.125 
Q 17.4375 49.078125 21 51.046875 
Q 24.5625 53.03125 29.640625 53.03125 
Q 36.28125 53.03125 41.359375 49.609375 
Q 46.4375 46.1875 49.015625 39.953125 
Q 51.609375 33.734375 51.609375 26.3125 
Q 51.609375 18.359375 48.75 11.984375 
Q 45.90625 5.609375 40.453125 2.21875 
Q 35.015625 -1.171875 29 -1.171875 
Q 24.609375 -1.171875 21.109375 0.6875 
Q 17.625 2.546875 15.375 5.375 
L 15.375 -19.875 
z
M 14.546875 25.640625 
Q 14.546875 15.625 18.59375 10.84375 
Q 22.65625 6.0625 28.421875 6.0625 
Q 34.28125 6.0625 38.453125 11.015625 
Q 42.625 15.96875 42.625 26.375 
Q 42.625 36.28125 38.546875 41.203125 
Q 34.46875 46.140625 28.8125 46.140625 
Q 23.1875 46.140625 18.859375 40.890625 
Q 14.546875 35.640625 14.546875 25.640625 
z
" id="ArialMT-112"/>
      <path d="M 52.828125 42.09375 
L 5.5625 42.09375 
L 5.5625 50.296875 
L 52.828125 50.296875 
z
M 52.828125 20.359375 
L 5.5625 20.359375 
L 5.5625 28.5625 
L 52.828125 28.5625 
z
" id="ArialMT-61"/>
      <path d="M 32.328125 0 
L 32.328125 17.140625 
L 1.265625 17.140625 
L 1.265625 25.203125 
L 33.9375 71.578125 
L 41.109375 71.578125 
L 41.109375 25.203125 
L 50.78125 25.203125 
L 50.78125 17.140625 
L 41.109375 17.140625 
L 41.109375 0 
z
M 32.328125 25.203125 
L 32.328125 57.46875 
L 9.90625 25.203125 
z
" id="ArialMT-52"/>
      <path d="M 4.203125 18.890625 
L 12.984375 20.0625 
Q 14.5 12.59375 18.140625 9.296875 
Q 21.78125 6 27 6 
Q 33.203125 6 37.46875 10.296875 
Q 41.75 14.59375 41.75 20.953125 
Q 41.75 27 37.796875 30.921875 
Q 33.84375 34.859375 27.734375 34.859375 
Q 25.25 34.859375 21.53125 33.890625 
L 22.515625 41.609375 
Q 23.390625 41.5 23.921875 41.5 
Q 29.546875 41.5 34.03125 44.421875 
Q 38.53125 47.359375 38.53125 53.46875 
Q 38.53125 58.296875 35.25 61.46875 
Q 31.984375 64.65625 26.8125 64.65625 
Q 21.6875 64.65625 18.265625 61.421875 
Q 14.84375 58.203125 13.875 51.765625 
L 5.078125 53.328125 
Q 6.6875 62.15625 12.390625 67.015625 
Q 18.109375 71.875 26.609375 71.875 
Q 32.46875 71.875 37.390625 69.359375 
Q 42.328125 66.84375 44.9375 62.5 
Q 47.5625 58.15625 47.5625 53.265625 
Q 47.5625 48.640625 45.0625 44.828125 
Q 42.578125 41.015625 37.703125 38.765625 
Q 44.046875 37.3125 47.5625 32.6875 
Q 51.078125 28.078125 51.078125 21.140625 
Q 51.078125 11.765625 44.234375 5.25 
Q 37.40625 -1.265625 26.953125 -1.265625 
Q 17.53125 -1.265625 11.296875 4.34375 
Q 5.078125 9.96875 4.203125 18.890625 
z
" id="ArialMT-51"/>
      <path d="M 3.171875 21.484375 
L 3.171875 30.328125 
L 30.171875 30.328125 
L 30.171875 21.484375 
z
" id="ArialMT-45"/>
      <path d="M 12.359375 -21.046875 
L 6.0625 -21.046875 
Q 20.65625 2.390625 20.65625 25.875 
Q 20.65625 35.0625 18.5625 44.09375 
Q 16.890625 51.421875 13.921875 58.15625 
Q 12.015625 62.546875 6.0625 72.796875 
L 12.359375 72.796875 
Q 21.53125 60.546875 25.921875 48.1875 
Q 29.6875 37.546875 29.6875 25.921875 
Q 29.6875 12.75 24.625 0.4375 
Q 19.578125 -11.859375 12.359375 -21.046875 
z
" id="ArialMT-41"/>
     </defs>
     <use xlink:href="#ArialMT-80"/>
     <use x="66.699219" xlink:href="#ArialMT-114"/>
     <use x="100" xlink:href="#ArialMT-101"/>
     <use x="155.615234" xlink:href="#ArialMT-118"/>
     <use x="205.615234" xlink:href="#ArialMT-111"/>
     <use x="261.230469" xlink:href="#ArialMT-116"/>
     <use x="289.013672" xlink:href="#ArialMT-101"/>
     <use x="344.628906" xlink:href="#ArialMT-108"/>
     <use x="366.845703" xlink:href="#ArialMT-108"/>
     <use x="389.0625" xlink:href="#ArialMT-97"/>
     <use x="444.677734" xlink:href="#ArialMT-32"/>
     <use x="472.460938" xlink:href="#ArialMT-105"/>
     <use x="494.677734" xlink:href="#ArialMT-110"/>
     <use x="550.292969" xlink:href="#ArialMT-116"/>
     <use x="578.076172" xlink:href="#ArialMT-101"/>
     <use x="633.691406" xlink:href="#ArialMT-114"/>
     <use x="666.992188" xlink:href="#ArialMT-109"/>
     <use x="750.292969" xlink:href="#ArialMT-101"/>
     <use x="805.908203" xlink:href="#ArialMT-100"/>
     <use x="861.523438" xlink:href="#ArialMT-105"/>
     <use x="883.740234" xlink:href="#ArialMT-97"/>
     <use x="939.355469" xlink:href="#ArialMT-32"/>
     <use x="967.138672" xlink:href="#ArialMT-40"/>
     <use x="1000.439453" xlink:href="#ArialMT-75"/>
     <use x="1067.138672" xlink:href="#ArialMT-46"/>
     <use x="1094.921875" xlink:href="#ArialMT-87"/>
     <use x="1183.806641" xlink:href="#ArialMT-46"/>
     <use x="1211.589844" xlink:href="#ArialMT-32"/>
     <use x="1239.373047" xlink:href="#ArialMT-112"/>
     <use x="1294.988281" xlink:href="#ArialMT-61"/>
     <use x="1353.386719" xlink:href="#ArialMT-52"/>
     <use x="1409.001953" xlink:href="#ArialMT-46"/>
     <use x="1436.785156" xlink:href="#ArialMT-51"/>
     <use x="1492.400391" xlink:href="#ArialMT-51"/>
     <use x="1548.015625" xlink:href="#ArialMT-101"/>
     <use x="1603.630859" xlink:href="#ArialMT-45"/>
     <use x="1636.931641" xlink:href="#ArialMT-50"/>
     <use x="1692.546875" xlink:href="#ArialMT-50"/>
     <use x="1748.162109" xlink:href="#ArialMT-41"/>
    </g>
   </g>
  </g>
 </g>
 <defs>
  <clipPath id="p37499bf98d">
   <rect height="1083.82" width="1011.87" x="230.13" y="96.12"/>
  </clipPath>
 </defs>
</svg>
