<?xml version="1.0" encoding="utf-8" standalone="no"?>
<!DOCTYPE svg PUBLIC "-//W3C//DTD SVG 1.1//EN"
  "http://www.w3.org/Graphics/SVG/1.1/DTD/svg11.dtd">
<!-- Created with matplotlib (https://matplotlib.org/) -->
<svg height="1296pt" version="1.1" viewBox="0 0 1296 1296" width="1296pt" xmlns="http://www.w3.org/2000/svg" xmlns:xlink="http://www.w3.org/1999/xlink">
 <metadata>
  <rdf:RDF xmlns:cc="http://creativecommons.org/ns#" xmlns:dc="http://purl.org/dc/elements/1.1/" xmlns:rdf="http://www.w3.org/1999/02/22-rdf-syntax-ns#">
   <cc:Work>
    <dc:type rdf:resource="http://purl.org/dc/dcmitype/StillImage"/>
    <dc:date>2022-06-29T14:05:37.750556</dc:date>
    <dc:format>image/svg+xml</dc:format>
    <dc:creator>
     <cc:Agent>
      <dc:title>Matplotlib v3.3.3, https://matplotlib.org/</dc:title>
     </cc:Agent>
    </dc:creator>
   </cc:Work>
  </rdf:RDF>
 </metadata>
 <defs>
  <style type="text/css">*{stroke-linecap:butt;stroke-linejoin:round;}</style>
 </defs>
 <g id="figure_1">
  <g id="patch_1">
   <path d="M 0 1296 
L 1296 1296 
L 1296 0 
L 0 0 
z
" style="fill:#ffffff;"/>
  </g>
  <g id="axes_1">
   <g id="patch_2">
    <path d="M 202.32 1179.94 
L 1242 1179.94 
L 1242 96.24 
L 202.32 96.24 
z
" style="fill:#ffffff;"/>
   </g>
   <g id="matplotlib.axis_1">
    <g id="xtick_1">
     <g id="text_1">
      <!-- Healthy -->
      <g style="fill:#262626;" transform="translate(301.070316 1231.229063)scale(0.5 -0.5)">
       <defs>
        <path d="M 8.015625 0 
L 8.015625 71.578125 
L 17.484375 71.578125 
L 17.484375 42.1875 
L 54.6875 42.1875 
L 54.6875 71.578125 
L 64.15625 71.578125 
L 64.15625 0 
L 54.6875 0 
L 54.6875 33.734375 
L 17.484375 33.734375 
L 17.484375 0 
z
" id="ArialMT-72"/>
        <path d="M 42.09375 16.703125 
L 51.171875 15.578125 
Q 49.03125 7.625 43.21875 3.21875 
Q 37.40625 -1.171875 28.375 -1.171875 
Q 17 -1.171875 10.328125 5.828125 
Q 3.65625 12.84375 3.65625 25.484375 
Q 3.65625 38.578125 10.390625 45.796875 
Q 17.140625 53.03125 27.875 53.03125 
Q 38.28125 53.03125 44.875 45.953125 
Q 51.46875 38.875 51.46875 26.03125 
Q 51.46875 25.25 51.421875 23.6875 
L 12.75 23.6875 
Q 13.234375 15.140625 17.578125 10.59375 
Q 21.921875 6.0625 28.421875 6.0625 
Q 33.25 6.0625 36.671875 8.59375 
Q 40.09375 11.140625 42.09375 16.703125 
z
M 13.234375 30.90625 
L 42.1875 30.90625 
Q 41.609375 37.453125 38.875 40.71875 
Q 34.671875 45.796875 27.984375 45.796875 
Q 21.921875 45.796875 17.796875 41.75 
Q 13.671875 37.703125 13.234375 30.90625 
z
" id="ArialMT-101"/>
        <path d="M 40.4375 6.390625 
Q 35.546875 2.25 31.03125 0.53125 
Q 26.515625 -1.171875 21.34375 -1.171875 
Q 12.796875 -1.171875 8.203125 3 
Q 3.609375 7.171875 3.609375 13.671875 
Q 3.609375 17.484375 5.34375 20.625 
Q 7.078125 23.78125 9.890625 25.6875 
Q 12.703125 27.59375 16.21875 28.5625 
Q 18.796875 29.25 24.03125 29.890625 
Q 34.671875 31.15625 39.703125 32.90625 
Q 39.75 34.71875 39.75 35.203125 
Q 39.75 40.578125 37.25 42.78125 
Q 33.890625 45.75 27.25 45.75 
Q 21.046875 45.75 18.09375 43.578125 
Q 15.140625 41.40625 13.71875 35.890625 
L 5.125 37.0625 
Q 6.296875 42.578125 8.984375 45.96875 
Q 11.671875 49.359375 16.75 51.1875 
Q 21.828125 53.03125 28.515625 53.03125 
Q 35.15625 53.03125 39.296875 51.46875 
Q 43.453125 49.90625 45.40625 47.53125 
Q 47.359375 45.171875 48.140625 41.546875 
Q 48.578125 39.3125 48.578125 33.453125 
L 48.578125 21.734375 
Q 48.578125 9.46875 49.140625 6.21875 
Q 49.703125 2.984375 51.375 0 
L 42.1875 0 
Q 40.828125 2.734375 40.4375 6.390625 
z
M 39.703125 26.03125 
Q 34.90625 24.078125 25.34375 22.703125 
Q 19.921875 21.921875 17.671875 20.9375 
Q 15.4375 19.96875 14.203125 18.09375 
Q 12.984375 16.21875 12.984375 13.921875 
Q 12.984375 10.40625 15.640625 8.0625 
Q 18.3125 5.71875 23.4375 5.71875 
Q 28.515625 5.71875 32.46875 7.9375 
Q 36.421875 10.15625 38.28125 14.015625 
Q 39.703125 17 39.703125 22.796875 
z
" id="ArialMT-97"/>
        <path d="M 6.390625 0 
L 6.390625 71.578125 
L 15.1875 71.578125 
L 15.1875 0 
z
" id="ArialMT-108"/>
        <path d="M 25.78125 7.859375 
L 27.046875 0.09375 
Q 23.34375 -0.6875 20.40625 -0.6875 
Q 15.625 -0.6875 12.984375 0.828125 
Q 10.359375 2.34375 9.28125 4.8125 
Q 8.203125 7.28125 8.203125 15.1875 
L 8.203125 45.015625 
L 1.765625 45.015625 
L 1.765625 51.859375 
L 8.203125 51.859375 
L 8.203125 64.703125 
L 16.9375 69.96875 
L 16.9375 51.859375 
L 25.78125 51.859375 
L 25.78125 45.015625 
L 16.9375 45.015625 
L 16.9375 14.703125 
Q 16.9375 10.9375 17.40625 9.859375 
Q 17.875 8.796875 18.921875 8.15625 
Q 19.96875 7.515625 21.921875 7.515625 
Q 23.390625 7.515625 25.78125 7.859375 
z
" id="ArialMT-116"/>
        <path d="M 6.59375 0 
L 6.59375 71.578125 
L 15.375 71.578125 
L 15.375 45.90625 
Q 21.53125 53.03125 30.90625 53.03125 
Q 36.671875 53.03125 40.921875 50.75 
Q 45.171875 48.484375 47 44.484375 
Q 48.828125 40.484375 48.828125 32.859375 
L 48.828125 0 
L 40.046875 0 
L 40.046875 32.859375 
Q 40.046875 39.453125 37.1875 42.453125 
Q 34.328125 45.453125 29.109375 45.453125 
Q 25.203125 45.453125 21.75 43.421875 
Q 18.3125 41.40625 16.84375 37.9375 
Q 15.375 34.46875 15.375 28.375 
L 15.375 0 
z
" id="ArialMT-104"/>
        <path d="M 6.203125 -19.96875 
L 5.21875 -11.71875 
Q 8.109375 -12.5 10.25 -12.5 
Q 13.1875 -12.5 14.9375 -11.515625 
Q 16.703125 -10.546875 17.828125 -8.796875 
Q 18.65625 -7.46875 20.515625 -2.25 
Q 20.75 -1.515625 21.296875 -0.09375 
L 1.609375 51.859375 
L 11.078125 51.859375 
L 21.875 21.828125 
Q 23.96875 16.109375 25.640625 9.8125 
Q 27.15625 15.875 29.25 21.625 
L 40.328125 51.859375 
L 49.125 51.859375 
L 29.390625 -0.875 
Q 26.21875 -9.421875 24.46875 -12.640625 
Q 22.125 -17 19.09375 -19.015625 
Q 16.0625 -21.046875 11.859375 -21.046875 
Q 9.328125 -21.046875 6.203125 -19.96875 
z
" id="ArialMT-121"/>
       </defs>
       <use xlink:href="#ArialMT-72"/>
       <use x="72.216797" xlink:href="#ArialMT-101"/>
       <use x="127.832031" xlink:href="#ArialMT-97"/>
       <use x="183.447266" xlink:href="#ArialMT-108"/>
       <use x="205.664062" xlink:href="#ArialMT-116"/>
       <use x="233.447266" xlink:href="#ArialMT-104"/>
       <use x="289.0625" xlink:href="#ArialMT-121"/>
      </g>
     </g>
    </g>
    <g id="xtick_2">
     <g id="text_2">
      <!-- Moderate+Severe -->
      <g style="fill:#262626;" transform="translate(527.052605 1231.229063)scale(0.5 -0.5)">
       <defs>
        <path d="M 7.421875 0 
L 7.421875 71.578125 
L 21.6875 71.578125 
L 38.625 20.90625 
Q 40.96875 13.8125 42.046875 10.296875 
Q 43.265625 14.203125 45.84375 21.78125 
L 62.984375 71.578125 
L 75.734375 71.578125 
L 75.734375 0 
L 66.609375 0 
L 66.609375 59.90625 
L 45.796875 0 
L 37.25 0 
L 16.546875 60.9375 
L 16.546875 0 
z
" id="ArialMT-77"/>
        <path d="M 3.328125 25.921875 
Q 3.328125 40.328125 11.328125 47.265625 
Q 18.015625 53.03125 27.640625 53.03125 
Q 38.328125 53.03125 45.109375 46.015625 
Q 51.90625 39.015625 51.90625 26.65625 
Q 51.90625 16.65625 48.90625 10.90625 
Q 45.90625 5.171875 40.15625 2 
Q 34.421875 -1.171875 27.640625 -1.171875 
Q 16.75 -1.171875 10.03125 5.8125 
Q 3.328125 12.796875 3.328125 25.921875 
z
M 12.359375 25.921875 
Q 12.359375 15.96875 16.703125 11.015625 
Q 21.046875 6.0625 27.640625 6.0625 
Q 34.1875 6.0625 38.53125 11.03125 
Q 42.875 16.015625 42.875 26.21875 
Q 42.875 35.84375 38.5 40.796875 
Q 34.125 45.75 27.640625 45.75 
Q 21.046875 45.75 16.703125 40.8125 
Q 12.359375 35.890625 12.359375 25.921875 
z
" id="ArialMT-111"/>
        <path d="M 40.234375 0 
L 40.234375 6.546875 
Q 35.296875 -1.171875 25.734375 -1.171875 
Q 19.53125 -1.171875 14.328125 2.25 
Q 9.125 5.671875 6.265625 11.796875 
Q 3.421875 17.921875 3.421875 25.875 
Q 3.421875 33.640625 6 39.96875 
Q 8.59375 46.296875 13.765625 49.65625 
Q 18.953125 53.03125 25.34375 53.03125 
Q 30.03125 53.03125 33.6875 51.046875 
Q 37.359375 49.078125 39.65625 45.90625 
L 39.65625 71.578125 
L 48.390625 71.578125 
L 48.390625 0 
z
M 12.453125 25.875 
Q 12.453125 15.921875 16.640625 10.984375 
Q 20.84375 6.0625 26.5625 6.0625 
Q 32.328125 6.0625 36.34375 10.765625 
Q 40.375 15.484375 40.375 25.140625 
Q 40.375 35.796875 36.265625 40.765625 
Q 32.171875 45.75 26.171875 45.75 
Q 20.3125 45.75 16.375 40.96875 
Q 12.453125 36.1875 12.453125 25.875 
z
" id="ArialMT-100"/>
        <path d="M 6.5 0 
L 6.5 51.859375 
L 14.40625 51.859375 
L 14.40625 44 
Q 17.4375 49.515625 20 51.265625 
Q 22.5625 53.03125 25.640625 53.03125 
Q 30.078125 53.03125 34.671875 50.203125 
L 31.640625 42.046875 
Q 28.421875 43.953125 25.203125 43.953125 
Q 22.3125 43.953125 20.015625 42.21875 
Q 17.71875 40.484375 16.75 37.40625 
Q 15.28125 32.71875 15.28125 27.15625 
L 15.28125 0 
z
" id="ArialMT-114"/>
        <path d="M 25.046875 11.578125 
L 25.046875 31.203125 
L 5.5625 31.203125 
L 5.5625 39.40625 
L 25.046875 39.40625 
L 25.046875 58.890625 
L 33.34375 58.890625 
L 33.34375 39.40625 
L 52.828125 39.40625 
L 52.828125 31.203125 
L 33.34375 31.203125 
L 33.34375 11.578125 
z
" id="ArialMT-43"/>
        <path d="M 4.5 23 
L 13.421875 23.78125 
Q 14.0625 18.40625 16.375 14.96875 
Q 18.703125 11.53125 23.578125 9.40625 
Q 28.46875 7.28125 34.578125 7.28125 
Q 39.984375 7.28125 44.140625 8.890625 
Q 48.296875 10.5 50.3125 13.296875 
Q 52.34375 16.109375 52.34375 19.4375 
Q 52.34375 22.796875 50.390625 25.3125 
Q 48.4375 27.828125 43.953125 29.546875 
Q 41.0625 30.671875 31.203125 33.03125 
Q 21.34375 35.40625 17.390625 37.5 
Q 12.25 40.1875 9.734375 44.15625 
Q 7.234375 48.140625 7.234375 53.078125 
Q 7.234375 58.5 10.296875 63.203125 
Q 13.375 67.921875 19.28125 70.359375 
Q 25.203125 72.796875 32.421875 72.796875 
Q 40.375 72.796875 46.453125 70.234375 
Q 52.546875 67.671875 55.8125 62.6875 
Q 59.078125 57.71875 59.328125 51.421875 
L 50.25 50.734375 
Q 49.515625 57.515625 45.28125 60.984375 
Q 41.0625 64.453125 32.8125 64.453125 
Q 24.21875 64.453125 20.28125 61.296875 
Q 16.359375 58.15625 16.359375 53.71875 
Q 16.359375 49.859375 19.140625 47.359375 
Q 21.875 44.875 33.421875 42.265625 
Q 44.96875 39.65625 49.265625 37.703125 
Q 55.515625 34.8125 58.484375 30.390625 
Q 61.46875 25.984375 61.46875 20.21875 
Q 61.46875 14.5 58.203125 9.4375 
Q 54.9375 4.390625 48.796875 1.578125 
Q 42.671875 -1.21875 35.015625 -1.21875 
Q 25.296875 -1.21875 18.71875 1.609375 
Q 12.15625 4.4375 8.421875 10.125 
Q 4.6875 15.828125 4.5 23 
z
" id="ArialMT-83"/>
        <path d="M 21 0 
L 1.265625 51.859375 
L 10.546875 51.859375 
L 21.6875 20.796875 
Q 23.484375 15.765625 25 10.359375 
Q 26.171875 14.453125 28.265625 20.21875 
L 39.796875 51.859375 
L 48.828125 51.859375 
L 29.203125 0 
z
" id="ArialMT-118"/>
       </defs>
       <use xlink:href="#ArialMT-77"/>
       <use x="83.300781" xlink:href="#ArialMT-111"/>
       <use x="138.916016" xlink:href="#ArialMT-100"/>
       <use x="194.53125" xlink:href="#ArialMT-101"/>
       <use x="250.146484" xlink:href="#ArialMT-114"/>
       <use x="283.447266" xlink:href="#ArialMT-97"/>
       <use x="339.0625" xlink:href="#ArialMT-116"/>
       <use x="366.845703" xlink:href="#ArialMT-101"/>
       <use x="422.460938" xlink:href="#ArialMT-43"/>
       <use x="480.859375" xlink:href="#ArialMT-83"/>
       <use x="547.558594" xlink:href="#ArialMT-101"/>
       <use x="603.173828" xlink:href="#ArialMT-118"/>
       <use x="653.173828" xlink:href="#ArialMT-101"/>
       <use x="708.789062" xlink:href="#ArialMT-114"/>
       <use x="742.089844" xlink:href="#ArialMT-101"/>
      </g>
     </g>
    </g>
    <g id="xtick_3">
     <g id="text_3">
      <!-- Slight -->
      <g style="fill:#262626;" transform="translate(1004.566143 1231.838438)scale(0.5 -0.5)">
       <defs>
        <path d="M 6.640625 61.46875 
L 6.640625 71.578125 
L 15.4375 71.578125 
L 15.4375 61.46875 
z
M 6.640625 0 
L 6.640625 51.859375 
L 15.4375 51.859375 
L 15.4375 0 
z
" id="ArialMT-105"/>
        <path d="M 4.984375 -4.296875 
L 13.53125 -5.5625 
Q 14.0625 -9.515625 16.5 -11.328125 
Q 19.78125 -13.765625 25.4375 -13.765625 
Q 31.546875 -13.765625 34.859375 -11.328125 
Q 38.1875 -8.890625 39.359375 -4.5 
Q 40.046875 -1.8125 39.984375 6.78125 
Q 34.234375 0 25.640625 0 
Q 14.9375 0 9.078125 7.71875 
Q 3.21875 15.4375 3.21875 26.21875 
Q 3.21875 33.640625 5.90625 39.90625 
Q 8.59375 46.1875 13.6875 49.609375 
Q 18.796875 53.03125 25.6875 53.03125 
Q 34.859375 53.03125 40.828125 45.609375 
L 40.828125 51.859375 
L 48.921875 51.859375 
L 48.921875 7.03125 
Q 48.921875 -5.078125 46.453125 -10.125 
Q 44 -15.1875 38.640625 -18.109375 
Q 33.296875 -21.046875 25.484375 -21.046875 
Q 16.21875 -21.046875 10.5 -16.875 
Q 4.78125 -12.703125 4.984375 -4.296875 
z
M 12.25 26.859375 
Q 12.25 16.65625 16.296875 11.96875 
Q 20.359375 7.28125 26.46875 7.28125 
Q 32.515625 7.28125 36.609375 11.9375 
Q 40.71875 16.609375 40.71875 26.5625 
Q 40.71875 36.078125 36.5 40.90625 
Q 32.28125 45.75 26.3125 45.75 
Q 20.453125 45.75 16.34375 40.984375 
Q 12.25 36.234375 12.25 26.859375 
z
" id="ArialMT-103"/>
       </defs>
       <use xlink:href="#ArialMT-83"/>
       <use x="66.699219" xlink:href="#ArialMT-108"/>
       <use x="88.916016" xlink:href="#ArialMT-105"/>
       <use x="111.132812" xlink:href="#ArialMT-103"/>
       <use x="166.748047" xlink:href="#ArialMT-104"/>
       <use x="222.363281" xlink:href="#ArialMT-116"/>
      </g>
     </g>
    </g>
   </g>
   <g id="matplotlib.axis_2">
    <g id="ytick_1">
     <g id="line2d_1">
      <path clip-path="url(#pfc2436bfc3)" d="M 202.32 1103.802148 
L 1242 1103.802148 
" style="fill:none;stroke:#cccccc;stroke-linecap:round;stroke-width:2;"/>
     </g>
     <g id="text_4">
      <!-- 0 -->
      <g style="fill:#262626;" transform="translate(159.015313 1121.696679)scale(0.5 -0.5)">
       <defs>
        <path d="M 4.15625 35.296875 
Q 4.15625 48 6.765625 55.734375 
Q 9.375 63.484375 14.515625 67.671875 
Q 19.671875 71.875 27.484375 71.875 
Q 33.25 71.875 37.59375 69.546875 
Q 41.9375 67.234375 44.765625 62.859375 
Q 47.609375 58.5 49.21875 52.21875 
Q 50.828125 45.953125 50.828125 35.296875 
Q 50.828125 22.703125 48.234375 14.96875 
Q 45.65625 7.234375 40.5 3 
Q 35.359375 -1.21875 27.484375 -1.21875 
Q 17.140625 -1.21875 11.234375 6.203125 
Q 4.15625 15.140625 4.15625 35.296875 
z
M 13.1875 35.296875 
Q 13.1875 17.671875 17.3125 11.828125 
Q 21.4375 6 27.484375 6 
Q 33.546875 6 37.671875 11.859375 
Q 41.796875 17.71875 41.796875 35.296875 
Q 41.796875 52.984375 37.671875 58.78125 
Q 33.546875 64.59375 27.390625 64.59375 
Q 21.34375 64.59375 17.71875 59.46875 
Q 13.1875 52.9375 13.1875 35.296875 
z
" id="ArialMT-48"/>
       </defs>
       <use xlink:href="#ArialMT-48"/>
      </g>
     </g>
    </g>
    <g id="ytick_2">
     <g id="line2d_2">
      <path clip-path="url(#pfc2436bfc3)" d="M 202.32 881.300259 
L 1242 881.300259 
" style="fill:none;stroke:#cccccc;stroke-linecap:round;stroke-width:2;"/>
     </g>
     <g id="text_5">
      <!-- 200 -->
      <g style="fill:#262626;" transform="translate(103.405938 899.19479)scale(0.5 -0.5)">
       <defs>
        <path d="M 50.34375 8.453125 
L 50.34375 0 
L 3.03125 0 
Q 2.9375 3.171875 4.046875 6.109375 
Q 5.859375 10.9375 9.828125 15.625 
Q 13.8125 20.3125 21.34375 26.46875 
Q 33.015625 36.03125 37.109375 41.625 
Q 41.21875 47.21875 41.21875 52.203125 
Q 41.21875 57.421875 37.46875 61 
Q 33.734375 64.59375 27.734375 64.59375 
Q 21.390625 64.59375 17.578125 60.78125 
Q 13.765625 56.984375 13.71875 50.25 
L 4.6875 51.171875 
Q 5.609375 61.28125 11.65625 66.578125 
Q 17.71875 71.875 27.9375 71.875 
Q 38.234375 71.875 44.234375 66.15625 
Q 50.25 60.453125 50.25 52 
Q 50.25 47.703125 48.484375 43.546875 
Q 46.734375 39.40625 42.65625 34.8125 
Q 38.578125 30.21875 29.109375 22.21875 
Q 21.1875 15.578125 18.9375 13.203125 
Q 16.703125 10.84375 15.234375 8.453125 
z
" id="ArialMT-50"/>
       </defs>
       <use xlink:href="#ArialMT-50"/>
       <use x="55.615234" xlink:href="#ArialMT-48"/>
       <use x="111.230469" xlink:href="#ArialMT-48"/>
      </g>
     </g>
    </g>
    <g id="ytick_3">
     <g id="line2d_3">
      <path clip-path="url(#pfc2436bfc3)" d="M 202.32 658.79837 
L 1242 658.79837 
" style="fill:none;stroke:#cccccc;stroke-linecap:round;stroke-width:2;"/>
     </g>
     <g id="text_6">
      <!-- 400 -->
      <g style="fill:#262626;" transform="translate(103.405938 676.692901)scale(0.5 -0.5)">
       <defs>
        <path d="M 32.328125 0 
L 32.328125 17.140625 
L 1.265625 17.140625 
L 1.265625 25.203125 
L 33.9375 71.578125 
L 41.109375 71.578125 
L 41.109375 25.203125 
L 50.78125 25.203125 
L 50.78125 17.140625 
L 41.109375 17.140625 
L 41.109375 0 
z
M 32.328125 25.203125 
L 32.328125 57.46875 
L 9.90625 25.203125 
z
" id="ArialMT-52"/>
       </defs>
       <use xlink:href="#ArialMT-52"/>
       <use x="55.615234" xlink:href="#ArialMT-48"/>
       <use x="111.230469" xlink:href="#ArialMT-48"/>
      </g>
     </g>
    </g>
    <g id="ytick_4">
     <g id="line2d_4">
      <path clip-path="url(#pfc2436bfc3)" d="M 202.32 436.296481 
L 1242 436.296481 
" style="fill:none;stroke:#cccccc;stroke-linecap:round;stroke-width:2;"/>
     </g>
     <g id="text_7">
      <!-- 600 -->
      <g style="fill:#262626;" transform="translate(103.405938 454.191012)scale(0.5 -0.5)">
       <defs>
        <path d="M 49.75 54.046875 
L 41.015625 53.375 
Q 39.84375 58.546875 37.703125 60.890625 
Q 34.125 64.65625 28.90625 64.65625 
Q 24.703125 64.65625 21.53125 62.3125 
Q 17.390625 59.28125 14.984375 53.46875 
Q 12.59375 47.65625 12.5 36.921875 
Q 15.671875 41.75 20.265625 44.09375 
Q 24.859375 46.4375 29.890625 46.4375 
Q 38.671875 46.4375 44.84375 39.96875 
Q 51.03125 33.5 51.03125 23.25 
Q 51.03125 16.5 48.125 10.71875 
Q 45.21875 4.9375 40.140625 1.859375 
Q 35.0625 -1.21875 28.609375 -1.21875 
Q 17.625 -1.21875 10.6875 6.859375 
Q 3.765625 14.9375 3.765625 33.5 
Q 3.765625 54.25 11.421875 63.671875 
Q 18.109375 71.875 29.4375 71.875 
Q 37.890625 71.875 43.28125 67.140625 
Q 48.6875 62.40625 49.75 54.046875 
z
M 13.875 23.1875 
Q 13.875 18.65625 15.796875 14.5 
Q 17.71875 10.359375 21.1875 8.171875 
Q 24.65625 6 28.46875 6 
Q 34.03125 6 38.03125 10.484375 
Q 42.046875 14.984375 42.046875 22.703125 
Q 42.046875 30.125 38.078125 34.390625 
Q 34.125 38.671875 28.125 38.671875 
Q 22.171875 38.671875 18.015625 34.390625 
Q 13.875 30.125 13.875 23.1875 
z
" id="ArialMT-54"/>
       </defs>
       <use xlink:href="#ArialMT-54"/>
       <use x="55.615234" xlink:href="#ArialMT-48"/>
       <use x="111.230469" xlink:href="#ArialMT-48"/>
      </g>
     </g>
    </g>
    <g id="ytick_5">
     <g id="line2d_5">
      <path clip-path="url(#pfc2436bfc3)" d="M 202.32 213.794592 
L 1242 213.794592 
" style="fill:none;stroke:#cccccc;stroke-linecap:round;stroke-width:2;"/>
     </g>
     <g id="text_8">
      <!-- 800 -->
      <g style="fill:#262626;" transform="translate(103.405938 231.689123)scale(0.5 -0.5)">
       <defs>
        <path d="M 17.671875 38.8125 
Q 12.203125 40.828125 9.5625 44.53125 
Q 6.9375 48.25 6.9375 53.421875 
Q 6.9375 61.234375 12.546875 66.546875 
Q 18.171875 71.875 27.484375 71.875 
Q 36.859375 71.875 42.578125 66.421875 
Q 48.296875 60.984375 48.296875 53.171875 
Q 48.296875 48.1875 45.671875 44.5 
Q 43.0625 40.828125 37.75 38.8125 
Q 44.34375 36.671875 47.78125 31.875 
Q 51.21875 27.09375 51.21875 20.453125 
Q 51.21875 11.28125 44.71875 5.03125 
Q 38.234375 -1.21875 27.640625 -1.21875 
Q 17.046875 -1.21875 10.546875 5.046875 
Q 4.046875 11.328125 4.046875 20.703125 
Q 4.046875 27.6875 7.59375 32.390625 
Q 11.140625 37.109375 17.671875 38.8125 
z
M 15.921875 53.71875 
Q 15.921875 48.640625 19.1875 45.40625 
Q 22.46875 42.1875 27.6875 42.1875 
Q 32.765625 42.1875 36.015625 45.375 
Q 39.265625 48.578125 39.265625 53.21875 
Q 39.265625 58.0625 35.90625 61.359375 
Q 32.5625 64.65625 27.59375 64.65625 
Q 22.5625 64.65625 19.234375 61.421875 
Q 15.921875 58.203125 15.921875 53.71875 
z
M 13.09375 20.65625 
Q 13.09375 16.890625 14.875 13.375 
Q 16.65625 9.859375 20.171875 7.921875 
Q 23.6875 6 27.734375 6 
Q 34.03125 6 38.125 10.046875 
Q 42.234375 14.109375 42.234375 20.359375 
Q 42.234375 26.703125 38.015625 30.859375 
Q 33.796875 35.015625 27.4375 35.015625 
Q 21.234375 35.015625 17.15625 30.90625 
Q 13.09375 26.8125 13.09375 20.65625 
z
" id="ArialMT-56"/>
       </defs>
       <use xlink:href="#ArialMT-56"/>
       <use x="55.615234" xlink:href="#ArialMT-48"/>
       <use x="111.230469" xlink:href="#ArialMT-48"/>
      </g>
     </g>
    </g>
    <g id="text_9">
     <!-- Abundance -->
     <g style="fill:#262626;" transform="translate(89.468438 764.582187)rotate(-90)scale(0.5 -0.5)">
      <defs>
       <path d="M -0.140625 0 
L 27.34375 71.578125 
L 37.546875 71.578125 
L 66.84375 0 
L 56.0625 0 
L 47.703125 21.6875 
L 17.78125 21.6875 
L 9.90625 0 
z
M 20.515625 29.390625 
L 44.78125 29.390625 
L 37.3125 49.21875 
Q 33.890625 58.25 32.234375 64.0625 
Q 30.859375 57.171875 28.375 50.390625 
z
" id="ArialMT-65"/>
       <path d="M 14.703125 0 
L 6.546875 0 
L 6.546875 71.578125 
L 15.328125 71.578125 
L 15.328125 46.046875 
Q 20.90625 53.03125 29.546875 53.03125 
Q 34.328125 53.03125 38.59375 51.09375 
Q 42.875 49.171875 45.625 45.671875 
Q 48.390625 42.1875 49.953125 37.25 
Q 51.515625 32.328125 51.515625 26.703125 
Q 51.515625 13.375 44.921875 6.09375 
Q 38.328125 -1.171875 29.109375 -1.171875 
Q 19.921875 -1.171875 14.703125 6.5 
z
M 14.59375 26.3125 
Q 14.59375 17 17.140625 12.84375 
Q 21.296875 6.0625 28.375 6.0625 
Q 34.125 6.0625 38.328125 11.0625 
Q 42.53125 16.0625 42.53125 25.984375 
Q 42.53125 36.140625 38.5 40.96875 
Q 34.46875 45.796875 28.765625 45.796875 
Q 23 45.796875 18.796875 40.796875 
Q 14.59375 35.796875 14.59375 26.3125 
z
" id="ArialMT-98"/>
       <path d="M 40.578125 0 
L 40.578125 7.625 
Q 34.515625 -1.171875 24.125 -1.171875 
Q 19.53125 -1.171875 15.546875 0.578125 
Q 11.578125 2.34375 9.640625 5 
Q 7.71875 7.671875 6.9375 11.53125 
Q 6.390625 14.109375 6.390625 19.734375 
L 6.390625 51.859375 
L 15.1875 51.859375 
L 15.1875 23.09375 
Q 15.1875 16.21875 15.71875 13.8125 
Q 16.546875 10.359375 19.234375 8.375 
Q 21.921875 6.390625 25.875 6.390625 
Q 29.828125 6.390625 33.296875 8.421875 
Q 36.765625 10.453125 38.203125 13.9375 
Q 39.65625 17.4375 39.65625 24.078125 
L 39.65625 51.859375 
L 48.4375 51.859375 
L 48.4375 0 
z
" id="ArialMT-117"/>
       <path d="M 6.59375 0 
L 6.59375 51.859375 
L 14.5 51.859375 
L 14.5 44.484375 
Q 20.21875 53.03125 31 53.03125 
Q 35.6875 53.03125 39.625 51.34375 
Q 43.5625 49.65625 45.515625 46.921875 
Q 47.46875 44.1875 48.25 40.4375 
Q 48.734375 37.984375 48.734375 31.890625 
L 48.734375 0 
L 39.9375 0 
L 39.9375 31.546875 
Q 39.9375 36.921875 38.90625 39.578125 
Q 37.890625 42.234375 35.28125 43.8125 
Q 32.671875 45.40625 29.15625 45.40625 
Q 23.53125 45.40625 19.453125 41.84375 
Q 15.375 38.28125 15.375 28.328125 
L 15.375 0 
z
" id="ArialMT-110"/>
       <path d="M 40.4375 19 
L 49.078125 17.875 
Q 47.65625 8.9375 41.8125 3.875 
Q 35.984375 -1.171875 27.484375 -1.171875 
Q 16.84375 -1.171875 10.375 5.78125 
Q 3.90625 12.75 3.90625 25.734375 
Q 3.90625 34.125 6.6875 40.421875 
Q 9.46875 46.734375 15.15625 49.875 
Q 20.84375 53.03125 27.546875 53.03125 
Q 35.984375 53.03125 41.359375 48.75 
Q 46.734375 44.484375 48.25 36.625 
L 39.703125 35.296875 
Q 38.484375 40.53125 35.375 43.15625 
Q 32.28125 45.796875 27.875 45.796875 
Q 21.234375 45.796875 17.078125 41.03125 
Q 12.9375 36.28125 12.9375 25.984375 
Q 12.9375 15.53125 16.9375 10.796875 
Q 20.953125 6.0625 27.390625 6.0625 
Q 32.5625 6.0625 36.03125 9.234375 
Q 39.5 12.40625 40.4375 19 
z
" id="ArialMT-99"/>
      </defs>
      <use xlink:href="#ArialMT-65"/>
      <use x="66.699219" xlink:href="#ArialMT-98"/>
      <use x="122.314453" xlink:href="#ArialMT-117"/>
      <use x="177.929688" xlink:href="#ArialMT-110"/>
      <use x="233.544922" xlink:href="#ArialMT-100"/>
      <use x="289.160156" xlink:href="#ArialMT-97"/>
      <use x="344.775391" xlink:href="#ArialMT-110"/>
      <use x="400.390625" xlink:href="#ArialMT-99"/>
      <use x="450.390625" xlink:href="#ArialMT-101"/>
     </g>
    </g>
   </g>
   <g id="PolyCollection_1">
    <defs>
     <path d="M 453.699956 -157.064867 
L 317.964113 -157.064867 
L 300.044517 -165.348678 
L 282.670927 -173.63249 
L 267.62826 -181.916301 
L 256.512487 -190.200113 
L 250.38856 -198.483924 
L 249.578182 -206.767736 
L 253.645207 -215.051547 
L 261.572882 -223.335359 
L 272.058315 -231.61917 
L 283.816779 -239.902982 
L 295.803053 -248.186793 
L 307.305864 -256.470605 
L 317.927106 -264.754416 
L 327.494449 -273.038228 
L 335.963066 -281.322039 
L 343.344963 -289.605851 
L 349.677442 -297.889662 
L 355.020432 -306.173474 
L 359.46341 -314.457285 
L 363.126112 -322.741096 
L 366.147191 -331.024908 
L 368.664695 -339.308719 
L 370.796901 -347.592531 
L 372.631014 -355.876342 
L 374.222574 -364.160154 
L 375.603426 -372.443965 
L 376.793333 -380.727777 
L 377.810356 -389.011588 
L 378.677122 -397.2954 
L 379.422407 -405.579211 
L 380.079103 -413.863023 
L 380.680113 -422.146834 
L 381.253664 -430.430646 
L 381.819174 -438.714457 
L 382.38466 -446.998269 
L 382.946379 -455.28208 
L 383.490992 -463.565892 
L 383.999805 -471.849703 
L 384.453969 -480.133515 
L 384.839172 -488.417326 
L 385.148581 -496.701138 
L 385.383473 -504.984949 
L 385.55181 -513.268761 
L 385.665621 -521.552572 
L 385.738189 -529.836384 
L 385.781821 -538.120195 
L 385.806558 -546.404006 
L 385.819784 -554.687818 
L 385.826454 -562.971629 
L 385.829627 -571.255441 
L 385.831051 -579.539252 
L 385.831655 -587.823064 
L 385.831896 -596.106875 
L 385.831987 -604.390687 
L 385.832019 -612.674498 
L 385.83203 -620.95831 
L 385.832033 -629.242121 
L 385.832034 -637.525933 
L 385.832035 -645.809744 
L 385.832035 -654.093556 
L 385.832035 -662.377367 
L 385.832035 -670.661179 
L 385.832035 -678.94499 
L 385.832035 -687.228802 
L 385.832035 -695.512613 
L 385.832035 -703.796425 
L 385.832035 -712.080236 
L 385.832035 -720.364048 
L 385.832035 -728.647859 
L 385.832035 -736.931671 
L 385.832034 -745.215482 
L 385.832034 -753.499294 
L 385.832031 -761.783105 
L 385.832023 -770.066916 
L 385.831997 -778.350728 
L 385.831925 -786.634539 
L 385.831731 -794.918351 
L 385.831241 -803.202162 
L 385.830076 -811.485974 
L 385.82746 -819.769785 
L 385.821927 -828.053597 
L 385.81091 -836.337408 
L 385.790273 -844.62122 
L 385.753941 -852.905031 
L 385.693898 -861.188843 
L 385.600904 -869.472654 
L 385.46622 -877.756466 
L 385.284362 -886.040277 
L 385.056438 -894.324089 
L 384.793055 -902.6079 
L 384.515496 -910.891712 
L 384.254002 -919.175523 
L 384.042854 -927.459335 
L 383.913154 -935.743146 
L 383.885342 -944.026958 
L 383.963924 -952.310769 
L 384.136279 -960.594581 
L 384.375972 -968.878392 
L 384.649396 -977.162204 
L 387.014674 -977.162204 
L 387.014674 -977.162204 
L 387.288097 -968.878392 
L 387.527791 -960.594581 
L 387.700145 -952.310769 
L 387.778727 -944.026958 
L 387.750915 -935.743146 
L 387.621215 -927.459335 
L 387.410068 -919.175523 
L 387.148574 -910.891712 
L 386.871014 -902.6079 
L 386.607632 -894.324089 
L 386.379707 -886.040277 
L 386.19785 -877.756466 
L 386.063165 -869.472654 
L 385.970171 -861.188843 
L 385.910129 -852.905031 
L 385.873797 -844.62122 
L 385.85316 -836.337408 
L 385.842143 -828.053597 
L 385.83661 -819.769785 
L 385.833994 -811.485974 
L 385.832828 -803.202162 
L 385.832339 -794.918351 
L 385.832145 -786.634539 
L 385.832072 -778.350728 
L 385.832047 -770.066916 
L 385.832038 -761.783105 
L 385.832036 -753.499294 
L 385.832035 -745.215482 
L 385.832035 -736.931671 
L 385.832035 -728.647859 
L 385.832035 -720.364048 
L 385.832035 -712.080236 
L 385.832035 -703.796425 
L 385.832035 -695.512613 
L 385.832035 -687.228802 
L 385.832035 -678.94499 
L 385.832035 -670.661179 
L 385.832035 -662.377367 
L 385.832035 -654.093556 
L 385.832035 -645.809744 
L 385.832035 -637.525933 
L 385.832036 -629.242121 
L 385.83204 -620.95831 
L 385.832051 -612.674498 
L 385.832083 -604.390687 
L 385.832174 -596.106875 
L 385.832415 -587.823064 
L 385.833018 -579.539252 
L 385.834442 -571.255441 
L 385.837615 -562.971629 
L 385.844285 -554.687818 
L 385.857512 -546.404006 
L 385.882249 -538.120195 
L 385.92588 -529.836384 
L 385.998448 -521.552572 
L 386.11226 -513.268761 
L 386.280597 -504.984949 
L 386.515489 -496.701138 
L 386.824898 -488.417326 
L 387.210101 -480.133515 
L 387.664265 -471.849703 
L 388.173078 -463.565892 
L 388.717691 -455.28208 
L 389.27941 -446.998269 
L 389.844895 -438.714457 
L 390.410406 -430.430646 
L 390.983956 -422.146834 
L 391.584967 -413.863023 
L 392.241662 -405.579211 
L 392.986948 -397.2954 
L 393.853713 -389.011588 
L 394.870737 -380.727777 
L 396.060643 -372.443965 
L 397.441496 -364.160154 
L 399.033056 -355.876342 
L 400.867169 -347.592531 
L 402.999374 -339.308719 
L 405.516878 -331.024908 
L 408.537958 -322.741096 
L 412.200659 -314.457285 
L 416.643638 -306.173474 
L 421.986627 -297.889662 
L 428.319106 -289.605851 
L 435.701004 -281.322039 
L 444.169621 -273.038228 
L 453.736964 -264.754416 
L 464.358206 -256.470605 
L 475.861016 -248.186793 
L 487.84729 -239.902982 
L 499.605754 -231.61917 
L 510.091188 -223.335359 
L 518.018863 -215.051547 
L 522.085888 -206.767736 
L 521.275509 -198.483924 
L 515.151582 -190.200113 
L 504.035809 -181.916301 
L 488.993143 -173.63249 
L 471.619553 -165.348678 
L 453.699956 -157.064867 
z
" id="m123aef8ec3" style="stroke:#4c4c4c;stroke-width:5;"/>
    </defs>
    <g clip-path="url(#pfc2436bfc3)">
     <use style="fill:#5875a4;stroke:#4c4c4c;stroke-width:5;" x="0" xlink:href="#m123aef8ec3" y="1296"/>
    </g>
   </g>
   <g id="PolyCollection_2">
    <defs>
     <path d="M 745.57855 -162.158233 
L 707.354784 -162.158233 
L 703.340388 -166.810583 
L 698.944271 -171.462933 
L 694.219181 -176.115283 
L 689.226117 -180.767633 
L 684.029274 -185.419983 
L 678.691528 -190.072332 
L 673.271342 -194.724682 
L 667.821667 -199.377032 
L 662.39101 -204.029382 
L 657.026349 -208.681732 
L 651.777187 -213.334082 
L 646.699793 -217.986432 
L 641.860614 -222.638782 
L 637.337998 -227.291132 
L 633.221643 -231.943481 
L 629.60955 -236.595831 
L 626.602623 -241.248181 
L 624.297359 -245.900531 
L 622.777337 -250.552881 
L 622.104392 -255.205231 
L 622.310465 -259.857581 
L 623.391161 -264.509931 
L 625.302013 -269.16228 
L 627.958255 -273.81463 
L 631.238594 -278.46698 
L 634.993027 -283.11933 
L 639.054176 -287.77168 
L 643.251028 -292.42403 
L 647.423509 -297.07638 
L 651.436004 -301.72873 
L 655.187997 -306.38108 
L 658.620293 -311.033429 
L 661.715995 -315.685779 
L 664.496177 -320.338129 
L 667.011094 -324.990479 
L 669.328473 -329.642829 
L 671.520885 -334.295179 
L 673.654222 -338.947529 
L 675.779026 -343.599879 
L 677.925738 -348.252229 
L 680.104186 -352.904578 
L 682.306783 -357.556928 
L 684.514334 -362.209278 
L 686.70296 -366.861628 
L 688.850649 -371.513978 
L 690.942201 -376.166328 
L 692.971824 -380.818678 
L 694.943185 -385.471028 
L 696.867244 -390.123377 
L 698.75858 -394.775727 
L 700.63109 -399.428077 
L 702.493967 -404.080427 
L 704.348662 -408.732777 
L 706.187288 -413.385127 
L 707.992652 -418.037477 
L 709.739778 -422.689827 
L 711.398633 -427.342177 
L 712.937594 -431.994526 
L 714.327173 -436.646876 
L 715.543502 -441.299226 
L 716.571207 -445.951576 
L 717.405324 -450.603926 
L 718.052118 -455.256276 
L 718.528728 -459.908626 
L 718.861731 -464.560976 
L 719.084793 -469.213325 
L 719.235678 -473.865675 
L 719.352936 -478.518025 
L 719.472607 -483.170375 
L 719.62527 -487.822725 
L 719.833731 -492.475075 
L 720.111554 -497.127425 
L 720.46254 -501.779775 
L 720.881184 -506.432125 
L 721.353974 -511.084474 
L 721.861369 -515.736824 
L 722.380174 -520.389174 
L 722.886051 -525.041524 
L 723.355887 -529.693874 
L 723.76982 -534.346224 
L 724.112759 -538.998574 
L 724.375356 -543.650924 
L 724.554402 -548.303273 
L 724.652718 -552.955623 
L 724.678598 -557.607973 
L 724.644894 -562.260323 
L 724.567823 -566.912673 
L 724.465581 -571.565023 
L 724.356849 -576.217373 
L 724.2593 -580.869723 
L 724.188215 -585.522073 
L 724.155346 -590.174422 
L 724.168127 -594.826772 
L 724.22933 -599.479122 
L 724.337188 -604.131472 
L 724.485985 -608.783822 
L 724.666991 -613.436172 
L 724.869637 -618.088522 
L 725.082749 -622.740872 
L 727.850585 -622.740872 
L 727.850585 -622.740872 
L 728.063697 -618.088522 
L 728.266343 -613.436172 
L 728.447349 -608.783822 
L 728.596146 -604.131472 
L 728.704005 -599.479122 
L 728.765207 -594.826772 
L 728.777988 -590.174422 
L 728.745119 -585.522073 
L 728.674034 -580.869723 
L 728.576485 -576.217373 
L 728.467753 -571.565023 
L 728.365511 -566.912673 
L 728.28844 -562.260323 
L 728.254736 -557.607973 
L 728.280616 -552.955623 
L 728.378932 -548.303273 
L 728.557978 -543.650924 
L 728.820575 -538.998574 
L 729.163514 -534.346224 
L 729.577447 -529.693874 
L 730.047283 -525.041524 
L 730.55316 -520.389174 
L 731.071965 -515.736824 
L 731.57936 -511.084474 
L 732.05215 -506.432125 
L 732.470794 -501.779775 
L 732.82178 -497.127425 
L 733.099603 -492.475075 
L 733.308064 -487.822725 
L 733.460727 -483.170375 
L 733.580398 -478.518025 
L 733.697656 -473.865675 
L 733.848541 -469.213325 
L 734.071603 -464.560976 
L 734.404606 -459.908626 
L 734.881216 -455.256276 
L 735.52801 -450.603926 
L 736.362127 -445.951576 
L 737.389832 -441.299226 
L 738.606162 -436.646876 
L 739.99574 -431.994526 
L 741.534702 -427.342177 
L 743.193556 -422.689827 
L 744.940682 -418.037477 
L 746.746046 -413.385127 
L 748.584672 -408.732777 
L 750.439367 -404.080427 
L 752.302244 -399.428077 
L 754.174754 -394.775727 
L 756.06609 -390.123377 
L 757.990149 -385.471028 
L 759.96151 -380.818678 
L 761.991133 -376.166328 
L 764.082685 -371.513978 
L 766.230374 -366.861628 
L 768.419 -362.209278 
L 770.626551 -357.556928 
L 772.829148 -352.904578 
L 775.007596 -348.252229 
L 777.154308 -343.599879 
L 779.279112 -338.947529 
L 781.412449 -334.295179 
L 783.604861 -329.642829 
L 785.92224 -324.990479 
L 788.437157 -320.338129 
L 791.217339 -315.685779 
L 794.313041 -311.033429 
L 797.745337 -306.38108 
L 801.49733 -301.72873 
L 805.509825 -297.07638 
L 809.682306 -292.42403 
L 813.879158 -287.77168 
L 817.940307 -283.11933 
L 821.69474 -278.46698 
L 824.975079 -273.81463 
L 827.631321 -269.16228 
L 829.542173 -264.509931 
L 830.622869 -259.857581 
L 830.828942 -255.205231 
L 830.155997 -250.552881 
L 828.635975 -245.900531 
L 826.330711 -241.248181 
L 823.323784 -236.595831 
L 819.711691 -231.943481 
L 815.595336 -227.291132 
L 811.07272 -222.638782 
L 806.233541 -217.986432 
L 801.156147 -213.334082 
L 795.906985 -208.681732 
L 790.542324 -204.029382 
L 785.111667 -199.377032 
L 779.661993 -194.724682 
L 774.241806 -190.072332 
L 768.90406 -185.419983 
L 763.707217 -180.767633 
L 758.714153 -176.115283 
L 753.989063 -171.462933 
L 749.592946 -166.810583 
L 745.57855 -162.158233 
z
" id="ma999ce5eea" style="stroke:#4c4c4c;stroke-width:5;"/>
    </defs>
    <g clip-path="url(#pfc2436bfc3)">
     <use style="fill:#cc8963;stroke:#4c4c4c;stroke-width:5;" x="0" xlink:href="#ma999ce5eea" y="1296"/>
    </g>
   </g>
   <g id="PolyCollection_3">
    <defs>
     <path d="M 1132.093372 -162.679704 
L 1002.109226 -162.679704 
L 992.941815 -166.478709 
L 983.75284 -170.277714 
L 974.812959 -174.076719 
L 966.4022 -177.875723 
L 958.791968 -181.674728 
L 952.226441 -185.473733 
L 946.905137 -189.272738 
L 942.968454 -193.071743 
L 940.487715 -196.870748 
L 939.460781 -200.669753 
L 939.813714 -204.468758 
L 941.408293 -208.267763 
L 944.054542 -212.066768 
L 947.52693 -215.865773 
L 951.582554 -219.664778 
L 955.979492 -223.463783 
L 960.493598 -227.262788 
L 964.932327 -231.061793 
L 969.144556 -234.860798 
L 973.025901 -238.659803 
L 976.519496 -242.458807 
L 979.612687 -246.257812 
L 982.330412 -250.056817 
L 984.726295 -253.855822 
L 986.872574 -257.654827 
L 988.849968 -261.453832 
L 990.738455 -265.252837 
L 992.609709 -269.051842 
L 994.521716 -272.850847 
L 996.515764 -276.649852 
L 998.615756 -280.448857 
L 1000.829536 -284.247862 
L 1003.151756 -288.046867 
L 1005.56766 -291.845872 
L 1008.057197 -295.644877 
L 1010.59884 -299.443882 
L 1013.172683 -303.242886 
L 1015.76248 -307.041891 
L 1018.356529 -310.840896 
L 1020.947448 -314.639901 
L 1023.531061 -318.438906 
L 1026.104725 -322.237911 
L 1028.665457 -326.036916 
L 1031.208239 -329.835921 
L 1033.72478 -333.634926 
L 1036.202947 -337.433931 
L 1038.626939 -341.232936 
L 1040.978145 -345.031941 
L 1043.236558 -348.830946 
L 1045.382505 -352.629951 
L 1047.398452 -356.428956 
L 1049.270624 -360.227961 
L 1050.990236 -364.026966 
L 1052.554195 -367.82597 
L 1053.965197 -371.624975 
L 1055.231242 -375.42398 
L 1056.364657 -379.222985 
L 1057.380767 -383.02199 
L 1058.296383 -386.820995 
L 1059.128304 -390.62 
L 1059.891968 -394.419005 
L 1060.600411 -398.21801 
L 1061.263577 -402.017015 
L 1061.888039 -405.81602 
L 1062.477069 -409.615025 
L 1063.031023 -413.41403 
L 1063.547929 -417.213035 
L 1064.024177 -421.01204 
L 1064.455231 -424.811045 
L 1064.836257 -428.610049 
L 1065.162644 -432.409054 
L 1065.430382 -436.208059 
L 1065.636295 -440.007064 
L 1065.778188 -443.806069 
L 1065.85491 -447.605074 
L 1065.866415 -451.404079 
L 1065.813827 -455.203084 
L 1065.699553 -459.002089 
L 1065.527436 -462.801094 
L 1065.302922 -466.600099 
L 1065.033226 -470.399104 
L 1064.727424 -474.198109 
L 1064.396435 -477.997114 
L 1064.052848 -481.796119 
L 1063.710556 -485.595124 
L 1063.384212 -489.394129 
L 1063.088504 -493.193133 
L 1062.837332 -496.992138 
L 1062.642935 -500.791143 
L 1062.51507 -504.590148 
L 1062.460325 -508.389153 
L 1062.481652 -512.188158 
L 1062.578176 -515.987163 
L 1062.745293 -519.786168 
L 1062.97507 -523.585173 
L 1063.256889 -527.384178 
L 1063.578278 -531.183183 
L 1063.925821 -534.982188 
L 1064.286092 -538.781193 
L 1069.916507 -538.781193 
L 1069.916507 -538.781193 
L 1070.276778 -534.982188 
L 1070.624321 -531.183183 
L 1070.945709 -527.384178 
L 1071.227529 -523.585173 
L 1071.457306 -519.786168 
L 1071.624423 -515.987163 
L 1071.720946 -512.188158 
L 1071.742274 -508.389153 
L 1071.687529 -504.590148 
L 1071.559663 -500.791143 
L 1071.365267 -496.992138 
L 1071.114095 -493.193133 
L 1070.818387 -489.394129 
L 1070.492042 -485.595124 
L 1070.149751 -481.796119 
L 1069.806164 -477.997114 
L 1069.475175 -474.198109 
L 1069.169373 -470.399104 
L 1068.899677 -466.600099 
L 1068.675163 -462.801094 
L 1068.503045 -459.002089 
L 1068.388772 -455.203084 
L 1068.336184 -451.404079 
L 1068.347688 -447.605074 
L 1068.424411 -443.806069 
L 1068.566303 -440.007064 
L 1068.772217 -436.208059 
L 1069.039954 -432.409054 
L 1069.366342 -428.610049 
L 1069.747368 -424.811045 
L 1070.178421 -421.01204 
L 1070.65467 -417.213035 
L 1071.171576 -413.41403 
L 1071.72553 -409.615025 
L 1072.31456 -405.81602 
L 1072.939022 -402.017015 
L 1073.602188 -398.21801 
L 1074.31063 -394.419005 
L 1075.074295 -390.62 
L 1075.906215 -386.820995 
L 1076.821832 -383.02199 
L 1077.837941 -379.222985 
L 1078.971357 -375.42398 
L 1080.237402 -371.624975 
L 1081.648404 -367.82597 
L 1083.212363 -364.026966 
L 1084.931975 -360.227961 
L 1086.804146 -356.428956 
L 1088.820094 -352.629951 
L 1090.966041 -348.830946 
L 1093.224454 -345.031941 
L 1095.57566 -341.232936 
L 1097.999652 -337.433931 
L 1100.477819 -333.634926 
L 1102.99436 -329.835921 
L 1105.537142 -326.036916 
L 1108.097874 -322.237911 
L 1110.671538 -318.438906 
L 1113.255151 -314.639901 
L 1115.846069 -310.840896 
L 1118.440119 -307.041891 
L 1121.029916 -303.242886 
L 1123.603759 -299.443882 
L 1126.145402 -295.644877 
L 1128.634938 -291.845872 
L 1131.050843 -288.046867 
L 1133.373062 -284.247862 
L 1135.586843 -280.448857 
L 1137.686834 -276.649852 
L 1139.680882 -272.850847 
L 1141.592889 -269.051842 
L 1143.464144 -265.252837 
L 1145.35263 -261.453832 
L 1147.330025 -257.654827 
L 1149.476304 -253.855822 
L 1151.872186 -250.056817 
L 1154.589912 -246.257812 
L 1157.683103 -242.458807 
L 1161.176698 -238.659803 
L 1165.058042 -234.860798 
L 1169.270272 -231.061793 
L 1173.709001 -227.262788 
L 1178.223107 -223.463783 
L 1182.620045 -219.664778 
L 1186.675669 -215.865773 
L 1190.148057 -212.066768 
L 1192.794305 -208.267763 
L 1194.388885 -204.468758 
L 1194.741818 -200.669753 
L 1193.714884 -196.870748 
L 1191.234144 -193.071743 
L 1187.297462 -189.272738 
L 1181.976158 -185.473733 
L 1175.410631 -181.674728 
L 1167.800399 -177.875723 
L 1159.389639 -174.076719 
L 1150.449759 -170.277714 
L 1141.260784 -166.478709 
L 1132.093372 -162.679704 
z
" id="m7169dcdaa0" style="stroke:#4c4c4c;stroke-width:5;"/>
    </defs>
    <g clip-path="url(#pfc2436bfc3)">
     <use style="fill:#5f9e6e;stroke:#4c4c4c;stroke-width:5;" x="0" xlink:href="#m7169dcdaa0" y="1296"/>
    </g>
   </g>
   <g id="line2d_6">
    <path clip-path="url(#pfc2436bfc3)" d="M 385.832035 1103.802148 
L 385.832035 958.06341 
" style="fill:none;stroke:#4c4c4c;stroke-linecap:round;stroke-width:5;"/>
   </g>
   <g id="line2d_7">
    <path clip-path="url(#pfc2436bfc3)" d="M 385.832035 1103.802148 
L 385.832035 1044.282892 
" style="fill:none;stroke:#4c4c4c;stroke-linecap:round;stroke-width:15;"/>
   </g>
   <g id="line2d_8">
    <path clip-path="url(#pfc2436bfc3)" d="M 726.466667 1103.802148 
L 726.466667 825.674786 
" style="fill:none;stroke:#4c4c4c;stroke-linecap:round;stroke-width:5;"/>
   </g>
   <g id="line2d_9">
    <path clip-path="url(#pfc2436bfc3)" d="M 726.466667 1060.692407 
L 726.466667 962.513448 
" style="fill:none;stroke:#4c4c4c;stroke-linecap:round;stroke-width:15;"/>
   </g>
   <g id="line2d_10">
    <path clip-path="url(#pfc2436bfc3)" d="M 1067.101299 1103.802148 
L 1067.101299 905.775466 
" style="fill:none;stroke:#4c4c4c;stroke-linecap:round;stroke-width:5;"/>
   </g>
   <g id="line2d_11">
    <path clip-path="url(#pfc2436bfc3)" d="M 1067.101299 1103.802148 
L 1067.101299 1022.588958 
" style="fill:none;stroke:#4c4c4c;stroke-linecap:round;stroke-width:15;"/>
   </g>
   <g id="line2d_12">
    <path clip-path="url(#pfc2436bfc3)" d="M 385.832035 299.844358 
L 385.832035 281.802216 
L 726.466667 281.802216 
L 726.466667 299.844358 
" style="fill:none;stroke:#333333;stroke-linecap:round;stroke-width:1.5;"/>
   </g>
   <g id="line2d_13">
    <path clip-path="url(#pfc2436bfc3)" d="M 726.466667 192.895406 
L 726.466667 174.853264 
L 1067.101299 174.853264 
L 1067.101299 192.895406 
" style="fill:none;stroke:#333333;stroke-linecap:round;stroke-width:1.5;"/>
   </g>
   <g id="patch_3">
    <path d="M 202.32 1179.94 
L 202.32 96.24 
" style="fill:none;stroke:#cccccc;stroke-linecap:square;stroke-linejoin:miter;stroke-width:2.5;"/>
   </g>
   <g id="patch_4">
    <path d="M 1242 1179.94 
L 1242 96.24 
" style="fill:none;stroke:#cccccc;stroke-linecap:square;stroke-linejoin:miter;stroke-width:2.5;"/>
   </g>
   <g id="patch_5">
    <path d="M 202.32 1179.94 
L 1242 1179.94 
" style="fill:none;stroke:#cccccc;stroke-linecap:square;stroke-linejoin:miter;stroke-width:2.5;"/>
   </g>
   <g id="patch_6">
    <path d="M 202.32 96.24 
L 1242 96.24 
" style="fill:none;stroke:#cccccc;stroke-linecap:square;stroke-linejoin:miter;stroke-width:2.5;"/>
   </g>
   <g id="PathCollection_1">
    <defs>
     <path d="M 0 5 
C 1.326016 5 2.597899 4.473168 3.535534 3.535534 
C 4.473168 2.597899 5 1.326016 5 0 
C 5 -1.326016 4.473168 -2.597899 3.535534 -3.535534 
C 2.597899 -4.473168 1.326016 -5 0 -5 
C -1.326016 -5 -2.597899 -4.473168 -3.535534 -3.535534 
C -4.473168 -2.597899 -5 -1.326016 -5 0 
C -5 1.326016 -4.473168 2.597899 -3.535534 3.535534 
C -2.597899 4.473168 -1.326016 5 0 5 
z
" id="m05651e5948" style="stroke:#4c4c4c;stroke-width:2;"/>
    </defs>
    <g clip-path="url(#pfc2436bfc3)">
     <use style="fill:#ffffff;stroke:#4c4c4c;stroke-width:2;" x="385.832035" xlink:href="#m05651e5948" y="1097.127091"/>
    </g>
   </g>
   <g id="PathCollection_2">
    <g clip-path="url(#pfc2436bfc3)">
     <use style="fill:#ffffff;stroke:#4c4c4c;stroke-width:2;" x="726.466667" xlink:href="#m05651e5948" y="1021.476449"/>
    </g>
   </g>
   <g id="PathCollection_3">
    <g clip-path="url(#pfc2436bfc3)">
     <use style="fill:#ffffff;stroke:#4c4c4c;stroke-width:2;" x="1067.101299" xlink:href="#m05651e5948" y="1077.658176"/>
    </g>
   </g>
   <g id="text_10">
    <!-- **** -->
    <g transform="translate(517.227476 270.864716)scale(0.5 -0.5)">
     <defs>
      <path d="M 3.125 58.453125 
L 5.375 65.375 
Q 13.140625 62.640625 16.65625 60.640625 
Q 15.71875 69.484375 15.671875 72.796875 
L 22.75 72.796875 
Q 22.609375 67.96875 21.625 60.6875 
Q 26.65625 63.234375 33.15625 65.375 
L 35.40625 58.453125 
Q 29.203125 56.390625 23.25 55.71875 
Q 26.21875 53.125 31.640625 46.484375 
L 25.78125 42.328125 
Q 22.953125 46.1875 19.09375 52.828125 
Q 15.484375 45.953125 12.75 42.328125 
L 6.984375 46.484375 
Q 12.640625 53.46875 15.09375 55.71875 
Q 8.796875 56.9375 3.125 58.453125 
z
" id="ArialMT-42"/>
     </defs>
     <use xlink:href="#ArialMT-42"/>
     <use x="38.916016" xlink:href="#ArialMT-42"/>
     <use x="77.832031" xlink:href="#ArialMT-42"/>
     <use x="116.748047" xlink:href="#ArialMT-42"/>
    </g>
   </g>
   <g id="text_11">
    <!-- **** -->
    <g transform="translate(857.862108 163.915764)scale(0.5 -0.5)">
     <use xlink:href="#ArialMT-42"/>
     <use x="38.916016" xlink:href="#ArialMT-42"/>
     <use x="77.832031" xlink:href="#ArialMT-42"/>
     <use x="116.748047" xlink:href="#ArialMT-42"/>
    </g>
   </g>
   <g id="text_12">
    <!-- Campylobacter showae (K.W. p=4.40e-11) -->
    <g transform="translate(252.261563 90.24)scale(0.5 -0.5)">
     <defs>
      <path d="M 58.796875 25.09375 
L 68.265625 22.703125 
Q 65.28125 11.03125 57.546875 4.90625 
Q 49.8125 -1.21875 38.625 -1.21875 
Q 27.046875 -1.21875 19.796875 3.484375 
Q 12.546875 8.203125 8.765625 17.140625 
Q 4.984375 26.078125 4.984375 36.328125 
Q 4.984375 47.515625 9.25 55.828125 
Q 13.53125 64.15625 21.40625 68.46875 
Q 29.296875 72.796875 38.765625 72.796875 
Q 49.515625 72.796875 56.828125 67.328125 
Q 64.15625 61.859375 67.046875 51.953125 
L 57.71875 49.75 
Q 55.21875 57.5625 50.484375 61.125 
Q 45.75 64.703125 38.578125 64.703125 
Q 30.328125 64.703125 24.78125 60.734375 
Q 19.234375 56.78125 16.984375 50.109375 
Q 14.75 43.453125 14.75 36.375 
Q 14.75 27.25 17.40625 20.4375 
Q 20.0625 13.625 25.671875 10.25 
Q 31.296875 6.890625 37.84375 6.890625 
Q 45.796875 6.890625 51.3125 11.46875 
Q 56.84375 16.0625 58.796875 25.09375 
z
" id="ArialMT-67"/>
      <path d="M 6.59375 0 
L 6.59375 51.859375 
L 14.453125 51.859375 
L 14.453125 44.578125 
Q 16.890625 48.390625 20.9375 50.703125 
Q 25 53.03125 30.171875 53.03125 
Q 35.9375 53.03125 39.625 50.640625 
Q 43.3125 48.25 44.828125 43.953125 
Q 50.984375 53.03125 60.84375 53.03125 
Q 68.5625 53.03125 72.703125 48.75 
Q 76.859375 44.484375 76.859375 35.59375 
L 76.859375 0 
L 68.109375 0 
L 68.109375 32.671875 
Q 68.109375 37.9375 67.25 40.25 
Q 66.40625 42.578125 64.15625 43.984375 
Q 61.921875 45.40625 58.890625 45.40625 
Q 53.421875 45.40625 49.796875 41.765625 
Q 46.1875 38.140625 46.1875 30.125 
L 46.1875 0 
L 37.40625 0 
L 37.40625 33.6875 
Q 37.40625 39.546875 35.25 42.46875 
Q 33.109375 45.40625 28.21875 45.40625 
Q 24.515625 45.40625 21.359375 43.453125 
Q 18.21875 41.5 16.796875 37.734375 
Q 15.375 33.984375 15.375 26.90625 
L 15.375 0 
z
" id="ArialMT-109"/>
      <path d="M 6.59375 -19.875 
L 6.59375 51.859375 
L 14.59375 51.859375 
L 14.59375 45.125 
Q 17.4375 49.078125 21 51.046875 
Q 24.5625 53.03125 29.640625 53.03125 
Q 36.28125 53.03125 41.359375 49.609375 
Q 46.4375 46.1875 49.015625 39.953125 
Q 51.609375 33.734375 51.609375 26.3125 
Q 51.609375 18.359375 48.75 11.984375 
Q 45.90625 5.609375 40.453125 2.21875 
Q 35.015625 -1.171875 29 -1.171875 
Q 24.609375 -1.171875 21.109375 0.6875 
Q 17.625 2.546875 15.375 5.375 
L 15.375 -19.875 
z
M 14.546875 25.640625 
Q 14.546875 15.625 18.59375 10.84375 
Q 22.65625 6.0625 28.421875 6.0625 
Q 34.28125 6.0625 38.453125 11.015625 
Q 42.625 15.96875 42.625 26.375 
Q 42.625 36.28125 38.546875 41.203125 
Q 34.46875 46.140625 28.8125 46.140625 
Q 23.1875 46.140625 18.859375 40.890625 
Q 14.546875 35.640625 14.546875 25.640625 
z
" id="ArialMT-112"/>
      <path id="ArialMT-32"/>
      <path d="M 3.078125 15.484375 
L 11.765625 16.84375 
Q 12.5 11.625 15.84375 8.84375 
Q 19.1875 6.0625 25.203125 6.0625 
Q 31.25 6.0625 34.171875 8.515625 
Q 37.109375 10.984375 37.109375 14.3125 
Q 37.109375 17.28125 34.515625 19 
Q 32.71875 20.171875 25.53125 21.96875 
Q 15.875 24.421875 12.140625 26.203125 
Q 8.40625 27.984375 6.46875 31.125 
Q 4.546875 34.28125 4.546875 38.09375 
Q 4.546875 41.546875 6.125 44.5 
Q 7.71875 47.46875 10.453125 49.421875 
Q 12.5 50.921875 16.03125 51.96875 
Q 19.578125 53.03125 23.640625 53.03125 
Q 29.734375 53.03125 34.34375 51.265625 
Q 38.96875 49.515625 41.15625 46.5 
Q 43.359375 43.5 44.1875 38.484375 
L 35.59375 37.3125 
Q 35.015625 41.3125 32.203125 43.546875 
Q 29.390625 45.796875 24.265625 45.796875 
Q 18.21875 45.796875 15.625 43.796875 
Q 13.03125 41.796875 13.03125 39.109375 
Q 13.03125 37.40625 14.109375 36.03125 
Q 15.1875 34.625 17.484375 33.6875 
Q 18.796875 33.203125 25.25 31.453125 
Q 34.578125 28.953125 38.25 27.359375 
Q 41.9375 25.78125 44.03125 22.75 
Q 46.140625 19.734375 46.140625 15.234375 
Q 46.140625 10.84375 43.578125 6.953125 
Q 41.015625 3.078125 36.171875 0.953125 
Q 31.34375 -1.171875 25.25 -1.171875 
Q 15.140625 -1.171875 9.84375 3.03125 
Q 4.546875 7.234375 3.078125 15.484375 
z
" id="ArialMT-115"/>
      <path d="M 16.15625 0 
L 0.296875 51.859375 
L 9.375 51.859375 
L 17.625 21.921875 
L 20.703125 10.796875 
Q 20.90625 11.625 23.390625 21.484375 
L 31.640625 51.859375 
L 40.671875 51.859375 
L 48.4375 21.78125 
L 51.03125 11.859375 
L 54 21.875 
L 62.890625 51.859375 
L 71.4375 51.859375 
L 55.21875 0 
L 46.09375 0 
L 37.84375 31.0625 
L 35.84375 39.890625 
L 25.34375 0 
z
" id="ArialMT-119"/>
      <path d="M 23.390625 -21.046875 
Q 16.109375 -11.859375 11.078125 0.4375 
Q 6.0625 12.75 6.0625 25.921875 
Q 6.0625 37.546875 9.8125 48.1875 
Q 14.203125 60.546875 23.390625 72.796875 
L 29.6875 72.796875 
Q 23.78125 62.640625 21.875 58.296875 
Q 18.890625 51.5625 17.1875 44.234375 
Q 15.09375 35.109375 15.09375 25.875 
Q 15.09375 2.390625 29.6875 -21.046875 
z
" id="ArialMT-40"/>
      <path d="M 7.328125 0 
L 7.328125 71.578125 
L 16.796875 71.578125 
L 16.796875 36.078125 
L 52.34375 71.578125 
L 65.1875 71.578125 
L 35.15625 42.578125 
L 66.5 0 
L 54 0 
L 28.515625 36.234375 
L 16.796875 24.8125 
L 16.796875 0 
z
" id="ArialMT-75"/>
      <path d="M 9.078125 0 
L 9.078125 10.015625 
L 19.09375 10.015625 
L 19.09375 0 
z
" id="ArialMT-46"/>
      <path d="M 20.21875 0 
L 1.21875 71.578125 
L 10.9375 71.578125 
L 21.828125 24.65625 
Q 23.578125 17.28125 24.859375 10.015625 
Q 27.59375 21.484375 28.078125 23.25 
L 41.703125 71.578125 
L 53.125 71.578125 
L 63.375 35.359375 
Q 67.234375 21.875 68.953125 10.015625 
Q 70.3125 16.796875 72.515625 25.59375 
L 83.734375 71.578125 
L 93.265625 71.578125 
L 73.640625 0 
L 64.5 0 
L 49.421875 54.546875 
Q 47.515625 61.375 47.171875 62.9375 
Q 46.046875 58.015625 45.0625 54.546875 
L 29.890625 0 
z
" id="ArialMT-87"/>
      <path d="M 52.828125 42.09375 
L 5.5625 42.09375 
L 5.5625 50.296875 
L 52.828125 50.296875 
z
M 52.828125 20.359375 
L 5.5625 20.359375 
L 5.5625 28.5625 
L 52.828125 28.5625 
z
" id="ArialMT-61"/>
      <path d="M 3.171875 21.484375 
L 3.171875 30.328125 
L 30.171875 30.328125 
L 30.171875 21.484375 
z
" id="ArialMT-45"/>
      <path d="M 37.25 0 
L 28.46875 0 
L 28.46875 56 
Q 25.296875 52.984375 20.140625 49.953125 
Q 14.984375 46.921875 10.890625 45.40625 
L 10.890625 53.90625 
Q 18.265625 57.375 23.78125 62.296875 
Q 29.296875 67.234375 31.59375 71.875 
L 37.25 71.875 
z
" id="ArialMT-49"/>
      <path d="M 12.359375 -21.046875 
L 6.0625 -21.046875 
Q 20.65625 2.390625 20.65625 25.875 
Q 20.65625 35.0625 18.5625 44.09375 
Q 16.890625 51.421875 13.921875 58.15625 
Q 12.015625 62.546875 6.0625 72.796875 
L 12.359375 72.796875 
Q 21.53125 60.546875 25.921875 48.1875 
Q 29.6875 37.546875 29.6875 25.921875 
Q 29.6875 12.75 24.625 0.4375 
Q 19.578125 -11.859375 12.359375 -21.046875 
z
" id="ArialMT-41"/>
     </defs>
     <use xlink:href="#ArialMT-67"/>
     <use x="72.216797" xlink:href="#ArialMT-97"/>
     <use x="127.832031" xlink:href="#ArialMT-109"/>
     <use x="211.132812" xlink:href="#ArialMT-112"/>
     <use x="266.748047" xlink:href="#ArialMT-121"/>
     <use x="316.748047" xlink:href="#ArialMT-108"/>
     <use x="338.964844" xlink:href="#ArialMT-111"/>
     <use x="394.580078" xlink:href="#ArialMT-98"/>
     <use x="450.195312" xlink:href="#ArialMT-97"/>
     <use x="505.810547" xlink:href="#ArialMT-99"/>
     <use x="555.810547" xlink:href="#ArialMT-116"/>
     <use x="583.59375" xlink:href="#ArialMT-101"/>
     <use x="639.208984" xlink:href="#ArialMT-114"/>
     <use x="672.509766" xlink:href="#ArialMT-32"/>
     <use x="700.292969" xlink:href="#ArialMT-115"/>
     <use x="750.292969" xlink:href="#ArialMT-104"/>
     <use x="805.908203" xlink:href="#ArialMT-111"/>
     <use x="861.523438" xlink:href="#ArialMT-119"/>
     <use x="933.740234" xlink:href="#ArialMT-97"/>
     <use x="989.355469" xlink:href="#ArialMT-101"/>
     <use x="1044.970703" xlink:href="#ArialMT-32"/>
     <use x="1072.753906" xlink:href="#ArialMT-40"/>
     <use x="1106.054688" xlink:href="#ArialMT-75"/>
     <use x="1172.753906" xlink:href="#ArialMT-46"/>
     <use x="1200.537109" xlink:href="#ArialMT-87"/>
     <use x="1289.421875" xlink:href="#ArialMT-46"/>
     <use x="1317.205078" xlink:href="#ArialMT-32"/>
     <use x="1344.988281" xlink:href="#ArialMT-112"/>
     <use x="1400.603516" xlink:href="#ArialMT-61"/>
     <use x="1459.001953" xlink:href="#ArialMT-52"/>
     <use x="1514.617188" xlink:href="#ArialMT-46"/>
     <use x="1542.400391" xlink:href="#ArialMT-52"/>
     <use x="1598.015625" xlink:href="#ArialMT-48"/>
     <use x="1653.630859" xlink:href="#ArialMT-101"/>
     <use x="1709.246094" xlink:href="#ArialMT-45"/>
     <use x="1742.546875" xlink:href="#ArialMT-49"/>
     <use x="1790.787109" xlink:href="#ArialMT-49"/>
     <use x="1846.402344" xlink:href="#ArialMT-41"/>
    </g>
   </g>
  </g>
 </g>
 <defs>
  <clipPath id="pfc2436bfc3">
   <rect height="1083.7" width="1039.68" x="202.32" y="96.24"/>
  </clipPath>
 </defs>
</svg>
