<?xml version="1.0" encoding="utf-8" standalone="no"?>
<!DOCTYPE svg PUBLIC "-//W3C//DTD SVG 1.1//EN"
  "http://www.w3.org/Graphics/SVG/1.1/DTD/svg11.dtd">
<!-- Created with matplotlib (https://matplotlib.org/) -->
<svg height="1296pt" version="1.1" viewBox="0 0 1296 1296" width="1296pt" xmlns="http://www.w3.org/2000/svg" xmlns:xlink="http://www.w3.org/1999/xlink">
 <metadata>
  <rdf:RDF xmlns:cc="http://creativecommons.org/ns#" xmlns:dc="http://purl.org/dc/elements/1.1/" xmlns:rdf="http://www.w3.org/1999/02/22-rdf-syntax-ns#">
   <cc:Work>
    <dc:type rdf:resource="http://purl.org/dc/dcmitype/StillImage"/>
    <dc:date>2022-06-29T14:05:41.119006</dc:date>
    <dc:format>image/svg+xml</dc:format>
    <dc:creator>
     <cc:Agent>
      <dc:title>Matplotlib v3.3.3, https://matplotlib.org/</dc:title>
     </cc:Agent>
    </dc:creator>
   </cc:Work>
  </rdf:RDF>
 </metadata>
 <defs>
  <style type="text/css">*{stroke-linecap:butt;stroke-linejoin:round;}</style>
 </defs>
 <g id="figure_1">
  <g id="patch_1">
   <path d="M 0 1296 
L 1296 1296 
L 1296 0 
L 0 0 
z
" style="fill:#ffffff;"/>
  </g>
  <g id="axes_1">
   <g id="patch_2">
    <path d="M 230.13 1179.94 
L 1242 1179.94 
L 1242 96.24 
L 230.13 96.24 
z
" style="fill:#ffffff;"/>
   </g>
   <g id="matplotlib.axis_1">
    <g id="xtick_1">
     <g id="text_1">
      <!-- Healthy -->
      <g style="fill:#262626;" transform="translate(335.491536 1231.229063)scale(0.5 -0.5)">
       <defs>
        <path d="M 8.015625 0 
L 8.015625 71.578125 
L 17.484375 71.578125 
L 17.484375 42.1875 
L 54.6875 42.1875 
L 54.6875 71.578125 
L 64.15625 71.578125 
L 64.15625 0 
L 54.6875 0 
L 54.6875 33.734375 
L 17.484375 33.734375 
L 17.484375 0 
z
" id="ArialMT-72"/>
        <path d="M 42.09375 16.703125 
L 51.171875 15.578125 
Q 49.03125 7.625 43.21875 3.21875 
Q 37.40625 -1.171875 28.375 -1.171875 
Q 17 -1.171875 10.328125 5.828125 
Q 3.65625 12.84375 3.65625 25.484375 
Q 3.65625 38.578125 10.390625 45.796875 
Q 17.140625 53.03125 27.875 53.03125 
Q 38.28125 53.03125 44.875 45.953125 
Q 51.46875 38.875 51.46875 26.03125 
Q 51.46875 25.25 51.421875 23.6875 
L 12.75 23.6875 
Q 13.234375 15.140625 17.578125 10.59375 
Q 21.921875 6.0625 28.421875 6.0625 
Q 33.25 6.0625 36.671875 8.59375 
Q 40.09375 11.140625 42.09375 16.703125 
z
M 13.234375 30.90625 
L 42.1875 30.90625 
Q 41.609375 37.453125 38.875 40.71875 
Q 34.671875 45.796875 27.984375 45.796875 
Q 21.921875 45.796875 17.796875 41.75 
Q 13.671875 37.703125 13.234375 30.90625 
z
" id="ArialMT-101"/>
        <path d="M 40.4375 6.390625 
Q 35.546875 2.25 31.03125 0.53125 
Q 26.515625 -1.171875 21.34375 -1.171875 
Q 12.796875 -1.171875 8.203125 3 
Q 3.609375 7.171875 3.609375 13.671875 
Q 3.609375 17.484375 5.34375 20.625 
Q 7.078125 23.78125 9.890625 25.6875 
Q 12.703125 27.59375 16.21875 28.5625 
Q 18.796875 29.25 24.03125 29.890625 
Q 34.671875 31.15625 39.703125 32.90625 
Q 39.75 34.71875 39.75 35.203125 
Q 39.75 40.578125 37.25 42.78125 
Q 33.890625 45.75 27.25 45.75 
Q 21.046875 45.75 18.09375 43.578125 
Q 15.140625 41.40625 13.71875 35.890625 
L 5.125 37.0625 
Q 6.296875 42.578125 8.984375 45.96875 
Q 11.671875 49.359375 16.75 51.1875 
Q 21.828125 53.03125 28.515625 53.03125 
Q 35.15625 53.03125 39.296875 51.46875 
Q 43.453125 49.90625 45.40625 47.53125 
Q 47.359375 45.171875 48.140625 41.546875 
Q 48.578125 39.3125 48.578125 33.453125 
L 48.578125 21.734375 
Q 48.578125 9.46875 49.140625 6.21875 
Q 49.703125 2.984375 51.375 0 
L 42.1875 0 
Q 40.828125 2.734375 40.4375 6.390625 
z
M 39.703125 26.03125 
Q 34.90625 24.078125 25.34375 22.703125 
Q 19.921875 21.921875 17.671875 20.9375 
Q 15.4375 19.96875 14.203125 18.09375 
Q 12.984375 16.21875 12.984375 13.921875 
Q 12.984375 10.40625 15.640625 8.0625 
Q 18.3125 5.71875 23.4375 5.71875 
Q 28.515625 5.71875 32.46875 7.9375 
Q 36.421875 10.15625 38.28125 14.015625 
Q 39.703125 17 39.703125 22.796875 
z
" id="ArialMT-97"/>
        <path d="M 6.390625 0 
L 6.390625 71.578125 
L 15.1875 71.578125 
L 15.1875 0 
z
" id="ArialMT-108"/>
        <path d="M 25.78125 7.859375 
L 27.046875 0.09375 
Q 23.34375 -0.6875 20.40625 -0.6875 
Q 15.625 -0.6875 12.984375 0.828125 
Q 10.359375 2.34375 9.28125 4.8125 
Q 8.203125 7.28125 8.203125 15.1875 
L 8.203125 45.015625 
L 1.765625 45.015625 
L 1.765625 51.859375 
L 8.203125 51.859375 
L 8.203125 64.703125 
L 16.9375 69.96875 
L 16.9375 51.859375 
L 25.78125 51.859375 
L 25.78125 45.015625 
L 16.9375 45.015625 
L 16.9375 14.703125 
Q 16.9375 10.9375 17.40625 9.859375 
Q 17.875 8.796875 18.921875 8.15625 
Q 19.96875 7.515625 21.921875 7.515625 
Q 23.390625 7.515625 25.78125 7.859375 
z
" id="ArialMT-116"/>
        <path d="M 6.59375 0 
L 6.59375 71.578125 
L 15.375 71.578125 
L 15.375 45.90625 
Q 21.53125 53.03125 30.90625 53.03125 
Q 36.671875 53.03125 40.921875 50.75 
Q 45.171875 48.484375 47 44.484375 
Q 48.828125 40.484375 48.828125 32.859375 
L 48.828125 0 
L 40.046875 0 
L 40.046875 32.859375 
Q 40.046875 39.453125 37.1875 42.453125 
Q 34.328125 45.453125 29.109375 45.453125 
Q 25.203125 45.453125 21.75 43.421875 
Q 18.3125 41.40625 16.84375 37.9375 
Q 15.375 34.46875 15.375 28.375 
L 15.375 0 
z
" id="ArialMT-104"/>
        <path d="M 6.203125 -19.96875 
L 5.21875 -11.71875 
Q 8.109375 -12.5 10.25 -12.5 
Q 13.1875 -12.5 14.9375 -11.515625 
Q 16.703125 -10.546875 17.828125 -8.796875 
Q 18.65625 -7.46875 20.515625 -2.25 
Q 20.75 -1.515625 21.296875 -0.09375 
L 1.609375 51.859375 
L 11.078125 51.859375 
L 21.875 21.828125 
Q 23.96875 16.109375 25.640625 9.8125 
Q 27.15625 15.875 29.25 21.625 
L 40.328125 51.859375 
L 49.125 51.859375 
L 29.390625 -0.875 
Q 26.21875 -9.421875 24.46875 -12.640625 
Q 22.125 -17 19.09375 -19.015625 
Q 16.0625 -21.046875 11.859375 -21.046875 
Q 9.328125 -21.046875 6.203125 -19.96875 
z
" id="ArialMT-121"/>
       </defs>
       <use xlink:href="#ArialMT-72"/>
       <use x="72.216797" xlink:href="#ArialMT-101"/>
       <use x="127.832031" xlink:href="#ArialMT-97"/>
       <use x="183.447266" xlink:href="#ArialMT-108"/>
       <use x="205.664062" xlink:href="#ArialMT-116"/>
       <use x="233.447266" xlink:href="#ArialMT-104"/>
       <use x="289.0625" xlink:href="#ArialMT-121"/>
      </g>
     </g>
    </g>
    <g id="xtick_2">
     <g id="text_2">
      <!-- Moderate+Severe -->
      <g style="fill:#262626;" transform="translate(581.162101 1231.229063)scale(0.5 -0.5)">
       <defs>
        <path d="M 7.421875 0 
L 7.421875 71.578125 
L 21.6875 71.578125 
L 38.625 20.90625 
Q 40.96875 13.8125 42.046875 10.296875 
Q 43.265625 14.203125 45.84375 21.78125 
L 62.984375 71.578125 
L 75.734375 71.578125 
L 75.734375 0 
L 66.609375 0 
L 66.609375 59.90625 
L 45.796875 0 
L 37.25 0 
L 16.546875 60.9375 
L 16.546875 0 
z
" id="ArialMT-77"/>
        <path d="M 3.328125 25.921875 
Q 3.328125 40.328125 11.328125 47.265625 
Q 18.015625 53.03125 27.640625 53.03125 
Q 38.328125 53.03125 45.109375 46.015625 
Q 51.90625 39.015625 51.90625 26.65625 
Q 51.90625 16.65625 48.90625 10.90625 
Q 45.90625 5.171875 40.15625 2 
Q 34.421875 -1.171875 27.640625 -1.171875 
Q 16.75 -1.171875 10.03125 5.8125 
Q 3.328125 12.796875 3.328125 25.921875 
z
M 12.359375 25.921875 
Q 12.359375 15.96875 16.703125 11.015625 
Q 21.046875 6.0625 27.640625 6.0625 
Q 34.1875 6.0625 38.53125 11.03125 
Q 42.875 16.015625 42.875 26.21875 
Q 42.875 35.84375 38.5 40.796875 
Q 34.125 45.75 27.640625 45.75 
Q 21.046875 45.75 16.703125 40.8125 
Q 12.359375 35.890625 12.359375 25.921875 
z
" id="ArialMT-111"/>
        <path d="M 40.234375 0 
L 40.234375 6.546875 
Q 35.296875 -1.171875 25.734375 -1.171875 
Q 19.53125 -1.171875 14.328125 2.25 
Q 9.125 5.671875 6.265625 11.796875 
Q 3.421875 17.921875 3.421875 25.875 
Q 3.421875 33.640625 6 39.96875 
Q 8.59375 46.296875 13.765625 49.65625 
Q 18.953125 53.03125 25.34375 53.03125 
Q 30.03125 53.03125 33.6875 51.046875 
Q 37.359375 49.078125 39.65625 45.90625 
L 39.65625 71.578125 
L 48.390625 71.578125 
L 48.390625 0 
z
M 12.453125 25.875 
Q 12.453125 15.921875 16.640625 10.984375 
Q 20.84375 6.0625 26.5625 6.0625 
Q 32.328125 6.0625 36.34375 10.765625 
Q 40.375 15.484375 40.375 25.140625 
Q 40.375 35.796875 36.265625 40.765625 
Q 32.171875 45.75 26.171875 45.75 
Q 20.3125 45.75 16.375 40.96875 
Q 12.453125 36.1875 12.453125 25.875 
z
" id="ArialMT-100"/>
        <path d="M 6.5 0 
L 6.5 51.859375 
L 14.40625 51.859375 
L 14.40625 44 
Q 17.4375 49.515625 20 51.265625 
Q 22.5625 53.03125 25.640625 53.03125 
Q 30.078125 53.03125 34.671875 50.203125 
L 31.640625 42.046875 
Q 28.421875 43.953125 25.203125 43.953125 
Q 22.3125 43.953125 20.015625 42.21875 
Q 17.71875 40.484375 16.75 37.40625 
Q 15.28125 32.71875 15.28125 27.15625 
L 15.28125 0 
z
" id="ArialMT-114"/>
        <path d="M 25.046875 11.578125 
L 25.046875 31.203125 
L 5.5625 31.203125 
L 5.5625 39.40625 
L 25.046875 39.40625 
L 25.046875 58.890625 
L 33.34375 58.890625 
L 33.34375 39.40625 
L 52.828125 39.40625 
L 52.828125 31.203125 
L 33.34375 31.203125 
L 33.34375 11.578125 
z
" id="ArialMT-43"/>
        <path d="M 4.5 23 
L 13.421875 23.78125 
Q 14.0625 18.40625 16.375 14.96875 
Q 18.703125 11.53125 23.578125 9.40625 
Q 28.46875 7.28125 34.578125 7.28125 
Q 39.984375 7.28125 44.140625 8.890625 
Q 48.296875 10.5 50.3125 13.296875 
Q 52.34375 16.109375 52.34375 19.4375 
Q 52.34375 22.796875 50.390625 25.3125 
Q 48.4375 27.828125 43.953125 29.546875 
Q 41.0625 30.671875 31.203125 33.03125 
Q 21.34375 35.40625 17.390625 37.5 
Q 12.25 40.1875 9.734375 44.15625 
Q 7.234375 48.140625 7.234375 53.078125 
Q 7.234375 58.5 10.296875 63.203125 
Q 13.375 67.921875 19.28125 70.359375 
Q 25.203125 72.796875 32.421875 72.796875 
Q 40.375 72.796875 46.453125 70.234375 
Q 52.546875 67.671875 55.8125 62.6875 
Q 59.078125 57.71875 59.328125 51.421875 
L 50.25 50.734375 
Q 49.515625 57.515625 45.28125 60.984375 
Q 41.0625 64.453125 32.8125 64.453125 
Q 24.21875 64.453125 20.28125 61.296875 
Q 16.359375 58.15625 16.359375 53.71875 
Q 16.359375 49.859375 19.140625 47.359375 
Q 21.875 44.875 33.421875 42.265625 
Q 44.96875 39.65625 49.265625 37.703125 
Q 55.515625 34.8125 58.484375 30.390625 
Q 61.46875 25.984375 61.46875 20.21875 
Q 61.46875 14.5 58.203125 9.4375 
Q 54.9375 4.390625 48.796875 1.578125 
Q 42.671875 -1.21875 35.015625 -1.21875 
Q 25.296875 -1.21875 18.71875 1.609375 
Q 12.15625 4.4375 8.421875 10.125 
Q 4.6875 15.828125 4.5 23 
z
" id="ArialMT-83"/>
        <path d="M 21 0 
L 1.265625 51.859375 
L 10.546875 51.859375 
L 21.6875 20.796875 
Q 23.484375 15.765625 25 10.359375 
Q 26.171875 14.453125 28.265625 20.21875 
L 39.796875 51.859375 
L 48.828125 51.859375 
L 29.203125 0 
z
" id="ArialMT-118"/>
       </defs>
       <use xlink:href="#ArialMT-77"/>
       <use x="83.300781" xlink:href="#ArialMT-111"/>
       <use x="138.916016" xlink:href="#ArialMT-100"/>
       <use x="194.53125" xlink:href="#ArialMT-101"/>
       <use x="250.146484" xlink:href="#ArialMT-114"/>
       <use x="283.447266" xlink:href="#ArialMT-97"/>
       <use x="339.0625" xlink:href="#ArialMT-116"/>
       <use x="366.845703" xlink:href="#ArialMT-101"/>
       <use x="422.460938" xlink:href="#ArialMT-43"/>
       <use x="480.859375" xlink:href="#ArialMT-83"/>
       <use x="547.558594" xlink:href="#ArialMT-101"/>
       <use x="603.173828" xlink:href="#ArialMT-118"/>
       <use x="653.173828" xlink:href="#ArialMT-101"/>
       <use x="708.789062" xlink:href="#ArialMT-114"/>
       <use x="742.089844" xlink:href="#ArialMT-101"/>
      </g>
     </g>
    </g>
    <g id="xtick_3">
     <g id="text_3">
      <!-- Slight -->
      <g style="fill:#262626;" transform="translate(1078.363917 1231.838438)scale(0.5 -0.5)">
       <defs>
        <path d="M 6.640625 61.46875 
L 6.640625 71.578125 
L 15.4375 71.578125 
L 15.4375 61.46875 
z
M 6.640625 0 
L 6.640625 51.859375 
L 15.4375 51.859375 
L 15.4375 0 
z
" id="ArialMT-105"/>
        <path d="M 4.984375 -4.296875 
L 13.53125 -5.5625 
Q 14.0625 -9.515625 16.5 -11.328125 
Q 19.78125 -13.765625 25.4375 -13.765625 
Q 31.546875 -13.765625 34.859375 -11.328125 
Q 38.1875 -8.890625 39.359375 -4.5 
Q 40.046875 -1.8125 39.984375 6.78125 
Q 34.234375 0 25.640625 0 
Q 14.9375 0 9.078125 7.71875 
Q 3.21875 15.4375 3.21875 26.21875 
Q 3.21875 33.640625 5.90625 39.90625 
Q 8.59375 46.1875 13.6875 49.609375 
Q 18.796875 53.03125 25.6875 53.03125 
Q 34.859375 53.03125 40.828125 45.609375 
L 40.828125 51.859375 
L 48.921875 51.859375 
L 48.921875 7.03125 
Q 48.921875 -5.078125 46.453125 -10.125 
Q 44 -15.1875 38.640625 -18.109375 
Q 33.296875 -21.046875 25.484375 -21.046875 
Q 16.21875 -21.046875 10.5 -16.875 
Q 4.78125 -12.703125 4.984375 -4.296875 
z
M 12.25 26.859375 
Q 12.25 16.65625 16.296875 11.96875 
Q 20.359375 7.28125 26.46875 7.28125 
Q 32.515625 7.28125 36.609375 11.9375 
Q 40.71875 16.609375 40.71875 26.5625 
Q 40.71875 36.078125 36.5 40.90625 
Q 32.28125 45.75 26.3125 45.75 
Q 20.453125 45.75 16.34375 40.984375 
Q 12.25 36.234375 12.25 26.859375 
z
" id="ArialMT-103"/>
       </defs>
       <use xlink:href="#ArialMT-83"/>
       <use x="66.699219" xlink:href="#ArialMT-108"/>
       <use x="88.916016" xlink:href="#ArialMT-105"/>
       <use x="111.132812" xlink:href="#ArialMT-103"/>
       <use x="166.748047" xlink:href="#ArialMT-104"/>
       <use x="222.363281" xlink:href="#ArialMT-116"/>
      </g>
     </g>
    </g>
   </g>
   <g id="matplotlib.axis_2">
    <g id="ytick_1">
     <g id="line2d_1">
      <path clip-path="url(#p5972477d5c)" d="M 230.13 1108.62669 
L 1242 1108.62669 
" style="fill:none;stroke:#cccccc;stroke-linecap:round;stroke-width:2;"/>
     </g>
     <g id="text_4">
      <!-- 0 -->
      <g style="fill:#262626;" transform="translate(186.825312 1126.521221)scale(0.5 -0.5)">
       <defs>
        <path d="M 4.15625 35.296875 
Q 4.15625 48 6.765625 55.734375 
Q 9.375 63.484375 14.515625 67.671875 
Q 19.671875 71.875 27.484375 71.875 
Q 33.25 71.875 37.59375 69.546875 
Q 41.9375 67.234375 44.765625 62.859375 
Q 47.609375 58.5 49.21875 52.21875 
Q 50.828125 45.953125 50.828125 35.296875 
Q 50.828125 22.703125 48.234375 14.96875 
Q 45.65625 7.234375 40.5 3 
Q 35.359375 -1.21875 27.484375 -1.21875 
Q 17.140625 -1.21875 11.234375 6.203125 
Q 4.15625 15.140625 4.15625 35.296875 
z
M 13.1875 35.296875 
Q 13.1875 17.671875 17.3125 11.828125 
Q 21.4375 6 27.484375 6 
Q 33.546875 6 37.671875 11.859375 
Q 41.796875 17.71875 41.796875 35.296875 
Q 41.796875 52.984375 37.671875 58.78125 
Q 33.546875 64.59375 27.390625 64.59375 
Q 21.34375 64.59375 17.71875 59.46875 
Q 13.1875 52.9375 13.1875 35.296875 
z
" id="ArialMT-48"/>
       </defs>
       <use xlink:href="#ArialMT-48"/>
      </g>
     </g>
    </g>
    <g id="ytick_2">
     <g id="line2d_2">
      <path clip-path="url(#p5972477d5c)" d="M 230.13 929.018345 
L 1242 929.018345 
" style="fill:none;stroke:#cccccc;stroke-linecap:round;stroke-width:2;"/>
     </g>
     <g id="text_5">
      <!-- 200 -->
      <g style="fill:#262626;" transform="translate(131.215937 946.912876)scale(0.5 -0.5)">
       <defs>
        <path d="M 50.34375 8.453125 
L 50.34375 0 
L 3.03125 0 
Q 2.9375 3.171875 4.046875 6.109375 
Q 5.859375 10.9375 9.828125 15.625 
Q 13.8125 20.3125 21.34375 26.46875 
Q 33.015625 36.03125 37.109375 41.625 
Q 41.21875 47.21875 41.21875 52.203125 
Q 41.21875 57.421875 37.46875 61 
Q 33.734375 64.59375 27.734375 64.59375 
Q 21.390625 64.59375 17.578125 60.78125 
Q 13.765625 56.984375 13.71875 50.25 
L 4.6875 51.171875 
Q 5.609375 61.28125 11.65625 66.578125 
Q 17.71875 71.875 27.9375 71.875 
Q 38.234375 71.875 44.234375 66.15625 
Q 50.25 60.453125 50.25 52 
Q 50.25 47.703125 48.484375 43.546875 
Q 46.734375 39.40625 42.65625 34.8125 
Q 38.578125 30.21875 29.109375 22.21875 
Q 21.1875 15.578125 18.9375 13.203125 
Q 16.703125 10.84375 15.234375 8.453125 
z
" id="ArialMT-50"/>
       </defs>
       <use xlink:href="#ArialMT-50"/>
       <use x="55.615234" xlink:href="#ArialMT-48"/>
       <use x="111.230469" xlink:href="#ArialMT-48"/>
      </g>
     </g>
    </g>
    <g id="ytick_3">
     <g id="line2d_3">
      <path clip-path="url(#p5972477d5c)" d="M 230.13 749.41 
L 1242 749.41 
" style="fill:none;stroke:#cccccc;stroke-linecap:round;stroke-width:2;"/>
     </g>
     <g id="text_6">
      <!-- 400 -->
      <g style="fill:#262626;" transform="translate(131.215937 767.304531)scale(0.5 -0.5)">
       <defs>
        <path d="M 32.328125 0 
L 32.328125 17.140625 
L 1.265625 17.140625 
L 1.265625 25.203125 
L 33.9375 71.578125 
L 41.109375 71.578125 
L 41.109375 25.203125 
L 50.78125 25.203125 
L 50.78125 17.140625 
L 41.109375 17.140625 
L 41.109375 0 
z
M 32.328125 25.203125 
L 32.328125 57.46875 
L 9.90625 25.203125 
z
" id="ArialMT-52"/>
       </defs>
       <use xlink:href="#ArialMT-52"/>
       <use x="55.615234" xlink:href="#ArialMT-48"/>
       <use x="111.230469" xlink:href="#ArialMT-48"/>
      </g>
     </g>
    </g>
    <g id="ytick_4">
     <g id="line2d_4">
      <path clip-path="url(#p5972477d5c)" d="M 230.13 569.801655 
L 1242 569.801655 
" style="fill:none;stroke:#cccccc;stroke-linecap:round;stroke-width:2;"/>
     </g>
     <g id="text_7">
      <!-- 600 -->
      <g style="fill:#262626;" transform="translate(131.215937 587.696186)scale(0.5 -0.5)">
       <defs>
        <path d="M 49.75 54.046875 
L 41.015625 53.375 
Q 39.84375 58.546875 37.703125 60.890625 
Q 34.125 64.65625 28.90625 64.65625 
Q 24.703125 64.65625 21.53125 62.3125 
Q 17.390625 59.28125 14.984375 53.46875 
Q 12.59375 47.65625 12.5 36.921875 
Q 15.671875 41.75 20.265625 44.09375 
Q 24.859375 46.4375 29.890625 46.4375 
Q 38.671875 46.4375 44.84375 39.96875 
Q 51.03125 33.5 51.03125 23.25 
Q 51.03125 16.5 48.125 10.71875 
Q 45.21875 4.9375 40.140625 1.859375 
Q 35.0625 -1.21875 28.609375 -1.21875 
Q 17.625 -1.21875 10.6875 6.859375 
Q 3.765625 14.9375 3.765625 33.5 
Q 3.765625 54.25 11.421875 63.671875 
Q 18.109375 71.875 29.4375 71.875 
Q 37.890625 71.875 43.28125 67.140625 
Q 48.6875 62.40625 49.75 54.046875 
z
M 13.875 23.1875 
Q 13.875 18.65625 15.796875 14.5 
Q 17.71875 10.359375 21.1875 8.171875 
Q 24.65625 6 28.46875 6 
Q 34.03125 6 38.03125 10.484375 
Q 42.046875 14.984375 42.046875 22.703125 
Q 42.046875 30.125 38.078125 34.390625 
Q 34.125 38.671875 28.125 38.671875 
Q 22.171875 38.671875 18.015625 34.390625 
Q 13.875 30.125 13.875 23.1875 
z
" id="ArialMT-54"/>
       </defs>
       <use xlink:href="#ArialMT-54"/>
       <use x="55.615234" xlink:href="#ArialMT-48"/>
       <use x="111.230469" xlink:href="#ArialMT-48"/>
      </g>
     </g>
    </g>
    <g id="ytick_5">
     <g id="line2d_5">
      <path clip-path="url(#p5972477d5c)" d="M 230.13 390.19331 
L 1242 390.19331 
" style="fill:none;stroke:#cccccc;stroke-linecap:round;stroke-width:2;"/>
     </g>
     <g id="text_8">
      <!-- 800 -->
      <g style="fill:#262626;" transform="translate(131.215937 408.087842)scale(0.5 -0.5)">
       <defs>
        <path d="M 17.671875 38.8125 
Q 12.203125 40.828125 9.5625 44.53125 
Q 6.9375 48.25 6.9375 53.421875 
Q 6.9375 61.234375 12.546875 66.546875 
Q 18.171875 71.875 27.484375 71.875 
Q 36.859375 71.875 42.578125 66.421875 
Q 48.296875 60.984375 48.296875 53.171875 
Q 48.296875 48.1875 45.671875 44.5 
Q 43.0625 40.828125 37.75 38.8125 
Q 44.34375 36.671875 47.78125 31.875 
Q 51.21875 27.09375 51.21875 20.453125 
Q 51.21875 11.28125 44.71875 5.03125 
Q 38.234375 -1.21875 27.640625 -1.21875 
Q 17.046875 -1.21875 10.546875 5.046875 
Q 4.046875 11.328125 4.046875 20.703125 
Q 4.046875 27.6875 7.59375 32.390625 
Q 11.140625 37.109375 17.671875 38.8125 
z
M 15.921875 53.71875 
Q 15.921875 48.640625 19.1875 45.40625 
Q 22.46875 42.1875 27.6875 42.1875 
Q 32.765625 42.1875 36.015625 45.375 
Q 39.265625 48.578125 39.265625 53.21875 
Q 39.265625 58.0625 35.90625 61.359375 
Q 32.5625 64.65625 27.59375 64.65625 
Q 22.5625 64.65625 19.234375 61.421875 
Q 15.921875 58.203125 15.921875 53.71875 
z
M 13.09375 20.65625 
Q 13.09375 16.890625 14.875 13.375 
Q 16.65625 9.859375 20.171875 7.921875 
Q 23.6875 6 27.734375 6 
Q 34.03125 6 38.125 10.046875 
Q 42.234375 14.109375 42.234375 20.359375 
Q 42.234375 26.703125 38.015625 30.859375 
Q 33.796875 35.015625 27.4375 35.015625 
Q 21.234375 35.015625 17.15625 30.90625 
Q 13.09375 26.8125 13.09375 20.65625 
z
" id="ArialMT-56"/>
       </defs>
       <use xlink:href="#ArialMT-56"/>
       <use x="55.615234" xlink:href="#ArialMT-48"/>
       <use x="111.230469" xlink:href="#ArialMT-48"/>
      </g>
     </g>
    </g>
    <g id="ytick_6">
     <g id="line2d_6">
      <path clip-path="url(#p5972477d5c)" d="M 230.13 210.584965 
L 1242 210.584965 
" style="fill:none;stroke:#cccccc;stroke-linecap:round;stroke-width:2;"/>
     </g>
     <g id="text_9">
      <!-- 1000 -->
      <g style="fill:#262626;" transform="translate(103.41125 228.479497)scale(0.5 -0.5)">
       <defs>
        <path d="M 37.25 0 
L 28.46875 0 
L 28.46875 56 
Q 25.296875 52.984375 20.140625 49.953125 
Q 14.984375 46.921875 10.890625 45.40625 
L 10.890625 53.90625 
Q 18.265625 57.375 23.78125 62.296875 
Q 29.296875 67.234375 31.59375 71.875 
L 37.25 71.875 
z
" id="ArialMT-49"/>
       </defs>
       <use xlink:href="#ArialMT-49"/>
       <use x="55.615234" xlink:href="#ArialMT-48"/>
       <use x="111.230469" xlink:href="#ArialMT-48"/>
       <use x="166.845703" xlink:href="#ArialMT-48"/>
      </g>
     </g>
    </g>
    <g id="text_10">
     <!-- Abundance -->
     <g style="fill:#262626;" transform="translate(89.47375 764.582187)rotate(-90)scale(0.5 -0.5)">
      <defs>
       <path d="M -0.140625 0 
L 27.34375 71.578125 
L 37.546875 71.578125 
L 66.84375 0 
L 56.0625 0 
L 47.703125 21.6875 
L 17.78125 21.6875 
L 9.90625 0 
z
M 20.515625 29.390625 
L 44.78125 29.390625 
L 37.3125 49.21875 
Q 33.890625 58.25 32.234375 64.0625 
Q 30.859375 57.171875 28.375 50.390625 
z
" id="ArialMT-65"/>
       <path d="M 14.703125 0 
L 6.546875 0 
L 6.546875 71.578125 
L 15.328125 71.578125 
L 15.328125 46.046875 
Q 20.90625 53.03125 29.546875 53.03125 
Q 34.328125 53.03125 38.59375 51.09375 
Q 42.875 49.171875 45.625 45.671875 
Q 48.390625 42.1875 49.953125 37.25 
Q 51.515625 32.328125 51.515625 26.703125 
Q 51.515625 13.375 44.921875 6.09375 
Q 38.328125 -1.171875 29.109375 -1.171875 
Q 19.921875 -1.171875 14.703125 6.5 
z
M 14.59375 26.3125 
Q 14.59375 17 17.140625 12.84375 
Q 21.296875 6.0625 28.375 6.0625 
Q 34.125 6.0625 38.328125 11.0625 
Q 42.53125 16.0625 42.53125 25.984375 
Q 42.53125 36.140625 38.5 40.96875 
Q 34.46875 45.796875 28.765625 45.796875 
Q 23 45.796875 18.796875 40.796875 
Q 14.59375 35.796875 14.59375 26.3125 
z
" id="ArialMT-98"/>
       <path d="M 40.578125 0 
L 40.578125 7.625 
Q 34.515625 -1.171875 24.125 -1.171875 
Q 19.53125 -1.171875 15.546875 0.578125 
Q 11.578125 2.34375 9.640625 5 
Q 7.71875 7.671875 6.9375 11.53125 
Q 6.390625 14.109375 6.390625 19.734375 
L 6.390625 51.859375 
L 15.1875 51.859375 
L 15.1875 23.09375 
Q 15.1875 16.21875 15.71875 13.8125 
Q 16.546875 10.359375 19.234375 8.375 
Q 21.921875 6.390625 25.875 6.390625 
Q 29.828125 6.390625 33.296875 8.421875 
Q 36.765625 10.453125 38.203125 13.9375 
Q 39.65625 17.4375 39.65625 24.078125 
L 39.65625 51.859375 
L 48.4375 51.859375 
L 48.4375 0 
z
" id="ArialMT-117"/>
       <path d="M 6.59375 0 
L 6.59375 51.859375 
L 14.5 51.859375 
L 14.5 44.484375 
Q 20.21875 53.03125 31 53.03125 
Q 35.6875 53.03125 39.625 51.34375 
Q 43.5625 49.65625 45.515625 46.921875 
Q 47.46875 44.1875 48.25 40.4375 
Q 48.734375 37.984375 48.734375 31.890625 
L 48.734375 0 
L 39.9375 0 
L 39.9375 31.546875 
Q 39.9375 36.921875 38.90625 39.578125 
Q 37.890625 42.234375 35.28125 43.8125 
Q 32.671875 45.40625 29.15625 45.40625 
Q 23.53125 45.40625 19.453125 41.84375 
Q 15.375 38.28125 15.375 28.328125 
L 15.375 0 
z
" id="ArialMT-110"/>
       <path d="M 40.4375 19 
L 49.078125 17.875 
Q 47.65625 8.9375 41.8125 3.875 
Q 35.984375 -1.171875 27.484375 -1.171875 
Q 16.84375 -1.171875 10.375 5.78125 
Q 3.90625 12.75 3.90625 25.734375 
Q 3.90625 34.125 6.6875 40.421875 
Q 9.46875 46.734375 15.15625 49.875 
Q 20.84375 53.03125 27.546875 53.03125 
Q 35.984375 53.03125 41.359375 48.75 
Q 46.734375 44.484375 48.25 36.625 
L 39.703125 35.296875 
Q 38.484375 40.53125 35.375 43.15625 
Q 32.28125 45.796875 27.875 45.796875 
Q 21.234375 45.796875 17.078125 41.03125 
Q 12.9375 36.28125 12.9375 25.984375 
Q 12.9375 15.53125 16.9375 10.796875 
Q 20.953125 6.0625 27.390625 6.0625 
Q 32.5625 6.0625 36.03125 9.234375 
Q 39.5 12.40625 40.4375 19 
z
" id="ArialMT-99"/>
      </defs>
      <use xlink:href="#ArialMT-65"/>
      <use x="66.699219" xlink:href="#ArialMT-98"/>
      <use x="122.314453" xlink:href="#ArialMT-117"/>
      <use x="177.929688" xlink:href="#ArialMT-110"/>
      <use x="233.544922" xlink:href="#ArialMT-100"/>
      <use x="289.160156" xlink:href="#ArialMT-97"/>
      <use x="344.775391" xlink:href="#ArialMT-110"/>
      <use x="400.390625" xlink:href="#ArialMT-99"/>
      <use x="450.390625" xlink:href="#ArialMT-101"/>
     </g>
    </g>
   </g>
   <g id="PolyCollection_1">
    <defs>
     <path d="M 504.316301 -177.958892 
L 336.190208 -177.958892 
L 323.492533 -179.355543 
L 311.24197 -180.752193 
L 300.034715 -182.148843 
L 290.457417 -183.545494 
L 283.033336 -184.942144 
L 278.171245 -186.338794 
L 276.124091 -187.735445 
L 276.963371 -189.132095 
L 280.57298 -190.528745 
L 286.663421 -191.925396 
L 294.804174 -193.322046 
L 304.469424 -194.718697 
L 315.090565 -196.115347 
L 326.108381 -197.511997 
L 337.018423 -198.908648 
L 347.404767 -200.305298 
L 356.959563 -201.701948 
L 365.488126 -203.098599 
L 372.901404 -204.495249 
L 379.199063 -205.891899 
L 384.447157 -207.28855 
L 388.754288 -208.6852 
L 392.249558 -210.08185 
L 395.064655 -211.478501 
L 397.321268 -212.875151 
L 399.124059 -214.271801 
L 400.558524 -215.668452 
L 401.692588 -217.065102 
L 402.580495 -218.461753 
L 403.267565 -219.858403 
L 403.794629 -221.255053 
L 404.201274 -222.651704 
L 404.527442 -224.048354 
L 404.81335 -225.445004 
L 405.097999 -226.841655 
L 405.416797 -228.238305 
L 405.798915 -229.634955 
L 406.264984 -231.031606 
L 406.825608 -232.428256 
L 407.480975 -233.824906 
L 408.221623 -235.221557 
L 409.030205 -236.618207 
L 409.883953 -238.014857 
L 410.757426 -239.411508 
L 411.625175 -240.808158 
L 412.463973 -242.204808 
L 413.254427 -243.601459 
L 413.981878 -244.998109 
L 414.636654 -246.39476 
L 415.213817 -247.79141 
L 415.71258 -249.18806 
L 416.13559 -250.584711 
L 416.488203 -251.981361 
L 416.777845 -253.378011 
L 417.013467 -254.774662 
L 417.205068 -256.171312 
L 417.363227 -257.567962 
L 417.4986 -258.964613 
L 417.621351 -260.361263 
L 417.740546 -261.757913 
L 417.863541 -263.154564 
L 417.995449 -264.551214 
L 418.138757 -265.947864 
L 418.293154 -267.344515 
L 418.455597 -268.741165 
L 418.620602 -270.137816 
L 418.780727 -271.534466 
L 418.92717 -272.931116 
L 419.050439 -274.327767 
L 419.141001 -275.724417 
L 419.189907 -277.121067 
L 419.189359 -278.517718 
L 419.133224 -279.914368 
L 419.017508 -281.311018 
L 418.840787 -282.707669 
L 418.604582 -284.104319 
L 418.313637 -285.500969 
L 417.976047 -286.89762 
L 417.603173 -288.29427 
L 417.209293 -289.69092 
L 416.810964 -291.087571 
L 416.426109 -292.484221 
L 416.072893 -293.880871 
L 415.76849 -295.277522 
L 415.527868 -296.674172 
L 415.362731 -298.070823 
L 415.280726 -299.467473 
L 415.285008 -300.864123 
L 415.374188 -302.260774 
L 415.542651 -303.657424 
L 415.781179 -305.054074 
L 416.077802 -306.450725 
L 416.418765 -307.847375 
L 416.789517 -309.244025 
L 417.175641 -310.640676 
L 417.563654 -312.037326 
L 417.941646 -313.433976 
L 418.299728 -314.830627 
L 418.63029 -316.227277 
L 421.87622 -316.227277 
L 421.87622 -316.227277 
L 422.206781 -314.830627 
L 422.564864 -313.433976 
L 422.942856 -312.037326 
L 423.330869 -310.640676 
L 423.716992 -309.244025 
L 424.087744 -307.847375 
L 424.428707 -306.450725 
L 424.72533 -305.054074 
L 424.963858 -303.657424 
L 425.132321 -302.260774 
L 425.221502 -300.864123 
L 425.225784 -299.467473 
L 425.143778 -298.070823 
L 424.978641 -296.674172 
L 424.738019 -295.277522 
L 424.433616 -293.880871 
L 424.0804 -292.484221 
L 423.695545 -291.087571 
L 423.297216 -289.69092 
L 422.903336 -288.29427 
L 422.530462 -286.89762 
L 422.192872 -285.500969 
L 421.901927 -284.104319 
L 421.665722 -282.707669 
L 421.489001 -281.311018 
L 421.373285 -279.914368 
L 421.31715 -278.517718 
L 421.316602 -277.121067 
L 421.365508 -275.724417 
L 421.45607 -274.327767 
L 421.579339 -272.931116 
L 421.725783 -271.534466 
L 421.885907 -270.137816 
L 422.050912 -268.741165 
L 422.213355 -267.344515 
L 422.367752 -265.947864 
L 422.51106 -264.551214 
L 422.642968 -263.154564 
L 422.765963 -261.757913 
L 422.885158 -260.361263 
L 423.007909 -258.964613 
L 423.143282 -257.567962 
L 423.301441 -256.171312 
L 423.493042 -254.774662 
L 423.728665 -253.378011 
L 424.018306 -251.981361 
L 424.370919 -250.584711 
L 424.793929 -249.18806 
L 425.292693 -247.79141 
L 425.869856 -246.39476 
L 426.524632 -244.998109 
L 427.252082 -243.601459 
L 428.042536 -242.204808 
L 428.881334 -240.808158 
L 429.749083 -239.411508 
L 430.622557 -238.014857 
L 431.476304 -236.618207 
L 432.284887 -235.221557 
L 433.025534 -233.824906 
L 433.680901 -232.428256 
L 434.241525 -231.031606 
L 434.707595 -229.634955 
L 435.089712 -228.238305 
L 435.40851 -226.841655 
L 435.693159 -225.445004 
L 435.979067 -224.048354 
L 436.305235 -222.651704 
L 436.71188 -221.255053 
L 437.238945 -219.858403 
L 437.926014 -218.461753 
L 438.813921 -217.065102 
L 439.947986 -215.668452 
L 441.38245 -214.271801 
L 443.185241 -212.875151 
L 445.441855 -211.478501 
L 448.256951 -210.08185 
L 451.752222 -208.6852 
L 456.059352 -207.28855 
L 461.307446 -205.891899 
L 467.605106 -204.495249 
L 475.018384 -203.098599 
L 483.546947 -201.701948 
L 493.101742 -200.305298 
L 503.488086 -198.908648 
L 514.398128 -197.511997 
L 525.415944 -196.115347 
L 536.037085 -194.718697 
L 545.702335 -193.322046 
L 553.843088 -191.925396 
L 559.933529 -190.528745 
L 563.543139 -189.132095 
L 564.382418 -187.735445 
L 562.335265 -186.338794 
L 557.473174 -184.942144 
L 550.049093 -183.545494 
L 540.471794 -182.148843 
L 529.26454 -180.752193 
L 517.013977 -179.355543 
L 504.316301 -177.958892 
z
" id="m71ef2c6511" style="stroke:#4c4c4c;stroke-width:5;"/>
    </defs>
    <g clip-path="url(#p5972477d5c)">
     <use style="fill:#5875a4;stroke:#4c4c4c;stroke-width:5;" x="0" xlink:href="#m71ef2c6511" y="1296"/>
    </g>
   </g>
   <g id="PolyCollection_2">
    <defs>
     <path d="M 786.306728 -153.035627 
L 774.8456 -153.035627 
L 772.981197 -160.50545 
L 770.832437 -167.975274 
L 768.452468 -175.445097 
L 765.917181 -182.914921 
L 763.319384 -190.384745 
L 760.761653 -197.854568 
L 758.348993 -205.324392 
L 756.182053 -212.794215 
L 754.351261 -220.264039 
L 752.93198 -227.733863 
L 751.980776 -235.203686 
L 751.532873 -242.67351 
L 751.600804 -250.143333 
L 752.174106 -257.613157 
L 753.219882 -265.08298 
L 754.684138 -272.552804 
L 756.494105 -280.022628 
L 758.561972 -287.492451 
L 760.790313 -294.962275 
L 763.079059 -302.432098 
L 765.333185 -309.901922 
L 767.469806 -317.371746 
L 769.423402 -324.841569 
L 771.148421 -332.311393 
L 772.619315 -339.781216 
L 773.828755 -347.25104 
L 774.785012 -354.720864 
L 775.50923 -362.190687 
L 776.03281 -369.660511 
L 776.394617 -377.130334 
L 776.637658 -384.600158 
L 776.805109 -392.069981 
L 776.936063 -399.539805 
L 777.061776 -407.009629 
L 777.203281 -414.479452 
L 777.370922 -421.949276 
L 777.565853 -429.419099 
L 777.782952 -436.888923 
L 778.014239 -444.358747 
L 778.251851 -451.82857 
L 778.489883 -459.298394 
L 778.724864 -466.768217 
L 778.955111 -474.238041 
L 779.179506 -481.707864 
L 779.396339 -489.177688 
L 779.602699 -496.647512 
L 779.794585 -504.117335 
L 779.967624 -511.587159 
L 780.118046 -519.056982 
L 780.243539 -526.526806 
L 780.34371 -533.99663 
L 780.420061 -541.466453 
L 780.475561 -548.936277 
L 780.514009 -556.4061 
L 780.53938 -563.875924 
L 780.555326 -571.345747 
L 780.56487 -578.815571 
L 780.57031 -586.285395 
L 780.573263 -593.755218 
L 780.57479 -601.225042 
L 780.575543 -608.694865 
L 780.575895 -616.164689 
L 780.576053 -623.634513 
L 780.57612 -631.104336 
L 780.576148 -638.57416 
L 780.576158 -646.043983 
L 780.576162 -653.513807 
L 780.576163 -660.98363 
L 780.576164 -668.453454 
L 780.576164 -675.923278 
L 780.576163 -683.393101 
L 780.57616 -690.862925 
L 780.576154 -698.332748 
L 780.576137 -705.802572 
L 780.576095 -713.272396 
L 780.575996 -720.742219 
L 780.575772 -728.212043 
L 780.575293 -735.681866 
L 780.574314 -743.15169 
L 780.572419 -750.621513 
L 780.568934 -758.091337 
L 780.562849 -765.561161 
L 780.552777 -773.030984 
L 780.536985 -780.500808 
L 780.513562 -787.970631 
L 780.480759 -795.440455 
L 780.437489 -802.910279 
L 780.38391 -810.380102 
L 780.32195 -817.849926 
L 780.255559 -825.319749 
L 780.190517 -832.789573 
L 780.133722 -840.259396 
L 780.092024 -847.72922 
L 780.070883 -855.199044 
L 780.073194 -862.668867 
L 780.098636 -870.138691 
L 780.143746 -877.608514 
L 780.202694 -885.078338 
L 780.268515 -892.548162 
L 780.883813 -892.548162 
L 780.883813 -892.548162 
L 780.949634 -885.078338 
L 781.008582 -877.608514 
L 781.053692 -870.138691 
L 781.079134 -862.668867 
L 781.081445 -855.199044 
L 781.060304 -847.72922 
L 781.018606 -840.259396 
L 780.961811 -832.789573 
L 780.896769 -825.319749 
L 780.830378 -817.849926 
L 780.768418 -810.380102 
L 780.714839 -802.910279 
L 780.671569 -795.440455 
L 780.638766 -787.970631 
L 780.615343 -780.500808 
L 780.599551 -773.030984 
L 780.589479 -765.561161 
L 780.583394 -758.091337 
L 780.579909 -750.621513 
L 780.578014 -743.15169 
L 780.577035 -735.681866 
L 780.576556 -728.212043 
L 780.576332 -720.742219 
L 780.576233 -713.272396 
L 780.576191 -705.802572 
L 780.576174 -698.332748 
L 780.576168 -690.862925 
L 780.576165 -683.393101 
L 780.576164 -675.923278 
L 780.576164 -668.453454 
L 780.576165 -660.98363 
L 780.576166 -653.513807 
L 780.57617 -646.043983 
L 780.57618 -638.57416 
L 780.576208 -631.104336 
L 780.576275 -623.634513 
L 780.576433 -616.164689 
L 780.576785 -608.694865 
L 780.577537 -601.225042 
L 780.579065 -593.755218 
L 780.582018 -586.285395 
L 780.587458 -578.815571 
L 780.597002 -571.345747 
L 780.612948 -563.875924 
L 780.638319 -556.4061 
L 780.676766 -548.936277 
L 780.732267 -541.466453 
L 780.808618 -533.99663 
L 780.908789 -526.526806 
L 781.034282 -519.056982 
L 781.184704 -511.587159 
L 781.357743 -504.117335 
L 781.549629 -496.647512 
L 781.755989 -489.177688 
L 781.972822 -481.707864 
L 782.197217 -474.238041 
L 782.427464 -466.768217 
L 782.662445 -459.298394 
L 782.900477 -451.82857 
L 783.138089 -444.358747 
L 783.369376 -436.888923 
L 783.586475 -429.419099 
L 783.781406 -421.949276 
L 783.949047 -414.479452 
L 784.090552 -407.009629 
L 784.216265 -399.539805 
L 784.347219 -392.069981 
L 784.51467 -384.600158 
L 784.757711 -377.130334 
L 785.119518 -369.660511 
L 785.643098 -362.190687 
L 786.367316 -354.720864 
L 787.323573 -347.25104 
L 788.533013 -339.781216 
L 790.003907 -332.311393 
L 791.728926 -324.841569 
L 793.682522 -317.371746 
L 795.819143 -309.901922 
L 798.073269 -302.432098 
L 800.362015 -294.962275 
L 802.590356 -287.492451 
L 804.658223 -280.022628 
L 806.46819 -272.552804 
L 807.932446 -265.08298 
L 808.978222 -257.613157 
L 809.551524 -250.143333 
L 809.619455 -242.67351 
L 809.171552 -235.203686 
L 808.220348 -227.733863 
L 806.801067 -220.264039 
L 804.970275 -212.794215 
L 802.803335 -205.324392 
L 800.390675 -197.854568 
L 797.832944 -190.384745 
L 795.235147 -182.914921 
L 792.69986 -175.445097 
L 790.319891 -167.975274 
L 788.171131 -160.50545 
L 786.306728 -153.035627 
z
" id="m9fa8248bf8" style="stroke:#4c4c4c;stroke-width:5;"/>
    </defs>
    <g clip-path="url(#p5972477d5c)">
     <use style="fill:#cc8963;stroke:#4c4c4c;stroke-width:5;" x="0" xlink:href="#m9fa8248bf8" y="1296"/>
    </g>
   </g>
   <g id="PolyCollection_3">
    <defs>
     <path d="M 1170.331504 -166.688101 
L 1111.466643 -166.688101 
L 1108.26052 -168.775071 
L 1105.050304 -170.862042 
L 1101.897361 -172.949013 
L 1098.866099 -175.035983 
L 1096.021595 -177.122954 
L 1093.427028 -179.209925 
L 1091.141073 -181.296895 
L 1089.21541 -183.383866 
L 1087.692496 -185.470837 
L 1086.603756 -187.557807 
L 1085.968298 -189.644778 
L 1085.792238 -191.731749 
L 1086.068667 -193.818719 
L 1086.778263 -195.90569 
L 1087.890483 -197.992661 
L 1089.36524 -200.079631 
L 1091.15496 -202.166602 
L 1093.20686 -204.253573 
L 1095.465292 -206.340543 
L 1097.87403 -208.427514 
L 1100.378346 -210.514485 
L 1102.926793 -212.601455 
L 1105.472608 -214.688426 
L 1107.974703 -216.775397 
L 1110.39825 -218.862367 
L 1112.714861 -220.949338 
L 1114.902448 -223.036309 
L 1116.944799 -225.123279 
L 1118.830958 -227.21025 
L 1120.554504 -229.297221 
L 1122.112764 -231.384191 
L 1123.506064 -233.471162 
L 1124.737031 -235.558133 
L 1125.810014 -237.645103 
L 1126.730605 -239.732074 
L 1127.505297 -241.819045 
L 1128.141249 -243.906015 
L 1128.646155 -245.992986 
L 1129.028189 -248.079957 
L 1129.296 -250.166927 
L 1129.458736 -252.253898 
L 1129.526081 -254.340869 
L 1129.508268 -256.427839 
L 1129.416082 -258.51481 
L 1129.260818 -260.601781 
L 1129.054205 -262.688751 
L 1128.808299 -264.775722 
L 1128.535333 -266.862693 
L 1128.247551 -268.949663 
L 1127.957012 -271.036634 
L 1127.67539 -273.123605 
L 1127.413772 -275.210575 
L 1127.182454 -277.297546 
L 1126.990755 -279.384517 
L 1126.846846 -281.471487 
L 1126.757605 -283.558458 
L 1126.728494 -285.645429 
L 1126.763471 -287.732399 
L 1126.864931 -289.81937 
L 1127.033689 -291.906341 
L 1127.268986 -293.993311 
L 1127.568551 -296.080282 
L 1127.928681 -298.167253 
L 1128.344375 -300.254223 
L 1128.809483 -302.341194 
L 1129.316901 -304.428165 
L 1129.858785 -306.515135 
L 1130.42678 -308.602106 
L 1131.012269 -310.689077 
L 1131.606616 -312.776047 
L 1132.201419 -314.863018 
L 1132.788733 -316.949989 
L 1133.361285 -319.036959 
L 1133.912654 -321.12393 
L 1134.437418 -323.210901 
L 1134.931262 -325.297871 
L 1135.391042 -327.384842 
L 1135.814804 -329.471813 
L 1136.201762 -331.558783 
L 1136.552226 -333.645754 
L 1136.867504 -335.732725 
L 1137.14976 -337.819695 
L 1137.40185 -339.906666 
L 1137.627145 -341.993637 
L 1137.829336 -344.080607 
L 1138.012248 -346.167578 
L 1138.179657 -348.254549 
L 1138.335128 -350.341519 
L 1138.481875 -352.42849 
L 1138.622653 -354.515461 
L 1138.759684 -356.602431 
L 1138.894616 -358.689402 
L 1139.02852 -360.776373 
L 1139.161917 -362.863343 
L 1139.294831 -364.950314 
L 1139.426872 -367.037285 
L 1139.557318 -369.124255 
L 1139.685224 -371.211226 
L 1139.809512 -373.298197 
L 1141.988634 -373.298197 
L 1141.988634 -373.298197 
L 1142.112923 -371.211226 
L 1142.240828 -369.124255 
L 1142.371275 -367.037285 
L 1142.503315 -364.950314 
L 1142.63623 -362.863343 
L 1142.769627 -360.776373 
L 1142.903531 -358.689402 
L 1143.038462 -356.602431 
L 1143.175493 -354.515461 
L 1143.316271 -352.42849 
L 1143.463019 -350.341519 
L 1143.61849 -348.254549 
L 1143.785899 -346.167578 
L 1143.968811 -344.080607 
L 1144.171002 -341.993637 
L 1144.396296 -339.906666 
L 1144.648387 -337.819695 
L 1144.930642 -335.732725 
L 1145.24592 -333.645754 
L 1145.596385 -331.558783 
L 1145.983342 -329.471813 
L 1146.407105 -327.384842 
L 1146.866885 -325.297871 
L 1147.360729 -323.210901 
L 1147.885493 -321.12393 
L 1148.436861 -319.036959 
L 1149.009413 -316.949989 
L 1149.596727 -314.863018 
L 1150.19153 -312.776047 
L 1150.785878 -310.689077 
L 1151.371366 -308.602106 
L 1151.939361 -306.515135 
L 1152.481245 -304.428165 
L 1152.988664 -302.341194 
L 1153.453772 -300.254223 
L 1153.869465 -298.167253 
L 1154.229596 -296.080282 
L 1154.529161 -293.993311 
L 1154.764458 -291.906341 
L 1154.933215 -289.81937 
L 1155.034676 -287.732399 
L 1155.069653 -285.645429 
L 1155.040542 -283.558458 
L 1154.951301 -281.471487 
L 1154.807392 -279.384517 
L 1154.615693 -277.297546 
L 1154.384374 -275.210575 
L 1154.122756 -273.123605 
L 1153.841135 -271.036634 
L 1153.550596 -268.949663 
L 1153.262813 -266.862693 
L 1152.989848 -264.775722 
L 1152.743942 -262.688751 
L 1152.537329 -260.601781 
L 1152.382064 -258.51481 
L 1152.289879 -256.427839 
L 1152.272066 -254.340869 
L 1152.33941 -252.253898 
L 1152.502147 -250.166927 
L 1152.769958 -248.079957 
L 1153.151992 -245.992986 
L 1153.656898 -243.906015 
L 1154.29285 -241.819045 
L 1155.067541 -239.732074 
L 1155.988132 -237.645103 
L 1157.061115 -235.558133 
L 1158.292083 -233.471162 
L 1159.685382 -231.384191 
L 1161.243642 -229.297221 
L 1162.967188 -227.21025 
L 1164.853348 -225.123279 
L 1166.895698 -223.036309 
L 1169.083286 -220.949338 
L 1171.399897 -218.862367 
L 1173.823443 -216.775397 
L 1176.325539 -214.688426 
L 1178.871353 -212.601455 
L 1181.419801 -210.514485 
L 1183.924117 -208.427514 
L 1186.332854 -206.340543 
L 1188.591287 -204.253573 
L 1190.643186 -202.166602 
L 1192.432907 -200.079631 
L 1193.907664 -197.992661 
L 1195.019883 -195.90569 
L 1195.72948 -193.818719 
L 1196.005909 -191.731749 
L 1195.829848 -189.644778 
L 1195.19439 -187.557807 
L 1194.105651 -185.470837 
L 1192.582737 -183.383866 
L 1190.657073 -181.296895 
L 1188.371119 -179.209925 
L 1185.776551 -177.122954 
L 1182.932047 -175.035983 
L 1179.900786 -172.949013 
L 1176.747843 -170.862042 
L 1173.537626 -168.775071 
L 1170.331504 -166.688101 
z
" id="mc01ec328ce" style="stroke:#4c4c4c;stroke-width:5;"/>
    </defs>
    <g clip-path="url(#p5972477d5c)">
     <use style="fill:#5f9e6e;stroke:#4c4c4c;stroke-width:5;" x="0" xlink:href="#mc01ec328ce" y="1296"/>
    </g>
   </g>
   <g id="line2d_7">
    <path clip-path="url(#p5972477d5c)" d="M 420.253255 1108.62669 
L 420.253255 1096.054106 
" style="fill:none;stroke:#4c4c4c;stroke-linecap:round;stroke-width:5;"/>
   </g>
   <g id="line2d_8">
    <path clip-path="url(#p5972477d5c)" d="M 420.253255 1108.62669 
L 420.253255 1102.564908 
" style="fill:none;stroke:#4c4c4c;stroke-linecap:round;stroke-width:15;"/>
   </g>
   <g id="line2d_9">
    <path clip-path="url(#p5972477d5c)" d="M 780.576164 1108.62669 
L 780.576164 929.916387 
" style="fill:none;stroke:#4c4c4c;stroke-linecap:round;stroke-width:5;"/>
   </g>
   <g id="line2d_10">
    <path clip-path="url(#p5972477d5c)" d="M 780.576164 1075.399146 
L 780.576164 1009.393079 
" style="fill:none;stroke:#4c4c4c;stroke-linecap:round;stroke-width:15;"/>
   </g>
   <g id="line2d_11">
    <path clip-path="url(#p5972477d5c)" d="M 1140.899073 1108.62669 
L 1140.899073 994.575391 
" style="fill:none;stroke:#4c4c4c;stroke-linecap:round;stroke-width:5;"/>
   </g>
   <g id="line2d_12">
    <path clip-path="url(#p5972477d5c)" d="M 1140.899073 1108.62669 
L 1140.899073 1059.907926 
" style="fill:none;stroke:#4c4c4c;stroke-linecap:round;stroke-width:15;"/>
   </g>
   <g id="line2d_13">
    <path clip-path="url(#p5972477d5c)" d="M 420.253255 388.981694 
L 420.253255 372.712419 
L 780.576164 372.712419 
L 780.576164 388.981694 
" style="fill:none;stroke:#333333;stroke-linecap:round;stroke-width:1.5;"/>
   </g>
   <g id="line2d_14">
    <path clip-path="url(#p5972477d5c)" d="M 780.576164 292.677588 
L 780.576164 276.408313 
L 1140.899073 276.408313 
L 1140.899073 292.677588 
" style="fill:none;stroke:#333333;stroke-linecap:round;stroke-width:1.5;"/>
   </g>
   <g id="line2d_15">
    <path clip-path="url(#p5972477d5c)" d="M 420.253255 191.452122 
L 420.253255 175.182846 
L 1140.899073 175.182846 
L 1140.899073 191.452122 
" style="fill:none;stroke:#333333;stroke-linecap:round;stroke-width:1.5;"/>
   </g>
   <g id="patch_3">
    <path d="M 230.13 1179.94 
L 230.13 96.24 
" style="fill:none;stroke:#cccccc;stroke-linecap:square;stroke-linejoin:miter;stroke-width:2.5;"/>
   </g>
   <g id="patch_4">
    <path d="M 1242 1179.94 
L 1242 96.24 
" style="fill:none;stroke:#cccccc;stroke-linecap:square;stroke-linejoin:miter;stroke-width:2.5;"/>
   </g>
   <g id="patch_5">
    <path d="M 230.13 1179.94 
L 1242 1179.94 
" style="fill:none;stroke:#cccccc;stroke-linecap:square;stroke-linejoin:miter;stroke-width:2.5;"/>
   </g>
   <g id="patch_6">
    <path d="M 230.13 96.24 
L 1242 96.24 
" style="fill:none;stroke:#cccccc;stroke-linecap:square;stroke-linejoin:miter;stroke-width:2.5;"/>
   </g>
   <g id="PathCollection_1">
    <defs>
     <path d="M 0 5 
C 1.326016 5 2.597899 4.473168 3.535534 3.535534 
C 4.473168 2.597899 5 1.326016 5 0 
C 5 -1.326016 4.473168 -2.597899 3.535534 -3.535534 
C 2.597899 -4.473168 1.326016 -5 0 -5 
C -1.326016 -5 -2.597899 -4.473168 -3.535534 -3.535534 
C -4.473168 -2.597899 -5 -1.326016 -5 0 
C -5 1.326016 -4.473168 2.597899 -3.535534 3.535534 
C -2.597899 4.473168 -1.326016 5 0 5 
z
" id="m5bff03ae4a" style="stroke:#4c4c4c;stroke-width:2;"/>
    </defs>
    <g clip-path="url(#p5972477d5c)">
     <use style="fill:#ffffff;stroke:#4c4c4c;stroke-width:2;" x="420.253255" xlink:href="#m5bff03ae4a" y="1108.62669"/>
    </g>
   </g>
   <g id="PathCollection_2">
    <g clip-path="url(#p5972477d5c)">
     <use style="fill:#ffffff;stroke:#4c4c4c;stroke-width:2;" x="780.576164" xlink:href="#m5bff03ae4a" y="1046.661811"/>
    </g>
   </g>
   <g id="PathCollection_3">
    <g clip-path="url(#p5972477d5c)">
     <use style="fill:#ffffff;stroke:#4c4c4c;stroke-width:2;" x="1140.899073" xlink:href="#m5bff03ae4a" y="1106.830607"/>
    </g>
   </g>
   <g id="text_11">
    <!-- **** -->
    <g transform="translate(561.492834 361.774919)scale(0.5 -0.5)">
     <defs>
      <path d="M 3.125 58.453125 
L 5.375 65.375 
Q 13.140625 62.640625 16.65625 60.640625 
Q 15.71875 69.484375 15.671875 72.796875 
L 22.75 72.796875 
Q 22.609375 67.96875 21.625 60.6875 
Q 26.65625 63.234375 33.15625 65.375 
L 35.40625 58.453125 
Q 29.203125 56.390625 23.25 55.71875 
Q 26.21875 53.125 31.640625 46.484375 
L 25.78125 42.328125 
Q 22.953125 46.1875 19.09375 52.828125 
Q 15.484375 45.953125 12.75 42.328125 
L 6.984375 46.484375 
Q 12.640625 53.46875 15.09375 55.71875 
Q 8.796875 56.9375 3.125 58.453125 
z
" id="ArialMT-42"/>
     </defs>
     <use xlink:href="#ArialMT-42"/>
     <use x="38.916016" xlink:href="#ArialMT-42"/>
     <use x="77.832031" xlink:href="#ArialMT-42"/>
     <use x="116.748047" xlink:href="#ArialMT-42"/>
    </g>
   </g>
   <g id="text_12">
    <!-- **** -->
    <g transform="translate(921.815744 265.470813)scale(0.5 -0.5)">
     <use xlink:href="#ArialMT-42"/>
     <use x="38.916016" xlink:href="#ArialMT-42"/>
     <use x="77.832031" xlink:href="#ArialMT-42"/>
     <use x="116.748047" xlink:href="#ArialMT-42"/>
    </g>
   </g>
   <g id="text_13">
    <!-- ** -->
    <g transform="translate(761.115226 164.245346)scale(0.5 -0.5)">
     <use xlink:href="#ArialMT-42"/>
     <use x="38.916016" xlink:href="#ArialMT-42"/>
    </g>
   </g>
   <g id="text_14">
    <!-- Tannerella forsythia (K.W. p=7.01e-22) -->
    <g transform="translate(308.791563 90.24)scale(0.5 -0.5)">
     <defs>
      <path d="M 25.921875 0 
L 25.921875 63.140625 
L 2.34375 63.140625 
L 2.34375 71.578125 
L 59.078125 71.578125 
L 59.078125 63.140625 
L 35.40625 63.140625 
L 35.40625 0 
z
" id="ArialMT-84"/>
      <path id="ArialMT-32"/>
      <path d="M 8.6875 0 
L 8.6875 45.015625 
L 0.921875 45.015625 
L 0.921875 51.859375 
L 8.6875 51.859375 
L 8.6875 57.375 
Q 8.6875 62.59375 9.625 65.140625 
Q 10.890625 68.5625 14.078125 70.671875 
Q 17.28125 72.796875 23.046875 72.796875 
Q 26.765625 72.796875 31.25 71.921875 
L 29.9375 64.265625 
Q 27.203125 64.75 24.75 64.75 
Q 20.75 64.75 19.09375 63.03125 
Q 17.4375 61.328125 17.4375 56.640625 
L 17.4375 51.859375 
L 27.546875 51.859375 
L 27.546875 45.015625 
L 17.4375 45.015625 
L 17.4375 0 
z
" id="ArialMT-102"/>
      <path d="M 3.078125 15.484375 
L 11.765625 16.84375 
Q 12.5 11.625 15.84375 8.84375 
Q 19.1875 6.0625 25.203125 6.0625 
Q 31.25 6.0625 34.171875 8.515625 
Q 37.109375 10.984375 37.109375 14.3125 
Q 37.109375 17.28125 34.515625 19 
Q 32.71875 20.171875 25.53125 21.96875 
Q 15.875 24.421875 12.140625 26.203125 
Q 8.40625 27.984375 6.46875 31.125 
Q 4.546875 34.28125 4.546875 38.09375 
Q 4.546875 41.546875 6.125 44.5 
Q 7.71875 47.46875 10.453125 49.421875 
Q 12.5 50.921875 16.03125 51.96875 
Q 19.578125 53.03125 23.640625 53.03125 
Q 29.734375 53.03125 34.34375 51.265625 
Q 38.96875 49.515625 41.15625 46.5 
Q 43.359375 43.5 44.1875 38.484375 
L 35.59375 37.3125 
Q 35.015625 41.3125 32.203125 43.546875 
Q 29.390625 45.796875 24.265625 45.796875 
Q 18.21875 45.796875 15.625 43.796875 
Q 13.03125 41.796875 13.03125 39.109375 
Q 13.03125 37.40625 14.109375 36.03125 
Q 15.1875 34.625 17.484375 33.6875 
Q 18.796875 33.203125 25.25 31.453125 
Q 34.578125 28.953125 38.25 27.359375 
Q 41.9375 25.78125 44.03125 22.75 
Q 46.140625 19.734375 46.140625 15.234375 
Q 46.140625 10.84375 43.578125 6.953125 
Q 41.015625 3.078125 36.171875 0.953125 
Q 31.34375 -1.171875 25.25 -1.171875 
Q 15.140625 -1.171875 9.84375 3.03125 
Q 4.546875 7.234375 3.078125 15.484375 
z
" id="ArialMT-115"/>
      <path d="M 23.390625 -21.046875 
Q 16.109375 -11.859375 11.078125 0.4375 
Q 6.0625 12.75 6.0625 25.921875 
Q 6.0625 37.546875 9.8125 48.1875 
Q 14.203125 60.546875 23.390625 72.796875 
L 29.6875 72.796875 
Q 23.78125 62.640625 21.875 58.296875 
Q 18.890625 51.5625 17.1875 44.234375 
Q 15.09375 35.109375 15.09375 25.875 
Q 15.09375 2.390625 29.6875 -21.046875 
z
" id="ArialMT-40"/>
      <path d="M 7.328125 0 
L 7.328125 71.578125 
L 16.796875 71.578125 
L 16.796875 36.078125 
L 52.34375 71.578125 
L 65.1875 71.578125 
L 35.15625 42.578125 
L 66.5 0 
L 54 0 
L 28.515625 36.234375 
L 16.796875 24.8125 
L 16.796875 0 
z
" id="ArialMT-75"/>
      <path d="M 9.078125 0 
L 9.078125 10.015625 
L 19.09375 10.015625 
L 19.09375 0 
z
" id="ArialMT-46"/>
      <path d="M 20.21875 0 
L 1.21875 71.578125 
L 10.9375 71.578125 
L 21.828125 24.65625 
Q 23.578125 17.28125 24.859375 10.015625 
Q 27.59375 21.484375 28.078125 23.25 
L 41.703125 71.578125 
L 53.125 71.578125 
L 63.375 35.359375 
Q 67.234375 21.875 68.953125 10.015625 
Q 70.3125 16.796875 72.515625 25.59375 
L 83.734375 71.578125 
L 93.265625 71.578125 
L 73.640625 0 
L 64.5 0 
L 49.421875 54.546875 
Q 47.515625 61.375 47.171875 62.9375 
Q 46.046875 58.015625 45.0625 54.546875 
L 29.890625 0 
z
" id="ArialMT-87"/>
      <path d="M 6.59375 -19.875 
L 6.59375 51.859375 
L 14.59375 51.859375 
L 14.59375 45.125 
Q 17.4375 49.078125 21 51.046875 
Q 24.5625 53.03125 29.640625 53.03125 
Q 36.28125 53.03125 41.359375 49.609375 
Q 46.4375 46.1875 49.015625 39.953125 
Q 51.609375 33.734375 51.609375 26.3125 
Q 51.609375 18.359375 48.75 11.984375 
Q 45.90625 5.609375 40.453125 2.21875 
Q 35.015625 -1.171875 29 -1.171875 
Q 24.609375 -1.171875 21.109375 0.6875 
Q 17.625 2.546875 15.375 5.375 
L 15.375 -19.875 
z
M 14.546875 25.640625 
Q 14.546875 15.625 18.59375 10.84375 
Q 22.65625 6.0625 28.421875 6.0625 
Q 34.28125 6.0625 38.453125 11.015625 
Q 42.625 15.96875 42.625 26.375 
Q 42.625 36.28125 38.546875 41.203125 
Q 34.46875 46.140625 28.8125 46.140625 
Q 23.1875 46.140625 18.859375 40.890625 
Q 14.546875 35.640625 14.546875 25.640625 
z
" id="ArialMT-112"/>
      <path d="M 52.828125 42.09375 
L 5.5625 42.09375 
L 5.5625 50.296875 
L 52.828125 50.296875 
z
M 52.828125 20.359375 
L 5.5625 20.359375 
L 5.5625 28.5625 
L 52.828125 28.5625 
z
" id="ArialMT-61"/>
      <path d="M 4.734375 62.203125 
L 4.734375 70.65625 
L 51.078125 70.65625 
L 51.078125 63.8125 
Q 44.234375 56.546875 37.515625 44.484375 
Q 30.8125 32.421875 27.15625 19.671875 
Q 24.515625 10.6875 23.78125 0 
L 14.75 0 
Q 14.890625 8.453125 18.0625 20.40625 
Q 21.234375 32.375 27.171875 43.484375 
Q 33.109375 54.59375 39.796875 62.203125 
z
" id="ArialMT-55"/>
      <path d="M 3.171875 21.484375 
L 3.171875 30.328125 
L 30.171875 30.328125 
L 30.171875 21.484375 
z
" id="ArialMT-45"/>
      <path d="M 12.359375 -21.046875 
L 6.0625 -21.046875 
Q 20.65625 2.390625 20.65625 25.875 
Q 20.65625 35.0625 18.5625 44.09375 
Q 16.890625 51.421875 13.921875 58.15625 
Q 12.015625 62.546875 6.0625 72.796875 
L 12.359375 72.796875 
Q 21.53125 60.546875 25.921875 48.1875 
Q 29.6875 37.546875 29.6875 25.921875 
Q 29.6875 12.75 24.625 0.4375 
Q 19.578125 -11.859375 12.359375 -21.046875 
z
" id="ArialMT-41"/>
     </defs>
     <use xlink:href="#ArialMT-84"/>
     <use x="49.958984" xlink:href="#ArialMT-97"/>
     <use x="105.574219" xlink:href="#ArialMT-110"/>
     <use x="161.189453" xlink:href="#ArialMT-110"/>
     <use x="216.804688" xlink:href="#ArialMT-101"/>
     <use x="272.419922" xlink:href="#ArialMT-114"/>
     <use x="305.720703" xlink:href="#ArialMT-101"/>
     <use x="361.335938" xlink:href="#ArialMT-108"/>
     <use x="383.552734" xlink:href="#ArialMT-108"/>
     <use x="405.769531" xlink:href="#ArialMT-97"/>
     <use x="461.384766" xlink:href="#ArialMT-32"/>
     <use x="489.167969" xlink:href="#ArialMT-102"/>
     <use x="516.951172" xlink:href="#ArialMT-111"/>
     <use x="572.566406" xlink:href="#ArialMT-114"/>
     <use x="605.867188" xlink:href="#ArialMT-115"/>
     <use x="655.867188" xlink:href="#ArialMT-121"/>
     <use x="705.867188" xlink:href="#ArialMT-116"/>
     <use x="733.650391" xlink:href="#ArialMT-104"/>
     <use x="789.265625" xlink:href="#ArialMT-105"/>
     <use x="811.482422" xlink:href="#ArialMT-97"/>
     <use x="867.097656" xlink:href="#ArialMT-32"/>
     <use x="894.880859" xlink:href="#ArialMT-40"/>
     <use x="928.181641" xlink:href="#ArialMT-75"/>
     <use x="994.880859" xlink:href="#ArialMT-46"/>
     <use x="1022.664062" xlink:href="#ArialMT-87"/>
     <use x="1111.548828" xlink:href="#ArialMT-46"/>
     <use x="1139.332031" xlink:href="#ArialMT-32"/>
     <use x="1167.115234" xlink:href="#ArialMT-112"/>
     <use x="1222.730469" xlink:href="#ArialMT-61"/>
     <use x="1281.128906" xlink:href="#ArialMT-55"/>
     <use x="1336.744141" xlink:href="#ArialMT-46"/>
     <use x="1364.527344" xlink:href="#ArialMT-48"/>
     <use x="1420.142578" xlink:href="#ArialMT-49"/>
     <use x="1475.757812" xlink:href="#ArialMT-101"/>
     <use x="1531.373047" xlink:href="#ArialMT-45"/>
     <use x="1564.673828" xlink:href="#ArialMT-50"/>
     <use x="1620.289062" xlink:href="#ArialMT-50"/>
     <use x="1675.904297" xlink:href="#ArialMT-41"/>
    </g>
   </g>
  </g>
 </g>
 <defs>
  <clipPath id="p5972477d5c">
   <rect height="1083.7" width="1011.87" x="230.13" y="96.24"/>
  </clipPath>
 </defs>
</svg>
