<?xml version="1.0" encoding="utf-8" standalone="no"?>
<!DOCTYPE svg PUBLIC "-//W3C//DTD SVG 1.1//EN"
  "http://www.w3.org/Graphics/SVG/1.1/DTD/svg11.dtd">
<!-- Created with matplotlib (https://matplotlib.org/) -->
<svg height="1296pt" version="1.1" viewBox="0 0 1296 1296" width="1296pt" xmlns="http://www.w3.org/2000/svg" xmlns:xlink="http://www.w3.org/1999/xlink">
 <metadata>
  <rdf:RDF xmlns:cc="http://creativecommons.org/ns#" xmlns:dc="http://purl.org/dc/elements/1.1/" xmlns:rdf="http://www.w3.org/1999/02/22-rdf-syntax-ns#">
   <cc:Work>
    <dc:type rdf:resource="http://purl.org/dc/dcmitype/StillImage"/>
    <dc:date>2022-06-29T14:05:30.657593</dc:date>
    <dc:format>image/svg+xml</dc:format>
    <dc:creator>
     <cc:Agent>
      <dc:title>Matplotlib v3.3.3, https://matplotlib.org/</dc:title>
     </cc:Agent>
    </dc:creator>
   </cc:Work>
  </rdf:RDF>
 </metadata>
 <defs>
  <style type="text/css">*{stroke-linecap:butt;stroke-linejoin:round;}</style>
 </defs>
 <g id="figure_1">
  <g id="patch_1">
   <path d="M 0 1296 
L 1296 1296 
L 1296 0 
L 0 0 
z
" style="fill:#ffffff;"/>
  </g>
  <g id="axes_1">
   <g id="patch_2">
    <path d="M 202.32 1179.94 
L 1242 1179.94 
L 1242 96.12 
L 202.32 96.12 
z
" style="fill:#ffffff;"/>
   </g>
   <g id="matplotlib.axis_1">
    <g id="xtick_1">
     <g id="text_1">
      <!-- Healthy -->
      <g style="fill:#262626;" transform="translate(211.554593 1231.229063)scale(0.5 -0.5)">
       <defs>
        <path d="M 8.015625 0 
L 8.015625 71.578125 
L 17.484375 71.578125 
L 17.484375 42.1875 
L 54.6875 42.1875 
L 54.6875 71.578125 
L 64.15625 71.578125 
L 64.15625 0 
L 54.6875 0 
L 54.6875 33.734375 
L 17.484375 33.734375 
L 17.484375 0 
z
" id="ArialMT-72"/>
        <path d="M 42.09375 16.703125 
L 51.171875 15.578125 
Q 49.03125 7.625 43.21875 3.21875 
Q 37.40625 -1.171875 28.375 -1.171875 
Q 17 -1.171875 10.328125 5.828125 
Q 3.65625 12.84375 3.65625 25.484375 
Q 3.65625 38.578125 10.390625 45.796875 
Q 17.140625 53.03125 27.875 53.03125 
Q 38.28125 53.03125 44.875 45.953125 
Q 51.46875 38.875 51.46875 26.03125 
Q 51.46875 25.25 51.421875 23.6875 
L 12.75 23.6875 
Q 13.234375 15.140625 17.578125 10.59375 
Q 21.921875 6.0625 28.421875 6.0625 
Q 33.25 6.0625 36.671875 8.59375 
Q 40.09375 11.140625 42.09375 16.703125 
z
M 13.234375 30.90625 
L 42.1875 30.90625 
Q 41.609375 37.453125 38.875 40.71875 
Q 34.671875 45.796875 27.984375 45.796875 
Q 21.921875 45.796875 17.796875 41.75 
Q 13.671875 37.703125 13.234375 30.90625 
z
" id="ArialMT-101"/>
        <path d="M 40.4375 6.390625 
Q 35.546875 2.25 31.03125 0.53125 
Q 26.515625 -1.171875 21.34375 -1.171875 
Q 12.796875 -1.171875 8.203125 3 
Q 3.609375 7.171875 3.609375 13.671875 
Q 3.609375 17.484375 5.34375 20.625 
Q 7.078125 23.78125 9.890625 25.6875 
Q 12.703125 27.59375 16.21875 28.5625 
Q 18.796875 29.25 24.03125 29.890625 
Q 34.671875 31.15625 39.703125 32.90625 
Q 39.75 34.71875 39.75 35.203125 
Q 39.75 40.578125 37.25 42.78125 
Q 33.890625 45.75 27.25 45.75 
Q 21.046875 45.75 18.09375 43.578125 
Q 15.140625 41.40625 13.71875 35.890625 
L 5.125 37.0625 
Q 6.296875 42.578125 8.984375 45.96875 
Q 11.671875 49.359375 16.75 51.1875 
Q 21.828125 53.03125 28.515625 53.03125 
Q 35.15625 53.03125 39.296875 51.46875 
Q 43.453125 49.90625 45.40625 47.53125 
Q 47.359375 45.171875 48.140625 41.546875 
Q 48.578125 39.3125 48.578125 33.453125 
L 48.578125 21.734375 
Q 48.578125 9.46875 49.140625 6.21875 
Q 49.703125 2.984375 51.375 0 
L 42.1875 0 
Q 40.828125 2.734375 40.4375 6.390625 
z
M 39.703125 26.03125 
Q 34.90625 24.078125 25.34375 22.703125 
Q 19.921875 21.921875 17.671875 20.9375 
Q 15.4375 19.96875 14.203125 18.09375 
Q 12.984375 16.21875 12.984375 13.921875 
Q 12.984375 10.40625 15.640625 8.0625 
Q 18.3125 5.71875 23.4375 5.71875 
Q 28.515625 5.71875 32.46875 7.9375 
Q 36.421875 10.15625 38.28125 14.015625 
Q 39.703125 17 39.703125 22.796875 
z
" id="ArialMT-97"/>
        <path d="M 6.390625 0 
L 6.390625 71.578125 
L 15.1875 71.578125 
L 15.1875 0 
z
" id="ArialMT-108"/>
        <path d="M 25.78125 7.859375 
L 27.046875 0.09375 
Q 23.34375 -0.6875 20.40625 -0.6875 
Q 15.625 -0.6875 12.984375 0.828125 
Q 10.359375 2.34375 9.28125 4.8125 
Q 8.203125 7.28125 8.203125 15.1875 
L 8.203125 45.015625 
L 1.765625 45.015625 
L 1.765625 51.859375 
L 8.203125 51.859375 
L 8.203125 64.703125 
L 16.9375 69.96875 
L 16.9375 51.859375 
L 25.78125 51.859375 
L 25.78125 45.015625 
L 16.9375 45.015625 
L 16.9375 14.703125 
Q 16.9375 10.9375 17.40625 9.859375 
Q 17.875 8.796875 18.921875 8.15625 
Q 19.96875 7.515625 21.921875 7.515625 
Q 23.390625 7.515625 25.78125 7.859375 
z
" id="ArialMT-116"/>
        <path d="M 6.59375 0 
L 6.59375 71.578125 
L 15.375 71.578125 
L 15.375 45.90625 
Q 21.53125 53.03125 30.90625 53.03125 
Q 36.671875 53.03125 40.921875 50.75 
Q 45.171875 48.484375 47 44.484375 
Q 48.828125 40.484375 48.828125 32.859375 
L 48.828125 0 
L 40.046875 0 
L 40.046875 32.859375 
Q 40.046875 39.453125 37.1875 42.453125 
Q 34.328125 45.453125 29.109375 45.453125 
Q 25.203125 45.453125 21.75 43.421875 
Q 18.3125 41.40625 16.84375 37.9375 
Q 15.375 34.46875 15.375 28.375 
L 15.375 0 
z
" id="ArialMT-104"/>
        <path d="M 6.203125 -19.96875 
L 5.21875 -11.71875 
Q 8.109375 -12.5 10.25 -12.5 
Q 13.1875 -12.5 14.9375 -11.515625 
Q 16.703125 -10.546875 17.828125 -8.796875 
Q 18.65625 -7.46875 20.515625 -2.25 
Q 20.75 -1.515625 21.296875 -0.09375 
L 1.609375 51.859375 
L 11.078125 51.859375 
L 21.875 21.828125 
Q 23.96875 16.109375 25.640625 9.8125 
Q 27.15625 15.875 29.25 21.625 
L 40.328125 51.859375 
L 49.125 51.859375 
L 29.390625 -0.875 
Q 26.21875 -9.421875 24.46875 -12.640625 
Q 22.125 -17 19.09375 -19.015625 
Q 16.0625 -21.046875 11.859375 -21.046875 
Q 9.328125 -21.046875 6.203125 -19.96875 
z
" id="ArialMT-121"/>
       </defs>
       <use xlink:href="#ArialMT-72"/>
       <use x="72.216797" xlink:href="#ArialMT-101"/>
       <use x="127.832031" xlink:href="#ArialMT-97"/>
       <use x="183.447266" xlink:href="#ArialMT-108"/>
       <use x="205.664062" xlink:href="#ArialMT-116"/>
       <use x="233.447266" xlink:href="#ArialMT-104"/>
       <use x="289.0625" xlink:href="#ArialMT-121"/>
      </g>
     </g>
    </g>
    <g id="xtick_2">
     <g id="text_2">
      <!-- Moderate+Severe -->
      <g style="fill:#262626;" transform="translate(517.954347 1231.229063)scale(0.5 -0.5)">
       <defs>
        <path d="M 7.421875 0 
L 7.421875 71.578125 
L 21.6875 71.578125 
L 38.625 20.90625 
Q 40.96875 13.8125 42.046875 10.296875 
Q 43.265625 14.203125 45.84375 21.78125 
L 62.984375 71.578125 
L 75.734375 71.578125 
L 75.734375 0 
L 66.609375 0 
L 66.609375 59.90625 
L 45.796875 0 
L 37.25 0 
L 16.546875 60.9375 
L 16.546875 0 
z
" id="ArialMT-77"/>
        <path d="M 3.328125 25.921875 
Q 3.328125 40.328125 11.328125 47.265625 
Q 18.015625 53.03125 27.640625 53.03125 
Q 38.328125 53.03125 45.109375 46.015625 
Q 51.90625 39.015625 51.90625 26.65625 
Q 51.90625 16.65625 48.90625 10.90625 
Q 45.90625 5.171875 40.15625 2 
Q 34.421875 -1.171875 27.640625 -1.171875 
Q 16.75 -1.171875 10.03125 5.8125 
Q 3.328125 12.796875 3.328125 25.921875 
z
M 12.359375 25.921875 
Q 12.359375 15.96875 16.703125 11.015625 
Q 21.046875 6.0625 27.640625 6.0625 
Q 34.1875 6.0625 38.53125 11.03125 
Q 42.875 16.015625 42.875 26.21875 
Q 42.875 35.84375 38.5 40.796875 
Q 34.125 45.75 27.640625 45.75 
Q 21.046875 45.75 16.703125 40.8125 
Q 12.359375 35.890625 12.359375 25.921875 
z
" id="ArialMT-111"/>
        <path d="M 40.234375 0 
L 40.234375 6.546875 
Q 35.296875 -1.171875 25.734375 -1.171875 
Q 19.53125 -1.171875 14.328125 2.25 
Q 9.125 5.671875 6.265625 11.796875 
Q 3.421875 17.921875 3.421875 25.875 
Q 3.421875 33.640625 6 39.96875 
Q 8.59375 46.296875 13.765625 49.65625 
Q 18.953125 53.03125 25.34375 53.03125 
Q 30.03125 53.03125 33.6875 51.046875 
Q 37.359375 49.078125 39.65625 45.90625 
L 39.65625 71.578125 
L 48.390625 71.578125 
L 48.390625 0 
z
M 12.453125 25.875 
Q 12.453125 15.921875 16.640625 10.984375 
Q 20.84375 6.0625 26.5625 6.0625 
Q 32.328125 6.0625 36.34375 10.765625 
Q 40.375 15.484375 40.375 25.140625 
Q 40.375 35.796875 36.265625 40.765625 
Q 32.171875 45.75 26.171875 45.75 
Q 20.3125 45.75 16.375 40.96875 
Q 12.453125 36.1875 12.453125 25.875 
z
" id="ArialMT-100"/>
        <path d="M 6.5 0 
L 6.5 51.859375 
L 14.40625 51.859375 
L 14.40625 44 
Q 17.4375 49.515625 20 51.265625 
Q 22.5625 53.03125 25.640625 53.03125 
Q 30.078125 53.03125 34.671875 50.203125 
L 31.640625 42.046875 
Q 28.421875 43.953125 25.203125 43.953125 
Q 22.3125 43.953125 20.015625 42.21875 
Q 17.71875 40.484375 16.75 37.40625 
Q 15.28125 32.71875 15.28125 27.15625 
L 15.28125 0 
z
" id="ArialMT-114"/>
        <path d="M 25.046875 11.578125 
L 25.046875 31.203125 
L 5.5625 31.203125 
L 5.5625 39.40625 
L 25.046875 39.40625 
L 25.046875 58.890625 
L 33.34375 58.890625 
L 33.34375 39.40625 
L 52.828125 39.40625 
L 52.828125 31.203125 
L 33.34375 31.203125 
L 33.34375 11.578125 
z
" id="ArialMT-43"/>
        <path d="M 4.5 23 
L 13.421875 23.78125 
Q 14.0625 18.40625 16.375 14.96875 
Q 18.703125 11.53125 23.578125 9.40625 
Q 28.46875 7.28125 34.578125 7.28125 
Q 39.984375 7.28125 44.140625 8.890625 
Q 48.296875 10.5 50.3125 13.296875 
Q 52.34375 16.109375 52.34375 19.4375 
Q 52.34375 22.796875 50.390625 25.3125 
Q 48.4375 27.828125 43.953125 29.546875 
Q 41.0625 30.671875 31.203125 33.03125 
Q 21.34375 35.40625 17.390625 37.5 
Q 12.25 40.1875 9.734375 44.15625 
Q 7.234375 48.140625 7.234375 53.078125 
Q 7.234375 58.5 10.296875 63.203125 
Q 13.375 67.921875 19.28125 70.359375 
Q 25.203125 72.796875 32.421875 72.796875 
Q 40.375 72.796875 46.453125 70.234375 
Q 52.546875 67.671875 55.8125 62.6875 
Q 59.078125 57.71875 59.328125 51.421875 
L 50.25 50.734375 
Q 49.515625 57.515625 45.28125 60.984375 
Q 41.0625 64.453125 32.8125 64.453125 
Q 24.21875 64.453125 20.28125 61.296875 
Q 16.359375 58.15625 16.359375 53.71875 
Q 16.359375 49.859375 19.140625 47.359375 
Q 21.875 44.875 33.421875 42.265625 
Q 44.96875 39.65625 49.265625 37.703125 
Q 55.515625 34.8125 58.484375 30.390625 
Q 61.46875 25.984375 61.46875 20.21875 
Q 61.46875 14.5 58.203125 9.4375 
Q 54.9375 4.390625 48.796875 1.578125 
Q 42.671875 -1.21875 35.015625 -1.21875 
Q 25.296875 -1.21875 18.71875 1.609375 
Q 12.15625 4.4375 8.421875 10.125 
Q 4.6875 15.828125 4.5 23 
z
" id="ArialMT-83"/>
        <path d="M 21 0 
L 1.265625 51.859375 
L 10.546875 51.859375 
L 21.6875 20.796875 
Q 23.484375 15.765625 25 10.359375 
Q 26.171875 14.453125 28.265625 20.21875 
L 39.796875 51.859375 
L 48.828125 51.859375 
L 29.203125 0 
z
" id="ArialMT-118"/>
       </defs>
       <use xlink:href="#ArialMT-77"/>
       <use x="83.300781" xlink:href="#ArialMT-111"/>
       <use x="138.916016" xlink:href="#ArialMT-100"/>
       <use x="194.53125" xlink:href="#ArialMT-101"/>
       <use x="250.146484" xlink:href="#ArialMT-114"/>
       <use x="283.447266" xlink:href="#ArialMT-97"/>
       <use x="339.0625" xlink:href="#ArialMT-116"/>
       <use x="366.845703" xlink:href="#ArialMT-101"/>
       <use x="422.460938" xlink:href="#ArialMT-43"/>
       <use x="480.859375" xlink:href="#ArialMT-83"/>
       <use x="547.558594" xlink:href="#ArialMT-101"/>
       <use x="603.173828" xlink:href="#ArialMT-118"/>
       <use x="653.173828" xlink:href="#ArialMT-101"/>
       <use x="708.789062" xlink:href="#ArialMT-114"/>
       <use x="742.089844" xlink:href="#ArialMT-101"/>
      </g>
     </g>
    </g>
    <g id="xtick_3">
     <g id="text_3">
      <!-- Slight -->
      <g style="fill:#262626;" transform="translate(1075.885352 1231.838438)scale(0.5 -0.5)">
       <defs>
        <path d="M 6.640625 61.46875 
L 6.640625 71.578125 
L 15.4375 71.578125 
L 15.4375 61.46875 
z
M 6.640625 0 
L 6.640625 51.859375 
L 15.4375 51.859375 
L 15.4375 0 
z
" id="ArialMT-105"/>
        <path d="M 4.984375 -4.296875 
L 13.53125 -5.5625 
Q 14.0625 -9.515625 16.5 -11.328125 
Q 19.78125 -13.765625 25.4375 -13.765625 
Q 31.546875 -13.765625 34.859375 -11.328125 
Q 38.1875 -8.890625 39.359375 -4.5 
Q 40.046875 -1.8125 39.984375 6.78125 
Q 34.234375 0 25.640625 0 
Q 14.9375 0 9.078125 7.71875 
Q 3.21875 15.4375 3.21875 26.21875 
Q 3.21875 33.640625 5.90625 39.90625 
Q 8.59375 46.1875 13.6875 49.609375 
Q 18.796875 53.03125 25.6875 53.03125 
Q 34.859375 53.03125 40.828125 45.609375 
L 40.828125 51.859375 
L 48.921875 51.859375 
L 48.921875 7.03125 
Q 48.921875 -5.078125 46.453125 -10.125 
Q 44 -15.1875 38.640625 -18.109375 
Q 33.296875 -21.046875 25.484375 -21.046875 
Q 16.21875 -21.046875 10.5 -16.875 
Q 4.78125 -12.703125 4.984375 -4.296875 
z
M 12.25 26.859375 
Q 12.25 16.65625 16.296875 11.96875 
Q 20.359375 7.28125 26.46875 7.28125 
Q 32.515625 7.28125 36.609375 11.9375 
Q 40.71875 16.609375 40.71875 26.5625 
Q 40.71875 36.078125 36.5 40.90625 
Q 32.28125 45.75 26.3125 45.75 
Q 20.453125 45.75 16.34375 40.984375 
Q 12.25 36.234375 12.25 26.859375 
z
" id="ArialMT-103"/>
       </defs>
       <use xlink:href="#ArialMT-83"/>
       <use x="66.699219" xlink:href="#ArialMT-108"/>
       <use x="88.916016" xlink:href="#ArialMT-105"/>
       <use x="111.132812" xlink:href="#ArialMT-103"/>
       <use x="166.748047" xlink:href="#ArialMT-104"/>
       <use x="222.363281" xlink:href="#ArialMT-116"/>
      </g>
     </g>
    </g>
   </g>
   <g id="matplotlib.axis_2">
    <g id="ytick_1">
     <g id="line2d_1">
      <path clip-path="url(#pfbc8c61321)" d="M 202.32 1092.911371 
L 1242 1092.911371 
" style="fill:none;stroke:#cccccc;stroke-linecap:round;stroke-width:2;"/>
     </g>
     <g id="text_4">
      <!-- 0 -->
      <g style="fill:#262626;" transform="translate(159.015313 1110.805902)scale(0.5 -0.5)">
       <defs>
        <path d="M 4.15625 35.296875 
Q 4.15625 48 6.765625 55.734375 
Q 9.375 63.484375 14.515625 67.671875 
Q 19.671875 71.875 27.484375 71.875 
Q 33.25 71.875 37.59375 69.546875 
Q 41.9375 67.234375 44.765625 62.859375 
Q 47.609375 58.5 49.21875 52.21875 
Q 50.828125 45.953125 50.828125 35.296875 
Q 50.828125 22.703125 48.234375 14.96875 
Q 45.65625 7.234375 40.5 3 
Q 35.359375 -1.21875 27.484375 -1.21875 
Q 17.140625 -1.21875 11.234375 6.203125 
Q 4.15625 15.140625 4.15625 35.296875 
z
M 13.1875 35.296875 
Q 13.1875 17.671875 17.3125 11.828125 
Q 21.4375 6 27.484375 6 
Q 33.546875 6 37.671875 11.859375 
Q 41.796875 17.71875 41.796875 35.296875 
Q 41.796875 52.984375 37.671875 58.78125 
Q 33.546875 64.59375 27.390625 64.59375 
Q 21.34375 64.59375 17.71875 59.46875 
Q 13.1875 52.9375 13.1875 35.296875 
z
" id="ArialMT-48"/>
       </defs>
       <use xlink:href="#ArialMT-48"/>
      </g>
     </g>
    </g>
    <g id="ytick_2">
     <g id="line2d_2">
      <path clip-path="url(#pfbc8c61321)" d="M 202.32 884.162379 
L 1242 884.162379 
" style="fill:none;stroke:#cccccc;stroke-linecap:round;stroke-width:2;"/>
     </g>
     <g id="text_5">
      <!-- 200 -->
      <g style="fill:#262626;" transform="translate(103.405938 902.05691)scale(0.5 -0.5)">
       <defs>
        <path d="M 50.34375 8.453125 
L 50.34375 0 
L 3.03125 0 
Q 2.9375 3.171875 4.046875 6.109375 
Q 5.859375 10.9375 9.828125 15.625 
Q 13.8125 20.3125 21.34375 26.46875 
Q 33.015625 36.03125 37.109375 41.625 
Q 41.21875 47.21875 41.21875 52.203125 
Q 41.21875 57.421875 37.46875 61 
Q 33.734375 64.59375 27.734375 64.59375 
Q 21.390625 64.59375 17.578125 60.78125 
Q 13.765625 56.984375 13.71875 50.25 
L 4.6875 51.171875 
Q 5.609375 61.28125 11.65625 66.578125 
Q 17.71875 71.875 27.9375 71.875 
Q 38.234375 71.875 44.234375 66.15625 
Q 50.25 60.453125 50.25 52 
Q 50.25 47.703125 48.484375 43.546875 
Q 46.734375 39.40625 42.65625 34.8125 
Q 38.578125 30.21875 29.109375 22.21875 
Q 21.1875 15.578125 18.9375 13.203125 
Q 16.703125 10.84375 15.234375 8.453125 
z
" id="ArialMT-50"/>
       </defs>
       <use xlink:href="#ArialMT-50"/>
       <use x="55.615234" xlink:href="#ArialMT-48"/>
       <use x="111.230469" xlink:href="#ArialMT-48"/>
      </g>
     </g>
    </g>
    <g id="ytick_3">
     <g id="line2d_3">
      <path clip-path="url(#pfbc8c61321)" d="M 202.32 675.413387 
L 1242 675.413387 
" style="fill:none;stroke:#cccccc;stroke-linecap:round;stroke-width:2;"/>
     </g>
     <g id="text_6">
      <!-- 400 -->
      <g style="fill:#262626;" transform="translate(103.405938 693.307918)scale(0.5 -0.5)">
       <defs>
        <path d="M 32.328125 0 
L 32.328125 17.140625 
L 1.265625 17.140625 
L 1.265625 25.203125 
L 33.9375 71.578125 
L 41.109375 71.578125 
L 41.109375 25.203125 
L 50.78125 25.203125 
L 50.78125 17.140625 
L 41.109375 17.140625 
L 41.109375 0 
z
M 32.328125 25.203125 
L 32.328125 57.46875 
L 9.90625 25.203125 
z
" id="ArialMT-52"/>
       </defs>
       <use xlink:href="#ArialMT-52"/>
       <use x="55.615234" xlink:href="#ArialMT-48"/>
       <use x="111.230469" xlink:href="#ArialMT-48"/>
      </g>
     </g>
    </g>
    <g id="ytick_4">
     <g id="line2d_4">
      <path clip-path="url(#pfbc8c61321)" d="M 202.32 466.664395 
L 1242 466.664395 
" style="fill:none;stroke:#cccccc;stroke-linecap:round;stroke-width:2;"/>
     </g>
     <g id="text_7">
      <!-- 600 -->
      <g style="fill:#262626;" transform="translate(103.405938 484.558926)scale(0.5 -0.5)">
       <defs>
        <path d="M 49.75 54.046875 
L 41.015625 53.375 
Q 39.84375 58.546875 37.703125 60.890625 
Q 34.125 64.65625 28.90625 64.65625 
Q 24.703125 64.65625 21.53125 62.3125 
Q 17.390625 59.28125 14.984375 53.46875 
Q 12.59375 47.65625 12.5 36.921875 
Q 15.671875 41.75 20.265625 44.09375 
Q 24.859375 46.4375 29.890625 46.4375 
Q 38.671875 46.4375 44.84375 39.96875 
Q 51.03125 33.5 51.03125 23.25 
Q 51.03125 16.5 48.125 10.71875 
Q 45.21875 4.9375 40.140625 1.859375 
Q 35.0625 -1.21875 28.609375 -1.21875 
Q 17.625 -1.21875 10.6875 6.859375 
Q 3.765625 14.9375 3.765625 33.5 
Q 3.765625 54.25 11.421875 63.671875 
Q 18.109375 71.875 29.4375 71.875 
Q 37.890625 71.875 43.28125 67.140625 
Q 48.6875 62.40625 49.75 54.046875 
z
M 13.875 23.1875 
Q 13.875 18.65625 15.796875 14.5 
Q 17.71875 10.359375 21.1875 8.171875 
Q 24.65625 6 28.46875 6 
Q 34.03125 6 38.03125 10.484375 
Q 42.046875 14.984375 42.046875 22.703125 
Q 42.046875 30.125 38.078125 34.390625 
Q 34.125 38.671875 28.125 38.671875 
Q 22.171875 38.671875 18.015625 34.390625 
Q 13.875 30.125 13.875 23.1875 
z
" id="ArialMT-54"/>
       </defs>
       <use xlink:href="#ArialMT-54"/>
       <use x="55.615234" xlink:href="#ArialMT-48"/>
       <use x="111.230469" xlink:href="#ArialMT-48"/>
      </g>
     </g>
    </g>
    <g id="ytick_5">
     <g id="line2d_5">
      <path clip-path="url(#pfbc8c61321)" d="M 202.32 257.915403 
L 1242 257.915403 
" style="fill:none;stroke:#cccccc;stroke-linecap:round;stroke-width:2;"/>
     </g>
     <g id="text_8">
      <!-- 800 -->
      <g style="fill:#262626;" transform="translate(103.405938 275.809935)scale(0.5 -0.5)">
       <defs>
        <path d="M 17.671875 38.8125 
Q 12.203125 40.828125 9.5625 44.53125 
Q 6.9375 48.25 6.9375 53.421875 
Q 6.9375 61.234375 12.546875 66.546875 
Q 18.171875 71.875 27.484375 71.875 
Q 36.859375 71.875 42.578125 66.421875 
Q 48.296875 60.984375 48.296875 53.171875 
Q 48.296875 48.1875 45.671875 44.5 
Q 43.0625 40.828125 37.75 38.8125 
Q 44.34375 36.671875 47.78125 31.875 
Q 51.21875 27.09375 51.21875 20.453125 
Q 51.21875 11.28125 44.71875 5.03125 
Q 38.234375 -1.21875 27.640625 -1.21875 
Q 17.046875 -1.21875 10.546875 5.046875 
Q 4.046875 11.328125 4.046875 20.703125 
Q 4.046875 27.6875 7.59375 32.390625 
Q 11.140625 37.109375 17.671875 38.8125 
z
M 15.921875 53.71875 
Q 15.921875 48.640625 19.1875 45.40625 
Q 22.46875 42.1875 27.6875 42.1875 
Q 32.765625 42.1875 36.015625 45.375 
Q 39.265625 48.578125 39.265625 53.21875 
Q 39.265625 58.0625 35.90625 61.359375 
Q 32.5625 64.65625 27.59375 64.65625 
Q 22.5625 64.65625 19.234375 61.421875 
Q 15.921875 58.203125 15.921875 53.71875 
z
M 13.09375 20.65625 
Q 13.09375 16.890625 14.875 13.375 
Q 16.65625 9.859375 20.171875 7.921875 
Q 23.6875 6 27.734375 6 
Q 34.03125 6 38.125 10.046875 
Q 42.234375 14.109375 42.234375 20.359375 
Q 42.234375 26.703125 38.015625 30.859375 
Q 33.796875 35.015625 27.4375 35.015625 
Q 21.234375 35.015625 17.15625 30.90625 
Q 13.09375 26.8125 13.09375 20.65625 
z
" id="ArialMT-56"/>
       </defs>
       <use xlink:href="#ArialMT-56"/>
       <use x="55.615234" xlink:href="#ArialMT-48"/>
       <use x="111.230469" xlink:href="#ArialMT-48"/>
      </g>
     </g>
    </g>
    <g id="text_9">
     <!-- Abundance -->
     <g style="fill:#262626;" transform="translate(89.468438 764.522187)rotate(-90)scale(0.5 -0.5)">
      <defs>
       <path d="M -0.140625 0 
L 27.34375 71.578125 
L 37.546875 71.578125 
L 66.84375 0 
L 56.0625 0 
L 47.703125 21.6875 
L 17.78125 21.6875 
L 9.90625 0 
z
M 20.515625 29.390625 
L 44.78125 29.390625 
L 37.3125 49.21875 
Q 33.890625 58.25 32.234375 64.0625 
Q 30.859375 57.171875 28.375 50.390625 
z
" id="ArialMT-65"/>
       <path d="M 14.703125 0 
L 6.546875 0 
L 6.546875 71.578125 
L 15.328125 71.578125 
L 15.328125 46.046875 
Q 20.90625 53.03125 29.546875 53.03125 
Q 34.328125 53.03125 38.59375 51.09375 
Q 42.875 49.171875 45.625 45.671875 
Q 48.390625 42.1875 49.953125 37.25 
Q 51.515625 32.328125 51.515625 26.703125 
Q 51.515625 13.375 44.921875 6.09375 
Q 38.328125 -1.171875 29.109375 -1.171875 
Q 19.921875 -1.171875 14.703125 6.5 
z
M 14.59375 26.3125 
Q 14.59375 17 17.140625 12.84375 
Q 21.296875 6.0625 28.375 6.0625 
Q 34.125 6.0625 38.328125 11.0625 
Q 42.53125 16.0625 42.53125 25.984375 
Q 42.53125 36.140625 38.5 40.96875 
Q 34.46875 45.796875 28.765625 45.796875 
Q 23 45.796875 18.796875 40.796875 
Q 14.59375 35.796875 14.59375 26.3125 
z
" id="ArialMT-98"/>
       <path d="M 40.578125 0 
L 40.578125 7.625 
Q 34.515625 -1.171875 24.125 -1.171875 
Q 19.53125 -1.171875 15.546875 0.578125 
Q 11.578125 2.34375 9.640625 5 
Q 7.71875 7.671875 6.9375 11.53125 
Q 6.390625 14.109375 6.390625 19.734375 
L 6.390625 51.859375 
L 15.1875 51.859375 
L 15.1875 23.09375 
Q 15.1875 16.21875 15.71875 13.8125 
Q 16.546875 10.359375 19.234375 8.375 
Q 21.921875 6.390625 25.875 6.390625 
Q 29.828125 6.390625 33.296875 8.421875 
Q 36.765625 10.453125 38.203125 13.9375 
Q 39.65625 17.4375 39.65625 24.078125 
L 39.65625 51.859375 
L 48.4375 51.859375 
L 48.4375 0 
z
" id="ArialMT-117"/>
       <path d="M 6.59375 0 
L 6.59375 51.859375 
L 14.5 51.859375 
L 14.5 44.484375 
Q 20.21875 53.03125 31 53.03125 
Q 35.6875 53.03125 39.625 51.34375 
Q 43.5625 49.65625 45.515625 46.921875 
Q 47.46875 44.1875 48.25 40.4375 
Q 48.734375 37.984375 48.734375 31.890625 
L 48.734375 0 
L 39.9375 0 
L 39.9375 31.546875 
Q 39.9375 36.921875 38.90625 39.578125 
Q 37.890625 42.234375 35.28125 43.8125 
Q 32.671875 45.40625 29.15625 45.40625 
Q 23.53125 45.40625 19.453125 41.84375 
Q 15.375 38.28125 15.375 28.328125 
L 15.375 0 
z
" id="ArialMT-110"/>
       <path d="M 40.4375 19 
L 49.078125 17.875 
Q 47.65625 8.9375 41.8125 3.875 
Q 35.984375 -1.171875 27.484375 -1.171875 
Q 16.84375 -1.171875 10.375 5.78125 
Q 3.90625 12.75 3.90625 25.734375 
Q 3.90625 34.125 6.6875 40.421875 
Q 9.46875 46.734375 15.15625 49.875 
Q 20.84375 53.03125 27.546875 53.03125 
Q 35.984375 53.03125 41.359375 48.75 
Q 46.734375 44.484375 48.25 36.625 
L 39.703125 35.296875 
Q 38.484375 40.53125 35.375 43.15625 
Q 32.28125 45.796875 27.875 45.796875 
Q 21.234375 45.796875 17.078125 41.03125 
Q 12.9375 36.28125 12.9375 25.984375 
Q 12.9375 15.53125 16.9375 10.796875 
Q 20.953125 6.0625 27.390625 6.0625 
Q 32.5625 6.0625 36.03125 9.234375 
Q 39.5 12.40625 40.4375 19 
z
" id="ArialMT-99"/>
      </defs>
      <use xlink:href="#ArialMT-65"/>
      <use x="66.699219" xlink:href="#ArialMT-98"/>
      <use x="122.314453" xlink:href="#ArialMT-117"/>
      <use x="177.929688" xlink:href="#ArialMT-110"/>
      <use x="233.544922" xlink:href="#ArialMT-100"/>
      <use x="289.160156" xlink:href="#ArialMT-97"/>
      <use x="344.775391" xlink:href="#ArialMT-110"/>
      <use x="400.390625" xlink:href="#ArialMT-99"/>
      <use x="450.390625" xlink:href="#ArialMT-101"/>
     </g>
    </g>
   </g>
   <g id="PolyCollection_1">
    <defs>
     <path d="M 318.08243 -157.513861 
L 274.550193 -157.513861 
L 269.937913 -165.888379 
L 265.285202 -174.262896 
L 260.853143 -182.637413 
L 256.905423 -191.011931 
L 253.674762 -199.386448 
L 251.332504 -207.760966 
L 249.967466 -216.135483 
L 249.578182 -224.51 
L 250.079621 -232.884518 
L 251.322199 -241.259035 
L 253.118328 -249.633553 
L 255.270641 -258.00807 
L 257.596426 -266.382587 
L 259.944595 -274.757105 
L 262.203804 -283.131622 
L 264.30258 -291.50614 
L 266.203802 -299.880657 
L 267.89644 -308.255174 
L 269.387114 -316.629692 
L 270.6932 -325.004209 
L 271.838127 -333.378727 
L 272.84869 -341.753244 
L 273.75369 -350.127761 
L 274.583057 -358.502279 
L 275.366839 -366.876796 
L 276.133759 -375.251314 
L 276.909398 -383.625831 
L 277.714339 -392.000348 
L 278.562701 -400.374866 
L 279.461459 -408.749383 
L 280.410696 -417.123901 
L 281.404754 -425.498418 
L 282.433947 -433.872935 
L 283.486409 -442.247453 
L 284.549662 -450.62197 
L 285.611603 -458.996488 
L 286.660866 -467.371005 
L 287.686723 -475.745522 
L 288.678795 -484.12004 
L 289.626885 -492.494557 
L 290.521112 -500.869075 
L 291.35235 -509.243592 
L 292.112848 -517.618109 
L 292.796798 -525.992627 
L 293.400673 -534.367144 
L 293.923237 -542.741662 
L 294.365276 -551.116179 
L 294.72918 -559.490696 
L 295.018562 -567.865214 
L 295.238053 -576.239731 
L 295.39331 -584.614249 
L 295.491201 -592.988766 
L 295.540034 -601.363283 
L 295.549651 -609.737801 
L 295.531263 -618.112318 
L 295.496939 -626.486836 
L 295.458765 -634.861353 
L 295.427803 -643.23587 
L 295.413024 -651.610388 
L 295.420436 -659.984905 
L 295.452601 -668.359423 
L 295.508627 -676.73394 
L 295.58467 -685.108457 
L 295.67481 -693.482975 
L 295.77214 -701.857492 
L 295.869842 -710.23201 
L 295.962073 -718.606527 
L 296.044535 -726.981044 
L 296.11469 -735.355562 
L 296.171659 -743.730079 
L 296.215898 -752.104597 
L 296.24876 -760.479114 
L 296.272051 -768.853631 
L 296.287636 -777.228149 
L 296.29715 -785.602666 
L 296.301795 -793.977184 
L 296.302234 -802.351701 
L 296.298531 -810.726218 
L 296.290152 -819.100736 
L 296.276002 -827.475253 
L 296.254527 -835.849771 
L 296.223891 -844.224288 
L 296.18225 -852.598805 
L 296.128121 -860.973323 
L 296.060829 -869.34784 
L 295.980958 -877.722358 
L 295.890719 -886.096875 
L 295.794125 -894.471392 
L 295.696878 -902.84591 
L 295.605915 -911.220427 
L 295.528645 -919.594945 
L 295.471967 -927.969462 
L 295.441261 -936.343979 
L 295.439548 -944.718497 
L 295.466998 -953.093014 
L 295.520905 -961.467532 
L 295.596123 -969.842049 
L 295.685878 -978.216566 
L 295.78277 -986.591084 
L 296.849853 -986.591084 
L 296.849853 -986.591084 
L 296.946745 -978.216566 
L 297.0365 -969.842049 
L 297.111718 -961.467532 
L 297.165624 -953.093014 
L 297.193075 -944.718497 
L 297.191362 -936.343979 
L 297.160656 -927.969462 
L 297.103977 -919.594945 
L 297.026707 -911.220427 
L 296.935745 -902.84591 
L 296.838498 -894.471392 
L 296.741904 -886.096875 
L 296.651664 -877.722358 
L 296.571793 -869.34784 
L 296.504501 -860.973323 
L 296.450373 -852.598805 
L 296.408731 -844.224288 
L 296.378096 -835.849771 
L 296.356621 -827.475253 
L 296.342471 -819.100736 
L 296.334092 -810.726218 
L 296.330389 -802.351701 
L 296.330827 -793.977184 
L 296.335473 -785.602666 
L 296.344987 -777.228149 
L 296.360572 -768.853631 
L 296.383863 -760.479114 
L 296.416725 -752.104597 
L 296.460964 -743.730079 
L 296.517933 -735.355562 
L 296.588088 -726.981044 
L 296.67055 -718.606527 
L 296.762781 -710.23201 
L 296.860482 -701.857492 
L 296.957812 -693.482975 
L 297.047953 -685.108457 
L 297.123996 -676.73394 
L 297.180022 -668.359423 
L 297.212186 -659.984905 
L 297.219599 -651.610388 
L 297.20482 -643.23587 
L 297.173858 -634.861353 
L 297.135684 -626.486836 
L 297.10136 -618.112318 
L 297.082972 -609.737801 
L 297.092589 -601.363283 
L 297.141422 -592.988766 
L 297.239313 -584.614249 
L 297.39457 -576.239731 
L 297.614061 -567.865214 
L 297.903443 -559.490696 
L 298.267347 -551.116179 
L 298.709386 -542.741662 
L 299.23195 -534.367144 
L 299.835825 -525.992627 
L 300.519775 -517.618109 
L 301.280273 -509.243592 
L 302.111511 -500.869075 
L 303.005737 -492.494557 
L 303.953828 -484.12004 
L 304.9459 -475.745522 
L 305.971757 -467.371005 
L 307.02102 -458.996488 
L 308.08296 -450.62197 
L 309.146213 -442.247453 
L 310.198676 -433.872935 
L 311.227869 -425.498418 
L 312.221927 -417.123901 
L 313.171164 -408.749383 
L 314.069921 -400.374866 
L 314.918284 -392.000348 
L 315.723225 -383.625831 
L 316.498864 -375.251314 
L 317.265784 -366.876796 
L 318.049566 -358.502279 
L 318.878932 -350.127761 
L 319.783933 -341.753244 
L 320.794496 -333.378727 
L 321.939422 -325.004209 
L 323.245509 -316.629692 
L 324.736183 -308.255174 
L 326.428821 -299.880657 
L 328.330043 -291.50614 
L 330.428819 -283.131622 
L 332.688028 -274.757105 
L 335.036197 -266.382587 
L 337.361982 -258.00807 
L 339.514294 -249.633553 
L 341.310424 -241.259035 
L 342.553002 -232.884518 
L 343.054441 -224.51 
L 342.665157 -216.135483 
L 341.300119 -207.760966 
L 338.957861 -199.386448 
L 335.7272 -191.011931 
L 331.77948 -182.637413 
L 327.347421 -174.262896 
L 322.69471 -165.888379 
L 318.08243 -157.513861 
z
" id="m8ec4494c26" style="stroke:#4c4c4c;stroke-width:5;"/>
    </defs>
    <g clip-path="url(#pfbc8c61321)">
     <use style="fill:#5875a4;stroke:#4c4c4c;stroke-width:5;" x="0" xlink:href="#m8ec4494c26" y="1296"/>
    </g>
   </g>
   <g id="PolyCollection_2">
    <defs>
     <path d="M 813.085337 -185.863383 
L 621.651482 -185.863383 
L 604.584126 -188.847087 
L 588.220682 -191.830792 
L 573.600072 -194.814496 
L 561.706365 -197.7982 
L 553.344556 -200.781905 
L 549.035097 -203.765609 
L 548.94757 -206.749314 
L 552.886571 -209.733018 
L 560.332088 -212.716722 
L 570.525377 -215.700427 
L 582.582253 -218.684131 
L 595.611419 -221.667835 
L 608.816515 -224.65154 
L 621.56643 -227.635244 
L 633.427042 -230.618949 
L 644.156411 -233.602653 
L 653.672384 -236.586357 
L 662.00517 -239.570062 
L 669.247543 -242.553766 
L 675.512638 -245.53747 
L 680.905101 -248.521175 
L 685.507007 -251.504879 
L 689.376532 -254.488584 
L 692.555302 -257.472288 
L 695.079813 -260.455992 
L 696.9928 -263.439697 
L 698.351658 -266.423401 
L 699.232353 -269.407105 
L 699.728507 -272.39081 
L 699.946295 -275.374514 
L 699.996397 -278.358218 
L 699.984551 -281.341923 
L 700.002348 -284.325627 
L 700.119713 -287.309332 
L 700.380225 -290.293036 
L 700.799888 -293.27674 
L 701.369415 -296.260445 
L 702.059504 -299.244149 
L 702.828076 -302.227853 
L 703.628212 -305.211558 
L 704.415502 -308.195262 
L 705.153742 -311.178967 
L 705.818396 -314.162671 
L 706.397688 -317.146375 
L 706.891665 -320.13008 
L 707.309853 -323.113784 
L 707.668213 -326.097488 
L 707.986043 -329.081193 
L 708.283261 -332.064897 
L 708.578315 -335.048602 
L 708.886773 -338.032306 
L 709.220521 -341.01601 
L 709.587467 -343.999715 
L 709.991631 -346.983419 
L 710.4335 -349.967123 
L 710.910539 -352.950828 
L 711.417748 -355.934532 
L 711.948202 -358.918236 
L 712.493504 -361.901941 
L 713.044184 -364.885645 
L 713.590073 -367.86935 
L 714.120724 -370.853054 
L 714.625928 -373.836758 
L 715.096323 -376.820463 
L 715.524037 -379.804167 
L 715.903279 -382.787871 
L 716.230748 -385.771576 
L 716.505777 -388.75528 
L 716.730189 -391.738985 
L 716.907867 -394.722689 
L 717.044132 -397.706393 
L 717.145033 -400.690098 
L 717.216639 -403.673802 
L 717.264429 -406.657506 
L 717.292819 -409.641211 
L 717.30484 -412.624915 
L 717.301972 -415.60862 
L 717.284116 -418.592324 
L 717.249701 -421.576028 
L 717.195949 -424.559733 
L 717.119314 -427.543437 
L 717.016093 -430.527141 
L 716.883232 -433.510846 
L 716.719244 -436.49455 
L 716.52514 -439.478254 
L 716.305211 -442.461959 
L 716.067472 -445.445663 
L 715.823595 -448.429368 
L 715.588209 -451.413072 
L 715.37759 -454.396776 
L 715.207857 -457.380481 
L 715.09296 -460.364185 
L 715.042788 -463.347889 
L 715.061768 -466.331594 
L 715.148216 -469.315298 
L 715.294591 -472.299003 
L 715.488573 -475.282707 
L 715.714777 -478.266411 
L 715.956759 -481.250116 
L 718.78006 -481.250116 
L 718.78006 -481.250116 
L 719.022042 -478.266411 
L 719.248247 -475.282707 
L 719.442229 -472.299003 
L 719.588603 -469.315298 
L 719.675052 -466.331594 
L 719.694031 -463.347889 
L 719.643859 -460.364185 
L 719.528962 -457.380481 
L 719.359229 -454.396776 
L 719.14861 -451.413072 
L 718.913224 -448.429368 
L 718.669347 -445.445663 
L 718.431609 -442.461959 
L 718.211679 -439.478254 
L 718.017575 -436.49455 
L 717.853587 -433.510846 
L 717.720727 -430.527141 
L 717.617506 -427.543437 
L 717.54087 -424.559733 
L 717.487119 -421.576028 
L 717.452703 -418.592324 
L 717.434847 -415.60862 
L 717.43198 -412.624915 
L 717.444001 -409.641211 
L 717.47239 -406.657506 
L 717.520181 -403.673802 
L 717.591787 -400.690098 
L 717.692687 -397.706393 
L 717.828953 -394.722689 
L 718.00663 -391.738985 
L 718.231042 -388.75528 
L 718.506071 -385.771576 
L 718.83354 -382.787871 
L 719.212782 -379.804167 
L 719.640497 -376.820463 
L 720.110891 -373.836758 
L 720.616095 -370.853054 
L 721.146747 -367.86935 
L 721.692636 -364.885645 
L 722.243315 -361.901941 
L 722.788617 -358.918236 
L 723.319071 -355.934532 
L 723.82628 -352.950828 
L 724.303319 -349.967123 
L 724.745188 -346.983419 
L 725.149352 -343.999715 
L 725.516298 -341.01601 
L 725.850046 -338.032306 
L 726.158505 -335.048602 
L 726.453559 -332.064897 
L 726.750776 -329.081193 
L 727.068606 -326.097488 
L 727.426967 -323.113784 
L 727.845155 -320.13008 
L 728.339131 -317.146375 
L 728.918423 -314.162671 
L 729.583077 -311.178967 
L 730.321317 -308.195262 
L 731.108607 -305.211558 
L 731.908744 -302.227853 
L 732.677315 -299.244149 
L 733.367404 -296.260445 
L 733.936932 -293.27674 
L 734.356594 -290.293036 
L 734.617107 -287.309332 
L 734.734472 -284.325627 
L 734.752268 -281.341923 
L 734.740422 -278.358218 
L 734.790524 -275.374514 
L 735.008312 -272.39081 
L 735.504466 -269.407105 
L 736.385161 -266.423401 
L 737.74402 -263.439697 
L 739.657007 -260.455992 
L 742.181517 -257.472288 
L 745.360287 -254.488584 
L 749.229812 -251.504879 
L 753.831719 -248.521175 
L 759.224181 -245.53747 
L 765.489276 -242.553766 
L 772.731649 -239.570062 
L 781.064435 -236.586357 
L 790.580409 -233.602653 
L 801.309777 -230.618949 
L 813.170389 -227.635244 
L 825.920304 -224.65154 
L 839.1254 -221.667835 
L 852.154567 -218.684131 
L 864.211442 -215.700427 
L 874.404731 -212.716722 
L 881.850249 -209.733018 
L 885.789249 -206.749314 
L 885.701723 -203.765609 
L 881.392263 -200.781905 
L 873.030454 -197.7982 
L 861.136748 -194.814496 
L 846.516138 -191.830792 
L 830.152693 -188.847087 
L 813.085337 -185.863383 
z
" id="m9f60f862dd" style="stroke:#4c4c4c;stroke-width:5;"/>
    </defs>
    <g clip-path="url(#pfbc8c61321)">
     <use style="fill:#cc8963;stroke:#4c4c4c;stroke-width:5;" x="0" xlink:href="#m9f60f862dd" y="1296"/>
    </g>
   </g>
   <g id="PolyCollection_3">
    <defs>
     <path d="M 1166.882002 -163.264717 
L 1109.959014 -163.264717 
L 1106.976243 -167.021247 
L 1103.963485 -170.777776 
L 1100.966917 -174.534305 
L 1098.035701 -178.290835 
L 1095.2205 -182.047364 
L 1092.571852 -185.803894 
L 1090.138441 -189.560423 
L 1087.965377 -193.316953 
L 1086.092547 -197.073482 
L 1084.553147 -200.830011 
L 1083.372441 -204.586541 
L 1082.566836 -208.34307 
L 1082.143308 -212.0996 
L 1082.099198 -215.856129 
L 1082.422394 -219.612659 
L 1083.091883 -223.369188 
L 1084.078623 -227.125717 
L 1085.346707 -230.882247 
L 1086.854729 -234.638776 
L 1088.557312 -238.395306 
L 1090.406697 -242.151835 
L 1092.354347 -245.908365 
L 1094.352483 -249.664894 
L 1096.355504 -253.421423 
L 1098.321253 -257.177953 
L 1100.212076 -260.934482 
L 1101.995664 -264.691012 
L 1103.645675 -268.447541 
L 1105.142107 -272.20407 
L 1106.471455 -275.9606 
L 1107.626648 -279.717129 
L 1108.606796 -283.473659 
L 1109.41675 -287.230188 
L 1110.066523 -290.986718 
L 1110.570584 -294.743247 
L 1110.947052 -298.499776 
L 1111.21683 -302.256306 
L 1111.402703 -306.012835 
L 1111.528424 -309.769365 
L 1111.617832 -313.525894 
L 1111.69402 -317.282424 
L 1111.778574 -321.038953 
L 1111.890924 -324.795482 
L 1112.047808 -328.552012 
L 1112.262866 -332.308541 
L 1112.546389 -336.065071 
L 1112.905191 -339.8216 
L 1113.342641 -343.57813 
L 1113.858804 -347.334659 
L 1114.450713 -351.091188 
L 1115.112719 -354.847718 
L 1115.836919 -358.604247 
L 1116.61363 -362.360777 
L 1117.431876 -366.117306 
L 1118.279878 -369.873836 
L 1119.145516 -373.630365 
L 1120.01675 -377.386894 
L 1120.881988 -381.143424 
L 1121.730385 -384.899953 
L 1122.552088 -388.656483 
L 1123.338405 -392.413012 
L 1124.081927 -396.169542 
L 1124.776587 -399.926071 
L 1125.417693 -403.6826 
L 1126.001915 -407.43913 
L 1126.527264 -411.195659 
L 1126.993045 -414.952189 
L 1127.39981 -418.708718 
L 1127.749296 -422.465248 
L 1128.04437 -426.221777 
L 1128.288951 -429.978306 
L 1128.487929 -433.734836 
L 1128.647068 -437.491365 
L 1128.772883 -441.247895 
L 1128.872502 -445.004424 
L 1128.953493 -448.760953 
L 1129.023679 -452.517483 
L 1129.090922 -456.274012 
L 1129.162897 -460.030542 
L 1129.246863 -463.787071 
L 1129.349435 -467.543601 
L 1129.476371 -471.30013 
L 1129.632387 -475.056659 
L 1129.821007 -478.813189 
L 1130.044464 -482.569718 
L 1130.303644 -486.326248 
L 1130.598089 -490.082777 
L 1130.926059 -493.839307 
L 1131.284635 -497.595836 
L 1131.669877 -501.352365 
L 1132.077011 -505.108895 
L 1132.500647 -508.865424 
L 1132.935012 -512.621954 
L 1133.374173 -516.378483 
L 1133.812271 -520.135013 
L 1134.243716 -523.891542 
L 1134.663367 -527.648071 
L 1135.066675 -531.404601 
L 1135.449782 -535.16113 
L 1141.391234 -535.16113 
L 1141.391234 -535.16113 
L 1141.774341 -531.404601 
L 1142.177649 -527.648071 
L 1142.5973 -523.891542 
L 1143.028745 -520.135013 
L 1143.466842 -516.378483 
L 1143.906004 -512.621954 
L 1144.340368 -508.865424 
L 1144.764005 -505.108895 
L 1145.171139 -501.352365 
L 1145.556381 -497.595836 
L 1145.914957 -493.839307 
L 1146.242926 -490.082777 
L 1146.537372 -486.326248 
L 1146.796552 -482.569718 
L 1147.020009 -478.813189 
L 1147.208629 -475.056659 
L 1147.364645 -471.30013 
L 1147.491581 -467.543601 
L 1147.594153 -463.787071 
L 1147.678119 -460.030542 
L 1147.750094 -456.274012 
L 1147.817337 -452.517483 
L 1147.887523 -448.760953 
L 1147.968514 -445.004424 
L 1148.068133 -441.247895 
L 1148.193948 -437.491365 
L 1148.353086 -433.734836 
L 1148.552065 -429.978306 
L 1148.796646 -426.221777 
L 1149.09172 -422.465248 
L 1149.441206 -418.708718 
L 1149.84797 -414.952189 
L 1150.313751 -411.195659 
L 1150.839101 -407.43913 
L 1151.423323 -403.6826 
L 1152.064429 -399.926071 
L 1152.759089 -396.169542 
L 1153.502611 -392.413012 
L 1154.288928 -388.656483 
L 1155.110631 -384.899953 
L 1155.959028 -381.143424 
L 1156.824266 -377.386894 
L 1157.6955 -373.630365 
L 1158.561138 -369.873836 
L 1159.40914 -366.117306 
L 1160.227386 -362.360777 
L 1161.004097 -358.604247 
L 1161.728297 -354.847718 
L 1162.390303 -351.091188 
L 1162.982212 -347.334659 
L 1163.498375 -343.57813 
L 1163.935824 -339.8216 
L 1164.294627 -336.065071 
L 1164.57815 -332.308541 
L 1164.793208 -328.552012 
L 1164.950092 -324.795482 
L 1165.062442 -321.038953 
L 1165.146996 -317.282424 
L 1165.223183 -313.525894 
L 1165.312592 -309.769365 
L 1165.438313 -306.012835 
L 1165.624186 -302.256306 
L 1165.893964 -298.499776 
L 1166.270432 -294.743247 
L 1166.774493 -290.986718 
L 1167.424266 -287.230188 
L 1168.23422 -283.473659 
L 1169.214367 -279.717129 
L 1170.369561 -275.9606 
L 1171.698909 -272.20407 
L 1173.195341 -268.447541 
L 1174.845351 -264.691012 
L 1176.62894 -260.934482 
L 1178.519762 -257.177953 
L 1180.485512 -253.421423 
L 1182.488533 -249.664894 
L 1184.486669 -245.908365 
L 1186.434319 -242.151835 
L 1188.283704 -238.395306 
L 1189.986286 -234.638776 
L 1191.494309 -230.882247 
L 1192.762393 -227.125717 
L 1193.749133 -223.369188 
L 1194.418622 -219.612659 
L 1194.741818 -215.856129 
L 1194.697708 -212.0996 
L 1194.27418 -208.34307 
L 1193.468575 -204.586541 
L 1192.287869 -200.830011 
L 1190.748469 -197.073482 
L 1188.875639 -193.316953 
L 1186.702574 -189.560423 
L 1184.269164 -185.803894 
L 1181.620516 -182.047364 
L 1178.805315 -178.290835 
L 1175.874098 -174.534305 
L 1172.877531 -170.777776 
L 1169.864773 -167.021247 
L 1166.882002 -163.264717 
z
" id="me6c6530148" style="stroke:#4c4c4c;stroke-width:5;"/>
    </defs>
    <g clip-path="url(#pfbc8c61321)">
     <use style="fill:#5f9e6e;stroke:#4c4c4c;stroke-width:5;" x="0" xlink:href="#me6c6530148" y="1296"/>
    </g>
   </g>
   <g id="line2d_6">
    <path clip-path="url(#pfbc8c61321)" d="M 296.316311 1092.911371 
L 296.316311 764.131708 
" style="fill:none;stroke:#4c4c4c;stroke-linecap:round;stroke-width:5;"/>
   </g>
   <g id="line2d_7">
    <path clip-path="url(#pfbc8c61321)" d="M 296.316311 1092.911371 
L 296.316311 946.004268 
" style="fill:none;stroke:#4c4c4c;stroke-linecap:round;stroke-width:15;"/>
   </g>
   <g id="line2d_8">
    <path clip-path="url(#pfbc8c61321)" d="M 717.36841 1092.911371 
L 717.36841 1033.417908 
" style="fill:none;stroke:#4c4c4c;stroke-linecap:round;stroke-width:5;"/>
   </g>
   <g id="line2d_9">
    <path clip-path="url(#pfbc8c61321)" d="M 717.36841 1092.911371 
L 717.36841 1065.252129 
" style="fill:none;stroke:#4c4c4c;stroke-linecap:round;stroke-width:15;"/>
   </g>
   <g id="line2d_10">
    <path clip-path="url(#pfbc8c61321)" d="M 1138.420508 1092.911371 
L 1138.420508 800.662782 
" style="fill:none;stroke:#4c4c4c;stroke-linecap:round;stroke-width:5;"/>
   </g>
   <g id="line2d_11">
    <path clip-path="url(#pfbc8c61321)" d="M 1138.420508 1092.911371 
L 1138.420508 961.660442 
" style="fill:none;stroke:#4c4c4c;stroke-linecap:round;stroke-width:15;"/>
   </g>
   <g id="line2d_12">
    <path clip-path="url(#pfbc8c61321)" d="M 296.316311 300.264588 
L 296.316311 282.024889 
L 717.36841 282.024889 
L 717.36841 300.264588 
" style="fill:none;stroke:#333333;stroke-linecap:round;stroke-width:1.5;"/>
   </g>
   <g id="line2d_13">
    <path clip-path="url(#pfbc8c61321)" d="M 717.36841 192.658508 
L 717.36841 174.418809 
L 1138.420508 174.418809 
L 1138.420508 192.658508 
" style="fill:none;stroke:#333333;stroke-linecap:round;stroke-width:1.5;"/>
   </g>
   <g id="patch_3">
    <path d="M 202.32 1179.94 
L 202.32 96.12 
" style="fill:none;stroke:#cccccc;stroke-linecap:square;stroke-linejoin:miter;stroke-width:2.5;"/>
   </g>
   <g id="patch_4">
    <path d="M 1242 1179.94 
L 1242 96.12 
" style="fill:none;stroke:#cccccc;stroke-linecap:square;stroke-linejoin:miter;stroke-width:2.5;"/>
   </g>
   <g id="patch_5">
    <path d="M 202.32 1179.94 
L 1242 1179.94 
" style="fill:none;stroke:#cccccc;stroke-linecap:square;stroke-linejoin:miter;stroke-width:2.5;"/>
   </g>
   <g id="patch_6">
    <path d="M 202.32 96.12 
L 1242 96.12 
" style="fill:none;stroke:#cccccc;stroke-linecap:square;stroke-linejoin:miter;stroke-width:2.5;"/>
   </g>
   <g id="PathCollection_1">
    <defs>
     <path d="M 0 5 
C 1.326016 5 2.597899 4.473168 3.535534 3.535534 
C 4.473168 2.597899 5 1.326016 5 0 
C 5 -1.326016 4.473168 -2.597899 3.535534 -3.535534 
C 2.597899 -4.473168 1.326016 -5 0 -5 
C -1.326016 -5 -2.597899 -4.473168 -3.535534 -3.535534 
C -4.473168 -2.597899 -5 -1.326016 -5 0 
C -5 1.326016 -4.473168 2.597899 -3.535534 3.535534 
C -2.597899 4.473168 -1.326016 5 0 5 
z
" id="m92b96c3d5b" style="stroke:#4c4c4c;stroke-width:2;"/>
    </defs>
    <g clip-path="url(#pfbc8c61321)">
     <use style="fill:#ffffff;stroke:#4c4c4c;stroke-width:2;" x="296.316311" xlink:href="#m92b96c3d5b" y="1030.286673"/>
    </g>
   </g>
   <g id="PathCollection_2">
    <g clip-path="url(#pfbc8c61321)">
     <use style="fill:#ffffff;stroke:#4c4c4c;stroke-width:2;" x="717.36841" xlink:href="#m92b96c3d5b" y="1092.911371"/>
    </g>
   </g>
   <g id="PathCollection_3">
    <g clip-path="url(#pfbc8c61321)">
     <use style="fill:#ffffff;stroke:#4c4c4c;stroke-width:2;" x="1138.420508" xlink:href="#m92b96c3d5b" y="1055.858424"/>
    </g>
   </g>
   <g id="text_10">
    <!-- **** -->
    <g transform="translate(467.920486 271.087389)scale(0.5 -0.5)">
     <defs>
      <path d="M 3.125 58.453125 
L 5.375 65.375 
Q 13.140625 62.640625 16.65625 60.640625 
Q 15.71875 69.484375 15.671875 72.796875 
L 22.75 72.796875 
Q 22.609375 67.96875 21.625 60.6875 
Q 26.65625 63.234375 33.15625 65.375 
L 35.40625 58.453125 
Q 29.203125 56.390625 23.25 55.71875 
Q 26.21875 53.125 31.640625 46.484375 
L 25.78125 42.328125 
Q 22.953125 46.1875 19.09375 52.828125 
Q 15.484375 45.953125 12.75 42.328125 
L 6.984375 46.484375 
Q 12.640625 53.46875 15.09375 55.71875 
Q 8.796875 56.9375 3.125 58.453125 
z
" id="ArialMT-42"/>
     </defs>
     <use xlink:href="#ArialMT-42"/>
     <use x="38.916016" xlink:href="#ArialMT-42"/>
     <use x="77.832031" xlink:href="#ArialMT-42"/>
     <use x="116.748047" xlink:href="#ArialMT-42"/>
    </g>
   </g>
   <g id="text_11">
    <!-- **** -->
    <g transform="translate(888.972584 163.481309)scale(0.5 -0.5)">
     <use xlink:href="#ArialMT-42"/>
     <use x="38.916016" xlink:href="#ArialMT-42"/>
     <use x="77.832031" xlink:href="#ArialMT-42"/>
     <use x="116.748047" xlink:href="#ArialMT-42"/>
    </g>
   </g>
   <g id="text_12">
    <!-- Actinomyces graevenitzii (K.W. p=1.60e-08) -->
    <g transform="translate(236.546719 90.12)scale(0.5 -0.5)">
     <defs>
      <path d="M 6.59375 0 
L 6.59375 51.859375 
L 14.453125 51.859375 
L 14.453125 44.578125 
Q 16.890625 48.390625 20.9375 50.703125 
Q 25 53.03125 30.171875 53.03125 
Q 35.9375 53.03125 39.625 50.640625 
Q 43.3125 48.25 44.828125 43.953125 
Q 50.984375 53.03125 60.84375 53.03125 
Q 68.5625 53.03125 72.703125 48.75 
Q 76.859375 44.484375 76.859375 35.59375 
L 76.859375 0 
L 68.109375 0 
L 68.109375 32.671875 
Q 68.109375 37.9375 67.25 40.25 
Q 66.40625 42.578125 64.15625 43.984375 
Q 61.921875 45.40625 58.890625 45.40625 
Q 53.421875 45.40625 49.796875 41.765625 
Q 46.1875 38.140625 46.1875 30.125 
L 46.1875 0 
L 37.40625 0 
L 37.40625 33.6875 
Q 37.40625 39.546875 35.25 42.46875 
Q 33.109375 45.40625 28.21875 45.40625 
Q 24.515625 45.40625 21.359375 43.453125 
Q 18.21875 41.5 16.796875 37.734375 
Q 15.375 33.984375 15.375 26.90625 
L 15.375 0 
z
" id="ArialMT-109"/>
      <path d="M 3.078125 15.484375 
L 11.765625 16.84375 
Q 12.5 11.625 15.84375 8.84375 
Q 19.1875 6.0625 25.203125 6.0625 
Q 31.25 6.0625 34.171875 8.515625 
Q 37.109375 10.984375 37.109375 14.3125 
Q 37.109375 17.28125 34.515625 19 
Q 32.71875 20.171875 25.53125 21.96875 
Q 15.875 24.421875 12.140625 26.203125 
Q 8.40625 27.984375 6.46875 31.125 
Q 4.546875 34.28125 4.546875 38.09375 
Q 4.546875 41.546875 6.125 44.5 
Q 7.71875 47.46875 10.453125 49.421875 
Q 12.5 50.921875 16.03125 51.96875 
Q 19.578125 53.03125 23.640625 53.03125 
Q 29.734375 53.03125 34.34375 51.265625 
Q 38.96875 49.515625 41.15625 46.5 
Q 43.359375 43.5 44.1875 38.484375 
L 35.59375 37.3125 
Q 35.015625 41.3125 32.203125 43.546875 
Q 29.390625 45.796875 24.265625 45.796875 
Q 18.21875 45.796875 15.625 43.796875 
Q 13.03125 41.796875 13.03125 39.109375 
Q 13.03125 37.40625 14.109375 36.03125 
Q 15.1875 34.625 17.484375 33.6875 
Q 18.796875 33.203125 25.25 31.453125 
Q 34.578125 28.953125 38.25 27.359375 
Q 41.9375 25.78125 44.03125 22.75 
Q 46.140625 19.734375 46.140625 15.234375 
Q 46.140625 10.84375 43.578125 6.953125 
Q 41.015625 3.078125 36.171875 0.953125 
Q 31.34375 -1.171875 25.25 -1.171875 
Q 15.140625 -1.171875 9.84375 3.03125 
Q 4.546875 7.234375 3.078125 15.484375 
z
" id="ArialMT-115"/>
      <path id="ArialMT-32"/>
      <path d="M 1.953125 0 
L 1.953125 7.125 
L 34.96875 45.015625 
Q 29.34375 44.734375 25.046875 44.734375 
L 3.90625 44.734375 
L 3.90625 51.859375 
L 46.296875 51.859375 
L 46.296875 46.046875 
L 18.21875 13.140625 
L 12.796875 7.125 
Q 18.703125 7.5625 23.875 7.5625 
L 47.859375 7.5625 
L 47.859375 0 
z
" id="ArialMT-122"/>
      <path d="M 23.390625 -21.046875 
Q 16.109375 -11.859375 11.078125 0.4375 
Q 6.0625 12.75 6.0625 25.921875 
Q 6.0625 37.546875 9.8125 48.1875 
Q 14.203125 60.546875 23.390625 72.796875 
L 29.6875 72.796875 
Q 23.78125 62.640625 21.875 58.296875 
Q 18.890625 51.5625 17.1875 44.234375 
Q 15.09375 35.109375 15.09375 25.875 
Q 15.09375 2.390625 29.6875 -21.046875 
z
" id="ArialMT-40"/>
      <path d="M 7.328125 0 
L 7.328125 71.578125 
L 16.796875 71.578125 
L 16.796875 36.078125 
L 52.34375 71.578125 
L 65.1875 71.578125 
L 35.15625 42.578125 
L 66.5 0 
L 54 0 
L 28.515625 36.234375 
L 16.796875 24.8125 
L 16.796875 0 
z
" id="ArialMT-75"/>
      <path d="M 9.078125 0 
L 9.078125 10.015625 
L 19.09375 10.015625 
L 19.09375 0 
z
" id="ArialMT-46"/>
      <path d="M 20.21875 0 
L 1.21875 71.578125 
L 10.9375 71.578125 
L 21.828125 24.65625 
Q 23.578125 17.28125 24.859375 10.015625 
Q 27.59375 21.484375 28.078125 23.25 
L 41.703125 71.578125 
L 53.125 71.578125 
L 63.375 35.359375 
Q 67.234375 21.875 68.953125 10.015625 
Q 70.3125 16.796875 72.515625 25.59375 
L 83.734375 71.578125 
L 93.265625 71.578125 
L 73.640625 0 
L 64.5 0 
L 49.421875 54.546875 
Q 47.515625 61.375 47.171875 62.9375 
Q 46.046875 58.015625 45.0625 54.546875 
L 29.890625 0 
z
" id="ArialMT-87"/>
      <path d="M 6.59375 -19.875 
L 6.59375 51.859375 
L 14.59375 51.859375 
L 14.59375 45.125 
Q 17.4375 49.078125 21 51.046875 
Q 24.5625 53.03125 29.640625 53.03125 
Q 36.28125 53.03125 41.359375 49.609375 
Q 46.4375 46.1875 49.015625 39.953125 
Q 51.609375 33.734375 51.609375 26.3125 
Q 51.609375 18.359375 48.75 11.984375 
Q 45.90625 5.609375 40.453125 2.21875 
Q 35.015625 -1.171875 29 -1.171875 
Q 24.609375 -1.171875 21.109375 0.6875 
Q 17.625 2.546875 15.375 5.375 
L 15.375 -19.875 
z
M 14.546875 25.640625 
Q 14.546875 15.625 18.59375 10.84375 
Q 22.65625 6.0625 28.421875 6.0625 
Q 34.28125 6.0625 38.453125 11.015625 
Q 42.625 15.96875 42.625 26.375 
Q 42.625 36.28125 38.546875 41.203125 
Q 34.46875 46.140625 28.8125 46.140625 
Q 23.1875 46.140625 18.859375 40.890625 
Q 14.546875 35.640625 14.546875 25.640625 
z
" id="ArialMT-112"/>
      <path d="M 52.828125 42.09375 
L 5.5625 42.09375 
L 5.5625 50.296875 
L 52.828125 50.296875 
z
M 52.828125 20.359375 
L 5.5625 20.359375 
L 5.5625 28.5625 
L 52.828125 28.5625 
z
" id="ArialMT-61"/>
      <path d="M 37.25 0 
L 28.46875 0 
L 28.46875 56 
Q 25.296875 52.984375 20.140625 49.953125 
Q 14.984375 46.921875 10.890625 45.40625 
L 10.890625 53.90625 
Q 18.265625 57.375 23.78125 62.296875 
Q 29.296875 67.234375 31.59375 71.875 
L 37.25 71.875 
z
" id="ArialMT-49"/>
      <path d="M 3.171875 21.484375 
L 3.171875 30.328125 
L 30.171875 30.328125 
L 30.171875 21.484375 
z
" id="ArialMT-45"/>
      <path d="M 12.359375 -21.046875 
L 6.0625 -21.046875 
Q 20.65625 2.390625 20.65625 25.875 
Q 20.65625 35.0625 18.5625 44.09375 
Q 16.890625 51.421875 13.921875 58.15625 
Q 12.015625 62.546875 6.0625 72.796875 
L 12.359375 72.796875 
Q 21.53125 60.546875 25.921875 48.1875 
Q 29.6875 37.546875 29.6875 25.921875 
Q 29.6875 12.75 24.625 0.4375 
Q 19.578125 -11.859375 12.359375 -21.046875 
z
" id="ArialMT-41"/>
     </defs>
     <use xlink:href="#ArialMT-65"/>
     <use x="66.699219" xlink:href="#ArialMT-99"/>
     <use x="116.699219" xlink:href="#ArialMT-116"/>
     <use x="144.482422" xlink:href="#ArialMT-105"/>
     <use x="166.699219" xlink:href="#ArialMT-110"/>
     <use x="222.314453" xlink:href="#ArialMT-111"/>
     <use x="277.929688" xlink:href="#ArialMT-109"/>
     <use x="361.230469" xlink:href="#ArialMT-121"/>
     <use x="411.230469" xlink:href="#ArialMT-99"/>
     <use x="461.230469" xlink:href="#ArialMT-101"/>
     <use x="516.845703" xlink:href="#ArialMT-115"/>
     <use x="566.845703" xlink:href="#ArialMT-32"/>
     <use x="594.628906" xlink:href="#ArialMT-103"/>
     <use x="650.244141" xlink:href="#ArialMT-114"/>
     <use x="683.544922" xlink:href="#ArialMT-97"/>
     <use x="739.160156" xlink:href="#ArialMT-101"/>
     <use x="794.775391" xlink:href="#ArialMT-118"/>
     <use x="844.775391" xlink:href="#ArialMT-101"/>
     <use x="900.390625" xlink:href="#ArialMT-110"/>
     <use x="956.005859" xlink:href="#ArialMT-105"/>
     <use x="978.222656" xlink:href="#ArialMT-116"/>
     <use x="1006.005859" xlink:href="#ArialMT-122"/>
     <use x="1056.005859" xlink:href="#ArialMT-105"/>
     <use x="1078.222656" xlink:href="#ArialMT-105"/>
     <use x="1100.439453" xlink:href="#ArialMT-32"/>
     <use x="1128.222656" xlink:href="#ArialMT-40"/>
     <use x="1161.523438" xlink:href="#ArialMT-75"/>
     <use x="1228.222656" xlink:href="#ArialMT-46"/>
     <use x="1256.005859" xlink:href="#ArialMT-87"/>
     <use x="1344.890625" xlink:href="#ArialMT-46"/>
     <use x="1372.673828" xlink:href="#ArialMT-32"/>
     <use x="1400.457031" xlink:href="#ArialMT-112"/>
     <use x="1456.072266" xlink:href="#ArialMT-61"/>
     <use x="1514.470703" xlink:href="#ArialMT-49"/>
     <use x="1570.085938" xlink:href="#ArialMT-46"/>
     <use x="1597.869141" xlink:href="#ArialMT-54"/>
     <use x="1653.484375" xlink:href="#ArialMT-48"/>
     <use x="1709.099609" xlink:href="#ArialMT-101"/>
     <use x="1764.714844" xlink:href="#ArialMT-45"/>
     <use x="1798.015625" xlink:href="#ArialMT-48"/>
     <use x="1853.630859" xlink:href="#ArialMT-56"/>
     <use x="1909.246094" xlink:href="#ArialMT-41"/>
    </g>
   </g>
  </g>
 </g>
 <defs>
  <clipPath id="pfbc8c61321">
   <rect height="1083.82" width="1039.68" x="202.32" y="96.12"/>
  </clipPath>
 </defs>
</svg>
