<?xml version="1.0" encoding="utf-8" standalone="no"?>
<!DOCTYPE svg PUBLIC "-//W3C//DTD SVG 1.1//EN"
  "http://www.w3.org/Graphics/SVG/1.1/DTD/svg11.dtd">
<!-- Created with matplotlib (https://matplotlib.org/) -->
<svg height="1296pt" version="1.1" viewBox="0 0 1296 1296" width="1296pt" xmlns="http://www.w3.org/2000/svg" xmlns:xlink="http://www.w3.org/1999/xlink">
 <metadata>
  <rdf:RDF xmlns:cc="http://creativecommons.org/ns#" xmlns:dc="http://purl.org/dc/elements/1.1/" xmlns:rdf="http://www.w3.org/1999/02/22-rdf-syntax-ns#">
   <cc:Work>
    <dc:type rdf:resource="http://purl.org/dc/dcmitype/StillImage"/>
    <dc:date>2022-06-29T14:05:13.455900</dc:date>
    <dc:format>image/svg+xml</dc:format>
    <dc:creator>
     <cc:Agent>
      <dc:title>Matplotlib v3.3.3, https://matplotlib.org/</dc:title>
     </cc:Agent>
    </dc:creator>
   </cc:Work>
  </rdf:RDF>
 </metadata>
 <defs>
  <style type="text/css">*{stroke-linecap:butt;stroke-linejoin:round;}</style>
 </defs>
 <g id="figure_1">
  <g id="patch_1">
   <path d="M 0 1296 
L 1296 1296 
L 1296 0 
L 0 0 
z
" style="fill:#ffffff;"/>
  </g>
  <g id="axes_1">
   <g id="patch_2">
    <path d="M 230.13 1179.94 
L 1242 1179.94 
L 1242 96.12 
L 230.13 96.12 
z
" style="fill:#ffffff;"/>
   </g>
   <g id="matplotlib.axis_1">
    <g id="xtick_1">
     <g id="text_1">
      <!-- Healthy -->
      <g style="fill:#262626;" transform="translate(341.23048 1231.229063)scale(0.5 -0.5)">
       <defs>
        <path d="M 8.015625 0 
L 8.015625 71.578125 
L 17.484375 71.578125 
L 17.484375 42.1875 
L 54.6875 42.1875 
L 54.6875 71.578125 
L 64.15625 71.578125 
L 64.15625 0 
L 54.6875 0 
L 54.6875 33.734375 
L 17.484375 33.734375 
L 17.484375 0 
z
" id="ArialMT-72"/>
        <path d="M 42.09375 16.703125 
L 51.171875 15.578125 
Q 49.03125 7.625 43.21875 3.21875 
Q 37.40625 -1.171875 28.375 -1.171875 
Q 17 -1.171875 10.328125 5.828125 
Q 3.65625 12.84375 3.65625 25.484375 
Q 3.65625 38.578125 10.390625 45.796875 
Q 17.140625 53.03125 27.875 53.03125 
Q 38.28125 53.03125 44.875 45.953125 
Q 51.46875 38.875 51.46875 26.03125 
Q 51.46875 25.25 51.421875 23.6875 
L 12.75 23.6875 
Q 13.234375 15.140625 17.578125 10.59375 
Q 21.921875 6.0625 28.421875 6.0625 
Q 33.25 6.0625 36.671875 8.59375 
Q 40.09375 11.140625 42.09375 16.703125 
z
M 13.234375 30.90625 
L 42.1875 30.90625 
Q 41.609375 37.453125 38.875 40.71875 
Q 34.671875 45.796875 27.984375 45.796875 
Q 21.921875 45.796875 17.796875 41.75 
Q 13.671875 37.703125 13.234375 30.90625 
z
" id="ArialMT-101"/>
        <path d="M 40.4375 6.390625 
Q 35.546875 2.25 31.03125 0.53125 
Q 26.515625 -1.171875 21.34375 -1.171875 
Q 12.796875 -1.171875 8.203125 3 
Q 3.609375 7.171875 3.609375 13.671875 
Q 3.609375 17.484375 5.34375 20.625 
Q 7.078125 23.78125 9.890625 25.6875 
Q 12.703125 27.59375 16.21875 28.5625 
Q 18.796875 29.25 24.03125 29.890625 
Q 34.671875 31.15625 39.703125 32.90625 
Q 39.75 34.71875 39.75 35.203125 
Q 39.75 40.578125 37.25 42.78125 
Q 33.890625 45.75 27.25 45.75 
Q 21.046875 45.75 18.09375 43.578125 
Q 15.140625 41.40625 13.71875 35.890625 
L 5.125 37.0625 
Q 6.296875 42.578125 8.984375 45.96875 
Q 11.671875 49.359375 16.75 51.1875 
Q 21.828125 53.03125 28.515625 53.03125 
Q 35.15625 53.03125 39.296875 51.46875 
Q 43.453125 49.90625 45.40625 47.53125 
Q 47.359375 45.171875 48.140625 41.546875 
Q 48.578125 39.3125 48.578125 33.453125 
L 48.578125 21.734375 
Q 48.578125 9.46875 49.140625 6.21875 
Q 49.703125 2.984375 51.375 0 
L 42.1875 0 
Q 40.828125 2.734375 40.4375 6.390625 
z
M 39.703125 26.03125 
Q 34.90625 24.078125 25.34375 22.703125 
Q 19.921875 21.921875 17.671875 20.9375 
Q 15.4375 19.96875 14.203125 18.09375 
Q 12.984375 16.21875 12.984375 13.921875 
Q 12.984375 10.40625 15.640625 8.0625 
Q 18.3125 5.71875 23.4375 5.71875 
Q 28.515625 5.71875 32.46875 7.9375 
Q 36.421875 10.15625 38.28125 14.015625 
Q 39.703125 17 39.703125 22.796875 
z
" id="ArialMT-97"/>
        <path d="M 6.390625 0 
L 6.390625 71.578125 
L 15.1875 71.578125 
L 15.1875 0 
z
" id="ArialMT-108"/>
        <path d="M 25.78125 7.859375 
L 27.046875 0.09375 
Q 23.34375 -0.6875 20.40625 -0.6875 
Q 15.625 -0.6875 12.984375 0.828125 
Q 10.359375 2.34375 9.28125 4.8125 
Q 8.203125 7.28125 8.203125 15.1875 
L 8.203125 45.015625 
L 1.765625 45.015625 
L 1.765625 51.859375 
L 8.203125 51.859375 
L 8.203125 64.703125 
L 16.9375 69.96875 
L 16.9375 51.859375 
L 25.78125 51.859375 
L 25.78125 45.015625 
L 16.9375 45.015625 
L 16.9375 14.703125 
Q 16.9375 10.9375 17.40625 9.859375 
Q 17.875 8.796875 18.921875 8.15625 
Q 19.96875 7.515625 21.921875 7.515625 
Q 23.390625 7.515625 25.78125 7.859375 
z
" id="ArialMT-116"/>
        <path d="M 6.59375 0 
L 6.59375 71.578125 
L 15.375 71.578125 
L 15.375 45.90625 
Q 21.53125 53.03125 30.90625 53.03125 
Q 36.671875 53.03125 40.921875 50.75 
Q 45.171875 48.484375 47 44.484375 
Q 48.828125 40.484375 48.828125 32.859375 
L 48.828125 0 
L 40.046875 0 
L 40.046875 32.859375 
Q 40.046875 39.453125 37.1875 42.453125 
Q 34.328125 45.453125 29.109375 45.453125 
Q 25.203125 45.453125 21.75 43.421875 
Q 18.3125 41.40625 16.84375 37.9375 
Q 15.375 34.46875 15.375 28.375 
L 15.375 0 
z
" id="ArialMT-104"/>
        <path d="M 6.203125 -19.96875 
L 5.21875 -11.71875 
Q 8.109375 -12.5 10.25 -12.5 
Q 13.1875 -12.5 14.9375 -11.515625 
Q 16.703125 -10.546875 17.828125 -8.796875 
Q 18.65625 -7.46875 20.515625 -2.25 
Q 20.75 -1.515625 21.296875 -0.09375 
L 1.609375 51.859375 
L 11.078125 51.859375 
L 21.875 21.828125 
Q 23.96875 16.109375 25.640625 9.8125 
Q 27.15625 15.875 29.25 21.625 
L 40.328125 51.859375 
L 49.125 51.859375 
L 29.390625 -0.875 
Q 26.21875 -9.421875 24.46875 -12.640625 
Q 22.125 -17 19.09375 -19.015625 
Q 16.0625 -21.046875 11.859375 -21.046875 
Q 9.328125 -21.046875 6.203125 -19.96875 
z
" id="ArialMT-121"/>
       </defs>
       <use xlink:href="#ArialMT-72"/>
       <use x="72.216797" xlink:href="#ArialMT-101"/>
       <use x="127.832031" xlink:href="#ArialMT-97"/>
       <use x="183.447266" xlink:href="#ArialMT-108"/>
       <use x="205.664062" xlink:href="#ArialMT-116"/>
       <use x="233.447266" xlink:href="#ArialMT-104"/>
       <use x="289.0625" xlink:href="#ArialMT-121"/>
      </g>
     </g>
    </g>
    <g id="xtick_2">
     <g id="text_2">
      <!-- Moderate+Severe -->
      <g style="fill:#262626;" transform="translate(601.248405 1231.229063)scale(0.5 -0.5)">
       <defs>
        <path d="M 7.421875 0 
L 7.421875 71.578125 
L 21.6875 71.578125 
L 38.625 20.90625 
Q 40.96875 13.8125 42.046875 10.296875 
Q 43.265625 14.203125 45.84375 21.78125 
L 62.984375 71.578125 
L 75.734375 71.578125 
L 75.734375 0 
L 66.609375 0 
L 66.609375 59.90625 
L 45.796875 0 
L 37.25 0 
L 16.546875 60.9375 
L 16.546875 0 
z
" id="ArialMT-77"/>
        <path d="M 3.328125 25.921875 
Q 3.328125 40.328125 11.328125 47.265625 
Q 18.015625 53.03125 27.640625 53.03125 
Q 38.328125 53.03125 45.109375 46.015625 
Q 51.90625 39.015625 51.90625 26.65625 
Q 51.90625 16.65625 48.90625 10.90625 
Q 45.90625 5.171875 40.15625 2 
Q 34.421875 -1.171875 27.640625 -1.171875 
Q 16.75 -1.171875 10.03125 5.8125 
Q 3.328125 12.796875 3.328125 25.921875 
z
M 12.359375 25.921875 
Q 12.359375 15.96875 16.703125 11.015625 
Q 21.046875 6.0625 27.640625 6.0625 
Q 34.1875 6.0625 38.53125 11.03125 
Q 42.875 16.015625 42.875 26.21875 
Q 42.875 35.84375 38.5 40.796875 
Q 34.125 45.75 27.640625 45.75 
Q 21.046875 45.75 16.703125 40.8125 
Q 12.359375 35.890625 12.359375 25.921875 
z
" id="ArialMT-111"/>
        <path d="M 40.234375 0 
L 40.234375 6.546875 
Q 35.296875 -1.171875 25.734375 -1.171875 
Q 19.53125 -1.171875 14.328125 2.25 
Q 9.125 5.671875 6.265625 11.796875 
Q 3.421875 17.921875 3.421875 25.875 
Q 3.421875 33.640625 6 39.96875 
Q 8.59375 46.296875 13.765625 49.65625 
Q 18.953125 53.03125 25.34375 53.03125 
Q 30.03125 53.03125 33.6875 51.046875 
Q 37.359375 49.078125 39.65625 45.90625 
L 39.65625 71.578125 
L 48.390625 71.578125 
L 48.390625 0 
z
M 12.453125 25.875 
Q 12.453125 15.921875 16.640625 10.984375 
Q 20.84375 6.0625 26.5625 6.0625 
Q 32.328125 6.0625 36.34375 10.765625 
Q 40.375 15.484375 40.375 25.140625 
Q 40.375 35.796875 36.265625 40.765625 
Q 32.171875 45.75 26.171875 45.75 
Q 20.3125 45.75 16.375 40.96875 
Q 12.453125 36.1875 12.453125 25.875 
z
" id="ArialMT-100"/>
        <path d="M 6.5 0 
L 6.5 51.859375 
L 14.40625 51.859375 
L 14.40625 44 
Q 17.4375 49.515625 20 51.265625 
Q 22.5625 53.03125 25.640625 53.03125 
Q 30.078125 53.03125 34.671875 50.203125 
L 31.640625 42.046875 
Q 28.421875 43.953125 25.203125 43.953125 
Q 22.3125 43.953125 20.015625 42.21875 
Q 17.71875 40.484375 16.75 37.40625 
Q 15.28125 32.71875 15.28125 27.15625 
L 15.28125 0 
z
" id="ArialMT-114"/>
        <path d="M 25.046875 11.578125 
L 25.046875 31.203125 
L 5.5625 31.203125 
L 5.5625 39.40625 
L 25.046875 39.40625 
L 25.046875 58.890625 
L 33.34375 58.890625 
L 33.34375 39.40625 
L 52.828125 39.40625 
L 52.828125 31.203125 
L 33.34375 31.203125 
L 33.34375 11.578125 
z
" id="ArialMT-43"/>
        <path d="M 4.5 23 
L 13.421875 23.78125 
Q 14.0625 18.40625 16.375 14.96875 
Q 18.703125 11.53125 23.578125 9.40625 
Q 28.46875 7.28125 34.578125 7.28125 
Q 39.984375 7.28125 44.140625 8.890625 
Q 48.296875 10.5 50.3125 13.296875 
Q 52.34375 16.109375 52.34375 19.4375 
Q 52.34375 22.796875 50.390625 25.3125 
Q 48.4375 27.828125 43.953125 29.546875 
Q 41.0625 30.671875 31.203125 33.03125 
Q 21.34375 35.40625 17.390625 37.5 
Q 12.25 40.1875 9.734375 44.15625 
Q 7.234375 48.140625 7.234375 53.078125 
Q 7.234375 58.5 10.296875 63.203125 
Q 13.375 67.921875 19.28125 70.359375 
Q 25.203125 72.796875 32.421875 72.796875 
Q 40.375 72.796875 46.453125 70.234375 
Q 52.546875 67.671875 55.8125 62.6875 
Q 59.078125 57.71875 59.328125 51.421875 
L 50.25 50.734375 
Q 49.515625 57.515625 45.28125 60.984375 
Q 41.0625 64.453125 32.8125 64.453125 
Q 24.21875 64.453125 20.28125 61.296875 
Q 16.359375 58.15625 16.359375 53.71875 
Q 16.359375 49.859375 19.140625 47.359375 
Q 21.875 44.875 33.421875 42.265625 
Q 44.96875 39.65625 49.265625 37.703125 
Q 55.515625 34.8125 58.484375 30.390625 
Q 61.46875 25.984375 61.46875 20.21875 
Q 61.46875 14.5 58.203125 9.4375 
Q 54.9375 4.390625 48.796875 1.578125 
Q 42.671875 -1.21875 35.015625 -1.21875 
Q 25.296875 -1.21875 18.71875 1.609375 
Q 12.15625 4.4375 8.421875 10.125 
Q 4.6875 15.828125 4.5 23 
z
" id="ArialMT-83"/>
        <path d="M 21 0 
L 1.265625 51.859375 
L 10.546875 51.859375 
L 21.6875 20.796875 
Q 23.484375 15.765625 25 10.359375 
Q 26.171875 14.453125 28.265625 20.21875 
L 39.796875 51.859375 
L 48.828125 51.859375 
L 29.203125 0 
z
" id="ArialMT-118"/>
       </defs>
       <use xlink:href="#ArialMT-77"/>
       <use x="83.300781" xlink:href="#ArialMT-111"/>
       <use x="138.916016" xlink:href="#ArialMT-100"/>
       <use x="194.53125" xlink:href="#ArialMT-101"/>
       <use x="250.146484" xlink:href="#ArialMT-114"/>
       <use x="283.447266" xlink:href="#ArialMT-97"/>
       <use x="339.0625" xlink:href="#ArialMT-116"/>
       <use x="366.845703" xlink:href="#ArialMT-101"/>
       <use x="422.460938" xlink:href="#ArialMT-43"/>
       <use x="480.859375" xlink:href="#ArialMT-83"/>
       <use x="547.558594" xlink:href="#ArialMT-101"/>
       <use x="603.173828" xlink:href="#ArialMT-118"/>
       <use x="653.173828" xlink:href="#ArialMT-101"/>
       <use x="708.789062" xlink:href="#ArialMT-114"/>
       <use x="742.089844" xlink:href="#ArialMT-101"/>
      </g>
     </g>
    </g>
    <g id="xtick_3">
     <g id="text_3">
      <!-- Slight -->
      <g style="fill:#262626;" transform="translate(1112.797581 1231.838438)scale(0.5 -0.5)">
       <defs>
        <path d="M 6.640625 61.46875 
L 6.640625 71.578125 
L 15.4375 71.578125 
L 15.4375 61.46875 
z
M 6.640625 0 
L 6.640625 51.859375 
L 15.4375 51.859375 
L 15.4375 0 
z
" id="ArialMT-105"/>
        <path d="M 4.984375 -4.296875 
L 13.53125 -5.5625 
Q 14.0625 -9.515625 16.5 -11.328125 
Q 19.78125 -13.765625 25.4375 -13.765625 
Q 31.546875 -13.765625 34.859375 -11.328125 
Q 38.1875 -8.890625 39.359375 -4.5 
Q 40.046875 -1.8125 39.984375 6.78125 
Q 34.234375 0 25.640625 0 
Q 14.9375 0 9.078125 7.71875 
Q 3.21875 15.4375 3.21875 26.21875 
Q 3.21875 33.640625 5.90625 39.90625 
Q 8.59375 46.1875 13.6875 49.609375 
Q 18.796875 53.03125 25.6875 53.03125 
Q 34.859375 53.03125 40.828125 45.609375 
L 40.828125 51.859375 
L 48.921875 51.859375 
L 48.921875 7.03125 
Q 48.921875 -5.078125 46.453125 -10.125 
Q 44 -15.1875 38.640625 -18.109375 
Q 33.296875 -21.046875 25.484375 -21.046875 
Q 16.21875 -21.046875 10.5 -16.875 
Q 4.78125 -12.703125 4.984375 -4.296875 
z
M 12.25 26.859375 
Q 12.25 16.65625 16.296875 11.96875 
Q 20.359375 7.28125 26.46875 7.28125 
Q 32.515625 7.28125 36.609375 11.9375 
Q 40.71875 16.609375 40.71875 26.5625 
Q 40.71875 36.078125 36.5 40.90625 
Q 32.28125 45.75 26.3125 45.75 
Q 20.453125 45.75 16.34375 40.984375 
Q 12.25 36.234375 12.25 26.859375 
z
" id="ArialMT-103"/>
       </defs>
       <use xlink:href="#ArialMT-83"/>
       <use x="66.699219" xlink:href="#ArialMT-108"/>
       <use x="88.916016" xlink:href="#ArialMT-105"/>
       <use x="111.132812" xlink:href="#ArialMT-103"/>
       <use x="166.748047" xlink:href="#ArialMT-104"/>
       <use x="222.363281" xlink:href="#ArialMT-116"/>
      </g>
     </g>
    </g>
   </g>
   <g id="matplotlib.axis_2">
    <g id="ytick_1">
     <g id="line2d_1">
      <path clip-path="url(#pfa13e5cedb)" d="M 230.13 1089.928658 
L 1242 1089.928658 
" style="fill:none;stroke:#cccccc;stroke-linecap:round;stroke-width:2;"/>
     </g>
     <g id="text_4">
      <!-- 0 -->
      <g style="fill:#262626;" transform="translate(186.825312 1107.82319)scale(0.5 -0.5)">
       <defs>
        <path d="M 4.15625 35.296875 
Q 4.15625 48 6.765625 55.734375 
Q 9.375 63.484375 14.515625 67.671875 
Q 19.671875 71.875 27.484375 71.875 
Q 33.25 71.875 37.59375 69.546875 
Q 41.9375 67.234375 44.765625 62.859375 
Q 47.609375 58.5 49.21875 52.21875 
Q 50.828125 45.953125 50.828125 35.296875 
Q 50.828125 22.703125 48.234375 14.96875 
Q 45.65625 7.234375 40.5 3 
Q 35.359375 -1.21875 27.484375 -1.21875 
Q 17.140625 -1.21875 11.234375 6.203125 
Q 4.15625 15.140625 4.15625 35.296875 
z
M 13.1875 35.296875 
Q 13.1875 17.671875 17.3125 11.828125 
Q 21.4375 6 27.484375 6 
Q 33.546875 6 37.671875 11.859375 
Q 41.796875 17.71875 41.796875 35.296875 
Q 41.796875 52.984375 37.671875 58.78125 
Q 33.546875 64.59375 27.390625 64.59375 
Q 21.34375 64.59375 17.71875 59.46875 
Q 13.1875 52.9375 13.1875 35.296875 
z
" id="ArialMT-48"/>
       </defs>
       <use xlink:href="#ArialMT-48"/>
      </g>
     </g>
    </g>
    <g id="ytick_2">
     <g id="line2d_2">
      <path clip-path="url(#pfa13e5cedb)" d="M 230.13 914.702182 
L 1242 914.702182 
" style="fill:none;stroke:#cccccc;stroke-linecap:round;stroke-width:2;"/>
     </g>
     <g id="text_5">
      <!-- 1000 -->
      <g style="fill:#262626;" transform="translate(103.41125 932.596714)scale(0.5 -0.5)">
       <defs>
        <path d="M 37.25 0 
L 28.46875 0 
L 28.46875 56 
Q 25.296875 52.984375 20.140625 49.953125 
Q 14.984375 46.921875 10.890625 45.40625 
L 10.890625 53.90625 
Q 18.265625 57.375 23.78125 62.296875 
Q 29.296875 67.234375 31.59375 71.875 
L 37.25 71.875 
z
" id="ArialMT-49"/>
       </defs>
       <use xlink:href="#ArialMT-49"/>
       <use x="55.615234" xlink:href="#ArialMT-48"/>
       <use x="111.230469" xlink:href="#ArialMT-48"/>
       <use x="166.845703" xlink:href="#ArialMT-48"/>
      </g>
     </g>
    </g>
    <g id="ytick_3">
     <g id="line2d_3">
      <path clip-path="url(#pfa13e5cedb)" d="M 230.13 739.475706 
L 1242 739.475706 
" style="fill:none;stroke:#cccccc;stroke-linecap:round;stroke-width:2;"/>
     </g>
     <g id="text_6">
      <!-- 2000 -->
      <g style="fill:#262626;" transform="translate(103.41125 757.370238)scale(0.5 -0.5)">
       <defs>
        <path d="M 50.34375 8.453125 
L 50.34375 0 
L 3.03125 0 
Q 2.9375 3.171875 4.046875 6.109375 
Q 5.859375 10.9375 9.828125 15.625 
Q 13.8125 20.3125 21.34375 26.46875 
Q 33.015625 36.03125 37.109375 41.625 
Q 41.21875 47.21875 41.21875 52.203125 
Q 41.21875 57.421875 37.46875 61 
Q 33.734375 64.59375 27.734375 64.59375 
Q 21.390625 64.59375 17.578125 60.78125 
Q 13.765625 56.984375 13.71875 50.25 
L 4.6875 51.171875 
Q 5.609375 61.28125 11.65625 66.578125 
Q 17.71875 71.875 27.9375 71.875 
Q 38.234375 71.875 44.234375 66.15625 
Q 50.25 60.453125 50.25 52 
Q 50.25 47.703125 48.484375 43.546875 
Q 46.734375 39.40625 42.65625 34.8125 
Q 38.578125 30.21875 29.109375 22.21875 
Q 21.1875 15.578125 18.9375 13.203125 
Q 16.703125 10.84375 15.234375 8.453125 
z
" id="ArialMT-50"/>
       </defs>
       <use xlink:href="#ArialMT-50"/>
       <use x="55.615234" xlink:href="#ArialMT-48"/>
       <use x="111.230469" xlink:href="#ArialMT-48"/>
       <use x="166.845703" xlink:href="#ArialMT-48"/>
      </g>
     </g>
    </g>
    <g id="ytick_4">
     <g id="line2d_4">
      <path clip-path="url(#pfa13e5cedb)" d="M 230.13 564.24923 
L 1242 564.24923 
" style="fill:none;stroke:#cccccc;stroke-linecap:round;stroke-width:2;"/>
     </g>
     <g id="text_7">
      <!-- 3000 -->
      <g style="fill:#262626;" transform="translate(103.41125 582.143762)scale(0.5 -0.5)">
       <defs>
        <path d="M 4.203125 18.890625 
L 12.984375 20.0625 
Q 14.5 12.59375 18.140625 9.296875 
Q 21.78125 6 27 6 
Q 33.203125 6 37.46875 10.296875 
Q 41.75 14.59375 41.75 20.953125 
Q 41.75 27 37.796875 30.921875 
Q 33.84375 34.859375 27.734375 34.859375 
Q 25.25 34.859375 21.53125 33.890625 
L 22.515625 41.609375 
Q 23.390625 41.5 23.921875 41.5 
Q 29.546875 41.5 34.03125 44.421875 
Q 38.53125 47.359375 38.53125 53.46875 
Q 38.53125 58.296875 35.25 61.46875 
Q 31.984375 64.65625 26.8125 64.65625 
Q 21.6875 64.65625 18.265625 61.421875 
Q 14.84375 58.203125 13.875 51.765625 
L 5.078125 53.328125 
Q 6.6875 62.15625 12.390625 67.015625 
Q 18.109375 71.875 26.609375 71.875 
Q 32.46875 71.875 37.390625 69.359375 
Q 42.328125 66.84375 44.9375 62.5 
Q 47.5625 58.15625 47.5625 53.265625 
Q 47.5625 48.640625 45.0625 44.828125 
Q 42.578125 41.015625 37.703125 38.765625 
Q 44.046875 37.3125 47.5625 32.6875 
Q 51.078125 28.078125 51.078125 21.140625 
Q 51.078125 11.765625 44.234375 5.25 
Q 37.40625 -1.265625 26.953125 -1.265625 
Q 17.53125 -1.265625 11.296875 4.34375 
Q 5.078125 9.96875 4.203125 18.890625 
z
" id="ArialMT-51"/>
       </defs>
       <use xlink:href="#ArialMT-51"/>
       <use x="55.615234" xlink:href="#ArialMT-48"/>
       <use x="111.230469" xlink:href="#ArialMT-48"/>
       <use x="166.845703" xlink:href="#ArialMT-48"/>
      </g>
     </g>
    </g>
    <g id="ytick_5">
     <g id="line2d_5">
      <path clip-path="url(#pfa13e5cedb)" d="M 230.13 389.022754 
L 1242 389.022754 
" style="fill:none;stroke:#cccccc;stroke-linecap:round;stroke-width:2;"/>
     </g>
     <g id="text_8">
      <!-- 4000 -->
      <g style="fill:#262626;" transform="translate(103.41125 406.917286)scale(0.5 -0.5)">
       <defs>
        <path d="M 32.328125 0 
L 32.328125 17.140625 
L 1.265625 17.140625 
L 1.265625 25.203125 
L 33.9375 71.578125 
L 41.109375 71.578125 
L 41.109375 25.203125 
L 50.78125 25.203125 
L 50.78125 17.140625 
L 41.109375 17.140625 
L 41.109375 0 
z
M 32.328125 25.203125 
L 32.328125 57.46875 
L 9.90625 25.203125 
z
" id="ArialMT-52"/>
       </defs>
       <use xlink:href="#ArialMT-52"/>
       <use x="55.615234" xlink:href="#ArialMT-48"/>
       <use x="111.230469" xlink:href="#ArialMT-48"/>
       <use x="166.845703" xlink:href="#ArialMT-48"/>
      </g>
     </g>
    </g>
    <g id="ytick_6">
     <g id="line2d_6">
      <path clip-path="url(#pfa13e5cedb)" d="M 230.13 213.796278 
L 1242 213.796278 
" style="fill:none;stroke:#cccccc;stroke-linecap:round;stroke-width:2;"/>
     </g>
     <g id="text_9">
      <!-- 5000 -->
      <g style="fill:#262626;" transform="translate(103.41125 231.69081)scale(0.5 -0.5)">
       <defs>
        <path d="M 4.15625 18.75 
L 13.375 19.53125 
Q 14.40625 12.796875 18.140625 9.390625 
Q 21.875 6 27.15625 6 
Q 33.5 6 37.890625 10.78125 
Q 42.28125 15.578125 42.28125 23.484375 
Q 42.28125 31 38.0625 35.34375 
Q 33.84375 39.703125 27 39.703125 
Q 22.75 39.703125 19.328125 37.765625 
Q 15.921875 35.84375 13.96875 32.765625 
L 5.71875 33.84375 
L 12.640625 70.609375 
L 48.25 70.609375 
L 48.25 62.203125 
L 19.671875 62.203125 
L 15.828125 42.96875 
Q 22.265625 47.46875 29.34375 47.46875 
Q 38.71875 47.46875 45.15625 40.96875 
Q 51.609375 34.46875 51.609375 24.265625 
Q 51.609375 14.546875 45.953125 7.46875 
Q 39.0625 -1.21875 27.15625 -1.21875 
Q 17.390625 -1.21875 11.203125 4.25 
Q 5.03125 9.71875 4.15625 18.75 
z
" id="ArialMT-53"/>
       </defs>
       <use xlink:href="#ArialMT-53"/>
       <use x="55.615234" xlink:href="#ArialMT-48"/>
       <use x="111.230469" xlink:href="#ArialMT-48"/>
       <use x="166.845703" xlink:href="#ArialMT-48"/>
      </g>
     </g>
    </g>
    <g id="text_10">
     <!-- Abundance -->
     <g style="fill:#262626;" transform="translate(89.47375 764.522187)rotate(-90)scale(0.5 -0.5)">
      <defs>
       <path d="M -0.140625 0 
L 27.34375 71.578125 
L 37.546875 71.578125 
L 66.84375 0 
L 56.0625 0 
L 47.703125 21.6875 
L 17.78125 21.6875 
L 9.90625 0 
z
M 20.515625 29.390625 
L 44.78125 29.390625 
L 37.3125 49.21875 
Q 33.890625 58.25 32.234375 64.0625 
Q 30.859375 57.171875 28.375 50.390625 
z
" id="ArialMT-65"/>
       <path d="M 14.703125 0 
L 6.546875 0 
L 6.546875 71.578125 
L 15.328125 71.578125 
L 15.328125 46.046875 
Q 20.90625 53.03125 29.546875 53.03125 
Q 34.328125 53.03125 38.59375 51.09375 
Q 42.875 49.171875 45.625 45.671875 
Q 48.390625 42.1875 49.953125 37.25 
Q 51.515625 32.328125 51.515625 26.703125 
Q 51.515625 13.375 44.921875 6.09375 
Q 38.328125 -1.171875 29.109375 -1.171875 
Q 19.921875 -1.171875 14.703125 6.5 
z
M 14.59375 26.3125 
Q 14.59375 17 17.140625 12.84375 
Q 21.296875 6.0625 28.375 6.0625 
Q 34.125 6.0625 38.328125 11.0625 
Q 42.53125 16.0625 42.53125 25.984375 
Q 42.53125 36.140625 38.5 40.96875 
Q 34.46875 45.796875 28.765625 45.796875 
Q 23 45.796875 18.796875 40.796875 
Q 14.59375 35.796875 14.59375 26.3125 
z
" id="ArialMT-98"/>
       <path d="M 40.578125 0 
L 40.578125 7.625 
Q 34.515625 -1.171875 24.125 -1.171875 
Q 19.53125 -1.171875 15.546875 0.578125 
Q 11.578125 2.34375 9.640625 5 
Q 7.71875 7.671875 6.9375 11.53125 
Q 6.390625 14.109375 6.390625 19.734375 
L 6.390625 51.859375 
L 15.1875 51.859375 
L 15.1875 23.09375 
Q 15.1875 16.21875 15.71875 13.8125 
Q 16.546875 10.359375 19.234375 8.375 
Q 21.921875 6.390625 25.875 6.390625 
Q 29.828125 6.390625 33.296875 8.421875 
Q 36.765625 10.453125 38.203125 13.9375 
Q 39.65625 17.4375 39.65625 24.078125 
L 39.65625 51.859375 
L 48.4375 51.859375 
L 48.4375 0 
z
" id="ArialMT-117"/>
       <path d="M 6.59375 0 
L 6.59375 51.859375 
L 14.5 51.859375 
L 14.5 44.484375 
Q 20.21875 53.03125 31 53.03125 
Q 35.6875 53.03125 39.625 51.34375 
Q 43.5625 49.65625 45.515625 46.921875 
Q 47.46875 44.1875 48.25 40.4375 
Q 48.734375 37.984375 48.734375 31.890625 
L 48.734375 0 
L 39.9375 0 
L 39.9375 31.546875 
Q 39.9375 36.921875 38.90625 39.578125 
Q 37.890625 42.234375 35.28125 43.8125 
Q 32.671875 45.40625 29.15625 45.40625 
Q 23.53125 45.40625 19.453125 41.84375 
Q 15.375 38.28125 15.375 28.328125 
L 15.375 0 
z
" id="ArialMT-110"/>
       <path d="M 40.4375 19 
L 49.078125 17.875 
Q 47.65625 8.9375 41.8125 3.875 
Q 35.984375 -1.171875 27.484375 -1.171875 
Q 16.84375 -1.171875 10.375 5.78125 
Q 3.90625 12.75 3.90625 25.734375 
Q 3.90625 34.125 6.6875 40.421875 
Q 9.46875 46.734375 15.15625 49.875 
Q 20.84375 53.03125 27.546875 53.03125 
Q 35.984375 53.03125 41.359375 48.75 
Q 46.734375 44.484375 48.25 36.625 
L 39.703125 35.296875 
Q 38.484375 40.53125 35.375 43.15625 
Q 32.28125 45.796875 27.875 45.796875 
Q 21.234375 45.796875 17.078125 41.03125 
Q 12.9375 36.28125 12.9375 25.984375 
Q 12.9375 15.53125 16.9375 10.796875 
Q 20.953125 6.0625 27.390625 6.0625 
Q 32.5625 6.0625 36.03125 9.234375 
Q 39.5 12.40625 40.4375 19 
z
" id="ArialMT-99"/>
      </defs>
      <use xlink:href="#ArialMT-65"/>
      <use x="66.699219" xlink:href="#ArialMT-98"/>
      <use x="122.314453" xlink:href="#ArialMT-117"/>
      <use x="177.929688" xlink:href="#ArialMT-110"/>
      <use x="233.544922" xlink:href="#ArialMT-100"/>
      <use x="289.160156" xlink:href="#ArialMT-97"/>
      <use x="344.775391" xlink:href="#ArialMT-110"/>
      <use x="400.390625" xlink:href="#ArialMT-99"/>
      <use x="450.390625" xlink:href="#ArialMT-101"/>
     </g>
    </g>
   </g>
   <g id="PolyCollection_1">
    <defs>
     <path d="M 513.443494 -200.51806 
L 338.540904 -200.51806 
L 319.758592 -201.695766 
L 302.477789 -202.873472 
L 288.49734 -204.051178 
L 279.375861 -205.228884 
L 276.124091 -206.40659 
L 278.996169 -207.584296 
L 287.439962 -208.762002 
L 300.22043 -209.939708 
L 315.679018 -211.117414 
L 332.055118 -212.29512 
L 347.78557 -213.472827 
L 361.715674 -214.650533 
L 373.190395 -215.828239 
L 382.032065 -217.005945 
L 388.437881 -218.183651 
L 392.840848 -219.361357 
L 395.773061 -220.539063 
L 397.756838 -221.716769 
L 399.234299 -222.894475 
L 400.53438 -224.072181 
L 401.869486 -225.249887 
L 403.351509 -226.427593 
L 405.017151 -227.6053 
L 406.854264 -228.783006 
L 408.823599 -229.960712 
L 410.873398 -231.138418 
L 412.947172 -232.316124 
L 414.987013 -233.49383 
L 416.935418 -234.671536 
L 418.737848 -235.849242 
L 420.346697 -237.026948 
L 421.725791 -238.204654 
L 422.853857 -239.38236 
L 423.725587 -240.560066 
L 424.349928 -241.737773 
L 424.746313 -242.915479 
L 424.940244 -244.093185 
L 424.959687 -245.270891 
L 424.833203 -246.448597 
L 424.589905 -247.626303 
L 424.260595 -248.804009 
L 423.87901 -249.981715 
L 423.482134 -251.159421 
L 423.108915 -252.337127 
L 422.797322 -253.514833 
L 422.580297 -254.69254 
L 422.481531 -255.870246 
L 422.512136 -257.047952 
L 422.6691 -258.225658 
L 422.935977 -259.403364 
L 423.285737 -260.58107 
L 423.685196 -261.758776 
L 424.100083 -262.936482 
L 424.499743 -264.114188 
L 424.860587 -265.291894 
L 425.167841 -266.4696 
L 425.415513 -267.647306 
L 425.60498 -268.825013 
L 425.742759 -270.002719 
L 425.838106 -271.180425 
L 425.900948 -272.358131 
L 425.940418 -273.535837 
L 425.964051 -274.713543 
L 425.977545 -275.891249 
L 425.984895 -277.068955 
L 425.988714 -278.246661 
L 425.990607 -279.424367 
L 425.991503 -280.602073 
L 425.991907 -281.779779 
L 425.992079 -282.957486 
L 425.992144 -284.135192 
L 425.992155 -285.312898 
L 425.992121 -286.490604 
L 425.992013 -287.66831 
L 425.991752 -288.846016 
L 425.99116 -290.023722 
L 425.989888 -291.201428 
L 425.987284 -292.379134 
L 425.982203 -293.55684 
L 425.972763 -294.734546 
L 425.95607 -295.912252 
L 425.927994 -297.089959 
L 425.883117 -298.267665 
L 425.815024 -299.445371 
L 425.717079 -300.623077 
L 425.583778 -301.800783 
L 425.412553 -302.978489 
L 425.205725 -304.156195 
L 424.972027 -305.333901 
L 424.727085 -306.511607 
L 424.492328 -307.689313 
L 424.292213 -308.867019 
L 424.150136 -310.044725 
L 424.083969 -311.222432 
L 424.10236 -312.400138 
L 424.202887 -313.577844 
L 424.372572 -314.75555 
L 424.59064 -315.933256 
L 424.832688 -317.110962 
L 427.15171 -317.110962 
L 427.15171 -317.110962 
L 427.393757 -315.933256 
L 427.611825 -314.75555 
L 427.78151 -313.577844 
L 427.882037 -312.400138 
L 427.900429 -311.222432 
L 427.834261 -310.044725 
L 427.692184 -308.867019 
L 427.492069 -307.689313 
L 427.257313 -306.511607 
L 427.01237 -305.333901 
L 426.778672 -304.156195 
L 426.571844 -302.978489 
L 426.40062 -301.800783 
L 426.267318 -300.623077 
L 426.169373 -299.445371 
L 426.10128 -298.267665 
L 426.056403 -297.089959 
L 426.028327 -295.912252 
L 426.011634 -294.734546 
L 426.002194 -293.55684 
L 425.997113 -292.379134 
L 425.994509 -291.201428 
L 425.993237 -290.023722 
L 425.992645 -288.846016 
L 425.992384 -287.66831 
L 425.992276 -286.490604 
L 425.992242 -285.312898 
L 425.992253 -284.135192 
L 425.992318 -282.957486 
L 425.99249 -281.779779 
L 425.992894 -280.602073 
L 425.99379 -279.424367 
L 425.995683 -278.246661 
L 425.999502 -277.068955 
L 426.006852 -275.891249 
L 426.020346 -274.713543 
L 426.043979 -273.535837 
L 426.083449 -272.358131 
L 426.146291 -271.180425 
L 426.241639 -270.002719 
L 426.379417 -268.825013 
L 426.568884 -267.647306 
L 426.816557 -266.4696 
L 427.12381 -265.291894 
L 427.484655 -264.114188 
L 427.884314 -262.936482 
L 428.299202 -261.758776 
L 428.69866 -260.58107 
L 429.04842 -259.403364 
L 429.315297 -258.225658 
L 429.472261 -257.047952 
L 429.502866 -255.870246 
L 429.4041 -254.69254 
L 429.187076 -253.514833 
L 428.875482 -252.337127 
L 428.502263 -251.159421 
L 428.105388 -249.981715 
L 427.723802 -248.804009 
L 427.394492 -247.626303 
L 427.151194 -246.448597 
L 427.02471 -245.270891 
L 427.044154 -244.093185 
L 427.238084 -242.915479 
L 427.634469 -241.737773 
L 428.25881 -240.560066 
L 429.13054 -239.38236 
L 430.258606 -238.204654 
L 431.637701 -237.026948 
L 433.246549 -235.849242 
L 435.04898 -234.671536 
L 436.997384 -233.49383 
L 439.037225 -232.316124 
L 441.110999 -231.138418 
L 443.160798 -229.960712 
L 445.130133 -228.783006 
L 446.967246 -227.6053 
L 448.632888 -226.427593 
L 450.114911 -225.249887 
L 451.450017 -224.072181 
L 452.750098 -222.894475 
L 454.227559 -221.716769 
L 456.211336 -220.539063 
L 459.14355 -219.361357 
L 463.546517 -218.183651 
L 469.952332 -217.005945 
L 478.794002 -215.828239 
L 490.268723 -214.650533 
L 504.198827 -213.472827 
L 519.929279 -212.29512 
L 536.305379 -211.117414 
L 551.763967 -209.939708 
L 564.544436 -208.762002 
L 572.988228 -207.584296 
L 575.860306 -206.40659 
L 572.608536 -205.228884 
L 563.487058 -204.051178 
L 549.506608 -202.873472 
L 532.225805 -201.695766 
L 513.443494 -200.51806 
z
" id="m07645723e9" style="stroke:#4c4c4c;stroke-width:5;"/>
    </defs>
    <g clip-path="url(#pfa13e5cedb)">
     <use style="fill:#5875a4;stroke:#4c4c4c;stroke-width:5;" x="0" xlink:href="#m07645723e9" y="1296"/>
    </g>
   </g>
   <g id="PolyCollection_2">
    <defs>
     <path d="M 803.60178 -153.776475 
L 797.723156 -153.776475 
L 797.009947 -161.395965 
L 796.205108 -169.015455 
L 795.319408 -176.634945 
L 794.369888 -184.254435 
L 793.379564 -191.873925 
L 792.376551 -199.493415 
L 791.392601 -207.112905 
L 790.461183 -214.732395 
L 789.61528 -222.351885 
L 788.885121 -229.971375 
L 788.296098 -237.590865 
L 787.867104 -245.210355 
L 787.609432 -252.829845 
L 787.526363 -260.449335 
L 787.613415 -268.068825 
L 787.85919 -275.688315 
L 788.246659 -283.307805 
L 788.754714 -290.927294 
L 789.359788 -298.546784 
L 790.037382 -306.166274 
L 790.763385 -313.785764 
L 791.515117 -321.405254 
L 792.272085 -329.024744 
L 793.016466 -336.644234 
L 793.733381 -344.263724 
L 794.411 -351.883214 
L 795.040531 -359.502704 
L 795.616117 -367.122194 
L 796.134671 -374.741684 
L 796.595631 -382.361174 
L 797.000652 -389.980664 
L 797.353224 -397.600154 
L 797.658226 -405.219644 
L 797.92145 -412.839134 
L 798.149106 -420.458624 
L 798.347355 -428.078114 
L 798.521917 -435.697604 
L 798.677758 -443.317094 
L 798.818912 -450.936584 
L 798.948404 -458.556073 
L 799.068299 -466.175563 
L 799.179828 -473.795053 
L 799.283576 -481.414543 
L 799.37969 -489.034033 
L 799.468074 -496.653523 
L 799.548557 -504.273013 
L 799.621002 -511.892503 
L 799.685365 -519.511993 
L 799.741706 -527.131483 
L 799.790155 -534.750973 
L 799.830872 -542.370463 
L 799.86399 -549.989953 
L 799.889577 -557.609443 
L 799.907617 -565.228933 
L 799.918017 -572.848423 
L 799.920643 -580.467913 
L 799.915379 -588.087403 
L 799.902199 -595.706893 
L 799.881262 -603.326383 
L 799.852991 -610.945873 
L 799.818162 -618.565363 
L 799.777959 -626.184853 
L 799.734011 -633.804342 
L 799.688382 -641.423832 
L 799.643521 -649.043322 
L 799.602149 -656.662812 
L 799.567112 -664.282302 
L 799.541182 -671.901792 
L 799.526836 -679.521282 
L 799.526043 -687.140772 
L 799.540063 -694.760262 
L 799.569305 -702.379752 
L 799.613255 -709.999242 
L 799.670483 -717.618732 
L 799.738745 -725.238222 
L 799.815151 -732.857712 
L 799.8964 -740.477202 
L 799.979045 -748.096692 
L 800.059759 -755.716182 
L 800.135581 -763.335672 
L 800.20411 -770.955162 
L 800.263645 -778.574652 
L 800.313246 -786.194142 
L 800.352729 -793.813632 
L 800.382601 -801.433121 
L 800.403942 -809.052611 
L 800.418255 -816.672101 
L 800.427296 -824.291591 
L 800.432901 -831.911081 
L 800.436832 -839.530571 
L 800.44064 -847.150061 
L 800.445564 -854.769551 
L 800.452473 -862.389041 
L 800.461845 -870.008531 
L 800.473782 -877.628021 
L 800.488067 -885.247511 
L 800.504231 -892.867001 
L 800.521646 -900.486491 
L 800.539609 -908.105981 
L 800.785327 -908.105981 
L 800.785327 -908.105981 
L 800.80329 -900.486491 
L 800.820704 -892.867001 
L 800.836869 -885.247511 
L 800.851154 -877.628021 
L 800.863091 -870.008531 
L 800.872463 -862.389041 
L 800.879372 -854.769551 
L 800.884296 -847.150061 
L 800.888103 -839.530571 
L 800.892035 -831.911081 
L 800.89764 -824.291591 
L 800.90668 -816.672101 
L 800.920993 -809.052611 
L 800.942335 -801.433121 
L 800.972207 -793.813632 
L 801.01169 -786.194142 
L 801.061291 -778.574652 
L 801.120826 -770.955162 
L 801.189355 -763.335672 
L 801.265176 -755.716182 
L 801.34589 -748.096692 
L 801.428535 -740.477202 
L 801.509785 -732.857712 
L 801.586191 -725.238222 
L 801.654452 -717.618732 
L 801.711681 -709.999242 
L 801.755631 -702.379752 
L 801.784873 -694.760262 
L 801.798893 -687.140772 
L 801.798099 -679.521282 
L 801.783754 -671.901792 
L 801.757823 -664.282302 
L 801.722787 -656.662812 
L 801.681415 -649.043322 
L 801.636553 -641.423832 
L 801.590925 -633.804342 
L 801.546977 -626.184853 
L 801.506774 -618.565363 
L 801.471944 -610.945873 
L 801.443674 -603.326383 
L 801.422736 -595.706893 
L 801.409557 -588.087403 
L 801.404292 -580.467913 
L 801.406918 -572.848423 
L 801.417318 -565.228933 
L 801.435358 -557.609443 
L 801.460945 -549.989953 
L 801.494063 -542.370463 
L 801.53478 -534.750973 
L 801.58323 -527.131483 
L 801.63957 -519.511993 
L 801.703934 -511.892503 
L 801.776379 -504.273013 
L 801.856862 -496.653523 
L 801.945246 -489.034033 
L 802.041359 -481.414543 
L 802.145108 -473.795053 
L 802.256637 -466.175563 
L 802.376532 -458.556073 
L 802.506024 -450.936584 
L 802.647177 -443.317094 
L 802.803019 -435.697604 
L 802.97758 -428.078114 
L 803.17583 -420.458624 
L 803.403485 -412.839134 
L 803.66671 -405.219644 
L 803.971712 -397.600154 
L 804.324283 -389.980664 
L 804.729304 -382.361174 
L 805.190265 -374.741684 
L 805.708819 -367.122194 
L 806.284405 -359.502704 
L 806.913935 -351.883214 
L 807.591554 -344.263724 
L 808.308469 -336.644234 
L 809.05285 -329.024744 
L 809.809818 -321.405254 
L 810.561551 -313.785764 
L 811.287554 -306.166274 
L 811.965147 -298.546784 
L 812.570221 -290.927294 
L 813.078277 -283.307805 
L 813.465746 -275.688315 
L 813.71152 -268.068825 
L 813.798572 -260.449335 
L 813.715503 -252.829845 
L 813.457832 -245.210355 
L 813.028837 -237.590865 
L 812.439815 -229.971375 
L 811.709655 -222.351885 
L 810.863753 -214.732395 
L 809.932335 -207.112905 
L 808.948384 -199.493415 
L 807.945371 -191.873925 
L 806.955048 -184.254435 
L 806.005527 -176.634945 
L 805.119828 -169.015455 
L 804.314988 -161.395965 
L 803.60178 -153.776475 
z
" id="me63814dcdf" style="stroke:#4c4c4c;stroke-width:5;"/>
    </defs>
    <g clip-path="url(#pfa13e5cedb)">
     <use style="fill:#cc8963;stroke:#4c4c4c;stroke-width:5;" x="0" xlink:href="#me63814dcdf" y="1296"/>
    </g>
   </g>
   <g id="PolyCollection_3">
    <defs>
     <path d="M 1185.55475 -164.418536 
L 1165.110724 -164.418536 
L 1163.129168 -171.430103 
L 1161.139711 -178.441669 
L 1159.247668 -185.453236 
L 1157.56337 -192.464803 
L 1156.190788 -199.47637 
L 1155.21603 -206.487936 
L 1154.697533 -213.499503 
L 1154.659565 -220.51107 
L 1155.090055 -227.522637 
L 1155.943013 -234.534203 
L 1157.144966 -241.54577 
L 1158.604225 -248.557337 
L 1160.221379 -255.568903 
L 1161.899465 -262.58047 
L 1163.552466 -269.592037 
L 1165.111323 -276.603604 
L 1166.527112 -283.61517 
L 1167.771559 -290.626737 
L 1168.835339 -297.638304 
L 1169.724818 -304.649871 
L 1170.457894 -311.661437 
L 1171.05957 -318.673004 
L 1171.557742 -325.684571 
L 1171.979605 -332.696138 
L 1172.348908 -339.707704 
L 1172.684201 -346.719271 
L 1172.9981 -353.730838 
L 1173.29744 -360.742404 
L 1173.584161 -367.753971 
L 1173.85664 -374.765538 
L 1174.111213 -381.777105 
L 1174.343607 -388.788671 
L 1174.550104 -395.800238 
L 1174.728298 -402.811805 
L 1174.877454 -409.823372 
L 1174.998483 -416.834938 
L 1175.093663 -423.846505 
L 1175.166207 -430.858072 
L 1175.2198 -437.869639 
L 1175.258184 -444.881205 
L 1175.28484 -451.892772 
L 1175.302793 -458.904339 
L 1175.314522 -465.915905 
L 1175.321958 -472.927472 
L 1175.326531 -479.939039 
L 1175.329261 -486.950606 
L 1175.330843 -493.962172 
L 1175.331734 -500.973739 
L 1175.33222 -507.985306 
L 1175.332478 -514.996873 
L 1175.332611 -522.008439 
L 1175.332677 -529.020006 
L 1175.332709 -536.031573 
L 1175.332725 -543.04314 
L 1175.332732 -550.054706 
L 1175.332735 -557.066273 
L 1175.332736 -564.07784 
L 1175.332737 -571.089406 
L 1175.332737 -578.100973 
L 1175.332737 -585.11254 
L 1175.332737 -592.124107 
L 1175.332736 -599.135673 
L 1175.332736 -606.14724 
L 1175.332734 -613.158807 
L 1175.33273 -620.170374 
L 1175.332721 -627.18194 
L 1175.332703 -634.193507 
L 1175.332667 -641.205074 
L 1175.332597 -648.216641 
L 1175.332464 -655.228207 
L 1175.33222 -662.239774 
L 1175.331785 -669.251341 
L 1175.331033 -676.262907 
L 1175.329771 -683.274474 
L 1175.327719 -690.286041 
L 1175.324483 -697.297608 
L 1175.319541 -704.309174 
L 1175.312229 -711.320741 
L 1175.301757 -718.332308 
L 1175.287243 -725.343875 
L 1175.267797 -732.355441 
L 1175.242629 -739.367008 
L 1175.211199 -746.378575 
L 1175.173387 -753.390142 
L 1175.129648 -760.401708 
L 1175.081135 -767.413275 
L 1175.029742 -774.424842 
L 1174.978045 -781.436408 
L 1174.929128 -788.447975 
L 1174.886296 -795.459542 
L 1174.852715 -802.471109 
L 1174.831028 -809.482675 
L 1174.823012 -816.494242 
L 1174.829336 -823.505809 
L 1174.849472 -830.517376 
L 1174.881763 -837.528942 
L 1174.923655 -844.540509 
L 1174.972023 -851.552076 
L 1175.023558 -858.563642 
L 1175.641916 -858.563642 
L 1175.641916 -858.563642 
L 1175.693451 -851.552076 
L 1175.741819 -844.540509 
L 1175.783711 -837.528942 
L 1175.816002 -830.517376 
L 1175.836138 -823.505809 
L 1175.842462 -816.494242 
L 1175.834446 -809.482675 
L 1175.812759 -802.471109 
L 1175.779178 -795.459542 
L 1175.736346 -788.447975 
L 1175.687429 -781.436408 
L 1175.635732 -774.424842 
L 1175.584339 -767.413275 
L 1175.535826 -760.401708 
L 1175.492087 -753.390142 
L 1175.454275 -746.378575 
L 1175.422845 -739.367008 
L 1175.397677 -732.355441 
L 1175.378231 -725.343875 
L 1175.363717 -718.332308 
L 1175.353245 -711.320741 
L 1175.345933 -704.309174 
L 1175.340991 -697.297608 
L 1175.337755 -690.286041 
L 1175.335703 -683.274474 
L 1175.334441 -676.262907 
L 1175.333689 -669.251341 
L 1175.333254 -662.239774 
L 1175.33301 -655.228207 
L 1175.332877 -648.216641 
L 1175.332807 -641.205074 
L 1175.332771 -634.193507 
L 1175.332753 -627.18194 
L 1175.332744 -620.170374 
L 1175.33274 -613.158807 
L 1175.332738 -606.14724 
L 1175.332738 -599.135673 
L 1175.332737 -592.124107 
L 1175.332737 -585.11254 
L 1175.332737 -578.100973 
L 1175.332737 -571.089406 
L 1175.332738 -564.07784 
L 1175.332739 -557.066273 
L 1175.332742 -550.054706 
L 1175.332749 -543.04314 
L 1175.332765 -536.031573 
L 1175.332797 -529.020006 
L 1175.332863 -522.008439 
L 1175.332996 -514.996873 
L 1175.333254 -507.985306 
L 1175.33374 -500.973739 
L 1175.334631 -493.962172 
L 1175.336213 -486.950606 
L 1175.338943 -479.939039 
L 1175.343516 -472.927472 
L 1175.350952 -465.915905 
L 1175.362681 -458.904339 
L 1175.380634 -451.892772 
L 1175.40729 -444.881205 
L 1175.445674 -437.869639 
L 1175.499267 -430.858072 
L 1175.571811 -423.846505 
L 1175.666991 -416.834938 
L 1175.78802 -409.823372 
L 1175.937176 -402.811805 
L 1176.11537 -395.800238 
L 1176.321867 -388.788671 
L 1176.554261 -381.777105 
L 1176.808834 -374.765538 
L 1177.081313 -367.753971 
L 1177.368034 -360.742404 
L 1177.667374 -353.730838 
L 1177.981273 -346.719271 
L 1178.316566 -339.707704 
L 1178.685868 -332.696138 
L 1179.107732 -325.684571 
L 1179.605904 -318.673004 
L 1180.20758 -311.661437 
L 1180.940656 -304.649871 
L 1181.830135 -297.638304 
L 1182.893915 -290.626737 
L 1184.138362 -283.61517 
L 1185.554151 -276.603604 
L 1187.113008 -269.592037 
L 1188.766009 -262.58047 
L 1190.444095 -255.568903 
L 1192.061249 -248.557337 
L 1193.520508 -241.54577 
L 1194.722461 -234.534203 
L 1195.575419 -227.522637 
L 1196.005909 -220.51107 
L 1195.967941 -213.499503 
L 1195.449444 -206.487936 
L 1194.474686 -199.47637 
L 1193.102104 -192.464803 
L 1191.417806 -185.453236 
L 1189.525763 -178.441669 
L 1187.536306 -171.430103 
L 1185.55475 -164.418536 
z
" id="m178e9ad5b1" style="stroke:#4c4c4c;stroke-width:5;"/>
    </defs>
    <g clip-path="url(#pfa13e5cedb)">
     <use style="fill:#5f9e6e;stroke:#4c4c4c;stroke-width:5;" x="0" xlink:href="#m178e9ad5b1" y="1296"/>
    </g>
   </g>
   <g id="line2d_7">
    <path clip-path="url(#pfa13e5cedb)" d="M 425.992199 1089.928658 
L 425.992199 1083.620505 
" style="fill:none;stroke:#4c4c4c;stroke-linecap:round;stroke-width:5;"/>
   </g>
   <g id="line2d_8">
    <path clip-path="url(#pfa13e5cedb)" d="M 425.992199 1089.928658 
L 425.992199 1086.862195 
" style="fill:none;stroke:#4c4c4c;stroke-linecap:round;stroke-width:15;"/>
   </g>
   <g id="line2d_9">
    <path clip-path="url(#pfa13e5cedb)" d="M 800.662468 1089.578206 
L 800.662468 841.282289 
" style="fill:none;stroke:#4c4c4c;stroke-linecap:round;stroke-width:5;"/>
   </g>
   <g id="line2d_10">
    <path clip-path="url(#pfa13e5cedb)" d="M 800.662468 1053.393938 
L 800.662468 962.363784 
" style="fill:none;stroke:#4c4c4c;stroke-linecap:round;stroke-width:15;"/>
   </g>
   <g id="line2d_11">
    <path clip-path="url(#pfa13e5cedb)" d="M 1175.332737 1089.928658 
L 1175.332737 1008.097894 
" style="fill:none;stroke:#4c4c4c;stroke-linecap:round;stroke-width:5;"/>
   </g>
   <g id="line2d_12">
    <path clip-path="url(#pfa13e5cedb)" d="M 1175.332737 1089.928658 
L 1175.332737 1055.277623 
" style="fill:none;stroke:#4c4c4c;stroke-linecap:round;stroke-width:15;"/>
   </g>
   <g id="line2d_13">
    <path clip-path="url(#pfa13e5cedb)" d="M 425.992199 390.753591 
L 425.992199 374.158342 
L 800.662468 374.158342 
L 800.662468 390.753591 
" style="fill:none;stroke:#333333;stroke-linecap:round;stroke-width:1.5;"/>
   </g>
   <g id="line2d_14">
    <path clip-path="url(#pfa13e5cedb)" d="M 800.662468 293.420327 
L 800.662468 276.825078 
L 1175.332737 276.825078 
L 1175.332737 293.420327 
" style="fill:none;stroke:#333333;stroke-linecap:round;stroke-width:1.5;"/>
   </g>
   <g id="line2d_15">
    <path clip-path="url(#pfa13e5cedb)" d="M 425.992199 191.113111 
L 425.992199 174.517861 
L 1175.332737 174.517861 
L 1175.332737 191.113111 
" style="fill:none;stroke:#333333;stroke-linecap:round;stroke-width:1.5;"/>
   </g>
   <g id="patch_3">
    <path d="M 230.13 1179.94 
L 230.13 96.12 
" style="fill:none;stroke:#cccccc;stroke-linecap:square;stroke-linejoin:miter;stroke-width:2.5;"/>
   </g>
   <g id="patch_4">
    <path d="M 1242 1179.94 
L 1242 96.12 
" style="fill:none;stroke:#cccccc;stroke-linecap:square;stroke-linejoin:miter;stroke-width:2.5;"/>
   </g>
   <g id="patch_5">
    <path d="M 230.13 1179.94 
L 1242 1179.94 
" style="fill:none;stroke:#cccccc;stroke-linecap:square;stroke-linejoin:miter;stroke-width:2.5;"/>
   </g>
   <g id="patch_6">
    <path d="M 230.13 96.12 
L 1242 96.12 
" style="fill:none;stroke:#cccccc;stroke-linecap:square;stroke-linejoin:miter;stroke-width:2.5;"/>
   </g>
   <g id="PathCollection_1">
    <defs>
     <path d="M 0 5 
C 1.326016 5 2.597899 4.473168 3.535534 3.535534 
C 4.473168 2.597899 5 1.326016 5 0 
C 5 -1.326016 4.473168 -2.597899 3.535534 -3.535534 
C 2.597899 -4.473168 1.326016 -5 0 -5 
C -1.326016 -5 -2.597899 -4.473168 -3.535534 -3.535534 
C -4.473168 -2.597899 -5 -1.326016 -5 0 
C -5 1.326016 -4.473168 2.597899 -3.535534 3.535534 
C -2.597899 4.473168 -1.326016 5 0 5 
z
" id="m665dd61af1" style="stroke:#4c4c4c;stroke-width:2;"/>
    </defs>
    <g clip-path="url(#pfa13e5cedb)">
     <use style="fill:#ffffff;stroke:#4c4c4c;stroke-width:2;" x="425.992199" xlink:href="#m665dd61af1" y="1089.928658"/>
    </g>
   </g>
   <g id="PathCollection_2">
    <g clip-path="url(#pfa13e5cedb)">
     <use style="fill:#ffffff;stroke:#4c4c4c;stroke-width:2;" x="800.662468" xlink:href="#m665dd61af1" y="1025.357702"/>
    </g>
   </g>
   <g id="PathCollection_3">
    <g clip-path="url(#pfa13e5cedb)">
     <use style="fill:#ffffff;stroke:#4c4c4c;stroke-width:2;" x="1175.332737" xlink:href="#m665dd61af1" y="1082.65676"/>
    </g>
   </g>
   <g id="text_11">
    <!-- **** -->
    <g transform="translate(574.405458 363.220842)scale(0.5 -0.5)">
     <defs>
      <path d="M 3.125 58.453125 
L 5.375 65.375 
Q 13.140625 62.640625 16.65625 60.640625 
Q 15.71875 69.484375 15.671875 72.796875 
L 22.75 72.796875 
Q 22.609375 67.96875 21.625 60.6875 
Q 26.65625 63.234375 33.15625 65.375 
L 35.40625 58.453125 
Q 29.203125 56.390625 23.25 55.71875 
Q 26.21875 53.125 31.640625 46.484375 
L 25.78125 42.328125 
Q 22.953125 46.1875 19.09375 52.828125 
Q 15.484375 45.953125 12.75 42.328125 
L 6.984375 46.484375 
Q 12.640625 53.46875 15.09375 55.71875 
Q 8.796875 56.9375 3.125 58.453125 
z
" id="ArialMT-42"/>
     </defs>
     <use xlink:href="#ArialMT-42"/>
     <use x="38.916016" xlink:href="#ArialMT-42"/>
     <use x="77.832031" xlink:href="#ArialMT-42"/>
     <use x="116.748047" xlink:href="#ArialMT-42"/>
    </g>
   </g>
   <g id="text_12">
    <!-- **** -->
    <g transform="translate(949.075727 265.887578)scale(0.5 -0.5)">
     <use xlink:href="#ArialMT-42"/>
     <use x="38.916016" xlink:href="#ArialMT-42"/>
     <use x="77.832031" xlink:href="#ArialMT-42"/>
     <use x="116.748047" xlink:href="#ArialMT-42"/>
    </g>
   </g>
   <g id="text_13">
    <!-- **** -->
    <g transform="translate(761.740593 163.580361)scale(0.5 -0.5)">
     <use xlink:href="#ArialMT-42"/>
     <use x="38.916016" xlink:href="#ArialMT-42"/>
     <use x="77.832031" xlink:href="#ArialMT-42"/>
     <use x="116.748047" xlink:href="#ArialMT-42"/>
    </g>
   </g>
   <g id="text_14">
    <!-- Porphyromonas gingivalis (K.W. p=2.40e-32) -->
    <g transform="translate(239.311094 90.12)scale(0.5 -0.5)">
     <defs>
      <path d="M 7.71875 0 
L 7.71875 71.578125 
L 34.71875 71.578125 
Q 41.84375 71.578125 45.609375 70.90625 
Q 50.875 70.015625 54.4375 67.546875 
Q 58.015625 65.09375 60.1875 60.640625 
Q 62.359375 56.203125 62.359375 50.875 
Q 62.359375 41.75 56.546875 35.421875 
Q 50.734375 29.109375 35.546875 29.109375 
L 17.1875 29.109375 
L 17.1875 0 
z
M 17.1875 37.546875 
L 35.6875 37.546875 
Q 44.875 37.546875 48.734375 40.96875 
Q 52.59375 44.390625 52.59375 50.59375 
Q 52.59375 55.078125 50.3125 58.265625 
Q 48.046875 61.46875 44.34375 62.5 
Q 41.9375 63.140625 35.5 63.140625 
L 17.1875 63.140625 
z
" id="ArialMT-80"/>
      <path d="M 6.59375 -19.875 
L 6.59375 51.859375 
L 14.59375 51.859375 
L 14.59375 45.125 
Q 17.4375 49.078125 21 51.046875 
Q 24.5625 53.03125 29.640625 53.03125 
Q 36.28125 53.03125 41.359375 49.609375 
Q 46.4375 46.1875 49.015625 39.953125 
Q 51.609375 33.734375 51.609375 26.3125 
Q 51.609375 18.359375 48.75 11.984375 
Q 45.90625 5.609375 40.453125 2.21875 
Q 35.015625 -1.171875 29 -1.171875 
Q 24.609375 -1.171875 21.109375 0.6875 
Q 17.625 2.546875 15.375 5.375 
L 15.375 -19.875 
z
M 14.546875 25.640625 
Q 14.546875 15.625 18.59375 10.84375 
Q 22.65625 6.0625 28.421875 6.0625 
Q 34.28125 6.0625 38.453125 11.015625 
Q 42.625 15.96875 42.625 26.375 
Q 42.625 36.28125 38.546875 41.203125 
Q 34.46875 46.140625 28.8125 46.140625 
Q 23.1875 46.140625 18.859375 40.890625 
Q 14.546875 35.640625 14.546875 25.640625 
z
" id="ArialMT-112"/>
      <path d="M 6.59375 0 
L 6.59375 51.859375 
L 14.453125 51.859375 
L 14.453125 44.578125 
Q 16.890625 48.390625 20.9375 50.703125 
Q 25 53.03125 30.171875 53.03125 
Q 35.9375 53.03125 39.625 50.640625 
Q 43.3125 48.25 44.828125 43.953125 
Q 50.984375 53.03125 60.84375 53.03125 
Q 68.5625 53.03125 72.703125 48.75 
Q 76.859375 44.484375 76.859375 35.59375 
L 76.859375 0 
L 68.109375 0 
L 68.109375 32.671875 
Q 68.109375 37.9375 67.25 40.25 
Q 66.40625 42.578125 64.15625 43.984375 
Q 61.921875 45.40625 58.890625 45.40625 
Q 53.421875 45.40625 49.796875 41.765625 
Q 46.1875 38.140625 46.1875 30.125 
L 46.1875 0 
L 37.40625 0 
L 37.40625 33.6875 
Q 37.40625 39.546875 35.25 42.46875 
Q 33.109375 45.40625 28.21875 45.40625 
Q 24.515625 45.40625 21.359375 43.453125 
Q 18.21875 41.5 16.796875 37.734375 
Q 15.375 33.984375 15.375 26.90625 
L 15.375 0 
z
" id="ArialMT-109"/>
      <path d="M 3.078125 15.484375 
L 11.765625 16.84375 
Q 12.5 11.625 15.84375 8.84375 
Q 19.1875 6.0625 25.203125 6.0625 
Q 31.25 6.0625 34.171875 8.515625 
Q 37.109375 10.984375 37.109375 14.3125 
Q 37.109375 17.28125 34.515625 19 
Q 32.71875 20.171875 25.53125 21.96875 
Q 15.875 24.421875 12.140625 26.203125 
Q 8.40625 27.984375 6.46875 31.125 
Q 4.546875 34.28125 4.546875 38.09375 
Q 4.546875 41.546875 6.125 44.5 
Q 7.71875 47.46875 10.453125 49.421875 
Q 12.5 50.921875 16.03125 51.96875 
Q 19.578125 53.03125 23.640625 53.03125 
Q 29.734375 53.03125 34.34375 51.265625 
Q 38.96875 49.515625 41.15625 46.5 
Q 43.359375 43.5 44.1875 38.484375 
L 35.59375 37.3125 
Q 35.015625 41.3125 32.203125 43.546875 
Q 29.390625 45.796875 24.265625 45.796875 
Q 18.21875 45.796875 15.625 43.796875 
Q 13.03125 41.796875 13.03125 39.109375 
Q 13.03125 37.40625 14.109375 36.03125 
Q 15.1875 34.625 17.484375 33.6875 
Q 18.796875 33.203125 25.25 31.453125 
Q 34.578125 28.953125 38.25 27.359375 
Q 41.9375 25.78125 44.03125 22.75 
Q 46.140625 19.734375 46.140625 15.234375 
Q 46.140625 10.84375 43.578125 6.953125 
Q 41.015625 3.078125 36.171875 0.953125 
Q 31.34375 -1.171875 25.25 -1.171875 
Q 15.140625 -1.171875 9.84375 3.03125 
Q 4.546875 7.234375 3.078125 15.484375 
z
" id="ArialMT-115"/>
      <path id="ArialMT-32"/>
      <path d="M 23.390625 -21.046875 
Q 16.109375 -11.859375 11.078125 0.4375 
Q 6.0625 12.75 6.0625 25.921875 
Q 6.0625 37.546875 9.8125 48.1875 
Q 14.203125 60.546875 23.390625 72.796875 
L 29.6875 72.796875 
Q 23.78125 62.640625 21.875 58.296875 
Q 18.890625 51.5625 17.1875 44.234375 
Q 15.09375 35.109375 15.09375 25.875 
Q 15.09375 2.390625 29.6875 -21.046875 
z
" id="ArialMT-40"/>
      <path d="M 7.328125 0 
L 7.328125 71.578125 
L 16.796875 71.578125 
L 16.796875 36.078125 
L 52.34375 71.578125 
L 65.1875 71.578125 
L 35.15625 42.578125 
L 66.5 0 
L 54 0 
L 28.515625 36.234375 
L 16.796875 24.8125 
L 16.796875 0 
z
" id="ArialMT-75"/>
      <path d="M 9.078125 0 
L 9.078125 10.015625 
L 19.09375 10.015625 
L 19.09375 0 
z
" id="ArialMT-46"/>
      <path d="M 20.21875 0 
L 1.21875 71.578125 
L 10.9375 71.578125 
L 21.828125 24.65625 
Q 23.578125 17.28125 24.859375 10.015625 
Q 27.59375 21.484375 28.078125 23.25 
L 41.703125 71.578125 
L 53.125 71.578125 
L 63.375 35.359375 
Q 67.234375 21.875 68.953125 10.015625 
Q 70.3125 16.796875 72.515625 25.59375 
L 83.734375 71.578125 
L 93.265625 71.578125 
L 73.640625 0 
L 64.5 0 
L 49.421875 54.546875 
Q 47.515625 61.375 47.171875 62.9375 
Q 46.046875 58.015625 45.0625 54.546875 
L 29.890625 0 
z
" id="ArialMT-87"/>
      <path d="M 52.828125 42.09375 
L 5.5625 42.09375 
L 5.5625 50.296875 
L 52.828125 50.296875 
z
M 52.828125 20.359375 
L 5.5625 20.359375 
L 5.5625 28.5625 
L 52.828125 28.5625 
z
" id="ArialMT-61"/>
      <path d="M 3.171875 21.484375 
L 3.171875 30.328125 
L 30.171875 30.328125 
L 30.171875 21.484375 
z
" id="ArialMT-45"/>
      <path d="M 12.359375 -21.046875 
L 6.0625 -21.046875 
Q 20.65625 2.390625 20.65625 25.875 
Q 20.65625 35.0625 18.5625 44.09375 
Q 16.890625 51.421875 13.921875 58.15625 
Q 12.015625 62.546875 6.0625 72.796875 
L 12.359375 72.796875 
Q 21.53125 60.546875 25.921875 48.1875 
Q 29.6875 37.546875 29.6875 25.921875 
Q 29.6875 12.75 24.625 0.4375 
Q 19.578125 -11.859375 12.359375 -21.046875 
z
" id="ArialMT-41"/>
     </defs>
     <use xlink:href="#ArialMT-80"/>
     <use x="66.699219" xlink:href="#ArialMT-111"/>
     <use x="122.314453" xlink:href="#ArialMT-114"/>
     <use x="155.615234" xlink:href="#ArialMT-112"/>
     <use x="211.230469" xlink:href="#ArialMT-104"/>
     <use x="266.845703" xlink:href="#ArialMT-121"/>
     <use x="316.845703" xlink:href="#ArialMT-114"/>
     <use x="350.146484" xlink:href="#ArialMT-111"/>
     <use x="405.761719" xlink:href="#ArialMT-109"/>
     <use x="489.0625" xlink:href="#ArialMT-111"/>
     <use x="544.677734" xlink:href="#ArialMT-110"/>
     <use x="600.292969" xlink:href="#ArialMT-97"/>
     <use x="655.908203" xlink:href="#ArialMT-115"/>
     <use x="705.908203" xlink:href="#ArialMT-32"/>
     <use x="733.691406" xlink:href="#ArialMT-103"/>
     <use x="789.306641" xlink:href="#ArialMT-105"/>
     <use x="811.523438" xlink:href="#ArialMT-110"/>
     <use x="867.138672" xlink:href="#ArialMT-103"/>
     <use x="922.753906" xlink:href="#ArialMT-105"/>
     <use x="944.970703" xlink:href="#ArialMT-118"/>
     <use x="994.970703" xlink:href="#ArialMT-97"/>
     <use x="1050.585938" xlink:href="#ArialMT-108"/>
     <use x="1072.802734" xlink:href="#ArialMT-105"/>
     <use x="1095.019531" xlink:href="#ArialMT-115"/>
     <use x="1145.019531" xlink:href="#ArialMT-32"/>
     <use x="1172.802734" xlink:href="#ArialMT-40"/>
     <use x="1206.103516" xlink:href="#ArialMT-75"/>
     <use x="1272.802734" xlink:href="#ArialMT-46"/>
     <use x="1300.585938" xlink:href="#ArialMT-87"/>
     <use x="1389.470703" xlink:href="#ArialMT-46"/>
     <use x="1417.253906" xlink:href="#ArialMT-32"/>
     <use x="1445.037109" xlink:href="#ArialMT-112"/>
     <use x="1500.652344" xlink:href="#ArialMT-61"/>
     <use x="1559.050781" xlink:href="#ArialMT-50"/>
     <use x="1614.666016" xlink:href="#ArialMT-46"/>
     <use x="1642.449219" xlink:href="#ArialMT-52"/>
     <use x="1698.064453" xlink:href="#ArialMT-48"/>
     <use x="1753.679688" xlink:href="#ArialMT-101"/>
     <use x="1809.294922" xlink:href="#ArialMT-45"/>
     <use x="1842.595703" xlink:href="#ArialMT-51"/>
     <use x="1898.210938" xlink:href="#ArialMT-50"/>
     <use x="1953.826172" xlink:href="#ArialMT-41"/>
    </g>
   </g>
  </g>
 </g>
 <defs>
  <clipPath id="pfa13e5cedb">
   <rect height="1083.82" width="1011.87" x="230.13" y="96.12"/>
  </clipPath>
 </defs>
</svg>
